G04 #@! TF.GenerationSoftware,KiCad,Pcbnew,(5.1.5)-3*
G04 #@! TF.CreationDate,2020-03-15T11:03:17-07:00*
G04 #@! TF.ProjectId,bbf-thonkjacks,6262662d-7468-46f6-9e6b-6a61636b732e,rev?*
G04 #@! TF.SameCoordinates,Original*
G04 #@! TF.FileFunction,Legend,Top*
G04 #@! TF.FilePolarity,Positive*
%FSLAX46Y46*%
G04 Gerber Fmt 4.6, Leading zero omitted, Abs format (unit mm)*
G04 Created by KiCad (PCBNEW (5.1.5)-3) date 2020-03-15 11:03:17*
%MOMM*%
%LPD*%
G04 APERTURE LIST*
%ADD10C,0.121920*%
%ADD11C,0.081280*%
%ADD12C,0.127000*%
%ADD13C,0.100000*%
%ADD14C,0.203200*%
%ADD15C,0.152400*%
%ADD16C,3.102000*%
%ADD17C,1.912800*%
%ADD18O,2.003200X3.503200*%
%ADD19C,2.082800*%
%ADD20R,2.082800X2.082800*%
G04 APERTURE END LIST*
D10*
X140172560Y-93609616D02*
X140209330Y-93683155D01*
X140209330Y-93830233D01*
X140172560Y-93903772D01*
X140135791Y-93940542D01*
X140062252Y-93977311D01*
X139841635Y-93977311D01*
X139768096Y-93940542D01*
X139731326Y-93903772D01*
X139694557Y-93830233D01*
X139694557Y-93683155D01*
X139731326Y-93609616D01*
X140172560Y-92947765D02*
X140209330Y-93021304D01*
X140209330Y-93168382D01*
X140172560Y-93241921D01*
X140135791Y-93278690D01*
X140062252Y-93315460D01*
X139841635Y-93315460D01*
X139768096Y-93278690D01*
X139731326Y-93241921D01*
X139694557Y-93168382D01*
X139694557Y-93021304D01*
X139731326Y-92947765D01*
X139915174Y-92616839D02*
X139915174Y-92028527D01*
X140209330Y-91660831D02*
X139437170Y-91660831D01*
X139731326Y-91660831D02*
X139694557Y-91587292D01*
X139694557Y-91440214D01*
X139731326Y-91366675D01*
X139768096Y-91329906D01*
X139841635Y-91293136D01*
X140062252Y-91293136D01*
X140135791Y-91329906D01*
X140172560Y-91366675D01*
X140209330Y-91440214D01*
X140209330Y-91587292D01*
X140172560Y-91660831D01*
X139694557Y-91035750D02*
X140209330Y-90851902D01*
X139694557Y-90668054D02*
X140209330Y-90851902D01*
X140393178Y-90925441D01*
X140429947Y-90962210D01*
X140466717Y-91035750D01*
X139915174Y-90373898D02*
X139915174Y-89785586D01*
X140172560Y-89454660D02*
X140209330Y-89381121D01*
X140209330Y-89234043D01*
X140172560Y-89160504D01*
X140099021Y-89123734D01*
X140062252Y-89123734D01*
X139988713Y-89160504D01*
X139951943Y-89234043D01*
X139951943Y-89344351D01*
X139915174Y-89417890D01*
X139841635Y-89454660D01*
X139804865Y-89454660D01*
X139731326Y-89417890D01*
X139694557Y-89344351D01*
X139694557Y-89234043D01*
X139731326Y-89160504D01*
X140209330Y-88461883D02*
X139804865Y-88461883D01*
X139731326Y-88498652D01*
X139694557Y-88572191D01*
X139694557Y-88719270D01*
X139731326Y-88792809D01*
X140172560Y-88461883D02*
X140209330Y-88535422D01*
X140209330Y-88719270D01*
X140172560Y-88792809D01*
X140099021Y-88829578D01*
X140025482Y-88829578D01*
X139951943Y-88792809D01*
X139915174Y-88719270D01*
X139915174Y-88535422D01*
X139878404Y-88461883D01*
X140743940Y-93536077D02*
X140707170Y-93609616D01*
X140707170Y-93719925D01*
X140743940Y-93830233D01*
X140817479Y-93903772D01*
X140891018Y-93940542D01*
X141038096Y-93977311D01*
X141148404Y-93977311D01*
X141295482Y-93940542D01*
X141369021Y-93903772D01*
X141442560Y-93830233D01*
X141479330Y-93719925D01*
X141479330Y-93646386D01*
X141442560Y-93536077D01*
X141405791Y-93499308D01*
X141148404Y-93499308D01*
X141148404Y-93646386D01*
X141405791Y-93168382D02*
X141442560Y-93131612D01*
X141479330Y-93168382D01*
X141442560Y-93205151D01*
X141405791Y-93168382D01*
X141479330Y-93168382D01*
X140707170Y-91991757D02*
X141258713Y-91991757D01*
X141369021Y-92028527D01*
X141442560Y-92102066D01*
X141479330Y-92212374D01*
X141479330Y-92285913D01*
X141479330Y-91513753D02*
X141442560Y-91587292D01*
X141405791Y-91624062D01*
X141332252Y-91660831D01*
X141111635Y-91660831D01*
X141038096Y-91624062D01*
X141001326Y-91587292D01*
X140964557Y-91513753D01*
X140964557Y-91403445D01*
X141001326Y-91329906D01*
X141038096Y-91293136D01*
X141111635Y-91256367D01*
X141332252Y-91256367D01*
X141405791Y-91293136D01*
X141442560Y-91329906D01*
X141479330Y-91403445D01*
X141479330Y-91513753D01*
X141479330Y-90925441D02*
X140707170Y-90925441D01*
X141479330Y-90594515D02*
X141074865Y-90594515D01*
X141001326Y-90631285D01*
X140964557Y-90704824D01*
X140964557Y-90815132D01*
X141001326Y-90888671D01*
X141038096Y-90925441D01*
X140964557Y-90226820D02*
X141479330Y-90226820D01*
X141038096Y-90226820D02*
X141001326Y-90190050D01*
X140964557Y-90116511D01*
X140964557Y-90006203D01*
X141001326Y-89932664D01*
X141074865Y-89895894D01*
X141479330Y-89895894D01*
X141442560Y-89564969D02*
X141479330Y-89491430D01*
X141479330Y-89344351D01*
X141442560Y-89270812D01*
X141369021Y-89234043D01*
X141332252Y-89234043D01*
X141258713Y-89270812D01*
X141221943Y-89344351D01*
X141221943Y-89454660D01*
X141185174Y-89528199D01*
X141111635Y-89564969D01*
X141074865Y-89564969D01*
X141001326Y-89528199D01*
X140964557Y-89454660D01*
X140964557Y-89344351D01*
X141001326Y-89270812D01*
X141479330Y-88792809D02*
X141442560Y-88866348D01*
X141405791Y-88903117D01*
X141332252Y-88939887D01*
X141111635Y-88939887D01*
X141038096Y-88903117D01*
X141001326Y-88866348D01*
X140964557Y-88792809D01*
X140964557Y-88682500D01*
X141001326Y-88608961D01*
X141038096Y-88572191D01*
X141111635Y-88535422D01*
X141332252Y-88535422D01*
X141405791Y-88572191D01*
X141442560Y-88608961D01*
X141479330Y-88682500D01*
X141479330Y-88792809D01*
X140964557Y-88204496D02*
X141479330Y-88204496D01*
X141038096Y-88204496D02*
X141001326Y-88167727D01*
X140964557Y-88094188D01*
X140964557Y-87983879D01*
X141001326Y-87910340D01*
X141074865Y-87873570D01*
X141479330Y-87873570D01*
D11*
X154369322Y-83078438D02*
X154277398Y-83032476D01*
X154139512Y-83032476D01*
X154001627Y-83078438D01*
X153909703Y-83170361D01*
X153863741Y-83262285D01*
X153817779Y-83446133D01*
X153817779Y-83584018D01*
X153863741Y-83767866D01*
X153909703Y-83859790D01*
X154001627Y-83951714D01*
X154139512Y-83997676D01*
X154231436Y-83997676D01*
X154369322Y-83951714D01*
X154415284Y-83905752D01*
X154415284Y-83584018D01*
X154231436Y-83584018D01*
X154828941Y-83997676D02*
X154828941Y-83032476D01*
X155380484Y-83997676D01*
X155380484Y-83032476D01*
X155840103Y-83997676D02*
X155840103Y-83032476D01*
X156069912Y-83032476D01*
X156207798Y-83078438D01*
X156299722Y-83170361D01*
X156345684Y-83262285D01*
X156391646Y-83446133D01*
X156391646Y-83584018D01*
X156345684Y-83767866D01*
X156299722Y-83859790D01*
X156207798Y-83951714D01*
X156069912Y-83997676D01*
X155840103Y-83997676D01*
X154369322Y-126258438D02*
X154277398Y-126212476D01*
X154139512Y-126212476D01*
X154001627Y-126258438D01*
X153909703Y-126350361D01*
X153863741Y-126442285D01*
X153817779Y-126626133D01*
X153817779Y-126764018D01*
X153863741Y-126947866D01*
X153909703Y-127039790D01*
X154001627Y-127131714D01*
X154139512Y-127177676D01*
X154231436Y-127177676D01*
X154369322Y-127131714D01*
X154415284Y-127085752D01*
X154415284Y-126764018D01*
X154231436Y-126764018D01*
X154828941Y-127177676D02*
X154828941Y-126212476D01*
X155380484Y-127177676D01*
X155380484Y-126212476D01*
X155840103Y-127177676D02*
X155840103Y-126212476D01*
X156069912Y-126212476D01*
X156207798Y-126258438D01*
X156299722Y-126350361D01*
X156345684Y-126442285D01*
X156391646Y-126626133D01*
X156391646Y-126764018D01*
X156345684Y-126947866D01*
X156299722Y-127039790D01*
X156207798Y-127131714D01*
X156069912Y-127177676D01*
X155840103Y-127177676D01*
X153725855Y-128752476D02*
X154047589Y-129717676D01*
X154369322Y-128752476D01*
X154645093Y-129671714D02*
X154737017Y-129717676D01*
X154920865Y-129717676D01*
X155012789Y-129671714D01*
X155058751Y-129579790D01*
X155058751Y-129533828D01*
X155012789Y-129441904D01*
X154920865Y-129395942D01*
X154782979Y-129395942D01*
X154691055Y-129349980D01*
X154645093Y-129258057D01*
X154645093Y-129212095D01*
X154691055Y-129120171D01*
X154782979Y-129074209D01*
X154920865Y-129074209D01*
X155012789Y-129120171D01*
X153725855Y-80492476D02*
X154047589Y-81457676D01*
X154369322Y-80492476D01*
X154645093Y-81411714D02*
X154737017Y-81457676D01*
X154920865Y-81457676D01*
X155012789Y-81411714D01*
X155058751Y-81319790D01*
X155058751Y-81273828D01*
X155012789Y-81181904D01*
X154920865Y-81135942D01*
X154782979Y-81135942D01*
X154691055Y-81089980D01*
X154645093Y-80998057D01*
X154645093Y-80952095D01*
X154691055Y-80860171D01*
X154782979Y-80814209D01*
X154920865Y-80814209D01*
X155012789Y-80860171D01*
D12*
G04 #@! TO.C,J2*
X156471100Y-99718638D02*
X154271100Y-99718638D01*
X156471100Y-100118638D02*
X156471100Y-99718638D01*
X154371100Y-100118638D02*
X156471100Y-100118638D01*
X152461821Y-99918638D02*
G75*
G03X152461821Y-99918638I-2690721J0D01*
G01*
X145771100Y-98418638D02*
X143771100Y-98418638D01*
X145771100Y-101418638D02*
X145771100Y-98418638D01*
X143771100Y-101418638D02*
X145771100Y-101418638D01*
X152933375Y-99918638D02*
G75*
G03X152933375Y-99918638I-3162275J0D01*
G01*
X154271100Y-95418638D02*
X143771100Y-95418638D01*
X154271100Y-99718638D02*
X154271100Y-95418638D01*
X154271100Y-104418638D02*
X154271100Y-99718638D01*
X143771100Y-104418638D02*
X154271100Y-104418638D01*
X143771100Y-98418638D02*
X143771100Y-95418638D01*
X143771100Y-101418638D02*
X143771100Y-98418638D01*
X143771100Y-104418638D02*
X143771100Y-101418638D01*
G04 #@! TO.C,J3*
X156471100Y-109878638D02*
X154271100Y-109878638D01*
X156471100Y-110278638D02*
X156471100Y-109878638D01*
X154371100Y-110278638D02*
X156471100Y-110278638D01*
X152461821Y-110078638D02*
G75*
G03X152461821Y-110078638I-2690721J0D01*
G01*
X145771100Y-108578638D02*
X143771100Y-108578638D01*
X145771100Y-111578638D02*
X145771100Y-108578638D01*
X143771100Y-111578638D02*
X145771100Y-111578638D01*
X152933375Y-110078638D02*
G75*
G03X152933375Y-110078638I-3162275J0D01*
G01*
X154271100Y-105578638D02*
X143771100Y-105578638D01*
X154271100Y-109878638D02*
X154271100Y-105578638D01*
X154271100Y-114578638D02*
X154271100Y-109878638D01*
X143771100Y-114578638D02*
X154271100Y-114578638D01*
X143771100Y-108578638D02*
X143771100Y-105578638D01*
X143771100Y-111578638D02*
X143771100Y-108578638D01*
X143771100Y-114578638D02*
X143771100Y-111578638D01*
G04 #@! TO.C,J4*
X156471100Y-120038638D02*
X154271100Y-120038638D01*
X156471100Y-120438638D02*
X156471100Y-120038638D01*
X154371100Y-120438638D02*
X156471100Y-120438638D01*
X152461821Y-120238638D02*
G75*
G03X152461821Y-120238638I-2690721J0D01*
G01*
X145771100Y-118738638D02*
X143771100Y-118738638D01*
X145771100Y-121738638D02*
X145771100Y-118738638D01*
X143771100Y-121738638D02*
X145771100Y-121738638D01*
X152933375Y-120238638D02*
G75*
G03X152933375Y-120238638I-3162275J0D01*
G01*
X154271100Y-115738638D02*
X143771100Y-115738638D01*
X154271100Y-120038638D02*
X154271100Y-115738638D01*
X154271100Y-124738638D02*
X154271100Y-120038638D01*
X143771100Y-124738638D02*
X154271100Y-124738638D01*
X143771100Y-118738638D02*
X143771100Y-115738638D01*
X143771100Y-121738638D02*
X143771100Y-118738638D01*
X143771100Y-124738638D02*
X143771100Y-121738638D01*
G04 #@! TO.C,J1*
X156471100Y-89558638D02*
X154271100Y-89558638D01*
X156471100Y-89958638D02*
X156471100Y-89558638D01*
X154371100Y-89958638D02*
X156471100Y-89958638D01*
X152461821Y-89758638D02*
G75*
G03X152461821Y-89758638I-2690721J0D01*
G01*
X145771100Y-88258638D02*
X143771100Y-88258638D01*
X145771100Y-91258638D02*
X145771100Y-88258638D01*
X143771100Y-91258638D02*
X145771100Y-91258638D01*
X152933375Y-89758638D02*
G75*
G03X152933375Y-89758638I-3162275J0D01*
G01*
X154271100Y-85258638D02*
X143771100Y-85258638D01*
X154271100Y-89558638D02*
X154271100Y-85258638D01*
X154271100Y-94258638D02*
X154271100Y-89558638D01*
X143771100Y-94258638D02*
X154271100Y-94258638D01*
X143771100Y-88258638D02*
X143771100Y-85258638D01*
X143771100Y-91258638D02*
X143771100Y-88258638D01*
X143771100Y-94258638D02*
X143771100Y-91258638D01*
D13*
G04 #@! TO.C,JP1*
G36*
X146850100Y-83662638D02*
G01*
X146850100Y-83154638D01*
X146342100Y-83154638D01*
X146342100Y-83662638D01*
X146850100Y-83662638D01*
G37*
D14*
X140881100Y-85313638D02*
X142151100Y-85313638D01*
D15*
X151041100Y-84678638D02*
X152311100Y-84678638D01*
X152946100Y-80233638D02*
X152946100Y-84043638D01*
X152311100Y-79598638D02*
X152946100Y-80233638D01*
X151041100Y-79598638D02*
X152311100Y-79598638D01*
X150406100Y-80233638D02*
X151041100Y-79598638D01*
X152311100Y-84678638D02*
X152946100Y-84043638D01*
X150406100Y-84043638D02*
X151041100Y-84678638D01*
X140881100Y-84678638D02*
X142151100Y-84678638D01*
X143421100Y-84678638D02*
X144691100Y-84678638D01*
X145961100Y-84678638D02*
X147231100Y-84678638D01*
X148501100Y-84678638D02*
X149771100Y-84678638D01*
X150406100Y-80233638D02*
X150406100Y-84043638D01*
X147866100Y-80233638D02*
X147866100Y-84043638D01*
X145326100Y-80233638D02*
X145326100Y-84043638D01*
X142786100Y-80233638D02*
X142786100Y-84043638D01*
X149771100Y-79598638D02*
X150406100Y-80233638D01*
X148501100Y-79598638D02*
X149771100Y-79598638D01*
X147866100Y-80233638D02*
X148501100Y-79598638D01*
X147231100Y-79598638D02*
X147866100Y-80233638D01*
X145961100Y-79598638D02*
X147231100Y-79598638D01*
X145326100Y-80233638D02*
X145961100Y-79598638D01*
X144691100Y-79598638D02*
X145326100Y-80233638D01*
X143421100Y-79598638D02*
X144691100Y-79598638D01*
X142786100Y-80233638D02*
X143421100Y-79598638D01*
X142151100Y-79598638D02*
X142786100Y-80233638D01*
X140881100Y-79598638D02*
X142151100Y-79598638D01*
X140246100Y-80233638D02*
X140881100Y-79598638D01*
X140246100Y-84043638D02*
X140246100Y-80233638D01*
X149771100Y-84678638D02*
X150406100Y-84043638D01*
X147866100Y-84043638D02*
X148501100Y-84678638D01*
X147231100Y-84678638D02*
X147866100Y-84043638D01*
X145326100Y-84043638D02*
X145961100Y-84678638D01*
X144691100Y-84678638D02*
X145326100Y-84043638D01*
X142786100Y-84043638D02*
X143421100Y-84678638D01*
X142151100Y-84678638D02*
X142786100Y-84043638D01*
X140246100Y-84043638D02*
X140881100Y-84678638D01*
D13*
G04 #@! TO.C,JP3*
G36*
X146850100Y-129382638D02*
G01*
X146850100Y-128874638D01*
X146342100Y-128874638D01*
X146342100Y-129382638D01*
X146850100Y-129382638D01*
G37*
D14*
X140881100Y-131033638D02*
X142151100Y-131033638D01*
D15*
X151041100Y-130398638D02*
X152311100Y-130398638D01*
X152946100Y-125953638D02*
X152946100Y-129763638D01*
X152311100Y-125318638D02*
X152946100Y-125953638D01*
X151041100Y-125318638D02*
X152311100Y-125318638D01*
X150406100Y-125953638D02*
X151041100Y-125318638D01*
X152311100Y-130398638D02*
X152946100Y-129763638D01*
X150406100Y-129763638D02*
X151041100Y-130398638D01*
X140881100Y-130398638D02*
X142151100Y-130398638D01*
X143421100Y-130398638D02*
X144691100Y-130398638D01*
X145961100Y-130398638D02*
X147231100Y-130398638D01*
X148501100Y-130398638D02*
X149771100Y-130398638D01*
X150406100Y-125953638D02*
X150406100Y-129763638D01*
X147866100Y-125953638D02*
X147866100Y-129763638D01*
X145326100Y-125953638D02*
X145326100Y-129763638D01*
X142786100Y-125953638D02*
X142786100Y-129763638D01*
X149771100Y-125318638D02*
X150406100Y-125953638D01*
X148501100Y-125318638D02*
X149771100Y-125318638D01*
X147866100Y-125953638D02*
X148501100Y-125318638D01*
X147231100Y-125318638D02*
X147866100Y-125953638D01*
X145961100Y-125318638D02*
X147231100Y-125318638D01*
X145326100Y-125953638D02*
X145961100Y-125318638D01*
X144691100Y-125318638D02*
X145326100Y-125953638D01*
X143421100Y-125318638D02*
X144691100Y-125318638D01*
X142786100Y-125953638D02*
X143421100Y-125318638D01*
X142151100Y-125318638D02*
X142786100Y-125953638D01*
X140881100Y-125318638D02*
X142151100Y-125318638D01*
X140246100Y-125953638D02*
X140881100Y-125318638D01*
X140246100Y-129763638D02*
X140246100Y-125953638D01*
X149771100Y-130398638D02*
X150406100Y-129763638D01*
X147866100Y-129763638D02*
X148501100Y-130398638D01*
X147231100Y-130398638D02*
X147866100Y-129763638D01*
X145326100Y-129763638D02*
X145961100Y-130398638D01*
X144691100Y-130398638D02*
X145326100Y-129763638D01*
X142786100Y-129763638D02*
X143421100Y-130398638D01*
X142151100Y-130398638D02*
X142786100Y-129763638D01*
X140246100Y-129763638D02*
X140881100Y-130398638D01*
D14*
G04 #@! TO.C,JP2*
X142151100Y-95473638D02*
X142151100Y-96743638D01*
X141516100Y-97378638D02*
X142151100Y-96743638D01*
X139611100Y-96743638D02*
X140246100Y-97378638D01*
X141516100Y-94838638D02*
X142151100Y-95473638D01*
X140246100Y-94838638D02*
X141516100Y-94838638D01*
X139611100Y-95473638D02*
X140246100Y-94838638D01*
X139611100Y-96743638D02*
X139611100Y-95473638D01*
X142151100Y-113253638D02*
X142151100Y-114523638D01*
X141516100Y-115158638D02*
X142151100Y-114523638D01*
X139611100Y-114523638D02*
X140246100Y-115158638D01*
X140246100Y-115158638D02*
X141516100Y-115158638D01*
X142151100Y-111983638D02*
X141516100Y-112618638D01*
X142151100Y-110713638D02*
X142151100Y-111983638D01*
X141516100Y-110078638D02*
X142151100Y-110713638D01*
X139611100Y-110713638D02*
X140246100Y-110078638D01*
X139611100Y-111983638D02*
X139611100Y-110713638D01*
X140246100Y-112618638D02*
X139611100Y-111983638D01*
X141516100Y-112618638D02*
X142151100Y-113253638D01*
X139611100Y-113253638D02*
X140246100Y-112618638D01*
X139611100Y-114523638D02*
X139611100Y-113253638D01*
X142151100Y-105633638D02*
X142151100Y-106903638D01*
X141516100Y-107538638D02*
X142151100Y-106903638D01*
X139611100Y-106903638D02*
X140246100Y-107538638D01*
X142151100Y-109443638D02*
X141516100Y-110078638D01*
X142151100Y-108173638D02*
X142151100Y-109443638D01*
X141516100Y-107538638D02*
X142151100Y-108173638D01*
X139611100Y-108173638D02*
X140246100Y-107538638D01*
X139611100Y-109443638D02*
X139611100Y-108173638D01*
X140246100Y-110078638D02*
X139611100Y-109443638D01*
X142151100Y-104363638D02*
X141516100Y-104998638D01*
X142151100Y-103093638D02*
X142151100Y-104363638D01*
X141516100Y-102458638D02*
X142151100Y-103093638D01*
X139611100Y-103093638D02*
X140246100Y-102458638D01*
X139611100Y-104363638D02*
X139611100Y-103093638D01*
X140246100Y-104998638D02*
X139611100Y-104363638D01*
X141516100Y-104998638D02*
X142151100Y-105633638D01*
X139611100Y-105633638D02*
X140246100Y-104998638D01*
X139611100Y-106903638D02*
X139611100Y-105633638D01*
X142151100Y-98013638D02*
X142151100Y-99283638D01*
X141516100Y-99918638D02*
X142151100Y-99283638D01*
X139611100Y-99283638D02*
X140246100Y-99918638D01*
X142151100Y-101823638D02*
X141516100Y-102458638D01*
X142151100Y-100553638D02*
X142151100Y-101823638D01*
X141516100Y-99918638D02*
X142151100Y-100553638D01*
X139611100Y-100553638D02*
X140246100Y-99918638D01*
X139611100Y-101823638D02*
X139611100Y-100553638D01*
X140246100Y-102458638D02*
X139611100Y-101823638D01*
X141516100Y-97378638D02*
X142151100Y-98013638D01*
X139611100Y-98013638D02*
X140246100Y-97378638D01*
X139611100Y-99283638D02*
X139611100Y-98013638D01*
G04 #@! TD*
%LPC*%
D16*
G04 #@! TO.C,J2*
X149771100Y-99918638D03*
D17*
X156271100Y-99918638D03*
D18*
X153271100Y-99918638D03*
X144771100Y-99918638D03*
G04 #@! TD*
D16*
G04 #@! TO.C,J3*
X149771100Y-110078638D03*
D17*
X156271100Y-110078638D03*
D18*
X153271100Y-110078638D03*
X144771100Y-110078638D03*
G04 #@! TD*
D16*
G04 #@! TO.C,J4*
X149771100Y-120238638D03*
D17*
X156271100Y-120238638D03*
D18*
X153271100Y-120238638D03*
X144771100Y-120238638D03*
G04 #@! TD*
D16*
G04 #@! TO.C,J1*
X149771100Y-89758638D03*
D17*
X156271100Y-89758638D03*
D18*
X153271100Y-89758638D03*
X144771100Y-89758638D03*
G04 #@! TD*
D19*
G04 #@! TO.C,JP1*
X151676100Y-80868638D03*
X151676100Y-83408638D03*
X149136100Y-80868638D03*
X149136100Y-83408638D03*
X146596100Y-80868638D03*
X146596100Y-83408638D03*
X144056100Y-80868638D03*
X144056100Y-83408638D03*
X141516100Y-80868638D03*
X141516100Y-83408638D03*
G04 #@! TD*
G04 #@! TO.C,JP3*
X151676100Y-126588638D03*
X151676100Y-129128638D03*
X149136100Y-126588638D03*
X149136100Y-129128638D03*
X146596100Y-126588638D03*
X146596100Y-129128638D03*
X144056100Y-126588638D03*
X144056100Y-129128638D03*
X141516100Y-126588638D03*
X141516100Y-129128638D03*
G04 #@! TD*
G04 #@! TO.C,JP2*
X140881100Y-96108638D03*
X140881100Y-98648638D03*
X140881100Y-101188638D03*
X140881100Y-103728638D03*
X140881100Y-106268638D03*
X140881100Y-108808638D03*
X140881100Y-111348638D03*
D20*
X140881100Y-113888638D03*
G04 #@! TD*
M02*
