M48
; DRILL file {KiCad (5.1.5)-3} date 3/15/2020 11:03:23 AM
; FORMAT={-:-/ absolute / inch / decimal}
; #@! TF.CreationDate,2020-03-15T11:03:23-07:00
; #@! TF.GenerationSoftware,Kicad,Pcbnew,(5.1.5)-3
; #@! TF.FileFunction,Plated,1,2,PTH
FMAT,2
INCH
T1C0.0197
T2C0.0400
T3C0.0433
%
G90
G05
T2
X5.5715Y-4.9838
X5.5715Y-5.0838
X5.6715Y-4.9838
X5.6715Y-5.0838
X5.7715Y-4.9838
X5.7715Y-5.0838
X5.8715Y-4.9838
X5.8715Y-5.0838
X5.9715Y-4.9838
X5.9715Y-5.0838
X5.5715Y-3.1838
X5.5715Y-3.2838
X5.6715Y-3.1838
X5.6715Y-3.2838
X5.7715Y-3.1838
X5.7715Y-3.2838
X5.8715Y-3.1838
X5.8715Y-3.2838
X5.9715Y-3.1838
X5.9715Y-3.2838
X5.5465Y-3.7838
X5.5465Y-3.8838
X5.5465Y-3.9838
X5.5465Y-4.0838
X5.5465Y-4.1838
X5.5465Y-4.2838
X5.5465Y-4.3838
X5.5465Y-4.4838
T3
X6.1524Y-4.7338
X6.1524Y-3.5338
X6.1524Y-3.9338
X6.1524Y-4.3338
T1
G00X5.6996Y-4.7673
M15
G01X5.6996Y-4.7003
M16
G05
G00X6.0343Y-4.7673
M15
G01X6.0343Y-4.7003
M16
G05
G00X5.6996Y-3.5673
M15
G01X5.6996Y-3.5003
M16
G05
G00X6.0343Y-3.5673
M15
G01X6.0343Y-3.5003
M16
G05
G00X5.6996Y-3.9673
M15
G01X5.6996Y-3.9003
M16
G05
G00X6.0343Y-3.9673
M15
G01X6.0343Y-3.9003
M16
G05
G00X5.6996Y-4.3673
M15
G01X5.6996Y-4.3003
M16
G05
G00X6.0343Y-4.3673
M15
G01X6.0343Y-4.3003
M16
G05
T0
M30
