G04 #@! TF.GenerationSoftware,KiCad,Pcbnew,(5.1.5)-3*
G04 #@! TF.CreationDate,2020-03-15T11:50:45-07:00*
G04 #@! TF.ProjectId,bbf-thonkjacks,6262662d-7468-46f6-9e6b-6a61636b732e,rev?*
G04 #@! TF.SameCoordinates,Original*
G04 #@! TF.FileFunction,Other,Fab,Top*
%FSLAX46Y46*%
G04 Gerber Fmt 4.6, Leading zero omitted, Abs format (unit mm)*
G04 Created by KiCad (PCBNEW (5.1.5)-3) date 2020-03-15 11:50:45*
%MOMM*%
%LPD*%
G04 APERTURE LIST*
%ADD10C,0.100000*%
%ADD11C,0.096520*%
G04 APERTURE END LIST*
D10*
G04 #@! TO.C,JP1*
G36*
X149390100Y-81122638D02*
G01*
X149390100Y-80614638D01*
X148882100Y-80614638D01*
X148882100Y-81122638D01*
X149390100Y-81122638D01*
G37*
G36*
X149390100Y-83662638D02*
G01*
X149390100Y-83154638D01*
X148882100Y-83154638D01*
X148882100Y-83662638D01*
X149390100Y-83662638D01*
G37*
G36*
X151930100Y-83662638D02*
G01*
X151930100Y-83154638D01*
X151422100Y-83154638D01*
X151422100Y-83662638D01*
X151930100Y-83662638D01*
G37*
G36*
X151930100Y-81122638D02*
G01*
X151930100Y-80614638D01*
X151422100Y-80614638D01*
X151422100Y-81122638D01*
X151930100Y-81122638D01*
G37*
G36*
X146850100Y-81122638D02*
G01*
X146850100Y-80614638D01*
X146342100Y-80614638D01*
X146342100Y-81122638D01*
X146850100Y-81122638D01*
G37*
G36*
X144310100Y-83662638D02*
G01*
X144310100Y-83154638D01*
X143802100Y-83154638D01*
X143802100Y-83662638D01*
X144310100Y-83662638D01*
G37*
G36*
X144310100Y-81122638D02*
G01*
X144310100Y-80614638D01*
X143802100Y-80614638D01*
X143802100Y-81122638D01*
X144310100Y-81122638D01*
G37*
G36*
X141770100Y-81122638D02*
G01*
X141770100Y-80614638D01*
X141262100Y-80614638D01*
X141262100Y-81122638D01*
X141770100Y-81122638D01*
G37*
G36*
X141770100Y-83662638D02*
G01*
X141770100Y-83154638D01*
X141262100Y-83154638D01*
X141262100Y-83662638D01*
X141770100Y-83662638D01*
G37*
G04 #@! TO.C,JP3*
G36*
X149390100Y-126842638D02*
G01*
X149390100Y-126334638D01*
X148882100Y-126334638D01*
X148882100Y-126842638D01*
X149390100Y-126842638D01*
G37*
G36*
X149390100Y-129382638D02*
G01*
X149390100Y-128874638D01*
X148882100Y-128874638D01*
X148882100Y-129382638D01*
X149390100Y-129382638D01*
G37*
G36*
X151930100Y-129382638D02*
G01*
X151930100Y-128874638D01*
X151422100Y-128874638D01*
X151422100Y-129382638D01*
X151930100Y-129382638D01*
G37*
G36*
X151930100Y-126842638D02*
G01*
X151930100Y-126334638D01*
X151422100Y-126334638D01*
X151422100Y-126842638D01*
X151930100Y-126842638D01*
G37*
G36*
X146850100Y-126842638D02*
G01*
X146850100Y-126334638D01*
X146342100Y-126334638D01*
X146342100Y-126842638D01*
X146850100Y-126842638D01*
G37*
G36*
X144310100Y-129382638D02*
G01*
X144310100Y-128874638D01*
X143802100Y-128874638D01*
X143802100Y-129382638D01*
X144310100Y-129382638D01*
G37*
G36*
X144310100Y-126842638D02*
G01*
X144310100Y-126334638D01*
X143802100Y-126334638D01*
X143802100Y-126842638D01*
X144310100Y-126842638D01*
G37*
G36*
X141770100Y-126842638D02*
G01*
X141770100Y-126334638D01*
X141262100Y-126334638D01*
X141262100Y-126842638D01*
X141770100Y-126842638D01*
G37*
G36*
X141770100Y-129382638D02*
G01*
X141770100Y-128874638D01*
X141262100Y-128874638D01*
X141262100Y-129382638D01*
X141770100Y-129382638D01*
G37*
G04 #@! TO.C,JP2*
G36*
X141135100Y-96362638D02*
G01*
X141135100Y-95854638D01*
X140627100Y-95854638D01*
X140627100Y-96362638D01*
X141135100Y-96362638D01*
G37*
G36*
X141135100Y-114142638D02*
G01*
X141135100Y-113634638D01*
X140627100Y-113634638D01*
X140627100Y-114142638D01*
X141135100Y-114142638D01*
G37*
G36*
X141135100Y-111602638D02*
G01*
X141135100Y-111094638D01*
X140627100Y-111094638D01*
X140627100Y-111602638D01*
X141135100Y-111602638D01*
G37*
G36*
X141135100Y-109062638D02*
G01*
X141135100Y-108554638D01*
X140627100Y-108554638D01*
X140627100Y-109062638D01*
X141135100Y-109062638D01*
G37*
G36*
X141135100Y-106522638D02*
G01*
X141135100Y-106014638D01*
X140627100Y-106014638D01*
X140627100Y-106522638D01*
X141135100Y-106522638D01*
G37*
G36*
X141135100Y-103982638D02*
G01*
X141135100Y-103474638D01*
X140627100Y-103474638D01*
X140627100Y-103982638D01*
X141135100Y-103982638D01*
G37*
G36*
X141135100Y-101442638D02*
G01*
X141135100Y-100934638D01*
X140627100Y-100934638D01*
X140627100Y-101442638D01*
X141135100Y-101442638D01*
G37*
G36*
X141135100Y-98902638D02*
G01*
X141135100Y-98394638D01*
X140627100Y-98394638D01*
X140627100Y-98902638D01*
X141135100Y-98902638D01*
G37*
G04 #@! TD*
G04 #@! TO.C,JP2*
D11*
X143998647Y-114808638D02*
X142792147Y-114808638D01*
X143653933Y-114406471D01*
X142792147Y-114004304D01*
X143998647Y-114004304D01*
X142792147Y-113199971D02*
X142792147Y-113085066D01*
X142849600Y-112970161D01*
X142907052Y-112912709D01*
X143021957Y-112855257D01*
X143251766Y-112797804D01*
X143539028Y-112797804D01*
X143768838Y-112855257D01*
X143883742Y-112912709D01*
X143941195Y-112970161D01*
X143998647Y-113085066D01*
X143998647Y-113199971D01*
X143941195Y-113314876D01*
X143883742Y-113372328D01*
X143768838Y-113429780D01*
X143539028Y-113487233D01*
X143251766Y-113487233D01*
X143021957Y-113429780D01*
X142907052Y-113372328D01*
X142849600Y-113314876D01*
X142792147Y-113199971D01*
X143309219Y-112108376D02*
X143251766Y-112223280D01*
X143194314Y-112280733D01*
X143079409Y-112338185D01*
X143021957Y-112338185D01*
X142907052Y-112280733D01*
X142849600Y-112223280D01*
X142792147Y-112108376D01*
X142792147Y-111878566D01*
X142849600Y-111763661D01*
X142907052Y-111706209D01*
X143021957Y-111648757D01*
X143079409Y-111648757D01*
X143194314Y-111706209D01*
X143251766Y-111763661D01*
X143309219Y-111878566D01*
X143309219Y-112108376D01*
X143366671Y-112223280D01*
X143424123Y-112280733D01*
X143539028Y-112338185D01*
X143768838Y-112338185D01*
X143883742Y-112280733D01*
X143941195Y-112223280D01*
X143998647Y-112108376D01*
X143998647Y-111878566D01*
X143941195Y-111763661D01*
X143883742Y-111706209D01*
X143768838Y-111648757D01*
X143539028Y-111648757D01*
X143424123Y-111706209D01*
X143366671Y-111763661D01*
X143309219Y-111878566D01*
G04 #@! TD*
M02*
