%TF.GenerationSoftware,KiCad,Pcbnew,(5.1.6-0-10_14)*%
%TF.CreationDate,2020-08-30T21:53:01-07:00*%
%TF.ProjectId,bbf-midi,6262662d-6d69-4646-992e-6b696361645f,rev?*%
%TF.SameCoordinates,Original*%
%TF.FileFunction,Legend,Bot*%
%TF.FilePolarity,Positive*%
%FSLAX46Y46*%
G04 Gerber Fmt 4.6, Leading zero omitted, Abs format (unit mm)*
G04 Created by KiCad (PCBNEW (5.1.6-0-10_14)) date 2020-08-30 21:53:01*
%MOMM*%
%LPD*%
G01*
G04 APERTURE LIST*
%ADD10C,0.150000*%
%ADD11C,0.120000*%
G04 APERTURE END LIST*
D10*
X150286404Y-111387380D02*
X150286404Y-110387380D01*
X149953071Y-111101666D01*
X149619738Y-110387380D01*
X149619738Y-111387380D01*
X149143547Y-111387380D02*
X149143547Y-110387380D01*
X148667357Y-111387380D02*
X148667357Y-110387380D01*
X148429261Y-110387380D01*
X148286404Y-110435000D01*
X148191166Y-110530238D01*
X148143547Y-110625476D01*
X148095928Y-110815952D01*
X148095928Y-110958809D01*
X148143547Y-111149285D01*
X148191166Y-111244523D01*
X148286404Y-111339761D01*
X148429261Y-111387380D01*
X148667357Y-111387380D01*
X147667357Y-111387380D02*
X147667357Y-110387380D01*
X146095928Y-110863571D02*
X145953071Y-110911190D01*
X145905452Y-110958809D01*
X145857833Y-111054047D01*
X145857833Y-111196904D01*
X145905452Y-111292142D01*
X145953071Y-111339761D01*
X146048309Y-111387380D01*
X146429261Y-111387380D01*
X146429261Y-110387380D01*
X146095928Y-110387380D01*
X146000690Y-110435000D01*
X145953071Y-110482619D01*
X145905452Y-110577857D01*
X145905452Y-110673095D01*
X145953071Y-110768333D01*
X146000690Y-110815952D01*
X146095928Y-110863571D01*
X146429261Y-110863571D01*
X145429261Y-111387380D02*
X145429261Y-110720714D01*
X145429261Y-110911190D02*
X145381642Y-110815952D01*
X145334023Y-110768333D01*
X145238785Y-110720714D01*
X145143547Y-110720714D01*
X144429261Y-111339761D02*
X144524500Y-111387380D01*
X144714976Y-111387380D01*
X144810214Y-111339761D01*
X144857833Y-111244523D01*
X144857833Y-110863571D01*
X144810214Y-110768333D01*
X144714976Y-110720714D01*
X144524500Y-110720714D01*
X144429261Y-110768333D01*
X144381642Y-110863571D01*
X144381642Y-110958809D01*
X144857833Y-111054047D01*
X143524500Y-111387380D02*
X143524500Y-110863571D01*
X143572119Y-110768333D01*
X143667357Y-110720714D01*
X143857833Y-110720714D01*
X143953071Y-110768333D01*
X143524500Y-111339761D02*
X143619738Y-111387380D01*
X143857833Y-111387380D01*
X143953071Y-111339761D01*
X144000690Y-111244523D01*
X144000690Y-111149285D01*
X143953071Y-111054047D01*
X143857833Y-111006428D01*
X143619738Y-111006428D01*
X143524500Y-110958809D01*
X142619738Y-111387380D02*
X142619738Y-110387380D01*
X142619738Y-111339761D02*
X142714976Y-111387380D01*
X142905452Y-111387380D01*
X143000690Y-111339761D01*
X143048309Y-111292142D01*
X143095928Y-111196904D01*
X143095928Y-110911190D01*
X143048309Y-110815952D01*
X143000690Y-110768333D01*
X142905452Y-110720714D01*
X142714976Y-110720714D01*
X142619738Y-110768333D01*
X142143547Y-111387380D02*
X142143547Y-110387380D01*
X142143547Y-110768333D02*
X142048309Y-110720714D01*
X141857833Y-110720714D01*
X141762595Y-110768333D01*
X141714976Y-110815952D01*
X141667357Y-110911190D01*
X141667357Y-111196904D01*
X141714976Y-111292142D01*
X141762595Y-111339761D01*
X141857833Y-111387380D01*
X142048309Y-111387380D01*
X142143547Y-111339761D01*
X141095928Y-111387380D02*
X141191166Y-111339761D01*
X141238785Y-111292142D01*
X141286404Y-111196904D01*
X141286404Y-110911190D01*
X141238785Y-110815952D01*
X141191166Y-110768333D01*
X141095928Y-110720714D01*
X140953071Y-110720714D01*
X140857833Y-110768333D01*
X140810214Y-110815952D01*
X140762595Y-110911190D01*
X140762595Y-111196904D01*
X140810214Y-111292142D01*
X140857833Y-111339761D01*
X140953071Y-111387380D01*
X141095928Y-111387380D01*
X139905452Y-111387380D02*
X139905452Y-110863571D01*
X139953071Y-110768333D01*
X140048309Y-110720714D01*
X140238785Y-110720714D01*
X140334023Y-110768333D01*
X139905452Y-111339761D02*
X140000690Y-111387380D01*
X140238785Y-111387380D01*
X140334023Y-111339761D01*
X140381642Y-111244523D01*
X140381642Y-111149285D01*
X140334023Y-111054047D01*
X140238785Y-111006428D01*
X140000690Y-111006428D01*
X139905452Y-110958809D01*
X139429261Y-111387380D02*
X139429261Y-110720714D01*
X139429261Y-110911190D02*
X139381642Y-110815952D01*
X139334023Y-110768333D01*
X139238785Y-110720714D01*
X139143547Y-110720714D01*
X138381642Y-111387380D02*
X138381642Y-110387380D01*
X138381642Y-111339761D02*
X138476880Y-111387380D01*
X138667357Y-111387380D01*
X138762595Y-111339761D01*
X138810214Y-111292142D01*
X138857833Y-111196904D01*
X138857833Y-110911190D01*
X138810214Y-110815952D01*
X138762595Y-110768333D01*
X138667357Y-110720714D01*
X138476880Y-110720714D01*
X138381642Y-110768333D01*
X136810214Y-110863571D02*
X137143547Y-110863571D01*
X137143547Y-111387380D02*
X137143547Y-110387380D01*
X136667357Y-110387380D01*
X136286404Y-111387380D02*
X136286404Y-110720714D01*
X136286404Y-110911190D02*
X136238785Y-110815952D01*
X136191166Y-110768333D01*
X136095928Y-110720714D01*
X136000690Y-110720714D01*
X135667357Y-111387380D02*
X135667357Y-110720714D01*
X135667357Y-110387380D02*
X135714976Y-110435000D01*
X135667357Y-110482619D01*
X135619738Y-110435000D01*
X135667357Y-110387380D01*
X135667357Y-110482619D01*
X134810214Y-111339761D02*
X134905452Y-111387380D01*
X135095928Y-111387380D01*
X135191166Y-111339761D01*
X135238785Y-111244523D01*
X135238785Y-110863571D01*
X135191166Y-110768333D01*
X135095928Y-110720714D01*
X134905452Y-110720714D01*
X134810214Y-110768333D01*
X134762595Y-110863571D01*
X134762595Y-110958809D01*
X135238785Y-111054047D01*
X134334023Y-110720714D02*
X134334023Y-111387380D01*
X134334023Y-110815952D02*
X134286404Y-110768333D01*
X134191166Y-110720714D01*
X134048309Y-110720714D01*
X133953071Y-110768333D01*
X133905452Y-110863571D01*
X133905452Y-111387380D01*
X133000690Y-111387380D02*
X133000690Y-110387380D01*
X133000690Y-111339761D02*
X133095928Y-111387380D01*
X133286404Y-111387380D01*
X133381642Y-111339761D01*
X133429261Y-111292142D01*
X133476880Y-111196904D01*
X133476880Y-110911190D01*
X133429261Y-110815952D01*
X133381642Y-110768333D01*
X133286404Y-110720714D01*
X133095928Y-110720714D01*
X133000690Y-110768333D01*
X131857833Y-110720714D02*
X131619738Y-111387380D01*
X131381642Y-110720714D01*
X130476880Y-111387380D02*
X131048309Y-111387380D01*
X130762595Y-111387380D02*
X130762595Y-110387380D01*
X130857833Y-110530238D01*
X130953071Y-110625476D01*
X131048309Y-110673095D01*
X130048309Y-111292142D02*
X130000690Y-111339761D01*
X130048309Y-111387380D01*
X130095928Y-111339761D01*
X130048309Y-111292142D01*
X130048309Y-111387380D01*
X129381642Y-110387380D02*
X129286404Y-110387380D01*
X129191166Y-110435000D01*
X129143547Y-110482619D01*
X129095928Y-110577857D01*
X129048309Y-110768333D01*
X129048309Y-111006428D01*
X129095928Y-111196904D01*
X129143547Y-111292142D01*
X129191166Y-111339761D01*
X129286404Y-111387380D01*
X129381642Y-111387380D01*
X129476880Y-111339761D01*
X129524500Y-111292142D01*
X129572119Y-111196904D01*
X129619738Y-111006428D01*
X129619738Y-110768333D01*
X129572119Y-110577857D01*
X129524500Y-110482619D01*
X129476880Y-110435000D01*
X129381642Y-110387380D01*
X149857833Y-112989761D02*
X149953071Y-113037380D01*
X150143547Y-113037380D01*
X150238785Y-112989761D01*
X150286404Y-112942142D01*
X150334023Y-112846904D01*
X150334023Y-112561190D01*
X150286404Y-112465952D01*
X150238785Y-112418333D01*
X150143547Y-112370714D01*
X149953071Y-112370714D01*
X149857833Y-112418333D01*
X149000690Y-112989761D02*
X149095928Y-113037380D01*
X149286404Y-113037380D01*
X149381642Y-112989761D01*
X149429261Y-112942142D01*
X149476880Y-112846904D01*
X149476880Y-112561190D01*
X149429261Y-112465952D01*
X149381642Y-112418333D01*
X149286404Y-112370714D01*
X149095928Y-112370714D01*
X149000690Y-112418333D01*
X148572119Y-112656428D02*
X147810214Y-112656428D01*
X147334023Y-113037380D02*
X147334023Y-112037380D01*
X147334023Y-112418333D02*
X147238785Y-112370714D01*
X147048309Y-112370714D01*
X146953071Y-112418333D01*
X146905452Y-112465952D01*
X146857833Y-112561190D01*
X146857833Y-112846904D01*
X146905452Y-112942142D01*
X146953071Y-112989761D01*
X147048309Y-113037380D01*
X147238785Y-113037380D01*
X147334023Y-112989761D01*
X146524500Y-112370714D02*
X146286404Y-113037380D01*
X146048309Y-112370714D02*
X146286404Y-113037380D01*
X146381642Y-113275476D01*
X146429261Y-113323095D01*
X146524500Y-113370714D01*
X145667357Y-112656428D02*
X144905452Y-112656428D01*
X144476880Y-112989761D02*
X144381642Y-113037380D01*
X144191166Y-113037380D01*
X144095928Y-112989761D01*
X144048309Y-112894523D01*
X144048309Y-112846904D01*
X144095928Y-112751666D01*
X144191166Y-112704047D01*
X144334023Y-112704047D01*
X144429261Y-112656428D01*
X144476880Y-112561190D01*
X144476880Y-112513571D01*
X144429261Y-112418333D01*
X144334023Y-112370714D01*
X144191166Y-112370714D01*
X144095928Y-112418333D01*
X143191166Y-113037380D02*
X143191166Y-112513571D01*
X143238785Y-112418333D01*
X143334023Y-112370714D01*
X143524500Y-112370714D01*
X143619738Y-112418333D01*
X143191166Y-112989761D02*
X143286404Y-113037380D01*
X143524500Y-113037380D01*
X143619738Y-112989761D01*
X143667357Y-112894523D01*
X143667357Y-112799285D01*
X143619738Y-112704047D01*
X143524500Y-112656428D01*
X143286404Y-112656428D01*
X143191166Y-112608809D01*
X141953071Y-113037380D02*
X141953071Y-112037380D01*
X141714976Y-112037380D01*
X141572119Y-112085000D01*
X141476880Y-112180238D01*
X141429261Y-112275476D01*
X141381642Y-112465952D01*
X141381642Y-112608809D01*
X141429261Y-112799285D01*
X141476880Y-112894523D01*
X141572119Y-112989761D01*
X141714976Y-113037380D01*
X141953071Y-113037380D01*
X140524500Y-113037380D02*
X140524500Y-112513571D01*
X140572119Y-112418333D01*
X140667357Y-112370714D01*
X140857833Y-112370714D01*
X140953071Y-112418333D01*
X140524500Y-112989761D02*
X140619738Y-113037380D01*
X140857833Y-113037380D01*
X140953071Y-112989761D01*
X141000690Y-112894523D01*
X141000690Y-112799285D01*
X140953071Y-112704047D01*
X140857833Y-112656428D01*
X140619738Y-112656428D01*
X140524500Y-112608809D01*
X140143547Y-112370714D02*
X139905452Y-113037380D01*
X139667357Y-112370714D01*
X139286404Y-113037380D02*
X139286404Y-112370714D01*
X139286404Y-112037380D02*
X139334023Y-112085000D01*
X139286404Y-112132619D01*
X139238785Y-112085000D01*
X139286404Y-112037380D01*
X139286404Y-112132619D01*
X138381642Y-113037380D02*
X138381642Y-112037380D01*
X138381642Y-112989761D02*
X138476880Y-113037380D01*
X138667357Y-113037380D01*
X138762595Y-112989761D01*
X138810214Y-112942142D01*
X138857833Y-112846904D01*
X138857833Y-112561190D01*
X138810214Y-112465952D01*
X138762595Y-112418333D01*
X138667357Y-112370714D01*
X138476880Y-112370714D01*
X138381642Y-112418333D01*
X137191166Y-112989761D02*
X137048309Y-113037380D01*
X136810214Y-113037380D01*
X136714976Y-112989761D01*
X136667357Y-112942142D01*
X136619738Y-112846904D01*
X136619738Y-112751666D01*
X136667357Y-112656428D01*
X136714976Y-112608809D01*
X136810214Y-112561190D01*
X137000690Y-112513571D01*
X137095928Y-112465952D01*
X137143547Y-112418333D01*
X137191166Y-112323095D01*
X137191166Y-112227857D01*
X137143547Y-112132619D01*
X137095928Y-112085000D01*
X137000690Y-112037380D01*
X136762595Y-112037380D01*
X136619738Y-112085000D01*
X136334023Y-112370714D02*
X135953071Y-112370714D01*
X136191166Y-112037380D02*
X136191166Y-112894523D01*
X136143547Y-112989761D01*
X136048309Y-113037380D01*
X135953071Y-113037380D01*
X135191166Y-113037380D02*
X135191166Y-112513571D01*
X135238785Y-112418333D01*
X135334023Y-112370714D01*
X135524500Y-112370714D01*
X135619738Y-112418333D01*
X135191166Y-112989761D02*
X135286404Y-113037380D01*
X135524500Y-113037380D01*
X135619738Y-112989761D01*
X135667357Y-112894523D01*
X135667357Y-112799285D01*
X135619738Y-112704047D01*
X135524500Y-112656428D01*
X135286404Y-112656428D01*
X135191166Y-112608809D01*
X134572119Y-113037380D02*
X134667357Y-112989761D01*
X134714976Y-112894523D01*
X134714976Y-112037380D01*
X134191166Y-112370714D02*
X134191166Y-113037380D01*
X134191166Y-112465952D02*
X134143547Y-112418333D01*
X134048309Y-112370714D01*
X133905452Y-112370714D01*
X133810214Y-112418333D01*
X133762595Y-112513571D01*
X133762595Y-113037380D01*
X132857833Y-113037380D02*
X132857833Y-112513571D01*
X132905452Y-112418333D01*
X133000690Y-112370714D01*
X133191166Y-112370714D01*
X133286404Y-112418333D01*
X132857833Y-112989761D02*
X132953071Y-113037380D01*
X133191166Y-113037380D01*
X133286404Y-112989761D01*
X133334023Y-112894523D01*
X133334023Y-112799285D01*
X133286404Y-112704047D01*
X133191166Y-112656428D01*
X132953071Y-112656428D01*
X132857833Y-112608809D01*
X132381642Y-113037380D02*
X132381642Y-112037380D01*
X132286404Y-112656428D02*
X132000690Y-113037380D01*
X132000690Y-112370714D02*
X132381642Y-112751666D01*
X131191166Y-112989761D02*
X131286404Y-113037380D01*
X131476880Y-113037380D01*
X131572119Y-112989761D01*
X131619738Y-112894523D01*
X131619738Y-112513571D01*
X131572119Y-112418333D01*
X131476880Y-112370714D01*
X131286404Y-112370714D01*
X131191166Y-112418333D01*
X131143547Y-112513571D01*
X131143547Y-112608809D01*
X131619738Y-112704047D01*
X130714976Y-113037380D02*
X130714976Y-112370714D01*
X130714976Y-112561190D02*
X130667357Y-112465952D01*
X130619738Y-112418333D01*
X130524500Y-112370714D01*
X130429261Y-112370714D01*
X129381642Y-112132619D02*
X129334023Y-112085000D01*
X129238785Y-112037380D01*
X129000690Y-112037380D01*
X128905452Y-112085000D01*
X128857833Y-112132619D01*
X128810214Y-112227857D01*
X128810214Y-112323095D01*
X128857833Y-112465952D01*
X129429261Y-113037380D01*
X128810214Y-113037380D01*
X128191166Y-112037380D02*
X128095928Y-112037380D01*
X128000690Y-112085000D01*
X127953071Y-112132619D01*
X127905452Y-112227857D01*
X127857833Y-112418333D01*
X127857833Y-112656428D01*
X127905452Y-112846904D01*
X127953071Y-112942142D01*
X128000690Y-112989761D01*
X128095928Y-113037380D01*
X128191166Y-113037380D01*
X128286404Y-112989761D01*
X128334023Y-112942142D01*
X128381642Y-112846904D01*
X128429261Y-112656428D01*
X128429261Y-112418333D01*
X128381642Y-112227857D01*
X128334023Y-112132619D01*
X128286404Y-112085000D01*
X128191166Y-112037380D01*
X127476880Y-112132619D02*
X127429261Y-112085000D01*
X127334023Y-112037380D01*
X127095928Y-112037380D01*
X127000690Y-112085000D01*
X126953071Y-112132619D01*
X126905452Y-112227857D01*
X126905452Y-112323095D01*
X126953071Y-112465952D01*
X127524500Y-113037380D01*
X126905452Y-113037380D01*
X126286404Y-112037380D02*
X126191166Y-112037380D01*
X126095928Y-112085000D01*
X126048309Y-112132619D01*
X126000690Y-112227857D01*
X125953071Y-112418333D01*
X125953071Y-112656428D01*
X126000690Y-112846904D01*
X126048309Y-112942142D01*
X126095928Y-112989761D01*
X126191166Y-113037380D01*
X126286404Y-113037380D01*
X126381642Y-112989761D01*
X126429261Y-112942142D01*
X126476880Y-112846904D01*
X126524500Y-112656428D01*
X126524500Y-112418333D01*
X126476880Y-112227857D01*
X126429261Y-112132619D01*
X126381642Y-112085000D01*
X126286404Y-112037380D01*
X136445047Y-135342380D02*
X136445047Y-136056666D01*
X136492666Y-136199523D01*
X136587904Y-136294761D01*
X136730761Y-136342380D01*
X136826000Y-136342380D01*
X135492666Y-136342380D02*
X135968857Y-136342380D01*
X135968857Y-135342380D01*
X134587904Y-136247142D02*
X134635523Y-136294761D01*
X134778380Y-136342380D01*
X134873619Y-136342380D01*
X135016476Y-136294761D01*
X135111714Y-136199523D01*
X135159333Y-136104285D01*
X135206952Y-135913809D01*
X135206952Y-135770952D01*
X135159333Y-135580476D01*
X135111714Y-135485238D01*
X135016476Y-135390000D01*
X134873619Y-135342380D01*
X134778380Y-135342380D01*
X134635523Y-135390000D01*
X134587904Y-135437619D01*
X133873619Y-135342380D02*
X133873619Y-136056666D01*
X133921238Y-136199523D01*
X134016476Y-136294761D01*
X134159333Y-136342380D01*
X134254571Y-136342380D01*
X132921238Y-136342380D02*
X133397428Y-136342380D01*
X133397428Y-135342380D01*
X132016476Y-136247142D02*
X132064095Y-136294761D01*
X132206952Y-136342380D01*
X132302190Y-136342380D01*
X132445047Y-136294761D01*
X132540285Y-136199523D01*
X132587904Y-136104285D01*
X132635523Y-135913809D01*
X132635523Y-135770952D01*
X132587904Y-135580476D01*
X132540285Y-135485238D01*
X132445047Y-135390000D01*
X132302190Y-135342380D01*
X132206952Y-135342380D01*
X132064095Y-135390000D01*
X132016476Y-135437619D01*
X131302190Y-135342380D02*
X131302190Y-136056666D01*
X131349809Y-136199523D01*
X131445047Y-136294761D01*
X131587904Y-136342380D01*
X131683142Y-136342380D01*
X130349809Y-136342380D02*
X130826000Y-136342380D01*
X130826000Y-135342380D01*
X129445047Y-136247142D02*
X129492666Y-136294761D01*
X129635523Y-136342380D01*
X129730761Y-136342380D01*
X129873619Y-136294761D01*
X129968857Y-136199523D01*
X130016476Y-136104285D01*
X130064095Y-135913809D01*
X130064095Y-135770952D01*
X130016476Y-135580476D01*
X129968857Y-135485238D01*
X129873619Y-135390000D01*
X129730761Y-135342380D01*
X129635523Y-135342380D01*
X129492666Y-135390000D01*
X129445047Y-135437619D01*
X128730761Y-135342380D02*
X128730761Y-136056666D01*
X128778380Y-136199523D01*
X128873619Y-136294761D01*
X129016476Y-136342380D01*
X129111714Y-136342380D01*
X127778380Y-136342380D02*
X128254571Y-136342380D01*
X128254571Y-135342380D01*
X126873619Y-136247142D02*
X126921238Y-136294761D01*
X127064095Y-136342380D01*
X127159333Y-136342380D01*
X127302190Y-136294761D01*
X127397428Y-136199523D01*
X127445047Y-136104285D01*
X127492666Y-135913809D01*
X127492666Y-135770952D01*
X127445047Y-135580476D01*
X127397428Y-135485238D01*
X127302190Y-135390000D01*
X127159333Y-135342380D01*
X127064095Y-135342380D01*
X126921238Y-135390000D01*
X126873619Y-135437619D01*
D11*
%TO.C,J1*%
X140910000Y-87570000D02*
X140910000Y-88900000D01*
X142240000Y-87570000D02*
X140910000Y-87570000D01*
X140910000Y-90170000D02*
X140910000Y-92770000D01*
X143510000Y-90170000D02*
X140910000Y-90170000D01*
X143510000Y-87570000D02*
X143510000Y-90170000D01*
X140910000Y-92770000D02*
X153730000Y-92770000D01*
X143510000Y-87570000D02*
X153730000Y-87570000D01*
X153730000Y-87570000D02*
X153730000Y-92770000D01*
%TO.C,J2*%
X153730000Y-133290000D02*
X153730000Y-138490000D01*
X143510000Y-133290000D02*
X153730000Y-133290000D01*
X140910000Y-138490000D02*
X153730000Y-138490000D01*
X143510000Y-133290000D02*
X143510000Y-135890000D01*
X143510000Y-135890000D02*
X140910000Y-135890000D01*
X140910000Y-135890000D02*
X140910000Y-138490000D01*
X142240000Y-133290000D02*
X140910000Y-133290000D01*
X140910000Y-133290000D02*
X140910000Y-134620000D01*
%TO.C,J1*%
D10*
X139362380Y-89836666D02*
X140076666Y-89836666D01*
X140219523Y-89789047D01*
X140314761Y-89693809D01*
X140362380Y-89550952D01*
X140362380Y-89455714D01*
X140362380Y-90836666D02*
X140362380Y-90265238D01*
X140362380Y-90550952D02*
X139362380Y-90550952D01*
X139505238Y-90455714D01*
X139600476Y-90360476D01*
X139648095Y-90265238D01*
%TO.C,J2*%
X139362380Y-135556666D02*
X140076666Y-135556666D01*
X140219523Y-135509047D01*
X140314761Y-135413809D01*
X140362380Y-135270952D01*
X140362380Y-135175714D01*
X139457619Y-135985238D02*
X139410000Y-136032857D01*
X139362380Y-136128095D01*
X139362380Y-136366190D01*
X139410000Y-136461428D01*
X139457619Y-136509047D01*
X139552857Y-136556666D01*
X139648095Y-136556666D01*
X139790952Y-136509047D01*
X140362380Y-135937619D01*
X140362380Y-136556666D01*
%TD*%
M02*
