M48
; DRILL file {KiCad (5.1.6-0-10_14)} date Sunday, August 30, 2020 at 09:53:03 PM
; FORMAT={-:-/ absolute / inch / decimal}
; #@! TF.CreationDate,2020-08-30T21:53:03-07:00
; #@! TF.GenerationSoftware,Kicad,Pcbnew,(5.1.6-0-10_14)
; #@! TF.FileFunction,Plated,1,2,PTH
FMAT,2
INCH
T1C0.0315
T2C0.0394
T3C0.0433
T4C0.0512
%
G90
G05
T1
X5.6Y-3.7
X5.6984Y-3.7
X5.62Y-4.64
X5.62Y-4.94
X5.72Y-4.64
X5.72Y-4.94
X5.82Y-4.64
X5.82Y-4.94
X5.6Y-3.94
X5.9Y-3.94
X6.07Y-4.08
X6.07Y-4.1784
X5.6Y-5.19
X5.9Y-5.19
X5.6Y-5.07
X5.9Y-5.07
X6.01Y-4.79
X6.1084Y-4.79
X6.01Y-4.89
X6.01Y-5.19
X6.07Y-3.85
X6.07Y-3.9484
X5.62Y-4.2
X5.62Y-4.5
X5.72Y-4.2
X5.72Y-4.5
X5.82Y-4.2
X5.82Y-4.5
X6.12Y-4.89
X6.12Y-5.19
X5.6Y-3.82
X5.9Y-3.82
X5.6Y-4.06
X5.9Y-4.06
T2
X5.6Y-3.5
X5.6Y-3.6
X5.7Y-3.5
X5.7Y-3.6
X5.8Y-3.5
X5.8Y-3.6
X5.9Y-3.5
X5.9Y-3.6
X6.0Y-3.5
X6.0Y-3.6
X5.6Y-5.3
X5.6Y-5.4
X5.7Y-5.3
X5.7Y-5.4
X5.8Y-5.3
X5.8Y-5.4
X5.9Y-5.3
X5.9Y-5.4
X6.0Y-5.3
X6.0Y-5.4
X6.1Y-4.37
X6.1Y-4.47
X6.1Y-4.57
T3
X5.87Y-3.7
X5.97Y-3.7
X6.07Y-3.7
T4
X5.0063Y-3.9016
X5.0063Y-4.0984
X5.3803Y-3.7047
X5.3823Y-4.0
X5.3823Y-4.2953
X5.4787Y-3.8031
X5.4787Y-4.1969
X5.0063Y-4.8016
X5.0063Y-4.9984
X5.3803Y-4.6047
X5.3823Y-4.9
X5.3823Y-5.1953
X5.4787Y-4.7031
X5.4787Y-5.0969
T0
M30
