%TF.GenerationSoftware,KiCad,Pcbnew,(5.1.6-0-10_14)*%
%TF.CreationDate,2020-08-30T21:53:01-07:00*%
%TF.ProjectId,bbf-midi,6262662d-6d69-4646-992e-6b696361645f,rev?*%
%TF.SameCoordinates,Original*%
%TF.FileFunction,Copper,L1,Top*%
%TF.FilePolarity,Positive*%
%FSLAX46Y46*%
G04 Gerber Fmt 4.6, Leading zero omitted, Abs format (unit mm)*
G04 Created by KiCad (PCBNEW (5.1.6-0-10_14)) date 2020-08-30 21:53:01*
%MOMM*%
%LPD*%
G01*
G04 APERTURE LIST*
%TA.AperFunction,ComponentPad*%
%ADD10C,1.600000*%
%TD*%
%TA.AperFunction,ComponentPad*%
%ADD11R,1.600000X1.600000*%
%TD*%
%TA.AperFunction,ComponentPad*%
%ADD12O,1.600000X1.600000*%
%TD*%
%TA.AperFunction,ComponentPad*%
%ADD13R,1.700000X1.700000*%
%TD*%
%TA.AperFunction,ComponentPad*%
%ADD14O,1.700000X1.700000*%
%TD*%
%TA.AperFunction,ComponentPad*%
%ADD15C,1.900000*%
%TD*%
%TA.AperFunction,ComponentPad*%
%ADD16R,1.905000X2.000000*%
%TD*%
%TA.AperFunction,ComponentPad*%
%ADD17O,1.905000X2.000000*%
%TD*%
%TA.AperFunction,Conductor*%
%ADD18C,0.350000*%
%TD*%
%TA.AperFunction,Conductor*%
%ADD19C,0.254000*%
%TD*%
G04 APERTURE END LIST*
D10*
%TO.P,C3,2*%
%TO.N,GND*%
X155154000Y-121666000D03*
%TO.P,C3,1*%
%TO.N,VCC*%
X152654000Y-121666000D03*
%TD*%
%TO.P,C4,1*%
%TO.N,Net-(C4-Pad1)*%
X142240000Y-93980000D03*
%TO.P,C4,2*%
%TO.N,GND*%
X144740000Y-93980000D03*
%TD*%
D11*
%TO.P,D1,1*%
%TO.N,Net-(D1-Pad1)*%
X149860000Y-100076000D03*
D12*
%TO.P,D1,2*%
%TO.N,Net-(D1-Pad2)*%
X142240000Y-100076000D03*
%TD*%
D13*
%TO.P,J1,1*%
%TO.N,+12V*%
X142240000Y-88900000D03*
D14*
%TO.P,J1,2*%
%TO.N,GND*%
X142240000Y-91440000D03*
%TO.P,J1,3*%
%TO.N,+12V*%
X144780000Y-88900000D03*
%TO.P,J1,4*%
%TO.N,GND*%
X144780000Y-91440000D03*
%TO.P,J1,5*%
%TO.N,+12V*%
X147320000Y-88900000D03*
%TO.P,J1,6*%
%TO.N,GND*%
X147320000Y-91440000D03*
%TO.P,J1,7*%
%TO.N,+12V*%
X149860000Y-88900000D03*
%TO.P,J1,8*%
%TO.N,GND*%
X149860000Y-91440000D03*
%TO.P,J1,9*%
%TO.N,+12V*%
X152400000Y-88900000D03*
%TO.P,J1,10*%
%TO.N,GND*%
X152400000Y-91440000D03*
%TD*%
%TO.P,J2,10*%
%TO.N,-12V*%
X152400000Y-137160000D03*
%TO.P,J2,9*%
%TO.N,GND*%
X152400000Y-134620000D03*
%TO.P,J2,8*%
%TO.N,-12V*%
X149860000Y-137160000D03*
%TO.P,J2,7*%
%TO.N,GND*%
X149860000Y-134620000D03*
%TO.P,J2,6*%
%TO.N,-12V*%
X147320000Y-137160000D03*
%TO.P,J2,5*%
%TO.N,GND*%
X147320000Y-134620000D03*
%TO.P,J2,4*%
%TO.N,-12V*%
X144780000Y-137160000D03*
%TO.P,J2,3*%
%TO.N,GND*%
X144780000Y-134620000D03*
%TO.P,J2,2*%
%TO.N,-12V*%
X142240000Y-137160000D03*
D13*
%TO.P,J2,1*%
%TO.N,GND*%
X142240000Y-134620000D03*
%TD*%
D15*
%TO.P,J3,1*%
%TO.N,N/C*%
X136710000Y-109100000D03*
%TO.P,J3,4*%
%TO.N,Net-(J3-Pad4)*%
X139160000Y-106600000D03*
%TO.P,J3,2*%
%TO.N,Net-(C4-Pad1)*%
X136710000Y-101600000D03*
%TO.P,J3,5*%
%TO.N,Net-(D1-Pad2)*%
X139160000Y-96600000D03*
%TO.P,J3,3*%
%TO.N,N/C*%
X136660000Y-94100000D03*
%TO.P,J3,S*%
X127160000Y-99100000D03*
X127160000Y-104100000D03*
%TD*%
%TO.P,J4,S*%
%TO.N,N/C*%
X127160000Y-126960000D03*
X127160000Y-121960000D03*
%TO.P,J4,3*%
X136660000Y-116960000D03*
%TO.P,J4,5*%
%TO.N,Net-(J4-Pad5)*%
X139160000Y-119460000D03*
%TO.P,J4,2*%
%TO.N,GND*%
X136710000Y-124460000D03*
%TO.P,J4,4*%
%TO.N,Net-(J4-Pad4)*%
X139160000Y-129460000D03*
%TO.P,J4,1*%
%TO.N,N/C*%
X136710000Y-131960000D03*
%TD*%
D13*
%TO.P,J5,1*%
%TO.N,VCC*%
X154940000Y-110998000D03*
D14*
%TO.P,J5,2*%
%TO.N,Net-(J5-Pad2)*%
X154940000Y-113538000D03*
%TO.P,J5,3*%
%TO.N,Net-(D2-Pad2)*%
X154940000Y-116078000D03*
%TD*%
D10*
%TO.P,R1,1*%
%TO.N,Net-(R1-Pad1)*%
X149860000Y-128778000D03*
D12*
%TO.P,R1,2*%
%TO.N,Net-(J4-Pad5)*%
X142240000Y-128778000D03*
%TD*%
D10*
%TO.P,R2,1*%
%TO.N,Net-(D1-Pad1)*%
X149860000Y-103124000D03*
D12*
%TO.P,R2,2*%
%TO.N,Net-(J3-Pad4)*%
X142240000Y-103124000D03*
%TD*%
%TO.P,R3,2*%
%TO.N,VCC*%
X149860000Y-131826000D03*
D10*
%TO.P,R3,1*%
%TO.N,Net-(J4-Pad4)*%
X142240000Y-131826000D03*
%TD*%
%TO.P,R5,1*%
%TO.N,Net-(J5-Pad2)*%
X149860000Y-97028000D03*
D12*
%TO.P,R5,2*%
%TO.N,VCC*%
X142240000Y-97028000D03*
%TD*%
D16*
%TO.P,U1,1*%
%TO.N,GND*%
X149098000Y-93980000D03*
D17*
%TO.P,U1,2*%
%TO.N,VCC*%
X151638000Y-93980000D03*
%TO.P,U1,3*%
%TO.N,+12V*%
X154178000Y-93980000D03*
%TD*%
D11*
%TO.P,U2,1*%
%TO.N,Net-(D1-Pad1)*%
X147828000Y-106680000D03*
D12*
%TO.P,U2,4*%
%TO.N,Net-(J5-Pad2)*%
X142748000Y-114300000D03*
%TO.P,U2,2*%
%TO.N,Net-(D1-Pad2)*%
X145288000Y-106680000D03*
%TO.P,U2,5*%
%TO.N,GND*%
X145288000Y-114300000D03*
%TO.P,U2,3*%
%TO.N,N/C*%
X142748000Y-106680000D03*
%TO.P,U2,6*%
%TO.N,VCC*%
X147828000Y-114300000D03*
%TD*%
D11*
%TO.P,C1,1*%
%TO.N,+12V*%
X154178000Y-97790000D03*
D10*
%TO.P,C1,2*%
%TO.N,GND*%
X154178000Y-100290000D03*
%TD*%
%TO.P,C2,2*%
%TO.N,GND*%
X154178000Y-106132000D03*
D11*
%TO.P,C2,1*%
%TO.N,VCC*%
X154178000Y-103632000D03*
%TD*%
%TO.P,D2,1*%
%TO.N,Net-(D2-Pad1)*%
X155448000Y-131826000D03*
D12*
%TO.P,D2,2*%
%TO.N,Net-(D2-Pad2)*%
X155448000Y-124206000D03*
%TD*%
D10*
%TO.P,R4,1*%
%TO.N,Net-(D2-Pad1)*%
X152654000Y-131826000D03*
D12*
%TO.P,R4,2*%
%TO.N,VCC*%
X152654000Y-124206000D03*
%TD*%
D11*
%TO.P,U3,1*%
%TO.N,Net-(D2-Pad1)*%
X147828000Y-117856000D03*
D12*
%TO.P,U3,4*%
%TO.N,Net-(R1-Pad1)*%
X142748000Y-125476000D03*
%TO.P,U3,2*%
%TO.N,Net-(D2-Pad2)*%
X145288000Y-117856000D03*
%TO.P,U3,5*%
%TO.N,GND*%
X145288000Y-125476000D03*
%TO.P,U3,3*%
%TO.N,N/C*%
X142748000Y-117856000D03*
%TO.P,U3,6*%
%TO.N,VCC*%
X147828000Y-125476000D03*
%TD*%
D18*
%TO.N,GND*%
X144780000Y-91440000D02*
X146304000Y-92964000D01*
X149860000Y-93218000D02*
X149098000Y-93980000D01*
X149860000Y-91440000D02*
X149860000Y-93218000D01*
%TO.N,VCC*%
X151638000Y-114300000D02*
X154940000Y-110998000D01*
X147828000Y-114300000D02*
X151638000Y-114300000D01*
X152654000Y-115316000D02*
X151638000Y-114300000D01*
X152654000Y-121666000D02*
X152654000Y-115316000D01*
X152654000Y-121666000D02*
X152654000Y-124206000D01*
X151384000Y-125476000D02*
X152654000Y-124206000D01*
X147828000Y-125476000D02*
X151384000Y-125476000D01*
X152654000Y-129032000D02*
X152654000Y-124206000D01*
X149860000Y-131826000D02*
X152654000Y-129032000D01*
%TD*%
D19*
%TO.N,GND*%
G36*
X155348803Y-87476798D02*
G01*
X155619869Y-87558639D01*
X155869878Y-87691571D01*
X156089305Y-87870531D01*
X156269796Y-88088707D01*
X156404469Y-88337780D01*
X156488200Y-88608271D01*
X156520001Y-88910838D01*
X156520000Y-121224189D01*
X156457603Y-121049708D01*
X156390671Y-120924486D01*
X156146702Y-120852903D01*
X155333605Y-121666000D01*
X156146702Y-122479097D01*
X156390671Y-122407514D01*
X156511571Y-122152004D01*
X156520000Y-122118376D01*
X156520000Y-123601821D01*
X156401073Y-123423833D01*
X156230167Y-123252927D01*
X156029202Y-123118647D01*
X155805903Y-123026153D01*
X155681408Y-123001389D01*
X155770292Y-122969603D01*
X155895514Y-122902671D01*
X155967097Y-122658702D01*
X155154000Y-121845605D01*
X154340903Y-122658702D01*
X154412486Y-122902671D01*
X154667996Y-123023571D01*
X154934846Y-123090461D01*
X154866798Y-123118647D01*
X154665833Y-123252927D01*
X154494927Y-123423833D01*
X154360647Y-123624798D01*
X154268153Y-123848097D01*
X154221000Y-124085151D01*
X154221000Y-124326849D01*
X154268153Y-124563903D01*
X154360647Y-124787202D01*
X154494927Y-124988167D01*
X154665833Y-125159073D01*
X154866798Y-125293353D01*
X155090097Y-125385847D01*
X155327151Y-125433000D01*
X155568849Y-125433000D01*
X155805903Y-125385847D01*
X156029202Y-125293353D01*
X156230167Y-125159073D01*
X156401073Y-124988167D01*
X156520000Y-124810179D01*
X156520000Y-130696840D01*
X156486376Y-130669245D01*
X156412196Y-130629595D01*
X156331707Y-130605178D01*
X156248000Y-130596934D01*
X154648000Y-130596934D01*
X154564293Y-130605178D01*
X154483804Y-130629595D01*
X154409624Y-130669245D01*
X154344605Y-130722605D01*
X154291245Y-130787624D01*
X154251595Y-130861804D01*
X154227178Y-130942293D01*
X154218934Y-131026000D01*
X154218934Y-132626000D01*
X154227178Y-132709707D01*
X154251595Y-132790196D01*
X154291245Y-132864376D01*
X154344605Y-132929395D01*
X154409624Y-132982755D01*
X154483804Y-133022405D01*
X154564293Y-133046822D01*
X154648000Y-133055066D01*
X156248000Y-133055066D01*
X156331707Y-133046822D01*
X156412196Y-133022405D01*
X156486376Y-132982755D01*
X156520000Y-132955160D01*
X156520000Y-137137892D01*
X156490202Y-137441803D01*
X156408361Y-137712870D01*
X156275430Y-137962878D01*
X156096465Y-138182309D01*
X155878293Y-138362796D01*
X155629223Y-138497467D01*
X155358729Y-138581200D01*
X155056172Y-138613000D01*
X126387108Y-138613000D01*
X126083197Y-138583202D01*
X125812130Y-138501361D01*
X125562122Y-138368430D01*
X125342691Y-138189465D01*
X125162204Y-137971293D01*
X125027533Y-137722223D01*
X124943800Y-137451729D01*
X124912000Y-137149172D01*
X124912000Y-135470000D01*
X140751928Y-135470000D01*
X140764188Y-135594482D01*
X140800498Y-135714180D01*
X140859463Y-135824494D01*
X140938815Y-135921185D01*
X141035506Y-136000537D01*
X141145820Y-136059502D01*
X141265518Y-136095812D01*
X141390000Y-136108072D01*
X141516815Y-136107382D01*
X141425960Y-136168089D01*
X141248089Y-136345960D01*
X141108337Y-136555114D01*
X141012074Y-136787513D01*
X140963000Y-137034226D01*
X140963000Y-137285774D01*
X141012074Y-137532487D01*
X141108337Y-137764886D01*
X141248089Y-137974040D01*
X141425960Y-138151911D01*
X141635114Y-138291663D01*
X141867513Y-138387926D01*
X142114226Y-138437000D01*
X142365774Y-138437000D01*
X142612487Y-138387926D01*
X142844886Y-138291663D01*
X143054040Y-138151911D01*
X143231911Y-137974040D01*
X143371663Y-137764886D01*
X143467926Y-137532487D01*
X143510000Y-137320966D01*
X143552074Y-137532487D01*
X143648337Y-137764886D01*
X143788089Y-137974040D01*
X143965960Y-138151911D01*
X144175114Y-138291663D01*
X144407513Y-138387926D01*
X144654226Y-138437000D01*
X144905774Y-138437000D01*
X145152487Y-138387926D01*
X145384886Y-138291663D01*
X145594040Y-138151911D01*
X145771911Y-137974040D01*
X145911663Y-137764886D01*
X146007926Y-137532487D01*
X146050000Y-137320966D01*
X146092074Y-137532487D01*
X146188337Y-137764886D01*
X146328089Y-137974040D01*
X146505960Y-138151911D01*
X146715114Y-138291663D01*
X146947513Y-138387926D01*
X147194226Y-138437000D01*
X147445774Y-138437000D01*
X147692487Y-138387926D01*
X147924886Y-138291663D01*
X148134040Y-138151911D01*
X148311911Y-137974040D01*
X148451663Y-137764886D01*
X148547926Y-137532487D01*
X148590000Y-137320966D01*
X148632074Y-137532487D01*
X148728337Y-137764886D01*
X148868089Y-137974040D01*
X149045960Y-138151911D01*
X149255114Y-138291663D01*
X149487513Y-138387926D01*
X149734226Y-138437000D01*
X149985774Y-138437000D01*
X150232487Y-138387926D01*
X150464886Y-138291663D01*
X150674040Y-138151911D01*
X150851911Y-137974040D01*
X150991663Y-137764886D01*
X151087926Y-137532487D01*
X151130000Y-137320966D01*
X151172074Y-137532487D01*
X151268337Y-137764886D01*
X151408089Y-137974040D01*
X151585960Y-138151911D01*
X151795114Y-138291663D01*
X152027513Y-138387926D01*
X152274226Y-138437000D01*
X152525774Y-138437000D01*
X152772487Y-138387926D01*
X153004886Y-138291663D01*
X153214040Y-138151911D01*
X153391911Y-137974040D01*
X153531663Y-137764886D01*
X153627926Y-137532487D01*
X153677000Y-137285774D01*
X153677000Y-137034226D01*
X153627926Y-136787513D01*
X153531663Y-136555114D01*
X153391911Y-136345960D01*
X153214040Y-136168089D01*
X153004886Y-136028337D01*
X152938051Y-136000653D01*
X153166920Y-135891641D01*
X153400269Y-135717588D01*
X153595178Y-135501355D01*
X153744157Y-135251252D01*
X153841481Y-134976891D01*
X153720814Y-134747000D01*
X152527000Y-134747000D01*
X152527000Y-134767000D01*
X152273000Y-134767000D01*
X152273000Y-134747000D01*
X149987000Y-134747000D01*
X149987000Y-134767000D01*
X149733000Y-134767000D01*
X149733000Y-134747000D01*
X147447000Y-134747000D01*
X147447000Y-134767000D01*
X147193000Y-134767000D01*
X147193000Y-134747000D01*
X144907000Y-134747000D01*
X144907000Y-134767000D01*
X144653000Y-134767000D01*
X144653000Y-134747000D01*
X142367000Y-134747000D01*
X142367000Y-134767000D01*
X142113000Y-134767000D01*
X142113000Y-134747000D01*
X140913750Y-134747000D01*
X140755000Y-134905750D01*
X140751928Y-135470000D01*
X124912000Y-135470000D01*
X124912000Y-133770000D01*
X140751928Y-133770000D01*
X140755000Y-134334250D01*
X140913750Y-134493000D01*
X142113000Y-134493000D01*
X142113000Y-133293750D01*
X142367000Y-133293750D01*
X142367000Y-134493000D01*
X144653000Y-134493000D01*
X144653000Y-133299845D01*
X144907000Y-133299845D01*
X144907000Y-134493000D01*
X147193000Y-134493000D01*
X147193000Y-133299845D01*
X147447000Y-133299845D01*
X147447000Y-134493000D01*
X149733000Y-134493000D01*
X149733000Y-133299845D01*
X149987000Y-133299845D01*
X149987000Y-134493000D01*
X152273000Y-134493000D01*
X152273000Y-133299845D01*
X152527000Y-133299845D01*
X152527000Y-134493000D01*
X153720814Y-134493000D01*
X153841481Y-134263109D01*
X153744157Y-133988748D01*
X153595178Y-133738645D01*
X153400269Y-133522412D01*
X153166920Y-133348359D01*
X152904099Y-133223175D01*
X152756890Y-133178524D01*
X152527000Y-133299845D01*
X152273000Y-133299845D01*
X152043110Y-133178524D01*
X151895901Y-133223175D01*
X151633080Y-133348359D01*
X151399731Y-133522412D01*
X151204822Y-133738645D01*
X151130000Y-133864255D01*
X151055178Y-133738645D01*
X150860269Y-133522412D01*
X150626920Y-133348359D01*
X150364099Y-133223175D01*
X150216890Y-133178524D01*
X149987000Y-133299845D01*
X149733000Y-133299845D01*
X149503110Y-133178524D01*
X149355901Y-133223175D01*
X149093080Y-133348359D01*
X148859731Y-133522412D01*
X148664822Y-133738645D01*
X148590000Y-133864255D01*
X148515178Y-133738645D01*
X148320269Y-133522412D01*
X148086920Y-133348359D01*
X147824099Y-133223175D01*
X147676890Y-133178524D01*
X147447000Y-133299845D01*
X147193000Y-133299845D01*
X146963110Y-133178524D01*
X146815901Y-133223175D01*
X146553080Y-133348359D01*
X146319731Y-133522412D01*
X146124822Y-133738645D01*
X146050000Y-133864255D01*
X145975178Y-133738645D01*
X145780269Y-133522412D01*
X145546920Y-133348359D01*
X145284099Y-133223175D01*
X145136890Y-133178524D01*
X144907000Y-133299845D01*
X144653000Y-133299845D01*
X144423110Y-133178524D01*
X144275901Y-133223175D01*
X144013080Y-133348359D01*
X143779731Y-133522412D01*
X143703966Y-133606466D01*
X143679502Y-133525820D01*
X143620537Y-133415506D01*
X143541185Y-133318815D01*
X143444494Y-133239463D01*
X143334180Y-133180498D01*
X143214482Y-133144188D01*
X143090000Y-133131928D01*
X142525750Y-133135000D01*
X142367000Y-133293750D01*
X142113000Y-133293750D01*
X141954250Y-133135000D01*
X141390000Y-133131928D01*
X141265518Y-133144188D01*
X141145820Y-133180498D01*
X141035506Y-133239463D01*
X140938815Y-133318815D01*
X140859463Y-133415506D01*
X140800498Y-133525820D01*
X140764188Y-133645518D01*
X140751928Y-133770000D01*
X124912000Y-133770000D01*
X124912000Y-131799755D01*
X130533000Y-131799755D01*
X130533000Y-132120245D01*
X130595525Y-132434578D01*
X130718172Y-132730673D01*
X130896227Y-132997152D01*
X131122848Y-133223773D01*
X131389327Y-133401828D01*
X131685422Y-133524475D01*
X131999755Y-133587000D01*
X132320245Y-133587000D01*
X132634578Y-133524475D01*
X132930673Y-133401828D01*
X133197152Y-133223773D01*
X133423773Y-132997152D01*
X133601828Y-132730673D01*
X133724475Y-132434578D01*
X133787000Y-132120245D01*
X133787000Y-131824377D01*
X135333000Y-131824377D01*
X135333000Y-132095623D01*
X135385917Y-132361656D01*
X135489718Y-132612254D01*
X135640414Y-132837787D01*
X135832213Y-133029586D01*
X136057746Y-133180282D01*
X136308344Y-133284083D01*
X136574377Y-133337000D01*
X136845623Y-133337000D01*
X137111656Y-133284083D01*
X137362254Y-133180282D01*
X137587787Y-133029586D01*
X137779586Y-132837787D01*
X137930282Y-132612254D01*
X138034083Y-132361656D01*
X138087000Y-132095623D01*
X138087000Y-131824377D01*
X138063285Y-131705151D01*
X141013000Y-131705151D01*
X141013000Y-131946849D01*
X141060153Y-132183903D01*
X141152647Y-132407202D01*
X141286927Y-132608167D01*
X141457833Y-132779073D01*
X141658798Y-132913353D01*
X141882097Y-133005847D01*
X142119151Y-133053000D01*
X142360849Y-133053000D01*
X142597903Y-133005847D01*
X142821202Y-132913353D01*
X143022167Y-132779073D01*
X143193073Y-132608167D01*
X143327353Y-132407202D01*
X143419847Y-132183903D01*
X143467000Y-131946849D01*
X143467000Y-131705151D01*
X143419847Y-131468097D01*
X143327353Y-131244798D01*
X143193073Y-131043833D01*
X143022167Y-130872927D01*
X142821202Y-130738647D01*
X142597903Y-130646153D01*
X142360849Y-130599000D01*
X142119151Y-130599000D01*
X141882097Y-130646153D01*
X141658798Y-130738647D01*
X141457833Y-130872927D01*
X141286927Y-131043833D01*
X141152647Y-131244798D01*
X141060153Y-131468097D01*
X141013000Y-131705151D01*
X138063285Y-131705151D01*
X138034083Y-131558344D01*
X137930282Y-131307746D01*
X137779586Y-131082213D01*
X137587787Y-130890414D01*
X137362254Y-130739718D01*
X137111656Y-130635917D01*
X136845623Y-130583000D01*
X136574377Y-130583000D01*
X136308344Y-130635917D01*
X136057746Y-130739718D01*
X135832213Y-130890414D01*
X135640414Y-131082213D01*
X135489718Y-131307746D01*
X135385917Y-131558344D01*
X135333000Y-131824377D01*
X133787000Y-131824377D01*
X133787000Y-131799755D01*
X133724475Y-131485422D01*
X133601828Y-131189327D01*
X133423773Y-130922848D01*
X133197152Y-130696227D01*
X132930673Y-130518172D01*
X132634578Y-130395525D01*
X132320245Y-130333000D01*
X131999755Y-130333000D01*
X131685422Y-130395525D01*
X131389327Y-130518172D01*
X131122848Y-130696227D01*
X130896227Y-130922848D01*
X130718172Y-131189327D01*
X130595525Y-131485422D01*
X130533000Y-131799755D01*
X124912000Y-131799755D01*
X124912000Y-129324377D01*
X137783000Y-129324377D01*
X137783000Y-129595623D01*
X137835917Y-129861656D01*
X137939718Y-130112254D01*
X138090414Y-130337787D01*
X138282213Y-130529586D01*
X138507746Y-130680282D01*
X138758344Y-130784083D01*
X139024377Y-130837000D01*
X139295623Y-130837000D01*
X139561656Y-130784083D01*
X139812254Y-130680282D01*
X140037787Y-130529586D01*
X140229586Y-130337787D01*
X140380282Y-130112254D01*
X140484083Y-129861656D01*
X140537000Y-129595623D01*
X140537000Y-129324377D01*
X140484083Y-129058344D01*
X140380282Y-128807746D01*
X140279658Y-128657151D01*
X141013000Y-128657151D01*
X141013000Y-128898849D01*
X141060153Y-129135903D01*
X141152647Y-129359202D01*
X141286927Y-129560167D01*
X141457833Y-129731073D01*
X141658798Y-129865353D01*
X141882097Y-129957847D01*
X142119151Y-130005000D01*
X142360849Y-130005000D01*
X142597903Y-129957847D01*
X142821202Y-129865353D01*
X143022167Y-129731073D01*
X143193073Y-129560167D01*
X143327353Y-129359202D01*
X143419847Y-129135903D01*
X143467000Y-128898849D01*
X143467000Y-128657151D01*
X148633000Y-128657151D01*
X148633000Y-128898849D01*
X148680153Y-129135903D01*
X148772647Y-129359202D01*
X148906927Y-129560167D01*
X149077833Y-129731073D01*
X149278798Y-129865353D01*
X149502097Y-129957847D01*
X149739151Y-130005000D01*
X149980849Y-130005000D01*
X150217903Y-129957847D01*
X150441202Y-129865353D01*
X150642167Y-129731073D01*
X150813073Y-129560167D01*
X150947353Y-129359202D01*
X151039847Y-129135903D01*
X151087000Y-128898849D01*
X151087000Y-128657151D01*
X151039847Y-128420097D01*
X150947353Y-128196798D01*
X150813073Y-127995833D01*
X150642167Y-127824927D01*
X150441202Y-127690647D01*
X150217903Y-127598153D01*
X149980849Y-127551000D01*
X149739151Y-127551000D01*
X149502097Y-127598153D01*
X149278798Y-127690647D01*
X149077833Y-127824927D01*
X148906927Y-127995833D01*
X148772647Y-128196798D01*
X148680153Y-128420097D01*
X148633000Y-128657151D01*
X143467000Y-128657151D01*
X143419847Y-128420097D01*
X143327353Y-128196798D01*
X143193073Y-127995833D01*
X143022167Y-127824927D01*
X142821202Y-127690647D01*
X142597903Y-127598153D01*
X142360849Y-127551000D01*
X142119151Y-127551000D01*
X141882097Y-127598153D01*
X141658798Y-127690647D01*
X141457833Y-127824927D01*
X141286927Y-127995833D01*
X141152647Y-128196798D01*
X141060153Y-128420097D01*
X141013000Y-128657151D01*
X140279658Y-128657151D01*
X140229586Y-128582213D01*
X140037787Y-128390414D01*
X139812254Y-128239718D01*
X139561656Y-128135917D01*
X139295623Y-128083000D01*
X139024377Y-128083000D01*
X138758344Y-128135917D01*
X138507746Y-128239718D01*
X138282213Y-128390414D01*
X138090414Y-128582213D01*
X137939718Y-128807746D01*
X137835917Y-129058344D01*
X137783000Y-129324377D01*
X124912000Y-129324377D01*
X124912000Y-126824377D01*
X125783000Y-126824377D01*
X125783000Y-127095623D01*
X125835917Y-127361656D01*
X125939718Y-127612254D01*
X126090414Y-127837787D01*
X126282213Y-128029586D01*
X126507746Y-128180282D01*
X126758344Y-128284083D01*
X127024377Y-128337000D01*
X127295623Y-128337000D01*
X127561656Y-128284083D01*
X127812254Y-128180282D01*
X128037787Y-128029586D01*
X128229586Y-127837787D01*
X128380282Y-127612254D01*
X128484083Y-127361656D01*
X128537000Y-127095623D01*
X128537000Y-126824377D01*
X128484083Y-126558344D01*
X128380282Y-126307746D01*
X128229586Y-126082213D01*
X128037787Y-125890414D01*
X127812254Y-125739718D01*
X127561656Y-125635917D01*
X127295623Y-125583000D01*
X127024377Y-125583000D01*
X126758344Y-125635917D01*
X126507746Y-125739718D01*
X126282213Y-125890414D01*
X126090414Y-126082213D01*
X125939718Y-126307746D01*
X125835917Y-126558344D01*
X125783000Y-126824377D01*
X124912000Y-126824377D01*
X124912000Y-125559752D01*
X135789853Y-125559752D01*
X135879579Y-125819042D01*
X136160671Y-125954935D01*
X136462873Y-126033379D01*
X136774573Y-126051359D01*
X137083791Y-126008184D01*
X137378644Y-125905513D01*
X137540421Y-125819042D01*
X137630147Y-125559752D01*
X136710000Y-124639605D01*
X135789853Y-125559752D01*
X124912000Y-125559752D01*
X124912000Y-124524573D01*
X135118641Y-124524573D01*
X135161816Y-124833791D01*
X135264487Y-125128644D01*
X135350958Y-125290421D01*
X135610248Y-125380147D01*
X136530395Y-124460000D01*
X136889605Y-124460000D01*
X137809752Y-125380147D01*
X137881985Y-125355151D01*
X141521000Y-125355151D01*
X141521000Y-125596849D01*
X141568153Y-125833903D01*
X141660647Y-126057202D01*
X141794927Y-126258167D01*
X141965833Y-126429073D01*
X142166798Y-126563353D01*
X142390097Y-126655847D01*
X142627151Y-126703000D01*
X142868849Y-126703000D01*
X143105903Y-126655847D01*
X143329202Y-126563353D01*
X143530167Y-126429073D01*
X143701073Y-126258167D01*
X143835353Y-126057202D01*
X143912517Y-125870912D01*
X143990930Y-126089881D01*
X144135615Y-126331131D01*
X144324586Y-126539519D01*
X144550580Y-126707037D01*
X144804913Y-126827246D01*
X144938961Y-126867904D01*
X145161000Y-126745915D01*
X145161000Y-125603000D01*
X145141000Y-125603000D01*
X145141000Y-125349000D01*
X145161000Y-125349000D01*
X145161000Y-124206085D01*
X144938961Y-124084096D01*
X144804913Y-124124754D01*
X144550580Y-124244963D01*
X144324586Y-124412481D01*
X144135615Y-124620869D01*
X143990930Y-124862119D01*
X143912517Y-125081088D01*
X143835353Y-124894798D01*
X143701073Y-124693833D01*
X143530167Y-124522927D01*
X143329202Y-124388647D01*
X143105903Y-124296153D01*
X142868849Y-124249000D01*
X142627151Y-124249000D01*
X142390097Y-124296153D01*
X142166798Y-124388647D01*
X141965833Y-124522927D01*
X141794927Y-124693833D01*
X141660647Y-124894798D01*
X141568153Y-125118097D01*
X141521000Y-125355151D01*
X137881985Y-125355151D01*
X138069042Y-125290421D01*
X138204935Y-125009329D01*
X138283379Y-124707127D01*
X138301359Y-124395427D01*
X138258184Y-124086209D01*
X138155513Y-123791356D01*
X138069042Y-123629579D01*
X137809752Y-123539853D01*
X136889605Y-124460000D01*
X136530395Y-124460000D01*
X135610248Y-123539853D01*
X135350958Y-123629579D01*
X135215065Y-123910671D01*
X135136621Y-124212873D01*
X135118641Y-124524573D01*
X124912000Y-124524573D01*
X124912000Y-123360248D01*
X135789853Y-123360248D01*
X136710000Y-124280395D01*
X137630147Y-123360248D01*
X137540421Y-123100958D01*
X137259329Y-122965065D01*
X136957127Y-122886621D01*
X136645427Y-122868641D01*
X136336209Y-122911816D01*
X136041356Y-123014487D01*
X135879579Y-123100958D01*
X135789853Y-123360248D01*
X124912000Y-123360248D01*
X124912000Y-121824377D01*
X125783000Y-121824377D01*
X125783000Y-122095623D01*
X125835917Y-122361656D01*
X125939718Y-122612254D01*
X126090414Y-122837787D01*
X126282213Y-123029586D01*
X126507746Y-123180282D01*
X126758344Y-123284083D01*
X127024377Y-123337000D01*
X127295623Y-123337000D01*
X127561656Y-123284083D01*
X127812254Y-123180282D01*
X128037787Y-123029586D01*
X128229586Y-122837787D01*
X128380282Y-122612254D01*
X128484083Y-122361656D01*
X128537000Y-122095623D01*
X128537000Y-121824377D01*
X128484083Y-121558344D01*
X128380282Y-121307746D01*
X128229586Y-121082213D01*
X128037787Y-120890414D01*
X127812254Y-120739718D01*
X127561656Y-120635917D01*
X127295623Y-120583000D01*
X127024377Y-120583000D01*
X126758344Y-120635917D01*
X126507746Y-120739718D01*
X126282213Y-120890414D01*
X126090414Y-121082213D01*
X125939718Y-121307746D01*
X125835917Y-121558344D01*
X125783000Y-121824377D01*
X124912000Y-121824377D01*
X124912000Y-119324377D01*
X137783000Y-119324377D01*
X137783000Y-119595623D01*
X137835917Y-119861656D01*
X137939718Y-120112254D01*
X138090414Y-120337787D01*
X138282213Y-120529586D01*
X138507746Y-120680282D01*
X138758344Y-120784083D01*
X139024377Y-120837000D01*
X139295623Y-120837000D01*
X139561656Y-120784083D01*
X139812254Y-120680282D01*
X140037787Y-120529586D01*
X140229586Y-120337787D01*
X140380282Y-120112254D01*
X140484083Y-119861656D01*
X140537000Y-119595623D01*
X140537000Y-119324377D01*
X140484083Y-119058344D01*
X140380282Y-118807746D01*
X140229586Y-118582213D01*
X140037787Y-118390414D01*
X139812254Y-118239718D01*
X139561656Y-118135917D01*
X139295623Y-118083000D01*
X139024377Y-118083000D01*
X138758344Y-118135917D01*
X138507746Y-118239718D01*
X138282213Y-118390414D01*
X138090414Y-118582213D01*
X137939718Y-118807746D01*
X137835917Y-119058344D01*
X137783000Y-119324377D01*
X124912000Y-119324377D01*
X124912000Y-116799755D01*
X130533000Y-116799755D01*
X130533000Y-117120245D01*
X130595525Y-117434578D01*
X130718172Y-117730673D01*
X130896227Y-117997152D01*
X131122848Y-118223773D01*
X131389327Y-118401828D01*
X131685422Y-118524475D01*
X131999755Y-118587000D01*
X132320245Y-118587000D01*
X132634578Y-118524475D01*
X132930673Y-118401828D01*
X133197152Y-118223773D01*
X133423773Y-117997152D01*
X133601828Y-117730673D01*
X133724475Y-117434578D01*
X133787000Y-117120245D01*
X133787000Y-116824377D01*
X135283000Y-116824377D01*
X135283000Y-117095623D01*
X135335917Y-117361656D01*
X135439718Y-117612254D01*
X135590414Y-117837787D01*
X135782213Y-118029586D01*
X136007746Y-118180282D01*
X136258344Y-118284083D01*
X136524377Y-118337000D01*
X136795623Y-118337000D01*
X137061656Y-118284083D01*
X137312254Y-118180282D01*
X137537787Y-118029586D01*
X137729586Y-117837787D01*
X137798165Y-117735151D01*
X141521000Y-117735151D01*
X141521000Y-117976849D01*
X141568153Y-118213903D01*
X141660647Y-118437202D01*
X141794927Y-118638167D01*
X141965833Y-118809073D01*
X142166798Y-118943353D01*
X142390097Y-119035847D01*
X142627151Y-119083000D01*
X142868849Y-119083000D01*
X143105903Y-119035847D01*
X143329202Y-118943353D01*
X143530167Y-118809073D01*
X143701073Y-118638167D01*
X143835353Y-118437202D01*
X143927847Y-118213903D01*
X143975000Y-117976849D01*
X143975000Y-117735151D01*
X144061000Y-117735151D01*
X144061000Y-117976849D01*
X144108153Y-118213903D01*
X144200647Y-118437202D01*
X144334927Y-118638167D01*
X144505833Y-118809073D01*
X144706798Y-118943353D01*
X144930097Y-119035847D01*
X145167151Y-119083000D01*
X145408849Y-119083000D01*
X145645903Y-119035847D01*
X145869202Y-118943353D01*
X146070167Y-118809073D01*
X146241073Y-118638167D01*
X146375353Y-118437202D01*
X146467847Y-118213903D01*
X146515000Y-117976849D01*
X146515000Y-117735151D01*
X146467847Y-117498097D01*
X146375353Y-117274798D01*
X146241073Y-117073833D01*
X146223240Y-117056000D01*
X146598934Y-117056000D01*
X146598934Y-118656000D01*
X146607178Y-118739707D01*
X146631595Y-118820196D01*
X146671245Y-118894376D01*
X146724605Y-118959395D01*
X146789624Y-119012755D01*
X146863804Y-119052405D01*
X146944293Y-119076822D01*
X147028000Y-119085066D01*
X148628000Y-119085066D01*
X148711707Y-119076822D01*
X148792196Y-119052405D01*
X148866376Y-119012755D01*
X148931395Y-118959395D01*
X148984755Y-118894376D01*
X149024405Y-118820196D01*
X149048822Y-118739707D01*
X149057066Y-118656000D01*
X149057066Y-117056000D01*
X149048822Y-116972293D01*
X149024405Y-116891804D01*
X148984755Y-116817624D01*
X148931395Y-116752605D01*
X148866376Y-116699245D01*
X148792196Y-116659595D01*
X148711707Y-116635178D01*
X148628000Y-116626934D01*
X147028000Y-116626934D01*
X146944293Y-116635178D01*
X146863804Y-116659595D01*
X146789624Y-116699245D01*
X146724605Y-116752605D01*
X146671245Y-116817624D01*
X146631595Y-116891804D01*
X146607178Y-116972293D01*
X146598934Y-117056000D01*
X146223240Y-117056000D01*
X146070167Y-116902927D01*
X145869202Y-116768647D01*
X145645903Y-116676153D01*
X145408849Y-116629000D01*
X145167151Y-116629000D01*
X144930097Y-116676153D01*
X144706798Y-116768647D01*
X144505833Y-116902927D01*
X144334927Y-117073833D01*
X144200647Y-117274798D01*
X144108153Y-117498097D01*
X144061000Y-117735151D01*
X143975000Y-117735151D01*
X143927847Y-117498097D01*
X143835353Y-117274798D01*
X143701073Y-117073833D01*
X143530167Y-116902927D01*
X143329202Y-116768647D01*
X143105903Y-116676153D01*
X142868849Y-116629000D01*
X142627151Y-116629000D01*
X142390097Y-116676153D01*
X142166798Y-116768647D01*
X141965833Y-116902927D01*
X141794927Y-117073833D01*
X141660647Y-117274798D01*
X141568153Y-117498097D01*
X141521000Y-117735151D01*
X137798165Y-117735151D01*
X137880282Y-117612254D01*
X137984083Y-117361656D01*
X138037000Y-117095623D01*
X138037000Y-116824377D01*
X137984083Y-116558344D01*
X137880282Y-116307746D01*
X137729586Y-116082213D01*
X137537787Y-115890414D01*
X137312254Y-115739718D01*
X137061656Y-115635917D01*
X136795623Y-115583000D01*
X136524377Y-115583000D01*
X136258344Y-115635917D01*
X136007746Y-115739718D01*
X135782213Y-115890414D01*
X135590414Y-116082213D01*
X135439718Y-116307746D01*
X135335917Y-116558344D01*
X135283000Y-116824377D01*
X133787000Y-116824377D01*
X133787000Y-116799755D01*
X133724475Y-116485422D01*
X133601828Y-116189327D01*
X133423773Y-115922848D01*
X133197152Y-115696227D01*
X132930673Y-115518172D01*
X132634578Y-115395525D01*
X132320245Y-115333000D01*
X131999755Y-115333000D01*
X131685422Y-115395525D01*
X131389327Y-115518172D01*
X131122848Y-115696227D01*
X130896227Y-115922848D01*
X130718172Y-116189327D01*
X130595525Y-116485422D01*
X130533000Y-116799755D01*
X124912000Y-116799755D01*
X124912000Y-114179151D01*
X141521000Y-114179151D01*
X141521000Y-114420849D01*
X141568153Y-114657903D01*
X141660647Y-114881202D01*
X141794927Y-115082167D01*
X141965833Y-115253073D01*
X142166798Y-115387353D01*
X142390097Y-115479847D01*
X142627151Y-115527000D01*
X142868849Y-115527000D01*
X143105903Y-115479847D01*
X143329202Y-115387353D01*
X143530167Y-115253073D01*
X143701073Y-115082167D01*
X143835353Y-114881202D01*
X143912517Y-114694912D01*
X143990930Y-114913881D01*
X144135615Y-115155131D01*
X144324586Y-115363519D01*
X144550580Y-115531037D01*
X144804913Y-115651246D01*
X144938961Y-115691904D01*
X145161000Y-115569915D01*
X145161000Y-114427000D01*
X145141000Y-114427000D01*
X145141000Y-114173000D01*
X145161000Y-114173000D01*
X145161000Y-113030085D01*
X145415000Y-113030085D01*
X145415000Y-114173000D01*
X145435000Y-114173000D01*
X145435000Y-114427000D01*
X145415000Y-114427000D01*
X145415000Y-115569915D01*
X145637039Y-115691904D01*
X145771087Y-115651246D01*
X146025420Y-115531037D01*
X146251414Y-115363519D01*
X146440385Y-115155131D01*
X146585070Y-114913881D01*
X146663483Y-114694912D01*
X146740647Y-114881202D01*
X146874927Y-115082167D01*
X147045833Y-115253073D01*
X147246798Y-115387353D01*
X147470097Y-115479847D01*
X147707151Y-115527000D01*
X147948849Y-115527000D01*
X148185903Y-115479847D01*
X148409202Y-115387353D01*
X148610167Y-115253073D01*
X148781073Y-115082167D01*
X148901456Y-114902000D01*
X151388645Y-114902000D01*
X152052001Y-115565357D01*
X152052000Y-120592544D01*
X151871833Y-120712927D01*
X151700927Y-120883833D01*
X151566647Y-121084798D01*
X151474153Y-121308097D01*
X151427000Y-121545151D01*
X151427000Y-121786849D01*
X151474153Y-122023903D01*
X151566647Y-122247202D01*
X151700927Y-122448167D01*
X151871833Y-122619073D01*
X152052000Y-122739457D01*
X152052001Y-123132543D01*
X151871833Y-123252927D01*
X151700927Y-123423833D01*
X151566647Y-123624798D01*
X151474153Y-123848097D01*
X151427000Y-124085151D01*
X151427000Y-124326849D01*
X151469273Y-124539371D01*
X151134645Y-124874000D01*
X148901456Y-124874000D01*
X148781073Y-124693833D01*
X148610167Y-124522927D01*
X148409202Y-124388647D01*
X148185903Y-124296153D01*
X147948849Y-124249000D01*
X147707151Y-124249000D01*
X147470097Y-124296153D01*
X147246798Y-124388647D01*
X147045833Y-124522927D01*
X146874927Y-124693833D01*
X146740647Y-124894798D01*
X146663483Y-125081088D01*
X146585070Y-124862119D01*
X146440385Y-124620869D01*
X146251414Y-124412481D01*
X146025420Y-124244963D01*
X145771087Y-124124754D01*
X145637039Y-124084096D01*
X145415000Y-124206085D01*
X145415000Y-125349000D01*
X145435000Y-125349000D01*
X145435000Y-125603000D01*
X145415000Y-125603000D01*
X145415000Y-126745915D01*
X145637039Y-126867904D01*
X145771087Y-126827246D01*
X146025420Y-126707037D01*
X146251414Y-126539519D01*
X146440385Y-126331131D01*
X146585070Y-126089881D01*
X146663483Y-125870912D01*
X146740647Y-126057202D01*
X146874927Y-126258167D01*
X147045833Y-126429073D01*
X147246798Y-126563353D01*
X147470097Y-126655847D01*
X147707151Y-126703000D01*
X147948849Y-126703000D01*
X148185903Y-126655847D01*
X148409202Y-126563353D01*
X148610167Y-126429073D01*
X148781073Y-126258167D01*
X148901456Y-126078000D01*
X151354444Y-126078000D01*
X151384000Y-126080911D01*
X151413556Y-126078000D01*
X151413566Y-126078000D01*
X151502012Y-126069289D01*
X151615490Y-126034866D01*
X151720071Y-125978966D01*
X151811737Y-125903737D01*
X151830589Y-125880766D01*
X152052001Y-125659355D01*
X152052000Y-128782644D01*
X150193371Y-130641273D01*
X149980849Y-130599000D01*
X149739151Y-130599000D01*
X149502097Y-130646153D01*
X149278798Y-130738647D01*
X149077833Y-130872927D01*
X148906927Y-131043833D01*
X148772647Y-131244798D01*
X148680153Y-131468097D01*
X148633000Y-131705151D01*
X148633000Y-131946849D01*
X148680153Y-132183903D01*
X148772647Y-132407202D01*
X148906927Y-132608167D01*
X149077833Y-132779073D01*
X149278798Y-132913353D01*
X149502097Y-133005847D01*
X149739151Y-133053000D01*
X149980849Y-133053000D01*
X150217903Y-133005847D01*
X150441202Y-132913353D01*
X150642167Y-132779073D01*
X150813073Y-132608167D01*
X150947353Y-132407202D01*
X151039847Y-132183903D01*
X151087000Y-131946849D01*
X151087000Y-131705151D01*
X151427000Y-131705151D01*
X151427000Y-131946849D01*
X151474153Y-132183903D01*
X151566647Y-132407202D01*
X151700927Y-132608167D01*
X151871833Y-132779073D01*
X152072798Y-132913353D01*
X152296097Y-133005847D01*
X152533151Y-133053000D01*
X152774849Y-133053000D01*
X153011903Y-133005847D01*
X153235202Y-132913353D01*
X153436167Y-132779073D01*
X153607073Y-132608167D01*
X153741353Y-132407202D01*
X153833847Y-132183903D01*
X153881000Y-131946849D01*
X153881000Y-131705151D01*
X153833847Y-131468097D01*
X153741353Y-131244798D01*
X153607073Y-131043833D01*
X153436167Y-130872927D01*
X153235202Y-130738647D01*
X153011903Y-130646153D01*
X152774849Y-130599000D01*
X152533151Y-130599000D01*
X152296097Y-130646153D01*
X152072798Y-130738647D01*
X151871833Y-130872927D01*
X151700927Y-131043833D01*
X151566647Y-131244798D01*
X151474153Y-131468097D01*
X151427000Y-131705151D01*
X151087000Y-131705151D01*
X151044727Y-131492629D01*
X153058773Y-129478583D01*
X153081737Y-129459737D01*
X153156966Y-129368071D01*
X153212866Y-129263490D01*
X153247289Y-129150012D01*
X153256000Y-129061566D01*
X153256000Y-129061557D01*
X153258911Y-129032000D01*
X153256000Y-129002444D01*
X153256000Y-125279456D01*
X153436167Y-125159073D01*
X153607073Y-124988167D01*
X153741353Y-124787202D01*
X153833847Y-124563903D01*
X153881000Y-124326849D01*
X153881000Y-124085151D01*
X153833847Y-123848097D01*
X153741353Y-123624798D01*
X153607073Y-123423833D01*
X153436167Y-123252927D01*
X153256000Y-123132544D01*
X153256000Y-122739456D01*
X153436167Y-122619073D01*
X153607073Y-122448167D01*
X153741353Y-122247202D01*
X153793139Y-122122181D01*
X153850397Y-122282292D01*
X153917329Y-122407514D01*
X154161298Y-122479097D01*
X154974395Y-121666000D01*
X154161298Y-120852903D01*
X153917329Y-120924486D01*
X153796429Y-121179996D01*
X153790531Y-121203524D01*
X153741353Y-121084798D01*
X153607073Y-120883833D01*
X153436167Y-120712927D01*
X153376858Y-120673298D01*
X154340903Y-120673298D01*
X155154000Y-121486395D01*
X155967097Y-120673298D01*
X155895514Y-120429329D01*
X155640004Y-120308429D01*
X155365816Y-120239700D01*
X155083488Y-120225783D01*
X154803870Y-120267213D01*
X154537708Y-120362397D01*
X154412486Y-120429329D01*
X154340903Y-120673298D01*
X153376858Y-120673298D01*
X153256000Y-120592544D01*
X153256000Y-115345556D01*
X153258911Y-115316000D01*
X153256000Y-115286443D01*
X153256000Y-115286434D01*
X153247289Y-115197988D01*
X153212866Y-115084510D01*
X153156966Y-114979929D01*
X153081737Y-114888263D01*
X153058771Y-114869416D01*
X152489355Y-114300000D01*
X153774463Y-113014893D01*
X153712074Y-113165513D01*
X153663000Y-113412226D01*
X153663000Y-113663774D01*
X153712074Y-113910487D01*
X153808337Y-114142886D01*
X153948089Y-114352040D01*
X154125960Y-114529911D01*
X154335114Y-114669663D01*
X154567513Y-114765926D01*
X154779034Y-114808000D01*
X154567513Y-114850074D01*
X154335114Y-114946337D01*
X154125960Y-115086089D01*
X153948089Y-115263960D01*
X153808337Y-115473114D01*
X153712074Y-115705513D01*
X153663000Y-115952226D01*
X153663000Y-116203774D01*
X153712074Y-116450487D01*
X153808337Y-116682886D01*
X153948089Y-116892040D01*
X154125960Y-117069911D01*
X154335114Y-117209663D01*
X154567513Y-117305926D01*
X154814226Y-117355000D01*
X155065774Y-117355000D01*
X155312487Y-117305926D01*
X155544886Y-117209663D01*
X155754040Y-117069911D01*
X155931911Y-116892040D01*
X156071663Y-116682886D01*
X156167926Y-116450487D01*
X156217000Y-116203774D01*
X156217000Y-115952226D01*
X156167926Y-115705513D01*
X156071663Y-115473114D01*
X155931911Y-115263960D01*
X155754040Y-115086089D01*
X155544886Y-114946337D01*
X155312487Y-114850074D01*
X155100966Y-114808000D01*
X155312487Y-114765926D01*
X155544886Y-114669663D01*
X155754040Y-114529911D01*
X155931911Y-114352040D01*
X156071663Y-114142886D01*
X156167926Y-113910487D01*
X156217000Y-113663774D01*
X156217000Y-113412226D01*
X156167926Y-113165513D01*
X156071663Y-112933114D01*
X155931911Y-112723960D01*
X155754040Y-112546089D01*
X155544886Y-112406337D01*
X155312487Y-112310074D01*
X155146544Y-112277066D01*
X155790000Y-112277066D01*
X155873707Y-112268822D01*
X155954196Y-112244405D01*
X156028376Y-112204755D01*
X156093395Y-112151395D01*
X156146755Y-112086376D01*
X156186405Y-112012196D01*
X156210822Y-111931707D01*
X156219066Y-111848000D01*
X156219066Y-110148000D01*
X156210822Y-110064293D01*
X156186405Y-109983804D01*
X156146755Y-109909624D01*
X156093395Y-109844605D01*
X156028376Y-109791245D01*
X155954196Y-109751595D01*
X155873707Y-109727178D01*
X155790000Y-109718934D01*
X154090000Y-109718934D01*
X154006293Y-109727178D01*
X153925804Y-109751595D01*
X153851624Y-109791245D01*
X153786605Y-109844605D01*
X153733245Y-109909624D01*
X153693595Y-109983804D01*
X153669178Y-110064293D01*
X153660934Y-110148000D01*
X153660934Y-111425710D01*
X151388645Y-113698000D01*
X148901456Y-113698000D01*
X148781073Y-113517833D01*
X148610167Y-113346927D01*
X148409202Y-113212647D01*
X148185903Y-113120153D01*
X147948849Y-113073000D01*
X147707151Y-113073000D01*
X147470097Y-113120153D01*
X147246798Y-113212647D01*
X147045833Y-113346927D01*
X146874927Y-113517833D01*
X146740647Y-113718798D01*
X146663483Y-113905088D01*
X146585070Y-113686119D01*
X146440385Y-113444869D01*
X146251414Y-113236481D01*
X146025420Y-113068963D01*
X145771087Y-112948754D01*
X145637039Y-112908096D01*
X145415000Y-113030085D01*
X145161000Y-113030085D01*
X144938961Y-112908096D01*
X144804913Y-112948754D01*
X144550580Y-113068963D01*
X144324586Y-113236481D01*
X144135615Y-113444869D01*
X143990930Y-113686119D01*
X143912517Y-113905088D01*
X143835353Y-113718798D01*
X143701073Y-113517833D01*
X143530167Y-113346927D01*
X143329202Y-113212647D01*
X143105903Y-113120153D01*
X142868849Y-113073000D01*
X142627151Y-113073000D01*
X142390097Y-113120153D01*
X142166798Y-113212647D01*
X141965833Y-113346927D01*
X141794927Y-113517833D01*
X141660647Y-113718798D01*
X141568153Y-113942097D01*
X141521000Y-114179151D01*
X124912000Y-114179151D01*
X124912000Y-108939755D01*
X130533000Y-108939755D01*
X130533000Y-109260245D01*
X130595525Y-109574578D01*
X130718172Y-109870673D01*
X130896227Y-110137152D01*
X131122848Y-110363773D01*
X131389327Y-110541828D01*
X131685422Y-110664475D01*
X131999755Y-110727000D01*
X132320245Y-110727000D01*
X132634578Y-110664475D01*
X132930673Y-110541828D01*
X133197152Y-110363773D01*
X133423773Y-110137152D01*
X133601828Y-109870673D01*
X133724475Y-109574578D01*
X133787000Y-109260245D01*
X133787000Y-108964377D01*
X135333000Y-108964377D01*
X135333000Y-109235623D01*
X135385917Y-109501656D01*
X135489718Y-109752254D01*
X135640414Y-109977787D01*
X135832213Y-110169586D01*
X136057746Y-110320282D01*
X136308344Y-110424083D01*
X136574377Y-110477000D01*
X136845623Y-110477000D01*
X137111656Y-110424083D01*
X137362254Y-110320282D01*
X137587787Y-110169586D01*
X137779586Y-109977787D01*
X137930282Y-109752254D01*
X138034083Y-109501656D01*
X138087000Y-109235623D01*
X138087000Y-108964377D01*
X138034083Y-108698344D01*
X137930282Y-108447746D01*
X137779586Y-108222213D01*
X137587787Y-108030414D01*
X137362254Y-107879718D01*
X137111656Y-107775917D01*
X136845623Y-107723000D01*
X136574377Y-107723000D01*
X136308344Y-107775917D01*
X136057746Y-107879718D01*
X135832213Y-108030414D01*
X135640414Y-108222213D01*
X135489718Y-108447746D01*
X135385917Y-108698344D01*
X135333000Y-108964377D01*
X133787000Y-108964377D01*
X133787000Y-108939755D01*
X133724475Y-108625422D01*
X133601828Y-108329327D01*
X133423773Y-108062848D01*
X133197152Y-107836227D01*
X132930673Y-107658172D01*
X132634578Y-107535525D01*
X132320245Y-107473000D01*
X131999755Y-107473000D01*
X131685422Y-107535525D01*
X131389327Y-107658172D01*
X131122848Y-107836227D01*
X130896227Y-108062848D01*
X130718172Y-108329327D01*
X130595525Y-108625422D01*
X130533000Y-108939755D01*
X124912000Y-108939755D01*
X124912000Y-106464377D01*
X137783000Y-106464377D01*
X137783000Y-106735623D01*
X137835917Y-107001656D01*
X137939718Y-107252254D01*
X138090414Y-107477787D01*
X138282213Y-107669586D01*
X138507746Y-107820282D01*
X138758344Y-107924083D01*
X139024377Y-107977000D01*
X139295623Y-107977000D01*
X139561656Y-107924083D01*
X139812254Y-107820282D01*
X140037787Y-107669586D01*
X140229586Y-107477787D01*
X140380282Y-107252254D01*
X140484083Y-107001656D01*
X140537000Y-106735623D01*
X140537000Y-106559151D01*
X141521000Y-106559151D01*
X141521000Y-106800849D01*
X141568153Y-107037903D01*
X141660647Y-107261202D01*
X141794927Y-107462167D01*
X141965833Y-107633073D01*
X142166798Y-107767353D01*
X142390097Y-107859847D01*
X142627151Y-107907000D01*
X142868849Y-107907000D01*
X143105903Y-107859847D01*
X143329202Y-107767353D01*
X143530167Y-107633073D01*
X143701073Y-107462167D01*
X143835353Y-107261202D01*
X143927847Y-107037903D01*
X143975000Y-106800849D01*
X143975000Y-106559151D01*
X144061000Y-106559151D01*
X144061000Y-106800849D01*
X144108153Y-107037903D01*
X144200647Y-107261202D01*
X144334927Y-107462167D01*
X144505833Y-107633073D01*
X144706798Y-107767353D01*
X144930097Y-107859847D01*
X145167151Y-107907000D01*
X145408849Y-107907000D01*
X145645903Y-107859847D01*
X145869202Y-107767353D01*
X146070167Y-107633073D01*
X146241073Y-107462167D01*
X146375353Y-107261202D01*
X146467847Y-107037903D01*
X146515000Y-106800849D01*
X146515000Y-106559151D01*
X146467847Y-106322097D01*
X146375353Y-106098798D01*
X146241073Y-105897833D01*
X146223240Y-105880000D01*
X146598934Y-105880000D01*
X146598934Y-107480000D01*
X146607178Y-107563707D01*
X146631595Y-107644196D01*
X146671245Y-107718376D01*
X146724605Y-107783395D01*
X146789624Y-107836755D01*
X146863804Y-107876405D01*
X146944293Y-107900822D01*
X147028000Y-107909066D01*
X148628000Y-107909066D01*
X148711707Y-107900822D01*
X148792196Y-107876405D01*
X148866376Y-107836755D01*
X148931395Y-107783395D01*
X148984755Y-107718376D01*
X149024405Y-107644196D01*
X149048822Y-107563707D01*
X149057066Y-107480000D01*
X149057066Y-107124702D01*
X153364903Y-107124702D01*
X153436486Y-107368671D01*
X153691996Y-107489571D01*
X153966184Y-107558300D01*
X154248512Y-107572217D01*
X154528130Y-107530787D01*
X154794292Y-107435603D01*
X154919514Y-107368671D01*
X154991097Y-107124702D01*
X154178000Y-106311605D01*
X153364903Y-107124702D01*
X149057066Y-107124702D01*
X149057066Y-106202512D01*
X152737783Y-106202512D01*
X152779213Y-106482130D01*
X152874397Y-106748292D01*
X152941329Y-106873514D01*
X153185298Y-106945097D01*
X153998395Y-106132000D01*
X154357605Y-106132000D01*
X155170702Y-106945097D01*
X155414671Y-106873514D01*
X155535571Y-106618004D01*
X155604300Y-106343816D01*
X155618217Y-106061488D01*
X155576787Y-105781870D01*
X155481603Y-105515708D01*
X155414671Y-105390486D01*
X155170702Y-105318903D01*
X154357605Y-106132000D01*
X153998395Y-106132000D01*
X153185298Y-105318903D01*
X152941329Y-105390486D01*
X152820429Y-105645996D01*
X152751700Y-105920184D01*
X152737783Y-106202512D01*
X149057066Y-106202512D01*
X149057066Y-105880000D01*
X149048822Y-105796293D01*
X149024405Y-105715804D01*
X148984755Y-105641624D01*
X148931395Y-105576605D01*
X148866376Y-105523245D01*
X148792196Y-105483595D01*
X148711707Y-105459178D01*
X148628000Y-105450934D01*
X147028000Y-105450934D01*
X146944293Y-105459178D01*
X146863804Y-105483595D01*
X146789624Y-105523245D01*
X146724605Y-105576605D01*
X146671245Y-105641624D01*
X146631595Y-105715804D01*
X146607178Y-105796293D01*
X146598934Y-105880000D01*
X146223240Y-105880000D01*
X146070167Y-105726927D01*
X145869202Y-105592647D01*
X145645903Y-105500153D01*
X145408849Y-105453000D01*
X145167151Y-105453000D01*
X144930097Y-105500153D01*
X144706798Y-105592647D01*
X144505833Y-105726927D01*
X144334927Y-105897833D01*
X144200647Y-106098798D01*
X144108153Y-106322097D01*
X144061000Y-106559151D01*
X143975000Y-106559151D01*
X143927847Y-106322097D01*
X143835353Y-106098798D01*
X143701073Y-105897833D01*
X143530167Y-105726927D01*
X143329202Y-105592647D01*
X143105903Y-105500153D01*
X142868849Y-105453000D01*
X142627151Y-105453000D01*
X142390097Y-105500153D01*
X142166798Y-105592647D01*
X141965833Y-105726927D01*
X141794927Y-105897833D01*
X141660647Y-106098798D01*
X141568153Y-106322097D01*
X141521000Y-106559151D01*
X140537000Y-106559151D01*
X140537000Y-106464377D01*
X140484083Y-106198344D01*
X140380282Y-105947746D01*
X140229586Y-105722213D01*
X140037787Y-105530414D01*
X139812254Y-105379718D01*
X139561656Y-105275917D01*
X139295623Y-105223000D01*
X139024377Y-105223000D01*
X138758344Y-105275917D01*
X138507746Y-105379718D01*
X138282213Y-105530414D01*
X138090414Y-105722213D01*
X137939718Y-105947746D01*
X137835917Y-106198344D01*
X137783000Y-106464377D01*
X124912000Y-106464377D01*
X124912000Y-103964377D01*
X125783000Y-103964377D01*
X125783000Y-104235623D01*
X125835917Y-104501656D01*
X125939718Y-104752254D01*
X126090414Y-104977787D01*
X126282213Y-105169586D01*
X126507746Y-105320282D01*
X126758344Y-105424083D01*
X127024377Y-105477000D01*
X127295623Y-105477000D01*
X127561656Y-105424083D01*
X127812254Y-105320282D01*
X128037787Y-105169586D01*
X128229586Y-104977787D01*
X128380282Y-104752254D01*
X128484083Y-104501656D01*
X128537000Y-104235623D01*
X128537000Y-103964377D01*
X128484083Y-103698344D01*
X128380282Y-103447746D01*
X128229586Y-103222213D01*
X128037787Y-103030414D01*
X127996985Y-103003151D01*
X141013000Y-103003151D01*
X141013000Y-103244849D01*
X141060153Y-103481903D01*
X141152647Y-103705202D01*
X141286927Y-103906167D01*
X141457833Y-104077073D01*
X141658798Y-104211353D01*
X141882097Y-104303847D01*
X142119151Y-104351000D01*
X142360849Y-104351000D01*
X142597903Y-104303847D01*
X142821202Y-104211353D01*
X143022167Y-104077073D01*
X143193073Y-103906167D01*
X143327353Y-103705202D01*
X143419847Y-103481903D01*
X143467000Y-103244849D01*
X143467000Y-103003151D01*
X148633000Y-103003151D01*
X148633000Y-103244849D01*
X148680153Y-103481903D01*
X148772647Y-103705202D01*
X148906927Y-103906167D01*
X149077833Y-104077073D01*
X149278798Y-104211353D01*
X149502097Y-104303847D01*
X149739151Y-104351000D01*
X149980849Y-104351000D01*
X150217903Y-104303847D01*
X150441202Y-104211353D01*
X150642167Y-104077073D01*
X150813073Y-103906167D01*
X150947353Y-103705202D01*
X151039847Y-103481903D01*
X151087000Y-103244849D01*
X151087000Y-103003151D01*
X151052956Y-102832000D01*
X152948934Y-102832000D01*
X152948934Y-104432000D01*
X152957178Y-104515707D01*
X152981595Y-104596196D01*
X153021245Y-104670376D01*
X153074605Y-104735395D01*
X153139624Y-104788755D01*
X153213804Y-104828405D01*
X153294293Y-104852822D01*
X153378000Y-104861066D01*
X153500588Y-104861066D01*
X153436486Y-104895329D01*
X153364903Y-105139298D01*
X154178000Y-105952395D01*
X154991097Y-105139298D01*
X154919514Y-104895329D01*
X154847103Y-104861066D01*
X154978000Y-104861066D01*
X155061707Y-104852822D01*
X155142196Y-104828405D01*
X155216376Y-104788755D01*
X155281395Y-104735395D01*
X155334755Y-104670376D01*
X155374405Y-104596196D01*
X155398822Y-104515707D01*
X155407066Y-104432000D01*
X155407066Y-102832000D01*
X155398822Y-102748293D01*
X155374405Y-102667804D01*
X155334755Y-102593624D01*
X155281395Y-102528605D01*
X155216376Y-102475245D01*
X155142196Y-102435595D01*
X155061707Y-102411178D01*
X154978000Y-102402934D01*
X153378000Y-102402934D01*
X153294293Y-102411178D01*
X153213804Y-102435595D01*
X153139624Y-102475245D01*
X153074605Y-102528605D01*
X153021245Y-102593624D01*
X152981595Y-102667804D01*
X152957178Y-102748293D01*
X152948934Y-102832000D01*
X151052956Y-102832000D01*
X151039847Y-102766097D01*
X150947353Y-102542798D01*
X150813073Y-102341833D01*
X150642167Y-102170927D01*
X150441202Y-102036647D01*
X150217903Y-101944153D01*
X149980849Y-101897000D01*
X149739151Y-101897000D01*
X149502097Y-101944153D01*
X149278798Y-102036647D01*
X149077833Y-102170927D01*
X148906927Y-102341833D01*
X148772647Y-102542798D01*
X148680153Y-102766097D01*
X148633000Y-103003151D01*
X143467000Y-103003151D01*
X143419847Y-102766097D01*
X143327353Y-102542798D01*
X143193073Y-102341833D01*
X143022167Y-102170927D01*
X142821202Y-102036647D01*
X142597903Y-101944153D01*
X142360849Y-101897000D01*
X142119151Y-101897000D01*
X141882097Y-101944153D01*
X141658798Y-102036647D01*
X141457833Y-102170927D01*
X141286927Y-102341833D01*
X141152647Y-102542798D01*
X141060153Y-102766097D01*
X141013000Y-103003151D01*
X127996985Y-103003151D01*
X127812254Y-102879718D01*
X127561656Y-102775917D01*
X127295623Y-102723000D01*
X127024377Y-102723000D01*
X126758344Y-102775917D01*
X126507746Y-102879718D01*
X126282213Y-103030414D01*
X126090414Y-103222213D01*
X125939718Y-103447746D01*
X125835917Y-103698344D01*
X125783000Y-103964377D01*
X124912000Y-103964377D01*
X124912000Y-101464377D01*
X135333000Y-101464377D01*
X135333000Y-101735623D01*
X135385917Y-102001656D01*
X135489718Y-102252254D01*
X135640414Y-102477787D01*
X135832213Y-102669586D01*
X136057746Y-102820282D01*
X136308344Y-102924083D01*
X136574377Y-102977000D01*
X136845623Y-102977000D01*
X137111656Y-102924083D01*
X137362254Y-102820282D01*
X137587787Y-102669586D01*
X137779586Y-102477787D01*
X137930282Y-102252254D01*
X138034083Y-102001656D01*
X138087000Y-101735623D01*
X138087000Y-101464377D01*
X138034083Y-101198344D01*
X137930282Y-100947746D01*
X137779586Y-100722213D01*
X137587787Y-100530414D01*
X137362254Y-100379718D01*
X137111656Y-100275917D01*
X136845623Y-100223000D01*
X136574377Y-100223000D01*
X136308344Y-100275917D01*
X136057746Y-100379718D01*
X135832213Y-100530414D01*
X135640414Y-100722213D01*
X135489718Y-100947746D01*
X135385917Y-101198344D01*
X135333000Y-101464377D01*
X124912000Y-101464377D01*
X124912000Y-98964377D01*
X125783000Y-98964377D01*
X125783000Y-99235623D01*
X125835917Y-99501656D01*
X125939718Y-99752254D01*
X126090414Y-99977787D01*
X126282213Y-100169586D01*
X126507746Y-100320282D01*
X126758344Y-100424083D01*
X127024377Y-100477000D01*
X127295623Y-100477000D01*
X127561656Y-100424083D01*
X127812254Y-100320282D01*
X128037787Y-100169586D01*
X128229586Y-99977787D01*
X128244710Y-99955151D01*
X141013000Y-99955151D01*
X141013000Y-100196849D01*
X141060153Y-100433903D01*
X141152647Y-100657202D01*
X141286927Y-100858167D01*
X141457833Y-101029073D01*
X141658798Y-101163353D01*
X141882097Y-101255847D01*
X142119151Y-101303000D01*
X142360849Y-101303000D01*
X142597903Y-101255847D01*
X142821202Y-101163353D01*
X143022167Y-101029073D01*
X143193073Y-100858167D01*
X143327353Y-100657202D01*
X143419847Y-100433903D01*
X143467000Y-100196849D01*
X143467000Y-99955151D01*
X143419847Y-99718097D01*
X143327353Y-99494798D01*
X143193073Y-99293833D01*
X143175240Y-99276000D01*
X148630934Y-99276000D01*
X148630934Y-100876000D01*
X148639178Y-100959707D01*
X148663595Y-101040196D01*
X148703245Y-101114376D01*
X148756605Y-101179395D01*
X148821624Y-101232755D01*
X148895804Y-101272405D01*
X148976293Y-101296822D01*
X149060000Y-101305066D01*
X150660000Y-101305066D01*
X150743707Y-101296822D01*
X150790252Y-101282702D01*
X153364903Y-101282702D01*
X153436486Y-101526671D01*
X153691996Y-101647571D01*
X153966184Y-101716300D01*
X154248512Y-101730217D01*
X154528130Y-101688787D01*
X154794292Y-101593603D01*
X154919514Y-101526671D01*
X154991097Y-101282702D01*
X154178000Y-100469605D01*
X153364903Y-101282702D01*
X150790252Y-101282702D01*
X150824196Y-101272405D01*
X150898376Y-101232755D01*
X150963395Y-101179395D01*
X151016755Y-101114376D01*
X151056405Y-101040196D01*
X151080822Y-100959707D01*
X151089066Y-100876000D01*
X151089066Y-100360512D01*
X152737783Y-100360512D01*
X152779213Y-100640130D01*
X152874397Y-100906292D01*
X152941329Y-101031514D01*
X153185298Y-101103097D01*
X153998395Y-100290000D01*
X154357605Y-100290000D01*
X155170702Y-101103097D01*
X155414671Y-101031514D01*
X155535571Y-100776004D01*
X155604300Y-100501816D01*
X155618217Y-100219488D01*
X155576787Y-99939870D01*
X155481603Y-99673708D01*
X155414671Y-99548486D01*
X155170702Y-99476903D01*
X154357605Y-100290000D01*
X153998395Y-100290000D01*
X153185298Y-99476903D01*
X152941329Y-99548486D01*
X152820429Y-99803996D01*
X152751700Y-100078184D01*
X152737783Y-100360512D01*
X151089066Y-100360512D01*
X151089066Y-99276000D01*
X151080822Y-99192293D01*
X151056405Y-99111804D01*
X151016755Y-99037624D01*
X150963395Y-98972605D01*
X150898376Y-98919245D01*
X150824196Y-98879595D01*
X150743707Y-98855178D01*
X150660000Y-98846934D01*
X149060000Y-98846934D01*
X148976293Y-98855178D01*
X148895804Y-98879595D01*
X148821624Y-98919245D01*
X148756605Y-98972605D01*
X148703245Y-99037624D01*
X148663595Y-99111804D01*
X148639178Y-99192293D01*
X148630934Y-99276000D01*
X143175240Y-99276000D01*
X143022167Y-99122927D01*
X142821202Y-98988647D01*
X142597903Y-98896153D01*
X142360849Y-98849000D01*
X142119151Y-98849000D01*
X141882097Y-98896153D01*
X141658798Y-98988647D01*
X141457833Y-99122927D01*
X141286927Y-99293833D01*
X141152647Y-99494798D01*
X141060153Y-99718097D01*
X141013000Y-99955151D01*
X128244710Y-99955151D01*
X128380282Y-99752254D01*
X128484083Y-99501656D01*
X128537000Y-99235623D01*
X128537000Y-98964377D01*
X128484083Y-98698344D01*
X128380282Y-98447746D01*
X128229586Y-98222213D01*
X128037787Y-98030414D01*
X127812254Y-97879718D01*
X127561656Y-97775917D01*
X127295623Y-97723000D01*
X127024377Y-97723000D01*
X126758344Y-97775917D01*
X126507746Y-97879718D01*
X126282213Y-98030414D01*
X126090414Y-98222213D01*
X125939718Y-98447746D01*
X125835917Y-98698344D01*
X125783000Y-98964377D01*
X124912000Y-98964377D01*
X124912000Y-96464377D01*
X137783000Y-96464377D01*
X137783000Y-96735623D01*
X137835917Y-97001656D01*
X137939718Y-97252254D01*
X138090414Y-97477787D01*
X138282213Y-97669586D01*
X138507746Y-97820282D01*
X138758344Y-97924083D01*
X139024377Y-97977000D01*
X139295623Y-97977000D01*
X139561656Y-97924083D01*
X139812254Y-97820282D01*
X140037787Y-97669586D01*
X140229586Y-97477787D01*
X140380282Y-97252254D01*
X140484083Y-97001656D01*
X140502881Y-96907151D01*
X141013000Y-96907151D01*
X141013000Y-97148849D01*
X141060153Y-97385903D01*
X141152647Y-97609202D01*
X141286927Y-97810167D01*
X141457833Y-97981073D01*
X141658798Y-98115353D01*
X141882097Y-98207847D01*
X142119151Y-98255000D01*
X142360849Y-98255000D01*
X142597903Y-98207847D01*
X142821202Y-98115353D01*
X143022167Y-97981073D01*
X143193073Y-97810167D01*
X143327353Y-97609202D01*
X143419847Y-97385903D01*
X143467000Y-97148849D01*
X143467000Y-96907151D01*
X148633000Y-96907151D01*
X148633000Y-97148849D01*
X148680153Y-97385903D01*
X148772647Y-97609202D01*
X148906927Y-97810167D01*
X149077833Y-97981073D01*
X149278798Y-98115353D01*
X149502097Y-98207847D01*
X149739151Y-98255000D01*
X149980849Y-98255000D01*
X150217903Y-98207847D01*
X150441202Y-98115353D01*
X150642167Y-97981073D01*
X150813073Y-97810167D01*
X150947353Y-97609202D01*
X151039847Y-97385903D01*
X151087000Y-97148849D01*
X151087000Y-96990000D01*
X152948934Y-96990000D01*
X152948934Y-98590000D01*
X152957178Y-98673707D01*
X152981595Y-98754196D01*
X153021245Y-98828376D01*
X153074605Y-98893395D01*
X153139624Y-98946755D01*
X153213804Y-98986405D01*
X153294293Y-99010822D01*
X153378000Y-99019066D01*
X153500588Y-99019066D01*
X153436486Y-99053329D01*
X153364903Y-99297298D01*
X154178000Y-100110395D01*
X154991097Y-99297298D01*
X154919514Y-99053329D01*
X154847103Y-99019066D01*
X154978000Y-99019066D01*
X155061707Y-99010822D01*
X155142196Y-98986405D01*
X155216376Y-98946755D01*
X155281395Y-98893395D01*
X155334755Y-98828376D01*
X155374405Y-98754196D01*
X155398822Y-98673707D01*
X155407066Y-98590000D01*
X155407066Y-96990000D01*
X155398822Y-96906293D01*
X155374405Y-96825804D01*
X155334755Y-96751624D01*
X155281395Y-96686605D01*
X155216376Y-96633245D01*
X155142196Y-96593595D01*
X155061707Y-96569178D01*
X154978000Y-96560934D01*
X153378000Y-96560934D01*
X153294293Y-96569178D01*
X153213804Y-96593595D01*
X153139624Y-96633245D01*
X153074605Y-96686605D01*
X153021245Y-96751624D01*
X152981595Y-96825804D01*
X152957178Y-96906293D01*
X152948934Y-96990000D01*
X151087000Y-96990000D01*
X151087000Y-96907151D01*
X151039847Y-96670097D01*
X150947353Y-96446798D01*
X150813073Y-96245833D01*
X150642167Y-96074927D01*
X150441202Y-95940647D01*
X150217903Y-95848153D01*
X149980849Y-95801000D01*
X149739151Y-95801000D01*
X149502097Y-95848153D01*
X149278798Y-95940647D01*
X149077833Y-96074927D01*
X148906927Y-96245833D01*
X148772647Y-96446798D01*
X148680153Y-96670097D01*
X148633000Y-96907151D01*
X143467000Y-96907151D01*
X143419847Y-96670097D01*
X143327353Y-96446798D01*
X143193073Y-96245833D01*
X143022167Y-96074927D01*
X142821202Y-95940647D01*
X142597903Y-95848153D01*
X142360849Y-95801000D01*
X142119151Y-95801000D01*
X141882097Y-95848153D01*
X141658798Y-95940647D01*
X141457833Y-96074927D01*
X141286927Y-96245833D01*
X141152647Y-96446798D01*
X141060153Y-96670097D01*
X141013000Y-96907151D01*
X140502881Y-96907151D01*
X140537000Y-96735623D01*
X140537000Y-96464377D01*
X140484083Y-96198344D01*
X140380282Y-95947746D01*
X140229586Y-95722213D01*
X140037787Y-95530414D01*
X139812254Y-95379718D01*
X139561656Y-95275917D01*
X139295623Y-95223000D01*
X139024377Y-95223000D01*
X138758344Y-95275917D01*
X138507746Y-95379718D01*
X138282213Y-95530414D01*
X138090414Y-95722213D01*
X137939718Y-95947746D01*
X137835917Y-96198344D01*
X137783000Y-96464377D01*
X124912000Y-96464377D01*
X124912000Y-93939755D01*
X130533000Y-93939755D01*
X130533000Y-94260245D01*
X130595525Y-94574578D01*
X130718172Y-94870673D01*
X130896227Y-95137152D01*
X131122848Y-95363773D01*
X131389327Y-95541828D01*
X131685422Y-95664475D01*
X131999755Y-95727000D01*
X132320245Y-95727000D01*
X132634578Y-95664475D01*
X132930673Y-95541828D01*
X133197152Y-95363773D01*
X133423773Y-95137152D01*
X133601828Y-94870673D01*
X133724475Y-94574578D01*
X133787000Y-94260245D01*
X133787000Y-93964377D01*
X135283000Y-93964377D01*
X135283000Y-94235623D01*
X135335917Y-94501656D01*
X135439718Y-94752254D01*
X135590414Y-94977787D01*
X135782213Y-95169586D01*
X136007746Y-95320282D01*
X136258344Y-95424083D01*
X136524377Y-95477000D01*
X136795623Y-95477000D01*
X137061656Y-95424083D01*
X137312254Y-95320282D01*
X137537787Y-95169586D01*
X137729586Y-94977787D01*
X137880282Y-94752254D01*
X137984083Y-94501656D01*
X138037000Y-94235623D01*
X138037000Y-93964377D01*
X137984083Y-93698344D01*
X137880282Y-93447746D01*
X137729586Y-93222213D01*
X137537787Y-93030414D01*
X137312254Y-92879718D01*
X137061656Y-92775917D01*
X136795623Y-92723000D01*
X136524377Y-92723000D01*
X136258344Y-92775917D01*
X136007746Y-92879718D01*
X135782213Y-93030414D01*
X135590414Y-93222213D01*
X135439718Y-93447746D01*
X135335917Y-93698344D01*
X135283000Y-93964377D01*
X133787000Y-93964377D01*
X133787000Y-93939755D01*
X133724475Y-93625422D01*
X133601828Y-93329327D01*
X133423773Y-93062848D01*
X133197152Y-92836227D01*
X132930673Y-92658172D01*
X132634578Y-92535525D01*
X132320245Y-92473000D01*
X131999755Y-92473000D01*
X131685422Y-92535525D01*
X131389327Y-92658172D01*
X131122848Y-92836227D01*
X130896227Y-93062848D01*
X130718172Y-93329327D01*
X130595525Y-93625422D01*
X130533000Y-93939755D01*
X124912000Y-93939755D01*
X124912000Y-91796891D01*
X140798519Y-91796891D01*
X140895843Y-92071252D01*
X141044822Y-92321355D01*
X141239731Y-92537588D01*
X141473080Y-92711641D01*
X141735901Y-92836825D01*
X141769188Y-92846922D01*
X141658798Y-92892647D01*
X141457833Y-93026927D01*
X141286927Y-93197833D01*
X141152647Y-93398798D01*
X141060153Y-93622097D01*
X141013000Y-93859151D01*
X141013000Y-94100849D01*
X141060153Y-94337903D01*
X141152647Y-94561202D01*
X141286927Y-94762167D01*
X141457833Y-94933073D01*
X141658798Y-95067353D01*
X141882097Y-95159847D01*
X142119151Y-95207000D01*
X142360849Y-95207000D01*
X142597903Y-95159847D01*
X142821202Y-95067353D01*
X142962857Y-94972702D01*
X143926903Y-94972702D01*
X143998486Y-95216671D01*
X144253996Y-95337571D01*
X144528184Y-95406300D01*
X144810512Y-95420217D01*
X145090130Y-95378787D01*
X145356292Y-95283603D01*
X145481514Y-95216671D01*
X145550955Y-94980000D01*
X147507428Y-94980000D01*
X147519688Y-95104482D01*
X147555998Y-95224180D01*
X147614963Y-95334494D01*
X147694315Y-95431185D01*
X147791006Y-95510537D01*
X147901320Y-95569502D01*
X148021018Y-95605812D01*
X148145500Y-95618072D01*
X148812250Y-95615000D01*
X148971000Y-95456250D01*
X148971000Y-94107000D01*
X147669250Y-94107000D01*
X147510500Y-94265750D01*
X147507428Y-94980000D01*
X145550955Y-94980000D01*
X145553097Y-94972702D01*
X144740000Y-94159605D01*
X143926903Y-94972702D01*
X142962857Y-94972702D01*
X143022167Y-94933073D01*
X143193073Y-94762167D01*
X143327353Y-94561202D01*
X143379139Y-94436181D01*
X143436397Y-94596292D01*
X143503329Y-94721514D01*
X143747298Y-94793097D01*
X144560395Y-93980000D01*
X144919605Y-93980000D01*
X145732702Y-94793097D01*
X145976671Y-94721514D01*
X146097571Y-94466004D01*
X146166300Y-94191816D01*
X146180217Y-93909488D01*
X146138787Y-93629870D01*
X146043603Y-93363708D01*
X145976671Y-93238486D01*
X145732702Y-93166903D01*
X144919605Y-93980000D01*
X144560395Y-93980000D01*
X143747298Y-93166903D01*
X143503329Y-93238486D01*
X143382429Y-93493996D01*
X143376531Y-93517524D01*
X143327353Y-93398798D01*
X143193073Y-93197833D01*
X143022167Y-93026927D01*
X142821202Y-92892647D01*
X142710812Y-92846922D01*
X142744099Y-92836825D01*
X143006920Y-92711641D01*
X143240269Y-92537588D01*
X143435178Y-92321355D01*
X143510000Y-92195745D01*
X143584822Y-92321355D01*
X143779731Y-92537588D01*
X144013080Y-92711641D01*
X144036712Y-92722897D01*
X143998486Y-92743329D01*
X143926903Y-92987298D01*
X144740000Y-93800395D01*
X145553097Y-92987298D01*
X145481514Y-92743329D01*
X145480951Y-92743063D01*
X145546920Y-92711641D01*
X145780269Y-92537588D01*
X145975178Y-92321355D01*
X146050000Y-92195745D01*
X146124822Y-92321355D01*
X146319731Y-92537588D01*
X146553080Y-92711641D01*
X146815901Y-92836825D01*
X146963110Y-92881476D01*
X147193000Y-92760155D01*
X147193000Y-91567000D01*
X147447000Y-91567000D01*
X147447000Y-92760155D01*
X147534594Y-92806381D01*
X147519688Y-92855518D01*
X147507428Y-92980000D01*
X147510500Y-93694250D01*
X147669250Y-93853000D01*
X148971000Y-93853000D01*
X148971000Y-93833000D01*
X149225000Y-93833000D01*
X149225000Y-93853000D01*
X149245000Y-93853000D01*
X149245000Y-94107000D01*
X149225000Y-94107000D01*
X149225000Y-95456250D01*
X149383750Y-95615000D01*
X150050500Y-95618072D01*
X150174982Y-95605812D01*
X150294680Y-95569502D01*
X150404994Y-95510537D01*
X150501685Y-95431185D01*
X150581037Y-95334494D01*
X150640002Y-95224180D01*
X150676312Y-95104482D01*
X150683751Y-95028948D01*
X150867884Y-95180062D01*
X151107535Y-95308158D01*
X151367572Y-95387039D01*
X151638000Y-95413674D01*
X151908429Y-95387039D01*
X152168466Y-95308158D01*
X152408117Y-95180062D01*
X152618173Y-95007673D01*
X152790562Y-94797616D01*
X152908000Y-94577905D01*
X153025438Y-94797617D01*
X153197828Y-95007673D01*
X153407884Y-95180062D01*
X153647535Y-95308158D01*
X153907572Y-95387039D01*
X154178000Y-95413674D01*
X154448429Y-95387039D01*
X154708466Y-95308158D01*
X154948117Y-95180062D01*
X155158173Y-95007673D01*
X155330562Y-94797616D01*
X155458658Y-94557965D01*
X155537539Y-94297928D01*
X155557500Y-94095261D01*
X155557500Y-93864738D01*
X155537539Y-93662071D01*
X155458658Y-93402034D01*
X155330562Y-93162383D01*
X155158172Y-92952327D01*
X154948116Y-92779938D01*
X154708465Y-92651842D01*
X154448428Y-92572961D01*
X154178000Y-92546326D01*
X153907571Y-92572961D01*
X153647534Y-92651842D01*
X153407883Y-92779938D01*
X153197827Y-92952328D01*
X153025438Y-93162384D01*
X152908000Y-93382095D01*
X152790562Y-93162383D01*
X152618172Y-92952327D01*
X152527002Y-92877505D01*
X152527002Y-92760156D01*
X152756890Y-92881476D01*
X152904099Y-92836825D01*
X153166920Y-92711641D01*
X153400269Y-92537588D01*
X153595178Y-92321355D01*
X153744157Y-92071252D01*
X153841481Y-91796891D01*
X153720814Y-91567000D01*
X152527000Y-91567000D01*
X152527000Y-91587000D01*
X152273000Y-91587000D01*
X152273000Y-91567000D01*
X149987000Y-91567000D01*
X149987000Y-91587000D01*
X149733000Y-91587000D01*
X149733000Y-91567000D01*
X147447000Y-91567000D01*
X147193000Y-91567000D01*
X144907000Y-91567000D01*
X144907000Y-91587000D01*
X144653000Y-91587000D01*
X144653000Y-91567000D01*
X142367000Y-91567000D01*
X142367000Y-91587000D01*
X142113000Y-91587000D01*
X142113000Y-91567000D01*
X140919186Y-91567000D01*
X140798519Y-91796891D01*
X124912000Y-91796891D01*
X124912000Y-91083109D01*
X140798519Y-91083109D01*
X140919186Y-91313000D01*
X142113000Y-91313000D01*
X142113000Y-91293000D01*
X142367000Y-91293000D01*
X142367000Y-91313000D01*
X144653000Y-91313000D01*
X144653000Y-91293000D01*
X144907000Y-91293000D01*
X144907000Y-91313000D01*
X147193000Y-91313000D01*
X147193000Y-91293000D01*
X147447000Y-91293000D01*
X147447000Y-91313000D01*
X149733000Y-91313000D01*
X149733000Y-91293000D01*
X149987000Y-91293000D01*
X149987000Y-91313000D01*
X152273000Y-91313000D01*
X152273000Y-91293000D01*
X152527000Y-91293000D01*
X152527000Y-91313000D01*
X153720814Y-91313000D01*
X153841481Y-91083109D01*
X153744157Y-90808748D01*
X153595178Y-90558645D01*
X153400269Y-90342412D01*
X153166920Y-90168359D01*
X152938051Y-90059347D01*
X153004886Y-90031663D01*
X153214040Y-89891911D01*
X153391911Y-89714040D01*
X153531663Y-89504886D01*
X153627926Y-89272487D01*
X153677000Y-89025774D01*
X153677000Y-88774226D01*
X153627926Y-88527513D01*
X153531663Y-88295114D01*
X153391911Y-88085960D01*
X153214040Y-87908089D01*
X153004886Y-87768337D01*
X152772487Y-87672074D01*
X152525774Y-87623000D01*
X152274226Y-87623000D01*
X152027513Y-87672074D01*
X151795114Y-87768337D01*
X151585960Y-87908089D01*
X151408089Y-88085960D01*
X151268337Y-88295114D01*
X151172074Y-88527513D01*
X151130000Y-88739034D01*
X151087926Y-88527513D01*
X150991663Y-88295114D01*
X150851911Y-88085960D01*
X150674040Y-87908089D01*
X150464886Y-87768337D01*
X150232487Y-87672074D01*
X149985774Y-87623000D01*
X149734226Y-87623000D01*
X149487513Y-87672074D01*
X149255114Y-87768337D01*
X149045960Y-87908089D01*
X148868089Y-88085960D01*
X148728337Y-88295114D01*
X148632074Y-88527513D01*
X148590000Y-88739034D01*
X148547926Y-88527513D01*
X148451663Y-88295114D01*
X148311911Y-88085960D01*
X148134040Y-87908089D01*
X147924886Y-87768337D01*
X147692487Y-87672074D01*
X147445774Y-87623000D01*
X147194226Y-87623000D01*
X146947513Y-87672074D01*
X146715114Y-87768337D01*
X146505960Y-87908089D01*
X146328089Y-88085960D01*
X146188337Y-88295114D01*
X146092074Y-88527513D01*
X146050000Y-88739034D01*
X146007926Y-88527513D01*
X145911663Y-88295114D01*
X145771911Y-88085960D01*
X145594040Y-87908089D01*
X145384886Y-87768337D01*
X145152487Y-87672074D01*
X144905774Y-87623000D01*
X144654226Y-87623000D01*
X144407513Y-87672074D01*
X144175114Y-87768337D01*
X143965960Y-87908089D01*
X143788089Y-88085960D01*
X143648337Y-88295114D01*
X143552074Y-88527513D01*
X143519066Y-88693456D01*
X143519066Y-88050000D01*
X143510822Y-87966293D01*
X143486405Y-87885804D01*
X143446755Y-87811624D01*
X143393395Y-87746605D01*
X143328376Y-87693245D01*
X143254196Y-87653595D01*
X143173707Y-87629178D01*
X143090000Y-87620934D01*
X141390000Y-87620934D01*
X141306293Y-87629178D01*
X141225804Y-87653595D01*
X141151624Y-87693245D01*
X141086605Y-87746605D01*
X141033245Y-87811624D01*
X140993595Y-87885804D01*
X140969178Y-87966293D01*
X140960934Y-88050000D01*
X140960934Y-89750000D01*
X140969178Y-89833707D01*
X140993595Y-89914196D01*
X141033245Y-89988376D01*
X141086605Y-90053395D01*
X141151624Y-90106755D01*
X141225804Y-90146405D01*
X141306293Y-90170822D01*
X141390000Y-90179066D01*
X141458725Y-90179066D01*
X141239731Y-90342412D01*
X141044822Y-90558645D01*
X140895843Y-90808748D01*
X140798519Y-91083109D01*
X124912000Y-91083109D01*
X124912000Y-88922108D01*
X124941798Y-88618197D01*
X125023639Y-88347131D01*
X125156571Y-88097122D01*
X125335531Y-87877695D01*
X125553707Y-87697204D01*
X125802780Y-87562531D01*
X126073271Y-87478800D01*
X126375828Y-87447000D01*
X155044892Y-87447000D01*
X155348803Y-87476798D01*
G37*
X155348803Y-87476798D02*
X155619869Y-87558639D01*
X155869878Y-87691571D01*
X156089305Y-87870531D01*
X156269796Y-88088707D01*
X156404469Y-88337780D01*
X156488200Y-88608271D01*
X156520001Y-88910838D01*
X156520000Y-121224189D01*
X156457603Y-121049708D01*
X156390671Y-120924486D01*
X156146702Y-120852903D01*
X155333605Y-121666000D01*
X156146702Y-122479097D01*
X156390671Y-122407514D01*
X156511571Y-122152004D01*
X156520000Y-122118376D01*
X156520000Y-123601821D01*
X156401073Y-123423833D01*
X156230167Y-123252927D01*
X156029202Y-123118647D01*
X155805903Y-123026153D01*
X155681408Y-123001389D01*
X155770292Y-122969603D01*
X155895514Y-122902671D01*
X155967097Y-122658702D01*
X155154000Y-121845605D01*
X154340903Y-122658702D01*
X154412486Y-122902671D01*
X154667996Y-123023571D01*
X154934846Y-123090461D01*
X154866798Y-123118647D01*
X154665833Y-123252927D01*
X154494927Y-123423833D01*
X154360647Y-123624798D01*
X154268153Y-123848097D01*
X154221000Y-124085151D01*
X154221000Y-124326849D01*
X154268153Y-124563903D01*
X154360647Y-124787202D01*
X154494927Y-124988167D01*
X154665833Y-125159073D01*
X154866798Y-125293353D01*
X155090097Y-125385847D01*
X155327151Y-125433000D01*
X155568849Y-125433000D01*
X155805903Y-125385847D01*
X156029202Y-125293353D01*
X156230167Y-125159073D01*
X156401073Y-124988167D01*
X156520000Y-124810179D01*
X156520000Y-130696840D01*
X156486376Y-130669245D01*
X156412196Y-130629595D01*
X156331707Y-130605178D01*
X156248000Y-130596934D01*
X154648000Y-130596934D01*
X154564293Y-130605178D01*
X154483804Y-130629595D01*
X154409624Y-130669245D01*
X154344605Y-130722605D01*
X154291245Y-130787624D01*
X154251595Y-130861804D01*
X154227178Y-130942293D01*
X154218934Y-131026000D01*
X154218934Y-132626000D01*
X154227178Y-132709707D01*
X154251595Y-132790196D01*
X154291245Y-132864376D01*
X154344605Y-132929395D01*
X154409624Y-132982755D01*
X154483804Y-133022405D01*
X154564293Y-133046822D01*
X154648000Y-133055066D01*
X156248000Y-133055066D01*
X156331707Y-133046822D01*
X156412196Y-133022405D01*
X156486376Y-132982755D01*
X156520000Y-132955160D01*
X156520000Y-137137892D01*
X156490202Y-137441803D01*
X156408361Y-137712870D01*
X156275430Y-137962878D01*
X156096465Y-138182309D01*
X155878293Y-138362796D01*
X155629223Y-138497467D01*
X155358729Y-138581200D01*
X155056172Y-138613000D01*
X126387108Y-138613000D01*
X126083197Y-138583202D01*
X125812130Y-138501361D01*
X125562122Y-138368430D01*
X125342691Y-138189465D01*
X125162204Y-137971293D01*
X125027533Y-137722223D01*
X124943800Y-137451729D01*
X124912000Y-137149172D01*
X124912000Y-135470000D01*
X140751928Y-135470000D01*
X140764188Y-135594482D01*
X140800498Y-135714180D01*
X140859463Y-135824494D01*
X140938815Y-135921185D01*
X141035506Y-136000537D01*
X141145820Y-136059502D01*
X141265518Y-136095812D01*
X141390000Y-136108072D01*
X141516815Y-136107382D01*
X141425960Y-136168089D01*
X141248089Y-136345960D01*
X141108337Y-136555114D01*
X141012074Y-136787513D01*
X140963000Y-137034226D01*
X140963000Y-137285774D01*
X141012074Y-137532487D01*
X141108337Y-137764886D01*
X141248089Y-137974040D01*
X141425960Y-138151911D01*
X141635114Y-138291663D01*
X141867513Y-138387926D01*
X142114226Y-138437000D01*
X142365774Y-138437000D01*
X142612487Y-138387926D01*
X142844886Y-138291663D01*
X143054040Y-138151911D01*
X143231911Y-137974040D01*
X143371663Y-137764886D01*
X143467926Y-137532487D01*
X143510000Y-137320966D01*
X143552074Y-137532487D01*
X143648337Y-137764886D01*
X143788089Y-137974040D01*
X143965960Y-138151911D01*
X144175114Y-138291663D01*
X144407513Y-138387926D01*
X144654226Y-138437000D01*
X144905774Y-138437000D01*
X145152487Y-138387926D01*
X145384886Y-138291663D01*
X145594040Y-138151911D01*
X145771911Y-137974040D01*
X145911663Y-137764886D01*
X146007926Y-137532487D01*
X146050000Y-137320966D01*
X146092074Y-137532487D01*
X146188337Y-137764886D01*
X146328089Y-137974040D01*
X146505960Y-138151911D01*
X146715114Y-138291663D01*
X146947513Y-138387926D01*
X147194226Y-138437000D01*
X147445774Y-138437000D01*
X147692487Y-138387926D01*
X147924886Y-138291663D01*
X148134040Y-138151911D01*
X148311911Y-137974040D01*
X148451663Y-137764886D01*
X148547926Y-137532487D01*
X148590000Y-137320966D01*
X148632074Y-137532487D01*
X148728337Y-137764886D01*
X148868089Y-137974040D01*
X149045960Y-138151911D01*
X149255114Y-138291663D01*
X149487513Y-138387926D01*
X149734226Y-138437000D01*
X149985774Y-138437000D01*
X150232487Y-138387926D01*
X150464886Y-138291663D01*
X150674040Y-138151911D01*
X150851911Y-137974040D01*
X150991663Y-137764886D01*
X151087926Y-137532487D01*
X151130000Y-137320966D01*
X151172074Y-137532487D01*
X151268337Y-137764886D01*
X151408089Y-137974040D01*
X151585960Y-138151911D01*
X151795114Y-138291663D01*
X152027513Y-138387926D01*
X152274226Y-138437000D01*
X152525774Y-138437000D01*
X152772487Y-138387926D01*
X153004886Y-138291663D01*
X153214040Y-138151911D01*
X153391911Y-137974040D01*
X153531663Y-137764886D01*
X153627926Y-137532487D01*
X153677000Y-137285774D01*
X153677000Y-137034226D01*
X153627926Y-136787513D01*
X153531663Y-136555114D01*
X153391911Y-136345960D01*
X153214040Y-136168089D01*
X153004886Y-136028337D01*
X152938051Y-136000653D01*
X153166920Y-135891641D01*
X153400269Y-135717588D01*
X153595178Y-135501355D01*
X153744157Y-135251252D01*
X153841481Y-134976891D01*
X153720814Y-134747000D01*
X152527000Y-134747000D01*
X152527000Y-134767000D01*
X152273000Y-134767000D01*
X152273000Y-134747000D01*
X149987000Y-134747000D01*
X149987000Y-134767000D01*
X149733000Y-134767000D01*
X149733000Y-134747000D01*
X147447000Y-134747000D01*
X147447000Y-134767000D01*
X147193000Y-134767000D01*
X147193000Y-134747000D01*
X144907000Y-134747000D01*
X144907000Y-134767000D01*
X144653000Y-134767000D01*
X144653000Y-134747000D01*
X142367000Y-134747000D01*
X142367000Y-134767000D01*
X142113000Y-134767000D01*
X142113000Y-134747000D01*
X140913750Y-134747000D01*
X140755000Y-134905750D01*
X140751928Y-135470000D01*
X124912000Y-135470000D01*
X124912000Y-133770000D01*
X140751928Y-133770000D01*
X140755000Y-134334250D01*
X140913750Y-134493000D01*
X142113000Y-134493000D01*
X142113000Y-133293750D01*
X142367000Y-133293750D01*
X142367000Y-134493000D01*
X144653000Y-134493000D01*
X144653000Y-133299845D01*
X144907000Y-133299845D01*
X144907000Y-134493000D01*
X147193000Y-134493000D01*
X147193000Y-133299845D01*
X147447000Y-133299845D01*
X147447000Y-134493000D01*
X149733000Y-134493000D01*
X149733000Y-133299845D01*
X149987000Y-133299845D01*
X149987000Y-134493000D01*
X152273000Y-134493000D01*
X152273000Y-133299845D01*
X152527000Y-133299845D01*
X152527000Y-134493000D01*
X153720814Y-134493000D01*
X153841481Y-134263109D01*
X153744157Y-133988748D01*
X153595178Y-133738645D01*
X153400269Y-133522412D01*
X153166920Y-133348359D01*
X152904099Y-133223175D01*
X152756890Y-133178524D01*
X152527000Y-133299845D01*
X152273000Y-133299845D01*
X152043110Y-133178524D01*
X151895901Y-133223175D01*
X151633080Y-133348359D01*
X151399731Y-133522412D01*
X151204822Y-133738645D01*
X151130000Y-133864255D01*
X151055178Y-133738645D01*
X150860269Y-133522412D01*
X150626920Y-133348359D01*
X150364099Y-133223175D01*
X150216890Y-133178524D01*
X149987000Y-133299845D01*
X149733000Y-133299845D01*
X149503110Y-133178524D01*
X149355901Y-133223175D01*
X149093080Y-133348359D01*
X148859731Y-133522412D01*
X148664822Y-133738645D01*
X148590000Y-133864255D01*
X148515178Y-133738645D01*
X148320269Y-133522412D01*
X148086920Y-133348359D01*
X147824099Y-133223175D01*
X147676890Y-133178524D01*
X147447000Y-133299845D01*
X147193000Y-133299845D01*
X146963110Y-133178524D01*
X146815901Y-133223175D01*
X146553080Y-133348359D01*
X146319731Y-133522412D01*
X146124822Y-133738645D01*
X146050000Y-133864255D01*
X145975178Y-133738645D01*
X145780269Y-133522412D01*
X145546920Y-133348359D01*
X145284099Y-133223175D01*
X145136890Y-133178524D01*
X144907000Y-133299845D01*
X144653000Y-133299845D01*
X144423110Y-133178524D01*
X144275901Y-133223175D01*
X144013080Y-133348359D01*
X143779731Y-133522412D01*
X143703966Y-133606466D01*
X143679502Y-133525820D01*
X143620537Y-133415506D01*
X143541185Y-133318815D01*
X143444494Y-133239463D01*
X143334180Y-133180498D01*
X143214482Y-133144188D01*
X143090000Y-133131928D01*
X142525750Y-133135000D01*
X142367000Y-133293750D01*
X142113000Y-133293750D01*
X141954250Y-133135000D01*
X141390000Y-133131928D01*
X141265518Y-133144188D01*
X141145820Y-133180498D01*
X141035506Y-133239463D01*
X140938815Y-133318815D01*
X140859463Y-133415506D01*
X140800498Y-133525820D01*
X140764188Y-133645518D01*
X140751928Y-133770000D01*
X124912000Y-133770000D01*
X124912000Y-131799755D01*
X130533000Y-131799755D01*
X130533000Y-132120245D01*
X130595525Y-132434578D01*
X130718172Y-132730673D01*
X130896227Y-132997152D01*
X131122848Y-133223773D01*
X131389327Y-133401828D01*
X131685422Y-133524475D01*
X131999755Y-133587000D01*
X132320245Y-133587000D01*
X132634578Y-133524475D01*
X132930673Y-133401828D01*
X133197152Y-133223773D01*
X133423773Y-132997152D01*
X133601828Y-132730673D01*
X133724475Y-132434578D01*
X133787000Y-132120245D01*
X133787000Y-131824377D01*
X135333000Y-131824377D01*
X135333000Y-132095623D01*
X135385917Y-132361656D01*
X135489718Y-132612254D01*
X135640414Y-132837787D01*
X135832213Y-133029586D01*
X136057746Y-133180282D01*
X136308344Y-133284083D01*
X136574377Y-133337000D01*
X136845623Y-133337000D01*
X137111656Y-133284083D01*
X137362254Y-133180282D01*
X137587787Y-133029586D01*
X137779586Y-132837787D01*
X137930282Y-132612254D01*
X138034083Y-132361656D01*
X138087000Y-132095623D01*
X138087000Y-131824377D01*
X138063285Y-131705151D01*
X141013000Y-131705151D01*
X141013000Y-131946849D01*
X141060153Y-132183903D01*
X141152647Y-132407202D01*
X141286927Y-132608167D01*
X141457833Y-132779073D01*
X141658798Y-132913353D01*
X141882097Y-133005847D01*
X142119151Y-133053000D01*
X142360849Y-133053000D01*
X142597903Y-133005847D01*
X142821202Y-132913353D01*
X143022167Y-132779073D01*
X143193073Y-132608167D01*
X143327353Y-132407202D01*
X143419847Y-132183903D01*
X143467000Y-131946849D01*
X143467000Y-131705151D01*
X143419847Y-131468097D01*
X143327353Y-131244798D01*
X143193073Y-131043833D01*
X143022167Y-130872927D01*
X142821202Y-130738647D01*
X142597903Y-130646153D01*
X142360849Y-130599000D01*
X142119151Y-130599000D01*
X141882097Y-130646153D01*
X141658798Y-130738647D01*
X141457833Y-130872927D01*
X141286927Y-131043833D01*
X141152647Y-131244798D01*
X141060153Y-131468097D01*
X141013000Y-131705151D01*
X138063285Y-131705151D01*
X138034083Y-131558344D01*
X137930282Y-131307746D01*
X137779586Y-131082213D01*
X137587787Y-130890414D01*
X137362254Y-130739718D01*
X137111656Y-130635917D01*
X136845623Y-130583000D01*
X136574377Y-130583000D01*
X136308344Y-130635917D01*
X136057746Y-130739718D01*
X135832213Y-130890414D01*
X135640414Y-131082213D01*
X135489718Y-131307746D01*
X135385917Y-131558344D01*
X135333000Y-131824377D01*
X133787000Y-131824377D01*
X133787000Y-131799755D01*
X133724475Y-131485422D01*
X133601828Y-131189327D01*
X133423773Y-130922848D01*
X133197152Y-130696227D01*
X132930673Y-130518172D01*
X132634578Y-130395525D01*
X132320245Y-130333000D01*
X131999755Y-130333000D01*
X131685422Y-130395525D01*
X131389327Y-130518172D01*
X131122848Y-130696227D01*
X130896227Y-130922848D01*
X130718172Y-131189327D01*
X130595525Y-131485422D01*
X130533000Y-131799755D01*
X124912000Y-131799755D01*
X124912000Y-129324377D01*
X137783000Y-129324377D01*
X137783000Y-129595623D01*
X137835917Y-129861656D01*
X137939718Y-130112254D01*
X138090414Y-130337787D01*
X138282213Y-130529586D01*
X138507746Y-130680282D01*
X138758344Y-130784083D01*
X139024377Y-130837000D01*
X139295623Y-130837000D01*
X139561656Y-130784083D01*
X139812254Y-130680282D01*
X140037787Y-130529586D01*
X140229586Y-130337787D01*
X140380282Y-130112254D01*
X140484083Y-129861656D01*
X140537000Y-129595623D01*
X140537000Y-129324377D01*
X140484083Y-129058344D01*
X140380282Y-128807746D01*
X140279658Y-128657151D01*
X141013000Y-128657151D01*
X141013000Y-128898849D01*
X141060153Y-129135903D01*
X141152647Y-129359202D01*
X141286927Y-129560167D01*
X141457833Y-129731073D01*
X141658798Y-129865353D01*
X141882097Y-129957847D01*
X142119151Y-130005000D01*
X142360849Y-130005000D01*
X142597903Y-129957847D01*
X142821202Y-129865353D01*
X143022167Y-129731073D01*
X143193073Y-129560167D01*
X143327353Y-129359202D01*
X143419847Y-129135903D01*
X143467000Y-128898849D01*
X143467000Y-128657151D01*
X148633000Y-128657151D01*
X148633000Y-128898849D01*
X148680153Y-129135903D01*
X148772647Y-129359202D01*
X148906927Y-129560167D01*
X149077833Y-129731073D01*
X149278798Y-129865353D01*
X149502097Y-129957847D01*
X149739151Y-130005000D01*
X149980849Y-130005000D01*
X150217903Y-129957847D01*
X150441202Y-129865353D01*
X150642167Y-129731073D01*
X150813073Y-129560167D01*
X150947353Y-129359202D01*
X151039847Y-129135903D01*
X151087000Y-128898849D01*
X151087000Y-128657151D01*
X151039847Y-128420097D01*
X150947353Y-128196798D01*
X150813073Y-127995833D01*
X150642167Y-127824927D01*
X150441202Y-127690647D01*
X150217903Y-127598153D01*
X149980849Y-127551000D01*
X149739151Y-127551000D01*
X149502097Y-127598153D01*
X149278798Y-127690647D01*
X149077833Y-127824927D01*
X148906927Y-127995833D01*
X148772647Y-128196798D01*
X148680153Y-128420097D01*
X148633000Y-128657151D01*
X143467000Y-128657151D01*
X143419847Y-128420097D01*
X143327353Y-128196798D01*
X143193073Y-127995833D01*
X143022167Y-127824927D01*
X142821202Y-127690647D01*
X142597903Y-127598153D01*
X142360849Y-127551000D01*
X142119151Y-127551000D01*
X141882097Y-127598153D01*
X141658798Y-127690647D01*
X141457833Y-127824927D01*
X141286927Y-127995833D01*
X141152647Y-128196798D01*
X141060153Y-128420097D01*
X141013000Y-128657151D01*
X140279658Y-128657151D01*
X140229586Y-128582213D01*
X140037787Y-128390414D01*
X139812254Y-128239718D01*
X139561656Y-128135917D01*
X139295623Y-128083000D01*
X139024377Y-128083000D01*
X138758344Y-128135917D01*
X138507746Y-128239718D01*
X138282213Y-128390414D01*
X138090414Y-128582213D01*
X137939718Y-128807746D01*
X137835917Y-129058344D01*
X137783000Y-129324377D01*
X124912000Y-129324377D01*
X124912000Y-126824377D01*
X125783000Y-126824377D01*
X125783000Y-127095623D01*
X125835917Y-127361656D01*
X125939718Y-127612254D01*
X126090414Y-127837787D01*
X126282213Y-128029586D01*
X126507746Y-128180282D01*
X126758344Y-128284083D01*
X127024377Y-128337000D01*
X127295623Y-128337000D01*
X127561656Y-128284083D01*
X127812254Y-128180282D01*
X128037787Y-128029586D01*
X128229586Y-127837787D01*
X128380282Y-127612254D01*
X128484083Y-127361656D01*
X128537000Y-127095623D01*
X128537000Y-126824377D01*
X128484083Y-126558344D01*
X128380282Y-126307746D01*
X128229586Y-126082213D01*
X128037787Y-125890414D01*
X127812254Y-125739718D01*
X127561656Y-125635917D01*
X127295623Y-125583000D01*
X127024377Y-125583000D01*
X126758344Y-125635917D01*
X126507746Y-125739718D01*
X126282213Y-125890414D01*
X126090414Y-126082213D01*
X125939718Y-126307746D01*
X125835917Y-126558344D01*
X125783000Y-126824377D01*
X124912000Y-126824377D01*
X124912000Y-125559752D01*
X135789853Y-125559752D01*
X135879579Y-125819042D01*
X136160671Y-125954935D01*
X136462873Y-126033379D01*
X136774573Y-126051359D01*
X137083791Y-126008184D01*
X137378644Y-125905513D01*
X137540421Y-125819042D01*
X137630147Y-125559752D01*
X136710000Y-124639605D01*
X135789853Y-125559752D01*
X124912000Y-125559752D01*
X124912000Y-124524573D01*
X135118641Y-124524573D01*
X135161816Y-124833791D01*
X135264487Y-125128644D01*
X135350958Y-125290421D01*
X135610248Y-125380147D01*
X136530395Y-124460000D01*
X136889605Y-124460000D01*
X137809752Y-125380147D01*
X137881985Y-125355151D01*
X141521000Y-125355151D01*
X141521000Y-125596849D01*
X141568153Y-125833903D01*
X141660647Y-126057202D01*
X141794927Y-126258167D01*
X141965833Y-126429073D01*
X142166798Y-126563353D01*
X142390097Y-126655847D01*
X142627151Y-126703000D01*
X142868849Y-126703000D01*
X143105903Y-126655847D01*
X143329202Y-126563353D01*
X143530167Y-126429073D01*
X143701073Y-126258167D01*
X143835353Y-126057202D01*
X143912517Y-125870912D01*
X143990930Y-126089881D01*
X144135615Y-126331131D01*
X144324586Y-126539519D01*
X144550580Y-126707037D01*
X144804913Y-126827246D01*
X144938961Y-126867904D01*
X145161000Y-126745915D01*
X145161000Y-125603000D01*
X145141000Y-125603000D01*
X145141000Y-125349000D01*
X145161000Y-125349000D01*
X145161000Y-124206085D01*
X144938961Y-124084096D01*
X144804913Y-124124754D01*
X144550580Y-124244963D01*
X144324586Y-124412481D01*
X144135615Y-124620869D01*
X143990930Y-124862119D01*
X143912517Y-125081088D01*
X143835353Y-124894798D01*
X143701073Y-124693833D01*
X143530167Y-124522927D01*
X143329202Y-124388647D01*
X143105903Y-124296153D01*
X142868849Y-124249000D01*
X142627151Y-124249000D01*
X142390097Y-124296153D01*
X142166798Y-124388647D01*
X141965833Y-124522927D01*
X141794927Y-124693833D01*
X141660647Y-124894798D01*
X141568153Y-125118097D01*
X141521000Y-125355151D01*
X137881985Y-125355151D01*
X138069042Y-125290421D01*
X138204935Y-125009329D01*
X138283379Y-124707127D01*
X138301359Y-124395427D01*
X138258184Y-124086209D01*
X138155513Y-123791356D01*
X138069042Y-123629579D01*
X137809752Y-123539853D01*
X136889605Y-124460000D01*
X136530395Y-124460000D01*
X135610248Y-123539853D01*
X135350958Y-123629579D01*
X135215065Y-123910671D01*
X135136621Y-124212873D01*
X135118641Y-124524573D01*
X124912000Y-124524573D01*
X124912000Y-123360248D01*
X135789853Y-123360248D01*
X136710000Y-124280395D01*
X137630147Y-123360248D01*
X137540421Y-123100958D01*
X137259329Y-122965065D01*
X136957127Y-122886621D01*
X136645427Y-122868641D01*
X136336209Y-122911816D01*
X136041356Y-123014487D01*
X135879579Y-123100958D01*
X135789853Y-123360248D01*
X124912000Y-123360248D01*
X124912000Y-121824377D01*
X125783000Y-121824377D01*
X125783000Y-122095623D01*
X125835917Y-122361656D01*
X125939718Y-122612254D01*
X126090414Y-122837787D01*
X126282213Y-123029586D01*
X126507746Y-123180282D01*
X126758344Y-123284083D01*
X127024377Y-123337000D01*
X127295623Y-123337000D01*
X127561656Y-123284083D01*
X127812254Y-123180282D01*
X128037787Y-123029586D01*
X128229586Y-122837787D01*
X128380282Y-122612254D01*
X128484083Y-122361656D01*
X128537000Y-122095623D01*
X128537000Y-121824377D01*
X128484083Y-121558344D01*
X128380282Y-121307746D01*
X128229586Y-121082213D01*
X128037787Y-120890414D01*
X127812254Y-120739718D01*
X127561656Y-120635917D01*
X127295623Y-120583000D01*
X127024377Y-120583000D01*
X126758344Y-120635917D01*
X126507746Y-120739718D01*
X126282213Y-120890414D01*
X126090414Y-121082213D01*
X125939718Y-121307746D01*
X125835917Y-121558344D01*
X125783000Y-121824377D01*
X124912000Y-121824377D01*
X124912000Y-119324377D01*
X137783000Y-119324377D01*
X137783000Y-119595623D01*
X137835917Y-119861656D01*
X137939718Y-120112254D01*
X138090414Y-120337787D01*
X138282213Y-120529586D01*
X138507746Y-120680282D01*
X138758344Y-120784083D01*
X139024377Y-120837000D01*
X139295623Y-120837000D01*
X139561656Y-120784083D01*
X139812254Y-120680282D01*
X140037787Y-120529586D01*
X140229586Y-120337787D01*
X140380282Y-120112254D01*
X140484083Y-119861656D01*
X140537000Y-119595623D01*
X140537000Y-119324377D01*
X140484083Y-119058344D01*
X140380282Y-118807746D01*
X140229586Y-118582213D01*
X140037787Y-118390414D01*
X139812254Y-118239718D01*
X139561656Y-118135917D01*
X139295623Y-118083000D01*
X139024377Y-118083000D01*
X138758344Y-118135917D01*
X138507746Y-118239718D01*
X138282213Y-118390414D01*
X138090414Y-118582213D01*
X137939718Y-118807746D01*
X137835917Y-119058344D01*
X137783000Y-119324377D01*
X124912000Y-119324377D01*
X124912000Y-116799755D01*
X130533000Y-116799755D01*
X130533000Y-117120245D01*
X130595525Y-117434578D01*
X130718172Y-117730673D01*
X130896227Y-117997152D01*
X131122848Y-118223773D01*
X131389327Y-118401828D01*
X131685422Y-118524475D01*
X131999755Y-118587000D01*
X132320245Y-118587000D01*
X132634578Y-118524475D01*
X132930673Y-118401828D01*
X133197152Y-118223773D01*
X133423773Y-117997152D01*
X133601828Y-117730673D01*
X133724475Y-117434578D01*
X133787000Y-117120245D01*
X133787000Y-116824377D01*
X135283000Y-116824377D01*
X135283000Y-117095623D01*
X135335917Y-117361656D01*
X135439718Y-117612254D01*
X135590414Y-117837787D01*
X135782213Y-118029586D01*
X136007746Y-118180282D01*
X136258344Y-118284083D01*
X136524377Y-118337000D01*
X136795623Y-118337000D01*
X137061656Y-118284083D01*
X137312254Y-118180282D01*
X137537787Y-118029586D01*
X137729586Y-117837787D01*
X137798165Y-117735151D01*
X141521000Y-117735151D01*
X141521000Y-117976849D01*
X141568153Y-118213903D01*
X141660647Y-118437202D01*
X141794927Y-118638167D01*
X141965833Y-118809073D01*
X142166798Y-118943353D01*
X142390097Y-119035847D01*
X142627151Y-119083000D01*
X142868849Y-119083000D01*
X143105903Y-119035847D01*
X143329202Y-118943353D01*
X143530167Y-118809073D01*
X143701073Y-118638167D01*
X143835353Y-118437202D01*
X143927847Y-118213903D01*
X143975000Y-117976849D01*
X143975000Y-117735151D01*
X144061000Y-117735151D01*
X144061000Y-117976849D01*
X144108153Y-118213903D01*
X144200647Y-118437202D01*
X144334927Y-118638167D01*
X144505833Y-118809073D01*
X144706798Y-118943353D01*
X144930097Y-119035847D01*
X145167151Y-119083000D01*
X145408849Y-119083000D01*
X145645903Y-119035847D01*
X145869202Y-118943353D01*
X146070167Y-118809073D01*
X146241073Y-118638167D01*
X146375353Y-118437202D01*
X146467847Y-118213903D01*
X146515000Y-117976849D01*
X146515000Y-117735151D01*
X146467847Y-117498097D01*
X146375353Y-117274798D01*
X146241073Y-117073833D01*
X146223240Y-117056000D01*
X146598934Y-117056000D01*
X146598934Y-118656000D01*
X146607178Y-118739707D01*
X146631595Y-118820196D01*
X146671245Y-118894376D01*
X146724605Y-118959395D01*
X146789624Y-119012755D01*
X146863804Y-119052405D01*
X146944293Y-119076822D01*
X147028000Y-119085066D01*
X148628000Y-119085066D01*
X148711707Y-119076822D01*
X148792196Y-119052405D01*
X148866376Y-119012755D01*
X148931395Y-118959395D01*
X148984755Y-118894376D01*
X149024405Y-118820196D01*
X149048822Y-118739707D01*
X149057066Y-118656000D01*
X149057066Y-117056000D01*
X149048822Y-116972293D01*
X149024405Y-116891804D01*
X148984755Y-116817624D01*
X148931395Y-116752605D01*
X148866376Y-116699245D01*
X148792196Y-116659595D01*
X148711707Y-116635178D01*
X148628000Y-116626934D01*
X147028000Y-116626934D01*
X146944293Y-116635178D01*
X146863804Y-116659595D01*
X146789624Y-116699245D01*
X146724605Y-116752605D01*
X146671245Y-116817624D01*
X146631595Y-116891804D01*
X146607178Y-116972293D01*
X146598934Y-117056000D01*
X146223240Y-117056000D01*
X146070167Y-116902927D01*
X145869202Y-116768647D01*
X145645903Y-116676153D01*
X145408849Y-116629000D01*
X145167151Y-116629000D01*
X144930097Y-116676153D01*
X144706798Y-116768647D01*
X144505833Y-116902927D01*
X144334927Y-117073833D01*
X144200647Y-117274798D01*
X144108153Y-117498097D01*
X144061000Y-117735151D01*
X143975000Y-117735151D01*
X143927847Y-117498097D01*
X143835353Y-117274798D01*
X143701073Y-117073833D01*
X143530167Y-116902927D01*
X143329202Y-116768647D01*
X143105903Y-116676153D01*
X142868849Y-116629000D01*
X142627151Y-116629000D01*
X142390097Y-116676153D01*
X142166798Y-116768647D01*
X141965833Y-116902927D01*
X141794927Y-117073833D01*
X141660647Y-117274798D01*
X141568153Y-117498097D01*
X141521000Y-117735151D01*
X137798165Y-117735151D01*
X137880282Y-117612254D01*
X137984083Y-117361656D01*
X138037000Y-117095623D01*
X138037000Y-116824377D01*
X137984083Y-116558344D01*
X137880282Y-116307746D01*
X137729586Y-116082213D01*
X137537787Y-115890414D01*
X137312254Y-115739718D01*
X137061656Y-115635917D01*
X136795623Y-115583000D01*
X136524377Y-115583000D01*
X136258344Y-115635917D01*
X136007746Y-115739718D01*
X135782213Y-115890414D01*
X135590414Y-116082213D01*
X135439718Y-116307746D01*
X135335917Y-116558344D01*
X135283000Y-116824377D01*
X133787000Y-116824377D01*
X133787000Y-116799755D01*
X133724475Y-116485422D01*
X133601828Y-116189327D01*
X133423773Y-115922848D01*
X133197152Y-115696227D01*
X132930673Y-115518172D01*
X132634578Y-115395525D01*
X132320245Y-115333000D01*
X131999755Y-115333000D01*
X131685422Y-115395525D01*
X131389327Y-115518172D01*
X131122848Y-115696227D01*
X130896227Y-115922848D01*
X130718172Y-116189327D01*
X130595525Y-116485422D01*
X130533000Y-116799755D01*
X124912000Y-116799755D01*
X124912000Y-114179151D01*
X141521000Y-114179151D01*
X141521000Y-114420849D01*
X141568153Y-114657903D01*
X141660647Y-114881202D01*
X141794927Y-115082167D01*
X141965833Y-115253073D01*
X142166798Y-115387353D01*
X142390097Y-115479847D01*
X142627151Y-115527000D01*
X142868849Y-115527000D01*
X143105903Y-115479847D01*
X143329202Y-115387353D01*
X143530167Y-115253073D01*
X143701073Y-115082167D01*
X143835353Y-114881202D01*
X143912517Y-114694912D01*
X143990930Y-114913881D01*
X144135615Y-115155131D01*
X144324586Y-115363519D01*
X144550580Y-115531037D01*
X144804913Y-115651246D01*
X144938961Y-115691904D01*
X145161000Y-115569915D01*
X145161000Y-114427000D01*
X145141000Y-114427000D01*
X145141000Y-114173000D01*
X145161000Y-114173000D01*
X145161000Y-113030085D01*
X145415000Y-113030085D01*
X145415000Y-114173000D01*
X145435000Y-114173000D01*
X145435000Y-114427000D01*
X145415000Y-114427000D01*
X145415000Y-115569915D01*
X145637039Y-115691904D01*
X145771087Y-115651246D01*
X146025420Y-115531037D01*
X146251414Y-115363519D01*
X146440385Y-115155131D01*
X146585070Y-114913881D01*
X146663483Y-114694912D01*
X146740647Y-114881202D01*
X146874927Y-115082167D01*
X147045833Y-115253073D01*
X147246798Y-115387353D01*
X147470097Y-115479847D01*
X147707151Y-115527000D01*
X147948849Y-115527000D01*
X148185903Y-115479847D01*
X148409202Y-115387353D01*
X148610167Y-115253073D01*
X148781073Y-115082167D01*
X148901456Y-114902000D01*
X151388645Y-114902000D01*
X152052001Y-115565357D01*
X152052000Y-120592544D01*
X151871833Y-120712927D01*
X151700927Y-120883833D01*
X151566647Y-121084798D01*
X151474153Y-121308097D01*
X151427000Y-121545151D01*
X151427000Y-121786849D01*
X151474153Y-122023903D01*
X151566647Y-122247202D01*
X151700927Y-122448167D01*
X151871833Y-122619073D01*
X152052000Y-122739457D01*
X152052001Y-123132543D01*
X151871833Y-123252927D01*
X151700927Y-123423833D01*
X151566647Y-123624798D01*
X151474153Y-123848097D01*
X151427000Y-124085151D01*
X151427000Y-124326849D01*
X151469273Y-124539371D01*
X151134645Y-124874000D01*
X148901456Y-124874000D01*
X148781073Y-124693833D01*
X148610167Y-124522927D01*
X148409202Y-124388647D01*
X148185903Y-124296153D01*
X147948849Y-124249000D01*
X147707151Y-124249000D01*
X147470097Y-124296153D01*
X147246798Y-124388647D01*
X147045833Y-124522927D01*
X146874927Y-124693833D01*
X146740647Y-124894798D01*
X146663483Y-125081088D01*
X146585070Y-124862119D01*
X146440385Y-124620869D01*
X146251414Y-124412481D01*
X146025420Y-124244963D01*
X145771087Y-124124754D01*
X145637039Y-124084096D01*
X145415000Y-124206085D01*
X145415000Y-125349000D01*
X145435000Y-125349000D01*
X145435000Y-125603000D01*
X145415000Y-125603000D01*
X145415000Y-126745915D01*
X145637039Y-126867904D01*
X145771087Y-126827246D01*
X146025420Y-126707037D01*
X146251414Y-126539519D01*
X146440385Y-126331131D01*
X146585070Y-126089881D01*
X146663483Y-125870912D01*
X146740647Y-126057202D01*
X146874927Y-126258167D01*
X147045833Y-126429073D01*
X147246798Y-126563353D01*
X147470097Y-126655847D01*
X147707151Y-126703000D01*
X147948849Y-126703000D01*
X148185903Y-126655847D01*
X148409202Y-126563353D01*
X148610167Y-126429073D01*
X148781073Y-126258167D01*
X148901456Y-126078000D01*
X151354444Y-126078000D01*
X151384000Y-126080911D01*
X151413556Y-126078000D01*
X151413566Y-126078000D01*
X151502012Y-126069289D01*
X151615490Y-126034866D01*
X151720071Y-125978966D01*
X151811737Y-125903737D01*
X151830589Y-125880766D01*
X152052001Y-125659355D01*
X152052000Y-128782644D01*
X150193371Y-130641273D01*
X149980849Y-130599000D01*
X149739151Y-130599000D01*
X149502097Y-130646153D01*
X149278798Y-130738647D01*
X149077833Y-130872927D01*
X148906927Y-131043833D01*
X148772647Y-131244798D01*
X148680153Y-131468097D01*
X148633000Y-131705151D01*
X148633000Y-131946849D01*
X148680153Y-132183903D01*
X148772647Y-132407202D01*
X148906927Y-132608167D01*
X149077833Y-132779073D01*
X149278798Y-132913353D01*
X149502097Y-133005847D01*
X149739151Y-133053000D01*
X149980849Y-133053000D01*
X150217903Y-133005847D01*
X150441202Y-132913353D01*
X150642167Y-132779073D01*
X150813073Y-132608167D01*
X150947353Y-132407202D01*
X151039847Y-132183903D01*
X151087000Y-131946849D01*
X151087000Y-131705151D01*
X151427000Y-131705151D01*
X151427000Y-131946849D01*
X151474153Y-132183903D01*
X151566647Y-132407202D01*
X151700927Y-132608167D01*
X151871833Y-132779073D01*
X152072798Y-132913353D01*
X152296097Y-133005847D01*
X152533151Y-133053000D01*
X152774849Y-133053000D01*
X153011903Y-133005847D01*
X153235202Y-132913353D01*
X153436167Y-132779073D01*
X153607073Y-132608167D01*
X153741353Y-132407202D01*
X153833847Y-132183903D01*
X153881000Y-131946849D01*
X153881000Y-131705151D01*
X153833847Y-131468097D01*
X153741353Y-131244798D01*
X153607073Y-131043833D01*
X153436167Y-130872927D01*
X153235202Y-130738647D01*
X153011903Y-130646153D01*
X152774849Y-130599000D01*
X152533151Y-130599000D01*
X152296097Y-130646153D01*
X152072798Y-130738647D01*
X151871833Y-130872927D01*
X151700927Y-131043833D01*
X151566647Y-131244798D01*
X151474153Y-131468097D01*
X151427000Y-131705151D01*
X151087000Y-131705151D01*
X151044727Y-131492629D01*
X153058773Y-129478583D01*
X153081737Y-129459737D01*
X153156966Y-129368071D01*
X153212866Y-129263490D01*
X153247289Y-129150012D01*
X153256000Y-129061566D01*
X153256000Y-129061557D01*
X153258911Y-129032000D01*
X153256000Y-129002444D01*
X153256000Y-125279456D01*
X153436167Y-125159073D01*
X153607073Y-124988167D01*
X153741353Y-124787202D01*
X153833847Y-124563903D01*
X153881000Y-124326849D01*
X153881000Y-124085151D01*
X153833847Y-123848097D01*
X153741353Y-123624798D01*
X153607073Y-123423833D01*
X153436167Y-123252927D01*
X153256000Y-123132544D01*
X153256000Y-122739456D01*
X153436167Y-122619073D01*
X153607073Y-122448167D01*
X153741353Y-122247202D01*
X153793139Y-122122181D01*
X153850397Y-122282292D01*
X153917329Y-122407514D01*
X154161298Y-122479097D01*
X154974395Y-121666000D01*
X154161298Y-120852903D01*
X153917329Y-120924486D01*
X153796429Y-121179996D01*
X153790531Y-121203524D01*
X153741353Y-121084798D01*
X153607073Y-120883833D01*
X153436167Y-120712927D01*
X153376858Y-120673298D01*
X154340903Y-120673298D01*
X155154000Y-121486395D01*
X155967097Y-120673298D01*
X155895514Y-120429329D01*
X155640004Y-120308429D01*
X155365816Y-120239700D01*
X155083488Y-120225783D01*
X154803870Y-120267213D01*
X154537708Y-120362397D01*
X154412486Y-120429329D01*
X154340903Y-120673298D01*
X153376858Y-120673298D01*
X153256000Y-120592544D01*
X153256000Y-115345556D01*
X153258911Y-115316000D01*
X153256000Y-115286443D01*
X153256000Y-115286434D01*
X153247289Y-115197988D01*
X153212866Y-115084510D01*
X153156966Y-114979929D01*
X153081737Y-114888263D01*
X153058771Y-114869416D01*
X152489355Y-114300000D01*
X153774463Y-113014893D01*
X153712074Y-113165513D01*
X153663000Y-113412226D01*
X153663000Y-113663774D01*
X153712074Y-113910487D01*
X153808337Y-114142886D01*
X153948089Y-114352040D01*
X154125960Y-114529911D01*
X154335114Y-114669663D01*
X154567513Y-114765926D01*
X154779034Y-114808000D01*
X154567513Y-114850074D01*
X154335114Y-114946337D01*
X154125960Y-115086089D01*
X153948089Y-115263960D01*
X153808337Y-115473114D01*
X153712074Y-115705513D01*
X153663000Y-115952226D01*
X153663000Y-116203774D01*
X153712074Y-116450487D01*
X153808337Y-116682886D01*
X153948089Y-116892040D01*
X154125960Y-117069911D01*
X154335114Y-117209663D01*
X154567513Y-117305926D01*
X154814226Y-117355000D01*
X155065774Y-117355000D01*
X155312487Y-117305926D01*
X155544886Y-117209663D01*
X155754040Y-117069911D01*
X155931911Y-116892040D01*
X156071663Y-116682886D01*
X156167926Y-116450487D01*
X156217000Y-116203774D01*
X156217000Y-115952226D01*
X156167926Y-115705513D01*
X156071663Y-115473114D01*
X155931911Y-115263960D01*
X155754040Y-115086089D01*
X155544886Y-114946337D01*
X155312487Y-114850074D01*
X155100966Y-114808000D01*
X155312487Y-114765926D01*
X155544886Y-114669663D01*
X155754040Y-114529911D01*
X155931911Y-114352040D01*
X156071663Y-114142886D01*
X156167926Y-113910487D01*
X156217000Y-113663774D01*
X156217000Y-113412226D01*
X156167926Y-113165513D01*
X156071663Y-112933114D01*
X155931911Y-112723960D01*
X155754040Y-112546089D01*
X155544886Y-112406337D01*
X155312487Y-112310074D01*
X155146544Y-112277066D01*
X155790000Y-112277066D01*
X155873707Y-112268822D01*
X155954196Y-112244405D01*
X156028376Y-112204755D01*
X156093395Y-112151395D01*
X156146755Y-112086376D01*
X156186405Y-112012196D01*
X156210822Y-111931707D01*
X156219066Y-111848000D01*
X156219066Y-110148000D01*
X156210822Y-110064293D01*
X156186405Y-109983804D01*
X156146755Y-109909624D01*
X156093395Y-109844605D01*
X156028376Y-109791245D01*
X155954196Y-109751595D01*
X155873707Y-109727178D01*
X155790000Y-109718934D01*
X154090000Y-109718934D01*
X154006293Y-109727178D01*
X153925804Y-109751595D01*
X153851624Y-109791245D01*
X153786605Y-109844605D01*
X153733245Y-109909624D01*
X153693595Y-109983804D01*
X153669178Y-110064293D01*
X153660934Y-110148000D01*
X153660934Y-111425710D01*
X151388645Y-113698000D01*
X148901456Y-113698000D01*
X148781073Y-113517833D01*
X148610167Y-113346927D01*
X148409202Y-113212647D01*
X148185903Y-113120153D01*
X147948849Y-113073000D01*
X147707151Y-113073000D01*
X147470097Y-113120153D01*
X147246798Y-113212647D01*
X147045833Y-113346927D01*
X146874927Y-113517833D01*
X146740647Y-113718798D01*
X146663483Y-113905088D01*
X146585070Y-113686119D01*
X146440385Y-113444869D01*
X146251414Y-113236481D01*
X146025420Y-113068963D01*
X145771087Y-112948754D01*
X145637039Y-112908096D01*
X145415000Y-113030085D01*
X145161000Y-113030085D01*
X144938961Y-112908096D01*
X144804913Y-112948754D01*
X144550580Y-113068963D01*
X144324586Y-113236481D01*
X144135615Y-113444869D01*
X143990930Y-113686119D01*
X143912517Y-113905088D01*
X143835353Y-113718798D01*
X143701073Y-113517833D01*
X143530167Y-113346927D01*
X143329202Y-113212647D01*
X143105903Y-113120153D01*
X142868849Y-113073000D01*
X142627151Y-113073000D01*
X142390097Y-113120153D01*
X142166798Y-113212647D01*
X141965833Y-113346927D01*
X141794927Y-113517833D01*
X141660647Y-113718798D01*
X141568153Y-113942097D01*
X141521000Y-114179151D01*
X124912000Y-114179151D01*
X124912000Y-108939755D01*
X130533000Y-108939755D01*
X130533000Y-109260245D01*
X130595525Y-109574578D01*
X130718172Y-109870673D01*
X130896227Y-110137152D01*
X131122848Y-110363773D01*
X131389327Y-110541828D01*
X131685422Y-110664475D01*
X131999755Y-110727000D01*
X132320245Y-110727000D01*
X132634578Y-110664475D01*
X132930673Y-110541828D01*
X133197152Y-110363773D01*
X133423773Y-110137152D01*
X133601828Y-109870673D01*
X133724475Y-109574578D01*
X133787000Y-109260245D01*
X133787000Y-108964377D01*
X135333000Y-108964377D01*
X135333000Y-109235623D01*
X135385917Y-109501656D01*
X135489718Y-109752254D01*
X135640414Y-109977787D01*
X135832213Y-110169586D01*
X136057746Y-110320282D01*
X136308344Y-110424083D01*
X136574377Y-110477000D01*
X136845623Y-110477000D01*
X137111656Y-110424083D01*
X137362254Y-110320282D01*
X137587787Y-110169586D01*
X137779586Y-109977787D01*
X137930282Y-109752254D01*
X138034083Y-109501656D01*
X138087000Y-109235623D01*
X138087000Y-108964377D01*
X138034083Y-108698344D01*
X137930282Y-108447746D01*
X137779586Y-108222213D01*
X137587787Y-108030414D01*
X137362254Y-107879718D01*
X137111656Y-107775917D01*
X136845623Y-107723000D01*
X136574377Y-107723000D01*
X136308344Y-107775917D01*
X136057746Y-107879718D01*
X135832213Y-108030414D01*
X135640414Y-108222213D01*
X135489718Y-108447746D01*
X135385917Y-108698344D01*
X135333000Y-108964377D01*
X133787000Y-108964377D01*
X133787000Y-108939755D01*
X133724475Y-108625422D01*
X133601828Y-108329327D01*
X133423773Y-108062848D01*
X133197152Y-107836227D01*
X132930673Y-107658172D01*
X132634578Y-107535525D01*
X132320245Y-107473000D01*
X131999755Y-107473000D01*
X131685422Y-107535525D01*
X131389327Y-107658172D01*
X131122848Y-107836227D01*
X130896227Y-108062848D01*
X130718172Y-108329327D01*
X130595525Y-108625422D01*
X130533000Y-108939755D01*
X124912000Y-108939755D01*
X124912000Y-106464377D01*
X137783000Y-106464377D01*
X137783000Y-106735623D01*
X137835917Y-107001656D01*
X137939718Y-107252254D01*
X138090414Y-107477787D01*
X138282213Y-107669586D01*
X138507746Y-107820282D01*
X138758344Y-107924083D01*
X139024377Y-107977000D01*
X139295623Y-107977000D01*
X139561656Y-107924083D01*
X139812254Y-107820282D01*
X140037787Y-107669586D01*
X140229586Y-107477787D01*
X140380282Y-107252254D01*
X140484083Y-107001656D01*
X140537000Y-106735623D01*
X140537000Y-106559151D01*
X141521000Y-106559151D01*
X141521000Y-106800849D01*
X141568153Y-107037903D01*
X141660647Y-107261202D01*
X141794927Y-107462167D01*
X141965833Y-107633073D01*
X142166798Y-107767353D01*
X142390097Y-107859847D01*
X142627151Y-107907000D01*
X142868849Y-107907000D01*
X143105903Y-107859847D01*
X143329202Y-107767353D01*
X143530167Y-107633073D01*
X143701073Y-107462167D01*
X143835353Y-107261202D01*
X143927847Y-107037903D01*
X143975000Y-106800849D01*
X143975000Y-106559151D01*
X144061000Y-106559151D01*
X144061000Y-106800849D01*
X144108153Y-107037903D01*
X144200647Y-107261202D01*
X144334927Y-107462167D01*
X144505833Y-107633073D01*
X144706798Y-107767353D01*
X144930097Y-107859847D01*
X145167151Y-107907000D01*
X145408849Y-107907000D01*
X145645903Y-107859847D01*
X145869202Y-107767353D01*
X146070167Y-107633073D01*
X146241073Y-107462167D01*
X146375353Y-107261202D01*
X146467847Y-107037903D01*
X146515000Y-106800849D01*
X146515000Y-106559151D01*
X146467847Y-106322097D01*
X146375353Y-106098798D01*
X146241073Y-105897833D01*
X146223240Y-105880000D01*
X146598934Y-105880000D01*
X146598934Y-107480000D01*
X146607178Y-107563707D01*
X146631595Y-107644196D01*
X146671245Y-107718376D01*
X146724605Y-107783395D01*
X146789624Y-107836755D01*
X146863804Y-107876405D01*
X146944293Y-107900822D01*
X147028000Y-107909066D01*
X148628000Y-107909066D01*
X148711707Y-107900822D01*
X148792196Y-107876405D01*
X148866376Y-107836755D01*
X148931395Y-107783395D01*
X148984755Y-107718376D01*
X149024405Y-107644196D01*
X149048822Y-107563707D01*
X149057066Y-107480000D01*
X149057066Y-107124702D01*
X153364903Y-107124702D01*
X153436486Y-107368671D01*
X153691996Y-107489571D01*
X153966184Y-107558300D01*
X154248512Y-107572217D01*
X154528130Y-107530787D01*
X154794292Y-107435603D01*
X154919514Y-107368671D01*
X154991097Y-107124702D01*
X154178000Y-106311605D01*
X153364903Y-107124702D01*
X149057066Y-107124702D01*
X149057066Y-106202512D01*
X152737783Y-106202512D01*
X152779213Y-106482130D01*
X152874397Y-106748292D01*
X152941329Y-106873514D01*
X153185298Y-106945097D01*
X153998395Y-106132000D01*
X154357605Y-106132000D01*
X155170702Y-106945097D01*
X155414671Y-106873514D01*
X155535571Y-106618004D01*
X155604300Y-106343816D01*
X155618217Y-106061488D01*
X155576787Y-105781870D01*
X155481603Y-105515708D01*
X155414671Y-105390486D01*
X155170702Y-105318903D01*
X154357605Y-106132000D01*
X153998395Y-106132000D01*
X153185298Y-105318903D01*
X152941329Y-105390486D01*
X152820429Y-105645996D01*
X152751700Y-105920184D01*
X152737783Y-106202512D01*
X149057066Y-106202512D01*
X149057066Y-105880000D01*
X149048822Y-105796293D01*
X149024405Y-105715804D01*
X148984755Y-105641624D01*
X148931395Y-105576605D01*
X148866376Y-105523245D01*
X148792196Y-105483595D01*
X148711707Y-105459178D01*
X148628000Y-105450934D01*
X147028000Y-105450934D01*
X146944293Y-105459178D01*
X146863804Y-105483595D01*
X146789624Y-105523245D01*
X146724605Y-105576605D01*
X146671245Y-105641624D01*
X146631595Y-105715804D01*
X146607178Y-105796293D01*
X146598934Y-105880000D01*
X146223240Y-105880000D01*
X146070167Y-105726927D01*
X145869202Y-105592647D01*
X145645903Y-105500153D01*
X145408849Y-105453000D01*
X145167151Y-105453000D01*
X144930097Y-105500153D01*
X144706798Y-105592647D01*
X144505833Y-105726927D01*
X144334927Y-105897833D01*
X144200647Y-106098798D01*
X144108153Y-106322097D01*
X144061000Y-106559151D01*
X143975000Y-106559151D01*
X143927847Y-106322097D01*
X143835353Y-106098798D01*
X143701073Y-105897833D01*
X143530167Y-105726927D01*
X143329202Y-105592647D01*
X143105903Y-105500153D01*
X142868849Y-105453000D01*
X142627151Y-105453000D01*
X142390097Y-105500153D01*
X142166798Y-105592647D01*
X141965833Y-105726927D01*
X141794927Y-105897833D01*
X141660647Y-106098798D01*
X141568153Y-106322097D01*
X141521000Y-106559151D01*
X140537000Y-106559151D01*
X140537000Y-106464377D01*
X140484083Y-106198344D01*
X140380282Y-105947746D01*
X140229586Y-105722213D01*
X140037787Y-105530414D01*
X139812254Y-105379718D01*
X139561656Y-105275917D01*
X139295623Y-105223000D01*
X139024377Y-105223000D01*
X138758344Y-105275917D01*
X138507746Y-105379718D01*
X138282213Y-105530414D01*
X138090414Y-105722213D01*
X137939718Y-105947746D01*
X137835917Y-106198344D01*
X137783000Y-106464377D01*
X124912000Y-106464377D01*
X124912000Y-103964377D01*
X125783000Y-103964377D01*
X125783000Y-104235623D01*
X125835917Y-104501656D01*
X125939718Y-104752254D01*
X126090414Y-104977787D01*
X126282213Y-105169586D01*
X126507746Y-105320282D01*
X126758344Y-105424083D01*
X127024377Y-105477000D01*
X127295623Y-105477000D01*
X127561656Y-105424083D01*
X127812254Y-105320282D01*
X128037787Y-105169586D01*
X128229586Y-104977787D01*
X128380282Y-104752254D01*
X128484083Y-104501656D01*
X128537000Y-104235623D01*
X128537000Y-103964377D01*
X128484083Y-103698344D01*
X128380282Y-103447746D01*
X128229586Y-103222213D01*
X128037787Y-103030414D01*
X127996985Y-103003151D01*
X141013000Y-103003151D01*
X141013000Y-103244849D01*
X141060153Y-103481903D01*
X141152647Y-103705202D01*
X141286927Y-103906167D01*
X141457833Y-104077073D01*
X141658798Y-104211353D01*
X141882097Y-104303847D01*
X142119151Y-104351000D01*
X142360849Y-104351000D01*
X142597903Y-104303847D01*
X142821202Y-104211353D01*
X143022167Y-104077073D01*
X143193073Y-103906167D01*
X143327353Y-103705202D01*
X143419847Y-103481903D01*
X143467000Y-103244849D01*
X143467000Y-103003151D01*
X148633000Y-103003151D01*
X148633000Y-103244849D01*
X148680153Y-103481903D01*
X148772647Y-103705202D01*
X148906927Y-103906167D01*
X149077833Y-104077073D01*
X149278798Y-104211353D01*
X149502097Y-104303847D01*
X149739151Y-104351000D01*
X149980849Y-104351000D01*
X150217903Y-104303847D01*
X150441202Y-104211353D01*
X150642167Y-104077073D01*
X150813073Y-103906167D01*
X150947353Y-103705202D01*
X151039847Y-103481903D01*
X151087000Y-103244849D01*
X151087000Y-103003151D01*
X151052956Y-102832000D01*
X152948934Y-102832000D01*
X152948934Y-104432000D01*
X152957178Y-104515707D01*
X152981595Y-104596196D01*
X153021245Y-104670376D01*
X153074605Y-104735395D01*
X153139624Y-104788755D01*
X153213804Y-104828405D01*
X153294293Y-104852822D01*
X153378000Y-104861066D01*
X153500588Y-104861066D01*
X153436486Y-104895329D01*
X153364903Y-105139298D01*
X154178000Y-105952395D01*
X154991097Y-105139298D01*
X154919514Y-104895329D01*
X154847103Y-104861066D01*
X154978000Y-104861066D01*
X155061707Y-104852822D01*
X155142196Y-104828405D01*
X155216376Y-104788755D01*
X155281395Y-104735395D01*
X155334755Y-104670376D01*
X155374405Y-104596196D01*
X155398822Y-104515707D01*
X155407066Y-104432000D01*
X155407066Y-102832000D01*
X155398822Y-102748293D01*
X155374405Y-102667804D01*
X155334755Y-102593624D01*
X155281395Y-102528605D01*
X155216376Y-102475245D01*
X155142196Y-102435595D01*
X155061707Y-102411178D01*
X154978000Y-102402934D01*
X153378000Y-102402934D01*
X153294293Y-102411178D01*
X153213804Y-102435595D01*
X153139624Y-102475245D01*
X153074605Y-102528605D01*
X153021245Y-102593624D01*
X152981595Y-102667804D01*
X152957178Y-102748293D01*
X152948934Y-102832000D01*
X151052956Y-102832000D01*
X151039847Y-102766097D01*
X150947353Y-102542798D01*
X150813073Y-102341833D01*
X150642167Y-102170927D01*
X150441202Y-102036647D01*
X150217903Y-101944153D01*
X149980849Y-101897000D01*
X149739151Y-101897000D01*
X149502097Y-101944153D01*
X149278798Y-102036647D01*
X149077833Y-102170927D01*
X148906927Y-102341833D01*
X148772647Y-102542798D01*
X148680153Y-102766097D01*
X148633000Y-103003151D01*
X143467000Y-103003151D01*
X143419847Y-102766097D01*
X143327353Y-102542798D01*
X143193073Y-102341833D01*
X143022167Y-102170927D01*
X142821202Y-102036647D01*
X142597903Y-101944153D01*
X142360849Y-101897000D01*
X142119151Y-101897000D01*
X141882097Y-101944153D01*
X141658798Y-102036647D01*
X141457833Y-102170927D01*
X141286927Y-102341833D01*
X141152647Y-102542798D01*
X141060153Y-102766097D01*
X141013000Y-103003151D01*
X127996985Y-103003151D01*
X127812254Y-102879718D01*
X127561656Y-102775917D01*
X127295623Y-102723000D01*
X127024377Y-102723000D01*
X126758344Y-102775917D01*
X126507746Y-102879718D01*
X126282213Y-103030414D01*
X126090414Y-103222213D01*
X125939718Y-103447746D01*
X125835917Y-103698344D01*
X125783000Y-103964377D01*
X124912000Y-103964377D01*
X124912000Y-101464377D01*
X135333000Y-101464377D01*
X135333000Y-101735623D01*
X135385917Y-102001656D01*
X135489718Y-102252254D01*
X135640414Y-102477787D01*
X135832213Y-102669586D01*
X136057746Y-102820282D01*
X136308344Y-102924083D01*
X136574377Y-102977000D01*
X136845623Y-102977000D01*
X137111656Y-102924083D01*
X137362254Y-102820282D01*
X137587787Y-102669586D01*
X137779586Y-102477787D01*
X137930282Y-102252254D01*
X138034083Y-102001656D01*
X138087000Y-101735623D01*
X138087000Y-101464377D01*
X138034083Y-101198344D01*
X137930282Y-100947746D01*
X137779586Y-100722213D01*
X137587787Y-100530414D01*
X137362254Y-100379718D01*
X137111656Y-100275917D01*
X136845623Y-100223000D01*
X136574377Y-100223000D01*
X136308344Y-100275917D01*
X136057746Y-100379718D01*
X135832213Y-100530414D01*
X135640414Y-100722213D01*
X135489718Y-100947746D01*
X135385917Y-101198344D01*
X135333000Y-101464377D01*
X124912000Y-101464377D01*
X124912000Y-98964377D01*
X125783000Y-98964377D01*
X125783000Y-99235623D01*
X125835917Y-99501656D01*
X125939718Y-99752254D01*
X126090414Y-99977787D01*
X126282213Y-100169586D01*
X126507746Y-100320282D01*
X126758344Y-100424083D01*
X127024377Y-100477000D01*
X127295623Y-100477000D01*
X127561656Y-100424083D01*
X127812254Y-100320282D01*
X128037787Y-100169586D01*
X128229586Y-99977787D01*
X128244710Y-99955151D01*
X141013000Y-99955151D01*
X141013000Y-100196849D01*
X141060153Y-100433903D01*
X141152647Y-100657202D01*
X141286927Y-100858167D01*
X141457833Y-101029073D01*
X141658798Y-101163353D01*
X141882097Y-101255847D01*
X142119151Y-101303000D01*
X142360849Y-101303000D01*
X142597903Y-101255847D01*
X142821202Y-101163353D01*
X143022167Y-101029073D01*
X143193073Y-100858167D01*
X143327353Y-100657202D01*
X143419847Y-100433903D01*
X143467000Y-100196849D01*
X143467000Y-99955151D01*
X143419847Y-99718097D01*
X143327353Y-99494798D01*
X143193073Y-99293833D01*
X143175240Y-99276000D01*
X148630934Y-99276000D01*
X148630934Y-100876000D01*
X148639178Y-100959707D01*
X148663595Y-101040196D01*
X148703245Y-101114376D01*
X148756605Y-101179395D01*
X148821624Y-101232755D01*
X148895804Y-101272405D01*
X148976293Y-101296822D01*
X149060000Y-101305066D01*
X150660000Y-101305066D01*
X150743707Y-101296822D01*
X150790252Y-101282702D01*
X153364903Y-101282702D01*
X153436486Y-101526671D01*
X153691996Y-101647571D01*
X153966184Y-101716300D01*
X154248512Y-101730217D01*
X154528130Y-101688787D01*
X154794292Y-101593603D01*
X154919514Y-101526671D01*
X154991097Y-101282702D01*
X154178000Y-100469605D01*
X153364903Y-101282702D01*
X150790252Y-101282702D01*
X150824196Y-101272405D01*
X150898376Y-101232755D01*
X150963395Y-101179395D01*
X151016755Y-101114376D01*
X151056405Y-101040196D01*
X151080822Y-100959707D01*
X151089066Y-100876000D01*
X151089066Y-100360512D01*
X152737783Y-100360512D01*
X152779213Y-100640130D01*
X152874397Y-100906292D01*
X152941329Y-101031514D01*
X153185298Y-101103097D01*
X153998395Y-100290000D01*
X154357605Y-100290000D01*
X155170702Y-101103097D01*
X155414671Y-101031514D01*
X155535571Y-100776004D01*
X155604300Y-100501816D01*
X155618217Y-100219488D01*
X155576787Y-99939870D01*
X155481603Y-99673708D01*
X155414671Y-99548486D01*
X155170702Y-99476903D01*
X154357605Y-100290000D01*
X153998395Y-100290000D01*
X153185298Y-99476903D01*
X152941329Y-99548486D01*
X152820429Y-99803996D01*
X152751700Y-100078184D01*
X152737783Y-100360512D01*
X151089066Y-100360512D01*
X151089066Y-99276000D01*
X151080822Y-99192293D01*
X151056405Y-99111804D01*
X151016755Y-99037624D01*
X150963395Y-98972605D01*
X150898376Y-98919245D01*
X150824196Y-98879595D01*
X150743707Y-98855178D01*
X150660000Y-98846934D01*
X149060000Y-98846934D01*
X148976293Y-98855178D01*
X148895804Y-98879595D01*
X148821624Y-98919245D01*
X148756605Y-98972605D01*
X148703245Y-99037624D01*
X148663595Y-99111804D01*
X148639178Y-99192293D01*
X148630934Y-99276000D01*
X143175240Y-99276000D01*
X143022167Y-99122927D01*
X142821202Y-98988647D01*
X142597903Y-98896153D01*
X142360849Y-98849000D01*
X142119151Y-98849000D01*
X141882097Y-98896153D01*
X141658798Y-98988647D01*
X141457833Y-99122927D01*
X141286927Y-99293833D01*
X141152647Y-99494798D01*
X141060153Y-99718097D01*
X141013000Y-99955151D01*
X128244710Y-99955151D01*
X128380282Y-99752254D01*
X128484083Y-99501656D01*
X128537000Y-99235623D01*
X128537000Y-98964377D01*
X128484083Y-98698344D01*
X128380282Y-98447746D01*
X128229586Y-98222213D01*
X128037787Y-98030414D01*
X127812254Y-97879718D01*
X127561656Y-97775917D01*
X127295623Y-97723000D01*
X127024377Y-97723000D01*
X126758344Y-97775917D01*
X126507746Y-97879718D01*
X126282213Y-98030414D01*
X126090414Y-98222213D01*
X125939718Y-98447746D01*
X125835917Y-98698344D01*
X125783000Y-98964377D01*
X124912000Y-98964377D01*
X124912000Y-96464377D01*
X137783000Y-96464377D01*
X137783000Y-96735623D01*
X137835917Y-97001656D01*
X137939718Y-97252254D01*
X138090414Y-97477787D01*
X138282213Y-97669586D01*
X138507746Y-97820282D01*
X138758344Y-97924083D01*
X139024377Y-97977000D01*
X139295623Y-97977000D01*
X139561656Y-97924083D01*
X139812254Y-97820282D01*
X140037787Y-97669586D01*
X140229586Y-97477787D01*
X140380282Y-97252254D01*
X140484083Y-97001656D01*
X140502881Y-96907151D01*
X141013000Y-96907151D01*
X141013000Y-97148849D01*
X141060153Y-97385903D01*
X141152647Y-97609202D01*
X141286927Y-97810167D01*
X141457833Y-97981073D01*
X141658798Y-98115353D01*
X141882097Y-98207847D01*
X142119151Y-98255000D01*
X142360849Y-98255000D01*
X142597903Y-98207847D01*
X142821202Y-98115353D01*
X143022167Y-97981073D01*
X143193073Y-97810167D01*
X143327353Y-97609202D01*
X143419847Y-97385903D01*
X143467000Y-97148849D01*
X143467000Y-96907151D01*
X148633000Y-96907151D01*
X148633000Y-97148849D01*
X148680153Y-97385903D01*
X148772647Y-97609202D01*
X148906927Y-97810167D01*
X149077833Y-97981073D01*
X149278798Y-98115353D01*
X149502097Y-98207847D01*
X149739151Y-98255000D01*
X149980849Y-98255000D01*
X150217903Y-98207847D01*
X150441202Y-98115353D01*
X150642167Y-97981073D01*
X150813073Y-97810167D01*
X150947353Y-97609202D01*
X151039847Y-97385903D01*
X151087000Y-97148849D01*
X151087000Y-96990000D01*
X152948934Y-96990000D01*
X152948934Y-98590000D01*
X152957178Y-98673707D01*
X152981595Y-98754196D01*
X153021245Y-98828376D01*
X153074605Y-98893395D01*
X153139624Y-98946755D01*
X153213804Y-98986405D01*
X153294293Y-99010822D01*
X153378000Y-99019066D01*
X153500588Y-99019066D01*
X153436486Y-99053329D01*
X153364903Y-99297298D01*
X154178000Y-100110395D01*
X154991097Y-99297298D01*
X154919514Y-99053329D01*
X154847103Y-99019066D01*
X154978000Y-99019066D01*
X155061707Y-99010822D01*
X155142196Y-98986405D01*
X155216376Y-98946755D01*
X155281395Y-98893395D01*
X155334755Y-98828376D01*
X155374405Y-98754196D01*
X155398822Y-98673707D01*
X155407066Y-98590000D01*
X155407066Y-96990000D01*
X155398822Y-96906293D01*
X155374405Y-96825804D01*
X155334755Y-96751624D01*
X155281395Y-96686605D01*
X155216376Y-96633245D01*
X155142196Y-96593595D01*
X155061707Y-96569178D01*
X154978000Y-96560934D01*
X153378000Y-96560934D01*
X153294293Y-96569178D01*
X153213804Y-96593595D01*
X153139624Y-96633245D01*
X153074605Y-96686605D01*
X153021245Y-96751624D01*
X152981595Y-96825804D01*
X152957178Y-96906293D01*
X152948934Y-96990000D01*
X151087000Y-96990000D01*
X151087000Y-96907151D01*
X151039847Y-96670097D01*
X150947353Y-96446798D01*
X150813073Y-96245833D01*
X150642167Y-96074927D01*
X150441202Y-95940647D01*
X150217903Y-95848153D01*
X149980849Y-95801000D01*
X149739151Y-95801000D01*
X149502097Y-95848153D01*
X149278798Y-95940647D01*
X149077833Y-96074927D01*
X148906927Y-96245833D01*
X148772647Y-96446798D01*
X148680153Y-96670097D01*
X148633000Y-96907151D01*
X143467000Y-96907151D01*
X143419847Y-96670097D01*
X143327353Y-96446798D01*
X143193073Y-96245833D01*
X143022167Y-96074927D01*
X142821202Y-95940647D01*
X142597903Y-95848153D01*
X142360849Y-95801000D01*
X142119151Y-95801000D01*
X141882097Y-95848153D01*
X141658798Y-95940647D01*
X141457833Y-96074927D01*
X141286927Y-96245833D01*
X141152647Y-96446798D01*
X141060153Y-96670097D01*
X141013000Y-96907151D01*
X140502881Y-96907151D01*
X140537000Y-96735623D01*
X140537000Y-96464377D01*
X140484083Y-96198344D01*
X140380282Y-95947746D01*
X140229586Y-95722213D01*
X140037787Y-95530414D01*
X139812254Y-95379718D01*
X139561656Y-95275917D01*
X139295623Y-95223000D01*
X139024377Y-95223000D01*
X138758344Y-95275917D01*
X138507746Y-95379718D01*
X138282213Y-95530414D01*
X138090414Y-95722213D01*
X137939718Y-95947746D01*
X137835917Y-96198344D01*
X137783000Y-96464377D01*
X124912000Y-96464377D01*
X124912000Y-93939755D01*
X130533000Y-93939755D01*
X130533000Y-94260245D01*
X130595525Y-94574578D01*
X130718172Y-94870673D01*
X130896227Y-95137152D01*
X131122848Y-95363773D01*
X131389327Y-95541828D01*
X131685422Y-95664475D01*
X131999755Y-95727000D01*
X132320245Y-95727000D01*
X132634578Y-95664475D01*
X132930673Y-95541828D01*
X133197152Y-95363773D01*
X133423773Y-95137152D01*
X133601828Y-94870673D01*
X133724475Y-94574578D01*
X133787000Y-94260245D01*
X133787000Y-93964377D01*
X135283000Y-93964377D01*
X135283000Y-94235623D01*
X135335917Y-94501656D01*
X135439718Y-94752254D01*
X135590414Y-94977787D01*
X135782213Y-95169586D01*
X136007746Y-95320282D01*
X136258344Y-95424083D01*
X136524377Y-95477000D01*
X136795623Y-95477000D01*
X137061656Y-95424083D01*
X137312254Y-95320282D01*
X137537787Y-95169586D01*
X137729586Y-94977787D01*
X137880282Y-94752254D01*
X137984083Y-94501656D01*
X138037000Y-94235623D01*
X138037000Y-93964377D01*
X137984083Y-93698344D01*
X137880282Y-93447746D01*
X137729586Y-93222213D01*
X137537787Y-93030414D01*
X137312254Y-92879718D01*
X137061656Y-92775917D01*
X136795623Y-92723000D01*
X136524377Y-92723000D01*
X136258344Y-92775917D01*
X136007746Y-92879718D01*
X135782213Y-93030414D01*
X135590414Y-93222213D01*
X135439718Y-93447746D01*
X135335917Y-93698344D01*
X135283000Y-93964377D01*
X133787000Y-93964377D01*
X133787000Y-93939755D01*
X133724475Y-93625422D01*
X133601828Y-93329327D01*
X133423773Y-93062848D01*
X133197152Y-92836227D01*
X132930673Y-92658172D01*
X132634578Y-92535525D01*
X132320245Y-92473000D01*
X131999755Y-92473000D01*
X131685422Y-92535525D01*
X131389327Y-92658172D01*
X131122848Y-92836227D01*
X130896227Y-93062848D01*
X130718172Y-93329327D01*
X130595525Y-93625422D01*
X130533000Y-93939755D01*
X124912000Y-93939755D01*
X124912000Y-91796891D01*
X140798519Y-91796891D01*
X140895843Y-92071252D01*
X141044822Y-92321355D01*
X141239731Y-92537588D01*
X141473080Y-92711641D01*
X141735901Y-92836825D01*
X141769188Y-92846922D01*
X141658798Y-92892647D01*
X141457833Y-93026927D01*
X141286927Y-93197833D01*
X141152647Y-93398798D01*
X141060153Y-93622097D01*
X141013000Y-93859151D01*
X141013000Y-94100849D01*
X141060153Y-94337903D01*
X141152647Y-94561202D01*
X141286927Y-94762167D01*
X141457833Y-94933073D01*
X141658798Y-95067353D01*
X141882097Y-95159847D01*
X142119151Y-95207000D01*
X142360849Y-95207000D01*
X142597903Y-95159847D01*
X142821202Y-95067353D01*
X142962857Y-94972702D01*
X143926903Y-94972702D01*
X143998486Y-95216671D01*
X144253996Y-95337571D01*
X144528184Y-95406300D01*
X144810512Y-95420217D01*
X145090130Y-95378787D01*
X145356292Y-95283603D01*
X145481514Y-95216671D01*
X145550955Y-94980000D01*
X147507428Y-94980000D01*
X147519688Y-95104482D01*
X147555998Y-95224180D01*
X147614963Y-95334494D01*
X147694315Y-95431185D01*
X147791006Y-95510537D01*
X147901320Y-95569502D01*
X148021018Y-95605812D01*
X148145500Y-95618072D01*
X148812250Y-95615000D01*
X148971000Y-95456250D01*
X148971000Y-94107000D01*
X147669250Y-94107000D01*
X147510500Y-94265750D01*
X147507428Y-94980000D01*
X145550955Y-94980000D01*
X145553097Y-94972702D01*
X144740000Y-94159605D01*
X143926903Y-94972702D01*
X142962857Y-94972702D01*
X143022167Y-94933073D01*
X143193073Y-94762167D01*
X143327353Y-94561202D01*
X143379139Y-94436181D01*
X143436397Y-94596292D01*
X143503329Y-94721514D01*
X143747298Y-94793097D01*
X144560395Y-93980000D01*
X144919605Y-93980000D01*
X145732702Y-94793097D01*
X145976671Y-94721514D01*
X146097571Y-94466004D01*
X146166300Y-94191816D01*
X146180217Y-93909488D01*
X146138787Y-93629870D01*
X146043603Y-93363708D01*
X145976671Y-93238486D01*
X145732702Y-93166903D01*
X144919605Y-93980000D01*
X144560395Y-93980000D01*
X143747298Y-93166903D01*
X143503329Y-93238486D01*
X143382429Y-93493996D01*
X143376531Y-93517524D01*
X143327353Y-93398798D01*
X143193073Y-93197833D01*
X143022167Y-93026927D01*
X142821202Y-92892647D01*
X142710812Y-92846922D01*
X142744099Y-92836825D01*
X143006920Y-92711641D01*
X143240269Y-92537588D01*
X143435178Y-92321355D01*
X143510000Y-92195745D01*
X143584822Y-92321355D01*
X143779731Y-92537588D01*
X144013080Y-92711641D01*
X144036712Y-92722897D01*
X143998486Y-92743329D01*
X143926903Y-92987298D01*
X144740000Y-93800395D01*
X145553097Y-92987298D01*
X145481514Y-92743329D01*
X145480951Y-92743063D01*
X145546920Y-92711641D01*
X145780269Y-92537588D01*
X145975178Y-92321355D01*
X146050000Y-92195745D01*
X146124822Y-92321355D01*
X146319731Y-92537588D01*
X146553080Y-92711641D01*
X146815901Y-92836825D01*
X146963110Y-92881476D01*
X147193000Y-92760155D01*
X147193000Y-91567000D01*
X147447000Y-91567000D01*
X147447000Y-92760155D01*
X147534594Y-92806381D01*
X147519688Y-92855518D01*
X147507428Y-92980000D01*
X147510500Y-93694250D01*
X147669250Y-93853000D01*
X148971000Y-93853000D01*
X148971000Y-93833000D01*
X149225000Y-93833000D01*
X149225000Y-93853000D01*
X149245000Y-93853000D01*
X149245000Y-94107000D01*
X149225000Y-94107000D01*
X149225000Y-95456250D01*
X149383750Y-95615000D01*
X150050500Y-95618072D01*
X150174982Y-95605812D01*
X150294680Y-95569502D01*
X150404994Y-95510537D01*
X150501685Y-95431185D01*
X150581037Y-95334494D01*
X150640002Y-95224180D01*
X150676312Y-95104482D01*
X150683751Y-95028948D01*
X150867884Y-95180062D01*
X151107535Y-95308158D01*
X151367572Y-95387039D01*
X151638000Y-95413674D01*
X151908429Y-95387039D01*
X152168466Y-95308158D01*
X152408117Y-95180062D01*
X152618173Y-95007673D01*
X152790562Y-94797616D01*
X152908000Y-94577905D01*
X153025438Y-94797617D01*
X153197828Y-95007673D01*
X153407884Y-95180062D01*
X153647535Y-95308158D01*
X153907572Y-95387039D01*
X154178000Y-95413674D01*
X154448429Y-95387039D01*
X154708466Y-95308158D01*
X154948117Y-95180062D01*
X155158173Y-95007673D01*
X155330562Y-94797616D01*
X155458658Y-94557965D01*
X155537539Y-94297928D01*
X155557500Y-94095261D01*
X155557500Y-93864738D01*
X155537539Y-93662071D01*
X155458658Y-93402034D01*
X155330562Y-93162383D01*
X155158172Y-92952327D01*
X154948116Y-92779938D01*
X154708465Y-92651842D01*
X154448428Y-92572961D01*
X154178000Y-92546326D01*
X153907571Y-92572961D01*
X153647534Y-92651842D01*
X153407883Y-92779938D01*
X153197827Y-92952328D01*
X153025438Y-93162384D01*
X152908000Y-93382095D01*
X152790562Y-93162383D01*
X152618172Y-92952327D01*
X152527002Y-92877505D01*
X152527002Y-92760156D01*
X152756890Y-92881476D01*
X152904099Y-92836825D01*
X153166920Y-92711641D01*
X153400269Y-92537588D01*
X153595178Y-92321355D01*
X153744157Y-92071252D01*
X153841481Y-91796891D01*
X153720814Y-91567000D01*
X152527000Y-91567000D01*
X152527000Y-91587000D01*
X152273000Y-91587000D01*
X152273000Y-91567000D01*
X149987000Y-91567000D01*
X149987000Y-91587000D01*
X149733000Y-91587000D01*
X149733000Y-91567000D01*
X147447000Y-91567000D01*
X147193000Y-91567000D01*
X144907000Y-91567000D01*
X144907000Y-91587000D01*
X144653000Y-91587000D01*
X144653000Y-91567000D01*
X142367000Y-91567000D01*
X142367000Y-91587000D01*
X142113000Y-91587000D01*
X142113000Y-91567000D01*
X140919186Y-91567000D01*
X140798519Y-91796891D01*
X124912000Y-91796891D01*
X124912000Y-91083109D01*
X140798519Y-91083109D01*
X140919186Y-91313000D01*
X142113000Y-91313000D01*
X142113000Y-91293000D01*
X142367000Y-91293000D01*
X142367000Y-91313000D01*
X144653000Y-91313000D01*
X144653000Y-91293000D01*
X144907000Y-91293000D01*
X144907000Y-91313000D01*
X147193000Y-91313000D01*
X147193000Y-91293000D01*
X147447000Y-91293000D01*
X147447000Y-91313000D01*
X149733000Y-91313000D01*
X149733000Y-91293000D01*
X149987000Y-91293000D01*
X149987000Y-91313000D01*
X152273000Y-91313000D01*
X152273000Y-91293000D01*
X152527000Y-91293000D01*
X152527000Y-91313000D01*
X153720814Y-91313000D01*
X153841481Y-91083109D01*
X153744157Y-90808748D01*
X153595178Y-90558645D01*
X153400269Y-90342412D01*
X153166920Y-90168359D01*
X152938051Y-90059347D01*
X153004886Y-90031663D01*
X153214040Y-89891911D01*
X153391911Y-89714040D01*
X153531663Y-89504886D01*
X153627926Y-89272487D01*
X153677000Y-89025774D01*
X153677000Y-88774226D01*
X153627926Y-88527513D01*
X153531663Y-88295114D01*
X153391911Y-88085960D01*
X153214040Y-87908089D01*
X153004886Y-87768337D01*
X152772487Y-87672074D01*
X152525774Y-87623000D01*
X152274226Y-87623000D01*
X152027513Y-87672074D01*
X151795114Y-87768337D01*
X151585960Y-87908089D01*
X151408089Y-88085960D01*
X151268337Y-88295114D01*
X151172074Y-88527513D01*
X151130000Y-88739034D01*
X151087926Y-88527513D01*
X150991663Y-88295114D01*
X150851911Y-88085960D01*
X150674040Y-87908089D01*
X150464886Y-87768337D01*
X150232487Y-87672074D01*
X149985774Y-87623000D01*
X149734226Y-87623000D01*
X149487513Y-87672074D01*
X149255114Y-87768337D01*
X149045960Y-87908089D01*
X148868089Y-88085960D01*
X148728337Y-88295114D01*
X148632074Y-88527513D01*
X148590000Y-88739034D01*
X148547926Y-88527513D01*
X148451663Y-88295114D01*
X148311911Y-88085960D01*
X148134040Y-87908089D01*
X147924886Y-87768337D01*
X147692487Y-87672074D01*
X147445774Y-87623000D01*
X147194226Y-87623000D01*
X146947513Y-87672074D01*
X146715114Y-87768337D01*
X146505960Y-87908089D01*
X146328089Y-88085960D01*
X146188337Y-88295114D01*
X146092074Y-88527513D01*
X146050000Y-88739034D01*
X146007926Y-88527513D01*
X145911663Y-88295114D01*
X145771911Y-88085960D01*
X145594040Y-87908089D01*
X145384886Y-87768337D01*
X145152487Y-87672074D01*
X144905774Y-87623000D01*
X144654226Y-87623000D01*
X144407513Y-87672074D01*
X144175114Y-87768337D01*
X143965960Y-87908089D01*
X143788089Y-88085960D01*
X143648337Y-88295114D01*
X143552074Y-88527513D01*
X143519066Y-88693456D01*
X143519066Y-88050000D01*
X143510822Y-87966293D01*
X143486405Y-87885804D01*
X143446755Y-87811624D01*
X143393395Y-87746605D01*
X143328376Y-87693245D01*
X143254196Y-87653595D01*
X143173707Y-87629178D01*
X143090000Y-87620934D01*
X141390000Y-87620934D01*
X141306293Y-87629178D01*
X141225804Y-87653595D01*
X141151624Y-87693245D01*
X141086605Y-87746605D01*
X141033245Y-87811624D01*
X140993595Y-87885804D01*
X140969178Y-87966293D01*
X140960934Y-88050000D01*
X140960934Y-89750000D01*
X140969178Y-89833707D01*
X140993595Y-89914196D01*
X141033245Y-89988376D01*
X141086605Y-90053395D01*
X141151624Y-90106755D01*
X141225804Y-90146405D01*
X141306293Y-90170822D01*
X141390000Y-90179066D01*
X141458725Y-90179066D01*
X141239731Y-90342412D01*
X141044822Y-90558645D01*
X140895843Y-90808748D01*
X140798519Y-91083109D01*
X124912000Y-91083109D01*
X124912000Y-88922108D01*
X124941798Y-88618197D01*
X125023639Y-88347131D01*
X125156571Y-88097122D01*
X125335531Y-87877695D01*
X125553707Y-87697204D01*
X125802780Y-87562531D01*
X126073271Y-87478800D01*
X126375828Y-87447000D01*
X155044892Y-87447000D01*
X155348803Y-87476798D01*
%TD*%
M02*
