%TF.GenerationSoftware,KiCad,Pcbnew,(5.1.6-0-10_14)*%
%TF.CreationDate,2020-08-09T19:32:51-07:00*%
%TF.ProjectId,bbf-buffer,6262662d-6275-4666-9665-722e6b696361,rev?*%
%TF.SameCoordinates,Original*%
%TF.FileFunction,Soldermask,Top*%
%TF.FilePolarity,Negative*%
%FSLAX46Y46*%
G04 Gerber Fmt 4.6, Leading zero omitted, Abs format (unit mm)*
G04 Created by KiCad (PCBNEW (5.1.6-0-10_14)) date 2020-08-09 19:32:51*
%MOMM*%
%LPD*%
G01*
G04 APERTURE LIST*
%ADD10R,1.800000X1.800000*%
%ADD11O,1.800000X1.800000*%
%ADD12C,3.100000*%
%ADD13R,1.700000X1.700000*%
%ADD14O,1.700000X1.700000*%
%ADD15C,1.700000*%
G04 APERTURE END LIST*
D10*
%TO.C,J2*%
X160020000Y-27940000D03*
D11*
X160020000Y-25400000D03*
X157480000Y-27940000D03*
X157480000Y-25400000D03*
X154940000Y-27940000D03*
X154940000Y-25400000D03*
X152400000Y-27940000D03*
X152400000Y-25400000D03*
X149860000Y-27940000D03*
X149860000Y-25400000D03*
%TD*%
%TO.C,J1*%
X149860000Y-71120000D03*
X149860000Y-73660000D03*
X152400000Y-71120000D03*
X152400000Y-73660000D03*
X154940000Y-71120000D03*
X154940000Y-73660000D03*
X157480000Y-71120000D03*
X157480000Y-73660000D03*
X160020000Y-71120000D03*
D10*
X160020000Y-73660000D03*
%TD*%
%TO.C,J3*%
X162306000Y-43180000D03*
D11*
X162306000Y-45720000D03*
X162306000Y-48260000D03*
X162306000Y-50800000D03*
X162306000Y-53340000D03*
X162306000Y-55880000D03*
%TD*%
%TO.C,J4*%
G36*
G01*
X161363000Y-33752000D02*
X161913000Y-33752000D01*
G75*
G02*
X162188000Y-34027000I0J-275000D01*
G01*
X162188000Y-36077000D01*
G75*
G02*
X161913000Y-36352000I-275000J0D01*
G01*
X161363000Y-36352000D01*
G75*
G02*
X161088000Y-36077000I0J275000D01*
G01*
X161088000Y-34027000D01*
G75*
G02*
X161363000Y-33752000I275000J0D01*
G01*
G37*
G36*
G01*
X153063000Y-33752000D02*
X153613000Y-33752000D01*
G75*
G02*
X153888000Y-34027000I0J-275000D01*
G01*
X153888000Y-36077000D01*
G75*
G02*
X153613000Y-36352000I-275000J0D01*
G01*
X153063000Y-36352000D01*
G75*
G02*
X152788000Y-36077000I0J275000D01*
G01*
X152788000Y-34027000D01*
G75*
G02*
X153063000Y-33752000I275000J0D01*
G01*
G37*
G36*
G01*
X151109000Y-33752000D02*
X151659000Y-33752000D01*
G75*
G02*
X151934000Y-34027000I0J-275000D01*
G01*
X151934000Y-36077000D01*
G75*
G02*
X151659000Y-36352000I-275000J0D01*
G01*
X151109000Y-36352000D01*
G75*
G02*
X150834000Y-36077000I0J275000D01*
G01*
X150834000Y-34027000D01*
G75*
G02*
X151109000Y-33752000I275000J0D01*
G01*
G37*
D12*
X156718000Y-35052000D03*
%TD*%
%TO.C,J5*%
X156718000Y-64008000D03*
G36*
G01*
X151109000Y-62708000D02*
X151659000Y-62708000D01*
G75*
G02*
X151934000Y-62983000I0J-275000D01*
G01*
X151934000Y-65033000D01*
G75*
G02*
X151659000Y-65308000I-275000J0D01*
G01*
X151109000Y-65308000D01*
G75*
G02*
X150834000Y-65033000I0J275000D01*
G01*
X150834000Y-62983000D01*
G75*
G02*
X151109000Y-62708000I275000J0D01*
G01*
G37*
G36*
G01*
X153063000Y-62708000D02*
X153613000Y-62708000D01*
G75*
G02*
X153888000Y-62983000I0J-275000D01*
G01*
X153888000Y-65033000D01*
G75*
G02*
X153613000Y-65308000I-275000J0D01*
G01*
X153063000Y-65308000D01*
G75*
G02*
X152788000Y-65033000I0J275000D01*
G01*
X152788000Y-62983000D01*
G75*
G02*
X153063000Y-62708000I275000J0D01*
G01*
G37*
G36*
G01*
X161363000Y-62708000D02*
X161913000Y-62708000D01*
G75*
G02*
X162188000Y-62983000I0J-275000D01*
G01*
X162188000Y-65033000D01*
G75*
G02*
X161913000Y-65308000I-275000J0D01*
G01*
X161363000Y-65308000D01*
G75*
G02*
X161088000Y-65033000I0J275000D01*
G01*
X161088000Y-62983000D01*
G75*
G02*
X161363000Y-62708000I275000J0D01*
G01*
G37*
%TD*%
D13*
%TO.C,TL072*%
X155194000Y-45720000D03*
D14*
X147574000Y-53340000D03*
X152654000Y-45720000D03*
X150114000Y-53340000D03*
X150114000Y-45720000D03*
X152654000Y-53340000D03*
X147574000Y-45720000D03*
X155194000Y-53340000D03*
%TD*%
D15*
%TO.C,C1*%
X151424000Y-57150000D03*
X153924000Y-57150000D03*
%TD*%
%TO.C,C2*%
X153924000Y-41910000D03*
X151424000Y-41910000D03*
%TD*%
%TO.C,R1*%
X148844000Y-41910000D03*
D14*
X148844000Y-34290000D03*
%TD*%
%TO.C,R2*%
X148844000Y-64770000D03*
D15*
X148844000Y-57150000D03*
%TD*%
M02*
