%TF.GenerationSoftware,KiCad,Pcbnew,(5.1.6-0-10_14)*%
%TF.CreationDate,2020-08-09T19:32:51-07:00*%
%TF.ProjectId,bbf-buffer,6262662d-6275-4666-9665-722e6b696361,rev?*%
%TF.SameCoordinates,Original*%
%TF.FileFunction,Legend,Top*%
%TF.FilePolarity,Positive*%
%FSLAX46Y46*%
G04 Gerber Fmt 4.6, Leading zero omitted, Abs format (unit mm)*
G04 Created by KiCad (PCBNEW (5.1.6-0-10_14)) date 2020-08-09 19:32:51*
%MOMM*%
%LPD*%
G01*
G04 APERTURE LIST*
%ADD10C,0.150000*%
%ADD11C,0.120000*%
G04 APERTURE END LIST*
D10*
X157503903Y-52792380D02*
X157503903Y-53506666D01*
X157456284Y-53649523D01*
X157361046Y-53744761D01*
X157218189Y-53792380D01*
X157122951Y-53792380D01*
X158408665Y-53792380D02*
X158408665Y-53268571D01*
X158361046Y-53173333D01*
X158265808Y-53125714D01*
X158075332Y-53125714D01*
X157980094Y-53173333D01*
X158408665Y-53744761D02*
X158313427Y-53792380D01*
X158075332Y-53792380D01*
X157980094Y-53744761D01*
X157932475Y-53649523D01*
X157932475Y-53554285D01*
X157980094Y-53459047D01*
X158075332Y-53411428D01*
X158313427Y-53411428D01*
X158408665Y-53363809D01*
X159313427Y-53744761D02*
X159218189Y-53792380D01*
X159027713Y-53792380D01*
X158932475Y-53744761D01*
X158884856Y-53697142D01*
X158837237Y-53601904D01*
X158837237Y-53316190D01*
X158884856Y-53220952D01*
X158932475Y-53173333D01*
X159027713Y-53125714D01*
X159218189Y-53125714D01*
X159313427Y-53173333D01*
X159741999Y-53792380D02*
X159741999Y-52792380D01*
X159837237Y-53411428D02*
X160122951Y-53792380D01*
X160122951Y-53125714D02*
X159741999Y-53506666D01*
X158218189Y-55332380D02*
X158408665Y-55332380D01*
X158503903Y-55380000D01*
X158599142Y-55475238D01*
X158646761Y-55665714D01*
X158646761Y-55999047D01*
X158599142Y-56189523D01*
X158503903Y-56284761D01*
X158408665Y-56332380D01*
X158218189Y-56332380D01*
X158122951Y-56284761D01*
X158027713Y-56189523D01*
X157980094Y-55999047D01*
X157980094Y-55665714D01*
X158027713Y-55475238D01*
X158122951Y-55380000D01*
X158218189Y-55332380D01*
X159503903Y-55665714D02*
X159503903Y-56332380D01*
X159075332Y-55665714D02*
X159075332Y-56189523D01*
X159122951Y-56284761D01*
X159218189Y-56332380D01*
X159361046Y-56332380D01*
X159456284Y-56284761D01*
X159503903Y-56237142D01*
X159837237Y-55665714D02*
X160218189Y-55665714D01*
X159980094Y-55332380D02*
X159980094Y-56189523D01*
X160027713Y-56284761D01*
X160122951Y-56332380D01*
X160218189Y-56332380D01*
X159170571Y-51252380D02*
X159170571Y-50252380D01*
X159646761Y-50585714D02*
X159646761Y-51252380D01*
X159646761Y-50680952D02*
X159694380Y-50633333D01*
X159789618Y-50585714D01*
X159932475Y-50585714D01*
X160027713Y-50633333D01*
X160075332Y-50728571D01*
X160075332Y-51252380D01*
X158218189Y-47712380D02*
X158408665Y-47712380D01*
X158503903Y-47760000D01*
X158599142Y-47855238D01*
X158646761Y-48045714D01*
X158646761Y-48379047D01*
X158599142Y-48569523D01*
X158503903Y-48664761D01*
X158408665Y-48712380D01*
X158218189Y-48712380D01*
X158122951Y-48664761D01*
X158027713Y-48569523D01*
X157980094Y-48379047D01*
X157980094Y-48045714D01*
X158027713Y-47855238D01*
X158122951Y-47760000D01*
X158218189Y-47712380D01*
X159503903Y-48045714D02*
X159503903Y-48712380D01*
X159075332Y-48045714D02*
X159075332Y-48569523D01*
X159122951Y-48664761D01*
X159218189Y-48712380D01*
X159361046Y-48712380D01*
X159456284Y-48664761D01*
X159503903Y-48617142D01*
X159837237Y-48045714D02*
X160218189Y-48045714D01*
X159980094Y-47712380D02*
X159980094Y-48569523D01*
X160027713Y-48664761D01*
X160122951Y-48712380D01*
X160218189Y-48712380D01*
X157503903Y-45172380D02*
X157503903Y-45886666D01*
X157456284Y-46029523D01*
X157361046Y-46124761D01*
X157218189Y-46172380D01*
X157122951Y-46172380D01*
X158408665Y-46172380D02*
X158408665Y-45648571D01*
X158361046Y-45553333D01*
X158265808Y-45505714D01*
X158075332Y-45505714D01*
X157980094Y-45553333D01*
X158408665Y-46124761D02*
X158313427Y-46172380D01*
X158075332Y-46172380D01*
X157980094Y-46124761D01*
X157932475Y-46029523D01*
X157932475Y-45934285D01*
X157980094Y-45839047D01*
X158075332Y-45791428D01*
X158313427Y-45791428D01*
X158408665Y-45743809D01*
X159313427Y-46124761D02*
X159218189Y-46172380D01*
X159027713Y-46172380D01*
X158932475Y-46124761D01*
X158884856Y-46077142D01*
X158837237Y-45981904D01*
X158837237Y-45696190D01*
X158884856Y-45600952D01*
X158932475Y-45553333D01*
X159027713Y-45505714D01*
X159218189Y-45505714D01*
X159313427Y-45553333D01*
X159741999Y-46172380D02*
X159741999Y-45172380D01*
X159837237Y-45791428D02*
X160122951Y-46172380D01*
X160122951Y-45505714D02*
X159741999Y-45886666D01*
X159170571Y-43632380D02*
X159170571Y-42632380D01*
X159646761Y-42965714D02*
X159646761Y-43632380D01*
X159646761Y-43060952D02*
X159694380Y-43013333D01*
X159789618Y-42965714D01*
X159932475Y-42965714D01*
X160027713Y-43013333D01*
X160075332Y-43108571D01*
X160075332Y-43632380D01*
D11*
%TO.C,J3*%
X160976000Y-41850000D02*
X162306000Y-41850000D01*
X160976000Y-43180000D02*
X160976000Y-41850000D01*
X160976000Y-44450000D02*
X163636000Y-44450000D01*
X163636000Y-44450000D02*
X163636000Y-57210000D01*
X160976000Y-44450000D02*
X160976000Y-57210000D01*
X160976000Y-57210000D02*
X163636000Y-57210000D01*
D10*
%TO.C,J4*%
X162718000Y-30552000D02*
X162718000Y-39552000D01*
X152218000Y-30552000D02*
X152218000Y-39552000D01*
X162718000Y-30552000D02*
X152218000Y-30552000D01*
X162718000Y-39552000D02*
X152218000Y-39552000D01*
X158514051Y-35052000D02*
G75*
G03*
X158514051Y-35052000I-1796051J0D01*
G01*
X152908000Y-36957000D02*
X152908000Y-39497000D01*
X152273000Y-36957000D02*
X152908000Y-36957000D01*
X152273000Y-33147000D02*
X152273000Y-36957000D01*
X152908000Y-33147000D02*
X152273000Y-33147000D01*
X152908000Y-30607000D02*
X152908000Y-33147000D01*
%TO.C,J5*%
X152908000Y-59563000D02*
X152908000Y-62103000D01*
X152908000Y-62103000D02*
X152273000Y-62103000D01*
X152273000Y-62103000D02*
X152273000Y-65913000D01*
X152273000Y-65913000D02*
X152908000Y-65913000D01*
X152908000Y-65913000D02*
X152908000Y-68453000D01*
X158514051Y-64008000D02*
G75*
G03*
X158514051Y-64008000I-1796051J0D01*
G01*
X162718000Y-68508000D02*
X152218000Y-68508000D01*
X162718000Y-59508000D02*
X152218000Y-59508000D01*
X152218000Y-59508000D02*
X152218000Y-68508000D01*
X162718000Y-59508000D02*
X162718000Y-68508000D01*
D11*
%TO.C,TL072*%
X156584000Y-54670000D02*
X156584000Y-44390000D01*
X146184000Y-54670000D02*
X156584000Y-54670000D01*
X146184000Y-44390000D02*
X146184000Y-54670000D01*
X156584000Y-44390000D02*
X146184000Y-44390000D01*
X156524000Y-52180000D02*
X156524000Y-50530000D01*
X146244000Y-52180000D02*
X156524000Y-52180000D01*
X146244000Y-46880000D02*
X146244000Y-52180000D01*
X156524000Y-46880000D02*
X146244000Y-46880000D01*
X156524000Y-48530000D02*
X156524000Y-46880000D01*
X156524000Y-50530000D02*
G75*
G02*
X156524000Y-48530000I0J1000000D01*
G01*
%TO.C,C1*%
X153303000Y-58070000D02*
X152045000Y-58070000D01*
X153303000Y-56230000D02*
X152045000Y-56230000D01*
%TO.C,C2*%
X153303000Y-40990000D02*
X152045000Y-40990000D01*
X153303000Y-42830000D02*
X152045000Y-42830000D01*
%TO.C,R1*%
X150214000Y-34830000D02*
X149884000Y-34830000D01*
X150214000Y-41370000D02*
X150214000Y-34830000D01*
X149884000Y-41370000D02*
X150214000Y-41370000D01*
X147474000Y-34830000D02*
X147804000Y-34830000D01*
X147474000Y-41370000D02*
X147474000Y-34830000D01*
X147804000Y-41370000D02*
X147474000Y-41370000D01*
%TO.C,R2*%
X149884000Y-57690000D02*
X150214000Y-57690000D01*
X150214000Y-57690000D02*
X150214000Y-64230000D01*
X150214000Y-64230000D02*
X149884000Y-64230000D01*
X147804000Y-57690000D02*
X147474000Y-57690000D01*
X147474000Y-57690000D02*
X147474000Y-64230000D01*
X147474000Y-64230000D02*
X147804000Y-64230000D01*
%TO.C,TL072*%
D10*
X149264952Y-48982380D02*
X149836380Y-48982380D01*
X149550666Y-49982380D02*
X149550666Y-48982380D01*
X150645904Y-49982380D02*
X150169714Y-49982380D01*
X150169714Y-48982380D01*
X151169714Y-48982380D02*
X151264952Y-48982380D01*
X151360190Y-49030000D01*
X151407809Y-49077619D01*
X151455428Y-49172857D01*
X151503047Y-49363333D01*
X151503047Y-49601428D01*
X151455428Y-49791904D01*
X151407809Y-49887142D01*
X151360190Y-49934761D01*
X151264952Y-49982380D01*
X151169714Y-49982380D01*
X151074476Y-49934761D01*
X151026857Y-49887142D01*
X150979238Y-49791904D01*
X150931619Y-49601428D01*
X150931619Y-49363333D01*
X150979238Y-49172857D01*
X151026857Y-49077619D01*
X151074476Y-49030000D01*
X151169714Y-48982380D01*
X151836380Y-48982380D02*
X152503047Y-48982380D01*
X152074476Y-49982380D01*
X152836380Y-49077619D02*
X152884000Y-49030000D01*
X152979238Y-48982380D01*
X153217333Y-48982380D01*
X153312571Y-49030000D01*
X153360190Y-49077619D01*
X153407809Y-49172857D01*
X153407809Y-49268095D01*
X153360190Y-49410952D01*
X152788761Y-49982380D01*
X153407809Y-49982380D01*
%TO.C,R1*%
X149295379Y-38266666D02*
X148819189Y-38600000D01*
X149295379Y-38838095D02*
X148295379Y-38838095D01*
X148295379Y-38457142D01*
X148342999Y-38361904D01*
X148390618Y-38314285D01*
X148485856Y-38266666D01*
X148628713Y-38266666D01*
X148723951Y-38314285D01*
X148771570Y-38361904D01*
X148819189Y-38457142D01*
X148819189Y-38838095D01*
X149295379Y-37314285D02*
X149295379Y-37885714D01*
X149295379Y-37600000D02*
X148295379Y-37600000D01*
X148438237Y-37695238D01*
X148533475Y-37790476D01*
X148581094Y-37885714D01*
%TO.C,R2*%
X149283381Y-61126666D02*
X148807191Y-61460000D01*
X149283381Y-61698095D02*
X148283381Y-61698095D01*
X148283381Y-61317142D01*
X148331001Y-61221904D01*
X148378620Y-61174285D01*
X148473858Y-61126666D01*
X148616715Y-61126666D01*
X148711953Y-61174285D01*
X148759572Y-61221904D01*
X148807191Y-61317142D01*
X148807191Y-61698095D01*
X148378620Y-60745714D02*
X148331001Y-60698095D01*
X148283381Y-60602857D01*
X148283381Y-60364761D01*
X148331001Y-60269523D01*
X148378620Y-60221904D01*
X148473858Y-60174285D01*
X148569096Y-60174285D01*
X148711953Y-60221904D01*
X149283381Y-60793333D01*
X149283381Y-60174285D01*
%TD*%
M02*
