M48
; DRILL file {KiCad (5.1.6-0-10_14)} date Sunday, August 09, 2020 at 07:32:53 PM
; FORMAT={-:-/ absolute / inch / decimal}
; #@! TF.CreationDate,2020-08-09T19:32:53-07:00
; #@! TF.GenerationSoftware,Kicad,Pcbnew,(5.1.6-0-10_14)
; #@! TF.FileFunction,Plated,1,2,PTH
FMAT,2
INCH
T1C0.0157
T2C0.0197
T3C0.0315
T4C0.0394
%
G90
G05
T1
X6.19Y-1.55
X6.19Y-1.95
X6.28Y-2.39
X6.32Y-1.59
T3
X5.81Y-1.8
X5.81Y-2.1
X5.91Y-1.8
X5.91Y-2.1
X6.01Y-1.8
X6.01Y-2.1
X6.11Y-1.8
X6.11Y-2.1
X5.86Y-1.35
X5.86Y-1.65
X5.86Y-2.25
X5.86Y-2.55
X5.9616Y-2.25
X6.06Y-2.25
X5.9616Y-1.65
X6.06Y-1.65
T4
X6.39Y-1.7
X6.39Y-1.8
X6.39Y-1.9
X6.39Y-2.0
X6.39Y-2.1
X6.39Y-2.2
X5.9Y-2.8
X5.9Y-2.9
X6.0Y-2.8
X6.0Y-2.9
X6.1Y-2.8
X6.1Y-2.9
X6.2Y-2.8
X6.2Y-2.9
X6.3Y-2.8
X6.3Y-2.9
X5.9Y-1.0
X5.9Y-1.1
X6.0Y-1.0
X6.0Y-1.1
X6.1Y-1.0
X6.1Y-1.1
X6.2Y-1.0
X6.2Y-1.1
X6.3Y-1.0
X6.3Y-1.1
T2
G00X5.96Y-1.3603
M15
G01X5.96Y-1.3997
M16
G05
G00X6.0369Y-1.3603
M15
G01X6.0369Y-1.3997
M16
G05
G00X6.3637Y-1.3603
M15
G01X6.3637Y-1.3997
M16
G05
G00X5.96Y-2.5003
M15
G01X5.96Y-2.5397
M16
G05
G00X6.0369Y-2.5003
M15
G01X6.0369Y-2.5397
M16
G05
G00X6.3637Y-2.5003
M15
G01X6.3637Y-2.5397
M16
G05
T0
M30
