%TF.GenerationSoftware,KiCad,Pcbnew,(5.1.6-0-10_14)*%
%TF.CreationDate,2020-08-09T19:32:51-07:00*%
%TF.ProjectId,bbf-buffer,6262662d-6275-4666-9665-722e6b696361,rev?*%
%TF.SameCoordinates,Original*%
%TF.FileFunction,Copper,L1,Top*%
%TF.FilePolarity,Positive*%
%FSLAX46Y46*%
G04 Gerber Fmt 4.6, Leading zero omitted, Abs format (unit mm)*
G04 Created by KiCad (PCBNEW (5.1.6-0-10_14)) date 2020-08-09 19:32:51*
%MOMM*%
%LPD*%
G01*
G04 APERTURE LIST*
%TA.AperFunction,ComponentPad*%
%ADD10R,1.700000X1.700000*%
%TD*%
%TA.AperFunction,ComponentPad*%
%ADD11O,1.700000X1.700000*%
%TD*%
%TA.AperFunction,ComponentPad*%
%ADD12R,1.600000X1.600000*%
%TD*%
%TA.AperFunction,ComponentPad*%
%ADD13O,1.600000X1.600000*%
%TD*%
%TA.AperFunction,ComponentPad*%
%ADD14C,1.600000*%
%TD*%
%TA.AperFunction,ViaPad*%
%ADD15C,0.800000*%
%TD*%
%TA.AperFunction,Conductor*%
%ADD16C,0.400000*%
%TD*%
%TA.AperFunction,Conductor*%
%ADD17C,0.250000*%
%TD*%
G04 APERTURE END LIST*
D10*
%TO.P,J2,1*%
%TO.N,GND*%
X160020000Y-27940000D03*
D11*
%TO.P,J2,2*%
%TO.N,+12V*%
X160020000Y-25400000D03*
%TO.P,J2,3*%
%TO.N,GND*%
X157480000Y-27940000D03*
%TO.P,J2,4*%
%TO.N,+12V*%
X157480000Y-25400000D03*
%TO.P,J2,5*%
%TO.N,GND*%
X154940000Y-27940000D03*
%TO.P,J2,6*%
%TO.N,+12V*%
X154940000Y-25400000D03*
%TO.P,J2,7*%
%TO.N,GND*%
X152400000Y-27940000D03*
%TO.P,J2,8*%
%TO.N,+12V*%
X152400000Y-25400000D03*
%TO.P,J2,9*%
%TO.N,GND*%
X149860000Y-27940000D03*
%TO.P,J2,10*%
%TO.N,+12V*%
X149860000Y-25400000D03*
%TD*%
%TO.P,J1,10*%
%TO.N,GND*%
X149860000Y-71120000D03*
%TO.P,J1,9*%
%TO.N,-12V*%
X149860000Y-73660000D03*
%TO.P,J1,8*%
%TO.N,GND*%
X152400000Y-71120000D03*
%TO.P,J1,7*%
%TO.N,-12V*%
X152400000Y-73660000D03*
%TO.P,J1,6*%
%TO.N,GND*%
X154940000Y-71120000D03*
%TO.P,J1,5*%
%TO.N,-12V*%
X154940000Y-73660000D03*
%TO.P,J1,4*%
%TO.N,GND*%
X157480000Y-71120000D03*
%TO.P,J1,3*%
%TO.N,-12V*%
X157480000Y-73660000D03*
%TO.P,J1,2*%
%TO.N,GND*%
X160020000Y-71120000D03*
D10*
%TO.P,J1,1*%
%TO.N,-12V*%
X160020000Y-73660000D03*
%TD*%
%TO.P,J3,1*%
%TO.N,Net-(J3-Pad1)*%
X162306000Y-43180000D03*
D11*
%TO.P,J3,2*%
%TO.N,Net-(J3-Pad2)*%
X162306000Y-45720000D03*
%TO.P,J3,3*%
%TO.N,Net-(J3-Pad3)*%
X162306000Y-48260000D03*
%TO.P,J3,4*%
%TO.N,Net-(J3-Pad4)*%
X162306000Y-50800000D03*
%TO.P,J3,5*%
%TO.N,Net-(J3-Pad5)*%
X162306000Y-53340000D03*
%TO.P,J3,6*%
%TO.N,Net-(J3-Pad6)*%
X162306000Y-55880000D03*
%TD*%
%TO.P,J4,T*%
%TO.N,Net-(J3-Pad2)*%
%TA.AperFunction,ComponentPad*%
G36*
G01*
X161388000Y-33802000D02*
X161888000Y-33802000D01*
G75*
G02*
X162138000Y-34052000I0J-250000D01*
G01*
X162138000Y-36052000D01*
G75*
G02*
X161888000Y-36302000I-250000J0D01*
G01*
X161388000Y-36302000D01*
G75*
G02*
X161138000Y-36052000I0J250000D01*
G01*
X161138000Y-34052000D01*
G75*
G02*
X161388000Y-33802000I250000J0D01*
G01*
G37*
%TD.AperFunction*%
%TO.P,J4,TN*%
%TO.N,N/C*%
%TA.AperFunction,ComponentPad*%
G36*
G01*
X153088000Y-33802000D02*
X153588000Y-33802000D01*
G75*
G02*
X153838000Y-34052000I0J-250000D01*
G01*
X153838000Y-36052000D01*
G75*
G02*
X153588000Y-36302000I-250000J0D01*
G01*
X153088000Y-36302000D01*
G75*
G02*
X152838000Y-36052000I0J250000D01*
G01*
X152838000Y-34052000D01*
G75*
G02*
X153088000Y-33802000I250000J0D01*
G01*
G37*
%TD.AperFunction*%
%TO.P,J4,S*%
%TO.N,GND*%
%TA.AperFunction,ComponentPad*%
G36*
G01*
X151134000Y-33802000D02*
X151634000Y-33802000D01*
G75*
G02*
X151884000Y-34052000I0J-250000D01*
G01*
X151884000Y-36052000D01*
G75*
G02*
X151634000Y-36302000I-250000J0D01*
G01*
X151134000Y-36302000D01*
G75*
G02*
X150884000Y-36052000I0J250000D01*
G01*
X150884000Y-34052000D01*
G75*
G02*
X151134000Y-33802000I250000J0D01*
G01*
G37*
%TD.AperFunction*%
%TD*%
%TO.P,J5,S*%
%TO.N,GND*%
%TA.AperFunction,ComponentPad*%
G36*
G01*
X151134000Y-62758000D02*
X151634000Y-62758000D01*
G75*
G02*
X151884000Y-63008000I0J-250000D01*
G01*
X151884000Y-65008000D01*
G75*
G02*
X151634000Y-65258000I-250000J0D01*
G01*
X151134000Y-65258000D01*
G75*
G02*
X150884000Y-65008000I0J250000D01*
G01*
X150884000Y-63008000D01*
G75*
G02*
X151134000Y-62758000I250000J0D01*
G01*
G37*
%TD.AperFunction*%
%TO.P,J5,TN*%
%TO.N,N/C*%
%TA.AperFunction,ComponentPad*%
G36*
G01*
X153088000Y-62758000D02*
X153588000Y-62758000D01*
G75*
G02*
X153838000Y-63008000I0J-250000D01*
G01*
X153838000Y-65008000D01*
G75*
G02*
X153588000Y-65258000I-250000J0D01*
G01*
X153088000Y-65258000D01*
G75*
G02*
X152838000Y-65008000I0J250000D01*
G01*
X152838000Y-63008000D01*
G75*
G02*
X153088000Y-62758000I250000J0D01*
G01*
G37*
%TD.AperFunction*%
%TO.P,J5,T*%
%TO.N,Net-(J3-Pad5)*%
%TA.AperFunction,ComponentPad*%
G36*
G01*
X161388000Y-62758000D02*
X161888000Y-62758000D01*
G75*
G02*
X162138000Y-63008000I0J-250000D01*
G01*
X162138000Y-65008000D01*
G75*
G02*
X161888000Y-65258000I-250000J0D01*
G01*
X161388000Y-65258000D01*
G75*
G02*
X161138000Y-65008000I0J250000D01*
G01*
X161138000Y-63008000D01*
G75*
G02*
X161388000Y-62758000I250000J0D01*
G01*
G37*
%TD.AperFunction*%
%TD*%
D12*
%TO.P,TL072,1*%
%TO.N,Net-(R1-Pad1)*%
X155194000Y-45720000D03*
D13*
%TO.P,TL072,5*%
%TO.N,Net-(J3-Pad4)*%
X147574000Y-53340000D03*
%TO.P,TL072,2*%
%TO.N,Net-(R1-Pad1)*%
X152654000Y-45720000D03*
%TO.P,TL072,6*%
%TO.N,Net-(R2-Pad1)*%
X150114000Y-53340000D03*
%TO.P,TL072,3*%
%TO.N,Net-(J3-Pad1)*%
X150114000Y-45720000D03*
%TO.P,TL072,7*%
%TO.N,Net-(R2-Pad1)*%
X152654000Y-53340000D03*
%TO.P,TL072,4*%
%TO.N,-12V*%
X147574000Y-45720000D03*
%TO.P,TL072,8*%
%TO.N,+12V*%
X155194000Y-53340000D03*
%TD*%
D14*
%TO.P,C1,2*%
%TO.N,GND*%
X151424000Y-57150000D03*
%TO.P,C1,1*%
%TO.N,+12V*%
X153924000Y-57150000D03*
%TD*%
%TO.P,C2,1*%
%TO.N,GND*%
X153924000Y-41910000D03*
%TO.P,C2,2*%
%TO.N,-12V*%
X151424000Y-41910000D03*
%TD*%
%TO.P,R1,1*%
%TO.N,Net-(R1-Pad1)*%
X148844000Y-41910000D03*
D13*
%TO.P,R1,2*%
%TO.N,Net-(J3-Pad3)*%
X148844000Y-34290000D03*
%TD*%
%TO.P,R2,2*%
%TO.N,Net-(J3-Pad6)*%
X148844000Y-64770000D03*
D14*
%TO.P,R2,1*%
%TO.N,Net-(R2-Pad1)*%
X148844000Y-57150000D03*
%TD*%
D15*
%TO.N,+12V*%
X157226000Y-39370000D03*
%TO.N,-12V*%
X159512000Y-60706000D03*
X157226000Y-49530000D03*
%TO.N,Net-(J3-Pad3)*%
X160528000Y-40386000D03*
%TD*%
D16*
%TO.N,+12V*%
X149860000Y-25400000D02*
X152400000Y-25400000D01*
X152400000Y-25400000D02*
X154940000Y-25400000D01*
X154940000Y-25400000D02*
X157480000Y-25400000D01*
X157480000Y-25400000D02*
X160020000Y-25400000D01*
X160020000Y-36576000D02*
X157226000Y-39370000D01*
X161320001Y-29150001D02*
X160020000Y-30450002D01*
X160020000Y-25400000D02*
X161320001Y-26700001D01*
X160020000Y-30450002D02*
X160020000Y-36576000D01*
X161320001Y-26700001D02*
X161320001Y-29150001D01*
X155194000Y-55880000D02*
X153924000Y-57150000D01*
X155194000Y-53340000D02*
X155194000Y-55880000D01*
%TO.N,-12V*%
X149860000Y-73660000D02*
X152400000Y-73660000D01*
X152400000Y-73660000D02*
X154940000Y-73660000D01*
X154940000Y-73660000D02*
X157480000Y-73660000D01*
X157480000Y-73660000D02*
X160020000Y-73660000D01*
X151384000Y-41910000D02*
X151424000Y-41910000D01*
X147574000Y-45720000D02*
X151384000Y-41910000D01*
X161320001Y-72359999D02*
X161320001Y-70495999D01*
X159512000Y-68687998D02*
X159512000Y-60706000D01*
X161320001Y-70495999D02*
X159512000Y-68687998D01*
X160020000Y-73660000D02*
X161320001Y-72359999D01*
X151384000Y-49530000D02*
X147574000Y-45720000D01*
X157226000Y-49530000D02*
X151384000Y-49530000D01*
D17*
%TO.N,Net-(J3-Pad1)*%
X152654000Y-43180000D02*
X150114000Y-45720000D01*
X162306000Y-43180000D02*
X152654000Y-43180000D01*
%TO.N,Net-(J3-Pad2)*%
X163531001Y-36945001D02*
X161638000Y-35052000D01*
X163531001Y-44494999D02*
X163531001Y-36945001D01*
X162306000Y-45720000D02*
X163531001Y-44494999D01*
%TO.N,Net-(J3-Pad3)*%
X148844000Y-34645900D02*
X148844000Y-34290000D01*
X154584100Y-40386000D02*
X148844000Y-34645900D01*
X160528000Y-40386000D02*
X154584100Y-40386000D01*
%TO.N,Net-(J3-Pad4)*%
X150114000Y-50800000D02*
X162306000Y-50800000D01*
X147574000Y-53340000D02*
X150114000Y-50800000D01*
%TO.N,Net-(J3-Pad5)*%
X163581001Y-62064999D02*
X161638000Y-64008000D01*
X163581001Y-54615001D02*
X163581001Y-62064999D01*
X162306000Y-53340000D02*
X163581001Y-54615001D01*
%TO.N,Net-(J3-Pad6)*%
X148844000Y-63638630D02*
X152538630Y-59944000D01*
X148844000Y-64770000D02*
X148844000Y-63638630D01*
X158242000Y-59944000D02*
X162306000Y-55880000D01*
X152538630Y-59944000D02*
X158242000Y-59944000D01*
%TO.N,Net-(R1-Pad1)*%
X152654000Y-45720000D02*
X155194000Y-45720000D01*
%TO.N,Net-(R2-Pad1)*%
X148844000Y-54610000D02*
X150114000Y-53340000D01*
X148844000Y-57150000D02*
X148844000Y-54610000D01*
X150114000Y-53340000D02*
X152654000Y-53340000D01*
%TD*%
M02*
