M48
; DRILL file {KiCad (5.1.5)-3} date 3/15/2020 10:52:20 AM
; FORMAT={-:-/ absolute / inch / decimal}
; #@! TF.CreationDate,2020-03-15T10:52:20-07:00
; #@! TF.GenerationSoftware,Kicad,Pcbnew,(5.1.5)-3
; #@! TF.FileFunction,Plated,1,2,PTH
FMAT,2
INCH
T1C0.0320
T2C0.0354
T3C0.0400
T4C0.1024
%
G90
G05
T1
X5.5715Y-3.7338
X5.6715Y-3.7338
X5.4715Y-4.2338
X5.4715Y-4.5338
X5.5715Y-4.2338
X5.5715Y-4.5338
X5.6715Y-4.2338
X5.6715Y-4.5338
X5.7715Y-4.2338
X5.7715Y-4.5338
X5.5215Y-3.9838
X5.5215Y-4.0838
X5.534Y-4.7338
X5.534Y-4.8338
X6.1215Y-4.4338
X6.1215Y-4.5338
X5.534Y-3.4338
X5.534Y-3.5338
X5.8965Y-4.3338
X5.8965Y-4.4338
X5.7965Y-3.4338
X5.7965Y-3.5338
X5.7965Y-3.9838
X5.7965Y-4.0838
X5.7965Y-4.7338
X5.7965Y-4.8338
T2
X5.9215Y-4.1588
X6.2215Y-4.1588
T3
X5.5965Y-3.1838
X5.5965Y-3.2838
X5.6965Y-3.1838
X5.6965Y-3.2838
X5.7965Y-3.1838
X5.7965Y-3.2838
X5.8965Y-3.1838
X5.8965Y-3.2838
X5.9965Y-3.1838
X5.9965Y-3.2838
X6.1465Y-4.8338
X6.1465Y-4.9338
X6.1465Y-5.0338
X5.5965Y-4.9838
X5.5965Y-5.0838
X5.6965Y-4.9838
X5.6965Y-5.0838
X5.7965Y-4.9838
X5.7965Y-5.0838
X5.8965Y-4.9838
X5.8965Y-5.0838
X5.9965Y-4.9838
X5.9965Y-5.0838
X6.1465Y-3.2338
X6.1465Y-3.3338
X6.1465Y-3.4338
T4
X5.9284Y-3.8338
X6.0465Y-3.6448
X6.1646Y-3.8338
T0
M30
