G04 #@! TF.GenerationSoftware,KiCad,Pcbnew,(5.1.5)-3*
G04 #@! TF.CreationDate,2020-03-15T10:52:14-07:00*
G04 #@! TF.ProjectId,bbf-supply_v1,6262662d-7375-4707-906c-795f76312e6b,rev?*
G04 #@! TF.SameCoordinates,Original*
G04 #@! TF.FileFunction,Legend,Top*
G04 #@! TF.FilePolarity,Positive*
%FSLAX46Y46*%
G04 Gerber Fmt 4.6, Leading zero omitted, Abs format (unit mm)*
G04 Created by KiCad (PCBNEW (5.1.5)-3) date 2020-03-15 10:52:14*
%MOMM*%
%LPD*%
G04 APERTURE LIST*
%ADD10C,0.152400*%
%ADD11C,0.121920*%
%ADD12C,0.106680*%
%ADD13C,0.100000*%
%ADD14C,0.254000*%
%ADD15C,0.203200*%
%ADD16C,0.077216*%
%ADD17C,0.096520*%
%ADD18C,0.115824*%
%ADD19C,4.013200*%
%ADD20O,1.625600X3.048000*%
%ADD21C,1.803400*%
%ADD22O,3.454400X1.828800*%
%ADD23C,1.712800*%
%ADD24R,1.712800X1.712800*%
%ADD25C,1.625600*%
%ADD26C,2.082800*%
G04 APERTURE END LIST*
D10*
X139622469Y-81089942D02*
X140357860Y-81089942D01*
X139990164Y-81457638D02*
X139990164Y-80722247D01*
X139622469Y-129349942D02*
X140357860Y-129349942D01*
X138858050Y-126258400D02*
X138766126Y-126212438D01*
X138628240Y-126212438D01*
X138490355Y-126258400D01*
X138398431Y-126350323D01*
X138352469Y-126442247D01*
X138306507Y-126626095D01*
X138306507Y-126763980D01*
X138352469Y-126947828D01*
X138398431Y-127039752D01*
X138490355Y-127131676D01*
X138628240Y-127177638D01*
X138720164Y-127177638D01*
X138858050Y-127131676D01*
X138904012Y-127085714D01*
X138904012Y-126763980D01*
X138720164Y-126763980D01*
X139317669Y-127177638D02*
X139317669Y-126212438D01*
X139869212Y-127177638D01*
X139869212Y-126212438D01*
X140328831Y-127177638D02*
X140328831Y-126212438D01*
X140558640Y-126212438D01*
X140696526Y-126258400D01*
X140788450Y-126350323D01*
X140834412Y-126442247D01*
X140880374Y-126626095D01*
X140880374Y-126763980D01*
X140834412Y-126947828D01*
X140788450Y-127039752D01*
X140696526Y-127131676D01*
X140558640Y-127177638D01*
X140328831Y-127177638D01*
X138858050Y-83078400D02*
X138766126Y-83032438D01*
X138628240Y-83032438D01*
X138490355Y-83078400D01*
X138398431Y-83170323D01*
X138352469Y-83262247D01*
X138306507Y-83446095D01*
X138306507Y-83583980D01*
X138352469Y-83767828D01*
X138398431Y-83859752D01*
X138490355Y-83951676D01*
X138628240Y-83997638D01*
X138720164Y-83997638D01*
X138858050Y-83951676D01*
X138904012Y-83905714D01*
X138904012Y-83583980D01*
X138720164Y-83583980D01*
X139317669Y-83997638D02*
X139317669Y-83032438D01*
X139869212Y-83997638D01*
X139869212Y-83032438D01*
X140328831Y-83997638D02*
X140328831Y-83032438D01*
X140558640Y-83032438D01*
X140696526Y-83078400D01*
X140788450Y-83170323D01*
X140834412Y-83262247D01*
X140880374Y-83446095D01*
X140880374Y-83583980D01*
X140834412Y-83767828D01*
X140788450Y-83859752D01*
X140696526Y-83951676D01*
X140558640Y-83997638D01*
X140328831Y-83997638D01*
D11*
X152270121Y-108100060D02*
X152196582Y-108136830D01*
X152049504Y-108136830D01*
X151975965Y-108100060D01*
X151939195Y-108063291D01*
X151902426Y-107989752D01*
X151902426Y-107769135D01*
X151939195Y-107695596D01*
X151975965Y-107658826D01*
X152049504Y-107622057D01*
X152196582Y-107622057D01*
X152270121Y-107658826D01*
X152931972Y-108100060D02*
X152858433Y-108136830D01*
X152711355Y-108136830D01*
X152637816Y-108100060D01*
X152601047Y-108063291D01*
X152564277Y-107989752D01*
X152564277Y-107769135D01*
X152601047Y-107695596D01*
X152637816Y-107658826D01*
X152711355Y-107622057D01*
X152858433Y-107622057D01*
X152931972Y-107658826D01*
X153262898Y-107842674D02*
X153851210Y-107842674D01*
X154218906Y-108136830D02*
X154218906Y-107364670D01*
X154218906Y-107658826D02*
X154292445Y-107622057D01*
X154439523Y-107622057D01*
X154513062Y-107658826D01*
X154549831Y-107695596D01*
X154586601Y-107769135D01*
X154586601Y-107989752D01*
X154549831Y-108063291D01*
X154513062Y-108100060D01*
X154439523Y-108136830D01*
X154292445Y-108136830D01*
X154218906Y-108100060D01*
X154843988Y-107622057D02*
X155027835Y-108136830D01*
X155211683Y-107622057D02*
X155027835Y-108136830D01*
X154954296Y-108320678D01*
X154917527Y-108357447D01*
X154843988Y-108394217D01*
X155505839Y-107842674D02*
X156094151Y-107842674D01*
X156425077Y-108100060D02*
X156498616Y-108136830D01*
X156645694Y-108136830D01*
X156719233Y-108100060D01*
X156756003Y-108026521D01*
X156756003Y-107989752D01*
X156719233Y-107916213D01*
X156645694Y-107879443D01*
X156535386Y-107879443D01*
X156461847Y-107842674D01*
X156425077Y-107769135D01*
X156425077Y-107732365D01*
X156461847Y-107658826D01*
X156535386Y-107622057D01*
X156645694Y-107622057D01*
X156719233Y-107658826D01*
X157417854Y-108136830D02*
X157417854Y-107732365D01*
X157381085Y-107658826D01*
X157307546Y-107622057D01*
X157160468Y-107622057D01*
X157086928Y-107658826D01*
X157417854Y-108100060D02*
X157344315Y-108136830D01*
X157160468Y-108136830D01*
X157086928Y-108100060D01*
X157050159Y-108026521D01*
X157050159Y-107952982D01*
X157086928Y-107879443D01*
X157160468Y-107842674D01*
X157344315Y-107842674D01*
X157417854Y-107805904D01*
D12*
X151906308Y-109057520D02*
X152131522Y-109057520D01*
X152228042Y-109411426D02*
X151906308Y-109411426D01*
X151906308Y-108735786D01*
X152228042Y-108735786D01*
X152131522Y-108478400D02*
X152035002Y-108574920D01*
X152517602Y-109411426D02*
X152517602Y-108961000D01*
X152517602Y-109025346D02*
X152549775Y-108993173D01*
X152614122Y-108961000D01*
X152710642Y-108961000D01*
X152774988Y-108993173D01*
X152807162Y-109057520D01*
X152807162Y-109411426D01*
X152807162Y-109057520D02*
X152839335Y-108993173D01*
X152903682Y-108961000D01*
X153000202Y-108961000D01*
X153064548Y-108993173D01*
X153096722Y-109057520D01*
X153096722Y-109411426D01*
X153418455Y-109411426D02*
X153418455Y-108961000D01*
X153418455Y-108735786D02*
X153386282Y-108767960D01*
X153418455Y-108800133D01*
X153450628Y-108767960D01*
X153418455Y-108735786D01*
X153418455Y-108800133D01*
X153836708Y-109411426D02*
X153772362Y-109379253D01*
X153740188Y-109314906D01*
X153740188Y-108735786D01*
X154094095Y-109411426D02*
X154094095Y-108961000D01*
X154094095Y-108735786D02*
X154061922Y-108767960D01*
X154094095Y-108800133D01*
X154126268Y-108767960D01*
X154094095Y-108735786D01*
X154094095Y-108800133D01*
X154673215Y-109379253D02*
X154608868Y-109411426D01*
X154480175Y-109411426D01*
X154415828Y-109379253D01*
X154383655Y-109314906D01*
X154383655Y-109057520D01*
X154415828Y-108993173D01*
X154480175Y-108961000D01*
X154608868Y-108961000D01*
X154673215Y-108993173D01*
X154705388Y-109057520D01*
X154705388Y-109121866D01*
X154383655Y-109186213D01*
X155863628Y-108767960D02*
X155799282Y-108735786D01*
X155702762Y-108735786D01*
X155606242Y-108767960D01*
X155541895Y-108832306D01*
X155509722Y-108896653D01*
X155477548Y-109025346D01*
X155477548Y-109121866D01*
X155509722Y-109250560D01*
X155541895Y-109314906D01*
X155606242Y-109379253D01*
X155702762Y-109411426D01*
X155767108Y-109411426D01*
X155863628Y-109379253D01*
X155895802Y-109347080D01*
X155895802Y-109121866D01*
X155767108Y-109121866D01*
X156185362Y-109411426D02*
X156185362Y-108961000D01*
X156185362Y-108735786D02*
X156153188Y-108767960D01*
X156185362Y-108800133D01*
X156217535Y-108767960D01*
X156185362Y-108735786D01*
X156185362Y-108800133D01*
X156603615Y-109411426D02*
X156539268Y-109379253D01*
X156507095Y-109314906D01*
X156507095Y-108735786D01*
X156957522Y-109411426D02*
X156893175Y-109379253D01*
X156861002Y-109314906D01*
X156861002Y-108735786D01*
X157472295Y-109379253D02*
X157407948Y-109411426D01*
X157279255Y-109411426D01*
X157214908Y-109379253D01*
X157182735Y-109314906D01*
X157182735Y-109057520D01*
X157214908Y-108993173D01*
X157279255Y-108961000D01*
X157407948Y-108961000D01*
X157472295Y-108993173D01*
X157504468Y-109057520D01*
X157504468Y-109121866D01*
X157182735Y-109186213D01*
X157697508Y-108961000D02*
X157954895Y-108961000D01*
X157794028Y-108735786D02*
X157794028Y-109314906D01*
X157826202Y-109379253D01*
X157890548Y-109411426D01*
X157954895Y-109411426D01*
D13*
G04 #@! TO.C,J1*
X152331100Y-94648600D02*
X152331100Y-101378600D01*
X164331100Y-92878600D02*
X156141100Y-92878600D01*
X150831100Y-93378600D02*
X150331100Y-93378600D01*
X150331100Y-99728600D02*
X150331100Y-101378600D01*
X150331100Y-93378600D02*
X150331100Y-95028600D01*
X150831100Y-93378600D02*
X150831100Y-95028600D01*
X150831100Y-99728600D02*
X150831100Y-101378600D01*
X162331100Y-96128600D02*
G75*
G02X162331100Y-98628600I0J-1250000D01*
G01*
X155331100Y-94178600D02*
X155331100Y-100578600D01*
X164331100Y-94178600D02*
X155331100Y-94178600D01*
X164331100Y-100578600D02*
X155331100Y-100578600D01*
X150831100Y-101378600D02*
X150331100Y-101378600D01*
X152331100Y-101378600D02*
X150831100Y-101378600D01*
X164331100Y-101878600D02*
X152331100Y-101878600D01*
X152331100Y-101378600D02*
X152331100Y-101878600D01*
X160831100Y-101378600D02*
X152331100Y-101378600D01*
X160831100Y-101378600D02*
X160831100Y-101878600D01*
X160831100Y-92878600D02*
X160831100Y-101378600D01*
X164331100Y-100578600D02*
X164331100Y-101878600D01*
X164331100Y-94178600D02*
X164331100Y-100578600D01*
X164331100Y-92878600D02*
X164331100Y-94178600D01*
D10*
G04 #@! TO.C,IC2*
X147866100Y-110332600D02*
G75*
G03X147866100Y-112364600I0J-1016000D01*
G01*
X147866100Y-108427600D02*
X147866100Y-110332600D01*
X147866100Y-114269600D02*
X147866100Y-112364600D01*
X137706100Y-114269600D02*
X137706100Y-108427600D01*
X147866100Y-108427600D02*
X137706100Y-108427600D01*
X137706100Y-114269600D02*
X147866100Y-114269600D01*
G04 #@! TO.C,C4*
X143040100Y-102458600D02*
G75*
G03X143040100Y-102458600I-2794000J0D01*
G01*
X138976100Y-104109600D02*
X138595100Y-104109600D01*
X138976100Y-104109600D02*
X138976100Y-103728600D01*
X139357100Y-104109600D02*
X138976100Y-104109600D01*
X138976100Y-104490600D02*
X138976100Y-104109600D01*
G04 #@! TO.C,C2*
X150660100Y-88488600D02*
G75*
G03X150660100Y-88488600I-3429000J0D01*
G01*
X146850100Y-85821600D02*
X147612100Y-85821600D01*
X147231100Y-85440600D02*
X147231100Y-86202600D01*
G04 #@! TO.C,C9*
X150660100Y-121508600D02*
G75*
G03X150660100Y-121508600I-3429000J0D01*
G01*
X146850100Y-118841600D02*
X147612100Y-118841600D01*
X147231100Y-118460600D02*
X147231100Y-119222600D01*
D13*
G04 #@! TO.C,IC3*
G36*
X157391100Y-128747600D02*
G01*
X157391100Y-130652600D01*
X158661100Y-130652600D01*
X158661100Y-128747600D01*
X157391100Y-128747600D01*
G37*
G36*
X157899100Y-126969600D02*
G01*
X157899100Y-128747600D01*
X158661100Y-128747600D01*
X158661100Y-126969600D01*
X157899100Y-126969600D01*
G37*
G36*
X157391100Y-126207600D02*
G01*
X157391100Y-126969600D01*
X158661100Y-126969600D01*
X158661100Y-126207600D01*
X157391100Y-126207600D01*
G37*
G36*
X157899100Y-124429600D02*
G01*
X157899100Y-126207600D01*
X158661100Y-126207600D01*
X158661100Y-124429600D01*
X157899100Y-124429600D01*
G37*
G36*
X157391100Y-123667600D02*
G01*
X157391100Y-124429600D01*
X158661100Y-124429600D01*
X158661100Y-123667600D01*
X157391100Y-123667600D01*
G37*
G36*
X157899100Y-121889600D02*
G01*
X157899100Y-123667600D01*
X158661100Y-123667600D01*
X158661100Y-121889600D01*
X157899100Y-121889600D01*
G37*
G36*
X157391100Y-119984600D02*
G01*
X157391100Y-121889600D01*
X158661100Y-121889600D01*
X158661100Y-119984600D01*
X157391100Y-119984600D01*
G37*
D14*
X155079700Y-120695800D02*
G75*
G03X155079700Y-120695800I-127000J0D01*
G01*
D10*
X154597100Y-120238600D02*
X157518100Y-120238600D01*
X157518100Y-130398600D02*
X154597100Y-130398600D01*
X154597100Y-120238600D02*
X154343100Y-120492600D01*
X154343100Y-130144600D02*
X154343100Y-120492600D01*
X154343100Y-130144600D02*
X154597100Y-130398600D01*
G04 #@! TO.C,C3*
X146215100Y-94838600D02*
G75*
G03X146215100Y-94838600I-3429000J0D01*
G01*
X145453100Y-94457600D02*
X145453100Y-95219600D01*
X145834100Y-94838600D02*
X145072100Y-94838600D01*
G04 #@! TO.C,C7*
X158915100Y-113888600D02*
G75*
G03X158915100Y-113888600I-3429000J0D01*
G01*
X155105100Y-111221600D02*
X155867100Y-111221600D01*
X155486100Y-110840600D02*
X155486100Y-111602600D01*
D13*
G04 #@! TO.C,IC1*
G36*
X157391100Y-88107600D02*
G01*
X157391100Y-90012600D01*
X158661100Y-90012600D01*
X158661100Y-88107600D01*
X157391100Y-88107600D01*
G37*
G36*
X157899100Y-86329600D02*
G01*
X157899100Y-88107600D01*
X158661100Y-88107600D01*
X158661100Y-86329600D01*
X157899100Y-86329600D01*
G37*
G36*
X157391100Y-85567600D02*
G01*
X157391100Y-86329600D01*
X158661100Y-86329600D01*
X158661100Y-85567600D01*
X157391100Y-85567600D01*
G37*
G36*
X157899100Y-83789600D02*
G01*
X157899100Y-85567600D01*
X158661100Y-85567600D01*
X158661100Y-83789600D01*
X157899100Y-83789600D01*
G37*
G36*
X157391100Y-83027600D02*
G01*
X157391100Y-83789600D01*
X158661100Y-83789600D01*
X158661100Y-83027600D01*
X157391100Y-83027600D01*
G37*
G36*
X157899100Y-81249600D02*
G01*
X157899100Y-83027600D01*
X158661100Y-83027600D01*
X158661100Y-81249600D01*
X157899100Y-81249600D01*
G37*
G36*
X157391100Y-79344600D02*
G01*
X157391100Y-81249600D01*
X158661100Y-81249600D01*
X158661100Y-79344600D01*
X157391100Y-79344600D01*
G37*
D14*
X155079700Y-80055800D02*
G75*
G03X155079700Y-80055800I-127000J0D01*
G01*
D10*
X154597100Y-79598600D02*
X157518100Y-79598600D01*
X157518100Y-89758600D02*
X154597100Y-89758600D01*
X154597100Y-79598600D02*
X154343100Y-79852600D01*
X154343100Y-89504600D02*
X154343100Y-79852600D01*
X154343100Y-89504600D02*
X154597100Y-89758600D01*
D13*
G04 #@! TO.C,D1*
G36*
X152184100Y-105252600D02*
G01*
X151803100Y-105252600D01*
X151803100Y-106014600D01*
X152184100Y-106014600D01*
X152184100Y-105252600D01*
G37*
G36*
X156629100Y-105252600D02*
G01*
X156248100Y-105252600D01*
X156248100Y-106014600D01*
X156629100Y-106014600D01*
X156629100Y-105252600D01*
G37*
G36*
X155867100Y-104363600D02*
G01*
X155359100Y-104363600D01*
X155359100Y-106903600D01*
X155867100Y-106903600D01*
X155867100Y-104363600D01*
G37*
D10*
X156248100Y-106903600D02*
X156248100Y-104363600D01*
X156248100Y-106903600D02*
X152184100Y-106903600D01*
X152184100Y-104363600D02*
X152184100Y-106903600D01*
X152184100Y-104363600D02*
X156248100Y-104363600D01*
G04 #@! TO.C,C6*
X149771100Y-111094600D02*
X149771100Y-110967600D01*
D14*
X149771100Y-111094600D02*
X149009100Y-111094600D01*
X150533100Y-111094600D02*
X149771100Y-111094600D01*
X149771100Y-111602600D02*
X149009100Y-111602600D01*
X149771100Y-111602600D02*
X150533100Y-111602600D01*
D10*
X149771100Y-111729600D02*
X149771100Y-111602600D01*
X148501100Y-109189600D02*
G75*
G02X148755100Y-108935600I254000J0D01*
G01*
X148755100Y-113761600D02*
G75*
G02X148501100Y-113507600I0J254000D01*
G01*
X151041100Y-109189600D02*
G75*
G03X150787100Y-108935600I-254000J0D01*
G01*
X150787100Y-113761600D02*
G75*
G03X151041100Y-113507600I0J254000D01*
G01*
X150787100Y-108935600D02*
X148755100Y-108935600D01*
X150787100Y-113761600D02*
X148755100Y-113761600D01*
X148501100Y-113507600D02*
X148501100Y-109189600D01*
X151041100Y-109189600D02*
X151041100Y-113507600D01*
G04 #@! TO.C,C5*
X149771100Y-102458600D02*
G75*
G03X149771100Y-102458600I-2540000J0D01*
G01*
X145961100Y-103855600D02*
X145707100Y-103855600D01*
X145961100Y-103855600D02*
X145961100Y-103601600D01*
X146215100Y-103855600D02*
X145961100Y-103855600D01*
X145961100Y-104109600D02*
X145961100Y-103855600D01*
G04 #@! TO.C,C1*
X140563600Y-88234600D02*
X140563600Y-88107600D01*
D14*
X140563600Y-88234600D02*
X139801600Y-88234600D01*
X141325600Y-88234600D02*
X140563600Y-88234600D01*
X140563600Y-88742600D02*
X139801600Y-88742600D01*
X140563600Y-88742600D02*
X141325600Y-88742600D01*
D10*
X140563600Y-88869600D02*
X140563600Y-88742600D01*
X139293600Y-86329600D02*
G75*
G02X139547600Y-86075600I254000J0D01*
G01*
X139547600Y-90901600D02*
G75*
G02X139293600Y-90647600I0J254000D01*
G01*
X141833600Y-86329600D02*
G75*
G03X141579600Y-86075600I-254000J0D01*
G01*
X141579600Y-90901600D02*
G75*
G03X141833600Y-90647600I0J254000D01*
G01*
X141579600Y-86075600D02*
X139547600Y-86075600D01*
X141579600Y-90901600D02*
X139547600Y-90901600D01*
X139293600Y-90647600D02*
X139293600Y-86329600D01*
X141833600Y-86329600D02*
X141833600Y-90647600D01*
G04 #@! TO.C,C8*
X140563600Y-121254600D02*
X140563600Y-121127600D01*
D14*
X140563600Y-121254600D02*
X139801600Y-121254600D01*
X141325600Y-121254600D02*
X140563600Y-121254600D01*
X140563600Y-121762600D02*
X139801600Y-121762600D01*
X140563600Y-121762600D02*
X141325600Y-121762600D01*
D10*
X140563600Y-121889600D02*
X140563600Y-121762600D01*
X139293600Y-119349600D02*
G75*
G02X139547600Y-119095600I254000J0D01*
G01*
X139547600Y-123921600D02*
G75*
G02X139293600Y-123667600I0J254000D01*
G01*
X141833600Y-119349600D02*
G75*
G03X141579600Y-119095600I-254000J0D01*
G01*
X141579600Y-123921600D02*
G75*
G03X141833600Y-123667600I0J254000D01*
G01*
X141579600Y-119095600D02*
X139547600Y-119095600D01*
X141579600Y-123921600D02*
X139547600Y-123921600D01*
X139293600Y-123667600D02*
X139293600Y-119349600D01*
X141833600Y-119349600D02*
X141833600Y-123667600D01*
D13*
G04 #@! TO.C,JP1*
G36*
X147485100Y-83662600D02*
G01*
X147485100Y-83154600D01*
X146977100Y-83154600D01*
X146977100Y-83662600D01*
X147485100Y-83662600D01*
G37*
D15*
X141516100Y-85313600D02*
X142786100Y-85313600D01*
D10*
X151676100Y-84678600D02*
X152946100Y-84678600D01*
X153581100Y-80233600D02*
X153581100Y-84043600D01*
X152946100Y-79598600D02*
X153581100Y-80233600D01*
X151676100Y-79598600D02*
X152946100Y-79598600D01*
X151041100Y-80233600D02*
X151676100Y-79598600D01*
X152946100Y-84678600D02*
X153581100Y-84043600D01*
X151041100Y-84043600D02*
X151676100Y-84678600D01*
X141516100Y-84678600D02*
X142786100Y-84678600D01*
X144056100Y-84678600D02*
X145326100Y-84678600D01*
X146596100Y-84678600D02*
X147866100Y-84678600D01*
X149136100Y-84678600D02*
X150406100Y-84678600D01*
X151041100Y-80233600D02*
X151041100Y-84043600D01*
X148501100Y-80233600D02*
X148501100Y-84043600D01*
X145961100Y-80233600D02*
X145961100Y-84043600D01*
X143421100Y-80233600D02*
X143421100Y-84043600D01*
X150406100Y-79598600D02*
X151041100Y-80233600D01*
X149136100Y-79598600D02*
X150406100Y-79598600D01*
X148501100Y-80233600D02*
X149136100Y-79598600D01*
X147866100Y-79598600D02*
X148501100Y-80233600D01*
X146596100Y-79598600D02*
X147866100Y-79598600D01*
X145961100Y-80233600D02*
X146596100Y-79598600D01*
X145326100Y-79598600D02*
X145961100Y-80233600D01*
X144056100Y-79598600D02*
X145326100Y-79598600D01*
X143421100Y-80233600D02*
X144056100Y-79598600D01*
X142786100Y-79598600D02*
X143421100Y-80233600D01*
X141516100Y-79598600D02*
X142786100Y-79598600D01*
X140881100Y-80233600D02*
X141516100Y-79598600D01*
X140881100Y-84043600D02*
X140881100Y-80233600D01*
X150406100Y-84678600D02*
X151041100Y-84043600D01*
X148501100Y-84043600D02*
X149136100Y-84678600D01*
X147866100Y-84678600D02*
X148501100Y-84043600D01*
X145961100Y-84043600D02*
X146596100Y-84678600D01*
X145326100Y-84678600D02*
X145961100Y-84043600D01*
X143421100Y-84043600D02*
X144056100Y-84678600D01*
X142786100Y-84678600D02*
X143421100Y-84043600D01*
X140881100Y-84043600D02*
X141516100Y-84678600D01*
D13*
G04 #@! TO.C,JP2*
G36*
X147485100Y-129382600D02*
G01*
X147485100Y-128874600D01*
X146977100Y-128874600D01*
X146977100Y-129382600D01*
X147485100Y-129382600D01*
G37*
D15*
X141516100Y-131033600D02*
X142786100Y-131033600D01*
D10*
X151676100Y-130398600D02*
X152946100Y-130398600D01*
X153581100Y-125953600D02*
X153581100Y-129763600D01*
X152946100Y-125318600D02*
X153581100Y-125953600D01*
X151676100Y-125318600D02*
X152946100Y-125318600D01*
X151041100Y-125953600D02*
X151676100Y-125318600D01*
X152946100Y-130398600D02*
X153581100Y-129763600D01*
X151041100Y-129763600D02*
X151676100Y-130398600D01*
X141516100Y-130398600D02*
X142786100Y-130398600D01*
X144056100Y-130398600D02*
X145326100Y-130398600D01*
X146596100Y-130398600D02*
X147866100Y-130398600D01*
X149136100Y-130398600D02*
X150406100Y-130398600D01*
X151041100Y-125953600D02*
X151041100Y-129763600D01*
X148501100Y-125953600D02*
X148501100Y-129763600D01*
X145961100Y-125953600D02*
X145961100Y-129763600D01*
X143421100Y-125953600D02*
X143421100Y-129763600D01*
X150406100Y-125318600D02*
X151041100Y-125953600D01*
X149136100Y-125318600D02*
X150406100Y-125318600D01*
X148501100Y-125953600D02*
X149136100Y-125318600D01*
X147866100Y-125318600D02*
X148501100Y-125953600D01*
X146596100Y-125318600D02*
X147866100Y-125318600D01*
X145961100Y-125953600D02*
X146596100Y-125318600D01*
X145326100Y-125318600D02*
X145961100Y-125953600D01*
X144056100Y-125318600D02*
X145326100Y-125318600D01*
X143421100Y-125953600D02*
X144056100Y-125318600D01*
X142786100Y-125318600D02*
X143421100Y-125953600D01*
X141516100Y-125318600D02*
X142786100Y-125318600D01*
X140881100Y-125953600D02*
X141516100Y-125318600D01*
X140881100Y-129763600D02*
X140881100Y-125953600D01*
X150406100Y-130398600D02*
X151041100Y-129763600D01*
X148501100Y-129763600D02*
X149136100Y-130398600D01*
X147866100Y-130398600D02*
X148501100Y-129763600D01*
X145961100Y-129763600D02*
X146596100Y-130398600D01*
X145326100Y-130398600D02*
X145961100Y-129763600D01*
X143421100Y-129763600D02*
X144056100Y-130398600D01*
X142786100Y-130398600D02*
X143421100Y-129763600D01*
X140881100Y-129763600D02*
X141516100Y-130398600D01*
G04 #@! TO.C,J1*
D16*
X150644371Y-93192438D02*
X150644371Y-93881866D01*
X150598409Y-94019752D01*
X150506485Y-94111676D01*
X150368599Y-94157638D01*
X150276676Y-94157638D01*
X151609571Y-94157638D02*
X151058028Y-94157638D01*
X151333799Y-94157638D02*
X151333799Y-93192438D01*
X151241876Y-93330323D01*
X151149952Y-93422247D01*
X151058028Y-93468209D01*
G04 #@! TO.C,IC2*
D17*
X148095147Y-116128638D02*
X148095147Y-115163438D01*
X149106309Y-116036714D02*
X149060347Y-116082676D01*
X148922461Y-116128638D01*
X148830538Y-116128638D01*
X148692652Y-116082676D01*
X148600728Y-115990752D01*
X148554766Y-115898828D01*
X148508804Y-115714980D01*
X148508804Y-115577095D01*
X148554766Y-115393247D01*
X148600728Y-115301323D01*
X148692652Y-115209400D01*
X148830538Y-115163438D01*
X148922461Y-115163438D01*
X149060347Y-115209400D01*
X149106309Y-115255361D01*
X149474004Y-115255361D02*
X149519966Y-115209400D01*
X149611890Y-115163438D01*
X149841699Y-115163438D01*
X149933623Y-115209400D01*
X149979585Y-115255361D01*
X150025547Y-115347285D01*
X150025547Y-115439209D01*
X149979585Y-115577095D01*
X149428042Y-116128638D01*
X150025547Y-116128638D01*
G04 #@! TO.C,C4*
X139312190Y-98256714D02*
X139266228Y-98302676D01*
X139128342Y-98348638D01*
X139036418Y-98348638D01*
X138898533Y-98302676D01*
X138806609Y-98210752D01*
X138760647Y-98118828D01*
X138714685Y-97934980D01*
X138714685Y-97797095D01*
X138760647Y-97613247D01*
X138806609Y-97521323D01*
X138898533Y-97429400D01*
X139036418Y-97383438D01*
X139128342Y-97383438D01*
X139266228Y-97429400D01*
X139312190Y-97475361D01*
X140139504Y-97705171D02*
X140139504Y-98348638D01*
X139909695Y-97337476D02*
X139679885Y-98026904D01*
X140277390Y-98026904D01*
G04 #@! TO.C,C2*
X151440690Y-86318714D02*
X151394728Y-86364676D01*
X151256842Y-86410638D01*
X151164918Y-86410638D01*
X151027033Y-86364676D01*
X150935109Y-86272752D01*
X150889147Y-86180828D01*
X150843185Y-85996980D01*
X150843185Y-85859095D01*
X150889147Y-85675247D01*
X150935109Y-85583323D01*
X151027033Y-85491400D01*
X151164918Y-85445438D01*
X151256842Y-85445438D01*
X151394728Y-85491400D01*
X151440690Y-85537361D01*
X151808385Y-85537361D02*
X151854347Y-85491400D01*
X151946271Y-85445438D01*
X152176080Y-85445438D01*
X152268004Y-85491400D01*
X152313966Y-85537361D01*
X152359928Y-85629285D01*
X152359928Y-85721209D01*
X152313966Y-85859095D01*
X151762423Y-86410638D01*
X152359928Y-86410638D01*
G04 #@! TO.C,C9*
X151123190Y-119338714D02*
X151077228Y-119384676D01*
X150939342Y-119430638D01*
X150847418Y-119430638D01*
X150709533Y-119384676D01*
X150617609Y-119292752D01*
X150571647Y-119200828D01*
X150525685Y-119016980D01*
X150525685Y-118879095D01*
X150571647Y-118695247D01*
X150617609Y-118603323D01*
X150709533Y-118511400D01*
X150847418Y-118465438D01*
X150939342Y-118465438D01*
X151077228Y-118511400D01*
X151123190Y-118557361D01*
X151582809Y-119430638D02*
X151766657Y-119430638D01*
X151858580Y-119384676D01*
X151904542Y-119338714D01*
X151996466Y-119200828D01*
X152042428Y-119016980D01*
X152042428Y-118649285D01*
X151996466Y-118557361D01*
X151950504Y-118511400D01*
X151858580Y-118465438D01*
X151674733Y-118465438D01*
X151582809Y-118511400D01*
X151536847Y-118557361D01*
X151490885Y-118649285D01*
X151490885Y-118879095D01*
X151536847Y-118971019D01*
X151582809Y-119016980D01*
X151674733Y-119062942D01*
X151858580Y-119062942D01*
X151950504Y-119016980D01*
X151996466Y-118971019D01*
X152042428Y-118879095D01*
G04 #@! TO.C,IC3*
X154826147Y-119887838D02*
X154826147Y-118922638D01*
X155837309Y-119795914D02*
X155791347Y-119841876D01*
X155653461Y-119887838D01*
X155561538Y-119887838D01*
X155423652Y-119841876D01*
X155331728Y-119749952D01*
X155285766Y-119658028D01*
X155239804Y-119474180D01*
X155239804Y-119336295D01*
X155285766Y-119152447D01*
X155331728Y-119060523D01*
X155423652Y-118968600D01*
X155561538Y-118922638D01*
X155653461Y-118922638D01*
X155791347Y-118968600D01*
X155837309Y-119014561D01*
X156159042Y-118922638D02*
X156756547Y-118922638D01*
X156434814Y-119290333D01*
X156572699Y-119290333D01*
X156664623Y-119336295D01*
X156710585Y-119382257D01*
X156756547Y-119474180D01*
X156756547Y-119703990D01*
X156710585Y-119795914D01*
X156664623Y-119841876D01*
X156572699Y-119887838D01*
X156296928Y-119887838D01*
X156205004Y-119841876D01*
X156159042Y-119795914D01*
G04 #@! TO.C,C3*
X147313190Y-93621214D02*
X147267228Y-93667176D01*
X147129342Y-93713138D01*
X147037418Y-93713138D01*
X146899533Y-93667176D01*
X146807609Y-93575252D01*
X146761647Y-93483328D01*
X146715685Y-93299480D01*
X146715685Y-93161595D01*
X146761647Y-92977747D01*
X146807609Y-92885823D01*
X146899533Y-92793900D01*
X147037418Y-92747938D01*
X147129342Y-92747938D01*
X147267228Y-92793900D01*
X147313190Y-92839861D01*
X147634923Y-92747938D02*
X148232428Y-92747938D01*
X147910695Y-93115633D01*
X148048580Y-93115633D01*
X148140504Y-93161595D01*
X148186466Y-93207557D01*
X148232428Y-93299480D01*
X148232428Y-93529290D01*
X148186466Y-93621214D01*
X148140504Y-93667176D01*
X148048580Y-93713138D01*
X147772809Y-93713138D01*
X147680885Y-93667176D01*
X147634923Y-93621214D01*
G04 #@! TO.C,C7*
X158425690Y-117751214D02*
X158379728Y-117797176D01*
X158241842Y-117843138D01*
X158149918Y-117843138D01*
X158012033Y-117797176D01*
X157920109Y-117705252D01*
X157874147Y-117613328D01*
X157828185Y-117429480D01*
X157828185Y-117291595D01*
X157874147Y-117107747D01*
X157920109Y-117015823D01*
X158012033Y-116923900D01*
X158149918Y-116877938D01*
X158241842Y-116877938D01*
X158379728Y-116923900D01*
X158425690Y-116969861D01*
X158747423Y-116877938D02*
X159390890Y-116877938D01*
X158977233Y-117843138D01*
G04 #@! TO.C,IC1*
X158953647Y-90334938D02*
X158953647Y-89369738D01*
X159964809Y-90243014D02*
X159918847Y-90288976D01*
X159780961Y-90334938D01*
X159689038Y-90334938D01*
X159551152Y-90288976D01*
X159459228Y-90197052D01*
X159413266Y-90105128D01*
X159367304Y-89921280D01*
X159367304Y-89783395D01*
X159413266Y-89599547D01*
X159459228Y-89507623D01*
X159551152Y-89415700D01*
X159689038Y-89369738D01*
X159780961Y-89369738D01*
X159918847Y-89415700D01*
X159964809Y-89461661D01*
X160884047Y-90334938D02*
X160332504Y-90334938D01*
X160608276Y-90334938D02*
X160608276Y-89369738D01*
X160516352Y-89507623D01*
X160424428Y-89599547D01*
X160332504Y-89645509D01*
G04 #@! TO.C,D1*
D18*
X155613395Y-104952638D02*
X155613395Y-103987438D01*
X155843204Y-103987438D01*
X155981090Y-104033400D01*
X156073014Y-104125323D01*
X156118976Y-104217247D01*
X156164937Y-104401095D01*
X156164937Y-104538980D01*
X156118976Y-104722828D01*
X156073014Y-104814752D01*
X155981090Y-104906676D01*
X155843204Y-104952638D01*
X155613395Y-104952638D01*
X157084176Y-104952638D02*
X156532633Y-104952638D01*
X156808404Y-104952638D02*
X156808404Y-103987438D01*
X156716480Y-104125323D01*
X156624557Y-104217247D01*
X156532633Y-104263209D01*
G04 #@! TO.C,C6*
D17*
X149599190Y-107146714D02*
X149553228Y-107192676D01*
X149415342Y-107238638D01*
X149323418Y-107238638D01*
X149185533Y-107192676D01*
X149093609Y-107100752D01*
X149047647Y-107008828D01*
X149001685Y-106824980D01*
X149001685Y-106687095D01*
X149047647Y-106503247D01*
X149093609Y-106411323D01*
X149185533Y-106319400D01*
X149323418Y-106273438D01*
X149415342Y-106273438D01*
X149553228Y-106319400D01*
X149599190Y-106365361D01*
X150426504Y-106273438D02*
X150242657Y-106273438D01*
X150150733Y-106319400D01*
X150104771Y-106365361D01*
X150012847Y-106503247D01*
X149966885Y-106687095D01*
X149966885Y-107054790D01*
X150012847Y-107146714D01*
X150058809Y-107192676D01*
X150150733Y-107238638D01*
X150334580Y-107238638D01*
X150426504Y-107192676D01*
X150472466Y-107146714D01*
X150518428Y-107054790D01*
X150518428Y-106824980D01*
X150472466Y-106733057D01*
X150426504Y-106687095D01*
X150334580Y-106641133D01*
X150150733Y-106641133D01*
X150058809Y-106687095D01*
X150012847Y-106733057D01*
X149966885Y-106824980D01*
G04 #@! TO.C,C5*
X147313190Y-98510714D02*
X147267228Y-98556676D01*
X147129342Y-98602638D01*
X147037418Y-98602638D01*
X146899533Y-98556676D01*
X146807609Y-98464752D01*
X146761647Y-98372828D01*
X146715685Y-98188980D01*
X146715685Y-98051095D01*
X146761647Y-97867247D01*
X146807609Y-97775323D01*
X146899533Y-97683400D01*
X147037418Y-97637438D01*
X147129342Y-97637438D01*
X147267228Y-97683400D01*
X147313190Y-97729361D01*
X148186466Y-97637438D02*
X147726847Y-97637438D01*
X147680885Y-98097057D01*
X147726847Y-98051095D01*
X147818771Y-98005133D01*
X148048580Y-98005133D01*
X148140504Y-98051095D01*
X148186466Y-98097057D01*
X148232428Y-98188980D01*
X148232428Y-98418790D01*
X148186466Y-98510714D01*
X148140504Y-98556676D01*
X148048580Y-98602638D01*
X147818771Y-98602638D01*
X147726847Y-98556676D01*
X147680885Y-98510714D01*
G04 #@! TO.C,C1*
X140391690Y-85556714D02*
X140345728Y-85602676D01*
X140207842Y-85648638D01*
X140115918Y-85648638D01*
X139978033Y-85602676D01*
X139886109Y-85510752D01*
X139840147Y-85418828D01*
X139794185Y-85234980D01*
X139794185Y-85097095D01*
X139840147Y-84913247D01*
X139886109Y-84821323D01*
X139978033Y-84729400D01*
X140115918Y-84683438D01*
X140207842Y-84683438D01*
X140345728Y-84729400D01*
X140391690Y-84775361D01*
X141310928Y-85648638D02*
X140759385Y-85648638D01*
X141035157Y-85648638D02*
X141035157Y-84683438D01*
X140943233Y-84821323D01*
X140851309Y-84913247D01*
X140759385Y-84959209D01*
G04 #@! TO.C,C8*
X140391690Y-118576714D02*
X140345728Y-118622676D01*
X140207842Y-118668638D01*
X140115918Y-118668638D01*
X139978033Y-118622676D01*
X139886109Y-118530752D01*
X139840147Y-118438828D01*
X139794185Y-118254980D01*
X139794185Y-118117095D01*
X139840147Y-117933247D01*
X139886109Y-117841323D01*
X139978033Y-117749400D01*
X140115918Y-117703438D01*
X140207842Y-117703438D01*
X140345728Y-117749400D01*
X140391690Y-117795361D01*
X140943233Y-118117095D02*
X140851309Y-118071133D01*
X140805347Y-118025171D01*
X140759385Y-117933247D01*
X140759385Y-117887285D01*
X140805347Y-117795361D01*
X140851309Y-117749400D01*
X140943233Y-117703438D01*
X141127080Y-117703438D01*
X141219004Y-117749400D01*
X141264966Y-117795361D01*
X141310928Y-117887285D01*
X141310928Y-117933247D01*
X141264966Y-118025171D01*
X141219004Y-118071133D01*
X141127080Y-118117095D01*
X140943233Y-118117095D01*
X140851309Y-118163057D01*
X140805347Y-118209019D01*
X140759385Y-118300942D01*
X140759385Y-118484790D01*
X140805347Y-118576714D01*
X140851309Y-118622676D01*
X140943233Y-118668638D01*
X141127080Y-118668638D01*
X141219004Y-118622676D01*
X141264966Y-118576714D01*
X141310928Y-118484790D01*
X141310928Y-118300942D01*
X141264966Y-118209019D01*
X141219004Y-118163057D01*
X141127080Y-118117095D01*
G04 #@! TD*
%LPC*%
D19*
G04 #@! TO.C,J1*
X150581100Y-97378600D03*
X156581100Y-97378600D03*
X153581100Y-92578600D03*
G04 #@! TD*
D20*
G04 #@! TO.C,IC2*
X138976100Y-115158600D03*
X141516100Y-115158600D03*
X138976100Y-107538600D03*
X141516100Y-107538600D03*
X146596100Y-115158600D03*
X144056100Y-115158600D03*
X144056100Y-107538600D03*
X146596100Y-107538600D03*
G04 #@! TD*
D21*
G04 #@! TO.C,C4*
X140246100Y-103728600D03*
X140246100Y-101188600D03*
G04 #@! TD*
G04 #@! TO.C,C2*
X147231100Y-87218600D03*
X147231100Y-89758600D03*
G04 #@! TD*
G04 #@! TO.C,C9*
X147231100Y-120238600D03*
X147231100Y-122778600D03*
G04 #@! TD*
D22*
G04 #@! TO.C,IC3*
X156121100Y-127858600D03*
X156121100Y-125318600D03*
X156121100Y-122778600D03*
G04 #@! TD*
D21*
G04 #@! TO.C,C3*
X144056100Y-94838600D03*
X141516100Y-94838600D03*
G04 #@! TD*
G04 #@! TO.C,C7*
X155486100Y-112618600D03*
X155486100Y-115158600D03*
G04 #@! TD*
D22*
G04 #@! TO.C,IC1*
X156121100Y-87218600D03*
X156121100Y-84678600D03*
X156121100Y-82138600D03*
G04 #@! TD*
D23*
G04 #@! TO.C,D1*
X150406100Y-105633600D03*
D24*
X158026100Y-105633600D03*
G04 #@! TD*
D25*
G04 #@! TO.C,C6*
X149771100Y-112618600D03*
X149771100Y-110078600D03*
G04 #@! TD*
D21*
G04 #@! TO.C,C5*
X147231100Y-103728600D03*
X147231100Y-101188600D03*
G04 #@! TD*
D25*
G04 #@! TO.C,C1*
X140563600Y-89758600D03*
X140563600Y-87218600D03*
G04 #@! TD*
G04 #@! TO.C,C8*
X140563600Y-122778600D03*
X140563600Y-120238600D03*
G04 #@! TD*
D26*
G04 #@! TO.C,JP1*
X152311100Y-80868600D03*
X152311100Y-83408600D03*
X149771100Y-80868600D03*
X149771100Y-83408600D03*
X147231100Y-80868600D03*
X147231100Y-83408600D03*
X144691100Y-80868600D03*
X144691100Y-83408600D03*
X142151100Y-80868600D03*
X142151100Y-83408600D03*
G04 #@! TD*
G04 #@! TO.C,JP2*
X152311100Y-126588600D03*
X152311100Y-129128600D03*
X149771100Y-126588600D03*
X149771100Y-129128600D03*
X147231100Y-126588600D03*
X147231100Y-129128600D03*
X144691100Y-126588600D03*
X144691100Y-129128600D03*
X142151100Y-126588600D03*
X142151100Y-129128600D03*
G04 #@! TD*
M02*
