G04 #@! TF.GenerationSoftware,KiCad,Pcbnew,(5.1.5)-3*
G04 #@! TF.CreationDate,2020-03-15T11:48:49-07:00*
G04 #@! TF.ProjectId,bbf-supply_v1,6262662d-7375-4707-906c-795f76312e6b,rev?*
G04 #@! TF.SameCoordinates,Original*
G04 #@! TF.FileFunction,Copper,L2,Bot*
G04 #@! TF.FilePolarity,Positive*
%FSLAX46Y46*%
G04 Gerber Fmt 4.6, Leading zero omitted, Abs format (unit mm)*
G04 Created by KiCad (PCBNEW (5.1.5)-3) date 2020-03-15 11:48:49*
%MOMM*%
%LPD*%
G04 APERTURE LIST*
G04 #@! TA.AperFunction,ComponentPad*
%ADD10C,3.810000*%
G04 #@! TD*
G04 #@! TA.AperFunction,ComponentPad*
%ADD11O,1.422400X2.844800*%
G04 #@! TD*
G04 #@! TA.AperFunction,ComponentPad*
%ADD12C,1.600200*%
G04 #@! TD*
G04 #@! TA.AperFunction,ComponentPad*
%ADD13O,3.251200X1.625600*%
G04 #@! TD*
G04 #@! TA.AperFunction,ComponentPad*
%ADD14C,1.509600*%
G04 #@! TD*
G04 #@! TA.AperFunction,ComponentPad*
%ADD15R,1.509600X1.509600*%
G04 #@! TD*
G04 #@! TA.AperFunction,ComponentPad*
%ADD16C,1.422400*%
G04 #@! TD*
G04 #@! TA.AperFunction,ComponentPad*
%ADD17C,1.879600*%
G04 #@! TD*
G04 #@! TA.AperFunction,Conductor*
%ADD18C,0.127000*%
G04 #@! TD*
G04 APERTURE END LIST*
D10*
G04 #@! TO.P,J1,3*
G04 #@! TO.N,Net-(D1-PadA)*
X150581100Y-97378600D03*
G04 #@! TO.P,J1,1*
G04 #@! TO.N,GND*
X156581100Y-97378600D03*
G04 #@! TO.P,J1,2*
G04 #@! TO.N,Net-(J1-Pad2)*
X153581100Y-92578600D03*
G04 #@! TD*
D11*
G04 #@! TO.P,IC2,5*
G04 #@! TO.N,Net-(C7-Pad-)*
X138976100Y-115158600D03*
G04 #@! TO.P,IC2,6*
G04 #@! TO.N,Net-(IC2-Pad6)*
X141516100Y-115158600D03*
G04 #@! TO.P,IC2,4*
G04 #@! TO.N,Net-(C4-Pad-)*
X138976100Y-107538600D03*
G04 #@! TO.P,IC2,3*
G04 #@! TO.N,GND*
X141516100Y-107538600D03*
G04 #@! TO.P,IC2,8*
G04 #@! TO.N,Net-(C3-Pad+)*
X146596100Y-115158600D03*
G04 #@! TO.P,IC2,7*
G04 #@! TO.N,Net-(C6-Pad2)*
X144056100Y-115158600D03*
G04 #@! TO.P,IC2,2*
G04 #@! TO.N,Net-(C4-Pad+)*
X144056100Y-107538600D03*
G04 #@! TO.P,IC2,1*
G04 #@! TO.N,Net-(IC2-Pad1)*
X146596100Y-107538600D03*
G04 #@! TD*
D12*
G04 #@! TO.P,C4,+*
G04 #@! TO.N,Net-(C4-Pad+)*
X140246100Y-103728600D03*
G04 #@! TO.P,C4,-*
G04 #@! TO.N,Net-(C4-Pad-)*
X140246100Y-101188600D03*
G04 #@! TD*
G04 #@! TO.P,C2,+*
G04 #@! TO.N,VCC*
X147231100Y-87218600D03*
G04 #@! TO.P,C2,-*
G04 #@! TO.N,GND*
X147231100Y-89758600D03*
G04 #@! TD*
G04 #@! TO.P,C9,+*
G04 #@! TO.N,GND*
X147231100Y-120238600D03*
G04 #@! TO.P,C9,-*
G04 #@! TO.N,VEE*
X147231100Y-122778600D03*
G04 #@! TD*
D13*
G04 #@! TO.P,IC3,OUT*
G04 #@! TO.N,VEE*
X156121100Y-127858600D03*
G04 #@! TO.P,IC3,IN*
G04 #@! TO.N,Net-(C7-Pad-)*
X156121100Y-125318600D03*
G04 #@! TO.P,IC3,GND*
G04 #@! TO.N,GND*
X156121100Y-122778600D03*
G04 #@! TD*
D12*
G04 #@! TO.P,C3,+*
G04 #@! TO.N,Net-(C3-Pad+)*
X144056100Y-94838600D03*
G04 #@! TO.P,C3,-*
G04 #@! TO.N,GND*
X141516100Y-94838600D03*
G04 #@! TD*
G04 #@! TO.P,C7,+*
G04 #@! TO.N,GND*
X155486100Y-112618600D03*
G04 #@! TO.P,C7,-*
G04 #@! TO.N,Net-(C7-Pad-)*
X155486100Y-115158600D03*
G04 #@! TD*
D13*
G04 #@! TO.P,IC1,OUT*
G04 #@! TO.N,VCC*
X156121100Y-87218600D03*
G04 #@! TO.P,IC1,GND*
G04 #@! TO.N,GND*
X156121100Y-84678600D03*
G04 #@! TO.P,IC1,IN*
G04 #@! TO.N,Net-(C3-Pad+)*
X156121100Y-82138600D03*
G04 #@! TD*
D14*
G04 #@! TO.P,D1,A*
G04 #@! TO.N,Net-(D1-PadA)*
X150406100Y-105633600D03*
D15*
G04 #@! TO.P,D1,C*
G04 #@! TO.N,Net-(C3-Pad+)*
X158026100Y-105633600D03*
G04 #@! TD*
D16*
G04 #@! TO.P,C6,2*
G04 #@! TO.N,Net-(C6-Pad2)*
X149771100Y-112618600D03*
G04 #@! TO.P,C6,1*
G04 #@! TO.N,Net-(C4-Pad+)*
X149771100Y-110078600D03*
G04 #@! TD*
D12*
G04 #@! TO.P,C5,+*
G04 #@! TO.N,Net-(C4-Pad+)*
X147231100Y-103728600D03*
G04 #@! TO.P,C5,-*
G04 #@! TO.N,Net-(C4-Pad-)*
X147231100Y-101188600D03*
G04 #@! TD*
D16*
G04 #@! TO.P,C1,2*
G04 #@! TO.N,GND*
X140563600Y-89758600D03*
G04 #@! TO.P,C1,1*
G04 #@! TO.N,VCC*
X140563600Y-87218600D03*
G04 #@! TD*
G04 #@! TO.P,C8,2*
G04 #@! TO.N,VEE*
X140563600Y-122778600D03*
G04 #@! TO.P,C8,1*
G04 #@! TO.N,GND*
X140563600Y-120238600D03*
G04 #@! TD*
D17*
G04 #@! TO.P,JP1,10*
G04 #@! TO.N,VCC*
X152311100Y-80868600D03*
G04 #@! TO.P,JP1,9*
G04 #@! TO.N,GND*
X152311100Y-83408600D03*
G04 #@! TO.P,JP1,8*
G04 #@! TO.N,VCC*
X149771100Y-80868600D03*
G04 #@! TO.P,JP1,7*
G04 #@! TO.N,GND*
X149771100Y-83408600D03*
G04 #@! TO.P,JP1,6*
G04 #@! TO.N,VCC*
X147231100Y-80868600D03*
G04 #@! TO.P,JP1,5*
G04 #@! TO.N,GND*
X147231100Y-83408600D03*
G04 #@! TO.P,JP1,4*
G04 #@! TO.N,VCC*
X144691100Y-80868600D03*
G04 #@! TO.P,JP1,3*
G04 #@! TO.N,GND*
X144691100Y-83408600D03*
G04 #@! TO.P,JP1,2*
G04 #@! TO.N,VCC*
X142151100Y-80868600D03*
G04 #@! TO.P,JP1,1*
G04 #@! TO.N,GND*
X142151100Y-83408600D03*
G04 #@! TD*
G04 #@! TO.P,JP2,10*
G04 #@! TO.N,GND*
X152311100Y-126588600D03*
G04 #@! TO.P,JP2,9*
G04 #@! TO.N,VEE*
X152311100Y-129128600D03*
G04 #@! TO.P,JP2,8*
G04 #@! TO.N,GND*
X149771100Y-126588600D03*
G04 #@! TO.P,JP2,7*
G04 #@! TO.N,VEE*
X149771100Y-129128600D03*
G04 #@! TO.P,JP2,6*
G04 #@! TO.N,GND*
X147231100Y-126588600D03*
G04 #@! TO.P,JP2,5*
G04 #@! TO.N,VEE*
X147231100Y-129128600D03*
G04 #@! TO.P,JP2,4*
G04 #@! TO.N,GND*
X144691100Y-126588600D03*
G04 #@! TO.P,JP2,3*
G04 #@! TO.N,VEE*
X144691100Y-129128600D03*
G04 #@! TO.P,JP2,2*
G04 #@! TO.N,GND*
X142151100Y-126588600D03*
G04 #@! TO.P,JP2,1*
G04 #@! TO.N,VEE*
X142151100Y-129128600D03*
G04 #@! TD*
D18*
G04 #@! TO.N,GND*
G36*
X157751902Y-79096922D02*
G01*
X158089340Y-79198800D01*
X158400568Y-79364283D01*
X158673720Y-79587060D01*
X158898403Y-79858655D01*
X159066055Y-80168719D01*
X159170286Y-80505439D01*
X159207570Y-80860165D01*
X159207600Y-80868908D01*
X159207599Y-129124268D01*
X159172588Y-129481345D01*
X159070144Y-129820652D01*
X158903745Y-130133604D01*
X158679735Y-130408266D01*
X158406636Y-130634194D01*
X158094857Y-130802772D01*
X157756271Y-130907582D01*
X157399605Y-130945070D01*
X157391083Y-130945099D01*
X139615432Y-130945099D01*
X139258355Y-130910088D01*
X138919048Y-130807644D01*
X138606096Y-130641245D01*
X138331434Y-130417235D01*
X138105506Y-130144136D01*
X137936928Y-129832357D01*
X137832118Y-129493771D01*
X137794630Y-129137105D01*
X137794601Y-129128583D01*
X137794601Y-129010085D01*
X140947800Y-129010085D01*
X140947800Y-129247115D01*
X140994042Y-129479590D01*
X141084750Y-129698576D01*
X141216436Y-129895659D01*
X141384041Y-130063264D01*
X141581124Y-130194950D01*
X141800110Y-130285658D01*
X142032585Y-130331900D01*
X142269615Y-130331900D01*
X142502090Y-130285658D01*
X142721076Y-130194950D01*
X142918159Y-130063264D01*
X143085764Y-129895659D01*
X143217450Y-129698576D01*
X143308158Y-129479590D01*
X143354400Y-129247115D01*
X143354400Y-129010085D01*
X143487800Y-129010085D01*
X143487800Y-129247115D01*
X143534042Y-129479590D01*
X143624750Y-129698576D01*
X143756436Y-129895659D01*
X143924041Y-130063264D01*
X144121124Y-130194950D01*
X144340110Y-130285658D01*
X144572585Y-130331900D01*
X144809615Y-130331900D01*
X145042090Y-130285658D01*
X145261076Y-130194950D01*
X145458159Y-130063264D01*
X145625764Y-129895659D01*
X145757450Y-129698576D01*
X145848158Y-129479590D01*
X145894400Y-129247115D01*
X145894400Y-129010085D01*
X146027800Y-129010085D01*
X146027800Y-129247115D01*
X146074042Y-129479590D01*
X146164750Y-129698576D01*
X146296436Y-129895659D01*
X146464041Y-130063264D01*
X146661124Y-130194950D01*
X146880110Y-130285658D01*
X147112585Y-130331900D01*
X147349615Y-130331900D01*
X147582090Y-130285658D01*
X147801076Y-130194950D01*
X147998159Y-130063264D01*
X148165764Y-129895659D01*
X148297450Y-129698576D01*
X148388158Y-129479590D01*
X148434400Y-129247115D01*
X148434400Y-129010085D01*
X148567800Y-129010085D01*
X148567800Y-129247115D01*
X148614042Y-129479590D01*
X148704750Y-129698576D01*
X148836436Y-129895659D01*
X149004041Y-130063264D01*
X149201124Y-130194950D01*
X149420110Y-130285658D01*
X149652585Y-130331900D01*
X149889615Y-130331900D01*
X150122090Y-130285658D01*
X150341076Y-130194950D01*
X150538159Y-130063264D01*
X150705764Y-129895659D01*
X150837450Y-129698576D01*
X150928158Y-129479590D01*
X150974400Y-129247115D01*
X150974400Y-129010085D01*
X151107800Y-129010085D01*
X151107800Y-129247115D01*
X151154042Y-129479590D01*
X151244750Y-129698576D01*
X151376436Y-129895659D01*
X151544041Y-130063264D01*
X151741124Y-130194950D01*
X151960110Y-130285658D01*
X152192585Y-130331900D01*
X152429615Y-130331900D01*
X152662090Y-130285658D01*
X152881076Y-130194950D01*
X153078159Y-130063264D01*
X153245764Y-129895659D01*
X153377450Y-129698576D01*
X153468158Y-129479590D01*
X153514400Y-129247115D01*
X153514400Y-129010085D01*
X153468158Y-128777610D01*
X153377450Y-128558624D01*
X153245764Y-128361541D01*
X153078159Y-128193936D01*
X152881076Y-128062250D01*
X152662090Y-127971542D01*
X152429615Y-127925300D01*
X152192585Y-127925300D01*
X151960110Y-127971542D01*
X151741124Y-128062250D01*
X151544041Y-128193936D01*
X151376436Y-128361541D01*
X151244750Y-128558624D01*
X151154042Y-128777610D01*
X151107800Y-129010085D01*
X150974400Y-129010085D01*
X150928158Y-128777610D01*
X150837450Y-128558624D01*
X150705764Y-128361541D01*
X150538159Y-128193936D01*
X150341076Y-128062250D01*
X150122090Y-127971542D01*
X149889615Y-127925300D01*
X149652585Y-127925300D01*
X149420110Y-127971542D01*
X149201124Y-128062250D01*
X149004041Y-128193936D01*
X148836436Y-128361541D01*
X148704750Y-128558624D01*
X148614042Y-128777610D01*
X148567800Y-129010085D01*
X148434400Y-129010085D01*
X148388158Y-128777610D01*
X148297450Y-128558624D01*
X148165764Y-128361541D01*
X147998159Y-128193936D01*
X147801076Y-128062250D01*
X147582090Y-127971542D01*
X147349615Y-127925300D01*
X147112585Y-127925300D01*
X146880110Y-127971542D01*
X146661124Y-128062250D01*
X146464041Y-128193936D01*
X146296436Y-128361541D01*
X146164750Y-128558624D01*
X146074042Y-128777610D01*
X146027800Y-129010085D01*
X145894400Y-129010085D01*
X145848158Y-128777610D01*
X145757450Y-128558624D01*
X145625764Y-128361541D01*
X145458159Y-128193936D01*
X145261076Y-128062250D01*
X145042090Y-127971542D01*
X144809615Y-127925300D01*
X144572585Y-127925300D01*
X144340110Y-127971542D01*
X144121124Y-128062250D01*
X143924041Y-128193936D01*
X143756436Y-128361541D01*
X143624750Y-128558624D01*
X143534042Y-128777610D01*
X143487800Y-129010085D01*
X143354400Y-129010085D01*
X143308158Y-128777610D01*
X143217450Y-128558624D01*
X143085764Y-128361541D01*
X142918159Y-128193936D01*
X142721076Y-128062250D01*
X142502090Y-127971542D01*
X142269615Y-127925300D01*
X142032585Y-127925300D01*
X141800110Y-127971542D01*
X141581124Y-128062250D01*
X141384041Y-128193936D01*
X141216436Y-128361541D01*
X141084750Y-128558624D01*
X140994042Y-128777610D01*
X140947800Y-129010085D01*
X137794601Y-129010085D01*
X137794601Y-127512817D01*
X141352041Y-127512817D01*
X141452324Y-127700949D01*
X141682759Y-127815900D01*
X141931193Y-127883686D01*
X142188077Y-127901703D01*
X142443541Y-127869258D01*
X142687766Y-127787599D01*
X142849876Y-127700949D01*
X142950159Y-127512817D01*
X143892041Y-127512817D01*
X143992324Y-127700949D01*
X144222759Y-127815900D01*
X144471193Y-127883686D01*
X144728077Y-127901703D01*
X144983541Y-127869258D01*
X145227766Y-127787599D01*
X145389876Y-127700949D01*
X145490159Y-127512817D01*
X146432041Y-127512817D01*
X146532324Y-127700949D01*
X146762759Y-127815900D01*
X147011193Y-127883686D01*
X147268077Y-127901703D01*
X147523541Y-127869258D01*
X147767766Y-127787599D01*
X147929876Y-127700949D01*
X148030159Y-127512817D01*
X148972041Y-127512817D01*
X149072324Y-127700949D01*
X149302759Y-127815900D01*
X149551193Y-127883686D01*
X149808077Y-127901703D01*
X150063541Y-127869258D01*
X150307766Y-127787599D01*
X150469876Y-127700949D01*
X150570159Y-127512817D01*
X151512041Y-127512817D01*
X151612324Y-127700949D01*
X151842759Y-127815900D01*
X152091193Y-127883686D01*
X152348077Y-127901703D01*
X152603541Y-127869258D01*
X152635416Y-127858600D01*
X154226793Y-127858600D01*
X154247574Y-128069592D01*
X154309118Y-128272475D01*
X154409060Y-128459453D01*
X154543559Y-128623341D01*
X154707447Y-128757840D01*
X154894425Y-128857782D01*
X155097308Y-128919326D01*
X155255433Y-128934900D01*
X156986767Y-128934900D01*
X157144892Y-128919326D01*
X157347775Y-128857782D01*
X157534753Y-128757840D01*
X157698641Y-128623341D01*
X157833140Y-128459453D01*
X157933082Y-128272475D01*
X157994626Y-128069592D01*
X158015407Y-127858600D01*
X157994626Y-127647608D01*
X157933082Y-127444725D01*
X157833140Y-127257747D01*
X157698641Y-127093859D01*
X157534753Y-126959360D01*
X157347775Y-126859418D01*
X157144892Y-126797874D01*
X156986767Y-126782300D01*
X155255433Y-126782300D01*
X155097308Y-126797874D01*
X154894425Y-126859418D01*
X154707447Y-126959360D01*
X154543559Y-127093859D01*
X154409060Y-127257747D01*
X154309118Y-127444725D01*
X154247574Y-127647608D01*
X154226793Y-127858600D01*
X152635416Y-127858600D01*
X152847766Y-127787599D01*
X153009876Y-127700949D01*
X153110159Y-127512817D01*
X152311100Y-126713758D01*
X151512041Y-127512817D01*
X150570159Y-127512817D01*
X149771100Y-126713758D01*
X148972041Y-127512817D01*
X148030159Y-127512817D01*
X147231100Y-126713758D01*
X146432041Y-127512817D01*
X145490159Y-127512817D01*
X144691100Y-126713758D01*
X143892041Y-127512817D01*
X142950159Y-127512817D01*
X142151100Y-126713758D01*
X141352041Y-127512817D01*
X137794601Y-127512817D01*
X137794601Y-126625577D01*
X140837997Y-126625577D01*
X140870442Y-126881041D01*
X140952101Y-127125266D01*
X141038751Y-127287376D01*
X141226883Y-127387659D01*
X142025942Y-126588600D01*
X142276258Y-126588600D01*
X143075317Y-127387659D01*
X143263449Y-127287376D01*
X143378400Y-127056941D01*
X143419226Y-126907313D01*
X143492101Y-127125266D01*
X143578751Y-127287376D01*
X143766883Y-127387659D01*
X144565942Y-126588600D01*
X144816258Y-126588600D01*
X145615317Y-127387659D01*
X145803449Y-127287376D01*
X145918400Y-127056941D01*
X145959226Y-126907313D01*
X146032101Y-127125266D01*
X146118751Y-127287376D01*
X146306883Y-127387659D01*
X147105942Y-126588600D01*
X147356258Y-126588600D01*
X148155317Y-127387659D01*
X148343449Y-127287376D01*
X148458400Y-127056941D01*
X148499226Y-126907313D01*
X148572101Y-127125266D01*
X148658751Y-127287376D01*
X148846883Y-127387659D01*
X149645942Y-126588600D01*
X149896258Y-126588600D01*
X150695317Y-127387659D01*
X150883449Y-127287376D01*
X150998400Y-127056941D01*
X151039226Y-126907313D01*
X151112101Y-127125266D01*
X151198751Y-127287376D01*
X151386883Y-127387659D01*
X152185942Y-126588600D01*
X152436258Y-126588600D01*
X153235317Y-127387659D01*
X153423449Y-127287376D01*
X153538400Y-127056941D01*
X153606186Y-126808507D01*
X153624203Y-126551623D01*
X153591758Y-126296159D01*
X153510099Y-126051934D01*
X153423449Y-125889824D01*
X153235317Y-125789541D01*
X152436258Y-126588600D01*
X152185942Y-126588600D01*
X151386883Y-125789541D01*
X151198751Y-125889824D01*
X151083800Y-126120259D01*
X151042974Y-126269887D01*
X150970099Y-126051934D01*
X150883449Y-125889824D01*
X150695317Y-125789541D01*
X149896258Y-126588600D01*
X149645942Y-126588600D01*
X148846883Y-125789541D01*
X148658751Y-125889824D01*
X148543800Y-126120259D01*
X148502974Y-126269887D01*
X148430099Y-126051934D01*
X148343449Y-125889824D01*
X148155317Y-125789541D01*
X147356258Y-126588600D01*
X147105942Y-126588600D01*
X146306883Y-125789541D01*
X146118751Y-125889824D01*
X146003800Y-126120259D01*
X145962974Y-126269887D01*
X145890099Y-126051934D01*
X145803449Y-125889824D01*
X145615317Y-125789541D01*
X144816258Y-126588600D01*
X144565942Y-126588600D01*
X143766883Y-125789541D01*
X143578751Y-125889824D01*
X143463800Y-126120259D01*
X143422974Y-126269887D01*
X143350099Y-126051934D01*
X143263449Y-125889824D01*
X143075317Y-125789541D01*
X142276258Y-126588600D01*
X142025942Y-126588600D01*
X141226883Y-125789541D01*
X141038751Y-125889824D01*
X140923800Y-126120259D01*
X140856014Y-126368693D01*
X140837997Y-126625577D01*
X137794601Y-126625577D01*
X137794601Y-125664383D01*
X141352041Y-125664383D01*
X142151100Y-126463442D01*
X142950159Y-125664383D01*
X143892041Y-125664383D01*
X144691100Y-126463442D01*
X145490159Y-125664383D01*
X146432041Y-125664383D01*
X147231100Y-126463442D01*
X148030159Y-125664383D01*
X148972041Y-125664383D01*
X149771100Y-126463442D01*
X150570159Y-125664383D01*
X151512041Y-125664383D01*
X152311100Y-126463442D01*
X153110159Y-125664383D01*
X153009876Y-125476251D01*
X152779441Y-125361300D01*
X152622947Y-125318600D01*
X154226793Y-125318600D01*
X154247574Y-125529592D01*
X154309118Y-125732475D01*
X154409060Y-125919453D01*
X154543559Y-126083341D01*
X154707447Y-126217840D01*
X154894425Y-126317782D01*
X155097308Y-126379326D01*
X155255433Y-126394900D01*
X156986767Y-126394900D01*
X157144892Y-126379326D01*
X157347775Y-126317782D01*
X157534753Y-126217840D01*
X157698641Y-126083341D01*
X157833140Y-125919453D01*
X157933082Y-125732475D01*
X157994626Y-125529592D01*
X158015407Y-125318600D01*
X157994626Y-125107608D01*
X157933082Y-124904725D01*
X157833140Y-124717747D01*
X157698641Y-124553859D01*
X157534753Y-124419360D01*
X157347775Y-124319418D01*
X157144892Y-124257874D01*
X156986767Y-124242300D01*
X155255433Y-124242300D01*
X155097308Y-124257874D01*
X154894425Y-124319418D01*
X154707447Y-124419360D01*
X154543559Y-124553859D01*
X154409060Y-124717747D01*
X154309118Y-124904725D01*
X154247574Y-125107608D01*
X154226793Y-125318600D01*
X152622947Y-125318600D01*
X152531007Y-125293514D01*
X152274123Y-125275497D01*
X152018659Y-125307942D01*
X151774434Y-125389601D01*
X151612324Y-125476251D01*
X151512041Y-125664383D01*
X150570159Y-125664383D01*
X150469876Y-125476251D01*
X150239441Y-125361300D01*
X149991007Y-125293514D01*
X149734123Y-125275497D01*
X149478659Y-125307942D01*
X149234434Y-125389601D01*
X149072324Y-125476251D01*
X148972041Y-125664383D01*
X148030159Y-125664383D01*
X147929876Y-125476251D01*
X147699441Y-125361300D01*
X147451007Y-125293514D01*
X147194123Y-125275497D01*
X146938659Y-125307942D01*
X146694434Y-125389601D01*
X146532324Y-125476251D01*
X146432041Y-125664383D01*
X145490159Y-125664383D01*
X145389876Y-125476251D01*
X145159441Y-125361300D01*
X144911007Y-125293514D01*
X144654123Y-125275497D01*
X144398659Y-125307942D01*
X144154434Y-125389601D01*
X143992324Y-125476251D01*
X143892041Y-125664383D01*
X142950159Y-125664383D01*
X142849876Y-125476251D01*
X142619441Y-125361300D01*
X142371007Y-125293514D01*
X142114123Y-125275497D01*
X141858659Y-125307942D01*
X141614434Y-125389601D01*
X141452324Y-125476251D01*
X141352041Y-125664383D01*
X137794601Y-125664383D01*
X137794601Y-122682600D01*
X139588900Y-122682600D01*
X139588900Y-122874600D01*
X139626357Y-123062909D01*
X139699832Y-123240294D01*
X139806501Y-123399935D01*
X139942265Y-123535699D01*
X140101906Y-123642368D01*
X140279291Y-123715843D01*
X140467600Y-123753300D01*
X140659600Y-123753300D01*
X140847909Y-123715843D01*
X141025294Y-123642368D01*
X141184935Y-123535699D01*
X141320699Y-123399935D01*
X141427368Y-123240294D01*
X141500843Y-123062909D01*
X141538300Y-122874600D01*
X141538300Y-122682600D01*
X141536559Y-122673845D01*
X146167500Y-122673845D01*
X146167500Y-122883355D01*
X146208374Y-123088841D01*
X146288550Y-123282403D01*
X146404948Y-123456605D01*
X146553095Y-123604752D01*
X146727297Y-123721150D01*
X146920859Y-123801326D01*
X147126345Y-123842200D01*
X147335855Y-123842200D01*
X147541341Y-123801326D01*
X147734903Y-123721150D01*
X147909105Y-123604752D01*
X148057252Y-123456605D01*
X148173650Y-123282403D01*
X148253826Y-123088841D01*
X148261526Y-123050130D01*
X154159658Y-123050130D01*
X154183978Y-123148518D01*
X154277749Y-123360754D01*
X154411123Y-123550619D01*
X154578975Y-123710815D01*
X154774855Y-123835187D01*
X154991235Y-123918955D01*
X155219800Y-123958900D01*
X156032600Y-123958900D01*
X156032600Y-122867100D01*
X156209600Y-122867100D01*
X156209600Y-123958900D01*
X157022400Y-123958900D01*
X157250965Y-123918955D01*
X157467345Y-123835187D01*
X157663225Y-123710815D01*
X157831077Y-123550619D01*
X157964451Y-123360754D01*
X158058222Y-123148518D01*
X158082542Y-123050130D01*
X158018721Y-122867100D01*
X156209600Y-122867100D01*
X156032600Y-122867100D01*
X154223479Y-122867100D01*
X154159658Y-123050130D01*
X148261526Y-123050130D01*
X148294700Y-122883355D01*
X148294700Y-122673845D01*
X148261527Y-122507070D01*
X154159658Y-122507070D01*
X154223479Y-122690100D01*
X156032600Y-122690100D01*
X156032600Y-121598300D01*
X156209600Y-121598300D01*
X156209600Y-122690100D01*
X158018721Y-122690100D01*
X158082542Y-122507070D01*
X158058222Y-122408682D01*
X157964451Y-122196446D01*
X157831077Y-122006581D01*
X157663225Y-121846385D01*
X157467345Y-121722013D01*
X157250965Y-121638245D01*
X157022400Y-121598300D01*
X156209600Y-121598300D01*
X156032600Y-121598300D01*
X155219800Y-121598300D01*
X154991235Y-121638245D01*
X154774855Y-121722013D01*
X154578975Y-121846385D01*
X154411123Y-122006581D01*
X154277749Y-122196446D01*
X154183978Y-122408682D01*
X154159658Y-122507070D01*
X148261527Y-122507070D01*
X148253826Y-122468359D01*
X148173650Y-122274797D01*
X148057252Y-122100595D01*
X147909105Y-121952448D01*
X147734903Y-121836050D01*
X147541341Y-121755874D01*
X147335855Y-121715000D01*
X147126345Y-121715000D01*
X146920859Y-121755874D01*
X146727297Y-121836050D01*
X146553095Y-121952448D01*
X146404948Y-122100595D01*
X146288550Y-122274797D01*
X146208374Y-122468359D01*
X146167500Y-122673845D01*
X141536559Y-122673845D01*
X141500843Y-122494291D01*
X141427368Y-122316906D01*
X141320699Y-122157265D01*
X141184935Y-122021501D01*
X141025294Y-121914832D01*
X140847909Y-121841357D01*
X140659600Y-121803900D01*
X140467600Y-121803900D01*
X140279291Y-121841357D01*
X140101906Y-121914832D01*
X139942265Y-122021501D01*
X139806501Y-122157265D01*
X139699832Y-122316906D01*
X139626357Y-122494291D01*
X139588900Y-122682600D01*
X137794601Y-122682600D01*
X137794601Y-120999863D01*
X139927495Y-120999863D01*
X140000214Y-121164600D01*
X140191694Y-121256719D01*
X140397465Y-121309711D01*
X140609621Y-121321541D01*
X140820009Y-121291754D01*
X141020542Y-121221495D01*
X141126986Y-121164600D01*
X141171719Y-121063261D01*
X146531597Y-121063261D01*
X146615044Y-121237093D01*
X146821678Y-121338094D01*
X147044046Y-121396842D01*
X147273603Y-121411079D01*
X147501525Y-121380259D01*
X147719056Y-121305565D01*
X147847156Y-121237093D01*
X147930603Y-121063261D01*
X147231100Y-120363758D01*
X146531597Y-121063261D01*
X141171719Y-121063261D01*
X141199705Y-120999863D01*
X140563600Y-120363758D01*
X139927495Y-120999863D01*
X137794601Y-120999863D01*
X137794601Y-120284621D01*
X139480659Y-120284621D01*
X139510446Y-120495009D01*
X139580705Y-120695542D01*
X139637600Y-120801986D01*
X139802337Y-120874705D01*
X140438442Y-120238600D01*
X140688758Y-120238600D01*
X141324863Y-120874705D01*
X141489600Y-120801986D01*
X141581719Y-120610506D01*
X141634711Y-120404735D01*
X141641604Y-120281103D01*
X146058621Y-120281103D01*
X146089441Y-120509025D01*
X146164135Y-120726556D01*
X146232607Y-120854656D01*
X146406439Y-120938103D01*
X147105942Y-120238600D01*
X147356258Y-120238600D01*
X148055761Y-120938103D01*
X148229593Y-120854656D01*
X148330594Y-120648022D01*
X148389342Y-120425654D01*
X148403579Y-120196097D01*
X148372759Y-119968175D01*
X148298065Y-119750644D01*
X148229593Y-119622544D01*
X148055761Y-119539097D01*
X147356258Y-120238600D01*
X147105942Y-120238600D01*
X146406439Y-119539097D01*
X146232607Y-119622544D01*
X146131606Y-119829178D01*
X146072858Y-120051546D01*
X146058621Y-120281103D01*
X141641604Y-120281103D01*
X141646541Y-120192579D01*
X141616754Y-119982191D01*
X141546495Y-119781658D01*
X141489600Y-119675214D01*
X141324863Y-119602495D01*
X140688758Y-120238600D01*
X140438442Y-120238600D01*
X139802337Y-119602495D01*
X139637600Y-119675214D01*
X139545481Y-119866694D01*
X139492489Y-120072465D01*
X139480659Y-120284621D01*
X137794601Y-120284621D01*
X137794601Y-119477337D01*
X139927495Y-119477337D01*
X140563600Y-120113442D01*
X141199705Y-119477337D01*
X141171720Y-119413939D01*
X146531597Y-119413939D01*
X147231100Y-120113442D01*
X147930603Y-119413939D01*
X147847156Y-119240107D01*
X147640522Y-119139106D01*
X147418154Y-119080358D01*
X147188597Y-119066121D01*
X146960675Y-119096941D01*
X146743144Y-119171635D01*
X146615044Y-119240107D01*
X146531597Y-119413939D01*
X141171720Y-119413939D01*
X141126986Y-119312600D01*
X140935506Y-119220481D01*
X140729735Y-119167489D01*
X140517579Y-119155659D01*
X140307191Y-119185446D01*
X140106658Y-119255705D01*
X140000214Y-119312600D01*
X139927495Y-119477337D01*
X137794601Y-119477337D01*
X137794601Y-115917682D01*
X138001400Y-115917682D01*
X138015503Y-116060874D01*
X138071238Y-116244605D01*
X138161745Y-116413934D01*
X138283548Y-116562352D01*
X138431966Y-116684155D01*
X138601294Y-116774662D01*
X138785025Y-116830397D01*
X138976100Y-116849216D01*
X139167174Y-116830397D01*
X139350905Y-116774662D01*
X139520234Y-116684155D01*
X139668652Y-116562352D01*
X139790455Y-116413934D01*
X139880962Y-116244606D01*
X139936697Y-116060875D01*
X139950800Y-115917683D01*
X139950800Y-115917682D01*
X140541400Y-115917682D01*
X140555503Y-116060874D01*
X140611238Y-116244605D01*
X140701745Y-116413934D01*
X140823548Y-116562352D01*
X140971966Y-116684155D01*
X141141294Y-116774662D01*
X141325025Y-116830397D01*
X141516100Y-116849216D01*
X141707174Y-116830397D01*
X141890905Y-116774662D01*
X142060234Y-116684155D01*
X142208652Y-116562352D01*
X142330455Y-116413934D01*
X142420962Y-116244606D01*
X142476697Y-116060875D01*
X142490800Y-115917683D01*
X142490800Y-115917682D01*
X143081400Y-115917682D01*
X143095503Y-116060874D01*
X143151238Y-116244605D01*
X143241745Y-116413934D01*
X143363548Y-116562352D01*
X143511966Y-116684155D01*
X143681294Y-116774662D01*
X143865025Y-116830397D01*
X144056100Y-116849216D01*
X144247174Y-116830397D01*
X144430905Y-116774662D01*
X144600234Y-116684155D01*
X144748652Y-116562352D01*
X144870455Y-116413934D01*
X144960962Y-116244606D01*
X145016697Y-116060875D01*
X145030800Y-115917683D01*
X145030800Y-115917682D01*
X145621400Y-115917682D01*
X145635503Y-116060874D01*
X145691238Y-116244605D01*
X145781745Y-116413934D01*
X145903548Y-116562352D01*
X146051966Y-116684155D01*
X146221294Y-116774662D01*
X146405025Y-116830397D01*
X146596100Y-116849216D01*
X146787174Y-116830397D01*
X146970905Y-116774662D01*
X147140234Y-116684155D01*
X147288652Y-116562352D01*
X147410455Y-116413934D01*
X147500962Y-116244606D01*
X147556697Y-116060875D01*
X147570800Y-115917683D01*
X147570800Y-115053845D01*
X154422500Y-115053845D01*
X154422500Y-115263355D01*
X154463374Y-115468841D01*
X154543550Y-115662403D01*
X154659948Y-115836605D01*
X154808095Y-115984752D01*
X154982297Y-116101150D01*
X155175859Y-116181326D01*
X155381345Y-116222200D01*
X155590855Y-116222200D01*
X155796341Y-116181326D01*
X155989903Y-116101150D01*
X156164105Y-115984752D01*
X156312252Y-115836605D01*
X156428650Y-115662403D01*
X156508826Y-115468841D01*
X156549700Y-115263355D01*
X156549700Y-115053845D01*
X156508826Y-114848359D01*
X156428650Y-114654797D01*
X156312252Y-114480595D01*
X156164105Y-114332448D01*
X155989903Y-114216050D01*
X155796341Y-114135874D01*
X155590855Y-114095000D01*
X155381345Y-114095000D01*
X155175859Y-114135874D01*
X154982297Y-114216050D01*
X154808095Y-114332448D01*
X154659948Y-114480595D01*
X154543550Y-114654797D01*
X154463374Y-114848359D01*
X154422500Y-115053845D01*
X147570800Y-115053845D01*
X147570800Y-114399517D01*
X147556697Y-114256325D01*
X147500962Y-114072594D01*
X147410455Y-113903266D01*
X147288652Y-113754848D01*
X147140234Y-113633045D01*
X146970906Y-113542538D01*
X146787175Y-113486803D01*
X146596100Y-113467984D01*
X146405026Y-113486803D01*
X146221295Y-113542538D01*
X146051967Y-113633045D01*
X145903549Y-113754848D01*
X145781746Y-113903266D01*
X145691239Y-114072594D01*
X145635504Y-114256325D01*
X145621401Y-114399517D01*
X145621400Y-115917682D01*
X145030800Y-115917682D01*
X145030800Y-114399517D01*
X145016697Y-114256325D01*
X144960962Y-114072594D01*
X144870455Y-113903266D01*
X144748652Y-113754848D01*
X144600234Y-113633045D01*
X144430906Y-113542538D01*
X144247175Y-113486803D01*
X144056100Y-113467984D01*
X143865026Y-113486803D01*
X143681295Y-113542538D01*
X143511967Y-113633045D01*
X143363549Y-113754848D01*
X143241746Y-113903266D01*
X143151239Y-114072594D01*
X143095504Y-114256325D01*
X143081401Y-114399517D01*
X143081400Y-115917682D01*
X142490800Y-115917682D01*
X142490800Y-114399517D01*
X142476697Y-114256325D01*
X142420962Y-114072594D01*
X142330455Y-113903266D01*
X142208652Y-113754848D01*
X142060234Y-113633045D01*
X141890906Y-113542538D01*
X141707175Y-113486803D01*
X141516100Y-113467984D01*
X141325026Y-113486803D01*
X141141295Y-113542538D01*
X140971967Y-113633045D01*
X140823549Y-113754848D01*
X140701746Y-113903266D01*
X140611239Y-114072594D01*
X140555504Y-114256325D01*
X140541401Y-114399517D01*
X140541400Y-115917682D01*
X139950800Y-115917682D01*
X139950800Y-114399517D01*
X139936697Y-114256325D01*
X139880962Y-114072594D01*
X139790455Y-113903266D01*
X139668652Y-113754848D01*
X139520234Y-113633045D01*
X139350906Y-113542538D01*
X139167175Y-113486803D01*
X138976100Y-113467984D01*
X138785026Y-113486803D01*
X138601295Y-113542538D01*
X138431967Y-113633045D01*
X138283549Y-113754848D01*
X138161746Y-113903266D01*
X138071239Y-114072594D01*
X138015504Y-114256325D01*
X138001401Y-114399517D01*
X138001400Y-115917682D01*
X137794601Y-115917682D01*
X137794601Y-112522600D01*
X148796400Y-112522600D01*
X148796400Y-112714600D01*
X148833857Y-112902909D01*
X148907332Y-113080294D01*
X149014001Y-113239935D01*
X149149765Y-113375699D01*
X149309406Y-113482368D01*
X149486791Y-113555843D01*
X149675100Y-113593300D01*
X149867100Y-113593300D01*
X150055409Y-113555843D01*
X150232794Y-113482368D01*
X150291321Y-113443261D01*
X154786597Y-113443261D01*
X154870044Y-113617093D01*
X155076678Y-113718094D01*
X155299046Y-113776842D01*
X155528603Y-113791079D01*
X155756525Y-113760259D01*
X155974056Y-113685565D01*
X156102156Y-113617093D01*
X156185603Y-113443261D01*
X155486100Y-112743758D01*
X154786597Y-113443261D01*
X150291321Y-113443261D01*
X150392435Y-113375699D01*
X150528199Y-113239935D01*
X150634868Y-113080294D01*
X150708343Y-112902909D01*
X150745800Y-112714600D01*
X150745800Y-112661103D01*
X154313621Y-112661103D01*
X154344441Y-112889025D01*
X154419135Y-113106556D01*
X154487607Y-113234656D01*
X154661439Y-113318103D01*
X155360942Y-112618600D01*
X155611258Y-112618600D01*
X156310761Y-113318103D01*
X156484593Y-113234656D01*
X156585594Y-113028022D01*
X156644342Y-112805654D01*
X156658579Y-112576097D01*
X156627759Y-112348175D01*
X156553065Y-112130644D01*
X156484593Y-112002544D01*
X156310761Y-111919097D01*
X155611258Y-112618600D01*
X155360942Y-112618600D01*
X154661439Y-111919097D01*
X154487607Y-112002544D01*
X154386606Y-112209178D01*
X154327858Y-112431546D01*
X154313621Y-112661103D01*
X150745800Y-112661103D01*
X150745800Y-112522600D01*
X150708343Y-112334291D01*
X150634868Y-112156906D01*
X150528199Y-111997265D01*
X150392435Y-111861501D01*
X150291322Y-111793939D01*
X154786597Y-111793939D01*
X155486100Y-112493442D01*
X156185603Y-111793939D01*
X156102156Y-111620107D01*
X155895522Y-111519106D01*
X155673154Y-111460358D01*
X155443597Y-111446121D01*
X155215675Y-111476941D01*
X154998144Y-111551635D01*
X154870044Y-111620107D01*
X154786597Y-111793939D01*
X150291322Y-111793939D01*
X150232794Y-111754832D01*
X150055409Y-111681357D01*
X149867100Y-111643900D01*
X149675100Y-111643900D01*
X149486791Y-111681357D01*
X149309406Y-111754832D01*
X149149765Y-111861501D01*
X149014001Y-111997265D01*
X148907332Y-112156906D01*
X148833857Y-112334291D01*
X148796400Y-112522600D01*
X137794601Y-112522600D01*
X137794601Y-109982600D01*
X148796400Y-109982600D01*
X148796400Y-110174600D01*
X148833857Y-110362909D01*
X148907332Y-110540294D01*
X149014001Y-110699935D01*
X149149765Y-110835699D01*
X149309406Y-110942368D01*
X149486791Y-111015843D01*
X149675100Y-111053300D01*
X149867100Y-111053300D01*
X150055409Y-111015843D01*
X150232794Y-110942368D01*
X150392435Y-110835699D01*
X150528199Y-110699935D01*
X150634868Y-110540294D01*
X150708343Y-110362909D01*
X150745800Y-110174600D01*
X150745800Y-109982600D01*
X150708343Y-109794291D01*
X150634868Y-109616906D01*
X150528199Y-109457265D01*
X150392435Y-109321501D01*
X150232794Y-109214832D01*
X150055409Y-109141357D01*
X149867100Y-109103900D01*
X149675100Y-109103900D01*
X149486791Y-109141357D01*
X149309406Y-109214832D01*
X149149765Y-109321501D01*
X149014001Y-109457265D01*
X148907332Y-109616906D01*
X148833857Y-109794291D01*
X148796400Y-109982600D01*
X137794601Y-109982600D01*
X137794601Y-108297682D01*
X138001400Y-108297682D01*
X138015503Y-108440874D01*
X138071238Y-108624605D01*
X138161745Y-108793934D01*
X138283548Y-108942352D01*
X138431966Y-109064155D01*
X138601294Y-109154662D01*
X138785025Y-109210397D01*
X138976100Y-109229216D01*
X139167174Y-109210397D01*
X139350905Y-109154662D01*
X139520234Y-109064155D01*
X139668652Y-108942352D01*
X139790455Y-108793934D01*
X139880962Y-108624606D01*
X139936697Y-108440875D01*
X139950800Y-108297683D01*
X139950800Y-107627100D01*
X140437400Y-107627100D01*
X140437400Y-108338300D01*
X140475392Y-108547043D01*
X140553378Y-108744364D01*
X140668361Y-108922679D01*
X140815922Y-109075135D01*
X140990391Y-109195874D01*
X141185062Y-109280256D01*
X141260513Y-109297783D01*
X141427600Y-109232649D01*
X141427600Y-107627100D01*
X141604600Y-107627100D01*
X141604600Y-109232649D01*
X141771687Y-109297783D01*
X141847138Y-109280256D01*
X142041809Y-109195874D01*
X142216278Y-109075135D01*
X142363839Y-108922679D01*
X142478822Y-108744364D01*
X142556808Y-108547043D01*
X142594800Y-108338300D01*
X142594800Y-108297682D01*
X143081400Y-108297682D01*
X143095503Y-108440874D01*
X143151238Y-108624605D01*
X143241745Y-108793934D01*
X143363548Y-108942352D01*
X143511966Y-109064155D01*
X143681294Y-109154662D01*
X143865025Y-109210397D01*
X144056100Y-109229216D01*
X144247174Y-109210397D01*
X144430905Y-109154662D01*
X144600234Y-109064155D01*
X144748652Y-108942352D01*
X144870455Y-108793934D01*
X144960962Y-108624606D01*
X145016697Y-108440875D01*
X145030800Y-108297683D01*
X145030800Y-108297682D01*
X145621400Y-108297682D01*
X145635503Y-108440874D01*
X145691238Y-108624605D01*
X145781745Y-108793934D01*
X145903548Y-108942352D01*
X146051966Y-109064155D01*
X146221294Y-109154662D01*
X146405025Y-109210397D01*
X146596100Y-109229216D01*
X146787174Y-109210397D01*
X146970905Y-109154662D01*
X147140234Y-109064155D01*
X147288652Y-108942352D01*
X147410455Y-108793934D01*
X147500962Y-108624606D01*
X147556697Y-108440875D01*
X147570800Y-108297683D01*
X147570800Y-106779517D01*
X147556697Y-106636325D01*
X147500962Y-106452594D01*
X147410455Y-106283266D01*
X147288652Y-106134848D01*
X147140234Y-106013045D01*
X146970906Y-105922538D01*
X146787175Y-105866803D01*
X146596100Y-105847984D01*
X146405026Y-105866803D01*
X146221295Y-105922538D01*
X146051967Y-106013045D01*
X145903549Y-106134848D01*
X145781746Y-106283266D01*
X145691239Y-106452594D01*
X145635504Y-106636325D01*
X145621401Y-106779517D01*
X145621400Y-108297682D01*
X145030800Y-108297682D01*
X145030800Y-106779517D01*
X145016697Y-106636325D01*
X144960962Y-106452594D01*
X144870455Y-106283266D01*
X144748652Y-106134848D01*
X144600234Y-106013045D01*
X144430906Y-105922538D01*
X144247175Y-105866803D01*
X144056100Y-105847984D01*
X143865026Y-105866803D01*
X143681295Y-105922538D01*
X143511967Y-106013045D01*
X143363549Y-106134848D01*
X143241746Y-106283266D01*
X143151239Y-106452594D01*
X143095504Y-106636325D01*
X143081401Y-106779517D01*
X143081400Y-108297682D01*
X142594800Y-108297682D01*
X142594800Y-107627100D01*
X141604600Y-107627100D01*
X141427600Y-107627100D01*
X140437400Y-107627100D01*
X139950800Y-107627100D01*
X139950800Y-106779517D01*
X139946800Y-106738900D01*
X140437400Y-106738900D01*
X140437400Y-107450100D01*
X141427600Y-107450100D01*
X141427600Y-105844551D01*
X141604600Y-105844551D01*
X141604600Y-107450100D01*
X142594800Y-107450100D01*
X142594800Y-106738900D01*
X142556808Y-106530157D01*
X142478822Y-106332836D01*
X142363839Y-106154521D01*
X142216278Y-106002065D01*
X142041809Y-105881326D01*
X141847138Y-105796944D01*
X141771687Y-105779417D01*
X141604600Y-105844551D01*
X141427600Y-105844551D01*
X141260513Y-105779417D01*
X141185062Y-105796944D01*
X140990391Y-105881326D01*
X140815922Y-106002065D01*
X140668361Y-106154521D01*
X140553378Y-106332836D01*
X140475392Y-106530157D01*
X140437400Y-106738900D01*
X139946800Y-106738900D01*
X139936697Y-106636325D01*
X139880962Y-106452594D01*
X139790455Y-106283266D01*
X139668652Y-106134848D01*
X139520234Y-106013045D01*
X139350906Y-105922538D01*
X139167175Y-105866803D01*
X138976100Y-105847984D01*
X138785026Y-105866803D01*
X138601295Y-105922538D01*
X138431967Y-106013045D01*
X138283549Y-106134848D01*
X138161746Y-106283266D01*
X138071239Y-106452594D01*
X138015504Y-106636325D01*
X138001401Y-106779517D01*
X138001400Y-108297682D01*
X137794601Y-108297682D01*
X137794601Y-105533306D01*
X149387800Y-105533306D01*
X149387800Y-105733894D01*
X149426933Y-105930627D01*
X149503694Y-106115946D01*
X149615135Y-106282728D01*
X149756972Y-106424565D01*
X149923754Y-106536006D01*
X150109073Y-106612767D01*
X150305806Y-106651900D01*
X150506394Y-106651900D01*
X150703127Y-106612767D01*
X150888446Y-106536006D01*
X151055228Y-106424565D01*
X151197065Y-106282728D01*
X151308506Y-106115946D01*
X151385267Y-105930627D01*
X151424400Y-105733894D01*
X151424400Y-105533306D01*
X151385267Y-105336573D01*
X151308506Y-105151254D01*
X151197065Y-104984472D01*
X151091393Y-104878800D01*
X157006526Y-104878800D01*
X157006526Y-106388400D01*
X157011614Y-106440055D01*
X157026681Y-106489725D01*
X157051148Y-106535501D01*
X157084077Y-106575623D01*
X157124199Y-106608552D01*
X157169975Y-106633019D01*
X157219645Y-106648086D01*
X157271300Y-106653174D01*
X158780900Y-106653174D01*
X158832555Y-106648086D01*
X158882225Y-106633019D01*
X158928001Y-106608552D01*
X158968123Y-106575623D01*
X159001052Y-106535501D01*
X159025519Y-106489725D01*
X159040586Y-106440055D01*
X159045674Y-106388400D01*
X159045674Y-104878800D01*
X159040586Y-104827145D01*
X159025519Y-104777475D01*
X159001052Y-104731699D01*
X158968123Y-104691577D01*
X158928001Y-104658648D01*
X158882225Y-104634181D01*
X158832555Y-104619114D01*
X158780900Y-104614026D01*
X157271300Y-104614026D01*
X157219645Y-104619114D01*
X157169975Y-104634181D01*
X157124199Y-104658648D01*
X157084077Y-104691577D01*
X157051148Y-104731699D01*
X157026681Y-104777475D01*
X157011614Y-104827145D01*
X157006526Y-104878800D01*
X151091393Y-104878800D01*
X151055228Y-104842635D01*
X150888446Y-104731194D01*
X150703127Y-104654433D01*
X150506394Y-104615300D01*
X150305806Y-104615300D01*
X150109073Y-104654433D01*
X149923754Y-104731194D01*
X149756972Y-104842635D01*
X149615135Y-104984472D01*
X149503694Y-105151254D01*
X149426933Y-105336573D01*
X149387800Y-105533306D01*
X137794601Y-105533306D01*
X137794601Y-103623845D01*
X139182500Y-103623845D01*
X139182500Y-103833355D01*
X139223374Y-104038841D01*
X139303550Y-104232403D01*
X139419948Y-104406605D01*
X139568095Y-104554752D01*
X139742297Y-104671150D01*
X139935859Y-104751326D01*
X140141345Y-104792200D01*
X140350855Y-104792200D01*
X140556341Y-104751326D01*
X140749903Y-104671150D01*
X140924105Y-104554752D01*
X141072252Y-104406605D01*
X141188650Y-104232403D01*
X141268826Y-104038841D01*
X141309700Y-103833355D01*
X141309700Y-103623845D01*
X146167500Y-103623845D01*
X146167500Y-103833355D01*
X146208374Y-104038841D01*
X146288550Y-104232403D01*
X146404948Y-104406605D01*
X146553095Y-104554752D01*
X146727297Y-104671150D01*
X146920859Y-104751326D01*
X147126345Y-104792200D01*
X147335855Y-104792200D01*
X147541341Y-104751326D01*
X147734903Y-104671150D01*
X147909105Y-104554752D01*
X148057252Y-104406605D01*
X148173650Y-104232403D01*
X148253826Y-104038841D01*
X148294700Y-103833355D01*
X148294700Y-103623845D01*
X148253826Y-103418359D01*
X148173650Y-103224797D01*
X148057252Y-103050595D01*
X147909105Y-102902448D01*
X147734903Y-102786050D01*
X147541341Y-102705874D01*
X147335855Y-102665000D01*
X147126345Y-102665000D01*
X146920859Y-102705874D01*
X146727297Y-102786050D01*
X146553095Y-102902448D01*
X146404948Y-103050595D01*
X146288550Y-103224797D01*
X146208374Y-103418359D01*
X146167500Y-103623845D01*
X141309700Y-103623845D01*
X141268826Y-103418359D01*
X141188650Y-103224797D01*
X141072252Y-103050595D01*
X140924105Y-102902448D01*
X140749903Y-102786050D01*
X140556341Y-102705874D01*
X140350855Y-102665000D01*
X140141345Y-102665000D01*
X139935859Y-102705874D01*
X139742297Y-102786050D01*
X139568095Y-102902448D01*
X139419948Y-103050595D01*
X139303550Y-103224797D01*
X139223374Y-103418359D01*
X139182500Y-103623845D01*
X137794601Y-103623845D01*
X137794601Y-101083845D01*
X139182500Y-101083845D01*
X139182500Y-101293355D01*
X139223374Y-101498841D01*
X139303550Y-101692403D01*
X139419948Y-101866605D01*
X139568095Y-102014752D01*
X139742297Y-102131150D01*
X139935859Y-102211326D01*
X140141345Y-102252200D01*
X140350855Y-102252200D01*
X140556341Y-102211326D01*
X140749903Y-102131150D01*
X140924105Y-102014752D01*
X141072252Y-101866605D01*
X141188650Y-101692403D01*
X141268826Y-101498841D01*
X141309700Y-101293355D01*
X141309700Y-101083845D01*
X146167500Y-101083845D01*
X146167500Y-101293355D01*
X146208374Y-101498841D01*
X146288550Y-101692403D01*
X146404948Y-101866605D01*
X146553095Y-102014752D01*
X146727297Y-102131150D01*
X146920859Y-102211326D01*
X147126345Y-102252200D01*
X147335855Y-102252200D01*
X147541341Y-102211326D01*
X147734903Y-102131150D01*
X147909105Y-102014752D01*
X148057252Y-101866605D01*
X148173650Y-101692403D01*
X148253826Y-101498841D01*
X148294700Y-101293355D01*
X148294700Y-101083845D01*
X148253826Y-100878359D01*
X148173650Y-100684797D01*
X148057252Y-100510595D01*
X147909105Y-100362448D01*
X147734903Y-100246050D01*
X147541341Y-100165874D01*
X147335855Y-100125000D01*
X147126345Y-100125000D01*
X146920859Y-100165874D01*
X146727297Y-100246050D01*
X146553095Y-100362448D01*
X146404948Y-100510595D01*
X146288550Y-100684797D01*
X146208374Y-100878359D01*
X146167500Y-101083845D01*
X141309700Y-101083845D01*
X141268826Y-100878359D01*
X141188650Y-100684797D01*
X141072252Y-100510595D01*
X140924105Y-100362448D01*
X140749903Y-100246050D01*
X140556341Y-100165874D01*
X140350855Y-100125000D01*
X140141345Y-100125000D01*
X139935859Y-100165874D01*
X139742297Y-100246050D01*
X139568095Y-100362448D01*
X139419948Y-100510595D01*
X139303550Y-100684797D01*
X139223374Y-100878359D01*
X139182500Y-101083845D01*
X137794601Y-101083845D01*
X137794601Y-97165021D01*
X148412600Y-97165021D01*
X148412600Y-97592179D01*
X148495935Y-98011128D01*
X148659401Y-98405770D01*
X148896716Y-98760938D01*
X149198762Y-99062984D01*
X149553930Y-99300299D01*
X149948572Y-99463765D01*
X150367521Y-99547100D01*
X150794679Y-99547100D01*
X151213628Y-99463765D01*
X151608270Y-99300299D01*
X151963438Y-99062984D01*
X152036797Y-98989625D01*
X155095233Y-98989625D01*
X155311501Y-99276617D01*
X155706181Y-99487834D01*
X156134484Y-99617994D01*
X156579950Y-99662095D01*
X157025459Y-99618442D01*
X157453893Y-99488713D01*
X157848785Y-99277895D01*
X157850699Y-99276617D01*
X158066967Y-98989625D01*
X156581100Y-97503758D01*
X155095233Y-98989625D01*
X152036797Y-98989625D01*
X152265484Y-98760938D01*
X152502799Y-98405770D01*
X152666265Y-98011128D01*
X152749600Y-97592179D01*
X152749600Y-97377450D01*
X154297605Y-97377450D01*
X154341258Y-97822959D01*
X154470987Y-98251393D01*
X154681805Y-98646285D01*
X154683083Y-98648199D01*
X154970075Y-98864467D01*
X156455942Y-97378600D01*
X156706258Y-97378600D01*
X158192125Y-98864467D01*
X158479117Y-98648199D01*
X158690334Y-98253519D01*
X158820494Y-97825216D01*
X158864595Y-97379750D01*
X158820942Y-96934241D01*
X158691213Y-96505807D01*
X158480395Y-96110915D01*
X158479117Y-96109001D01*
X158192125Y-95892733D01*
X156706258Y-97378600D01*
X156455942Y-97378600D01*
X154970075Y-95892733D01*
X154683083Y-96109001D01*
X154471866Y-96503681D01*
X154341706Y-96931984D01*
X154297605Y-97377450D01*
X152749600Y-97377450D01*
X152749600Y-97165021D01*
X152666265Y-96746072D01*
X152502799Y-96351430D01*
X152265484Y-95996262D01*
X152036797Y-95767575D01*
X155095233Y-95767575D01*
X156581100Y-97253442D01*
X158066967Y-95767575D01*
X157850699Y-95480583D01*
X157456019Y-95269366D01*
X157027716Y-95139206D01*
X156582250Y-95095105D01*
X156136741Y-95138758D01*
X155708307Y-95268487D01*
X155313415Y-95479305D01*
X155311501Y-95480583D01*
X155095233Y-95767575D01*
X152036797Y-95767575D01*
X151963438Y-95694216D01*
X151608270Y-95456901D01*
X151213628Y-95293435D01*
X150794679Y-95210100D01*
X150367521Y-95210100D01*
X149948572Y-95293435D01*
X149553930Y-95456901D01*
X149198762Y-95694216D01*
X148896716Y-95996262D01*
X148659401Y-96351430D01*
X148495935Y-96746072D01*
X148412600Y-97165021D01*
X137794601Y-97165021D01*
X137794601Y-95663261D01*
X140816597Y-95663261D01*
X140900044Y-95837093D01*
X141106678Y-95938094D01*
X141329046Y-95996842D01*
X141558603Y-96011079D01*
X141786525Y-95980259D01*
X142004056Y-95905565D01*
X142132156Y-95837093D01*
X142215603Y-95663261D01*
X141516100Y-94963758D01*
X140816597Y-95663261D01*
X137794601Y-95663261D01*
X137794601Y-94881103D01*
X140343621Y-94881103D01*
X140374441Y-95109025D01*
X140449135Y-95326556D01*
X140517607Y-95454656D01*
X140691439Y-95538103D01*
X141390942Y-94838600D01*
X141641258Y-94838600D01*
X142340761Y-95538103D01*
X142514593Y-95454656D01*
X142615594Y-95248022D01*
X142674342Y-95025654D01*
X142688579Y-94796097D01*
X142680162Y-94733845D01*
X142992500Y-94733845D01*
X142992500Y-94943355D01*
X143033374Y-95148841D01*
X143113550Y-95342403D01*
X143229948Y-95516605D01*
X143378095Y-95664752D01*
X143552297Y-95781150D01*
X143745859Y-95861326D01*
X143951345Y-95902200D01*
X144160855Y-95902200D01*
X144366341Y-95861326D01*
X144559903Y-95781150D01*
X144734105Y-95664752D01*
X144882252Y-95516605D01*
X144998650Y-95342403D01*
X145078826Y-95148841D01*
X145119700Y-94943355D01*
X145119700Y-94733845D01*
X145078826Y-94528359D01*
X144998650Y-94334797D01*
X144882252Y-94160595D01*
X144734105Y-94012448D01*
X144559903Y-93896050D01*
X144366341Y-93815874D01*
X144160855Y-93775000D01*
X143951345Y-93775000D01*
X143745859Y-93815874D01*
X143552297Y-93896050D01*
X143378095Y-94012448D01*
X143229948Y-94160595D01*
X143113550Y-94334797D01*
X143033374Y-94528359D01*
X142992500Y-94733845D01*
X142680162Y-94733845D01*
X142657759Y-94568175D01*
X142583065Y-94350644D01*
X142514593Y-94222544D01*
X142340761Y-94139097D01*
X141641258Y-94838600D01*
X141390942Y-94838600D01*
X140691439Y-94139097D01*
X140517607Y-94222544D01*
X140416606Y-94429178D01*
X140357858Y-94651546D01*
X140343621Y-94881103D01*
X137794601Y-94881103D01*
X137794601Y-94013939D01*
X140816597Y-94013939D01*
X141516100Y-94713442D01*
X142215603Y-94013939D01*
X142132156Y-93840107D01*
X141925522Y-93739106D01*
X141703154Y-93680358D01*
X141473597Y-93666121D01*
X141245675Y-93696941D01*
X141028144Y-93771635D01*
X140900044Y-93840107D01*
X140816597Y-94013939D01*
X137794601Y-94013939D01*
X137794601Y-92365021D01*
X151412600Y-92365021D01*
X151412600Y-92792179D01*
X151495935Y-93211128D01*
X151659401Y-93605770D01*
X151896716Y-93960938D01*
X152198762Y-94262984D01*
X152553930Y-94500299D01*
X152948572Y-94663765D01*
X153367521Y-94747100D01*
X153794679Y-94747100D01*
X154213628Y-94663765D01*
X154608270Y-94500299D01*
X154963438Y-94262984D01*
X155265484Y-93960938D01*
X155502799Y-93605770D01*
X155666265Y-93211128D01*
X155749600Y-92792179D01*
X155749600Y-92365021D01*
X155666265Y-91946072D01*
X155502799Y-91551430D01*
X155265484Y-91196262D01*
X154963438Y-90894216D01*
X154608270Y-90656901D01*
X154213628Y-90493435D01*
X153794679Y-90410100D01*
X153367521Y-90410100D01*
X152948572Y-90493435D01*
X152553930Y-90656901D01*
X152198762Y-90894216D01*
X151896716Y-91196262D01*
X151659401Y-91551430D01*
X151495935Y-91946072D01*
X151412600Y-92365021D01*
X137794601Y-92365021D01*
X137794601Y-90519863D01*
X139927495Y-90519863D01*
X140000214Y-90684600D01*
X140191694Y-90776719D01*
X140397465Y-90829711D01*
X140609621Y-90841541D01*
X140820009Y-90811754D01*
X141020542Y-90741495D01*
X141126986Y-90684600D01*
X141171719Y-90583261D01*
X146531597Y-90583261D01*
X146615044Y-90757093D01*
X146821678Y-90858094D01*
X147044046Y-90916842D01*
X147273603Y-90931079D01*
X147501525Y-90900259D01*
X147719056Y-90825565D01*
X147847156Y-90757093D01*
X147930603Y-90583261D01*
X147231100Y-89883758D01*
X146531597Y-90583261D01*
X141171719Y-90583261D01*
X141199705Y-90519863D01*
X140563600Y-89883758D01*
X139927495Y-90519863D01*
X137794601Y-90519863D01*
X137794601Y-89804621D01*
X139480659Y-89804621D01*
X139510446Y-90015009D01*
X139580705Y-90215542D01*
X139637600Y-90321986D01*
X139802337Y-90394705D01*
X140438442Y-89758600D01*
X140688758Y-89758600D01*
X141324863Y-90394705D01*
X141489600Y-90321986D01*
X141581719Y-90130506D01*
X141634711Y-89924735D01*
X141641604Y-89801103D01*
X146058621Y-89801103D01*
X146089441Y-90029025D01*
X146164135Y-90246556D01*
X146232607Y-90374656D01*
X146406439Y-90458103D01*
X147105942Y-89758600D01*
X147356258Y-89758600D01*
X148055761Y-90458103D01*
X148229593Y-90374656D01*
X148330594Y-90168022D01*
X148389342Y-89945654D01*
X148403579Y-89716097D01*
X148372759Y-89488175D01*
X148298065Y-89270644D01*
X148229593Y-89142544D01*
X148055761Y-89059097D01*
X147356258Y-89758600D01*
X147105942Y-89758600D01*
X146406439Y-89059097D01*
X146232607Y-89142544D01*
X146131606Y-89349178D01*
X146072858Y-89571546D01*
X146058621Y-89801103D01*
X141641604Y-89801103D01*
X141646541Y-89712579D01*
X141616754Y-89502191D01*
X141546495Y-89301658D01*
X141489600Y-89195214D01*
X141324863Y-89122495D01*
X140688758Y-89758600D01*
X140438442Y-89758600D01*
X139802337Y-89122495D01*
X139637600Y-89195214D01*
X139545481Y-89386694D01*
X139492489Y-89592465D01*
X139480659Y-89804621D01*
X137794601Y-89804621D01*
X137794601Y-88997337D01*
X139927495Y-88997337D01*
X140563600Y-89633442D01*
X141199705Y-88997337D01*
X141171720Y-88933939D01*
X146531597Y-88933939D01*
X147231100Y-89633442D01*
X147930603Y-88933939D01*
X147847156Y-88760107D01*
X147640522Y-88659106D01*
X147418154Y-88600358D01*
X147188597Y-88586121D01*
X146960675Y-88616941D01*
X146743144Y-88691635D01*
X146615044Y-88760107D01*
X146531597Y-88933939D01*
X141171720Y-88933939D01*
X141126986Y-88832600D01*
X140935506Y-88740481D01*
X140729735Y-88687489D01*
X140517579Y-88675659D01*
X140307191Y-88705446D01*
X140106658Y-88775705D01*
X140000214Y-88832600D01*
X139927495Y-88997337D01*
X137794601Y-88997337D01*
X137794601Y-87122600D01*
X139588900Y-87122600D01*
X139588900Y-87314600D01*
X139626357Y-87502909D01*
X139699832Y-87680294D01*
X139806501Y-87839935D01*
X139942265Y-87975699D01*
X140101906Y-88082368D01*
X140279291Y-88155843D01*
X140467600Y-88193300D01*
X140659600Y-88193300D01*
X140847909Y-88155843D01*
X141025294Y-88082368D01*
X141184935Y-87975699D01*
X141320699Y-87839935D01*
X141427368Y-87680294D01*
X141500843Y-87502909D01*
X141538300Y-87314600D01*
X141538300Y-87122600D01*
X141536559Y-87113845D01*
X146167500Y-87113845D01*
X146167500Y-87323355D01*
X146208374Y-87528841D01*
X146288550Y-87722403D01*
X146404948Y-87896605D01*
X146553095Y-88044752D01*
X146727297Y-88161150D01*
X146920859Y-88241326D01*
X147126345Y-88282200D01*
X147335855Y-88282200D01*
X147541341Y-88241326D01*
X147734903Y-88161150D01*
X147909105Y-88044752D01*
X148057252Y-87896605D01*
X148173650Y-87722403D01*
X148253826Y-87528841D01*
X148294700Y-87323355D01*
X148294700Y-87218600D01*
X154226793Y-87218600D01*
X154247574Y-87429592D01*
X154309118Y-87632475D01*
X154409060Y-87819453D01*
X154543559Y-87983341D01*
X154707447Y-88117840D01*
X154894425Y-88217782D01*
X155097308Y-88279326D01*
X155255433Y-88294900D01*
X156986767Y-88294900D01*
X157144892Y-88279326D01*
X157347775Y-88217782D01*
X157534753Y-88117840D01*
X157698641Y-87983341D01*
X157833140Y-87819453D01*
X157933082Y-87632475D01*
X157994626Y-87429592D01*
X158015407Y-87218600D01*
X157994626Y-87007608D01*
X157933082Y-86804725D01*
X157833140Y-86617747D01*
X157698641Y-86453859D01*
X157534753Y-86319360D01*
X157347775Y-86219418D01*
X157144892Y-86157874D01*
X156986767Y-86142300D01*
X155255433Y-86142300D01*
X155097308Y-86157874D01*
X154894425Y-86219418D01*
X154707447Y-86319360D01*
X154543559Y-86453859D01*
X154409060Y-86617747D01*
X154309118Y-86804725D01*
X154247574Y-87007608D01*
X154226793Y-87218600D01*
X148294700Y-87218600D01*
X148294700Y-87113845D01*
X148253826Y-86908359D01*
X148173650Y-86714797D01*
X148057252Y-86540595D01*
X147909105Y-86392448D01*
X147734903Y-86276050D01*
X147541341Y-86195874D01*
X147335855Y-86155000D01*
X147126345Y-86155000D01*
X146920859Y-86195874D01*
X146727297Y-86276050D01*
X146553095Y-86392448D01*
X146404948Y-86540595D01*
X146288550Y-86714797D01*
X146208374Y-86908359D01*
X146167500Y-87113845D01*
X141536559Y-87113845D01*
X141500843Y-86934291D01*
X141427368Y-86756906D01*
X141320699Y-86597265D01*
X141184935Y-86461501D01*
X141025294Y-86354832D01*
X140847909Y-86281357D01*
X140659600Y-86243900D01*
X140467600Y-86243900D01*
X140279291Y-86281357D01*
X140101906Y-86354832D01*
X139942265Y-86461501D01*
X139806501Y-86597265D01*
X139699832Y-86756906D01*
X139626357Y-86934291D01*
X139588900Y-87122600D01*
X137794601Y-87122600D01*
X137794601Y-84950130D01*
X154159658Y-84950130D01*
X154183978Y-85048518D01*
X154277749Y-85260754D01*
X154411123Y-85450619D01*
X154578975Y-85610815D01*
X154774855Y-85735187D01*
X154991235Y-85818955D01*
X155219800Y-85858900D01*
X156032600Y-85858900D01*
X156032600Y-84767100D01*
X156209600Y-84767100D01*
X156209600Y-85858900D01*
X157022400Y-85858900D01*
X157250965Y-85818955D01*
X157467345Y-85735187D01*
X157663225Y-85610815D01*
X157831077Y-85450619D01*
X157964451Y-85260754D01*
X158058222Y-85048518D01*
X158082542Y-84950130D01*
X158018721Y-84767100D01*
X156209600Y-84767100D01*
X156032600Y-84767100D01*
X154223479Y-84767100D01*
X154159658Y-84950130D01*
X137794601Y-84950130D01*
X137794601Y-84332817D01*
X141352041Y-84332817D01*
X141452324Y-84520949D01*
X141682759Y-84635900D01*
X141931193Y-84703686D01*
X142188077Y-84721703D01*
X142443541Y-84689258D01*
X142687766Y-84607599D01*
X142849876Y-84520949D01*
X142950159Y-84332817D01*
X143892041Y-84332817D01*
X143992324Y-84520949D01*
X144222759Y-84635900D01*
X144471193Y-84703686D01*
X144728077Y-84721703D01*
X144983541Y-84689258D01*
X145227766Y-84607599D01*
X145389876Y-84520949D01*
X145490159Y-84332817D01*
X146432041Y-84332817D01*
X146532324Y-84520949D01*
X146762759Y-84635900D01*
X147011193Y-84703686D01*
X147268077Y-84721703D01*
X147523541Y-84689258D01*
X147767766Y-84607599D01*
X147929876Y-84520949D01*
X148030159Y-84332817D01*
X148972041Y-84332817D01*
X149072324Y-84520949D01*
X149302759Y-84635900D01*
X149551193Y-84703686D01*
X149808077Y-84721703D01*
X150063541Y-84689258D01*
X150307766Y-84607599D01*
X150469876Y-84520949D01*
X150570159Y-84332817D01*
X151512041Y-84332817D01*
X151612324Y-84520949D01*
X151842759Y-84635900D01*
X152091193Y-84703686D01*
X152348077Y-84721703D01*
X152603541Y-84689258D01*
X152847766Y-84607599D01*
X153009876Y-84520949D01*
X153070578Y-84407070D01*
X154159658Y-84407070D01*
X154223479Y-84590100D01*
X156032600Y-84590100D01*
X156032600Y-83498300D01*
X156209600Y-83498300D01*
X156209600Y-84590100D01*
X158018721Y-84590100D01*
X158082542Y-84407070D01*
X158058222Y-84308682D01*
X157964451Y-84096446D01*
X157831077Y-83906581D01*
X157663225Y-83746385D01*
X157467345Y-83622013D01*
X157250965Y-83538245D01*
X157022400Y-83498300D01*
X156209600Y-83498300D01*
X156032600Y-83498300D01*
X155219800Y-83498300D01*
X154991235Y-83538245D01*
X154774855Y-83622013D01*
X154578975Y-83746385D01*
X154411123Y-83906581D01*
X154277749Y-84096446D01*
X154183978Y-84308682D01*
X154159658Y-84407070D01*
X153070578Y-84407070D01*
X153110159Y-84332817D01*
X152311100Y-83533758D01*
X151512041Y-84332817D01*
X150570159Y-84332817D01*
X149771100Y-83533758D01*
X148972041Y-84332817D01*
X148030159Y-84332817D01*
X147231100Y-83533758D01*
X146432041Y-84332817D01*
X145490159Y-84332817D01*
X144691100Y-83533758D01*
X143892041Y-84332817D01*
X142950159Y-84332817D01*
X142151100Y-83533758D01*
X141352041Y-84332817D01*
X137794601Y-84332817D01*
X137794601Y-83445577D01*
X140837997Y-83445577D01*
X140870442Y-83701041D01*
X140952101Y-83945266D01*
X141038751Y-84107376D01*
X141226883Y-84207659D01*
X142025942Y-83408600D01*
X142276258Y-83408600D01*
X143075317Y-84207659D01*
X143263449Y-84107376D01*
X143378400Y-83876941D01*
X143419226Y-83727313D01*
X143492101Y-83945266D01*
X143578751Y-84107376D01*
X143766883Y-84207659D01*
X144565942Y-83408600D01*
X144816258Y-83408600D01*
X145615317Y-84207659D01*
X145803449Y-84107376D01*
X145918400Y-83876941D01*
X145959226Y-83727313D01*
X146032101Y-83945266D01*
X146118751Y-84107376D01*
X146306883Y-84207659D01*
X147105942Y-83408600D01*
X147356258Y-83408600D01*
X148155317Y-84207659D01*
X148343449Y-84107376D01*
X148458400Y-83876941D01*
X148499226Y-83727313D01*
X148572101Y-83945266D01*
X148658751Y-84107376D01*
X148846883Y-84207659D01*
X149645942Y-83408600D01*
X149896258Y-83408600D01*
X150695317Y-84207659D01*
X150883449Y-84107376D01*
X150998400Y-83876941D01*
X151039226Y-83727313D01*
X151112101Y-83945266D01*
X151198751Y-84107376D01*
X151386883Y-84207659D01*
X152185942Y-83408600D01*
X152436258Y-83408600D01*
X153235317Y-84207659D01*
X153423449Y-84107376D01*
X153538400Y-83876941D01*
X153606186Y-83628507D01*
X153624203Y-83371623D01*
X153591758Y-83116159D01*
X153510099Y-82871934D01*
X153423449Y-82709824D01*
X153235317Y-82609541D01*
X152436258Y-83408600D01*
X152185942Y-83408600D01*
X151386883Y-82609541D01*
X151198751Y-82709824D01*
X151083800Y-82940259D01*
X151042974Y-83089887D01*
X150970099Y-82871934D01*
X150883449Y-82709824D01*
X150695317Y-82609541D01*
X149896258Y-83408600D01*
X149645942Y-83408600D01*
X148846883Y-82609541D01*
X148658751Y-82709824D01*
X148543800Y-82940259D01*
X148502974Y-83089887D01*
X148430099Y-82871934D01*
X148343449Y-82709824D01*
X148155317Y-82609541D01*
X147356258Y-83408600D01*
X147105942Y-83408600D01*
X146306883Y-82609541D01*
X146118751Y-82709824D01*
X146003800Y-82940259D01*
X145962974Y-83089887D01*
X145890099Y-82871934D01*
X145803449Y-82709824D01*
X145615317Y-82609541D01*
X144816258Y-83408600D01*
X144565942Y-83408600D01*
X143766883Y-82609541D01*
X143578751Y-82709824D01*
X143463800Y-82940259D01*
X143422974Y-83089887D01*
X143350099Y-82871934D01*
X143263449Y-82709824D01*
X143075317Y-82609541D01*
X142276258Y-83408600D01*
X142025942Y-83408600D01*
X141226883Y-82609541D01*
X141038751Y-82709824D01*
X140923800Y-82940259D01*
X140856014Y-83188693D01*
X140837997Y-83445577D01*
X137794601Y-83445577D01*
X137794601Y-82484383D01*
X141352041Y-82484383D01*
X142151100Y-83283442D01*
X142950159Y-82484383D01*
X143892041Y-82484383D01*
X144691100Y-83283442D01*
X145490159Y-82484383D01*
X146432041Y-82484383D01*
X147231100Y-83283442D01*
X148030159Y-82484383D01*
X148972041Y-82484383D01*
X149771100Y-83283442D01*
X150570159Y-82484383D01*
X151512041Y-82484383D01*
X152311100Y-83283442D01*
X153110159Y-82484383D01*
X153009876Y-82296251D01*
X152779441Y-82181300D01*
X152622947Y-82138600D01*
X154226793Y-82138600D01*
X154247574Y-82349592D01*
X154309118Y-82552475D01*
X154409060Y-82739453D01*
X154543559Y-82903341D01*
X154707447Y-83037840D01*
X154894425Y-83137782D01*
X155097308Y-83199326D01*
X155255433Y-83214900D01*
X156986767Y-83214900D01*
X157144892Y-83199326D01*
X157347775Y-83137782D01*
X157534753Y-83037840D01*
X157698641Y-82903341D01*
X157833140Y-82739453D01*
X157933082Y-82552475D01*
X157994626Y-82349592D01*
X158015407Y-82138600D01*
X157994626Y-81927608D01*
X157933082Y-81724725D01*
X157833140Y-81537747D01*
X157698641Y-81373859D01*
X157534753Y-81239360D01*
X157347775Y-81139418D01*
X157144892Y-81077874D01*
X156986767Y-81062300D01*
X155255433Y-81062300D01*
X155097308Y-81077874D01*
X154894425Y-81139418D01*
X154707447Y-81239360D01*
X154543559Y-81373859D01*
X154409060Y-81537747D01*
X154309118Y-81724725D01*
X154247574Y-81927608D01*
X154226793Y-82138600D01*
X152622947Y-82138600D01*
X152531007Y-82113514D01*
X152274123Y-82095497D01*
X152018659Y-82127942D01*
X151774434Y-82209601D01*
X151612324Y-82296251D01*
X151512041Y-82484383D01*
X150570159Y-82484383D01*
X150469876Y-82296251D01*
X150239441Y-82181300D01*
X149991007Y-82113514D01*
X149734123Y-82095497D01*
X149478659Y-82127942D01*
X149234434Y-82209601D01*
X149072324Y-82296251D01*
X148972041Y-82484383D01*
X148030159Y-82484383D01*
X147929876Y-82296251D01*
X147699441Y-82181300D01*
X147451007Y-82113514D01*
X147194123Y-82095497D01*
X146938659Y-82127942D01*
X146694434Y-82209601D01*
X146532324Y-82296251D01*
X146432041Y-82484383D01*
X145490159Y-82484383D01*
X145389876Y-82296251D01*
X145159441Y-82181300D01*
X144911007Y-82113514D01*
X144654123Y-82095497D01*
X144398659Y-82127942D01*
X144154434Y-82209601D01*
X143992324Y-82296251D01*
X143892041Y-82484383D01*
X142950159Y-82484383D01*
X142849876Y-82296251D01*
X142619441Y-82181300D01*
X142371007Y-82113514D01*
X142114123Y-82095497D01*
X141858659Y-82127942D01*
X141614434Y-82209601D01*
X141452324Y-82296251D01*
X141352041Y-82484383D01*
X137794601Y-82484383D01*
X137794601Y-80872932D01*
X137806646Y-80750085D01*
X140947800Y-80750085D01*
X140947800Y-80987115D01*
X140994042Y-81219590D01*
X141084750Y-81438576D01*
X141216436Y-81635659D01*
X141384041Y-81803264D01*
X141581124Y-81934950D01*
X141800110Y-82025658D01*
X142032585Y-82071900D01*
X142269615Y-82071900D01*
X142502090Y-82025658D01*
X142721076Y-81934950D01*
X142918159Y-81803264D01*
X143085764Y-81635659D01*
X143217450Y-81438576D01*
X143308158Y-81219590D01*
X143354400Y-80987115D01*
X143354400Y-80750085D01*
X143487800Y-80750085D01*
X143487800Y-80987115D01*
X143534042Y-81219590D01*
X143624750Y-81438576D01*
X143756436Y-81635659D01*
X143924041Y-81803264D01*
X144121124Y-81934950D01*
X144340110Y-82025658D01*
X144572585Y-82071900D01*
X144809615Y-82071900D01*
X145042090Y-82025658D01*
X145261076Y-81934950D01*
X145458159Y-81803264D01*
X145625764Y-81635659D01*
X145757450Y-81438576D01*
X145848158Y-81219590D01*
X145894400Y-80987115D01*
X145894400Y-80750085D01*
X146027800Y-80750085D01*
X146027800Y-80987115D01*
X146074042Y-81219590D01*
X146164750Y-81438576D01*
X146296436Y-81635659D01*
X146464041Y-81803264D01*
X146661124Y-81934950D01*
X146880110Y-82025658D01*
X147112585Y-82071900D01*
X147349615Y-82071900D01*
X147582090Y-82025658D01*
X147801076Y-81934950D01*
X147998159Y-81803264D01*
X148165764Y-81635659D01*
X148297450Y-81438576D01*
X148388158Y-81219590D01*
X148434400Y-80987115D01*
X148434400Y-80750085D01*
X148567800Y-80750085D01*
X148567800Y-80987115D01*
X148614042Y-81219590D01*
X148704750Y-81438576D01*
X148836436Y-81635659D01*
X149004041Y-81803264D01*
X149201124Y-81934950D01*
X149420110Y-82025658D01*
X149652585Y-82071900D01*
X149889615Y-82071900D01*
X150122090Y-82025658D01*
X150341076Y-81934950D01*
X150538159Y-81803264D01*
X150705764Y-81635659D01*
X150837450Y-81438576D01*
X150928158Y-81219590D01*
X150974400Y-80987115D01*
X150974400Y-80750085D01*
X151107800Y-80750085D01*
X151107800Y-80987115D01*
X151154042Y-81219590D01*
X151244750Y-81438576D01*
X151376436Y-81635659D01*
X151544041Y-81803264D01*
X151741124Y-81934950D01*
X151960110Y-82025658D01*
X152192585Y-82071900D01*
X152429615Y-82071900D01*
X152662090Y-82025658D01*
X152881076Y-81934950D01*
X153078159Y-81803264D01*
X153245764Y-81635659D01*
X153377450Y-81438576D01*
X153468158Y-81219590D01*
X153514400Y-80987115D01*
X153514400Y-80750085D01*
X153468158Y-80517610D01*
X153377450Y-80298624D01*
X153245764Y-80101541D01*
X153078159Y-79933936D01*
X152881076Y-79802250D01*
X152662090Y-79711542D01*
X152429615Y-79665300D01*
X152192585Y-79665300D01*
X151960110Y-79711542D01*
X151741124Y-79802250D01*
X151544041Y-79933936D01*
X151376436Y-80101541D01*
X151244750Y-80298624D01*
X151154042Y-80517610D01*
X151107800Y-80750085D01*
X150974400Y-80750085D01*
X150928158Y-80517610D01*
X150837450Y-80298624D01*
X150705764Y-80101541D01*
X150538159Y-79933936D01*
X150341076Y-79802250D01*
X150122090Y-79711542D01*
X149889615Y-79665300D01*
X149652585Y-79665300D01*
X149420110Y-79711542D01*
X149201124Y-79802250D01*
X149004041Y-79933936D01*
X148836436Y-80101541D01*
X148704750Y-80298624D01*
X148614042Y-80517610D01*
X148567800Y-80750085D01*
X148434400Y-80750085D01*
X148388158Y-80517610D01*
X148297450Y-80298624D01*
X148165764Y-80101541D01*
X147998159Y-79933936D01*
X147801076Y-79802250D01*
X147582090Y-79711542D01*
X147349615Y-79665300D01*
X147112585Y-79665300D01*
X146880110Y-79711542D01*
X146661124Y-79802250D01*
X146464041Y-79933936D01*
X146296436Y-80101541D01*
X146164750Y-80298624D01*
X146074042Y-80517610D01*
X146027800Y-80750085D01*
X145894400Y-80750085D01*
X145848158Y-80517610D01*
X145757450Y-80298624D01*
X145625764Y-80101541D01*
X145458159Y-79933936D01*
X145261076Y-79802250D01*
X145042090Y-79711542D01*
X144809615Y-79665300D01*
X144572585Y-79665300D01*
X144340110Y-79711542D01*
X144121124Y-79802250D01*
X143924041Y-79933936D01*
X143756436Y-80101541D01*
X143624750Y-80298624D01*
X143534042Y-80517610D01*
X143487800Y-80750085D01*
X143354400Y-80750085D01*
X143308158Y-80517610D01*
X143217450Y-80298624D01*
X143085764Y-80101541D01*
X142918159Y-79933936D01*
X142721076Y-79802250D01*
X142502090Y-79711542D01*
X142269615Y-79665300D01*
X142032585Y-79665300D01*
X141800110Y-79711542D01*
X141581124Y-79802250D01*
X141384041Y-79933936D01*
X141216436Y-80101541D01*
X141084750Y-80298624D01*
X140994042Y-80517610D01*
X140947800Y-80750085D01*
X137806646Y-80750085D01*
X137829422Y-80517798D01*
X137931300Y-80180360D01*
X138096783Y-79869132D01*
X138319560Y-79595980D01*
X138591155Y-79371297D01*
X138901219Y-79203645D01*
X139237939Y-79099414D01*
X139592665Y-79062130D01*
X139601120Y-79062101D01*
X157396768Y-79062101D01*
X157751902Y-79096922D01*
G37*
X157751902Y-79096922D02*
X158089340Y-79198800D01*
X158400568Y-79364283D01*
X158673720Y-79587060D01*
X158898403Y-79858655D01*
X159066055Y-80168719D01*
X159170286Y-80505439D01*
X159207570Y-80860165D01*
X159207600Y-80868908D01*
X159207599Y-129124268D01*
X159172588Y-129481345D01*
X159070144Y-129820652D01*
X158903745Y-130133604D01*
X158679735Y-130408266D01*
X158406636Y-130634194D01*
X158094857Y-130802772D01*
X157756271Y-130907582D01*
X157399605Y-130945070D01*
X157391083Y-130945099D01*
X139615432Y-130945099D01*
X139258355Y-130910088D01*
X138919048Y-130807644D01*
X138606096Y-130641245D01*
X138331434Y-130417235D01*
X138105506Y-130144136D01*
X137936928Y-129832357D01*
X137832118Y-129493771D01*
X137794630Y-129137105D01*
X137794601Y-129128583D01*
X137794601Y-129010085D01*
X140947800Y-129010085D01*
X140947800Y-129247115D01*
X140994042Y-129479590D01*
X141084750Y-129698576D01*
X141216436Y-129895659D01*
X141384041Y-130063264D01*
X141581124Y-130194950D01*
X141800110Y-130285658D01*
X142032585Y-130331900D01*
X142269615Y-130331900D01*
X142502090Y-130285658D01*
X142721076Y-130194950D01*
X142918159Y-130063264D01*
X143085764Y-129895659D01*
X143217450Y-129698576D01*
X143308158Y-129479590D01*
X143354400Y-129247115D01*
X143354400Y-129010085D01*
X143487800Y-129010085D01*
X143487800Y-129247115D01*
X143534042Y-129479590D01*
X143624750Y-129698576D01*
X143756436Y-129895659D01*
X143924041Y-130063264D01*
X144121124Y-130194950D01*
X144340110Y-130285658D01*
X144572585Y-130331900D01*
X144809615Y-130331900D01*
X145042090Y-130285658D01*
X145261076Y-130194950D01*
X145458159Y-130063264D01*
X145625764Y-129895659D01*
X145757450Y-129698576D01*
X145848158Y-129479590D01*
X145894400Y-129247115D01*
X145894400Y-129010085D01*
X146027800Y-129010085D01*
X146027800Y-129247115D01*
X146074042Y-129479590D01*
X146164750Y-129698576D01*
X146296436Y-129895659D01*
X146464041Y-130063264D01*
X146661124Y-130194950D01*
X146880110Y-130285658D01*
X147112585Y-130331900D01*
X147349615Y-130331900D01*
X147582090Y-130285658D01*
X147801076Y-130194950D01*
X147998159Y-130063264D01*
X148165764Y-129895659D01*
X148297450Y-129698576D01*
X148388158Y-129479590D01*
X148434400Y-129247115D01*
X148434400Y-129010085D01*
X148567800Y-129010085D01*
X148567800Y-129247115D01*
X148614042Y-129479590D01*
X148704750Y-129698576D01*
X148836436Y-129895659D01*
X149004041Y-130063264D01*
X149201124Y-130194950D01*
X149420110Y-130285658D01*
X149652585Y-130331900D01*
X149889615Y-130331900D01*
X150122090Y-130285658D01*
X150341076Y-130194950D01*
X150538159Y-130063264D01*
X150705764Y-129895659D01*
X150837450Y-129698576D01*
X150928158Y-129479590D01*
X150974400Y-129247115D01*
X150974400Y-129010085D01*
X151107800Y-129010085D01*
X151107800Y-129247115D01*
X151154042Y-129479590D01*
X151244750Y-129698576D01*
X151376436Y-129895659D01*
X151544041Y-130063264D01*
X151741124Y-130194950D01*
X151960110Y-130285658D01*
X152192585Y-130331900D01*
X152429615Y-130331900D01*
X152662090Y-130285658D01*
X152881076Y-130194950D01*
X153078159Y-130063264D01*
X153245764Y-129895659D01*
X153377450Y-129698576D01*
X153468158Y-129479590D01*
X153514400Y-129247115D01*
X153514400Y-129010085D01*
X153468158Y-128777610D01*
X153377450Y-128558624D01*
X153245764Y-128361541D01*
X153078159Y-128193936D01*
X152881076Y-128062250D01*
X152662090Y-127971542D01*
X152429615Y-127925300D01*
X152192585Y-127925300D01*
X151960110Y-127971542D01*
X151741124Y-128062250D01*
X151544041Y-128193936D01*
X151376436Y-128361541D01*
X151244750Y-128558624D01*
X151154042Y-128777610D01*
X151107800Y-129010085D01*
X150974400Y-129010085D01*
X150928158Y-128777610D01*
X150837450Y-128558624D01*
X150705764Y-128361541D01*
X150538159Y-128193936D01*
X150341076Y-128062250D01*
X150122090Y-127971542D01*
X149889615Y-127925300D01*
X149652585Y-127925300D01*
X149420110Y-127971542D01*
X149201124Y-128062250D01*
X149004041Y-128193936D01*
X148836436Y-128361541D01*
X148704750Y-128558624D01*
X148614042Y-128777610D01*
X148567800Y-129010085D01*
X148434400Y-129010085D01*
X148388158Y-128777610D01*
X148297450Y-128558624D01*
X148165764Y-128361541D01*
X147998159Y-128193936D01*
X147801076Y-128062250D01*
X147582090Y-127971542D01*
X147349615Y-127925300D01*
X147112585Y-127925300D01*
X146880110Y-127971542D01*
X146661124Y-128062250D01*
X146464041Y-128193936D01*
X146296436Y-128361541D01*
X146164750Y-128558624D01*
X146074042Y-128777610D01*
X146027800Y-129010085D01*
X145894400Y-129010085D01*
X145848158Y-128777610D01*
X145757450Y-128558624D01*
X145625764Y-128361541D01*
X145458159Y-128193936D01*
X145261076Y-128062250D01*
X145042090Y-127971542D01*
X144809615Y-127925300D01*
X144572585Y-127925300D01*
X144340110Y-127971542D01*
X144121124Y-128062250D01*
X143924041Y-128193936D01*
X143756436Y-128361541D01*
X143624750Y-128558624D01*
X143534042Y-128777610D01*
X143487800Y-129010085D01*
X143354400Y-129010085D01*
X143308158Y-128777610D01*
X143217450Y-128558624D01*
X143085764Y-128361541D01*
X142918159Y-128193936D01*
X142721076Y-128062250D01*
X142502090Y-127971542D01*
X142269615Y-127925300D01*
X142032585Y-127925300D01*
X141800110Y-127971542D01*
X141581124Y-128062250D01*
X141384041Y-128193936D01*
X141216436Y-128361541D01*
X141084750Y-128558624D01*
X140994042Y-128777610D01*
X140947800Y-129010085D01*
X137794601Y-129010085D01*
X137794601Y-127512817D01*
X141352041Y-127512817D01*
X141452324Y-127700949D01*
X141682759Y-127815900D01*
X141931193Y-127883686D01*
X142188077Y-127901703D01*
X142443541Y-127869258D01*
X142687766Y-127787599D01*
X142849876Y-127700949D01*
X142950159Y-127512817D01*
X143892041Y-127512817D01*
X143992324Y-127700949D01*
X144222759Y-127815900D01*
X144471193Y-127883686D01*
X144728077Y-127901703D01*
X144983541Y-127869258D01*
X145227766Y-127787599D01*
X145389876Y-127700949D01*
X145490159Y-127512817D01*
X146432041Y-127512817D01*
X146532324Y-127700949D01*
X146762759Y-127815900D01*
X147011193Y-127883686D01*
X147268077Y-127901703D01*
X147523541Y-127869258D01*
X147767766Y-127787599D01*
X147929876Y-127700949D01*
X148030159Y-127512817D01*
X148972041Y-127512817D01*
X149072324Y-127700949D01*
X149302759Y-127815900D01*
X149551193Y-127883686D01*
X149808077Y-127901703D01*
X150063541Y-127869258D01*
X150307766Y-127787599D01*
X150469876Y-127700949D01*
X150570159Y-127512817D01*
X151512041Y-127512817D01*
X151612324Y-127700949D01*
X151842759Y-127815900D01*
X152091193Y-127883686D01*
X152348077Y-127901703D01*
X152603541Y-127869258D01*
X152635416Y-127858600D01*
X154226793Y-127858600D01*
X154247574Y-128069592D01*
X154309118Y-128272475D01*
X154409060Y-128459453D01*
X154543559Y-128623341D01*
X154707447Y-128757840D01*
X154894425Y-128857782D01*
X155097308Y-128919326D01*
X155255433Y-128934900D01*
X156986767Y-128934900D01*
X157144892Y-128919326D01*
X157347775Y-128857782D01*
X157534753Y-128757840D01*
X157698641Y-128623341D01*
X157833140Y-128459453D01*
X157933082Y-128272475D01*
X157994626Y-128069592D01*
X158015407Y-127858600D01*
X157994626Y-127647608D01*
X157933082Y-127444725D01*
X157833140Y-127257747D01*
X157698641Y-127093859D01*
X157534753Y-126959360D01*
X157347775Y-126859418D01*
X157144892Y-126797874D01*
X156986767Y-126782300D01*
X155255433Y-126782300D01*
X155097308Y-126797874D01*
X154894425Y-126859418D01*
X154707447Y-126959360D01*
X154543559Y-127093859D01*
X154409060Y-127257747D01*
X154309118Y-127444725D01*
X154247574Y-127647608D01*
X154226793Y-127858600D01*
X152635416Y-127858600D01*
X152847766Y-127787599D01*
X153009876Y-127700949D01*
X153110159Y-127512817D01*
X152311100Y-126713758D01*
X151512041Y-127512817D01*
X150570159Y-127512817D01*
X149771100Y-126713758D01*
X148972041Y-127512817D01*
X148030159Y-127512817D01*
X147231100Y-126713758D01*
X146432041Y-127512817D01*
X145490159Y-127512817D01*
X144691100Y-126713758D01*
X143892041Y-127512817D01*
X142950159Y-127512817D01*
X142151100Y-126713758D01*
X141352041Y-127512817D01*
X137794601Y-127512817D01*
X137794601Y-126625577D01*
X140837997Y-126625577D01*
X140870442Y-126881041D01*
X140952101Y-127125266D01*
X141038751Y-127287376D01*
X141226883Y-127387659D01*
X142025942Y-126588600D01*
X142276258Y-126588600D01*
X143075317Y-127387659D01*
X143263449Y-127287376D01*
X143378400Y-127056941D01*
X143419226Y-126907313D01*
X143492101Y-127125266D01*
X143578751Y-127287376D01*
X143766883Y-127387659D01*
X144565942Y-126588600D01*
X144816258Y-126588600D01*
X145615317Y-127387659D01*
X145803449Y-127287376D01*
X145918400Y-127056941D01*
X145959226Y-126907313D01*
X146032101Y-127125266D01*
X146118751Y-127287376D01*
X146306883Y-127387659D01*
X147105942Y-126588600D01*
X147356258Y-126588600D01*
X148155317Y-127387659D01*
X148343449Y-127287376D01*
X148458400Y-127056941D01*
X148499226Y-126907313D01*
X148572101Y-127125266D01*
X148658751Y-127287376D01*
X148846883Y-127387659D01*
X149645942Y-126588600D01*
X149896258Y-126588600D01*
X150695317Y-127387659D01*
X150883449Y-127287376D01*
X150998400Y-127056941D01*
X151039226Y-126907313D01*
X151112101Y-127125266D01*
X151198751Y-127287376D01*
X151386883Y-127387659D01*
X152185942Y-126588600D01*
X152436258Y-126588600D01*
X153235317Y-127387659D01*
X153423449Y-127287376D01*
X153538400Y-127056941D01*
X153606186Y-126808507D01*
X153624203Y-126551623D01*
X153591758Y-126296159D01*
X153510099Y-126051934D01*
X153423449Y-125889824D01*
X153235317Y-125789541D01*
X152436258Y-126588600D01*
X152185942Y-126588600D01*
X151386883Y-125789541D01*
X151198751Y-125889824D01*
X151083800Y-126120259D01*
X151042974Y-126269887D01*
X150970099Y-126051934D01*
X150883449Y-125889824D01*
X150695317Y-125789541D01*
X149896258Y-126588600D01*
X149645942Y-126588600D01*
X148846883Y-125789541D01*
X148658751Y-125889824D01*
X148543800Y-126120259D01*
X148502974Y-126269887D01*
X148430099Y-126051934D01*
X148343449Y-125889824D01*
X148155317Y-125789541D01*
X147356258Y-126588600D01*
X147105942Y-126588600D01*
X146306883Y-125789541D01*
X146118751Y-125889824D01*
X146003800Y-126120259D01*
X145962974Y-126269887D01*
X145890099Y-126051934D01*
X145803449Y-125889824D01*
X145615317Y-125789541D01*
X144816258Y-126588600D01*
X144565942Y-126588600D01*
X143766883Y-125789541D01*
X143578751Y-125889824D01*
X143463800Y-126120259D01*
X143422974Y-126269887D01*
X143350099Y-126051934D01*
X143263449Y-125889824D01*
X143075317Y-125789541D01*
X142276258Y-126588600D01*
X142025942Y-126588600D01*
X141226883Y-125789541D01*
X141038751Y-125889824D01*
X140923800Y-126120259D01*
X140856014Y-126368693D01*
X140837997Y-126625577D01*
X137794601Y-126625577D01*
X137794601Y-125664383D01*
X141352041Y-125664383D01*
X142151100Y-126463442D01*
X142950159Y-125664383D01*
X143892041Y-125664383D01*
X144691100Y-126463442D01*
X145490159Y-125664383D01*
X146432041Y-125664383D01*
X147231100Y-126463442D01*
X148030159Y-125664383D01*
X148972041Y-125664383D01*
X149771100Y-126463442D01*
X150570159Y-125664383D01*
X151512041Y-125664383D01*
X152311100Y-126463442D01*
X153110159Y-125664383D01*
X153009876Y-125476251D01*
X152779441Y-125361300D01*
X152622947Y-125318600D01*
X154226793Y-125318600D01*
X154247574Y-125529592D01*
X154309118Y-125732475D01*
X154409060Y-125919453D01*
X154543559Y-126083341D01*
X154707447Y-126217840D01*
X154894425Y-126317782D01*
X155097308Y-126379326D01*
X155255433Y-126394900D01*
X156986767Y-126394900D01*
X157144892Y-126379326D01*
X157347775Y-126317782D01*
X157534753Y-126217840D01*
X157698641Y-126083341D01*
X157833140Y-125919453D01*
X157933082Y-125732475D01*
X157994626Y-125529592D01*
X158015407Y-125318600D01*
X157994626Y-125107608D01*
X157933082Y-124904725D01*
X157833140Y-124717747D01*
X157698641Y-124553859D01*
X157534753Y-124419360D01*
X157347775Y-124319418D01*
X157144892Y-124257874D01*
X156986767Y-124242300D01*
X155255433Y-124242300D01*
X155097308Y-124257874D01*
X154894425Y-124319418D01*
X154707447Y-124419360D01*
X154543559Y-124553859D01*
X154409060Y-124717747D01*
X154309118Y-124904725D01*
X154247574Y-125107608D01*
X154226793Y-125318600D01*
X152622947Y-125318600D01*
X152531007Y-125293514D01*
X152274123Y-125275497D01*
X152018659Y-125307942D01*
X151774434Y-125389601D01*
X151612324Y-125476251D01*
X151512041Y-125664383D01*
X150570159Y-125664383D01*
X150469876Y-125476251D01*
X150239441Y-125361300D01*
X149991007Y-125293514D01*
X149734123Y-125275497D01*
X149478659Y-125307942D01*
X149234434Y-125389601D01*
X149072324Y-125476251D01*
X148972041Y-125664383D01*
X148030159Y-125664383D01*
X147929876Y-125476251D01*
X147699441Y-125361300D01*
X147451007Y-125293514D01*
X147194123Y-125275497D01*
X146938659Y-125307942D01*
X146694434Y-125389601D01*
X146532324Y-125476251D01*
X146432041Y-125664383D01*
X145490159Y-125664383D01*
X145389876Y-125476251D01*
X145159441Y-125361300D01*
X144911007Y-125293514D01*
X144654123Y-125275497D01*
X144398659Y-125307942D01*
X144154434Y-125389601D01*
X143992324Y-125476251D01*
X143892041Y-125664383D01*
X142950159Y-125664383D01*
X142849876Y-125476251D01*
X142619441Y-125361300D01*
X142371007Y-125293514D01*
X142114123Y-125275497D01*
X141858659Y-125307942D01*
X141614434Y-125389601D01*
X141452324Y-125476251D01*
X141352041Y-125664383D01*
X137794601Y-125664383D01*
X137794601Y-122682600D01*
X139588900Y-122682600D01*
X139588900Y-122874600D01*
X139626357Y-123062909D01*
X139699832Y-123240294D01*
X139806501Y-123399935D01*
X139942265Y-123535699D01*
X140101906Y-123642368D01*
X140279291Y-123715843D01*
X140467600Y-123753300D01*
X140659600Y-123753300D01*
X140847909Y-123715843D01*
X141025294Y-123642368D01*
X141184935Y-123535699D01*
X141320699Y-123399935D01*
X141427368Y-123240294D01*
X141500843Y-123062909D01*
X141538300Y-122874600D01*
X141538300Y-122682600D01*
X141536559Y-122673845D01*
X146167500Y-122673845D01*
X146167500Y-122883355D01*
X146208374Y-123088841D01*
X146288550Y-123282403D01*
X146404948Y-123456605D01*
X146553095Y-123604752D01*
X146727297Y-123721150D01*
X146920859Y-123801326D01*
X147126345Y-123842200D01*
X147335855Y-123842200D01*
X147541341Y-123801326D01*
X147734903Y-123721150D01*
X147909105Y-123604752D01*
X148057252Y-123456605D01*
X148173650Y-123282403D01*
X148253826Y-123088841D01*
X148261526Y-123050130D01*
X154159658Y-123050130D01*
X154183978Y-123148518D01*
X154277749Y-123360754D01*
X154411123Y-123550619D01*
X154578975Y-123710815D01*
X154774855Y-123835187D01*
X154991235Y-123918955D01*
X155219800Y-123958900D01*
X156032600Y-123958900D01*
X156032600Y-122867100D01*
X156209600Y-122867100D01*
X156209600Y-123958900D01*
X157022400Y-123958900D01*
X157250965Y-123918955D01*
X157467345Y-123835187D01*
X157663225Y-123710815D01*
X157831077Y-123550619D01*
X157964451Y-123360754D01*
X158058222Y-123148518D01*
X158082542Y-123050130D01*
X158018721Y-122867100D01*
X156209600Y-122867100D01*
X156032600Y-122867100D01*
X154223479Y-122867100D01*
X154159658Y-123050130D01*
X148261526Y-123050130D01*
X148294700Y-122883355D01*
X148294700Y-122673845D01*
X148261527Y-122507070D01*
X154159658Y-122507070D01*
X154223479Y-122690100D01*
X156032600Y-122690100D01*
X156032600Y-121598300D01*
X156209600Y-121598300D01*
X156209600Y-122690100D01*
X158018721Y-122690100D01*
X158082542Y-122507070D01*
X158058222Y-122408682D01*
X157964451Y-122196446D01*
X157831077Y-122006581D01*
X157663225Y-121846385D01*
X157467345Y-121722013D01*
X157250965Y-121638245D01*
X157022400Y-121598300D01*
X156209600Y-121598300D01*
X156032600Y-121598300D01*
X155219800Y-121598300D01*
X154991235Y-121638245D01*
X154774855Y-121722013D01*
X154578975Y-121846385D01*
X154411123Y-122006581D01*
X154277749Y-122196446D01*
X154183978Y-122408682D01*
X154159658Y-122507070D01*
X148261527Y-122507070D01*
X148253826Y-122468359D01*
X148173650Y-122274797D01*
X148057252Y-122100595D01*
X147909105Y-121952448D01*
X147734903Y-121836050D01*
X147541341Y-121755874D01*
X147335855Y-121715000D01*
X147126345Y-121715000D01*
X146920859Y-121755874D01*
X146727297Y-121836050D01*
X146553095Y-121952448D01*
X146404948Y-122100595D01*
X146288550Y-122274797D01*
X146208374Y-122468359D01*
X146167500Y-122673845D01*
X141536559Y-122673845D01*
X141500843Y-122494291D01*
X141427368Y-122316906D01*
X141320699Y-122157265D01*
X141184935Y-122021501D01*
X141025294Y-121914832D01*
X140847909Y-121841357D01*
X140659600Y-121803900D01*
X140467600Y-121803900D01*
X140279291Y-121841357D01*
X140101906Y-121914832D01*
X139942265Y-122021501D01*
X139806501Y-122157265D01*
X139699832Y-122316906D01*
X139626357Y-122494291D01*
X139588900Y-122682600D01*
X137794601Y-122682600D01*
X137794601Y-120999863D01*
X139927495Y-120999863D01*
X140000214Y-121164600D01*
X140191694Y-121256719D01*
X140397465Y-121309711D01*
X140609621Y-121321541D01*
X140820009Y-121291754D01*
X141020542Y-121221495D01*
X141126986Y-121164600D01*
X141171719Y-121063261D01*
X146531597Y-121063261D01*
X146615044Y-121237093D01*
X146821678Y-121338094D01*
X147044046Y-121396842D01*
X147273603Y-121411079D01*
X147501525Y-121380259D01*
X147719056Y-121305565D01*
X147847156Y-121237093D01*
X147930603Y-121063261D01*
X147231100Y-120363758D01*
X146531597Y-121063261D01*
X141171719Y-121063261D01*
X141199705Y-120999863D01*
X140563600Y-120363758D01*
X139927495Y-120999863D01*
X137794601Y-120999863D01*
X137794601Y-120284621D01*
X139480659Y-120284621D01*
X139510446Y-120495009D01*
X139580705Y-120695542D01*
X139637600Y-120801986D01*
X139802337Y-120874705D01*
X140438442Y-120238600D01*
X140688758Y-120238600D01*
X141324863Y-120874705D01*
X141489600Y-120801986D01*
X141581719Y-120610506D01*
X141634711Y-120404735D01*
X141641604Y-120281103D01*
X146058621Y-120281103D01*
X146089441Y-120509025D01*
X146164135Y-120726556D01*
X146232607Y-120854656D01*
X146406439Y-120938103D01*
X147105942Y-120238600D01*
X147356258Y-120238600D01*
X148055761Y-120938103D01*
X148229593Y-120854656D01*
X148330594Y-120648022D01*
X148389342Y-120425654D01*
X148403579Y-120196097D01*
X148372759Y-119968175D01*
X148298065Y-119750644D01*
X148229593Y-119622544D01*
X148055761Y-119539097D01*
X147356258Y-120238600D01*
X147105942Y-120238600D01*
X146406439Y-119539097D01*
X146232607Y-119622544D01*
X146131606Y-119829178D01*
X146072858Y-120051546D01*
X146058621Y-120281103D01*
X141641604Y-120281103D01*
X141646541Y-120192579D01*
X141616754Y-119982191D01*
X141546495Y-119781658D01*
X141489600Y-119675214D01*
X141324863Y-119602495D01*
X140688758Y-120238600D01*
X140438442Y-120238600D01*
X139802337Y-119602495D01*
X139637600Y-119675214D01*
X139545481Y-119866694D01*
X139492489Y-120072465D01*
X139480659Y-120284621D01*
X137794601Y-120284621D01*
X137794601Y-119477337D01*
X139927495Y-119477337D01*
X140563600Y-120113442D01*
X141199705Y-119477337D01*
X141171720Y-119413939D01*
X146531597Y-119413939D01*
X147231100Y-120113442D01*
X147930603Y-119413939D01*
X147847156Y-119240107D01*
X147640522Y-119139106D01*
X147418154Y-119080358D01*
X147188597Y-119066121D01*
X146960675Y-119096941D01*
X146743144Y-119171635D01*
X146615044Y-119240107D01*
X146531597Y-119413939D01*
X141171720Y-119413939D01*
X141126986Y-119312600D01*
X140935506Y-119220481D01*
X140729735Y-119167489D01*
X140517579Y-119155659D01*
X140307191Y-119185446D01*
X140106658Y-119255705D01*
X140000214Y-119312600D01*
X139927495Y-119477337D01*
X137794601Y-119477337D01*
X137794601Y-115917682D01*
X138001400Y-115917682D01*
X138015503Y-116060874D01*
X138071238Y-116244605D01*
X138161745Y-116413934D01*
X138283548Y-116562352D01*
X138431966Y-116684155D01*
X138601294Y-116774662D01*
X138785025Y-116830397D01*
X138976100Y-116849216D01*
X139167174Y-116830397D01*
X139350905Y-116774662D01*
X139520234Y-116684155D01*
X139668652Y-116562352D01*
X139790455Y-116413934D01*
X139880962Y-116244606D01*
X139936697Y-116060875D01*
X139950800Y-115917683D01*
X139950800Y-115917682D01*
X140541400Y-115917682D01*
X140555503Y-116060874D01*
X140611238Y-116244605D01*
X140701745Y-116413934D01*
X140823548Y-116562352D01*
X140971966Y-116684155D01*
X141141294Y-116774662D01*
X141325025Y-116830397D01*
X141516100Y-116849216D01*
X141707174Y-116830397D01*
X141890905Y-116774662D01*
X142060234Y-116684155D01*
X142208652Y-116562352D01*
X142330455Y-116413934D01*
X142420962Y-116244606D01*
X142476697Y-116060875D01*
X142490800Y-115917683D01*
X142490800Y-115917682D01*
X143081400Y-115917682D01*
X143095503Y-116060874D01*
X143151238Y-116244605D01*
X143241745Y-116413934D01*
X143363548Y-116562352D01*
X143511966Y-116684155D01*
X143681294Y-116774662D01*
X143865025Y-116830397D01*
X144056100Y-116849216D01*
X144247174Y-116830397D01*
X144430905Y-116774662D01*
X144600234Y-116684155D01*
X144748652Y-116562352D01*
X144870455Y-116413934D01*
X144960962Y-116244606D01*
X145016697Y-116060875D01*
X145030800Y-115917683D01*
X145030800Y-115917682D01*
X145621400Y-115917682D01*
X145635503Y-116060874D01*
X145691238Y-116244605D01*
X145781745Y-116413934D01*
X145903548Y-116562352D01*
X146051966Y-116684155D01*
X146221294Y-116774662D01*
X146405025Y-116830397D01*
X146596100Y-116849216D01*
X146787174Y-116830397D01*
X146970905Y-116774662D01*
X147140234Y-116684155D01*
X147288652Y-116562352D01*
X147410455Y-116413934D01*
X147500962Y-116244606D01*
X147556697Y-116060875D01*
X147570800Y-115917683D01*
X147570800Y-115053845D01*
X154422500Y-115053845D01*
X154422500Y-115263355D01*
X154463374Y-115468841D01*
X154543550Y-115662403D01*
X154659948Y-115836605D01*
X154808095Y-115984752D01*
X154982297Y-116101150D01*
X155175859Y-116181326D01*
X155381345Y-116222200D01*
X155590855Y-116222200D01*
X155796341Y-116181326D01*
X155989903Y-116101150D01*
X156164105Y-115984752D01*
X156312252Y-115836605D01*
X156428650Y-115662403D01*
X156508826Y-115468841D01*
X156549700Y-115263355D01*
X156549700Y-115053845D01*
X156508826Y-114848359D01*
X156428650Y-114654797D01*
X156312252Y-114480595D01*
X156164105Y-114332448D01*
X155989903Y-114216050D01*
X155796341Y-114135874D01*
X155590855Y-114095000D01*
X155381345Y-114095000D01*
X155175859Y-114135874D01*
X154982297Y-114216050D01*
X154808095Y-114332448D01*
X154659948Y-114480595D01*
X154543550Y-114654797D01*
X154463374Y-114848359D01*
X154422500Y-115053845D01*
X147570800Y-115053845D01*
X147570800Y-114399517D01*
X147556697Y-114256325D01*
X147500962Y-114072594D01*
X147410455Y-113903266D01*
X147288652Y-113754848D01*
X147140234Y-113633045D01*
X146970906Y-113542538D01*
X146787175Y-113486803D01*
X146596100Y-113467984D01*
X146405026Y-113486803D01*
X146221295Y-113542538D01*
X146051967Y-113633045D01*
X145903549Y-113754848D01*
X145781746Y-113903266D01*
X145691239Y-114072594D01*
X145635504Y-114256325D01*
X145621401Y-114399517D01*
X145621400Y-115917682D01*
X145030800Y-115917682D01*
X145030800Y-114399517D01*
X145016697Y-114256325D01*
X144960962Y-114072594D01*
X144870455Y-113903266D01*
X144748652Y-113754848D01*
X144600234Y-113633045D01*
X144430906Y-113542538D01*
X144247175Y-113486803D01*
X144056100Y-113467984D01*
X143865026Y-113486803D01*
X143681295Y-113542538D01*
X143511967Y-113633045D01*
X143363549Y-113754848D01*
X143241746Y-113903266D01*
X143151239Y-114072594D01*
X143095504Y-114256325D01*
X143081401Y-114399517D01*
X143081400Y-115917682D01*
X142490800Y-115917682D01*
X142490800Y-114399517D01*
X142476697Y-114256325D01*
X142420962Y-114072594D01*
X142330455Y-113903266D01*
X142208652Y-113754848D01*
X142060234Y-113633045D01*
X141890906Y-113542538D01*
X141707175Y-113486803D01*
X141516100Y-113467984D01*
X141325026Y-113486803D01*
X141141295Y-113542538D01*
X140971967Y-113633045D01*
X140823549Y-113754848D01*
X140701746Y-113903266D01*
X140611239Y-114072594D01*
X140555504Y-114256325D01*
X140541401Y-114399517D01*
X140541400Y-115917682D01*
X139950800Y-115917682D01*
X139950800Y-114399517D01*
X139936697Y-114256325D01*
X139880962Y-114072594D01*
X139790455Y-113903266D01*
X139668652Y-113754848D01*
X139520234Y-113633045D01*
X139350906Y-113542538D01*
X139167175Y-113486803D01*
X138976100Y-113467984D01*
X138785026Y-113486803D01*
X138601295Y-113542538D01*
X138431967Y-113633045D01*
X138283549Y-113754848D01*
X138161746Y-113903266D01*
X138071239Y-114072594D01*
X138015504Y-114256325D01*
X138001401Y-114399517D01*
X138001400Y-115917682D01*
X137794601Y-115917682D01*
X137794601Y-112522600D01*
X148796400Y-112522600D01*
X148796400Y-112714600D01*
X148833857Y-112902909D01*
X148907332Y-113080294D01*
X149014001Y-113239935D01*
X149149765Y-113375699D01*
X149309406Y-113482368D01*
X149486791Y-113555843D01*
X149675100Y-113593300D01*
X149867100Y-113593300D01*
X150055409Y-113555843D01*
X150232794Y-113482368D01*
X150291321Y-113443261D01*
X154786597Y-113443261D01*
X154870044Y-113617093D01*
X155076678Y-113718094D01*
X155299046Y-113776842D01*
X155528603Y-113791079D01*
X155756525Y-113760259D01*
X155974056Y-113685565D01*
X156102156Y-113617093D01*
X156185603Y-113443261D01*
X155486100Y-112743758D01*
X154786597Y-113443261D01*
X150291321Y-113443261D01*
X150392435Y-113375699D01*
X150528199Y-113239935D01*
X150634868Y-113080294D01*
X150708343Y-112902909D01*
X150745800Y-112714600D01*
X150745800Y-112661103D01*
X154313621Y-112661103D01*
X154344441Y-112889025D01*
X154419135Y-113106556D01*
X154487607Y-113234656D01*
X154661439Y-113318103D01*
X155360942Y-112618600D01*
X155611258Y-112618600D01*
X156310761Y-113318103D01*
X156484593Y-113234656D01*
X156585594Y-113028022D01*
X156644342Y-112805654D01*
X156658579Y-112576097D01*
X156627759Y-112348175D01*
X156553065Y-112130644D01*
X156484593Y-112002544D01*
X156310761Y-111919097D01*
X155611258Y-112618600D01*
X155360942Y-112618600D01*
X154661439Y-111919097D01*
X154487607Y-112002544D01*
X154386606Y-112209178D01*
X154327858Y-112431546D01*
X154313621Y-112661103D01*
X150745800Y-112661103D01*
X150745800Y-112522600D01*
X150708343Y-112334291D01*
X150634868Y-112156906D01*
X150528199Y-111997265D01*
X150392435Y-111861501D01*
X150291322Y-111793939D01*
X154786597Y-111793939D01*
X155486100Y-112493442D01*
X156185603Y-111793939D01*
X156102156Y-111620107D01*
X155895522Y-111519106D01*
X155673154Y-111460358D01*
X155443597Y-111446121D01*
X155215675Y-111476941D01*
X154998144Y-111551635D01*
X154870044Y-111620107D01*
X154786597Y-111793939D01*
X150291322Y-111793939D01*
X150232794Y-111754832D01*
X150055409Y-111681357D01*
X149867100Y-111643900D01*
X149675100Y-111643900D01*
X149486791Y-111681357D01*
X149309406Y-111754832D01*
X149149765Y-111861501D01*
X149014001Y-111997265D01*
X148907332Y-112156906D01*
X148833857Y-112334291D01*
X148796400Y-112522600D01*
X137794601Y-112522600D01*
X137794601Y-109982600D01*
X148796400Y-109982600D01*
X148796400Y-110174600D01*
X148833857Y-110362909D01*
X148907332Y-110540294D01*
X149014001Y-110699935D01*
X149149765Y-110835699D01*
X149309406Y-110942368D01*
X149486791Y-111015843D01*
X149675100Y-111053300D01*
X149867100Y-111053300D01*
X150055409Y-111015843D01*
X150232794Y-110942368D01*
X150392435Y-110835699D01*
X150528199Y-110699935D01*
X150634868Y-110540294D01*
X150708343Y-110362909D01*
X150745800Y-110174600D01*
X150745800Y-109982600D01*
X150708343Y-109794291D01*
X150634868Y-109616906D01*
X150528199Y-109457265D01*
X150392435Y-109321501D01*
X150232794Y-109214832D01*
X150055409Y-109141357D01*
X149867100Y-109103900D01*
X149675100Y-109103900D01*
X149486791Y-109141357D01*
X149309406Y-109214832D01*
X149149765Y-109321501D01*
X149014001Y-109457265D01*
X148907332Y-109616906D01*
X148833857Y-109794291D01*
X148796400Y-109982600D01*
X137794601Y-109982600D01*
X137794601Y-108297682D01*
X138001400Y-108297682D01*
X138015503Y-108440874D01*
X138071238Y-108624605D01*
X138161745Y-108793934D01*
X138283548Y-108942352D01*
X138431966Y-109064155D01*
X138601294Y-109154662D01*
X138785025Y-109210397D01*
X138976100Y-109229216D01*
X139167174Y-109210397D01*
X139350905Y-109154662D01*
X139520234Y-109064155D01*
X139668652Y-108942352D01*
X139790455Y-108793934D01*
X139880962Y-108624606D01*
X139936697Y-108440875D01*
X139950800Y-108297683D01*
X139950800Y-107627100D01*
X140437400Y-107627100D01*
X140437400Y-108338300D01*
X140475392Y-108547043D01*
X140553378Y-108744364D01*
X140668361Y-108922679D01*
X140815922Y-109075135D01*
X140990391Y-109195874D01*
X141185062Y-109280256D01*
X141260513Y-109297783D01*
X141427600Y-109232649D01*
X141427600Y-107627100D01*
X141604600Y-107627100D01*
X141604600Y-109232649D01*
X141771687Y-109297783D01*
X141847138Y-109280256D01*
X142041809Y-109195874D01*
X142216278Y-109075135D01*
X142363839Y-108922679D01*
X142478822Y-108744364D01*
X142556808Y-108547043D01*
X142594800Y-108338300D01*
X142594800Y-108297682D01*
X143081400Y-108297682D01*
X143095503Y-108440874D01*
X143151238Y-108624605D01*
X143241745Y-108793934D01*
X143363548Y-108942352D01*
X143511966Y-109064155D01*
X143681294Y-109154662D01*
X143865025Y-109210397D01*
X144056100Y-109229216D01*
X144247174Y-109210397D01*
X144430905Y-109154662D01*
X144600234Y-109064155D01*
X144748652Y-108942352D01*
X144870455Y-108793934D01*
X144960962Y-108624606D01*
X145016697Y-108440875D01*
X145030800Y-108297683D01*
X145030800Y-108297682D01*
X145621400Y-108297682D01*
X145635503Y-108440874D01*
X145691238Y-108624605D01*
X145781745Y-108793934D01*
X145903548Y-108942352D01*
X146051966Y-109064155D01*
X146221294Y-109154662D01*
X146405025Y-109210397D01*
X146596100Y-109229216D01*
X146787174Y-109210397D01*
X146970905Y-109154662D01*
X147140234Y-109064155D01*
X147288652Y-108942352D01*
X147410455Y-108793934D01*
X147500962Y-108624606D01*
X147556697Y-108440875D01*
X147570800Y-108297683D01*
X147570800Y-106779517D01*
X147556697Y-106636325D01*
X147500962Y-106452594D01*
X147410455Y-106283266D01*
X147288652Y-106134848D01*
X147140234Y-106013045D01*
X146970906Y-105922538D01*
X146787175Y-105866803D01*
X146596100Y-105847984D01*
X146405026Y-105866803D01*
X146221295Y-105922538D01*
X146051967Y-106013045D01*
X145903549Y-106134848D01*
X145781746Y-106283266D01*
X145691239Y-106452594D01*
X145635504Y-106636325D01*
X145621401Y-106779517D01*
X145621400Y-108297682D01*
X145030800Y-108297682D01*
X145030800Y-106779517D01*
X145016697Y-106636325D01*
X144960962Y-106452594D01*
X144870455Y-106283266D01*
X144748652Y-106134848D01*
X144600234Y-106013045D01*
X144430906Y-105922538D01*
X144247175Y-105866803D01*
X144056100Y-105847984D01*
X143865026Y-105866803D01*
X143681295Y-105922538D01*
X143511967Y-106013045D01*
X143363549Y-106134848D01*
X143241746Y-106283266D01*
X143151239Y-106452594D01*
X143095504Y-106636325D01*
X143081401Y-106779517D01*
X143081400Y-108297682D01*
X142594800Y-108297682D01*
X142594800Y-107627100D01*
X141604600Y-107627100D01*
X141427600Y-107627100D01*
X140437400Y-107627100D01*
X139950800Y-107627100D01*
X139950800Y-106779517D01*
X139946800Y-106738900D01*
X140437400Y-106738900D01*
X140437400Y-107450100D01*
X141427600Y-107450100D01*
X141427600Y-105844551D01*
X141604600Y-105844551D01*
X141604600Y-107450100D01*
X142594800Y-107450100D01*
X142594800Y-106738900D01*
X142556808Y-106530157D01*
X142478822Y-106332836D01*
X142363839Y-106154521D01*
X142216278Y-106002065D01*
X142041809Y-105881326D01*
X141847138Y-105796944D01*
X141771687Y-105779417D01*
X141604600Y-105844551D01*
X141427600Y-105844551D01*
X141260513Y-105779417D01*
X141185062Y-105796944D01*
X140990391Y-105881326D01*
X140815922Y-106002065D01*
X140668361Y-106154521D01*
X140553378Y-106332836D01*
X140475392Y-106530157D01*
X140437400Y-106738900D01*
X139946800Y-106738900D01*
X139936697Y-106636325D01*
X139880962Y-106452594D01*
X139790455Y-106283266D01*
X139668652Y-106134848D01*
X139520234Y-106013045D01*
X139350906Y-105922538D01*
X139167175Y-105866803D01*
X138976100Y-105847984D01*
X138785026Y-105866803D01*
X138601295Y-105922538D01*
X138431967Y-106013045D01*
X138283549Y-106134848D01*
X138161746Y-106283266D01*
X138071239Y-106452594D01*
X138015504Y-106636325D01*
X138001401Y-106779517D01*
X138001400Y-108297682D01*
X137794601Y-108297682D01*
X137794601Y-105533306D01*
X149387800Y-105533306D01*
X149387800Y-105733894D01*
X149426933Y-105930627D01*
X149503694Y-106115946D01*
X149615135Y-106282728D01*
X149756972Y-106424565D01*
X149923754Y-106536006D01*
X150109073Y-106612767D01*
X150305806Y-106651900D01*
X150506394Y-106651900D01*
X150703127Y-106612767D01*
X150888446Y-106536006D01*
X151055228Y-106424565D01*
X151197065Y-106282728D01*
X151308506Y-106115946D01*
X151385267Y-105930627D01*
X151424400Y-105733894D01*
X151424400Y-105533306D01*
X151385267Y-105336573D01*
X151308506Y-105151254D01*
X151197065Y-104984472D01*
X151091393Y-104878800D01*
X157006526Y-104878800D01*
X157006526Y-106388400D01*
X157011614Y-106440055D01*
X157026681Y-106489725D01*
X157051148Y-106535501D01*
X157084077Y-106575623D01*
X157124199Y-106608552D01*
X157169975Y-106633019D01*
X157219645Y-106648086D01*
X157271300Y-106653174D01*
X158780900Y-106653174D01*
X158832555Y-106648086D01*
X158882225Y-106633019D01*
X158928001Y-106608552D01*
X158968123Y-106575623D01*
X159001052Y-106535501D01*
X159025519Y-106489725D01*
X159040586Y-106440055D01*
X159045674Y-106388400D01*
X159045674Y-104878800D01*
X159040586Y-104827145D01*
X159025519Y-104777475D01*
X159001052Y-104731699D01*
X158968123Y-104691577D01*
X158928001Y-104658648D01*
X158882225Y-104634181D01*
X158832555Y-104619114D01*
X158780900Y-104614026D01*
X157271300Y-104614026D01*
X157219645Y-104619114D01*
X157169975Y-104634181D01*
X157124199Y-104658648D01*
X157084077Y-104691577D01*
X157051148Y-104731699D01*
X157026681Y-104777475D01*
X157011614Y-104827145D01*
X157006526Y-104878800D01*
X151091393Y-104878800D01*
X151055228Y-104842635D01*
X150888446Y-104731194D01*
X150703127Y-104654433D01*
X150506394Y-104615300D01*
X150305806Y-104615300D01*
X150109073Y-104654433D01*
X149923754Y-104731194D01*
X149756972Y-104842635D01*
X149615135Y-104984472D01*
X149503694Y-105151254D01*
X149426933Y-105336573D01*
X149387800Y-105533306D01*
X137794601Y-105533306D01*
X137794601Y-103623845D01*
X139182500Y-103623845D01*
X139182500Y-103833355D01*
X139223374Y-104038841D01*
X139303550Y-104232403D01*
X139419948Y-104406605D01*
X139568095Y-104554752D01*
X139742297Y-104671150D01*
X139935859Y-104751326D01*
X140141345Y-104792200D01*
X140350855Y-104792200D01*
X140556341Y-104751326D01*
X140749903Y-104671150D01*
X140924105Y-104554752D01*
X141072252Y-104406605D01*
X141188650Y-104232403D01*
X141268826Y-104038841D01*
X141309700Y-103833355D01*
X141309700Y-103623845D01*
X146167500Y-103623845D01*
X146167500Y-103833355D01*
X146208374Y-104038841D01*
X146288550Y-104232403D01*
X146404948Y-104406605D01*
X146553095Y-104554752D01*
X146727297Y-104671150D01*
X146920859Y-104751326D01*
X147126345Y-104792200D01*
X147335855Y-104792200D01*
X147541341Y-104751326D01*
X147734903Y-104671150D01*
X147909105Y-104554752D01*
X148057252Y-104406605D01*
X148173650Y-104232403D01*
X148253826Y-104038841D01*
X148294700Y-103833355D01*
X148294700Y-103623845D01*
X148253826Y-103418359D01*
X148173650Y-103224797D01*
X148057252Y-103050595D01*
X147909105Y-102902448D01*
X147734903Y-102786050D01*
X147541341Y-102705874D01*
X147335855Y-102665000D01*
X147126345Y-102665000D01*
X146920859Y-102705874D01*
X146727297Y-102786050D01*
X146553095Y-102902448D01*
X146404948Y-103050595D01*
X146288550Y-103224797D01*
X146208374Y-103418359D01*
X146167500Y-103623845D01*
X141309700Y-103623845D01*
X141268826Y-103418359D01*
X141188650Y-103224797D01*
X141072252Y-103050595D01*
X140924105Y-102902448D01*
X140749903Y-102786050D01*
X140556341Y-102705874D01*
X140350855Y-102665000D01*
X140141345Y-102665000D01*
X139935859Y-102705874D01*
X139742297Y-102786050D01*
X139568095Y-102902448D01*
X139419948Y-103050595D01*
X139303550Y-103224797D01*
X139223374Y-103418359D01*
X139182500Y-103623845D01*
X137794601Y-103623845D01*
X137794601Y-101083845D01*
X139182500Y-101083845D01*
X139182500Y-101293355D01*
X139223374Y-101498841D01*
X139303550Y-101692403D01*
X139419948Y-101866605D01*
X139568095Y-102014752D01*
X139742297Y-102131150D01*
X139935859Y-102211326D01*
X140141345Y-102252200D01*
X140350855Y-102252200D01*
X140556341Y-102211326D01*
X140749903Y-102131150D01*
X140924105Y-102014752D01*
X141072252Y-101866605D01*
X141188650Y-101692403D01*
X141268826Y-101498841D01*
X141309700Y-101293355D01*
X141309700Y-101083845D01*
X146167500Y-101083845D01*
X146167500Y-101293355D01*
X146208374Y-101498841D01*
X146288550Y-101692403D01*
X146404948Y-101866605D01*
X146553095Y-102014752D01*
X146727297Y-102131150D01*
X146920859Y-102211326D01*
X147126345Y-102252200D01*
X147335855Y-102252200D01*
X147541341Y-102211326D01*
X147734903Y-102131150D01*
X147909105Y-102014752D01*
X148057252Y-101866605D01*
X148173650Y-101692403D01*
X148253826Y-101498841D01*
X148294700Y-101293355D01*
X148294700Y-101083845D01*
X148253826Y-100878359D01*
X148173650Y-100684797D01*
X148057252Y-100510595D01*
X147909105Y-100362448D01*
X147734903Y-100246050D01*
X147541341Y-100165874D01*
X147335855Y-100125000D01*
X147126345Y-100125000D01*
X146920859Y-100165874D01*
X146727297Y-100246050D01*
X146553095Y-100362448D01*
X146404948Y-100510595D01*
X146288550Y-100684797D01*
X146208374Y-100878359D01*
X146167500Y-101083845D01*
X141309700Y-101083845D01*
X141268826Y-100878359D01*
X141188650Y-100684797D01*
X141072252Y-100510595D01*
X140924105Y-100362448D01*
X140749903Y-100246050D01*
X140556341Y-100165874D01*
X140350855Y-100125000D01*
X140141345Y-100125000D01*
X139935859Y-100165874D01*
X139742297Y-100246050D01*
X139568095Y-100362448D01*
X139419948Y-100510595D01*
X139303550Y-100684797D01*
X139223374Y-100878359D01*
X139182500Y-101083845D01*
X137794601Y-101083845D01*
X137794601Y-97165021D01*
X148412600Y-97165021D01*
X148412600Y-97592179D01*
X148495935Y-98011128D01*
X148659401Y-98405770D01*
X148896716Y-98760938D01*
X149198762Y-99062984D01*
X149553930Y-99300299D01*
X149948572Y-99463765D01*
X150367521Y-99547100D01*
X150794679Y-99547100D01*
X151213628Y-99463765D01*
X151608270Y-99300299D01*
X151963438Y-99062984D01*
X152036797Y-98989625D01*
X155095233Y-98989625D01*
X155311501Y-99276617D01*
X155706181Y-99487834D01*
X156134484Y-99617994D01*
X156579950Y-99662095D01*
X157025459Y-99618442D01*
X157453893Y-99488713D01*
X157848785Y-99277895D01*
X157850699Y-99276617D01*
X158066967Y-98989625D01*
X156581100Y-97503758D01*
X155095233Y-98989625D01*
X152036797Y-98989625D01*
X152265484Y-98760938D01*
X152502799Y-98405770D01*
X152666265Y-98011128D01*
X152749600Y-97592179D01*
X152749600Y-97377450D01*
X154297605Y-97377450D01*
X154341258Y-97822959D01*
X154470987Y-98251393D01*
X154681805Y-98646285D01*
X154683083Y-98648199D01*
X154970075Y-98864467D01*
X156455942Y-97378600D01*
X156706258Y-97378600D01*
X158192125Y-98864467D01*
X158479117Y-98648199D01*
X158690334Y-98253519D01*
X158820494Y-97825216D01*
X158864595Y-97379750D01*
X158820942Y-96934241D01*
X158691213Y-96505807D01*
X158480395Y-96110915D01*
X158479117Y-96109001D01*
X158192125Y-95892733D01*
X156706258Y-97378600D01*
X156455942Y-97378600D01*
X154970075Y-95892733D01*
X154683083Y-96109001D01*
X154471866Y-96503681D01*
X154341706Y-96931984D01*
X154297605Y-97377450D01*
X152749600Y-97377450D01*
X152749600Y-97165021D01*
X152666265Y-96746072D01*
X152502799Y-96351430D01*
X152265484Y-95996262D01*
X152036797Y-95767575D01*
X155095233Y-95767575D01*
X156581100Y-97253442D01*
X158066967Y-95767575D01*
X157850699Y-95480583D01*
X157456019Y-95269366D01*
X157027716Y-95139206D01*
X156582250Y-95095105D01*
X156136741Y-95138758D01*
X155708307Y-95268487D01*
X155313415Y-95479305D01*
X155311501Y-95480583D01*
X155095233Y-95767575D01*
X152036797Y-95767575D01*
X151963438Y-95694216D01*
X151608270Y-95456901D01*
X151213628Y-95293435D01*
X150794679Y-95210100D01*
X150367521Y-95210100D01*
X149948572Y-95293435D01*
X149553930Y-95456901D01*
X149198762Y-95694216D01*
X148896716Y-95996262D01*
X148659401Y-96351430D01*
X148495935Y-96746072D01*
X148412600Y-97165021D01*
X137794601Y-97165021D01*
X137794601Y-95663261D01*
X140816597Y-95663261D01*
X140900044Y-95837093D01*
X141106678Y-95938094D01*
X141329046Y-95996842D01*
X141558603Y-96011079D01*
X141786525Y-95980259D01*
X142004056Y-95905565D01*
X142132156Y-95837093D01*
X142215603Y-95663261D01*
X141516100Y-94963758D01*
X140816597Y-95663261D01*
X137794601Y-95663261D01*
X137794601Y-94881103D01*
X140343621Y-94881103D01*
X140374441Y-95109025D01*
X140449135Y-95326556D01*
X140517607Y-95454656D01*
X140691439Y-95538103D01*
X141390942Y-94838600D01*
X141641258Y-94838600D01*
X142340761Y-95538103D01*
X142514593Y-95454656D01*
X142615594Y-95248022D01*
X142674342Y-95025654D01*
X142688579Y-94796097D01*
X142680162Y-94733845D01*
X142992500Y-94733845D01*
X142992500Y-94943355D01*
X143033374Y-95148841D01*
X143113550Y-95342403D01*
X143229948Y-95516605D01*
X143378095Y-95664752D01*
X143552297Y-95781150D01*
X143745859Y-95861326D01*
X143951345Y-95902200D01*
X144160855Y-95902200D01*
X144366341Y-95861326D01*
X144559903Y-95781150D01*
X144734105Y-95664752D01*
X144882252Y-95516605D01*
X144998650Y-95342403D01*
X145078826Y-95148841D01*
X145119700Y-94943355D01*
X145119700Y-94733845D01*
X145078826Y-94528359D01*
X144998650Y-94334797D01*
X144882252Y-94160595D01*
X144734105Y-94012448D01*
X144559903Y-93896050D01*
X144366341Y-93815874D01*
X144160855Y-93775000D01*
X143951345Y-93775000D01*
X143745859Y-93815874D01*
X143552297Y-93896050D01*
X143378095Y-94012448D01*
X143229948Y-94160595D01*
X143113550Y-94334797D01*
X143033374Y-94528359D01*
X142992500Y-94733845D01*
X142680162Y-94733845D01*
X142657759Y-94568175D01*
X142583065Y-94350644D01*
X142514593Y-94222544D01*
X142340761Y-94139097D01*
X141641258Y-94838600D01*
X141390942Y-94838600D01*
X140691439Y-94139097D01*
X140517607Y-94222544D01*
X140416606Y-94429178D01*
X140357858Y-94651546D01*
X140343621Y-94881103D01*
X137794601Y-94881103D01*
X137794601Y-94013939D01*
X140816597Y-94013939D01*
X141516100Y-94713442D01*
X142215603Y-94013939D01*
X142132156Y-93840107D01*
X141925522Y-93739106D01*
X141703154Y-93680358D01*
X141473597Y-93666121D01*
X141245675Y-93696941D01*
X141028144Y-93771635D01*
X140900044Y-93840107D01*
X140816597Y-94013939D01*
X137794601Y-94013939D01*
X137794601Y-92365021D01*
X151412600Y-92365021D01*
X151412600Y-92792179D01*
X151495935Y-93211128D01*
X151659401Y-93605770D01*
X151896716Y-93960938D01*
X152198762Y-94262984D01*
X152553930Y-94500299D01*
X152948572Y-94663765D01*
X153367521Y-94747100D01*
X153794679Y-94747100D01*
X154213628Y-94663765D01*
X154608270Y-94500299D01*
X154963438Y-94262984D01*
X155265484Y-93960938D01*
X155502799Y-93605770D01*
X155666265Y-93211128D01*
X155749600Y-92792179D01*
X155749600Y-92365021D01*
X155666265Y-91946072D01*
X155502799Y-91551430D01*
X155265484Y-91196262D01*
X154963438Y-90894216D01*
X154608270Y-90656901D01*
X154213628Y-90493435D01*
X153794679Y-90410100D01*
X153367521Y-90410100D01*
X152948572Y-90493435D01*
X152553930Y-90656901D01*
X152198762Y-90894216D01*
X151896716Y-91196262D01*
X151659401Y-91551430D01*
X151495935Y-91946072D01*
X151412600Y-92365021D01*
X137794601Y-92365021D01*
X137794601Y-90519863D01*
X139927495Y-90519863D01*
X140000214Y-90684600D01*
X140191694Y-90776719D01*
X140397465Y-90829711D01*
X140609621Y-90841541D01*
X140820009Y-90811754D01*
X141020542Y-90741495D01*
X141126986Y-90684600D01*
X141171719Y-90583261D01*
X146531597Y-90583261D01*
X146615044Y-90757093D01*
X146821678Y-90858094D01*
X147044046Y-90916842D01*
X147273603Y-90931079D01*
X147501525Y-90900259D01*
X147719056Y-90825565D01*
X147847156Y-90757093D01*
X147930603Y-90583261D01*
X147231100Y-89883758D01*
X146531597Y-90583261D01*
X141171719Y-90583261D01*
X141199705Y-90519863D01*
X140563600Y-89883758D01*
X139927495Y-90519863D01*
X137794601Y-90519863D01*
X137794601Y-89804621D01*
X139480659Y-89804621D01*
X139510446Y-90015009D01*
X139580705Y-90215542D01*
X139637600Y-90321986D01*
X139802337Y-90394705D01*
X140438442Y-89758600D01*
X140688758Y-89758600D01*
X141324863Y-90394705D01*
X141489600Y-90321986D01*
X141581719Y-90130506D01*
X141634711Y-89924735D01*
X141641604Y-89801103D01*
X146058621Y-89801103D01*
X146089441Y-90029025D01*
X146164135Y-90246556D01*
X146232607Y-90374656D01*
X146406439Y-90458103D01*
X147105942Y-89758600D01*
X147356258Y-89758600D01*
X148055761Y-90458103D01*
X148229593Y-90374656D01*
X148330594Y-90168022D01*
X148389342Y-89945654D01*
X148403579Y-89716097D01*
X148372759Y-89488175D01*
X148298065Y-89270644D01*
X148229593Y-89142544D01*
X148055761Y-89059097D01*
X147356258Y-89758600D01*
X147105942Y-89758600D01*
X146406439Y-89059097D01*
X146232607Y-89142544D01*
X146131606Y-89349178D01*
X146072858Y-89571546D01*
X146058621Y-89801103D01*
X141641604Y-89801103D01*
X141646541Y-89712579D01*
X141616754Y-89502191D01*
X141546495Y-89301658D01*
X141489600Y-89195214D01*
X141324863Y-89122495D01*
X140688758Y-89758600D01*
X140438442Y-89758600D01*
X139802337Y-89122495D01*
X139637600Y-89195214D01*
X139545481Y-89386694D01*
X139492489Y-89592465D01*
X139480659Y-89804621D01*
X137794601Y-89804621D01*
X137794601Y-88997337D01*
X139927495Y-88997337D01*
X140563600Y-89633442D01*
X141199705Y-88997337D01*
X141171720Y-88933939D01*
X146531597Y-88933939D01*
X147231100Y-89633442D01*
X147930603Y-88933939D01*
X147847156Y-88760107D01*
X147640522Y-88659106D01*
X147418154Y-88600358D01*
X147188597Y-88586121D01*
X146960675Y-88616941D01*
X146743144Y-88691635D01*
X146615044Y-88760107D01*
X146531597Y-88933939D01*
X141171720Y-88933939D01*
X141126986Y-88832600D01*
X140935506Y-88740481D01*
X140729735Y-88687489D01*
X140517579Y-88675659D01*
X140307191Y-88705446D01*
X140106658Y-88775705D01*
X140000214Y-88832600D01*
X139927495Y-88997337D01*
X137794601Y-88997337D01*
X137794601Y-87122600D01*
X139588900Y-87122600D01*
X139588900Y-87314600D01*
X139626357Y-87502909D01*
X139699832Y-87680294D01*
X139806501Y-87839935D01*
X139942265Y-87975699D01*
X140101906Y-88082368D01*
X140279291Y-88155843D01*
X140467600Y-88193300D01*
X140659600Y-88193300D01*
X140847909Y-88155843D01*
X141025294Y-88082368D01*
X141184935Y-87975699D01*
X141320699Y-87839935D01*
X141427368Y-87680294D01*
X141500843Y-87502909D01*
X141538300Y-87314600D01*
X141538300Y-87122600D01*
X141536559Y-87113845D01*
X146167500Y-87113845D01*
X146167500Y-87323355D01*
X146208374Y-87528841D01*
X146288550Y-87722403D01*
X146404948Y-87896605D01*
X146553095Y-88044752D01*
X146727297Y-88161150D01*
X146920859Y-88241326D01*
X147126345Y-88282200D01*
X147335855Y-88282200D01*
X147541341Y-88241326D01*
X147734903Y-88161150D01*
X147909105Y-88044752D01*
X148057252Y-87896605D01*
X148173650Y-87722403D01*
X148253826Y-87528841D01*
X148294700Y-87323355D01*
X148294700Y-87218600D01*
X154226793Y-87218600D01*
X154247574Y-87429592D01*
X154309118Y-87632475D01*
X154409060Y-87819453D01*
X154543559Y-87983341D01*
X154707447Y-88117840D01*
X154894425Y-88217782D01*
X155097308Y-88279326D01*
X155255433Y-88294900D01*
X156986767Y-88294900D01*
X157144892Y-88279326D01*
X157347775Y-88217782D01*
X157534753Y-88117840D01*
X157698641Y-87983341D01*
X157833140Y-87819453D01*
X157933082Y-87632475D01*
X157994626Y-87429592D01*
X158015407Y-87218600D01*
X157994626Y-87007608D01*
X157933082Y-86804725D01*
X157833140Y-86617747D01*
X157698641Y-86453859D01*
X157534753Y-86319360D01*
X157347775Y-86219418D01*
X157144892Y-86157874D01*
X156986767Y-86142300D01*
X155255433Y-86142300D01*
X155097308Y-86157874D01*
X154894425Y-86219418D01*
X154707447Y-86319360D01*
X154543559Y-86453859D01*
X154409060Y-86617747D01*
X154309118Y-86804725D01*
X154247574Y-87007608D01*
X154226793Y-87218600D01*
X148294700Y-87218600D01*
X148294700Y-87113845D01*
X148253826Y-86908359D01*
X148173650Y-86714797D01*
X148057252Y-86540595D01*
X147909105Y-86392448D01*
X147734903Y-86276050D01*
X147541341Y-86195874D01*
X147335855Y-86155000D01*
X147126345Y-86155000D01*
X146920859Y-86195874D01*
X146727297Y-86276050D01*
X146553095Y-86392448D01*
X146404948Y-86540595D01*
X146288550Y-86714797D01*
X146208374Y-86908359D01*
X146167500Y-87113845D01*
X141536559Y-87113845D01*
X141500843Y-86934291D01*
X141427368Y-86756906D01*
X141320699Y-86597265D01*
X141184935Y-86461501D01*
X141025294Y-86354832D01*
X140847909Y-86281357D01*
X140659600Y-86243900D01*
X140467600Y-86243900D01*
X140279291Y-86281357D01*
X140101906Y-86354832D01*
X139942265Y-86461501D01*
X139806501Y-86597265D01*
X139699832Y-86756906D01*
X139626357Y-86934291D01*
X139588900Y-87122600D01*
X137794601Y-87122600D01*
X137794601Y-84950130D01*
X154159658Y-84950130D01*
X154183978Y-85048518D01*
X154277749Y-85260754D01*
X154411123Y-85450619D01*
X154578975Y-85610815D01*
X154774855Y-85735187D01*
X154991235Y-85818955D01*
X155219800Y-85858900D01*
X156032600Y-85858900D01*
X156032600Y-84767100D01*
X156209600Y-84767100D01*
X156209600Y-85858900D01*
X157022400Y-85858900D01*
X157250965Y-85818955D01*
X157467345Y-85735187D01*
X157663225Y-85610815D01*
X157831077Y-85450619D01*
X157964451Y-85260754D01*
X158058222Y-85048518D01*
X158082542Y-84950130D01*
X158018721Y-84767100D01*
X156209600Y-84767100D01*
X156032600Y-84767100D01*
X154223479Y-84767100D01*
X154159658Y-84950130D01*
X137794601Y-84950130D01*
X137794601Y-84332817D01*
X141352041Y-84332817D01*
X141452324Y-84520949D01*
X141682759Y-84635900D01*
X141931193Y-84703686D01*
X142188077Y-84721703D01*
X142443541Y-84689258D01*
X142687766Y-84607599D01*
X142849876Y-84520949D01*
X142950159Y-84332817D01*
X143892041Y-84332817D01*
X143992324Y-84520949D01*
X144222759Y-84635900D01*
X144471193Y-84703686D01*
X144728077Y-84721703D01*
X144983541Y-84689258D01*
X145227766Y-84607599D01*
X145389876Y-84520949D01*
X145490159Y-84332817D01*
X146432041Y-84332817D01*
X146532324Y-84520949D01*
X146762759Y-84635900D01*
X147011193Y-84703686D01*
X147268077Y-84721703D01*
X147523541Y-84689258D01*
X147767766Y-84607599D01*
X147929876Y-84520949D01*
X148030159Y-84332817D01*
X148972041Y-84332817D01*
X149072324Y-84520949D01*
X149302759Y-84635900D01*
X149551193Y-84703686D01*
X149808077Y-84721703D01*
X150063541Y-84689258D01*
X150307766Y-84607599D01*
X150469876Y-84520949D01*
X150570159Y-84332817D01*
X151512041Y-84332817D01*
X151612324Y-84520949D01*
X151842759Y-84635900D01*
X152091193Y-84703686D01*
X152348077Y-84721703D01*
X152603541Y-84689258D01*
X152847766Y-84607599D01*
X153009876Y-84520949D01*
X153070578Y-84407070D01*
X154159658Y-84407070D01*
X154223479Y-84590100D01*
X156032600Y-84590100D01*
X156032600Y-83498300D01*
X156209600Y-83498300D01*
X156209600Y-84590100D01*
X158018721Y-84590100D01*
X158082542Y-84407070D01*
X158058222Y-84308682D01*
X157964451Y-84096446D01*
X157831077Y-83906581D01*
X157663225Y-83746385D01*
X157467345Y-83622013D01*
X157250965Y-83538245D01*
X157022400Y-83498300D01*
X156209600Y-83498300D01*
X156032600Y-83498300D01*
X155219800Y-83498300D01*
X154991235Y-83538245D01*
X154774855Y-83622013D01*
X154578975Y-83746385D01*
X154411123Y-83906581D01*
X154277749Y-84096446D01*
X154183978Y-84308682D01*
X154159658Y-84407070D01*
X153070578Y-84407070D01*
X153110159Y-84332817D01*
X152311100Y-83533758D01*
X151512041Y-84332817D01*
X150570159Y-84332817D01*
X149771100Y-83533758D01*
X148972041Y-84332817D01*
X148030159Y-84332817D01*
X147231100Y-83533758D01*
X146432041Y-84332817D01*
X145490159Y-84332817D01*
X144691100Y-83533758D01*
X143892041Y-84332817D01*
X142950159Y-84332817D01*
X142151100Y-83533758D01*
X141352041Y-84332817D01*
X137794601Y-84332817D01*
X137794601Y-83445577D01*
X140837997Y-83445577D01*
X140870442Y-83701041D01*
X140952101Y-83945266D01*
X141038751Y-84107376D01*
X141226883Y-84207659D01*
X142025942Y-83408600D01*
X142276258Y-83408600D01*
X143075317Y-84207659D01*
X143263449Y-84107376D01*
X143378400Y-83876941D01*
X143419226Y-83727313D01*
X143492101Y-83945266D01*
X143578751Y-84107376D01*
X143766883Y-84207659D01*
X144565942Y-83408600D01*
X144816258Y-83408600D01*
X145615317Y-84207659D01*
X145803449Y-84107376D01*
X145918400Y-83876941D01*
X145959226Y-83727313D01*
X146032101Y-83945266D01*
X146118751Y-84107376D01*
X146306883Y-84207659D01*
X147105942Y-83408600D01*
X147356258Y-83408600D01*
X148155317Y-84207659D01*
X148343449Y-84107376D01*
X148458400Y-83876941D01*
X148499226Y-83727313D01*
X148572101Y-83945266D01*
X148658751Y-84107376D01*
X148846883Y-84207659D01*
X149645942Y-83408600D01*
X149896258Y-83408600D01*
X150695317Y-84207659D01*
X150883449Y-84107376D01*
X150998400Y-83876941D01*
X151039226Y-83727313D01*
X151112101Y-83945266D01*
X151198751Y-84107376D01*
X151386883Y-84207659D01*
X152185942Y-83408600D01*
X152436258Y-83408600D01*
X153235317Y-84207659D01*
X153423449Y-84107376D01*
X153538400Y-83876941D01*
X153606186Y-83628507D01*
X153624203Y-83371623D01*
X153591758Y-83116159D01*
X153510099Y-82871934D01*
X153423449Y-82709824D01*
X153235317Y-82609541D01*
X152436258Y-83408600D01*
X152185942Y-83408600D01*
X151386883Y-82609541D01*
X151198751Y-82709824D01*
X151083800Y-82940259D01*
X151042974Y-83089887D01*
X150970099Y-82871934D01*
X150883449Y-82709824D01*
X150695317Y-82609541D01*
X149896258Y-83408600D01*
X149645942Y-83408600D01*
X148846883Y-82609541D01*
X148658751Y-82709824D01*
X148543800Y-82940259D01*
X148502974Y-83089887D01*
X148430099Y-82871934D01*
X148343449Y-82709824D01*
X148155317Y-82609541D01*
X147356258Y-83408600D01*
X147105942Y-83408600D01*
X146306883Y-82609541D01*
X146118751Y-82709824D01*
X146003800Y-82940259D01*
X145962974Y-83089887D01*
X145890099Y-82871934D01*
X145803449Y-82709824D01*
X145615317Y-82609541D01*
X144816258Y-83408600D01*
X144565942Y-83408600D01*
X143766883Y-82609541D01*
X143578751Y-82709824D01*
X143463800Y-82940259D01*
X143422974Y-83089887D01*
X143350099Y-82871934D01*
X143263449Y-82709824D01*
X143075317Y-82609541D01*
X142276258Y-83408600D01*
X142025942Y-83408600D01*
X141226883Y-82609541D01*
X141038751Y-82709824D01*
X140923800Y-82940259D01*
X140856014Y-83188693D01*
X140837997Y-83445577D01*
X137794601Y-83445577D01*
X137794601Y-82484383D01*
X141352041Y-82484383D01*
X142151100Y-83283442D01*
X142950159Y-82484383D01*
X143892041Y-82484383D01*
X144691100Y-83283442D01*
X145490159Y-82484383D01*
X146432041Y-82484383D01*
X147231100Y-83283442D01*
X148030159Y-82484383D01*
X148972041Y-82484383D01*
X149771100Y-83283442D01*
X150570159Y-82484383D01*
X151512041Y-82484383D01*
X152311100Y-83283442D01*
X153110159Y-82484383D01*
X153009876Y-82296251D01*
X152779441Y-82181300D01*
X152622947Y-82138600D01*
X154226793Y-82138600D01*
X154247574Y-82349592D01*
X154309118Y-82552475D01*
X154409060Y-82739453D01*
X154543559Y-82903341D01*
X154707447Y-83037840D01*
X154894425Y-83137782D01*
X155097308Y-83199326D01*
X155255433Y-83214900D01*
X156986767Y-83214900D01*
X157144892Y-83199326D01*
X157347775Y-83137782D01*
X157534753Y-83037840D01*
X157698641Y-82903341D01*
X157833140Y-82739453D01*
X157933082Y-82552475D01*
X157994626Y-82349592D01*
X158015407Y-82138600D01*
X157994626Y-81927608D01*
X157933082Y-81724725D01*
X157833140Y-81537747D01*
X157698641Y-81373859D01*
X157534753Y-81239360D01*
X157347775Y-81139418D01*
X157144892Y-81077874D01*
X156986767Y-81062300D01*
X155255433Y-81062300D01*
X155097308Y-81077874D01*
X154894425Y-81139418D01*
X154707447Y-81239360D01*
X154543559Y-81373859D01*
X154409060Y-81537747D01*
X154309118Y-81724725D01*
X154247574Y-81927608D01*
X154226793Y-82138600D01*
X152622947Y-82138600D01*
X152531007Y-82113514D01*
X152274123Y-82095497D01*
X152018659Y-82127942D01*
X151774434Y-82209601D01*
X151612324Y-82296251D01*
X151512041Y-82484383D01*
X150570159Y-82484383D01*
X150469876Y-82296251D01*
X150239441Y-82181300D01*
X149991007Y-82113514D01*
X149734123Y-82095497D01*
X149478659Y-82127942D01*
X149234434Y-82209601D01*
X149072324Y-82296251D01*
X148972041Y-82484383D01*
X148030159Y-82484383D01*
X147929876Y-82296251D01*
X147699441Y-82181300D01*
X147451007Y-82113514D01*
X147194123Y-82095497D01*
X146938659Y-82127942D01*
X146694434Y-82209601D01*
X146532324Y-82296251D01*
X146432041Y-82484383D01*
X145490159Y-82484383D01*
X145389876Y-82296251D01*
X145159441Y-82181300D01*
X144911007Y-82113514D01*
X144654123Y-82095497D01*
X144398659Y-82127942D01*
X144154434Y-82209601D01*
X143992324Y-82296251D01*
X143892041Y-82484383D01*
X142950159Y-82484383D01*
X142849876Y-82296251D01*
X142619441Y-82181300D01*
X142371007Y-82113514D01*
X142114123Y-82095497D01*
X141858659Y-82127942D01*
X141614434Y-82209601D01*
X141452324Y-82296251D01*
X141352041Y-82484383D01*
X137794601Y-82484383D01*
X137794601Y-80872932D01*
X137806646Y-80750085D01*
X140947800Y-80750085D01*
X140947800Y-80987115D01*
X140994042Y-81219590D01*
X141084750Y-81438576D01*
X141216436Y-81635659D01*
X141384041Y-81803264D01*
X141581124Y-81934950D01*
X141800110Y-82025658D01*
X142032585Y-82071900D01*
X142269615Y-82071900D01*
X142502090Y-82025658D01*
X142721076Y-81934950D01*
X142918159Y-81803264D01*
X143085764Y-81635659D01*
X143217450Y-81438576D01*
X143308158Y-81219590D01*
X143354400Y-80987115D01*
X143354400Y-80750085D01*
X143487800Y-80750085D01*
X143487800Y-80987115D01*
X143534042Y-81219590D01*
X143624750Y-81438576D01*
X143756436Y-81635659D01*
X143924041Y-81803264D01*
X144121124Y-81934950D01*
X144340110Y-82025658D01*
X144572585Y-82071900D01*
X144809615Y-82071900D01*
X145042090Y-82025658D01*
X145261076Y-81934950D01*
X145458159Y-81803264D01*
X145625764Y-81635659D01*
X145757450Y-81438576D01*
X145848158Y-81219590D01*
X145894400Y-80987115D01*
X145894400Y-80750085D01*
X146027800Y-80750085D01*
X146027800Y-80987115D01*
X146074042Y-81219590D01*
X146164750Y-81438576D01*
X146296436Y-81635659D01*
X146464041Y-81803264D01*
X146661124Y-81934950D01*
X146880110Y-82025658D01*
X147112585Y-82071900D01*
X147349615Y-82071900D01*
X147582090Y-82025658D01*
X147801076Y-81934950D01*
X147998159Y-81803264D01*
X148165764Y-81635659D01*
X148297450Y-81438576D01*
X148388158Y-81219590D01*
X148434400Y-80987115D01*
X148434400Y-80750085D01*
X148567800Y-80750085D01*
X148567800Y-80987115D01*
X148614042Y-81219590D01*
X148704750Y-81438576D01*
X148836436Y-81635659D01*
X149004041Y-81803264D01*
X149201124Y-81934950D01*
X149420110Y-82025658D01*
X149652585Y-82071900D01*
X149889615Y-82071900D01*
X150122090Y-82025658D01*
X150341076Y-81934950D01*
X150538159Y-81803264D01*
X150705764Y-81635659D01*
X150837450Y-81438576D01*
X150928158Y-81219590D01*
X150974400Y-80987115D01*
X150974400Y-80750085D01*
X151107800Y-80750085D01*
X151107800Y-80987115D01*
X151154042Y-81219590D01*
X151244750Y-81438576D01*
X151376436Y-81635659D01*
X151544041Y-81803264D01*
X151741124Y-81934950D01*
X151960110Y-82025658D01*
X152192585Y-82071900D01*
X152429615Y-82071900D01*
X152662090Y-82025658D01*
X152881076Y-81934950D01*
X153078159Y-81803264D01*
X153245764Y-81635659D01*
X153377450Y-81438576D01*
X153468158Y-81219590D01*
X153514400Y-80987115D01*
X153514400Y-80750085D01*
X153468158Y-80517610D01*
X153377450Y-80298624D01*
X153245764Y-80101541D01*
X153078159Y-79933936D01*
X152881076Y-79802250D01*
X152662090Y-79711542D01*
X152429615Y-79665300D01*
X152192585Y-79665300D01*
X151960110Y-79711542D01*
X151741124Y-79802250D01*
X151544041Y-79933936D01*
X151376436Y-80101541D01*
X151244750Y-80298624D01*
X151154042Y-80517610D01*
X151107800Y-80750085D01*
X150974400Y-80750085D01*
X150928158Y-80517610D01*
X150837450Y-80298624D01*
X150705764Y-80101541D01*
X150538159Y-79933936D01*
X150341076Y-79802250D01*
X150122090Y-79711542D01*
X149889615Y-79665300D01*
X149652585Y-79665300D01*
X149420110Y-79711542D01*
X149201124Y-79802250D01*
X149004041Y-79933936D01*
X148836436Y-80101541D01*
X148704750Y-80298624D01*
X148614042Y-80517610D01*
X148567800Y-80750085D01*
X148434400Y-80750085D01*
X148388158Y-80517610D01*
X148297450Y-80298624D01*
X148165764Y-80101541D01*
X147998159Y-79933936D01*
X147801076Y-79802250D01*
X147582090Y-79711542D01*
X147349615Y-79665300D01*
X147112585Y-79665300D01*
X146880110Y-79711542D01*
X146661124Y-79802250D01*
X146464041Y-79933936D01*
X146296436Y-80101541D01*
X146164750Y-80298624D01*
X146074042Y-80517610D01*
X146027800Y-80750085D01*
X145894400Y-80750085D01*
X145848158Y-80517610D01*
X145757450Y-80298624D01*
X145625764Y-80101541D01*
X145458159Y-79933936D01*
X145261076Y-79802250D01*
X145042090Y-79711542D01*
X144809615Y-79665300D01*
X144572585Y-79665300D01*
X144340110Y-79711542D01*
X144121124Y-79802250D01*
X143924041Y-79933936D01*
X143756436Y-80101541D01*
X143624750Y-80298624D01*
X143534042Y-80517610D01*
X143487800Y-80750085D01*
X143354400Y-80750085D01*
X143308158Y-80517610D01*
X143217450Y-80298624D01*
X143085764Y-80101541D01*
X142918159Y-79933936D01*
X142721076Y-79802250D01*
X142502090Y-79711542D01*
X142269615Y-79665300D01*
X142032585Y-79665300D01*
X141800110Y-79711542D01*
X141581124Y-79802250D01*
X141384041Y-79933936D01*
X141216436Y-80101541D01*
X141084750Y-80298624D01*
X140994042Y-80517610D01*
X140947800Y-80750085D01*
X137806646Y-80750085D01*
X137829422Y-80517798D01*
X137931300Y-80180360D01*
X138096783Y-79869132D01*
X138319560Y-79595980D01*
X138591155Y-79371297D01*
X138901219Y-79203645D01*
X139237939Y-79099414D01*
X139592665Y-79062130D01*
X139601120Y-79062101D01*
X157396768Y-79062101D01*
X157751902Y-79096922D01*
G04 #@! TD*
M02*
