G04 #@! TF.GenerationSoftware,KiCad,Pcbnew,(5.1.5)-3*
G04 #@! TF.CreationDate,2020-03-15T11:48:49-07:00*
G04 #@! TF.ProjectId,bbf-supply_v1,6262662d-7375-4707-906c-795f76312e6b,rev?*
G04 #@! TF.SameCoordinates,Original*
G04 #@! TF.FileFunction,Soldermask,Bot*
G04 #@! TF.FilePolarity,Negative*
%FSLAX46Y46*%
G04 Gerber Fmt 4.6, Leading zero omitted, Abs format (unit mm)*
G04 Created by KiCad (PCBNEW (5.1.5)-3) date 2020-03-15 11:48:49*
%MOMM*%
%LPD*%
G04 APERTURE LIST*
%ADD10C,0.100000*%
G04 APERTURE END LIST*
D10*
G36*
X142454865Y-128127220D02*
G01*
X142644388Y-128205723D01*
X142814954Y-128319692D01*
X142960008Y-128464746D01*
X143073977Y-128635312D01*
X143152480Y-128824835D01*
X143192500Y-129026031D01*
X143192500Y-129231169D01*
X143152480Y-129432365D01*
X143073977Y-129621888D01*
X142960008Y-129792454D01*
X142814954Y-129937508D01*
X142644388Y-130051477D01*
X142644387Y-130051478D01*
X142644386Y-130051478D01*
X142454865Y-130129980D01*
X142253670Y-130170000D01*
X142048530Y-130170000D01*
X141847335Y-130129980D01*
X141657814Y-130051478D01*
X141657813Y-130051478D01*
X141657812Y-130051477D01*
X141487246Y-129937508D01*
X141342192Y-129792454D01*
X141228223Y-129621888D01*
X141149720Y-129432365D01*
X141109700Y-129231169D01*
X141109700Y-129026031D01*
X141149720Y-128824835D01*
X141228223Y-128635312D01*
X141342192Y-128464746D01*
X141487246Y-128319692D01*
X141657812Y-128205723D01*
X141847335Y-128127220D01*
X142048530Y-128087200D01*
X142253670Y-128087200D01*
X142454865Y-128127220D01*
G37*
G36*
X144994865Y-128127220D02*
G01*
X145184388Y-128205723D01*
X145354954Y-128319692D01*
X145500008Y-128464746D01*
X145613977Y-128635312D01*
X145692480Y-128824835D01*
X145732500Y-129026031D01*
X145732500Y-129231169D01*
X145692480Y-129432365D01*
X145613977Y-129621888D01*
X145500008Y-129792454D01*
X145354954Y-129937508D01*
X145184388Y-130051477D01*
X145184387Y-130051478D01*
X145184386Y-130051478D01*
X144994865Y-130129980D01*
X144793670Y-130170000D01*
X144588530Y-130170000D01*
X144387335Y-130129980D01*
X144197814Y-130051478D01*
X144197813Y-130051478D01*
X144197812Y-130051477D01*
X144027246Y-129937508D01*
X143882192Y-129792454D01*
X143768223Y-129621888D01*
X143689720Y-129432365D01*
X143649700Y-129231169D01*
X143649700Y-129026031D01*
X143689720Y-128824835D01*
X143768223Y-128635312D01*
X143882192Y-128464746D01*
X144027246Y-128319692D01*
X144197812Y-128205723D01*
X144387335Y-128127220D01*
X144588530Y-128087200D01*
X144793670Y-128087200D01*
X144994865Y-128127220D01*
G37*
G36*
X147534865Y-128127220D02*
G01*
X147724388Y-128205723D01*
X147894954Y-128319692D01*
X148040008Y-128464746D01*
X148153977Y-128635312D01*
X148232480Y-128824835D01*
X148272500Y-129026031D01*
X148272500Y-129231169D01*
X148232480Y-129432365D01*
X148153977Y-129621888D01*
X148040008Y-129792454D01*
X147894954Y-129937508D01*
X147724388Y-130051477D01*
X147724387Y-130051478D01*
X147724386Y-130051478D01*
X147534865Y-130129980D01*
X147333670Y-130170000D01*
X147128530Y-130170000D01*
X146927335Y-130129980D01*
X146737814Y-130051478D01*
X146737813Y-130051478D01*
X146737812Y-130051477D01*
X146567246Y-129937508D01*
X146422192Y-129792454D01*
X146308223Y-129621888D01*
X146229720Y-129432365D01*
X146189700Y-129231169D01*
X146189700Y-129026031D01*
X146229720Y-128824835D01*
X146308223Y-128635312D01*
X146422192Y-128464746D01*
X146567246Y-128319692D01*
X146737812Y-128205723D01*
X146927335Y-128127220D01*
X147128530Y-128087200D01*
X147333670Y-128087200D01*
X147534865Y-128127220D01*
G37*
G36*
X152614865Y-128127220D02*
G01*
X152804388Y-128205723D01*
X152974954Y-128319692D01*
X153120008Y-128464746D01*
X153233977Y-128635312D01*
X153312480Y-128824835D01*
X153352500Y-129026031D01*
X153352500Y-129231169D01*
X153312480Y-129432365D01*
X153233977Y-129621888D01*
X153120008Y-129792454D01*
X152974954Y-129937508D01*
X152804388Y-130051477D01*
X152804387Y-130051478D01*
X152804386Y-130051478D01*
X152614865Y-130129980D01*
X152413670Y-130170000D01*
X152208530Y-130170000D01*
X152007335Y-130129980D01*
X151817814Y-130051478D01*
X151817813Y-130051478D01*
X151817812Y-130051477D01*
X151647246Y-129937508D01*
X151502192Y-129792454D01*
X151388223Y-129621888D01*
X151309720Y-129432365D01*
X151269700Y-129231169D01*
X151269700Y-129026031D01*
X151309720Y-128824835D01*
X151388223Y-128635312D01*
X151502192Y-128464746D01*
X151647246Y-128319692D01*
X151817812Y-128205723D01*
X152007335Y-128127220D01*
X152208530Y-128087200D01*
X152413670Y-128087200D01*
X152614865Y-128127220D01*
G37*
G36*
X150074865Y-128127220D02*
G01*
X150264388Y-128205723D01*
X150434954Y-128319692D01*
X150580008Y-128464746D01*
X150693977Y-128635312D01*
X150772480Y-128824835D01*
X150812500Y-129026031D01*
X150812500Y-129231169D01*
X150772480Y-129432365D01*
X150693977Y-129621888D01*
X150580008Y-129792454D01*
X150434954Y-129937508D01*
X150264388Y-130051477D01*
X150264387Y-130051478D01*
X150264386Y-130051478D01*
X150074865Y-130129980D01*
X149873670Y-130170000D01*
X149668530Y-130170000D01*
X149467335Y-130129980D01*
X149277814Y-130051478D01*
X149277813Y-130051478D01*
X149277812Y-130051477D01*
X149107246Y-129937508D01*
X148962192Y-129792454D01*
X148848223Y-129621888D01*
X148769720Y-129432365D01*
X148729700Y-129231169D01*
X148729700Y-129026031D01*
X148769720Y-128824835D01*
X148848223Y-128635312D01*
X148962192Y-128464746D01*
X149107246Y-128319692D01*
X149277812Y-128205723D01*
X149467335Y-128127220D01*
X149668530Y-128087200D01*
X149873670Y-128087200D01*
X150074865Y-128127220D01*
G37*
G36*
X157113152Y-126957430D02*
G01*
X157199336Y-126983574D01*
X157285519Y-127009717D01*
X157285521Y-127009718D01*
X157444367Y-127094623D01*
X157444370Y-127094625D01*
X157444371Y-127094626D01*
X157583607Y-127208893D01*
X157697874Y-127348129D01*
X157697877Y-127348133D01*
X157782782Y-127506979D01*
X157782783Y-127506981D01*
X157784147Y-127511478D01*
X157835070Y-127679348D01*
X157852724Y-127858600D01*
X157835070Y-128037852D01*
X157835069Y-128037854D01*
X157784147Y-128205723D01*
X157782782Y-128210221D01*
X157697877Y-128369067D01*
X157697875Y-128369070D01*
X157697874Y-128369071D01*
X157583607Y-128508307D01*
X157444371Y-128622574D01*
X157444367Y-128622577D01*
X157285521Y-128707482D01*
X157285519Y-128707483D01*
X157199336Y-128733626D01*
X157113152Y-128759770D01*
X156978821Y-128773000D01*
X155263379Y-128773000D01*
X155129048Y-128759770D01*
X155042864Y-128733626D01*
X154956681Y-128707483D01*
X154956679Y-128707482D01*
X154797833Y-128622577D01*
X154797829Y-128622574D01*
X154658593Y-128508307D01*
X154544326Y-128369071D01*
X154544325Y-128369070D01*
X154544323Y-128369067D01*
X154459418Y-128210221D01*
X154458054Y-128205723D01*
X154407131Y-128037854D01*
X154407130Y-128037852D01*
X154389476Y-127858600D01*
X154407130Y-127679348D01*
X154458053Y-127511478D01*
X154459417Y-127506981D01*
X154459418Y-127506979D01*
X154544323Y-127348133D01*
X154544326Y-127348129D01*
X154658593Y-127208893D01*
X154797829Y-127094626D01*
X154797830Y-127094625D01*
X154797833Y-127094623D01*
X154956679Y-127009718D01*
X154956681Y-127009717D01*
X155042864Y-126983574D01*
X155129048Y-126957430D01*
X155263379Y-126944200D01*
X156978821Y-126944200D01*
X157113152Y-126957430D01*
G37*
G36*
X150074865Y-125587220D02*
G01*
X150264388Y-125665723D01*
X150434954Y-125779692D01*
X150580008Y-125924746D01*
X150693977Y-126095312D01*
X150772480Y-126284835D01*
X150812500Y-126486031D01*
X150812500Y-126691169D01*
X150772480Y-126892365D01*
X150693977Y-127081888D01*
X150580008Y-127252454D01*
X150434954Y-127397508D01*
X150264388Y-127511477D01*
X150264387Y-127511478D01*
X150264386Y-127511478D01*
X150074865Y-127589980D01*
X149873670Y-127630000D01*
X149668530Y-127630000D01*
X149467335Y-127589980D01*
X149277814Y-127511478D01*
X149277813Y-127511478D01*
X149277812Y-127511477D01*
X149107246Y-127397508D01*
X148962192Y-127252454D01*
X148848223Y-127081888D01*
X148769720Y-126892365D01*
X148729700Y-126691169D01*
X148729700Y-126486031D01*
X148769720Y-126284835D01*
X148848223Y-126095312D01*
X148962192Y-125924746D01*
X149107246Y-125779692D01*
X149277812Y-125665723D01*
X149467335Y-125587220D01*
X149668530Y-125547200D01*
X149873670Y-125547200D01*
X150074865Y-125587220D01*
G37*
G36*
X142454865Y-125587220D02*
G01*
X142644388Y-125665723D01*
X142814954Y-125779692D01*
X142960008Y-125924746D01*
X143073977Y-126095312D01*
X143152480Y-126284835D01*
X143192500Y-126486031D01*
X143192500Y-126691169D01*
X143152480Y-126892365D01*
X143073977Y-127081888D01*
X142960008Y-127252454D01*
X142814954Y-127397508D01*
X142644388Y-127511477D01*
X142644387Y-127511478D01*
X142644386Y-127511478D01*
X142454865Y-127589980D01*
X142253670Y-127630000D01*
X142048530Y-127630000D01*
X141847335Y-127589980D01*
X141657814Y-127511478D01*
X141657813Y-127511478D01*
X141657812Y-127511477D01*
X141487246Y-127397508D01*
X141342192Y-127252454D01*
X141228223Y-127081888D01*
X141149720Y-126892365D01*
X141109700Y-126691169D01*
X141109700Y-126486031D01*
X141149720Y-126284835D01*
X141228223Y-126095312D01*
X141342192Y-125924746D01*
X141487246Y-125779692D01*
X141657812Y-125665723D01*
X141847335Y-125587220D01*
X142048530Y-125547200D01*
X142253670Y-125547200D01*
X142454865Y-125587220D01*
G37*
G36*
X144994865Y-125587220D02*
G01*
X145184388Y-125665723D01*
X145354954Y-125779692D01*
X145500008Y-125924746D01*
X145613977Y-126095312D01*
X145692480Y-126284835D01*
X145732500Y-126486031D01*
X145732500Y-126691169D01*
X145692480Y-126892365D01*
X145613977Y-127081888D01*
X145500008Y-127252454D01*
X145354954Y-127397508D01*
X145184388Y-127511477D01*
X145184387Y-127511478D01*
X145184386Y-127511478D01*
X144994865Y-127589980D01*
X144793670Y-127630000D01*
X144588530Y-127630000D01*
X144387335Y-127589980D01*
X144197814Y-127511478D01*
X144197813Y-127511478D01*
X144197812Y-127511477D01*
X144027246Y-127397508D01*
X143882192Y-127252454D01*
X143768223Y-127081888D01*
X143689720Y-126892365D01*
X143649700Y-126691169D01*
X143649700Y-126486031D01*
X143689720Y-126284835D01*
X143768223Y-126095312D01*
X143882192Y-125924746D01*
X144027246Y-125779692D01*
X144197812Y-125665723D01*
X144387335Y-125587220D01*
X144588530Y-125547200D01*
X144793670Y-125547200D01*
X144994865Y-125587220D01*
G37*
G36*
X147534865Y-125587220D02*
G01*
X147724388Y-125665723D01*
X147894954Y-125779692D01*
X148040008Y-125924746D01*
X148153977Y-126095312D01*
X148232480Y-126284835D01*
X148272500Y-126486031D01*
X148272500Y-126691169D01*
X148232480Y-126892365D01*
X148153977Y-127081888D01*
X148040008Y-127252454D01*
X147894954Y-127397508D01*
X147724388Y-127511477D01*
X147724387Y-127511478D01*
X147724386Y-127511478D01*
X147534865Y-127589980D01*
X147333670Y-127630000D01*
X147128530Y-127630000D01*
X146927335Y-127589980D01*
X146737814Y-127511478D01*
X146737813Y-127511478D01*
X146737812Y-127511477D01*
X146567246Y-127397508D01*
X146422192Y-127252454D01*
X146308223Y-127081888D01*
X146229720Y-126892365D01*
X146189700Y-126691169D01*
X146189700Y-126486031D01*
X146229720Y-126284835D01*
X146308223Y-126095312D01*
X146422192Y-125924746D01*
X146567246Y-125779692D01*
X146737812Y-125665723D01*
X146927335Y-125587220D01*
X147128530Y-125547200D01*
X147333670Y-125547200D01*
X147534865Y-125587220D01*
G37*
G36*
X152614865Y-125587220D02*
G01*
X152804388Y-125665723D01*
X152974954Y-125779692D01*
X153120008Y-125924746D01*
X153233977Y-126095312D01*
X153312480Y-126284835D01*
X153352500Y-126486031D01*
X153352500Y-126691169D01*
X153312480Y-126892365D01*
X153233977Y-127081888D01*
X153120008Y-127252454D01*
X152974954Y-127397508D01*
X152804388Y-127511477D01*
X152804387Y-127511478D01*
X152804386Y-127511478D01*
X152614865Y-127589980D01*
X152413670Y-127630000D01*
X152208530Y-127630000D01*
X152007335Y-127589980D01*
X151817814Y-127511478D01*
X151817813Y-127511478D01*
X151817812Y-127511477D01*
X151647246Y-127397508D01*
X151502192Y-127252454D01*
X151388223Y-127081888D01*
X151309720Y-126892365D01*
X151269700Y-126691169D01*
X151269700Y-126486031D01*
X151309720Y-126284835D01*
X151388223Y-126095312D01*
X151502192Y-125924746D01*
X151647246Y-125779692D01*
X151817812Y-125665723D01*
X152007335Y-125587220D01*
X152208530Y-125547200D01*
X152413670Y-125547200D01*
X152614865Y-125587220D01*
G37*
G36*
X157113152Y-124417430D02*
G01*
X157199337Y-124443574D01*
X157285519Y-124469717D01*
X157285521Y-124469718D01*
X157444367Y-124554623D01*
X157444370Y-124554625D01*
X157444371Y-124554626D01*
X157583607Y-124668893D01*
X157697874Y-124808129D01*
X157697877Y-124808133D01*
X157782782Y-124966979D01*
X157835070Y-125139348D01*
X157852724Y-125318600D01*
X157835070Y-125497852D01*
X157835069Y-125497854D01*
X157784147Y-125665723D01*
X157782782Y-125670221D01*
X157697877Y-125829067D01*
X157697875Y-125829070D01*
X157697874Y-125829071D01*
X157583607Y-125968307D01*
X157444371Y-126082574D01*
X157444367Y-126082577D01*
X157285521Y-126167482D01*
X157285519Y-126167483D01*
X157199336Y-126193626D01*
X157113152Y-126219770D01*
X156978821Y-126233000D01*
X155263379Y-126233000D01*
X155129048Y-126219770D01*
X155042863Y-126193626D01*
X154956681Y-126167483D01*
X154956679Y-126167482D01*
X154797833Y-126082577D01*
X154797829Y-126082574D01*
X154658593Y-125968307D01*
X154544326Y-125829071D01*
X154544325Y-125829070D01*
X154544323Y-125829067D01*
X154459418Y-125670221D01*
X154458054Y-125665723D01*
X154407131Y-125497854D01*
X154407130Y-125497852D01*
X154389476Y-125318600D01*
X154407130Y-125139348D01*
X154459418Y-124966979D01*
X154544323Y-124808133D01*
X154544326Y-124808129D01*
X154658593Y-124668893D01*
X154797829Y-124554626D01*
X154797830Y-124554625D01*
X154797833Y-124554623D01*
X154956679Y-124469718D01*
X154956681Y-124469717D01*
X155042863Y-124443574D01*
X155129048Y-124417430D01*
X155263379Y-124404200D01*
X156978821Y-124404200D01*
X157113152Y-124417430D01*
G37*
G36*
X157113152Y-121877430D02*
G01*
X157199337Y-121903574D01*
X157285519Y-121929717D01*
X157285521Y-121929718D01*
X157444367Y-122014623D01*
X157444370Y-122014625D01*
X157444371Y-122014626D01*
X157583607Y-122128893D01*
X157691588Y-122260470D01*
X157697877Y-122268133D01*
X157782782Y-122426979D01*
X157835070Y-122599348D01*
X157852724Y-122778600D01*
X157835070Y-122957852D01*
X157782782Y-123130221D01*
X157697877Y-123289067D01*
X157697875Y-123289070D01*
X157697874Y-123289071D01*
X157583607Y-123428307D01*
X157444371Y-123542574D01*
X157444367Y-123542577D01*
X157285521Y-123627482D01*
X157285519Y-123627483D01*
X157225633Y-123645649D01*
X157113152Y-123679770D01*
X156978821Y-123693000D01*
X155263379Y-123693000D01*
X155129048Y-123679770D01*
X155016567Y-123645649D01*
X154956681Y-123627483D01*
X154956679Y-123627482D01*
X154797833Y-123542577D01*
X154797829Y-123542574D01*
X154658593Y-123428307D01*
X154544326Y-123289071D01*
X154544325Y-123289070D01*
X154544323Y-123289067D01*
X154459418Y-123130221D01*
X154407130Y-122957852D01*
X154389476Y-122778600D01*
X154407130Y-122599348D01*
X154459418Y-122426979D01*
X154544323Y-122268133D01*
X154550612Y-122260470D01*
X154658593Y-122128893D01*
X154797829Y-122014626D01*
X154797830Y-122014625D01*
X154797833Y-122014623D01*
X154956679Y-121929718D01*
X154956681Y-121929717D01*
X155042863Y-121903574D01*
X155129048Y-121877430D01*
X155263379Y-121864200D01*
X156978821Y-121864200D01*
X157113152Y-121877430D01*
G37*
G36*
X147494115Y-121911551D02*
G01*
X147658213Y-121979523D01*
X147658215Y-121979524D01*
X147805900Y-122078204D01*
X147931496Y-122203800D01*
X148030177Y-122351487D01*
X148098149Y-122515585D01*
X148132800Y-122689789D01*
X148132800Y-122867411D01*
X148098149Y-123041615D01*
X148061447Y-123130221D01*
X148030176Y-123205715D01*
X147931496Y-123353400D01*
X147805900Y-123478996D01*
X147658215Y-123577676D01*
X147658214Y-123577677D01*
X147658213Y-123577677D01*
X147494115Y-123645649D01*
X147319911Y-123680300D01*
X147142289Y-123680300D01*
X146968085Y-123645649D01*
X146803987Y-123577677D01*
X146803986Y-123577677D01*
X146803985Y-123577676D01*
X146656300Y-123478996D01*
X146530704Y-123353400D01*
X146432024Y-123205715D01*
X146400753Y-123130221D01*
X146364051Y-123041615D01*
X146329400Y-122867411D01*
X146329400Y-122689789D01*
X146364051Y-122515585D01*
X146432023Y-122351487D01*
X146530704Y-122203800D01*
X146656300Y-122078204D01*
X146803985Y-121979524D01*
X146803987Y-121979523D01*
X146968085Y-121911551D01*
X147142289Y-121876900D01*
X147319911Y-121876900D01*
X147494115Y-121911551D01*
G37*
G36*
X140800685Y-121997035D02*
G01*
X140948604Y-122058305D01*
X140948605Y-122058306D01*
X141081730Y-122147257D01*
X141194943Y-122260470D01*
X141200063Y-122268133D01*
X141283895Y-122393596D01*
X141345165Y-122541515D01*
X141376400Y-122698545D01*
X141376400Y-122858655D01*
X141345165Y-123015685D01*
X141283895Y-123163604D01*
X141255757Y-123205715D01*
X141194943Y-123296730D01*
X141081730Y-123409943D01*
X141054246Y-123428307D01*
X140948604Y-123498895D01*
X140800685Y-123560165D01*
X140643655Y-123591400D01*
X140483545Y-123591400D01*
X140326515Y-123560165D01*
X140178596Y-123498895D01*
X140072954Y-123428307D01*
X140045470Y-123409943D01*
X139932257Y-123296730D01*
X139871443Y-123205715D01*
X139843305Y-123163604D01*
X139782035Y-123015685D01*
X139750800Y-122858655D01*
X139750800Y-122698545D01*
X139782035Y-122541515D01*
X139843305Y-122393596D01*
X139927137Y-122268133D01*
X139932257Y-122260470D01*
X140045470Y-122147257D01*
X140178595Y-122058306D01*
X140178596Y-122058305D01*
X140326515Y-121997035D01*
X140483545Y-121965800D01*
X140643655Y-121965800D01*
X140800685Y-121997035D01*
G37*
G36*
X147494115Y-119371551D02*
G01*
X147658213Y-119439523D01*
X147658215Y-119439524D01*
X147805900Y-119538204D01*
X147931496Y-119663800D01*
X148030177Y-119811487D01*
X148098149Y-119975585D01*
X148132800Y-120149789D01*
X148132800Y-120327411D01*
X148098149Y-120501615D01*
X148047619Y-120623604D01*
X148030176Y-120665715D01*
X147931496Y-120813400D01*
X147805900Y-120938996D01*
X147658215Y-121037676D01*
X147658214Y-121037677D01*
X147658213Y-121037677D01*
X147494115Y-121105649D01*
X147319911Y-121140300D01*
X147142289Y-121140300D01*
X146968085Y-121105649D01*
X146803987Y-121037677D01*
X146803986Y-121037677D01*
X146803985Y-121037676D01*
X146656300Y-120938996D01*
X146530704Y-120813400D01*
X146432024Y-120665715D01*
X146414581Y-120623604D01*
X146364051Y-120501615D01*
X146329400Y-120327411D01*
X146329400Y-120149789D01*
X146364051Y-119975585D01*
X146432023Y-119811487D01*
X146530704Y-119663800D01*
X146656300Y-119538204D01*
X146803985Y-119439524D01*
X146803987Y-119439523D01*
X146968085Y-119371551D01*
X147142289Y-119336900D01*
X147319911Y-119336900D01*
X147494115Y-119371551D01*
G37*
G36*
X140800685Y-119457035D02*
G01*
X140948604Y-119518305D01*
X140948605Y-119518306D01*
X141081730Y-119607257D01*
X141194943Y-119720470D01*
X141194944Y-119720472D01*
X141283895Y-119853596D01*
X141345165Y-120001515D01*
X141376400Y-120158545D01*
X141376400Y-120318655D01*
X141345165Y-120475685D01*
X141283895Y-120623604D01*
X141255757Y-120665715D01*
X141194943Y-120756730D01*
X141081730Y-120869943D01*
X141014715Y-120914721D01*
X140948604Y-120958895D01*
X140800685Y-121020165D01*
X140643655Y-121051400D01*
X140483545Y-121051400D01*
X140326515Y-121020165D01*
X140178596Y-120958895D01*
X140112485Y-120914721D01*
X140045470Y-120869943D01*
X139932257Y-120756730D01*
X139871443Y-120665715D01*
X139843305Y-120623604D01*
X139782035Y-120475685D01*
X139750800Y-120318655D01*
X139750800Y-120158545D01*
X139782035Y-120001515D01*
X139843305Y-119853596D01*
X139932256Y-119720472D01*
X139932257Y-119720470D01*
X140045470Y-119607257D01*
X140178595Y-119518306D01*
X140178596Y-119518305D01*
X140326515Y-119457035D01*
X140483545Y-119425800D01*
X140643655Y-119425800D01*
X140800685Y-119457035D01*
G37*
G36*
X139135437Y-113646361D02*
G01*
X139288650Y-113692838D01*
X139288653Y-113692839D01*
X139429852Y-113768311D01*
X139553617Y-113869883D01*
X139655189Y-113993648D01*
X139730661Y-114134847D01*
X139730662Y-114134850D01*
X139777139Y-114288063D01*
X139788900Y-114407477D01*
X139788900Y-115909723D01*
X139777139Y-116029137D01*
X139730662Y-116182349D01*
X139730661Y-116182353D01*
X139655189Y-116323552D01*
X139599401Y-116391529D01*
X139553617Y-116447317D01*
X139448670Y-116533444D01*
X139429850Y-116548889D01*
X139288652Y-116624361D01*
X139288649Y-116624362D01*
X139135436Y-116670839D01*
X138976100Y-116686532D01*
X138816763Y-116670839D01*
X138663550Y-116624362D01*
X138663547Y-116624361D01*
X138522348Y-116548889D01*
X138454371Y-116493101D01*
X138398583Y-116447317D01*
X138297012Y-116323551D01*
X138221540Y-116182353D01*
X138221539Y-116182352D01*
X138184515Y-116060300D01*
X138175061Y-116029136D01*
X138163300Y-115909722D01*
X138163301Y-114407477D01*
X138175062Y-114288063D01*
X138221539Y-114134850D01*
X138221540Y-114134847D01*
X138297012Y-113993648D01*
X138398584Y-113869883D01*
X138522349Y-113768311D01*
X138663548Y-113692839D01*
X138663551Y-113692838D01*
X138816764Y-113646361D01*
X138976100Y-113630668D01*
X139135437Y-113646361D01*
G37*
G36*
X144215437Y-113646361D02*
G01*
X144368650Y-113692838D01*
X144368653Y-113692839D01*
X144509852Y-113768311D01*
X144633617Y-113869883D01*
X144735189Y-113993648D01*
X144810661Y-114134847D01*
X144810662Y-114134850D01*
X144857139Y-114288063D01*
X144868900Y-114407477D01*
X144868900Y-115909723D01*
X144857139Y-116029137D01*
X144810662Y-116182349D01*
X144810661Y-116182353D01*
X144735189Y-116323552D01*
X144679401Y-116391529D01*
X144633617Y-116447317D01*
X144528670Y-116533444D01*
X144509850Y-116548889D01*
X144368652Y-116624361D01*
X144368649Y-116624362D01*
X144215436Y-116670839D01*
X144056100Y-116686532D01*
X143896763Y-116670839D01*
X143743550Y-116624362D01*
X143743547Y-116624361D01*
X143602348Y-116548889D01*
X143534371Y-116493101D01*
X143478583Y-116447317D01*
X143377012Y-116323551D01*
X143301540Y-116182353D01*
X143301539Y-116182352D01*
X143264515Y-116060300D01*
X143255061Y-116029136D01*
X143243300Y-115909722D01*
X143243301Y-114407477D01*
X143255062Y-114288063D01*
X143301539Y-114134850D01*
X143301540Y-114134847D01*
X143377012Y-113993648D01*
X143478584Y-113869883D01*
X143602349Y-113768311D01*
X143743548Y-113692839D01*
X143743551Y-113692838D01*
X143896764Y-113646361D01*
X144056100Y-113630668D01*
X144215437Y-113646361D01*
G37*
G36*
X146755437Y-113646361D02*
G01*
X146908650Y-113692838D01*
X146908653Y-113692839D01*
X147049852Y-113768311D01*
X147173617Y-113869883D01*
X147275189Y-113993648D01*
X147350661Y-114134847D01*
X147350662Y-114134850D01*
X147397139Y-114288063D01*
X147408900Y-114407477D01*
X147408900Y-115909723D01*
X147397139Y-116029137D01*
X147350662Y-116182349D01*
X147350661Y-116182353D01*
X147275189Y-116323552D01*
X147219401Y-116391529D01*
X147173617Y-116447317D01*
X147068670Y-116533444D01*
X147049850Y-116548889D01*
X146908652Y-116624361D01*
X146908649Y-116624362D01*
X146755436Y-116670839D01*
X146596100Y-116686532D01*
X146436763Y-116670839D01*
X146283550Y-116624362D01*
X146283547Y-116624361D01*
X146142348Y-116548889D01*
X146074371Y-116493101D01*
X146018583Y-116447317D01*
X145917012Y-116323551D01*
X145841540Y-116182353D01*
X145841539Y-116182352D01*
X145804515Y-116060300D01*
X145795061Y-116029136D01*
X145783300Y-115909722D01*
X145783301Y-114407477D01*
X145795062Y-114288063D01*
X145841539Y-114134850D01*
X145841540Y-114134847D01*
X145917012Y-113993648D01*
X146018584Y-113869883D01*
X146142349Y-113768311D01*
X146283548Y-113692839D01*
X146283551Y-113692838D01*
X146436764Y-113646361D01*
X146596100Y-113630668D01*
X146755437Y-113646361D01*
G37*
G36*
X141675437Y-113646361D02*
G01*
X141828650Y-113692838D01*
X141828653Y-113692839D01*
X141969852Y-113768311D01*
X142093617Y-113869883D01*
X142195189Y-113993648D01*
X142270661Y-114134847D01*
X142270662Y-114134850D01*
X142317139Y-114288063D01*
X142328900Y-114407477D01*
X142328900Y-115909723D01*
X142317139Y-116029137D01*
X142270662Y-116182349D01*
X142270661Y-116182353D01*
X142195189Y-116323552D01*
X142139401Y-116391529D01*
X142093617Y-116447317D01*
X141988670Y-116533444D01*
X141969850Y-116548889D01*
X141828652Y-116624361D01*
X141828649Y-116624362D01*
X141675436Y-116670839D01*
X141516100Y-116686532D01*
X141356763Y-116670839D01*
X141203550Y-116624362D01*
X141203547Y-116624361D01*
X141062348Y-116548889D01*
X140994371Y-116493101D01*
X140938583Y-116447317D01*
X140837012Y-116323551D01*
X140761540Y-116182353D01*
X140761539Y-116182352D01*
X140724515Y-116060300D01*
X140715061Y-116029136D01*
X140703300Y-115909722D01*
X140703301Y-114407477D01*
X140715062Y-114288063D01*
X140761539Y-114134850D01*
X140761540Y-114134847D01*
X140837012Y-113993648D01*
X140938584Y-113869883D01*
X141062349Y-113768311D01*
X141203548Y-113692839D01*
X141203551Y-113692838D01*
X141356764Y-113646361D01*
X141516100Y-113630668D01*
X141675437Y-113646361D01*
G37*
G36*
X155749115Y-114291551D02*
G01*
X155913213Y-114359523D01*
X155913215Y-114359524D01*
X156060900Y-114458204D01*
X156186496Y-114583800D01*
X156285177Y-114731487D01*
X156353149Y-114895585D01*
X156387800Y-115069789D01*
X156387800Y-115247411D01*
X156353149Y-115421615D01*
X156285177Y-115585713D01*
X156285176Y-115585715D01*
X156186496Y-115733400D01*
X156060900Y-115858996D01*
X155913215Y-115957676D01*
X155913214Y-115957677D01*
X155913213Y-115957677D01*
X155749115Y-116025649D01*
X155574911Y-116060300D01*
X155397289Y-116060300D01*
X155223085Y-116025649D01*
X155058987Y-115957677D01*
X155058986Y-115957677D01*
X155058985Y-115957676D01*
X154911300Y-115858996D01*
X154785704Y-115733400D01*
X154687024Y-115585715D01*
X154687023Y-115585713D01*
X154619051Y-115421615D01*
X154584400Y-115247411D01*
X154584400Y-115069789D01*
X154619051Y-114895585D01*
X154687023Y-114731487D01*
X154785704Y-114583800D01*
X154911300Y-114458204D01*
X155058985Y-114359524D01*
X155058987Y-114359523D01*
X155223085Y-114291551D01*
X155397289Y-114256900D01*
X155574911Y-114256900D01*
X155749115Y-114291551D01*
G37*
G36*
X155749115Y-111751551D02*
G01*
X155913213Y-111819523D01*
X155913215Y-111819524D01*
X156060900Y-111918204D01*
X156186496Y-112043800D01*
X156285177Y-112191487D01*
X156353149Y-112355585D01*
X156387800Y-112529789D01*
X156387800Y-112707411D01*
X156353149Y-112881615D01*
X156302619Y-113003604D01*
X156285176Y-113045715D01*
X156186496Y-113193400D01*
X156060900Y-113318996D01*
X155913215Y-113417676D01*
X155913214Y-113417677D01*
X155913213Y-113417677D01*
X155749115Y-113485649D01*
X155574911Y-113520300D01*
X155397289Y-113520300D01*
X155223085Y-113485649D01*
X155058987Y-113417677D01*
X155058986Y-113417677D01*
X155058985Y-113417676D01*
X154911300Y-113318996D01*
X154785704Y-113193400D01*
X154687024Y-113045715D01*
X154669581Y-113003604D01*
X154619051Y-112881615D01*
X154584400Y-112707411D01*
X154584400Y-112529789D01*
X154619051Y-112355585D01*
X154687023Y-112191487D01*
X154785704Y-112043800D01*
X154911300Y-111918204D01*
X155058985Y-111819524D01*
X155058987Y-111819523D01*
X155223085Y-111751551D01*
X155397289Y-111716900D01*
X155574911Y-111716900D01*
X155749115Y-111751551D01*
G37*
G36*
X150008185Y-111837035D02*
G01*
X150156104Y-111898305D01*
X150156105Y-111898306D01*
X150289230Y-111987257D01*
X150402443Y-112100470D01*
X150402444Y-112100472D01*
X150491395Y-112233596D01*
X150552665Y-112381515D01*
X150583900Y-112538545D01*
X150583900Y-112698655D01*
X150552665Y-112855685D01*
X150491395Y-113003604D01*
X150463257Y-113045715D01*
X150402443Y-113136730D01*
X150289230Y-113249943D01*
X150222215Y-113294721D01*
X150156104Y-113338895D01*
X150008185Y-113400165D01*
X149851155Y-113431400D01*
X149691045Y-113431400D01*
X149534015Y-113400165D01*
X149386096Y-113338895D01*
X149319985Y-113294721D01*
X149252970Y-113249943D01*
X149139757Y-113136730D01*
X149078943Y-113045715D01*
X149050805Y-113003604D01*
X148989535Y-112855685D01*
X148958300Y-112698655D01*
X148958300Y-112538545D01*
X148989535Y-112381515D01*
X149050805Y-112233596D01*
X149139756Y-112100472D01*
X149139757Y-112100470D01*
X149252970Y-111987257D01*
X149386095Y-111898306D01*
X149386096Y-111898305D01*
X149534015Y-111837035D01*
X149691045Y-111805800D01*
X149851155Y-111805800D01*
X150008185Y-111837035D01*
G37*
G36*
X150008185Y-109297035D02*
G01*
X150156104Y-109358305D01*
X150156105Y-109358306D01*
X150289230Y-109447257D01*
X150402443Y-109560470D01*
X150402444Y-109560472D01*
X150491395Y-109693596D01*
X150552665Y-109841515D01*
X150583900Y-109998545D01*
X150583900Y-110158655D01*
X150552665Y-110315685D01*
X150491395Y-110463604D01*
X150491394Y-110463605D01*
X150402443Y-110596730D01*
X150289230Y-110709943D01*
X150222215Y-110754721D01*
X150156104Y-110798895D01*
X150008185Y-110860165D01*
X149851155Y-110891400D01*
X149691045Y-110891400D01*
X149534015Y-110860165D01*
X149386096Y-110798895D01*
X149319985Y-110754721D01*
X149252970Y-110709943D01*
X149139757Y-110596730D01*
X149050806Y-110463605D01*
X149050805Y-110463604D01*
X148989535Y-110315685D01*
X148958300Y-110158655D01*
X148958300Y-109998545D01*
X148989535Y-109841515D01*
X149050805Y-109693596D01*
X149139756Y-109560472D01*
X149139757Y-109560470D01*
X149252970Y-109447257D01*
X149386095Y-109358306D01*
X149386096Y-109358305D01*
X149534015Y-109297035D01*
X149691045Y-109265800D01*
X149851155Y-109265800D01*
X150008185Y-109297035D01*
G37*
G36*
X139135437Y-106026361D02*
G01*
X139288650Y-106072838D01*
X139288653Y-106072839D01*
X139429852Y-106148311D01*
X139553617Y-106249883D01*
X139655189Y-106373648D01*
X139730661Y-106514847D01*
X139730662Y-106514850D01*
X139777139Y-106668063D01*
X139788900Y-106787477D01*
X139788900Y-108289723D01*
X139777139Y-108409137D01*
X139730662Y-108562349D01*
X139730661Y-108562353D01*
X139655189Y-108703552D01*
X139599401Y-108771529D01*
X139553617Y-108827317D01*
X139448670Y-108913444D01*
X139429850Y-108928889D01*
X139288652Y-109004361D01*
X139288649Y-109004362D01*
X139135436Y-109050839D01*
X138976100Y-109066532D01*
X138816763Y-109050839D01*
X138663550Y-109004362D01*
X138663547Y-109004361D01*
X138522348Y-108928889D01*
X138454371Y-108873101D01*
X138398583Y-108827317D01*
X138297012Y-108703551D01*
X138221540Y-108562353D01*
X138221539Y-108562352D01*
X138221538Y-108562349D01*
X138175061Y-108409136D01*
X138163300Y-108289722D01*
X138163301Y-106787477D01*
X138175062Y-106668063D01*
X138221539Y-106514850D01*
X138221540Y-106514847D01*
X138297012Y-106373648D01*
X138398584Y-106249883D01*
X138522349Y-106148311D01*
X138663548Y-106072839D01*
X138663551Y-106072838D01*
X138816764Y-106026361D01*
X138976100Y-106010668D01*
X139135437Y-106026361D01*
G37*
G36*
X141675437Y-106026361D02*
G01*
X141828650Y-106072838D01*
X141828653Y-106072839D01*
X141969852Y-106148311D01*
X142093617Y-106249883D01*
X142195189Y-106373648D01*
X142270661Y-106514847D01*
X142270662Y-106514850D01*
X142317139Y-106668063D01*
X142328900Y-106787477D01*
X142328900Y-108289723D01*
X142317139Y-108409137D01*
X142270662Y-108562349D01*
X142270661Y-108562353D01*
X142195189Y-108703552D01*
X142139401Y-108771529D01*
X142093617Y-108827317D01*
X141988670Y-108913444D01*
X141969850Y-108928889D01*
X141828652Y-109004361D01*
X141828649Y-109004362D01*
X141675436Y-109050839D01*
X141516100Y-109066532D01*
X141356763Y-109050839D01*
X141203550Y-109004362D01*
X141203547Y-109004361D01*
X141062348Y-108928889D01*
X140994371Y-108873101D01*
X140938583Y-108827317D01*
X140837012Y-108703551D01*
X140761540Y-108562353D01*
X140761539Y-108562352D01*
X140761538Y-108562349D01*
X140715061Y-108409136D01*
X140703300Y-108289722D01*
X140703301Y-106787477D01*
X140715062Y-106668063D01*
X140761539Y-106514850D01*
X140761540Y-106514847D01*
X140837012Y-106373648D01*
X140938584Y-106249883D01*
X141062349Y-106148311D01*
X141203548Y-106072839D01*
X141203551Y-106072838D01*
X141356764Y-106026361D01*
X141516100Y-106010668D01*
X141675437Y-106026361D01*
G37*
G36*
X146755437Y-106026361D02*
G01*
X146908650Y-106072838D01*
X146908653Y-106072839D01*
X147049852Y-106148311D01*
X147173617Y-106249883D01*
X147275189Y-106373648D01*
X147350661Y-106514847D01*
X147350662Y-106514850D01*
X147397139Y-106668063D01*
X147408900Y-106787477D01*
X147408900Y-108289723D01*
X147397139Y-108409137D01*
X147350662Y-108562349D01*
X147350661Y-108562353D01*
X147275189Y-108703552D01*
X147219401Y-108771529D01*
X147173617Y-108827317D01*
X147068670Y-108913444D01*
X147049850Y-108928889D01*
X146908652Y-109004361D01*
X146908649Y-109004362D01*
X146755436Y-109050839D01*
X146596100Y-109066532D01*
X146436763Y-109050839D01*
X146283550Y-109004362D01*
X146283547Y-109004361D01*
X146142348Y-108928889D01*
X146074371Y-108873101D01*
X146018583Y-108827317D01*
X145917012Y-108703551D01*
X145841540Y-108562353D01*
X145841539Y-108562352D01*
X145841538Y-108562349D01*
X145795061Y-108409136D01*
X145783300Y-108289722D01*
X145783301Y-106787477D01*
X145795062Y-106668063D01*
X145841539Y-106514850D01*
X145841540Y-106514847D01*
X145917012Y-106373648D01*
X146018584Y-106249883D01*
X146142349Y-106148311D01*
X146283548Y-106072839D01*
X146283551Y-106072838D01*
X146436764Y-106026361D01*
X146596100Y-106010668D01*
X146755437Y-106026361D01*
G37*
G36*
X144215437Y-106026361D02*
G01*
X144368650Y-106072838D01*
X144368653Y-106072839D01*
X144509852Y-106148311D01*
X144633617Y-106249883D01*
X144735189Y-106373648D01*
X144810661Y-106514847D01*
X144810662Y-106514850D01*
X144857139Y-106668063D01*
X144868900Y-106787477D01*
X144868900Y-108289723D01*
X144857139Y-108409137D01*
X144810662Y-108562349D01*
X144810661Y-108562353D01*
X144735189Y-108703552D01*
X144679401Y-108771529D01*
X144633617Y-108827317D01*
X144528670Y-108913444D01*
X144509850Y-108928889D01*
X144368652Y-109004361D01*
X144368649Y-109004362D01*
X144215436Y-109050839D01*
X144056100Y-109066532D01*
X143896763Y-109050839D01*
X143743550Y-109004362D01*
X143743547Y-109004361D01*
X143602348Y-108928889D01*
X143534371Y-108873101D01*
X143478583Y-108827317D01*
X143377012Y-108703551D01*
X143301540Y-108562353D01*
X143301539Y-108562352D01*
X143301538Y-108562349D01*
X143255061Y-108409136D01*
X143243300Y-108289722D01*
X143243301Y-106787477D01*
X143255062Y-106668063D01*
X143301539Y-106514850D01*
X143301540Y-106514847D01*
X143377012Y-106373648D01*
X143478584Y-106249883D01*
X143602349Y-106148311D01*
X143743548Y-106072839D01*
X143743551Y-106072838D01*
X143896764Y-106026361D01*
X144056100Y-106010668D01*
X144215437Y-106026361D01*
G37*
G36*
X158882500Y-106490000D02*
G01*
X157169700Y-106490000D01*
X157169700Y-104777200D01*
X158882500Y-104777200D01*
X158882500Y-106490000D01*
G37*
G36*
X150655903Y-104810110D02*
G01*
X150811756Y-104874667D01*
X150811758Y-104874668D01*
X150952023Y-104968390D01*
X151071310Y-105087677D01*
X151165033Y-105227944D01*
X151229590Y-105383797D01*
X151262500Y-105549251D01*
X151262500Y-105717949D01*
X151229590Y-105883403D01*
X151170374Y-106026361D01*
X151165032Y-106039258D01*
X151071310Y-106179523D01*
X150952023Y-106298810D01*
X150811758Y-106392532D01*
X150811757Y-106392533D01*
X150811756Y-106392533D01*
X150655903Y-106457090D01*
X150490449Y-106490000D01*
X150321751Y-106490000D01*
X150156297Y-106457090D01*
X150000444Y-106392533D01*
X150000443Y-106392533D01*
X150000442Y-106392532D01*
X149860177Y-106298810D01*
X149740890Y-106179523D01*
X149647168Y-106039258D01*
X149641826Y-106026361D01*
X149582610Y-105883403D01*
X149549700Y-105717949D01*
X149549700Y-105549251D01*
X149582610Y-105383797D01*
X149647167Y-105227944D01*
X149740890Y-105087677D01*
X149860177Y-104968390D01*
X150000442Y-104874668D01*
X150000444Y-104874667D01*
X150156297Y-104810110D01*
X150321751Y-104777200D01*
X150490449Y-104777200D01*
X150655903Y-104810110D01*
G37*
G36*
X147494115Y-102861551D02*
G01*
X147658213Y-102929523D01*
X147658215Y-102929524D01*
X147805900Y-103028204D01*
X147931496Y-103153800D01*
X148030177Y-103301487D01*
X148098149Y-103465585D01*
X148132800Y-103639789D01*
X148132800Y-103817411D01*
X148098149Y-103991615D01*
X148030177Y-104155713D01*
X148030176Y-104155715D01*
X147931496Y-104303400D01*
X147805900Y-104428996D01*
X147658215Y-104527676D01*
X147658214Y-104527677D01*
X147658213Y-104527677D01*
X147494115Y-104595649D01*
X147319911Y-104630300D01*
X147142289Y-104630300D01*
X146968085Y-104595649D01*
X146803987Y-104527677D01*
X146803986Y-104527677D01*
X146803985Y-104527676D01*
X146656300Y-104428996D01*
X146530704Y-104303400D01*
X146432024Y-104155715D01*
X146432023Y-104155713D01*
X146364051Y-103991615D01*
X146329400Y-103817411D01*
X146329400Y-103639789D01*
X146364051Y-103465585D01*
X146432023Y-103301487D01*
X146530704Y-103153800D01*
X146656300Y-103028204D01*
X146803985Y-102929524D01*
X146803987Y-102929523D01*
X146968085Y-102861551D01*
X147142289Y-102826900D01*
X147319911Y-102826900D01*
X147494115Y-102861551D01*
G37*
G36*
X140509115Y-102861551D02*
G01*
X140673213Y-102929523D01*
X140673215Y-102929524D01*
X140820900Y-103028204D01*
X140946496Y-103153800D01*
X141045177Y-103301487D01*
X141113149Y-103465585D01*
X141147800Y-103639789D01*
X141147800Y-103817411D01*
X141113149Y-103991615D01*
X141045177Y-104155713D01*
X141045176Y-104155715D01*
X140946496Y-104303400D01*
X140820900Y-104428996D01*
X140673215Y-104527676D01*
X140673214Y-104527677D01*
X140673213Y-104527677D01*
X140509115Y-104595649D01*
X140334911Y-104630300D01*
X140157289Y-104630300D01*
X139983085Y-104595649D01*
X139818987Y-104527677D01*
X139818986Y-104527677D01*
X139818985Y-104527676D01*
X139671300Y-104428996D01*
X139545704Y-104303400D01*
X139447024Y-104155715D01*
X139447023Y-104155713D01*
X139379051Y-103991615D01*
X139344400Y-103817411D01*
X139344400Y-103639789D01*
X139379051Y-103465585D01*
X139447023Y-103301487D01*
X139545704Y-103153800D01*
X139671300Y-103028204D01*
X139818985Y-102929524D01*
X139818987Y-102929523D01*
X139983085Y-102861551D01*
X140157289Y-102826900D01*
X140334911Y-102826900D01*
X140509115Y-102861551D01*
G37*
G36*
X140509115Y-100321551D02*
G01*
X140673213Y-100389523D01*
X140673215Y-100389524D01*
X140820900Y-100488204D01*
X140946496Y-100613800D01*
X141045177Y-100761487D01*
X141113149Y-100925585D01*
X141147800Y-101099789D01*
X141147800Y-101277411D01*
X141113149Y-101451615D01*
X141045177Y-101615713D01*
X141045176Y-101615715D01*
X140946496Y-101763400D01*
X140820900Y-101888996D01*
X140673215Y-101987676D01*
X140673214Y-101987677D01*
X140673213Y-101987677D01*
X140509115Y-102055649D01*
X140334911Y-102090300D01*
X140157289Y-102090300D01*
X139983085Y-102055649D01*
X139818987Y-101987677D01*
X139818986Y-101987677D01*
X139818985Y-101987676D01*
X139671300Y-101888996D01*
X139545704Y-101763400D01*
X139447024Y-101615715D01*
X139447023Y-101615713D01*
X139379051Y-101451615D01*
X139344400Y-101277411D01*
X139344400Y-101099789D01*
X139379051Y-100925585D01*
X139447023Y-100761487D01*
X139545704Y-100613800D01*
X139671300Y-100488204D01*
X139818985Y-100389524D01*
X139818987Y-100389523D01*
X139983085Y-100321551D01*
X140157289Y-100286900D01*
X140334911Y-100286900D01*
X140509115Y-100321551D01*
G37*
G36*
X147494115Y-100321551D02*
G01*
X147658213Y-100389523D01*
X147658215Y-100389524D01*
X147805900Y-100488204D01*
X147931496Y-100613800D01*
X148030177Y-100761487D01*
X148098149Y-100925585D01*
X148132800Y-101099789D01*
X148132800Y-101277411D01*
X148098149Y-101451615D01*
X148030177Y-101615713D01*
X148030176Y-101615715D01*
X147931496Y-101763400D01*
X147805900Y-101888996D01*
X147658215Y-101987676D01*
X147658214Y-101987677D01*
X147658213Y-101987677D01*
X147494115Y-102055649D01*
X147319911Y-102090300D01*
X147142289Y-102090300D01*
X146968085Y-102055649D01*
X146803987Y-101987677D01*
X146803986Y-101987677D01*
X146803985Y-101987676D01*
X146656300Y-101888996D01*
X146530704Y-101763400D01*
X146432024Y-101615715D01*
X146432023Y-101615713D01*
X146364051Y-101451615D01*
X146329400Y-101277411D01*
X146329400Y-101099789D01*
X146364051Y-100925585D01*
X146432023Y-100761487D01*
X146530704Y-100613800D01*
X146656300Y-100488204D01*
X146803985Y-100389524D01*
X146803987Y-100389523D01*
X146968085Y-100321551D01*
X147142289Y-100286900D01*
X147319911Y-100286900D01*
X147494115Y-100321551D01*
G37*
G36*
X151166403Y-95449112D02*
G01*
X151531580Y-95600373D01*
X151587409Y-95637677D01*
X151860233Y-95819972D01*
X152139728Y-96099467D01*
X152139729Y-96099469D01*
X152359327Y-96428120D01*
X152510588Y-96793297D01*
X152587700Y-97180966D01*
X152587700Y-97576234D01*
X152510588Y-97963903D01*
X152359327Y-98329080D01*
X152359326Y-98329081D01*
X152139728Y-98657733D01*
X151860233Y-98937228D01*
X151694791Y-99047773D01*
X151531580Y-99156827D01*
X151166403Y-99308088D01*
X150778734Y-99385200D01*
X150383466Y-99385200D01*
X149995797Y-99308088D01*
X149630620Y-99156827D01*
X149467409Y-99047773D01*
X149301967Y-98937228D01*
X149022472Y-98657733D01*
X148802874Y-98329081D01*
X148802873Y-98329080D01*
X148651612Y-97963903D01*
X148574500Y-97576234D01*
X148574500Y-97180966D01*
X148651612Y-96793297D01*
X148802873Y-96428120D01*
X149022471Y-96099469D01*
X149022472Y-96099467D01*
X149301967Y-95819972D01*
X149574791Y-95637677D01*
X149630620Y-95600373D01*
X149995797Y-95449112D01*
X150383466Y-95372000D01*
X150778734Y-95372000D01*
X151166403Y-95449112D01*
G37*
G36*
X157166403Y-95449112D02*
G01*
X157531580Y-95600373D01*
X157587409Y-95637677D01*
X157860233Y-95819972D01*
X158139728Y-96099467D01*
X158139729Y-96099469D01*
X158359327Y-96428120D01*
X158510588Y-96793297D01*
X158587700Y-97180966D01*
X158587700Y-97576234D01*
X158510588Y-97963903D01*
X158359327Y-98329080D01*
X158359326Y-98329081D01*
X158139728Y-98657733D01*
X157860233Y-98937228D01*
X157694791Y-99047773D01*
X157531580Y-99156827D01*
X157166403Y-99308088D01*
X156778734Y-99385200D01*
X156383466Y-99385200D01*
X155995797Y-99308088D01*
X155630620Y-99156827D01*
X155467409Y-99047773D01*
X155301967Y-98937228D01*
X155022472Y-98657733D01*
X154802874Y-98329081D01*
X154802873Y-98329080D01*
X154651612Y-97963903D01*
X154574500Y-97576234D01*
X154574500Y-97180966D01*
X154651612Y-96793297D01*
X154802873Y-96428120D01*
X155022471Y-96099469D01*
X155022472Y-96099467D01*
X155301967Y-95819972D01*
X155574791Y-95637677D01*
X155630620Y-95600373D01*
X155995797Y-95449112D01*
X156383466Y-95372000D01*
X156778734Y-95372000D01*
X157166403Y-95449112D01*
G37*
G36*
X141779115Y-93971551D02*
G01*
X141943213Y-94039523D01*
X141943215Y-94039524D01*
X142090900Y-94138204D01*
X142216496Y-94263800D01*
X142278655Y-94356827D01*
X142315177Y-94411487D01*
X142383149Y-94575585D01*
X142417800Y-94749789D01*
X142417800Y-94927411D01*
X142383149Y-95101615D01*
X142315177Y-95265713D01*
X142315176Y-95265715D01*
X142216496Y-95413400D01*
X142090900Y-95538996D01*
X141943215Y-95637676D01*
X141943214Y-95637677D01*
X141943213Y-95637677D01*
X141779115Y-95705649D01*
X141604911Y-95740300D01*
X141427289Y-95740300D01*
X141253085Y-95705649D01*
X141088987Y-95637677D01*
X141088986Y-95637677D01*
X141088985Y-95637676D01*
X140941300Y-95538996D01*
X140815704Y-95413400D01*
X140717024Y-95265715D01*
X140717023Y-95265713D01*
X140649051Y-95101615D01*
X140614400Y-94927411D01*
X140614400Y-94749789D01*
X140649051Y-94575585D01*
X140717023Y-94411487D01*
X140753546Y-94356827D01*
X140815704Y-94263800D01*
X140941300Y-94138204D01*
X141088985Y-94039524D01*
X141088987Y-94039523D01*
X141253085Y-93971551D01*
X141427289Y-93936900D01*
X141604911Y-93936900D01*
X141779115Y-93971551D01*
G37*
G36*
X144319115Y-93971551D02*
G01*
X144483213Y-94039523D01*
X144483215Y-94039524D01*
X144630900Y-94138204D01*
X144756496Y-94263800D01*
X144818655Y-94356827D01*
X144855177Y-94411487D01*
X144923149Y-94575585D01*
X144957800Y-94749789D01*
X144957800Y-94927411D01*
X144923149Y-95101615D01*
X144855177Y-95265713D01*
X144855176Y-95265715D01*
X144756496Y-95413400D01*
X144630900Y-95538996D01*
X144483215Y-95637676D01*
X144483214Y-95637677D01*
X144483213Y-95637677D01*
X144319115Y-95705649D01*
X144144911Y-95740300D01*
X143967289Y-95740300D01*
X143793085Y-95705649D01*
X143628987Y-95637677D01*
X143628986Y-95637677D01*
X143628985Y-95637676D01*
X143481300Y-95538996D01*
X143355704Y-95413400D01*
X143257024Y-95265715D01*
X143257023Y-95265713D01*
X143189051Y-95101615D01*
X143154400Y-94927411D01*
X143154400Y-94749789D01*
X143189051Y-94575585D01*
X143257023Y-94411487D01*
X143293546Y-94356827D01*
X143355704Y-94263800D01*
X143481300Y-94138204D01*
X143628985Y-94039524D01*
X143628987Y-94039523D01*
X143793085Y-93971551D01*
X143967289Y-93936900D01*
X144144911Y-93936900D01*
X144319115Y-93971551D01*
G37*
G36*
X154166403Y-90649112D02*
G01*
X154531580Y-90800373D01*
X154531581Y-90800374D01*
X154860233Y-91019972D01*
X155139728Y-91299467D01*
X155139729Y-91299469D01*
X155359327Y-91628120D01*
X155510588Y-91993297D01*
X155587700Y-92380966D01*
X155587700Y-92776234D01*
X155510588Y-93163903D01*
X155359327Y-93529080D01*
X155359326Y-93529081D01*
X155139728Y-93857733D01*
X154860233Y-94137228D01*
X154858772Y-94138204D01*
X154531580Y-94356827D01*
X154166403Y-94508088D01*
X153778734Y-94585200D01*
X153383466Y-94585200D01*
X152995797Y-94508088D01*
X152630620Y-94356827D01*
X152303428Y-94138204D01*
X152301967Y-94137228D01*
X152022472Y-93857733D01*
X151802874Y-93529081D01*
X151802873Y-93529080D01*
X151651612Y-93163903D01*
X151574500Y-92776234D01*
X151574500Y-92380966D01*
X151651612Y-91993297D01*
X151802873Y-91628120D01*
X152022471Y-91299469D01*
X152022472Y-91299467D01*
X152301967Y-91019972D01*
X152630619Y-90800374D01*
X152630620Y-90800373D01*
X152995797Y-90649112D01*
X153383466Y-90572000D01*
X153778734Y-90572000D01*
X154166403Y-90649112D01*
G37*
G36*
X147494115Y-88891551D02*
G01*
X147658213Y-88959523D01*
X147658215Y-88959524D01*
X147805900Y-89058204D01*
X147931496Y-89183800D01*
X148030177Y-89331487D01*
X148098149Y-89495585D01*
X148132800Y-89669789D01*
X148132800Y-89847411D01*
X148098149Y-90021615D01*
X148047619Y-90143604D01*
X148030176Y-90185715D01*
X147931496Y-90333400D01*
X147805900Y-90458996D01*
X147658215Y-90557676D01*
X147658214Y-90557677D01*
X147658213Y-90557677D01*
X147494115Y-90625649D01*
X147319911Y-90660300D01*
X147142289Y-90660300D01*
X146968085Y-90625649D01*
X146803987Y-90557677D01*
X146803986Y-90557677D01*
X146803985Y-90557676D01*
X146656300Y-90458996D01*
X146530704Y-90333400D01*
X146432024Y-90185715D01*
X146414581Y-90143604D01*
X146364051Y-90021615D01*
X146329400Y-89847411D01*
X146329400Y-89669789D01*
X146364051Y-89495585D01*
X146432023Y-89331487D01*
X146530704Y-89183800D01*
X146656300Y-89058204D01*
X146803985Y-88959524D01*
X146803987Y-88959523D01*
X146968085Y-88891551D01*
X147142289Y-88856900D01*
X147319911Y-88856900D01*
X147494115Y-88891551D01*
G37*
G36*
X140800685Y-88977035D02*
G01*
X140948604Y-89038305D01*
X140948605Y-89038306D01*
X141081730Y-89127257D01*
X141194943Y-89240470D01*
X141194944Y-89240472D01*
X141283895Y-89373596D01*
X141345165Y-89521515D01*
X141376400Y-89678545D01*
X141376400Y-89838655D01*
X141345165Y-89995685D01*
X141283895Y-90143604D01*
X141255757Y-90185715D01*
X141194943Y-90276730D01*
X141081730Y-90389943D01*
X141014715Y-90434721D01*
X140948604Y-90478895D01*
X140800685Y-90540165D01*
X140643655Y-90571400D01*
X140483545Y-90571400D01*
X140326515Y-90540165D01*
X140178596Y-90478895D01*
X140112485Y-90434721D01*
X140045470Y-90389943D01*
X139932257Y-90276730D01*
X139871443Y-90185715D01*
X139843305Y-90143604D01*
X139782035Y-89995685D01*
X139750800Y-89838655D01*
X139750800Y-89678545D01*
X139782035Y-89521515D01*
X139843305Y-89373596D01*
X139932256Y-89240472D01*
X139932257Y-89240470D01*
X140045470Y-89127257D01*
X140178595Y-89038306D01*
X140178596Y-89038305D01*
X140326515Y-88977035D01*
X140483545Y-88945800D01*
X140643655Y-88945800D01*
X140800685Y-88977035D01*
G37*
G36*
X157113152Y-86317430D02*
G01*
X157199336Y-86343574D01*
X157285519Y-86369717D01*
X157285521Y-86369718D01*
X157444367Y-86454623D01*
X157444370Y-86454625D01*
X157444371Y-86454626D01*
X157583607Y-86568893D01*
X157691588Y-86700470D01*
X157697877Y-86708133D01*
X157782782Y-86866979D01*
X157835070Y-87039348D01*
X157852724Y-87218600D01*
X157835070Y-87397852D01*
X157782782Y-87570221D01*
X157697877Y-87729067D01*
X157697875Y-87729070D01*
X157697874Y-87729071D01*
X157583607Y-87868307D01*
X157444371Y-87982574D01*
X157444367Y-87982577D01*
X157285521Y-88067482D01*
X157285519Y-88067483D01*
X157225633Y-88085649D01*
X157113152Y-88119770D01*
X156978821Y-88133000D01*
X155263379Y-88133000D01*
X155129048Y-88119770D01*
X155016567Y-88085649D01*
X154956681Y-88067483D01*
X154956679Y-88067482D01*
X154797833Y-87982577D01*
X154797829Y-87982574D01*
X154658593Y-87868307D01*
X154544326Y-87729071D01*
X154544325Y-87729070D01*
X154544323Y-87729067D01*
X154459418Y-87570221D01*
X154407130Y-87397852D01*
X154389476Y-87218600D01*
X154407130Y-87039348D01*
X154459418Y-86866979D01*
X154544323Y-86708133D01*
X154550612Y-86700470D01*
X154658593Y-86568893D01*
X154797829Y-86454626D01*
X154797830Y-86454625D01*
X154797833Y-86454623D01*
X154956679Y-86369718D01*
X154956681Y-86369717D01*
X155042864Y-86343574D01*
X155129048Y-86317430D01*
X155263379Y-86304200D01*
X156978821Y-86304200D01*
X157113152Y-86317430D01*
G37*
G36*
X147494115Y-86351551D02*
G01*
X147658213Y-86419523D01*
X147658215Y-86419524D01*
X147805900Y-86518204D01*
X147931496Y-86643800D01*
X148030177Y-86791487D01*
X148098149Y-86955585D01*
X148132800Y-87129789D01*
X148132800Y-87307411D01*
X148098149Y-87481615D01*
X148061447Y-87570221D01*
X148030176Y-87645715D01*
X147931496Y-87793400D01*
X147805900Y-87918996D01*
X147658215Y-88017676D01*
X147658214Y-88017677D01*
X147658213Y-88017677D01*
X147494115Y-88085649D01*
X147319911Y-88120300D01*
X147142289Y-88120300D01*
X146968085Y-88085649D01*
X146803987Y-88017677D01*
X146803986Y-88017677D01*
X146803985Y-88017676D01*
X146656300Y-87918996D01*
X146530704Y-87793400D01*
X146432024Y-87645715D01*
X146400753Y-87570221D01*
X146364051Y-87481615D01*
X146329400Y-87307411D01*
X146329400Y-87129789D01*
X146364051Y-86955585D01*
X146432023Y-86791487D01*
X146530704Y-86643800D01*
X146656300Y-86518204D01*
X146803985Y-86419524D01*
X146803987Y-86419523D01*
X146968085Y-86351551D01*
X147142289Y-86316900D01*
X147319911Y-86316900D01*
X147494115Y-86351551D01*
G37*
G36*
X140800685Y-86437035D02*
G01*
X140948604Y-86498305D01*
X140948605Y-86498306D01*
X141081730Y-86587257D01*
X141194943Y-86700470D01*
X141200063Y-86708133D01*
X141283895Y-86833596D01*
X141345165Y-86981515D01*
X141376400Y-87138545D01*
X141376400Y-87298655D01*
X141345165Y-87455685D01*
X141283895Y-87603604D01*
X141255757Y-87645715D01*
X141194943Y-87736730D01*
X141081730Y-87849943D01*
X141054246Y-87868307D01*
X140948604Y-87938895D01*
X140800685Y-88000165D01*
X140643655Y-88031400D01*
X140483545Y-88031400D01*
X140326515Y-88000165D01*
X140178596Y-87938895D01*
X140072954Y-87868307D01*
X140045470Y-87849943D01*
X139932257Y-87736730D01*
X139871443Y-87645715D01*
X139843305Y-87603604D01*
X139782035Y-87455685D01*
X139750800Y-87298655D01*
X139750800Y-87138545D01*
X139782035Y-86981515D01*
X139843305Y-86833596D01*
X139927137Y-86708133D01*
X139932257Y-86700470D01*
X140045470Y-86587257D01*
X140178595Y-86498306D01*
X140178596Y-86498305D01*
X140326515Y-86437035D01*
X140483545Y-86405800D01*
X140643655Y-86405800D01*
X140800685Y-86437035D01*
G37*
G36*
X157113152Y-83777430D02*
G01*
X157199336Y-83803574D01*
X157285519Y-83829717D01*
X157285521Y-83829718D01*
X157444367Y-83914623D01*
X157444370Y-83914625D01*
X157444371Y-83914626D01*
X157583607Y-84028893D01*
X157697874Y-84168129D01*
X157697877Y-84168133D01*
X157782782Y-84326979D01*
X157782783Y-84326981D01*
X157784147Y-84331478D01*
X157835070Y-84499348D01*
X157852724Y-84678600D01*
X157835070Y-84857852D01*
X157782782Y-85030221D01*
X157697877Y-85189067D01*
X157697875Y-85189070D01*
X157697874Y-85189071D01*
X157583607Y-85328307D01*
X157444371Y-85442574D01*
X157444367Y-85442577D01*
X157285521Y-85527482D01*
X157285519Y-85527483D01*
X157199336Y-85553626D01*
X157113152Y-85579770D01*
X156978821Y-85593000D01*
X155263379Y-85593000D01*
X155129048Y-85579770D01*
X155042864Y-85553626D01*
X154956681Y-85527483D01*
X154956679Y-85527482D01*
X154797833Y-85442577D01*
X154797829Y-85442574D01*
X154658593Y-85328307D01*
X154544326Y-85189071D01*
X154544325Y-85189070D01*
X154544323Y-85189067D01*
X154459418Y-85030221D01*
X154407130Y-84857852D01*
X154389476Y-84678600D01*
X154407130Y-84499348D01*
X154458053Y-84331478D01*
X154459417Y-84326981D01*
X154459418Y-84326979D01*
X154544323Y-84168133D01*
X154544326Y-84168129D01*
X154658593Y-84028893D01*
X154797829Y-83914626D01*
X154797830Y-83914625D01*
X154797833Y-83914623D01*
X154956679Y-83829718D01*
X154956681Y-83829717D01*
X155042864Y-83803574D01*
X155129048Y-83777430D01*
X155263379Y-83764200D01*
X156978821Y-83764200D01*
X157113152Y-83777430D01*
G37*
G36*
X152614865Y-82407220D02*
G01*
X152804388Y-82485723D01*
X152974954Y-82599692D01*
X153120008Y-82744746D01*
X153233977Y-82915312D01*
X153312480Y-83104835D01*
X153352500Y-83306031D01*
X153352500Y-83511169D01*
X153312480Y-83712365D01*
X153233977Y-83901888D01*
X153120008Y-84072454D01*
X152974954Y-84217508D01*
X152804388Y-84331477D01*
X152804387Y-84331478D01*
X152804386Y-84331478D01*
X152614865Y-84409980D01*
X152413670Y-84450000D01*
X152208530Y-84450000D01*
X152007335Y-84409980D01*
X151817814Y-84331478D01*
X151817813Y-84331478D01*
X151817812Y-84331477D01*
X151647246Y-84217508D01*
X151502192Y-84072454D01*
X151388223Y-83901888D01*
X151309720Y-83712365D01*
X151269700Y-83511169D01*
X151269700Y-83306031D01*
X151309720Y-83104835D01*
X151388223Y-82915312D01*
X151502192Y-82744746D01*
X151647246Y-82599692D01*
X151817812Y-82485723D01*
X152007335Y-82407220D01*
X152208530Y-82367200D01*
X152413670Y-82367200D01*
X152614865Y-82407220D01*
G37*
G36*
X150074865Y-82407220D02*
G01*
X150264388Y-82485723D01*
X150434954Y-82599692D01*
X150580008Y-82744746D01*
X150693977Y-82915312D01*
X150772480Y-83104835D01*
X150812500Y-83306031D01*
X150812500Y-83511169D01*
X150772480Y-83712365D01*
X150693977Y-83901888D01*
X150580008Y-84072454D01*
X150434954Y-84217508D01*
X150264388Y-84331477D01*
X150264387Y-84331478D01*
X150264386Y-84331478D01*
X150074865Y-84409980D01*
X149873670Y-84450000D01*
X149668530Y-84450000D01*
X149467335Y-84409980D01*
X149277814Y-84331478D01*
X149277813Y-84331478D01*
X149277812Y-84331477D01*
X149107246Y-84217508D01*
X148962192Y-84072454D01*
X148848223Y-83901888D01*
X148769720Y-83712365D01*
X148729700Y-83511169D01*
X148729700Y-83306031D01*
X148769720Y-83104835D01*
X148848223Y-82915312D01*
X148962192Y-82744746D01*
X149107246Y-82599692D01*
X149277812Y-82485723D01*
X149467335Y-82407220D01*
X149668530Y-82367200D01*
X149873670Y-82367200D01*
X150074865Y-82407220D01*
G37*
G36*
X147534865Y-82407220D02*
G01*
X147724388Y-82485723D01*
X147894954Y-82599692D01*
X148040008Y-82744746D01*
X148153977Y-82915312D01*
X148232480Y-83104835D01*
X148272500Y-83306031D01*
X148272500Y-83511169D01*
X148232480Y-83712365D01*
X148153977Y-83901888D01*
X148040008Y-84072454D01*
X147894954Y-84217508D01*
X147724388Y-84331477D01*
X147724387Y-84331478D01*
X147724386Y-84331478D01*
X147534865Y-84409980D01*
X147333670Y-84450000D01*
X147128530Y-84450000D01*
X146927335Y-84409980D01*
X146737814Y-84331478D01*
X146737813Y-84331478D01*
X146737812Y-84331477D01*
X146567246Y-84217508D01*
X146422192Y-84072454D01*
X146308223Y-83901888D01*
X146229720Y-83712365D01*
X146189700Y-83511169D01*
X146189700Y-83306031D01*
X146229720Y-83104835D01*
X146308223Y-82915312D01*
X146422192Y-82744746D01*
X146567246Y-82599692D01*
X146737812Y-82485723D01*
X146927335Y-82407220D01*
X147128530Y-82367200D01*
X147333670Y-82367200D01*
X147534865Y-82407220D01*
G37*
G36*
X144994865Y-82407220D02*
G01*
X145184388Y-82485723D01*
X145354954Y-82599692D01*
X145500008Y-82744746D01*
X145613977Y-82915312D01*
X145692480Y-83104835D01*
X145732500Y-83306031D01*
X145732500Y-83511169D01*
X145692480Y-83712365D01*
X145613977Y-83901888D01*
X145500008Y-84072454D01*
X145354954Y-84217508D01*
X145184388Y-84331477D01*
X145184387Y-84331478D01*
X145184386Y-84331478D01*
X144994865Y-84409980D01*
X144793670Y-84450000D01*
X144588530Y-84450000D01*
X144387335Y-84409980D01*
X144197814Y-84331478D01*
X144197813Y-84331478D01*
X144197812Y-84331477D01*
X144027246Y-84217508D01*
X143882192Y-84072454D01*
X143768223Y-83901888D01*
X143689720Y-83712365D01*
X143649700Y-83511169D01*
X143649700Y-83306031D01*
X143689720Y-83104835D01*
X143768223Y-82915312D01*
X143882192Y-82744746D01*
X144027246Y-82599692D01*
X144197812Y-82485723D01*
X144387335Y-82407220D01*
X144588530Y-82367200D01*
X144793670Y-82367200D01*
X144994865Y-82407220D01*
G37*
G36*
X142454865Y-82407220D02*
G01*
X142644388Y-82485723D01*
X142814954Y-82599692D01*
X142960008Y-82744746D01*
X143073977Y-82915312D01*
X143152480Y-83104835D01*
X143192500Y-83306031D01*
X143192500Y-83511169D01*
X143152480Y-83712365D01*
X143073977Y-83901888D01*
X142960008Y-84072454D01*
X142814954Y-84217508D01*
X142644388Y-84331477D01*
X142644387Y-84331478D01*
X142644386Y-84331478D01*
X142454865Y-84409980D01*
X142253670Y-84450000D01*
X142048530Y-84450000D01*
X141847335Y-84409980D01*
X141657814Y-84331478D01*
X141657813Y-84331478D01*
X141657812Y-84331477D01*
X141487246Y-84217508D01*
X141342192Y-84072454D01*
X141228223Y-83901888D01*
X141149720Y-83712365D01*
X141109700Y-83511169D01*
X141109700Y-83306031D01*
X141149720Y-83104835D01*
X141228223Y-82915312D01*
X141342192Y-82744746D01*
X141487246Y-82599692D01*
X141657812Y-82485723D01*
X141847335Y-82407220D01*
X142048530Y-82367200D01*
X142253670Y-82367200D01*
X142454865Y-82407220D01*
G37*
G36*
X157113152Y-81237430D02*
G01*
X157199337Y-81263574D01*
X157285519Y-81289717D01*
X157285521Y-81289718D01*
X157444367Y-81374623D01*
X157444370Y-81374625D01*
X157444371Y-81374626D01*
X157583607Y-81488893D01*
X157697874Y-81628129D01*
X157697877Y-81628133D01*
X157782782Y-81786979D01*
X157782783Y-81786981D01*
X157784147Y-81791478D01*
X157835070Y-81959348D01*
X157852724Y-82138600D01*
X157835070Y-82317852D01*
X157835069Y-82317854D01*
X157784147Y-82485723D01*
X157782782Y-82490221D01*
X157697877Y-82649067D01*
X157697875Y-82649070D01*
X157697874Y-82649071D01*
X157583607Y-82788307D01*
X157444371Y-82902574D01*
X157444367Y-82902577D01*
X157285521Y-82987482D01*
X157285519Y-82987483D01*
X157199336Y-83013626D01*
X157113152Y-83039770D01*
X156978821Y-83053000D01*
X155263379Y-83053000D01*
X155129048Y-83039770D01*
X155042864Y-83013626D01*
X154956681Y-82987483D01*
X154956679Y-82987482D01*
X154797833Y-82902577D01*
X154797829Y-82902574D01*
X154658593Y-82788307D01*
X154544326Y-82649071D01*
X154544325Y-82649070D01*
X154544323Y-82649067D01*
X154459418Y-82490221D01*
X154458054Y-82485723D01*
X154407131Y-82317854D01*
X154407130Y-82317852D01*
X154389476Y-82138600D01*
X154407130Y-81959348D01*
X154458053Y-81791478D01*
X154459417Y-81786981D01*
X154459418Y-81786979D01*
X154544323Y-81628133D01*
X154544326Y-81628129D01*
X154658593Y-81488893D01*
X154797829Y-81374626D01*
X154797830Y-81374625D01*
X154797833Y-81374623D01*
X154956679Y-81289718D01*
X154956681Y-81289717D01*
X155042864Y-81263574D01*
X155129048Y-81237430D01*
X155263379Y-81224200D01*
X156978821Y-81224200D01*
X157113152Y-81237430D01*
G37*
G36*
X142454865Y-79867220D02*
G01*
X142644388Y-79945723D01*
X142814954Y-80059692D01*
X142960008Y-80204746D01*
X143073977Y-80375312D01*
X143152480Y-80564835D01*
X143192500Y-80766031D01*
X143192500Y-80971169D01*
X143152480Y-81172365D01*
X143073977Y-81361888D01*
X142960008Y-81532454D01*
X142814954Y-81677508D01*
X142644388Y-81791477D01*
X142644387Y-81791478D01*
X142644386Y-81791478D01*
X142454865Y-81869980D01*
X142253670Y-81910000D01*
X142048530Y-81910000D01*
X141847335Y-81869980D01*
X141657814Y-81791478D01*
X141657813Y-81791478D01*
X141657812Y-81791477D01*
X141487246Y-81677508D01*
X141342192Y-81532454D01*
X141228223Y-81361888D01*
X141149720Y-81172365D01*
X141109700Y-80971169D01*
X141109700Y-80766031D01*
X141149720Y-80564835D01*
X141228223Y-80375312D01*
X141342192Y-80204746D01*
X141487246Y-80059692D01*
X141657812Y-79945723D01*
X141847335Y-79867220D01*
X142048530Y-79827200D01*
X142253670Y-79827200D01*
X142454865Y-79867220D01*
G37*
G36*
X144994865Y-79867220D02*
G01*
X145184388Y-79945723D01*
X145354954Y-80059692D01*
X145500008Y-80204746D01*
X145613977Y-80375312D01*
X145692480Y-80564835D01*
X145732500Y-80766031D01*
X145732500Y-80971169D01*
X145692480Y-81172365D01*
X145613977Y-81361888D01*
X145500008Y-81532454D01*
X145354954Y-81677508D01*
X145184388Y-81791477D01*
X145184387Y-81791478D01*
X145184386Y-81791478D01*
X144994865Y-81869980D01*
X144793670Y-81910000D01*
X144588530Y-81910000D01*
X144387335Y-81869980D01*
X144197814Y-81791478D01*
X144197813Y-81791478D01*
X144197812Y-81791477D01*
X144027246Y-81677508D01*
X143882192Y-81532454D01*
X143768223Y-81361888D01*
X143689720Y-81172365D01*
X143649700Y-80971169D01*
X143649700Y-80766031D01*
X143689720Y-80564835D01*
X143768223Y-80375312D01*
X143882192Y-80204746D01*
X144027246Y-80059692D01*
X144197812Y-79945723D01*
X144387335Y-79867220D01*
X144588530Y-79827200D01*
X144793670Y-79827200D01*
X144994865Y-79867220D01*
G37*
G36*
X147534865Y-79867220D02*
G01*
X147724388Y-79945723D01*
X147894954Y-80059692D01*
X148040008Y-80204746D01*
X148153977Y-80375312D01*
X148232480Y-80564835D01*
X148272500Y-80766031D01*
X148272500Y-80971169D01*
X148232480Y-81172365D01*
X148153977Y-81361888D01*
X148040008Y-81532454D01*
X147894954Y-81677508D01*
X147724388Y-81791477D01*
X147724387Y-81791478D01*
X147724386Y-81791478D01*
X147534865Y-81869980D01*
X147333670Y-81910000D01*
X147128530Y-81910000D01*
X146927335Y-81869980D01*
X146737814Y-81791478D01*
X146737813Y-81791478D01*
X146737812Y-81791477D01*
X146567246Y-81677508D01*
X146422192Y-81532454D01*
X146308223Y-81361888D01*
X146229720Y-81172365D01*
X146189700Y-80971169D01*
X146189700Y-80766031D01*
X146229720Y-80564835D01*
X146308223Y-80375312D01*
X146422192Y-80204746D01*
X146567246Y-80059692D01*
X146737812Y-79945723D01*
X146927335Y-79867220D01*
X147128530Y-79827200D01*
X147333670Y-79827200D01*
X147534865Y-79867220D01*
G37*
G36*
X150074865Y-79867220D02*
G01*
X150264388Y-79945723D01*
X150434954Y-80059692D01*
X150580008Y-80204746D01*
X150693977Y-80375312D01*
X150772480Y-80564835D01*
X150812500Y-80766031D01*
X150812500Y-80971169D01*
X150772480Y-81172365D01*
X150693977Y-81361888D01*
X150580008Y-81532454D01*
X150434954Y-81677508D01*
X150264388Y-81791477D01*
X150264387Y-81791478D01*
X150264386Y-81791478D01*
X150074865Y-81869980D01*
X149873670Y-81910000D01*
X149668530Y-81910000D01*
X149467335Y-81869980D01*
X149277814Y-81791478D01*
X149277813Y-81791478D01*
X149277812Y-81791477D01*
X149107246Y-81677508D01*
X148962192Y-81532454D01*
X148848223Y-81361888D01*
X148769720Y-81172365D01*
X148729700Y-80971169D01*
X148729700Y-80766031D01*
X148769720Y-80564835D01*
X148848223Y-80375312D01*
X148962192Y-80204746D01*
X149107246Y-80059692D01*
X149277812Y-79945723D01*
X149467335Y-79867220D01*
X149668530Y-79827200D01*
X149873670Y-79827200D01*
X150074865Y-79867220D01*
G37*
G36*
X152614865Y-79867220D02*
G01*
X152804388Y-79945723D01*
X152974954Y-80059692D01*
X153120008Y-80204746D01*
X153233977Y-80375312D01*
X153312480Y-80564835D01*
X153352500Y-80766031D01*
X153352500Y-80971169D01*
X153312480Y-81172365D01*
X153233977Y-81361888D01*
X153120008Y-81532454D01*
X152974954Y-81677508D01*
X152804388Y-81791477D01*
X152804387Y-81791478D01*
X152804386Y-81791478D01*
X152614865Y-81869980D01*
X152413670Y-81910000D01*
X152208530Y-81910000D01*
X152007335Y-81869980D01*
X151817814Y-81791478D01*
X151817813Y-81791478D01*
X151817812Y-81791477D01*
X151647246Y-81677508D01*
X151502192Y-81532454D01*
X151388223Y-81361888D01*
X151309720Y-81172365D01*
X151269700Y-80971169D01*
X151269700Y-80766031D01*
X151309720Y-80564835D01*
X151388223Y-80375312D01*
X151502192Y-80204746D01*
X151647246Y-80059692D01*
X151817812Y-79945723D01*
X152007335Y-79867220D01*
X152208530Y-79827200D01*
X152413670Y-79827200D01*
X152614865Y-79867220D01*
G37*
M02*
