G04 #@! TF.GenerationSoftware,KiCad,Pcbnew,(5.1.5)-3*
G04 #@! TF.CreationDate,2020-03-15T10:52:14-07:00*
G04 #@! TF.ProjectId,bbf-supply_v1,6262662d-7375-4707-906c-795f76312e6b,rev?*
G04 #@! TF.SameCoordinates,Original*
G04 #@! TF.FileFunction,Legend,Bot*
G04 #@! TF.FilePolarity,Positive*
%FSLAX46Y46*%
G04 Gerber Fmt 4.6, Leading zero omitted, Abs format (unit mm)*
G04 Created by KiCad (PCBNEW (5.1.5)-3) date 2020-03-15 10:52:14*
%MOMM*%
%LPD*%
G04 APERTURE LIST*
%ADD10C,4.013200*%
%ADD11O,1.625600X3.048000*%
%ADD12C,1.803400*%
%ADD13O,3.454400X1.828800*%
%ADD14C,1.712800*%
%ADD15R,1.712800X1.712800*%
%ADD16C,1.625600*%
%ADD17C,2.082800*%
G04 APERTURE END LIST*
%LPC*%
D10*
G04 #@! TO.C,J1*
X150581100Y-97378600D03*
X156581100Y-97378600D03*
X153581100Y-92578600D03*
G04 #@! TD*
D11*
G04 #@! TO.C,IC2*
X138976100Y-115158600D03*
X141516100Y-115158600D03*
X138976100Y-107538600D03*
X141516100Y-107538600D03*
X146596100Y-115158600D03*
X144056100Y-115158600D03*
X144056100Y-107538600D03*
X146596100Y-107538600D03*
G04 #@! TD*
D12*
G04 #@! TO.C,C4*
X140246100Y-103728600D03*
X140246100Y-101188600D03*
G04 #@! TD*
G04 #@! TO.C,C2*
X147231100Y-87218600D03*
X147231100Y-89758600D03*
G04 #@! TD*
G04 #@! TO.C,C9*
X147231100Y-120238600D03*
X147231100Y-122778600D03*
G04 #@! TD*
D13*
G04 #@! TO.C,IC3*
X156121100Y-127858600D03*
X156121100Y-125318600D03*
X156121100Y-122778600D03*
G04 #@! TD*
D12*
G04 #@! TO.C,C3*
X144056100Y-94838600D03*
X141516100Y-94838600D03*
G04 #@! TD*
G04 #@! TO.C,C7*
X155486100Y-112618600D03*
X155486100Y-115158600D03*
G04 #@! TD*
D13*
G04 #@! TO.C,IC1*
X156121100Y-87218600D03*
X156121100Y-84678600D03*
X156121100Y-82138600D03*
G04 #@! TD*
D14*
G04 #@! TO.C,D1*
X150406100Y-105633600D03*
D15*
X158026100Y-105633600D03*
G04 #@! TD*
D16*
G04 #@! TO.C,C6*
X149771100Y-112618600D03*
X149771100Y-110078600D03*
G04 #@! TD*
D12*
G04 #@! TO.C,C5*
X147231100Y-103728600D03*
X147231100Y-101188600D03*
G04 #@! TD*
D16*
G04 #@! TO.C,C1*
X140563600Y-89758600D03*
X140563600Y-87218600D03*
G04 #@! TD*
G04 #@! TO.C,C8*
X140563600Y-122778600D03*
X140563600Y-120238600D03*
G04 #@! TD*
D17*
G04 #@! TO.C,JP1*
X152311100Y-80868600D03*
X152311100Y-83408600D03*
X149771100Y-80868600D03*
X149771100Y-83408600D03*
X147231100Y-80868600D03*
X147231100Y-83408600D03*
X144691100Y-80868600D03*
X144691100Y-83408600D03*
X142151100Y-80868600D03*
X142151100Y-83408600D03*
G04 #@! TD*
G04 #@! TO.C,JP2*
X152311100Y-126588600D03*
X152311100Y-129128600D03*
X149771100Y-126588600D03*
X149771100Y-129128600D03*
X147231100Y-126588600D03*
X147231100Y-129128600D03*
X144691100Y-126588600D03*
X144691100Y-129128600D03*
X142151100Y-126588600D03*
X142151100Y-129128600D03*
G04 #@! TD*
M02*
