M48
; DRILL file {KiCad (5.1.5)-3} date 3/15/2020 10:48:36 AM
; FORMAT={-:-/ absolute / inch / decimal}
; #@! TF.CreationDate,2020-03-15T10:48:36-07:00
; #@! TF.GenerationSoftware,Kicad,Pcbnew,(5.1.5)-3
; #@! TF.FileFunction,Plated,1,2,PTH
FMAT,2
INCH
T1C0.0315
T2C0.0320
T3C0.0394
T4C0.0400
T5C0.0440
%
G90
G05
T1
X5.6465Y-3.9088
X5.6465Y-4.0088
X5.7465Y-3.9088
X5.7465Y-4.0088
X5.8465Y-3.9088
X5.8465Y-4.0088
X5.9465Y-3.9088
X5.9465Y-4.0088
X6.0465Y-3.9088
X6.0465Y-4.0088
X5.6465Y-4.2588
X5.6465Y-4.3588
X5.7465Y-4.2588
X5.7465Y-4.3588
X5.8465Y-4.2588
X5.8465Y-4.3588
X5.9465Y-4.2588
X5.9465Y-4.3588
X6.0465Y-4.2588
X6.0465Y-4.3588
T2
X5.7565Y-4.8088
X5.8365Y-4.8088
X5.8565Y-3.4588
X5.9365Y-3.4588
X5.8465Y-4.5088
X6.0465Y-4.5088
X5.6465Y-3.7463
X5.8465Y-3.7463
T3
X5.6215Y-3.6088
X5.9215Y-3.6088
X5.7715Y-4.6338
X6.0715Y-4.6338
T4
X5.6465Y-4.9838
X5.6465Y-5.0838
X5.7465Y-4.9838
X5.7465Y-5.0838
X5.8465Y-4.9838
X5.8465Y-5.0838
X5.9465Y-4.9838
X5.9465Y-5.0838
X6.0465Y-4.9838
X6.0465Y-5.0838
X5.6465Y-3.1838
X5.6465Y-3.2838
X5.7465Y-3.1838
X5.7465Y-3.2838
X5.8465Y-3.1838
X5.8465Y-3.2838
X5.9465Y-3.1838
X5.9465Y-3.2838
X6.0465Y-3.1838
X6.0465Y-3.2838
T5
X6.0715Y-3.4013
X6.0715Y-3.7413
X5.6215Y-4.5013
X5.6215Y-4.8413
T0
M30
