G04 #@! TF.GenerationSoftware,KiCad,Pcbnew,(5.1.5)-3*
G04 #@! TF.CreationDate,2020-03-15T10:48:32-07:00*
G04 #@! TF.ProjectId,bbf-europower,6262662d-6575-4726-9f70-6f7765722e6b,rev?*
G04 #@! TF.SameCoordinates,Original*
G04 #@! TF.FileFunction,Legend,Top*
G04 #@! TF.FilePolarity,Positive*
%FSLAX46Y46*%
G04 Gerber Fmt 4.6, Leading zero omitted, Abs format (unit mm)*
G04 Created by KiCad (PCBNEW (5.1.5)-3) date 2020-03-15 10:48:32*
%MOMM*%
%LPD*%
G04 APERTURE LIST*
%ADD10C,0.121920*%
%ADD11C,0.254000*%
%ADD12C,0.048768*%
%ADD13C,0.100000*%
%ADD14C,0.203200*%
%ADD15C,0.152400*%
%ADD16C,2.082800*%
%ADD17C,1.612800*%
%ADD18R,1.612800X1.612800*%
%ADD19C,1.473200*%
%ADD20O,3.422400X1.812800*%
%ADD21C,1.930400*%
%ADD22C,1.625600*%
G04 APERTURE END LIST*
D10*
X146237621Y-104290060D02*
X146164082Y-104326830D01*
X146017004Y-104326830D01*
X145943465Y-104290060D01*
X145906695Y-104253291D01*
X145869926Y-104179752D01*
X145869926Y-103959135D01*
X145906695Y-103885596D01*
X145943465Y-103848826D01*
X146017004Y-103812057D01*
X146164082Y-103812057D01*
X146237621Y-103848826D01*
X146899472Y-104290060D02*
X146825933Y-104326830D01*
X146678855Y-104326830D01*
X146605316Y-104290060D01*
X146568547Y-104253291D01*
X146531777Y-104179752D01*
X146531777Y-103959135D01*
X146568547Y-103885596D01*
X146605316Y-103848826D01*
X146678855Y-103812057D01*
X146825933Y-103812057D01*
X146899472Y-103848826D01*
X147230398Y-104032674D02*
X147818710Y-104032674D01*
X148186406Y-104326830D02*
X148186406Y-103554670D01*
X148186406Y-103848826D02*
X148259945Y-103812057D01*
X148407023Y-103812057D01*
X148480562Y-103848826D01*
X148517331Y-103885596D01*
X148554101Y-103959135D01*
X148554101Y-104179752D01*
X148517331Y-104253291D01*
X148480562Y-104290060D01*
X148407023Y-104326830D01*
X148259945Y-104326830D01*
X148186406Y-104290060D01*
X148811488Y-103812057D02*
X148995335Y-104326830D01*
X149179183Y-103812057D02*
X148995335Y-104326830D01*
X148921796Y-104510678D01*
X148885027Y-104547447D01*
X148811488Y-104584217D01*
X149473339Y-104032674D02*
X150061651Y-104032674D01*
X150392577Y-104290060D02*
X150466116Y-104326830D01*
X150613194Y-104326830D01*
X150686733Y-104290060D01*
X150723503Y-104216521D01*
X150723503Y-104179752D01*
X150686733Y-104106213D01*
X150613194Y-104069443D01*
X150502886Y-104069443D01*
X150429347Y-104032674D01*
X150392577Y-103959135D01*
X150392577Y-103922365D01*
X150429347Y-103848826D01*
X150502886Y-103812057D01*
X150613194Y-103812057D01*
X150686733Y-103848826D01*
X151385354Y-104326830D02*
X151385354Y-103922365D01*
X151348585Y-103848826D01*
X151275046Y-103812057D01*
X151127968Y-103812057D01*
X151054428Y-103848826D01*
X151385354Y-104290060D02*
X151311815Y-104326830D01*
X151127968Y-104326830D01*
X151054428Y-104290060D01*
X151017659Y-104216521D01*
X151017659Y-104142982D01*
X151054428Y-104069443D01*
X151127968Y-104032674D01*
X151311815Y-104032674D01*
X151385354Y-103995904D01*
X145993660Y-105496440D02*
X145920121Y-105459670D01*
X145809812Y-105459670D01*
X145699504Y-105496440D01*
X145625965Y-105569979D01*
X145589195Y-105643518D01*
X145552426Y-105790596D01*
X145552426Y-105900904D01*
X145589195Y-106047982D01*
X145625965Y-106121521D01*
X145699504Y-106195060D01*
X145809812Y-106231830D01*
X145883351Y-106231830D01*
X145993660Y-106195060D01*
X146030429Y-106158291D01*
X146030429Y-105900904D01*
X145883351Y-105900904D01*
X146361355Y-106158291D02*
X146398125Y-106195060D01*
X146361355Y-106231830D01*
X146324586Y-106195060D01*
X146361355Y-106158291D01*
X146361355Y-106231830D01*
X147537980Y-105459670D02*
X147537980Y-106011213D01*
X147501210Y-106121521D01*
X147427671Y-106195060D01*
X147317363Y-106231830D01*
X147243824Y-106231830D01*
X148015984Y-106231830D02*
X147942445Y-106195060D01*
X147905675Y-106158291D01*
X147868906Y-106084752D01*
X147868906Y-105864135D01*
X147905675Y-105790596D01*
X147942445Y-105753826D01*
X148015984Y-105717057D01*
X148126292Y-105717057D01*
X148199831Y-105753826D01*
X148236601Y-105790596D01*
X148273370Y-105864135D01*
X148273370Y-106084752D01*
X148236601Y-106158291D01*
X148199831Y-106195060D01*
X148126292Y-106231830D01*
X148015984Y-106231830D01*
X148604296Y-106231830D02*
X148604296Y-105459670D01*
X148935222Y-106231830D02*
X148935222Y-105827365D01*
X148898452Y-105753826D01*
X148824913Y-105717057D01*
X148714605Y-105717057D01*
X148641066Y-105753826D01*
X148604296Y-105790596D01*
X149302917Y-105717057D02*
X149302917Y-106231830D01*
X149302917Y-105790596D02*
X149339687Y-105753826D01*
X149413226Y-105717057D01*
X149523534Y-105717057D01*
X149597073Y-105753826D01*
X149633843Y-105827365D01*
X149633843Y-106231830D01*
X149964768Y-106195060D02*
X150038308Y-106231830D01*
X150185386Y-106231830D01*
X150258925Y-106195060D01*
X150295694Y-106121521D01*
X150295694Y-106084752D01*
X150258925Y-106011213D01*
X150185386Y-105974443D01*
X150075077Y-105974443D01*
X150001538Y-105937674D01*
X149964768Y-105864135D01*
X149964768Y-105827365D01*
X150001538Y-105753826D01*
X150075077Y-105717057D01*
X150185386Y-105717057D01*
X150258925Y-105753826D01*
X150736928Y-106231830D02*
X150663389Y-106195060D01*
X150626620Y-106158291D01*
X150589850Y-106084752D01*
X150589850Y-105864135D01*
X150626620Y-105790596D01*
X150663389Y-105753826D01*
X150736928Y-105717057D01*
X150847237Y-105717057D01*
X150920776Y-105753826D01*
X150957546Y-105790596D01*
X150994315Y-105864135D01*
X150994315Y-106084752D01*
X150957546Y-106158291D01*
X150920776Y-106195060D01*
X150847237Y-106231830D01*
X150736928Y-106231830D01*
X151325241Y-105717057D02*
X151325241Y-106231830D01*
X151325241Y-105790596D02*
X151362010Y-105753826D01*
X151435549Y-105717057D01*
X151545858Y-105717057D01*
X151619397Y-105753826D01*
X151656167Y-105827365D01*
X151656167Y-106231830D01*
D11*
X145326100Y-104998600D02*
X151676100Y-104998600D01*
D12*
X155776022Y-111814015D02*
X155389942Y-111814015D01*
X155500251Y-111814015D02*
X155445097Y-111786437D01*
X155417520Y-111758860D01*
X155389942Y-111703706D01*
X155389942Y-111648552D01*
X155748445Y-111234895D02*
X155776022Y-111290049D01*
X155776022Y-111400357D01*
X155748445Y-111455512D01*
X155693291Y-111483089D01*
X155472674Y-111483089D01*
X155417520Y-111455512D01*
X155389942Y-111400357D01*
X155389942Y-111290049D01*
X155417520Y-111234895D01*
X155472674Y-111207317D01*
X155527828Y-111207317D01*
X155582982Y-111483089D01*
X155776022Y-110710929D02*
X155196902Y-110710929D01*
X155748445Y-110710929D02*
X155776022Y-110766083D01*
X155776022Y-110876392D01*
X155748445Y-110931546D01*
X155720868Y-110959123D01*
X155665714Y-110986700D01*
X155500251Y-110986700D01*
X155445097Y-110959123D01*
X155417520Y-110931546D01*
X155389942Y-110876392D01*
X155389942Y-110766083D01*
X155417520Y-110710929D01*
X155748445Y-110021500D02*
X155776022Y-109966346D01*
X155776022Y-109856037D01*
X155748445Y-109800883D01*
X155693291Y-109773306D01*
X155665714Y-109773306D01*
X155610560Y-109800883D01*
X155582982Y-109856037D01*
X155582982Y-109938769D01*
X155555405Y-109993923D01*
X155500251Y-110021500D01*
X155472674Y-110021500D01*
X155417520Y-109993923D01*
X155389942Y-109938769D01*
X155389942Y-109856037D01*
X155417520Y-109800883D01*
X155389942Y-109607843D02*
X155389942Y-109387226D01*
X155196902Y-109525112D02*
X155693291Y-109525112D01*
X155748445Y-109497535D01*
X155776022Y-109442380D01*
X155776022Y-109387226D01*
X155776022Y-109194186D02*
X155389942Y-109194186D01*
X155500251Y-109194186D02*
X155445097Y-109166609D01*
X155417520Y-109139032D01*
X155389942Y-109083877D01*
X155389942Y-109028723D01*
X155776022Y-108835683D02*
X155389942Y-108835683D01*
X155196902Y-108835683D02*
X155224480Y-108863260D01*
X155252057Y-108835683D01*
X155224480Y-108808106D01*
X155196902Y-108835683D01*
X155252057Y-108835683D01*
X155389942Y-108559912D02*
X155969062Y-108559912D01*
X155417520Y-108559912D02*
X155389942Y-108504757D01*
X155389942Y-108394449D01*
X155417520Y-108339295D01*
X155445097Y-108311717D01*
X155500251Y-108284140D01*
X155665714Y-108284140D01*
X155720868Y-108311717D01*
X155748445Y-108339295D01*
X155776022Y-108394449D01*
X155776022Y-108504757D01*
X155748445Y-108559912D01*
X155748445Y-107815329D02*
X155776022Y-107870483D01*
X155776022Y-107980792D01*
X155748445Y-108035946D01*
X155693291Y-108063523D01*
X155472674Y-108063523D01*
X155417520Y-108035946D01*
X155389942Y-107980792D01*
X155389942Y-107870483D01*
X155417520Y-107815329D01*
X155472674Y-107787752D01*
X155527828Y-107787752D01*
X155582982Y-108063523D01*
D11*
X156121100Y-111983600D02*
X156121100Y-106903600D01*
D12*
X155776022Y-102924015D02*
X155389942Y-102924015D01*
X155500251Y-102924015D02*
X155445097Y-102896437D01*
X155417520Y-102868860D01*
X155389942Y-102813706D01*
X155389942Y-102758552D01*
X155748445Y-102344895D02*
X155776022Y-102400049D01*
X155776022Y-102510357D01*
X155748445Y-102565512D01*
X155693291Y-102593089D01*
X155472674Y-102593089D01*
X155417520Y-102565512D01*
X155389942Y-102510357D01*
X155389942Y-102400049D01*
X155417520Y-102344895D01*
X155472674Y-102317317D01*
X155527828Y-102317317D01*
X155582982Y-102593089D01*
X155776022Y-101820929D02*
X155196902Y-101820929D01*
X155748445Y-101820929D02*
X155776022Y-101876083D01*
X155776022Y-101986392D01*
X155748445Y-102041546D01*
X155720868Y-102069123D01*
X155665714Y-102096700D01*
X155500251Y-102096700D01*
X155445097Y-102069123D01*
X155417520Y-102041546D01*
X155389942Y-101986392D01*
X155389942Y-101876083D01*
X155417520Y-101820929D01*
X155748445Y-101131500D02*
X155776022Y-101076346D01*
X155776022Y-100966037D01*
X155748445Y-100910883D01*
X155693291Y-100883306D01*
X155665714Y-100883306D01*
X155610560Y-100910883D01*
X155582982Y-100966037D01*
X155582982Y-101048769D01*
X155555405Y-101103923D01*
X155500251Y-101131500D01*
X155472674Y-101131500D01*
X155417520Y-101103923D01*
X155389942Y-101048769D01*
X155389942Y-100966037D01*
X155417520Y-100910883D01*
X155389942Y-100717843D02*
X155389942Y-100497226D01*
X155196902Y-100635112D02*
X155693291Y-100635112D01*
X155748445Y-100607535D01*
X155776022Y-100552380D01*
X155776022Y-100497226D01*
X155776022Y-100304186D02*
X155389942Y-100304186D01*
X155500251Y-100304186D02*
X155445097Y-100276609D01*
X155417520Y-100249032D01*
X155389942Y-100193877D01*
X155389942Y-100138723D01*
X155776022Y-99945683D02*
X155389942Y-99945683D01*
X155196902Y-99945683D02*
X155224480Y-99973260D01*
X155252057Y-99945683D01*
X155224480Y-99918106D01*
X155196902Y-99945683D01*
X155252057Y-99945683D01*
X155389942Y-99669912D02*
X155969062Y-99669912D01*
X155417520Y-99669912D02*
X155389942Y-99614757D01*
X155389942Y-99504449D01*
X155417520Y-99449295D01*
X155445097Y-99421717D01*
X155500251Y-99394140D01*
X155665714Y-99394140D01*
X155720868Y-99421717D01*
X155748445Y-99449295D01*
X155776022Y-99504449D01*
X155776022Y-99614757D01*
X155748445Y-99669912D01*
X155748445Y-98925329D02*
X155776022Y-98980483D01*
X155776022Y-99090792D01*
X155748445Y-99145946D01*
X155693291Y-99173523D01*
X155472674Y-99173523D01*
X155417520Y-99145946D01*
X155389942Y-99090792D01*
X155389942Y-98980483D01*
X155417520Y-98925329D01*
X155472674Y-98897752D01*
X155527828Y-98897752D01*
X155582982Y-99173523D01*
D11*
X156121100Y-103093600D02*
X156121100Y-98013600D01*
D13*
G04 #@! TO.C,JP1*
G36*
X148755100Y-83662600D02*
G01*
X148755100Y-83154600D01*
X148247100Y-83154600D01*
X148247100Y-83662600D01*
X148755100Y-83662600D01*
G37*
D14*
X142786100Y-85313600D02*
X144056100Y-85313600D01*
D15*
X152946100Y-84678600D02*
X154216100Y-84678600D01*
X154851100Y-80233600D02*
X154851100Y-84043600D01*
X154216100Y-79598600D02*
X154851100Y-80233600D01*
X152946100Y-79598600D02*
X154216100Y-79598600D01*
X152311100Y-80233600D02*
X152946100Y-79598600D01*
X154216100Y-84678600D02*
X154851100Y-84043600D01*
X152311100Y-84043600D02*
X152946100Y-84678600D01*
X142786100Y-84678600D02*
X144056100Y-84678600D01*
X145326100Y-84678600D02*
X146596100Y-84678600D01*
X147866100Y-84678600D02*
X149136100Y-84678600D01*
X150406100Y-84678600D02*
X151676100Y-84678600D01*
X152311100Y-80233600D02*
X152311100Y-84043600D01*
X149771100Y-80233600D02*
X149771100Y-84043600D01*
X147231100Y-80233600D02*
X147231100Y-84043600D01*
X144691100Y-80233600D02*
X144691100Y-84043600D01*
X151676100Y-79598600D02*
X152311100Y-80233600D01*
X150406100Y-79598600D02*
X151676100Y-79598600D01*
X149771100Y-80233600D02*
X150406100Y-79598600D01*
X149136100Y-79598600D02*
X149771100Y-80233600D01*
X147866100Y-79598600D02*
X149136100Y-79598600D01*
X147231100Y-80233600D02*
X147866100Y-79598600D01*
X146596100Y-79598600D02*
X147231100Y-80233600D01*
X145326100Y-79598600D02*
X146596100Y-79598600D01*
X144691100Y-80233600D02*
X145326100Y-79598600D01*
X144056100Y-79598600D02*
X144691100Y-80233600D01*
X142786100Y-79598600D02*
X144056100Y-79598600D01*
X142151100Y-80233600D02*
X142786100Y-79598600D01*
X142151100Y-84043600D02*
X142151100Y-80233600D01*
X151676100Y-84678600D02*
X152311100Y-84043600D01*
X149771100Y-84043600D02*
X150406100Y-84678600D01*
X149136100Y-84678600D02*
X149771100Y-84043600D01*
X147231100Y-84043600D02*
X147866100Y-84678600D01*
X146596100Y-84678600D02*
X147231100Y-84043600D01*
X144691100Y-84043600D02*
X145326100Y-84678600D01*
X144056100Y-84678600D02*
X144691100Y-84043600D01*
X142151100Y-84043600D02*
X142786100Y-84678600D01*
D13*
G04 #@! TO.C,JP2*
G36*
X148755100Y-129382600D02*
G01*
X148755100Y-128874600D01*
X148247100Y-128874600D01*
X148247100Y-129382600D01*
X148755100Y-129382600D01*
G37*
D14*
X142786100Y-131033600D02*
X144056100Y-131033600D01*
D15*
X152946100Y-130398600D02*
X154216100Y-130398600D01*
X154851100Y-125953600D02*
X154851100Y-129763600D01*
X154216100Y-125318600D02*
X154851100Y-125953600D01*
X152946100Y-125318600D02*
X154216100Y-125318600D01*
X152311100Y-125953600D02*
X152946100Y-125318600D01*
X154216100Y-130398600D02*
X154851100Y-129763600D01*
X152311100Y-129763600D02*
X152946100Y-130398600D01*
X142786100Y-130398600D02*
X144056100Y-130398600D01*
X145326100Y-130398600D02*
X146596100Y-130398600D01*
X147866100Y-130398600D02*
X149136100Y-130398600D01*
X150406100Y-130398600D02*
X151676100Y-130398600D01*
X152311100Y-125953600D02*
X152311100Y-129763600D01*
X149771100Y-125953600D02*
X149771100Y-129763600D01*
X147231100Y-125953600D02*
X147231100Y-129763600D01*
X144691100Y-125953600D02*
X144691100Y-129763600D01*
X151676100Y-125318600D02*
X152311100Y-125953600D01*
X150406100Y-125318600D02*
X151676100Y-125318600D01*
X149771100Y-125953600D02*
X150406100Y-125318600D01*
X149136100Y-125318600D02*
X149771100Y-125953600D01*
X147866100Y-125318600D02*
X149136100Y-125318600D01*
X147231100Y-125953600D02*
X147866100Y-125318600D01*
X146596100Y-125318600D02*
X147231100Y-125953600D01*
X145326100Y-125318600D02*
X146596100Y-125318600D01*
X144691100Y-125953600D02*
X145326100Y-125318600D01*
X144056100Y-125318600D02*
X144691100Y-125953600D01*
X142786100Y-125318600D02*
X144056100Y-125318600D01*
X142151100Y-125953600D02*
X142786100Y-125318600D01*
X142151100Y-129763600D02*
X142151100Y-125953600D01*
X151676100Y-130398600D02*
X152311100Y-129763600D01*
X149771100Y-129763600D02*
X150406100Y-130398600D01*
X149136100Y-130398600D02*
X149771100Y-129763600D01*
X147231100Y-129763600D02*
X147866100Y-130398600D01*
X146596100Y-130398600D02*
X147231100Y-129763600D01*
X144691100Y-129763600D02*
X145326100Y-130398600D01*
X144056100Y-130398600D02*
X144691100Y-129763600D01*
X142151100Y-129763600D02*
X142786100Y-130398600D01*
G04 #@! TO.C,J1*
X152311100Y-100553600D02*
X154851100Y-100553600D01*
X152311100Y-98013600D02*
X152311100Y-100553600D01*
X152311100Y-98013600D02*
X154851100Y-98013600D01*
X142151100Y-98013600D02*
X152311100Y-98013600D01*
X142151100Y-103093600D02*
X142151100Y-98013600D01*
X154851100Y-103093600D02*
X142151100Y-103093600D01*
X154851100Y-100553600D02*
X154851100Y-103093600D01*
X154851100Y-98013600D02*
X154851100Y-100553600D01*
G04 #@! TO.C,C1*
X152311100Y-87853600D02*
G75*
G03X152311100Y-87853600I-2540000J0D01*
G01*
X150787100Y-89377600D02*
X150787100Y-89885600D01*
X151041100Y-89631600D02*
X150533100Y-89631600D01*
G04 #@! TO.C,C2*
X149771100Y-122143600D02*
G75*
G03X149771100Y-122143600I-2540000J0D01*
G01*
X148247100Y-123667600D02*
X148247100Y-124175600D01*
X148501100Y-123921600D02*
X147993100Y-123921600D01*
D13*
G04 #@! TO.C,D2*
G36*
X153327100Y-117444600D02*
G01*
X152692100Y-117444600D01*
X152692100Y-117952600D01*
X153327100Y-117952600D01*
X153327100Y-117444600D01*
G37*
G36*
X148120100Y-117444600D02*
G01*
X147485100Y-117444600D01*
X147485100Y-117952600D01*
X148120100Y-117952600D01*
X148120100Y-117444600D01*
G37*
G36*
X152311100Y-116682600D02*
G01*
X151803100Y-116682600D01*
X151803100Y-118714600D01*
X152311100Y-118714600D01*
X152311100Y-116682600D01*
G37*
D15*
X152438100Y-118714600D02*
X148374100Y-118714600D01*
X152692100Y-118460600D02*
X152692100Y-116936600D01*
X152438100Y-116682600D02*
X148374100Y-116682600D01*
X152438100Y-116682600D02*
G75*
G02X152692100Y-116936600I0J-254000D01*
G01*
X152438100Y-118714600D02*
G75*
G03X152692100Y-118460600I0J254000D01*
G01*
X148120100Y-116936600D02*
G75*
G02X148374100Y-116682600I254000J0D01*
G01*
X148120100Y-118460600D02*
X148120100Y-116936600D01*
X148120100Y-118460600D02*
G75*
G03X148374100Y-118714600I254000J0D01*
G01*
X150406100Y-117698600D02*
X150406100Y-117063600D01*
X150406100Y-118333600D02*
X150406100Y-117698600D01*
X150406100Y-117698600D02*
X149390100Y-118333600D01*
X150406100Y-117698600D02*
X148882100Y-117698600D01*
X149390100Y-117063600D02*
X150406100Y-117698600D01*
X149390100Y-118333600D02*
X149390100Y-117063600D01*
X151041100Y-117698600D02*
X150406100Y-117698600D01*
D13*
G04 #@! TO.C,D1*
G36*
X149517100Y-91409600D02*
G01*
X148882100Y-91409600D01*
X148882100Y-91917600D01*
X149517100Y-91917600D01*
X149517100Y-91409600D01*
G37*
G36*
X144310100Y-91409600D02*
G01*
X143675100Y-91409600D01*
X143675100Y-91917600D01*
X144310100Y-91917600D01*
X144310100Y-91409600D01*
G37*
G36*
X148501100Y-90647600D02*
G01*
X147993100Y-90647600D01*
X147993100Y-92679600D01*
X148501100Y-92679600D01*
X148501100Y-90647600D01*
G37*
D15*
X148628100Y-92679600D02*
X144564100Y-92679600D01*
X148882100Y-92425600D02*
X148882100Y-90901600D01*
X148628100Y-90647600D02*
X144564100Y-90647600D01*
X148628100Y-90647600D02*
G75*
G02X148882100Y-90901600I0J-254000D01*
G01*
X148628100Y-92679600D02*
G75*
G03X148882100Y-92425600I0J254000D01*
G01*
X144310100Y-90901600D02*
G75*
G02X144564100Y-90647600I254000J0D01*
G01*
X144310100Y-92425600D02*
X144310100Y-90901600D01*
X144310100Y-92425600D02*
G75*
G03X144564100Y-92679600I254000J0D01*
G01*
X146596100Y-91663600D02*
X146596100Y-91028600D01*
X146596100Y-92298600D02*
X146596100Y-91663600D01*
X146596100Y-91663600D02*
X145580100Y-92298600D01*
X146596100Y-91663600D02*
X145072100Y-91663600D01*
X145580100Y-91028600D02*
X146596100Y-91663600D01*
X145580100Y-92298600D02*
X145580100Y-91028600D01*
X147231100Y-91663600D02*
X146596100Y-91663600D01*
D13*
G04 #@! TO.C,L1*
G36*
X154724100Y-88171100D02*
G01*
X154724100Y-87409100D01*
X153708100Y-87409100D01*
X153708100Y-88171100D01*
X154724100Y-88171100D01*
G37*
G36*
X154724100Y-94013100D02*
G01*
X154724100Y-93251100D01*
X153708100Y-93251100D01*
X153708100Y-94013100D01*
X154724100Y-94013100D01*
G37*
D15*
X152819100Y-93251100D02*
X155613100Y-93251100D01*
X152819100Y-93251100D02*
X152819100Y-88171100D01*
X155613100Y-88171100D02*
X152819100Y-88171100D01*
X155613100Y-88171100D02*
X155613100Y-93251100D01*
D13*
G04 #@! TO.C,L2*
G36*
X142278100Y-121191100D02*
G01*
X142278100Y-121953100D01*
X143294100Y-121953100D01*
X143294100Y-121191100D01*
X142278100Y-121191100D01*
G37*
G36*
X142278100Y-115349100D02*
G01*
X142278100Y-116111100D01*
X143294100Y-116111100D01*
X143294100Y-115349100D01*
X142278100Y-115349100D01*
G37*
D15*
X144183100Y-116111100D02*
X141389100Y-116111100D01*
X144183100Y-116111100D02*
X144183100Y-121191100D01*
X141389100Y-121191100D02*
X144183100Y-121191100D01*
X141389100Y-121191100D02*
X141389100Y-116111100D01*
G04 #@! TO.C,J2*
X152311100Y-109443600D02*
X154851100Y-109443600D01*
X152311100Y-106903600D02*
X152311100Y-109443600D01*
X152311100Y-106903600D02*
X154851100Y-106903600D01*
X142151100Y-106903600D02*
X152311100Y-106903600D01*
X142151100Y-111983600D02*
X142151100Y-106903600D01*
X154851100Y-111983600D02*
X142151100Y-111983600D01*
X154851100Y-109443600D02*
X154851100Y-111983600D01*
X154851100Y-106903600D02*
X154851100Y-109443600D01*
G04 #@! TO.C,+FUSE1*
X149644100Y-94394100D02*
G75*
G03X149136100Y-93886100I-508000J0D01*
G01*
X142786100Y-93886100D02*
G75*
G03X142278100Y-94394100I0J-508000D01*
G01*
X149136100Y-93886100D02*
X142786100Y-93886100D01*
X149644100Y-95918100D02*
X149644100Y-94394100D01*
X149263100Y-95918100D02*
X149644100Y-95918100D01*
X144183100Y-95918100D02*
X147739100Y-95918100D01*
X142278100Y-95918100D02*
X142659100Y-95918100D01*
X142278100Y-94394100D02*
X142278100Y-95918100D01*
G04 #@! TO.C,-FUSE1*
X147358100Y-115285600D02*
G75*
G03X147866100Y-115793600I508000J0D01*
G01*
X154216100Y-115793600D02*
G75*
G03X154724100Y-115285600I0J508000D01*
G01*
X147866100Y-115793600D02*
X154216100Y-115793600D01*
X147358100Y-113761600D02*
X147358100Y-115285600D01*
X147739100Y-113761600D02*
X147358100Y-113761600D01*
X152819100Y-113761600D02*
X149263100Y-113761600D01*
X154724100Y-113761600D02*
X154343100Y-113761600D01*
X154724100Y-115285600D02*
X154724100Y-113761600D01*
G04 #@! TD*
%LPC*%
D16*
G04 #@! TO.C,JP1*
X153581100Y-80868600D03*
X153581100Y-83408600D03*
X151041100Y-80868600D03*
X151041100Y-83408600D03*
X148501100Y-80868600D03*
X148501100Y-83408600D03*
X145961100Y-80868600D03*
X145961100Y-83408600D03*
X143421100Y-80868600D03*
X143421100Y-83408600D03*
G04 #@! TD*
G04 #@! TO.C,JP2*
X153581100Y-126588600D03*
X153581100Y-129128600D03*
X151041100Y-126588600D03*
X151041100Y-129128600D03*
X148501100Y-126588600D03*
X148501100Y-129128600D03*
X145961100Y-126588600D03*
X145961100Y-129128600D03*
X143421100Y-126588600D03*
X143421100Y-129128600D03*
G04 #@! TD*
D17*
G04 #@! TO.C,J1*
X143421100Y-101823600D03*
X143421100Y-99283600D03*
X145961100Y-101823600D03*
X145961100Y-99283600D03*
X148501100Y-101823600D03*
X148501100Y-99283600D03*
X151041100Y-101823600D03*
X151041100Y-99283600D03*
X153581100Y-101823600D03*
D18*
X153581100Y-99283600D03*
G04 #@! TD*
D19*
G04 #@! TO.C,C1*
X150787100Y-87853600D03*
X148755100Y-87853600D03*
G04 #@! TD*
G04 #@! TO.C,C2*
X148247100Y-122143600D03*
X146215100Y-122143600D03*
G04 #@! TD*
D20*
G04 #@! TO.C,D2*
X146596100Y-117698600D03*
X154216100Y-117698600D03*
G04 #@! TD*
G04 #@! TO.C,D1*
X142786100Y-91663600D03*
X150406100Y-91663600D03*
G04 #@! TD*
D21*
G04 #@! TO.C,L1*
X154216100Y-95029100D03*
X154216100Y-86393100D03*
G04 #@! TD*
G04 #@! TO.C,L2*
X142786100Y-114333100D03*
X142786100Y-122969100D03*
G04 #@! TD*
D17*
G04 #@! TO.C,J2*
X143421100Y-110713600D03*
X143421100Y-108173600D03*
X145961100Y-110713600D03*
X145961100Y-108173600D03*
X148501100Y-110713600D03*
X148501100Y-108173600D03*
X151041100Y-110713600D03*
X151041100Y-108173600D03*
X153581100Y-110713600D03*
D18*
X153581100Y-108173600D03*
G04 #@! TD*
D22*
G04 #@! TO.C,+FUSE1*
X148501100Y-95156100D03*
X143421100Y-95156100D03*
G04 #@! TD*
G04 #@! TO.C,-FUSE1*
X148501100Y-114523600D03*
X153581100Y-114523600D03*
G04 #@! TD*
M02*
