G04 #@! TF.GenerationSoftware,KiCad,Pcbnew,(5.1.5)-3*
G04 #@! TF.CreationDate,2020-03-15T10:48:32-07:00*
G04 #@! TF.ProjectId,bbf-europower,6262662d-6575-4726-9f70-6f7765722e6b,rev?*
G04 #@! TF.SameCoordinates,Original*
G04 #@! TF.FileFunction,Copper,L2,Bot*
G04 #@! TF.FilePolarity,Positive*
%FSLAX46Y46*%
G04 Gerber Fmt 4.6, Leading zero omitted, Abs format (unit mm)*
G04 Created by KiCad (PCBNEW (5.1.5)-3) date 2020-03-15 10:48:32*
%MOMM*%
%LPD*%
G04 APERTURE LIST*
G04 #@! TA.AperFunction,ComponentPad*
%ADD10C,1.879600*%
G04 #@! TD*
G04 #@! TA.AperFunction,ComponentPad*
%ADD11C,1.409600*%
G04 #@! TD*
G04 #@! TA.AperFunction,ComponentPad*
%ADD12R,1.409600X1.409600*%
G04 #@! TD*
G04 #@! TA.AperFunction,ComponentPad*
%ADD13C,1.270000*%
G04 #@! TD*
G04 #@! TA.AperFunction,ComponentPad*
%ADD14O,3.219200X1.609600*%
G04 #@! TD*
G04 #@! TA.AperFunction,ComponentPad*
%ADD15C,1.727200*%
G04 #@! TD*
G04 #@! TA.AperFunction,ComponentPad*
%ADD16C,1.422400*%
G04 #@! TD*
G04 #@! TA.AperFunction,Conductor*
%ADD17C,0.127000*%
G04 #@! TD*
G04 APERTURE END LIST*
D10*
G04 #@! TO.P,JP1,10*
G04 #@! TO.N,VCC*
X153581100Y-80868600D03*
G04 #@! TO.P,JP1,9*
G04 #@! TO.N,GND*
X153581100Y-83408600D03*
G04 #@! TO.P,JP1,8*
G04 #@! TO.N,VCC*
X151041100Y-80868600D03*
G04 #@! TO.P,JP1,7*
G04 #@! TO.N,GND*
X151041100Y-83408600D03*
G04 #@! TO.P,JP1,6*
G04 #@! TO.N,VCC*
X148501100Y-80868600D03*
G04 #@! TO.P,JP1,5*
G04 #@! TO.N,GND*
X148501100Y-83408600D03*
G04 #@! TO.P,JP1,4*
G04 #@! TO.N,VCC*
X145961100Y-80868600D03*
G04 #@! TO.P,JP1,3*
G04 #@! TO.N,GND*
X145961100Y-83408600D03*
G04 #@! TO.P,JP1,2*
G04 #@! TO.N,VCC*
X143421100Y-80868600D03*
G04 #@! TO.P,JP1,1*
G04 #@! TO.N,GND*
X143421100Y-83408600D03*
G04 #@! TD*
G04 #@! TO.P,JP2,10*
G04 #@! TO.N,GND*
X153581100Y-126588600D03*
G04 #@! TO.P,JP2,9*
G04 #@! TO.N,VEE*
X153581100Y-129128600D03*
G04 #@! TO.P,JP2,8*
G04 #@! TO.N,GND*
X151041100Y-126588600D03*
G04 #@! TO.P,JP2,7*
G04 #@! TO.N,VEE*
X151041100Y-129128600D03*
G04 #@! TO.P,JP2,6*
G04 #@! TO.N,GND*
X148501100Y-126588600D03*
G04 #@! TO.P,JP2,5*
G04 #@! TO.N,VEE*
X148501100Y-129128600D03*
G04 #@! TO.P,JP2,4*
G04 #@! TO.N,GND*
X145961100Y-126588600D03*
G04 #@! TO.P,JP2,3*
G04 #@! TO.N,VEE*
X145961100Y-129128600D03*
G04 #@! TO.P,JP2,2*
G04 #@! TO.N,GND*
X143421100Y-126588600D03*
G04 #@! TO.P,JP2,1*
G04 #@! TO.N,VEE*
X143421100Y-129128600D03*
G04 #@! TD*
D11*
G04 #@! TO.P,J1,10*
G04 #@! TO.N,/+12V*
X143421100Y-101823600D03*
G04 #@! TO.P,J1,9*
X143421100Y-99283600D03*
G04 #@! TO.P,J1,8*
G04 #@! TO.N,GND*
X145961100Y-101823600D03*
G04 #@! TO.P,J1,7*
X145961100Y-99283600D03*
G04 #@! TO.P,J1,6*
X148501100Y-101823600D03*
G04 #@! TO.P,J1,5*
X148501100Y-99283600D03*
G04 #@! TO.P,J1,4*
X151041100Y-101823600D03*
G04 #@! TO.P,J1,3*
X151041100Y-99283600D03*
G04 #@! TO.P,J1,2*
G04 #@! TO.N,/-12V*
X153581100Y-101823600D03*
D12*
G04 #@! TO.P,J1,1*
X153581100Y-99283600D03*
G04 #@! TD*
D13*
G04 #@! TO.P,C1,+*
G04 #@! TO.N,VCC*
X150787100Y-87853600D03*
G04 #@! TO.P,C1,-*
G04 #@! TO.N,GND*
X148755100Y-87853600D03*
G04 #@! TD*
G04 #@! TO.P,C2,+*
G04 #@! TO.N,GND*
X148247100Y-122143600D03*
G04 #@! TO.P,C2,-*
G04 #@! TO.N,VEE*
X146215100Y-122143600D03*
G04 #@! TD*
D14*
G04 #@! TO.P,D2,A*
G04 #@! TO.N,Net-(-FUSE1-Pad2)*
X146596100Y-117698600D03*
G04 #@! TO.P,D2,C*
G04 #@! TO.N,GND*
X154216100Y-117698600D03*
G04 #@! TD*
G04 #@! TO.P,D1,A*
G04 #@! TO.N,GND*
X142786100Y-91663600D03*
G04 #@! TO.P,D1,C*
G04 #@! TO.N,Net-(+FUSE1-Pad2)*
X150406100Y-91663600D03*
G04 #@! TD*
D15*
G04 #@! TO.P,L1,1*
G04 #@! TO.N,Net-(+FUSE1-Pad2)*
X154216100Y-95029100D03*
G04 #@! TO.P,L1,2*
G04 #@! TO.N,VCC*
X154216100Y-86393100D03*
G04 #@! TD*
G04 #@! TO.P,L2,1*
G04 #@! TO.N,Net-(-FUSE1-Pad2)*
X142786100Y-114333100D03*
G04 #@! TO.P,L2,2*
G04 #@! TO.N,VEE*
X142786100Y-122969100D03*
G04 #@! TD*
D11*
G04 #@! TO.P,J2,10*
G04 #@! TO.N,/+12V*
X143421100Y-110713600D03*
G04 #@! TO.P,J2,9*
X143421100Y-108173600D03*
G04 #@! TO.P,J2,8*
G04 #@! TO.N,GND*
X145961100Y-110713600D03*
G04 #@! TO.P,J2,7*
X145961100Y-108173600D03*
G04 #@! TO.P,J2,6*
X148501100Y-110713600D03*
G04 #@! TO.P,J2,5*
X148501100Y-108173600D03*
G04 #@! TO.P,J2,4*
X151041100Y-110713600D03*
G04 #@! TO.P,J2,3*
X151041100Y-108173600D03*
G04 #@! TO.P,J2,2*
G04 #@! TO.N,/-12V*
X153581100Y-110713600D03*
D12*
G04 #@! TO.P,J2,1*
X153581100Y-108173600D03*
G04 #@! TD*
D16*
G04 #@! TO.P,+FUSE1,2*
G04 #@! TO.N,Net-(+FUSE1-Pad2)*
X148501100Y-95156100D03*
G04 #@! TO.P,+FUSE1,1*
G04 #@! TO.N,/+12V*
X143421100Y-95156100D03*
G04 #@! TD*
G04 #@! TO.P,-FUSE1,2*
G04 #@! TO.N,Net-(-FUSE1-Pad2)*
X148501100Y-114523600D03*
G04 #@! TO.P,-FUSE1,1*
G04 #@! TO.N,/-12V*
X153581100Y-114523600D03*
G04 #@! TD*
D17*
G04 #@! TO.N,GND*
G36*
X155152415Y-79397350D02*
G01*
X155432636Y-79481954D01*
X155691086Y-79619374D01*
X155917920Y-79804376D01*
X156104502Y-80029914D01*
X156243724Y-80287400D01*
X156330281Y-80567023D01*
X156362801Y-80876426D01*
X156362800Y-129109364D01*
X156332160Y-129421856D01*
X156246991Y-129703949D01*
X156108657Y-129964117D01*
X155922420Y-130192467D01*
X155695377Y-130380292D01*
X155436177Y-130520441D01*
X155154687Y-130607577D01*
X154843354Y-130640300D01*
X142170336Y-130640300D01*
X141857844Y-130609660D01*
X141575751Y-130524491D01*
X141315583Y-130386157D01*
X141087233Y-130199920D01*
X140899408Y-129972877D01*
X140759259Y-129713677D01*
X140672123Y-129432187D01*
X140639400Y-129120854D01*
X140639400Y-128999763D01*
X142113000Y-128999763D01*
X142113000Y-129257437D01*
X142163270Y-129510159D01*
X142261877Y-129748218D01*
X142405033Y-129962465D01*
X142587235Y-130144667D01*
X142801482Y-130287823D01*
X143039541Y-130386430D01*
X143292263Y-130436700D01*
X143549937Y-130436700D01*
X143802659Y-130386430D01*
X144040718Y-130287823D01*
X144254965Y-130144667D01*
X144437167Y-129962465D01*
X144580323Y-129748218D01*
X144678930Y-129510159D01*
X144691100Y-129448977D01*
X144703270Y-129510159D01*
X144801877Y-129748218D01*
X144945033Y-129962465D01*
X145127235Y-130144667D01*
X145341482Y-130287823D01*
X145579541Y-130386430D01*
X145832263Y-130436700D01*
X146089937Y-130436700D01*
X146342659Y-130386430D01*
X146580718Y-130287823D01*
X146794965Y-130144667D01*
X146977167Y-129962465D01*
X147120323Y-129748218D01*
X147218930Y-129510159D01*
X147231100Y-129448977D01*
X147243270Y-129510159D01*
X147341877Y-129748218D01*
X147485033Y-129962465D01*
X147667235Y-130144667D01*
X147881482Y-130287823D01*
X148119541Y-130386430D01*
X148372263Y-130436700D01*
X148629937Y-130436700D01*
X148882659Y-130386430D01*
X149120718Y-130287823D01*
X149334965Y-130144667D01*
X149517167Y-129962465D01*
X149660323Y-129748218D01*
X149758930Y-129510159D01*
X149771100Y-129448977D01*
X149783270Y-129510159D01*
X149881877Y-129748218D01*
X150025033Y-129962465D01*
X150207235Y-130144667D01*
X150421482Y-130287823D01*
X150659541Y-130386430D01*
X150912263Y-130436700D01*
X151169937Y-130436700D01*
X151422659Y-130386430D01*
X151660718Y-130287823D01*
X151874965Y-130144667D01*
X152057167Y-129962465D01*
X152200323Y-129748218D01*
X152298930Y-129510159D01*
X152311100Y-129448977D01*
X152323270Y-129510159D01*
X152421877Y-129748218D01*
X152565033Y-129962465D01*
X152747235Y-130144667D01*
X152961482Y-130287823D01*
X153199541Y-130386430D01*
X153452263Y-130436700D01*
X153709937Y-130436700D01*
X153962659Y-130386430D01*
X154200718Y-130287823D01*
X154414965Y-130144667D01*
X154597167Y-129962465D01*
X154740323Y-129748218D01*
X154838930Y-129510159D01*
X154889200Y-129257437D01*
X154889200Y-128999763D01*
X154838930Y-128747041D01*
X154740323Y-128508982D01*
X154597167Y-128294735D01*
X154414965Y-128112533D01*
X154200718Y-127969377D01*
X153962659Y-127870770D01*
X153903947Y-127859091D01*
X154117766Y-127787599D01*
X154279876Y-127700949D01*
X154380159Y-127512817D01*
X153581100Y-126713758D01*
X152782041Y-127512817D01*
X152882324Y-127700949D01*
X153112759Y-127815900D01*
X153265657Y-127857619D01*
X153199541Y-127870770D01*
X152961482Y-127969377D01*
X152747235Y-128112533D01*
X152565033Y-128294735D01*
X152421877Y-128508982D01*
X152323270Y-128747041D01*
X152311100Y-128808223D01*
X152298930Y-128747041D01*
X152200323Y-128508982D01*
X152057167Y-128294735D01*
X151874965Y-128112533D01*
X151660718Y-127969377D01*
X151422659Y-127870770D01*
X151363947Y-127859091D01*
X151577766Y-127787599D01*
X151739876Y-127700949D01*
X151840159Y-127512817D01*
X151041100Y-126713758D01*
X150242041Y-127512817D01*
X150342324Y-127700949D01*
X150572759Y-127815900D01*
X150725657Y-127857619D01*
X150659541Y-127870770D01*
X150421482Y-127969377D01*
X150207235Y-128112533D01*
X150025033Y-128294735D01*
X149881877Y-128508982D01*
X149783270Y-128747041D01*
X149771100Y-128808223D01*
X149758930Y-128747041D01*
X149660323Y-128508982D01*
X149517167Y-128294735D01*
X149334965Y-128112533D01*
X149120718Y-127969377D01*
X148882659Y-127870770D01*
X148823947Y-127859091D01*
X149037766Y-127787599D01*
X149199876Y-127700949D01*
X149300159Y-127512817D01*
X148501100Y-126713758D01*
X147702041Y-127512817D01*
X147802324Y-127700949D01*
X148032759Y-127815900D01*
X148185657Y-127857619D01*
X148119541Y-127870770D01*
X147881482Y-127969377D01*
X147667235Y-128112533D01*
X147485033Y-128294735D01*
X147341877Y-128508982D01*
X147243270Y-128747041D01*
X147231100Y-128808223D01*
X147218930Y-128747041D01*
X147120323Y-128508982D01*
X146977167Y-128294735D01*
X146794965Y-128112533D01*
X146580718Y-127969377D01*
X146342659Y-127870770D01*
X146283947Y-127859091D01*
X146497766Y-127787599D01*
X146659876Y-127700949D01*
X146760159Y-127512817D01*
X145961100Y-126713758D01*
X145162041Y-127512817D01*
X145262324Y-127700949D01*
X145492759Y-127815900D01*
X145645657Y-127857619D01*
X145579541Y-127870770D01*
X145341482Y-127969377D01*
X145127235Y-128112533D01*
X144945033Y-128294735D01*
X144801877Y-128508982D01*
X144703270Y-128747041D01*
X144691100Y-128808223D01*
X144678930Y-128747041D01*
X144580323Y-128508982D01*
X144437167Y-128294735D01*
X144254965Y-128112533D01*
X144040718Y-127969377D01*
X143802659Y-127870770D01*
X143743947Y-127859091D01*
X143957766Y-127787599D01*
X144119876Y-127700949D01*
X144220159Y-127512817D01*
X143421100Y-126713758D01*
X142622041Y-127512817D01*
X142722324Y-127700949D01*
X142952759Y-127815900D01*
X143105657Y-127857619D01*
X143039541Y-127870770D01*
X142801482Y-127969377D01*
X142587235Y-128112533D01*
X142405033Y-128294735D01*
X142261877Y-128508982D01*
X142163270Y-128747041D01*
X142113000Y-128999763D01*
X140639400Y-128999763D01*
X140639400Y-126625577D01*
X142107997Y-126625577D01*
X142140442Y-126881041D01*
X142222101Y-127125266D01*
X142308751Y-127287376D01*
X142496883Y-127387659D01*
X143295942Y-126588600D01*
X143546258Y-126588600D01*
X144345317Y-127387659D01*
X144533449Y-127287376D01*
X144648400Y-127056941D01*
X144689226Y-126907313D01*
X144762101Y-127125266D01*
X144848751Y-127287376D01*
X145036883Y-127387659D01*
X145835942Y-126588600D01*
X146086258Y-126588600D01*
X146885317Y-127387659D01*
X147073449Y-127287376D01*
X147188400Y-127056941D01*
X147229226Y-126907313D01*
X147302101Y-127125266D01*
X147388751Y-127287376D01*
X147576883Y-127387659D01*
X148375942Y-126588600D01*
X148626258Y-126588600D01*
X149425317Y-127387659D01*
X149613449Y-127287376D01*
X149728400Y-127056941D01*
X149769226Y-126907313D01*
X149842101Y-127125266D01*
X149928751Y-127287376D01*
X150116883Y-127387659D01*
X150915942Y-126588600D01*
X151166258Y-126588600D01*
X151965317Y-127387659D01*
X152153449Y-127287376D01*
X152268400Y-127056941D01*
X152309226Y-126907313D01*
X152382101Y-127125266D01*
X152468751Y-127287376D01*
X152656883Y-127387659D01*
X153455942Y-126588600D01*
X153706258Y-126588600D01*
X154505317Y-127387659D01*
X154693449Y-127287376D01*
X154808400Y-127056941D01*
X154876186Y-126808507D01*
X154894203Y-126551623D01*
X154861758Y-126296159D01*
X154780099Y-126051934D01*
X154693449Y-125889824D01*
X154505317Y-125789541D01*
X153706258Y-126588600D01*
X153455942Y-126588600D01*
X152656883Y-125789541D01*
X152468751Y-125889824D01*
X152353800Y-126120259D01*
X152312974Y-126269887D01*
X152240099Y-126051934D01*
X152153449Y-125889824D01*
X151965317Y-125789541D01*
X151166258Y-126588600D01*
X150915942Y-126588600D01*
X150116883Y-125789541D01*
X149928751Y-125889824D01*
X149813800Y-126120259D01*
X149772974Y-126269887D01*
X149700099Y-126051934D01*
X149613449Y-125889824D01*
X149425317Y-125789541D01*
X148626258Y-126588600D01*
X148375942Y-126588600D01*
X147576883Y-125789541D01*
X147388751Y-125889824D01*
X147273800Y-126120259D01*
X147232974Y-126269887D01*
X147160099Y-126051934D01*
X147073449Y-125889824D01*
X146885317Y-125789541D01*
X146086258Y-126588600D01*
X145835942Y-126588600D01*
X145036883Y-125789541D01*
X144848751Y-125889824D01*
X144733800Y-126120259D01*
X144692974Y-126269887D01*
X144620099Y-126051934D01*
X144533449Y-125889824D01*
X144345317Y-125789541D01*
X143546258Y-126588600D01*
X143295942Y-126588600D01*
X142496883Y-125789541D01*
X142308751Y-125889824D01*
X142193800Y-126120259D01*
X142126014Y-126368693D01*
X142107997Y-126625577D01*
X140639400Y-126625577D01*
X140639400Y-125664383D01*
X142622041Y-125664383D01*
X143421100Y-126463442D01*
X144220159Y-125664383D01*
X145162041Y-125664383D01*
X145961100Y-126463442D01*
X146760159Y-125664383D01*
X147702041Y-125664383D01*
X148501100Y-126463442D01*
X149300159Y-125664383D01*
X150242041Y-125664383D01*
X151041100Y-126463442D01*
X151840159Y-125664383D01*
X152782041Y-125664383D01*
X153581100Y-126463442D01*
X154380159Y-125664383D01*
X154279876Y-125476251D01*
X154049441Y-125361300D01*
X153801007Y-125293514D01*
X153544123Y-125275497D01*
X153288659Y-125307942D01*
X153044434Y-125389601D01*
X152882324Y-125476251D01*
X152782041Y-125664383D01*
X151840159Y-125664383D01*
X151739876Y-125476251D01*
X151509441Y-125361300D01*
X151261007Y-125293514D01*
X151004123Y-125275497D01*
X150748659Y-125307942D01*
X150504434Y-125389601D01*
X150342324Y-125476251D01*
X150242041Y-125664383D01*
X149300159Y-125664383D01*
X149199876Y-125476251D01*
X148969441Y-125361300D01*
X148721007Y-125293514D01*
X148464123Y-125275497D01*
X148208659Y-125307942D01*
X147964434Y-125389601D01*
X147802324Y-125476251D01*
X147702041Y-125664383D01*
X146760159Y-125664383D01*
X146659876Y-125476251D01*
X146429441Y-125361300D01*
X146181007Y-125293514D01*
X145924123Y-125275497D01*
X145668659Y-125307942D01*
X145424434Y-125389601D01*
X145262324Y-125476251D01*
X145162041Y-125664383D01*
X144220159Y-125664383D01*
X144119876Y-125476251D01*
X143889441Y-125361300D01*
X143641007Y-125293514D01*
X143384123Y-125275497D01*
X143128659Y-125307942D01*
X142884434Y-125389601D01*
X142722324Y-125476251D01*
X142622041Y-125664383D01*
X140639400Y-125664383D01*
X140639400Y-122847768D01*
X141554200Y-122847768D01*
X141554200Y-123090432D01*
X141601541Y-123328432D01*
X141694404Y-123552624D01*
X141829221Y-123754391D01*
X142000809Y-123925979D01*
X142202576Y-124060796D01*
X142426768Y-124153659D01*
X142664768Y-124201000D01*
X142907432Y-124201000D01*
X143145432Y-124153659D01*
X143369624Y-124060796D01*
X143571391Y-123925979D01*
X143742979Y-123754391D01*
X143877796Y-123552624D01*
X143970659Y-123328432D01*
X144018000Y-123090432D01*
X144018000Y-122847768D01*
X143970659Y-122609768D01*
X143877796Y-122385576D01*
X143742979Y-122183809D01*
X143603954Y-122044784D01*
X145211800Y-122044784D01*
X145211800Y-122242416D01*
X145250356Y-122436252D01*
X145325987Y-122618841D01*
X145435786Y-122783167D01*
X145575533Y-122922914D01*
X145739859Y-123032713D01*
X145922448Y-123108344D01*
X146116284Y-123146900D01*
X146313916Y-123146900D01*
X146507752Y-123108344D01*
X146690341Y-123032713D01*
X146854667Y-122922914D01*
X146927095Y-122850486D01*
X147665372Y-122850486D01*
X147728882Y-123007432D01*
X147907365Y-123091933D01*
X148098904Y-123139991D01*
X148296137Y-123149757D01*
X148491487Y-123120858D01*
X148677444Y-123054402D01*
X148765318Y-123007432D01*
X148828828Y-122850486D01*
X148247100Y-122268758D01*
X147665372Y-122850486D01*
X146927095Y-122850486D01*
X146994414Y-122783167D01*
X147104213Y-122618841D01*
X147179844Y-122436252D01*
X147218400Y-122242416D01*
X147218400Y-122192637D01*
X147240943Y-122192637D01*
X147269842Y-122387987D01*
X147336298Y-122573944D01*
X147383268Y-122661818D01*
X147540214Y-122725328D01*
X148121942Y-122143600D01*
X148372258Y-122143600D01*
X148953986Y-122725328D01*
X149110932Y-122661818D01*
X149195433Y-122483335D01*
X149243491Y-122291796D01*
X149253257Y-122094563D01*
X149224358Y-121899213D01*
X149157902Y-121713256D01*
X149110932Y-121625382D01*
X148953986Y-121561872D01*
X148372258Y-122143600D01*
X148121942Y-122143600D01*
X147540214Y-121561872D01*
X147383268Y-121625382D01*
X147298767Y-121803865D01*
X147250709Y-121995404D01*
X147240943Y-122192637D01*
X147218400Y-122192637D01*
X147218400Y-122044784D01*
X147179844Y-121850948D01*
X147104213Y-121668359D01*
X146994414Y-121504033D01*
X146927095Y-121436714D01*
X147665372Y-121436714D01*
X148247100Y-122018442D01*
X148828828Y-121436714D01*
X148765318Y-121279768D01*
X148586835Y-121195267D01*
X148395296Y-121147209D01*
X148198063Y-121137443D01*
X148002713Y-121166342D01*
X147816756Y-121232798D01*
X147728882Y-121279768D01*
X147665372Y-121436714D01*
X146927095Y-121436714D01*
X146854667Y-121364286D01*
X146690341Y-121254487D01*
X146507752Y-121178856D01*
X146313916Y-121140300D01*
X146116284Y-121140300D01*
X145922448Y-121178856D01*
X145739859Y-121254487D01*
X145575533Y-121364286D01*
X145435786Y-121504033D01*
X145325987Y-121668359D01*
X145250356Y-121850948D01*
X145211800Y-122044784D01*
X143603954Y-122044784D01*
X143571391Y-122012221D01*
X143369624Y-121877404D01*
X143145432Y-121784541D01*
X142907432Y-121737200D01*
X142664768Y-121737200D01*
X142426768Y-121784541D01*
X142202576Y-121877404D01*
X142000809Y-122012221D01*
X141829221Y-122183809D01*
X141694404Y-122385576D01*
X141601541Y-122609768D01*
X141554200Y-122847768D01*
X140639400Y-122847768D01*
X140639400Y-117698600D01*
X144612524Y-117698600D01*
X144635174Y-117928568D01*
X144702253Y-118149698D01*
X144811184Y-118353493D01*
X144957779Y-118532121D01*
X145136407Y-118678716D01*
X145340202Y-118787647D01*
X145561332Y-118854726D01*
X145733671Y-118871700D01*
X147458529Y-118871700D01*
X147630868Y-118854726D01*
X147851998Y-118787647D01*
X148055793Y-118678716D01*
X148234421Y-118532121D01*
X148381016Y-118353493D01*
X148489947Y-118149698D01*
X148544799Y-117968875D01*
X152270581Y-117968875D01*
X152294369Y-118065456D01*
X152387401Y-118276309D01*
X152519780Y-118464961D01*
X152686420Y-118624163D01*
X152880917Y-118747796D01*
X153095796Y-118831109D01*
X153322800Y-118870900D01*
X154127600Y-118870900D01*
X154127600Y-117787100D01*
X154304600Y-117787100D01*
X154304600Y-118870900D01*
X155109400Y-118870900D01*
X155336404Y-118831109D01*
X155551283Y-118747796D01*
X155745780Y-118624163D01*
X155912420Y-118464961D01*
X156044799Y-118276309D01*
X156137831Y-118065456D01*
X156161619Y-117968875D01*
X156097694Y-117787100D01*
X154304600Y-117787100D01*
X154127600Y-117787100D01*
X152334506Y-117787100D01*
X152270581Y-117968875D01*
X148544799Y-117968875D01*
X148557026Y-117928568D01*
X148579676Y-117698600D01*
X148557026Y-117468632D01*
X148544800Y-117428325D01*
X152270581Y-117428325D01*
X152334506Y-117610100D01*
X154127600Y-117610100D01*
X154127600Y-116526300D01*
X154304600Y-116526300D01*
X154304600Y-117610100D01*
X156097694Y-117610100D01*
X156161619Y-117428325D01*
X156137831Y-117331744D01*
X156044799Y-117120891D01*
X155912420Y-116932239D01*
X155745780Y-116773037D01*
X155551283Y-116649404D01*
X155336404Y-116566091D01*
X155109400Y-116526300D01*
X154304600Y-116526300D01*
X154127600Y-116526300D01*
X153322800Y-116526300D01*
X153095796Y-116566091D01*
X152880917Y-116649404D01*
X152686420Y-116773037D01*
X152519780Y-116932239D01*
X152387401Y-117120891D01*
X152294369Y-117331744D01*
X152270581Y-117428325D01*
X148544800Y-117428325D01*
X148489947Y-117247502D01*
X148381016Y-117043707D01*
X148234421Y-116865079D01*
X148055793Y-116718484D01*
X147851998Y-116609553D01*
X147630868Y-116542474D01*
X147458529Y-116525500D01*
X145733671Y-116525500D01*
X145561332Y-116542474D01*
X145340202Y-116609553D01*
X145136407Y-116718484D01*
X144957779Y-116865079D01*
X144811184Y-117043707D01*
X144702253Y-117247502D01*
X144635174Y-117468632D01*
X144612524Y-117698600D01*
X140639400Y-117698600D01*
X140639400Y-114211768D01*
X141554200Y-114211768D01*
X141554200Y-114454432D01*
X141601541Y-114692432D01*
X141694404Y-114916624D01*
X141829221Y-115118391D01*
X142000809Y-115289979D01*
X142202576Y-115424796D01*
X142426768Y-115517659D01*
X142664768Y-115565000D01*
X142907432Y-115565000D01*
X143145432Y-115517659D01*
X143369624Y-115424796D01*
X143571391Y-115289979D01*
X143742979Y-115118391D01*
X143877796Y-114916624D01*
X143970659Y-114692432D01*
X144018000Y-114454432D01*
X144018000Y-114417279D01*
X147421600Y-114417279D01*
X147421600Y-114629921D01*
X147463085Y-114838478D01*
X147544460Y-115034935D01*
X147662598Y-115211741D01*
X147812959Y-115362102D01*
X147989765Y-115480240D01*
X148186222Y-115561615D01*
X148394779Y-115603100D01*
X148607421Y-115603100D01*
X148815978Y-115561615D01*
X149012435Y-115480240D01*
X149189241Y-115362102D01*
X149339602Y-115211741D01*
X149457740Y-115034935D01*
X149539115Y-114838478D01*
X149580600Y-114629921D01*
X149580600Y-114417279D01*
X152501600Y-114417279D01*
X152501600Y-114629921D01*
X152543085Y-114838478D01*
X152624460Y-115034935D01*
X152742598Y-115211741D01*
X152892959Y-115362102D01*
X153069765Y-115480240D01*
X153266222Y-115561615D01*
X153474779Y-115603100D01*
X153687421Y-115603100D01*
X153895978Y-115561615D01*
X154092435Y-115480240D01*
X154269241Y-115362102D01*
X154419602Y-115211741D01*
X154537740Y-115034935D01*
X154619115Y-114838478D01*
X154660600Y-114629921D01*
X154660600Y-114417279D01*
X154619115Y-114208722D01*
X154537740Y-114012265D01*
X154419602Y-113835459D01*
X154269241Y-113685098D01*
X154092435Y-113566960D01*
X153895978Y-113485585D01*
X153687421Y-113444100D01*
X153474779Y-113444100D01*
X153266222Y-113485585D01*
X153069765Y-113566960D01*
X152892959Y-113685098D01*
X152742598Y-113835459D01*
X152624460Y-114012265D01*
X152543085Y-114208722D01*
X152501600Y-114417279D01*
X149580600Y-114417279D01*
X149539115Y-114208722D01*
X149457740Y-114012265D01*
X149339602Y-113835459D01*
X149189241Y-113685098D01*
X149012435Y-113566960D01*
X148815978Y-113485585D01*
X148607421Y-113444100D01*
X148394779Y-113444100D01*
X148186222Y-113485585D01*
X147989765Y-113566960D01*
X147812959Y-113685098D01*
X147662598Y-113835459D01*
X147544460Y-114012265D01*
X147463085Y-114208722D01*
X147421600Y-114417279D01*
X144018000Y-114417279D01*
X144018000Y-114211768D01*
X143970659Y-113973768D01*
X143877796Y-113749576D01*
X143742979Y-113547809D01*
X143571391Y-113376221D01*
X143369624Y-113241404D01*
X143145432Y-113148541D01*
X142907432Y-113101200D01*
X142664768Y-113101200D01*
X142426768Y-113148541D01*
X142202576Y-113241404D01*
X142000809Y-113376221D01*
X141829221Y-113547809D01*
X141694404Y-113749576D01*
X141601541Y-113973768D01*
X141554200Y-114211768D01*
X140639400Y-114211768D01*
X140639400Y-110607909D01*
X142348000Y-110607909D01*
X142348000Y-110819291D01*
X142389239Y-111026612D01*
X142470131Y-111221903D01*
X142587569Y-111397661D01*
X142737039Y-111547131D01*
X142912797Y-111664569D01*
X143108088Y-111745461D01*
X143315409Y-111786700D01*
X143526791Y-111786700D01*
X143734112Y-111745461D01*
X143929403Y-111664569D01*
X144105161Y-111547131D01*
X144181994Y-111470298D01*
X145329560Y-111470298D01*
X145401506Y-111634380D01*
X145591894Y-111725859D01*
X145796471Y-111778437D01*
X146007374Y-111790094D01*
X146216498Y-111760382D01*
X146415809Y-111690443D01*
X146520694Y-111634380D01*
X146592640Y-111470298D01*
X147869560Y-111470298D01*
X147941506Y-111634380D01*
X148131894Y-111725859D01*
X148336471Y-111778437D01*
X148547374Y-111790094D01*
X148756498Y-111760382D01*
X148955809Y-111690443D01*
X149060694Y-111634380D01*
X149132640Y-111470298D01*
X150409560Y-111470298D01*
X150481506Y-111634380D01*
X150671894Y-111725859D01*
X150876471Y-111778437D01*
X151087374Y-111790094D01*
X151296498Y-111760382D01*
X151495809Y-111690443D01*
X151600694Y-111634380D01*
X151672640Y-111470298D01*
X151041100Y-110838758D01*
X150409560Y-111470298D01*
X149132640Y-111470298D01*
X148501100Y-110838758D01*
X147869560Y-111470298D01*
X146592640Y-111470298D01*
X145961100Y-110838758D01*
X145329560Y-111470298D01*
X144181994Y-111470298D01*
X144254631Y-111397661D01*
X144372069Y-111221903D01*
X144452961Y-111026612D01*
X144494200Y-110819291D01*
X144494200Y-110759874D01*
X144884606Y-110759874D01*
X144914318Y-110968998D01*
X144984257Y-111168309D01*
X145040320Y-111273194D01*
X145204402Y-111345140D01*
X145835942Y-110713600D01*
X146086258Y-110713600D01*
X146717798Y-111345140D01*
X146881880Y-111273194D01*
X146973359Y-111082806D01*
X147025937Y-110878229D01*
X147032478Y-110759874D01*
X147424606Y-110759874D01*
X147454318Y-110968998D01*
X147524257Y-111168309D01*
X147580320Y-111273194D01*
X147744402Y-111345140D01*
X148375942Y-110713600D01*
X148626258Y-110713600D01*
X149257798Y-111345140D01*
X149421880Y-111273194D01*
X149513359Y-111082806D01*
X149565937Y-110878229D01*
X149572478Y-110759874D01*
X149964606Y-110759874D01*
X149994318Y-110968998D01*
X150064257Y-111168309D01*
X150120320Y-111273194D01*
X150284402Y-111345140D01*
X150915942Y-110713600D01*
X151166258Y-110713600D01*
X151797798Y-111345140D01*
X151961880Y-111273194D01*
X152053359Y-111082806D01*
X152105937Y-110878229D01*
X152117594Y-110667326D01*
X152109153Y-110607909D01*
X152508000Y-110607909D01*
X152508000Y-110819291D01*
X152549239Y-111026612D01*
X152630131Y-111221903D01*
X152747569Y-111397661D01*
X152897039Y-111547131D01*
X153072797Y-111664569D01*
X153268088Y-111745461D01*
X153475409Y-111786700D01*
X153686791Y-111786700D01*
X153894112Y-111745461D01*
X154089403Y-111664569D01*
X154265161Y-111547131D01*
X154414631Y-111397661D01*
X154532069Y-111221903D01*
X154612961Y-111026612D01*
X154654200Y-110819291D01*
X154654200Y-110607909D01*
X154612961Y-110400588D01*
X154532069Y-110205297D01*
X154414631Y-110029539D01*
X154265161Y-109880069D01*
X154089403Y-109762631D01*
X153894112Y-109681739D01*
X153686791Y-109640500D01*
X153475409Y-109640500D01*
X153268088Y-109681739D01*
X153072797Y-109762631D01*
X152897039Y-109880069D01*
X152747569Y-110029539D01*
X152630131Y-110205297D01*
X152549239Y-110400588D01*
X152508000Y-110607909D01*
X152109153Y-110607909D01*
X152087882Y-110458202D01*
X152017943Y-110258891D01*
X151961880Y-110154006D01*
X151797798Y-110082060D01*
X151166258Y-110713600D01*
X150915942Y-110713600D01*
X150284402Y-110082060D01*
X150120320Y-110154006D01*
X150028841Y-110344394D01*
X149976263Y-110548971D01*
X149964606Y-110759874D01*
X149572478Y-110759874D01*
X149577594Y-110667326D01*
X149547882Y-110458202D01*
X149477943Y-110258891D01*
X149421880Y-110154006D01*
X149257798Y-110082060D01*
X148626258Y-110713600D01*
X148375942Y-110713600D01*
X147744402Y-110082060D01*
X147580320Y-110154006D01*
X147488841Y-110344394D01*
X147436263Y-110548971D01*
X147424606Y-110759874D01*
X147032478Y-110759874D01*
X147037594Y-110667326D01*
X147007882Y-110458202D01*
X146937943Y-110258891D01*
X146881880Y-110154006D01*
X146717798Y-110082060D01*
X146086258Y-110713600D01*
X145835942Y-110713600D01*
X145204402Y-110082060D01*
X145040320Y-110154006D01*
X144948841Y-110344394D01*
X144896263Y-110548971D01*
X144884606Y-110759874D01*
X144494200Y-110759874D01*
X144494200Y-110607909D01*
X144452961Y-110400588D01*
X144372069Y-110205297D01*
X144254631Y-110029539D01*
X144181994Y-109956902D01*
X145329560Y-109956902D01*
X145961100Y-110588442D01*
X146592640Y-109956902D01*
X147869560Y-109956902D01*
X148501100Y-110588442D01*
X149132640Y-109956902D01*
X150409560Y-109956902D01*
X151041100Y-110588442D01*
X151672640Y-109956902D01*
X151600694Y-109792820D01*
X151410306Y-109701341D01*
X151205729Y-109648763D01*
X150994826Y-109637106D01*
X150785702Y-109666818D01*
X150586391Y-109736757D01*
X150481506Y-109792820D01*
X150409560Y-109956902D01*
X149132640Y-109956902D01*
X149060694Y-109792820D01*
X148870306Y-109701341D01*
X148665729Y-109648763D01*
X148454826Y-109637106D01*
X148245702Y-109666818D01*
X148046391Y-109736757D01*
X147941506Y-109792820D01*
X147869560Y-109956902D01*
X146592640Y-109956902D01*
X146520694Y-109792820D01*
X146330306Y-109701341D01*
X146125729Y-109648763D01*
X145914826Y-109637106D01*
X145705702Y-109666818D01*
X145506391Y-109736757D01*
X145401506Y-109792820D01*
X145329560Y-109956902D01*
X144181994Y-109956902D01*
X144105161Y-109880069D01*
X143929403Y-109762631D01*
X143734112Y-109681739D01*
X143526791Y-109640500D01*
X143315409Y-109640500D01*
X143108088Y-109681739D01*
X142912797Y-109762631D01*
X142737039Y-109880069D01*
X142587569Y-110029539D01*
X142470131Y-110205297D01*
X142389239Y-110400588D01*
X142348000Y-110607909D01*
X140639400Y-110607909D01*
X140639400Y-108067909D01*
X142348000Y-108067909D01*
X142348000Y-108279291D01*
X142389239Y-108486612D01*
X142470131Y-108681903D01*
X142587569Y-108857661D01*
X142737039Y-109007131D01*
X142912797Y-109124569D01*
X143108088Y-109205461D01*
X143315409Y-109246700D01*
X143526791Y-109246700D01*
X143734112Y-109205461D01*
X143929403Y-109124569D01*
X144105161Y-109007131D01*
X144181994Y-108930298D01*
X145329560Y-108930298D01*
X145401506Y-109094380D01*
X145591894Y-109185859D01*
X145796471Y-109238437D01*
X146007374Y-109250094D01*
X146216498Y-109220382D01*
X146415809Y-109150443D01*
X146520694Y-109094380D01*
X146592640Y-108930298D01*
X147869560Y-108930298D01*
X147941506Y-109094380D01*
X148131894Y-109185859D01*
X148336471Y-109238437D01*
X148547374Y-109250094D01*
X148756498Y-109220382D01*
X148955809Y-109150443D01*
X149060694Y-109094380D01*
X149132640Y-108930298D01*
X150409560Y-108930298D01*
X150481506Y-109094380D01*
X150671894Y-109185859D01*
X150876471Y-109238437D01*
X151087374Y-109250094D01*
X151296498Y-109220382D01*
X151495809Y-109150443D01*
X151600694Y-109094380D01*
X151672640Y-108930298D01*
X151041100Y-108298758D01*
X150409560Y-108930298D01*
X149132640Y-108930298D01*
X148501100Y-108298758D01*
X147869560Y-108930298D01*
X146592640Y-108930298D01*
X145961100Y-108298758D01*
X145329560Y-108930298D01*
X144181994Y-108930298D01*
X144254631Y-108857661D01*
X144372069Y-108681903D01*
X144452961Y-108486612D01*
X144494200Y-108279291D01*
X144494200Y-108219874D01*
X144884606Y-108219874D01*
X144914318Y-108428998D01*
X144984257Y-108628309D01*
X145040320Y-108733194D01*
X145204402Y-108805140D01*
X145835942Y-108173600D01*
X146086258Y-108173600D01*
X146717798Y-108805140D01*
X146881880Y-108733194D01*
X146973359Y-108542806D01*
X147025937Y-108338229D01*
X147032478Y-108219874D01*
X147424606Y-108219874D01*
X147454318Y-108428998D01*
X147524257Y-108628309D01*
X147580320Y-108733194D01*
X147744402Y-108805140D01*
X148375942Y-108173600D01*
X148626258Y-108173600D01*
X149257798Y-108805140D01*
X149421880Y-108733194D01*
X149513359Y-108542806D01*
X149565937Y-108338229D01*
X149572478Y-108219874D01*
X149964606Y-108219874D01*
X149994318Y-108428998D01*
X150064257Y-108628309D01*
X150120320Y-108733194D01*
X150284402Y-108805140D01*
X150915942Y-108173600D01*
X151166258Y-108173600D01*
X151797798Y-108805140D01*
X151961880Y-108733194D01*
X152053359Y-108542806D01*
X152105937Y-108338229D01*
X152117594Y-108127326D01*
X152087882Y-107918202D01*
X152017943Y-107718891D01*
X151961880Y-107614006D01*
X151797798Y-107542060D01*
X151166258Y-108173600D01*
X150915942Y-108173600D01*
X150284402Y-107542060D01*
X150120320Y-107614006D01*
X150028841Y-107804394D01*
X149976263Y-108008971D01*
X149964606Y-108219874D01*
X149572478Y-108219874D01*
X149577594Y-108127326D01*
X149547882Y-107918202D01*
X149477943Y-107718891D01*
X149421880Y-107614006D01*
X149257798Y-107542060D01*
X148626258Y-108173600D01*
X148375942Y-108173600D01*
X147744402Y-107542060D01*
X147580320Y-107614006D01*
X147488841Y-107804394D01*
X147436263Y-108008971D01*
X147424606Y-108219874D01*
X147032478Y-108219874D01*
X147037594Y-108127326D01*
X147007882Y-107918202D01*
X146937943Y-107718891D01*
X146881880Y-107614006D01*
X146717798Y-107542060D01*
X146086258Y-108173600D01*
X145835942Y-108173600D01*
X145204402Y-107542060D01*
X145040320Y-107614006D01*
X144948841Y-107804394D01*
X144896263Y-108008971D01*
X144884606Y-108219874D01*
X144494200Y-108219874D01*
X144494200Y-108067909D01*
X144452961Y-107860588D01*
X144372069Y-107665297D01*
X144254631Y-107489539D01*
X144181994Y-107416902D01*
X145329560Y-107416902D01*
X145961100Y-108048442D01*
X146592640Y-107416902D01*
X147869560Y-107416902D01*
X148501100Y-108048442D01*
X149132640Y-107416902D01*
X150409560Y-107416902D01*
X151041100Y-108048442D01*
X151620742Y-107468800D01*
X152506218Y-107468800D01*
X152506218Y-108878400D01*
X152513329Y-108950599D01*
X152534389Y-109020024D01*
X152568588Y-109084007D01*
X152614613Y-109140087D01*
X152670693Y-109186112D01*
X152734676Y-109220311D01*
X152804101Y-109241371D01*
X152876300Y-109248482D01*
X154285900Y-109248482D01*
X154358099Y-109241371D01*
X154427524Y-109220311D01*
X154491507Y-109186112D01*
X154547587Y-109140087D01*
X154593612Y-109084007D01*
X154627811Y-109020024D01*
X154648871Y-108950599D01*
X154655982Y-108878400D01*
X154655982Y-107468800D01*
X154648871Y-107396601D01*
X154627811Y-107327176D01*
X154593612Y-107263193D01*
X154547587Y-107207113D01*
X154491507Y-107161088D01*
X154427524Y-107126889D01*
X154358099Y-107105829D01*
X154285900Y-107098718D01*
X152876300Y-107098718D01*
X152804101Y-107105829D01*
X152734676Y-107126889D01*
X152670693Y-107161088D01*
X152614613Y-107207113D01*
X152568588Y-107263193D01*
X152534389Y-107327176D01*
X152513329Y-107396601D01*
X152506218Y-107468800D01*
X151620742Y-107468800D01*
X151672640Y-107416902D01*
X151600694Y-107252820D01*
X151410306Y-107161341D01*
X151205729Y-107108763D01*
X150994826Y-107097106D01*
X150785702Y-107126818D01*
X150586391Y-107196757D01*
X150481506Y-107252820D01*
X150409560Y-107416902D01*
X149132640Y-107416902D01*
X149060694Y-107252820D01*
X148870306Y-107161341D01*
X148665729Y-107108763D01*
X148454826Y-107097106D01*
X148245702Y-107126818D01*
X148046391Y-107196757D01*
X147941506Y-107252820D01*
X147869560Y-107416902D01*
X146592640Y-107416902D01*
X146520694Y-107252820D01*
X146330306Y-107161341D01*
X146125729Y-107108763D01*
X145914826Y-107097106D01*
X145705702Y-107126818D01*
X145506391Y-107196757D01*
X145401506Y-107252820D01*
X145329560Y-107416902D01*
X144181994Y-107416902D01*
X144105161Y-107340069D01*
X143929403Y-107222631D01*
X143734112Y-107141739D01*
X143526791Y-107100500D01*
X143315409Y-107100500D01*
X143108088Y-107141739D01*
X142912797Y-107222631D01*
X142737039Y-107340069D01*
X142587569Y-107489539D01*
X142470131Y-107665297D01*
X142389239Y-107860588D01*
X142348000Y-108067909D01*
X140639400Y-108067909D01*
X140639400Y-101717909D01*
X142348000Y-101717909D01*
X142348000Y-101929291D01*
X142389239Y-102136612D01*
X142470131Y-102331903D01*
X142587569Y-102507661D01*
X142737039Y-102657131D01*
X142912797Y-102774569D01*
X143108088Y-102855461D01*
X143315409Y-102896700D01*
X143526791Y-102896700D01*
X143734112Y-102855461D01*
X143929403Y-102774569D01*
X144105161Y-102657131D01*
X144181994Y-102580298D01*
X145329560Y-102580298D01*
X145401506Y-102744380D01*
X145591894Y-102835859D01*
X145796471Y-102888437D01*
X146007374Y-102900094D01*
X146216498Y-102870382D01*
X146415809Y-102800443D01*
X146520694Y-102744380D01*
X146592640Y-102580298D01*
X147869560Y-102580298D01*
X147941506Y-102744380D01*
X148131894Y-102835859D01*
X148336471Y-102888437D01*
X148547374Y-102900094D01*
X148756498Y-102870382D01*
X148955809Y-102800443D01*
X149060694Y-102744380D01*
X149132640Y-102580298D01*
X150409560Y-102580298D01*
X150481506Y-102744380D01*
X150671894Y-102835859D01*
X150876471Y-102888437D01*
X151087374Y-102900094D01*
X151296498Y-102870382D01*
X151495809Y-102800443D01*
X151600694Y-102744380D01*
X151672640Y-102580298D01*
X151041100Y-101948758D01*
X150409560Y-102580298D01*
X149132640Y-102580298D01*
X148501100Y-101948758D01*
X147869560Y-102580298D01*
X146592640Y-102580298D01*
X145961100Y-101948758D01*
X145329560Y-102580298D01*
X144181994Y-102580298D01*
X144254631Y-102507661D01*
X144372069Y-102331903D01*
X144452961Y-102136612D01*
X144494200Y-101929291D01*
X144494200Y-101869874D01*
X144884606Y-101869874D01*
X144914318Y-102078998D01*
X144984257Y-102278309D01*
X145040320Y-102383194D01*
X145204402Y-102455140D01*
X145835942Y-101823600D01*
X146086258Y-101823600D01*
X146717798Y-102455140D01*
X146881880Y-102383194D01*
X146973359Y-102192806D01*
X147025937Y-101988229D01*
X147032478Y-101869874D01*
X147424606Y-101869874D01*
X147454318Y-102078998D01*
X147524257Y-102278309D01*
X147580320Y-102383194D01*
X147744402Y-102455140D01*
X148375942Y-101823600D01*
X148626258Y-101823600D01*
X149257798Y-102455140D01*
X149421880Y-102383194D01*
X149513359Y-102192806D01*
X149565937Y-101988229D01*
X149572478Y-101869874D01*
X149964606Y-101869874D01*
X149994318Y-102078998D01*
X150064257Y-102278309D01*
X150120320Y-102383194D01*
X150284402Y-102455140D01*
X150915942Y-101823600D01*
X151166258Y-101823600D01*
X151797798Y-102455140D01*
X151961880Y-102383194D01*
X152053359Y-102192806D01*
X152105937Y-101988229D01*
X152117594Y-101777326D01*
X152109153Y-101717909D01*
X152508000Y-101717909D01*
X152508000Y-101929291D01*
X152549239Y-102136612D01*
X152630131Y-102331903D01*
X152747569Y-102507661D01*
X152897039Y-102657131D01*
X153072797Y-102774569D01*
X153268088Y-102855461D01*
X153475409Y-102896700D01*
X153686791Y-102896700D01*
X153894112Y-102855461D01*
X154089403Y-102774569D01*
X154265161Y-102657131D01*
X154414631Y-102507661D01*
X154532069Y-102331903D01*
X154612961Y-102136612D01*
X154654200Y-101929291D01*
X154654200Y-101717909D01*
X154612961Y-101510588D01*
X154532069Y-101315297D01*
X154414631Y-101139539D01*
X154265161Y-100990069D01*
X154089403Y-100872631D01*
X153894112Y-100791739D01*
X153686791Y-100750500D01*
X153475409Y-100750500D01*
X153268088Y-100791739D01*
X153072797Y-100872631D01*
X152897039Y-100990069D01*
X152747569Y-101139539D01*
X152630131Y-101315297D01*
X152549239Y-101510588D01*
X152508000Y-101717909D01*
X152109153Y-101717909D01*
X152087882Y-101568202D01*
X152017943Y-101368891D01*
X151961880Y-101264006D01*
X151797798Y-101192060D01*
X151166258Y-101823600D01*
X150915942Y-101823600D01*
X150284402Y-101192060D01*
X150120320Y-101264006D01*
X150028841Y-101454394D01*
X149976263Y-101658971D01*
X149964606Y-101869874D01*
X149572478Y-101869874D01*
X149577594Y-101777326D01*
X149547882Y-101568202D01*
X149477943Y-101368891D01*
X149421880Y-101264006D01*
X149257798Y-101192060D01*
X148626258Y-101823600D01*
X148375942Y-101823600D01*
X147744402Y-101192060D01*
X147580320Y-101264006D01*
X147488841Y-101454394D01*
X147436263Y-101658971D01*
X147424606Y-101869874D01*
X147032478Y-101869874D01*
X147037594Y-101777326D01*
X147007882Y-101568202D01*
X146937943Y-101368891D01*
X146881880Y-101264006D01*
X146717798Y-101192060D01*
X146086258Y-101823600D01*
X145835942Y-101823600D01*
X145204402Y-101192060D01*
X145040320Y-101264006D01*
X144948841Y-101454394D01*
X144896263Y-101658971D01*
X144884606Y-101869874D01*
X144494200Y-101869874D01*
X144494200Y-101717909D01*
X144452961Y-101510588D01*
X144372069Y-101315297D01*
X144254631Y-101139539D01*
X144181994Y-101066902D01*
X145329560Y-101066902D01*
X145961100Y-101698442D01*
X146592640Y-101066902D01*
X147869560Y-101066902D01*
X148501100Y-101698442D01*
X149132640Y-101066902D01*
X150409560Y-101066902D01*
X151041100Y-101698442D01*
X151672640Y-101066902D01*
X151600694Y-100902820D01*
X151410306Y-100811341D01*
X151205729Y-100758763D01*
X150994826Y-100747106D01*
X150785702Y-100776818D01*
X150586391Y-100846757D01*
X150481506Y-100902820D01*
X150409560Y-101066902D01*
X149132640Y-101066902D01*
X149060694Y-100902820D01*
X148870306Y-100811341D01*
X148665729Y-100758763D01*
X148454826Y-100747106D01*
X148245702Y-100776818D01*
X148046391Y-100846757D01*
X147941506Y-100902820D01*
X147869560Y-101066902D01*
X146592640Y-101066902D01*
X146520694Y-100902820D01*
X146330306Y-100811341D01*
X146125729Y-100758763D01*
X145914826Y-100747106D01*
X145705702Y-100776818D01*
X145506391Y-100846757D01*
X145401506Y-100902820D01*
X145329560Y-101066902D01*
X144181994Y-101066902D01*
X144105161Y-100990069D01*
X143929403Y-100872631D01*
X143734112Y-100791739D01*
X143526791Y-100750500D01*
X143315409Y-100750500D01*
X143108088Y-100791739D01*
X142912797Y-100872631D01*
X142737039Y-100990069D01*
X142587569Y-101139539D01*
X142470131Y-101315297D01*
X142389239Y-101510588D01*
X142348000Y-101717909D01*
X140639400Y-101717909D01*
X140639400Y-99177909D01*
X142348000Y-99177909D01*
X142348000Y-99389291D01*
X142389239Y-99596612D01*
X142470131Y-99791903D01*
X142587569Y-99967661D01*
X142737039Y-100117131D01*
X142912797Y-100234569D01*
X143108088Y-100315461D01*
X143315409Y-100356700D01*
X143526791Y-100356700D01*
X143734112Y-100315461D01*
X143929403Y-100234569D01*
X144105161Y-100117131D01*
X144181994Y-100040298D01*
X145329560Y-100040298D01*
X145401506Y-100204380D01*
X145591894Y-100295859D01*
X145796471Y-100348437D01*
X146007374Y-100360094D01*
X146216498Y-100330382D01*
X146415809Y-100260443D01*
X146520694Y-100204380D01*
X146592640Y-100040298D01*
X147869560Y-100040298D01*
X147941506Y-100204380D01*
X148131894Y-100295859D01*
X148336471Y-100348437D01*
X148547374Y-100360094D01*
X148756498Y-100330382D01*
X148955809Y-100260443D01*
X149060694Y-100204380D01*
X149132640Y-100040298D01*
X150409560Y-100040298D01*
X150481506Y-100204380D01*
X150671894Y-100295859D01*
X150876471Y-100348437D01*
X151087374Y-100360094D01*
X151296498Y-100330382D01*
X151495809Y-100260443D01*
X151600694Y-100204380D01*
X151672640Y-100040298D01*
X151041100Y-99408758D01*
X150409560Y-100040298D01*
X149132640Y-100040298D01*
X148501100Y-99408758D01*
X147869560Y-100040298D01*
X146592640Y-100040298D01*
X145961100Y-99408758D01*
X145329560Y-100040298D01*
X144181994Y-100040298D01*
X144254631Y-99967661D01*
X144372069Y-99791903D01*
X144452961Y-99596612D01*
X144494200Y-99389291D01*
X144494200Y-99329874D01*
X144884606Y-99329874D01*
X144914318Y-99538998D01*
X144984257Y-99738309D01*
X145040320Y-99843194D01*
X145204402Y-99915140D01*
X145835942Y-99283600D01*
X146086258Y-99283600D01*
X146717798Y-99915140D01*
X146881880Y-99843194D01*
X146973359Y-99652806D01*
X147025937Y-99448229D01*
X147032478Y-99329874D01*
X147424606Y-99329874D01*
X147454318Y-99538998D01*
X147524257Y-99738309D01*
X147580320Y-99843194D01*
X147744402Y-99915140D01*
X148375942Y-99283600D01*
X148626258Y-99283600D01*
X149257798Y-99915140D01*
X149421880Y-99843194D01*
X149513359Y-99652806D01*
X149565937Y-99448229D01*
X149572478Y-99329874D01*
X149964606Y-99329874D01*
X149994318Y-99538998D01*
X150064257Y-99738309D01*
X150120320Y-99843194D01*
X150284402Y-99915140D01*
X150915942Y-99283600D01*
X151166258Y-99283600D01*
X151797798Y-99915140D01*
X151961880Y-99843194D01*
X152053359Y-99652806D01*
X152105937Y-99448229D01*
X152117594Y-99237326D01*
X152087882Y-99028202D01*
X152017943Y-98828891D01*
X151961880Y-98724006D01*
X151797798Y-98652060D01*
X151166258Y-99283600D01*
X150915942Y-99283600D01*
X150284402Y-98652060D01*
X150120320Y-98724006D01*
X150028841Y-98914394D01*
X149976263Y-99118971D01*
X149964606Y-99329874D01*
X149572478Y-99329874D01*
X149577594Y-99237326D01*
X149547882Y-99028202D01*
X149477943Y-98828891D01*
X149421880Y-98724006D01*
X149257798Y-98652060D01*
X148626258Y-99283600D01*
X148375942Y-99283600D01*
X147744402Y-98652060D01*
X147580320Y-98724006D01*
X147488841Y-98914394D01*
X147436263Y-99118971D01*
X147424606Y-99329874D01*
X147032478Y-99329874D01*
X147037594Y-99237326D01*
X147007882Y-99028202D01*
X146937943Y-98828891D01*
X146881880Y-98724006D01*
X146717798Y-98652060D01*
X146086258Y-99283600D01*
X145835942Y-99283600D01*
X145204402Y-98652060D01*
X145040320Y-98724006D01*
X144948841Y-98914394D01*
X144896263Y-99118971D01*
X144884606Y-99329874D01*
X144494200Y-99329874D01*
X144494200Y-99177909D01*
X144452961Y-98970588D01*
X144372069Y-98775297D01*
X144254631Y-98599539D01*
X144181994Y-98526902D01*
X145329560Y-98526902D01*
X145961100Y-99158442D01*
X146592640Y-98526902D01*
X147869560Y-98526902D01*
X148501100Y-99158442D01*
X149132640Y-98526902D01*
X150409560Y-98526902D01*
X151041100Y-99158442D01*
X151620742Y-98578800D01*
X152506218Y-98578800D01*
X152506218Y-99988400D01*
X152513329Y-100060599D01*
X152534389Y-100130024D01*
X152568588Y-100194007D01*
X152614613Y-100250087D01*
X152670693Y-100296112D01*
X152734676Y-100330311D01*
X152804101Y-100351371D01*
X152876300Y-100358482D01*
X154285900Y-100358482D01*
X154358099Y-100351371D01*
X154427524Y-100330311D01*
X154491507Y-100296112D01*
X154547587Y-100250087D01*
X154593612Y-100194007D01*
X154627811Y-100130024D01*
X154648871Y-100060599D01*
X154655982Y-99988400D01*
X154655982Y-98578800D01*
X154648871Y-98506601D01*
X154627811Y-98437176D01*
X154593612Y-98373193D01*
X154547587Y-98317113D01*
X154491507Y-98271088D01*
X154427524Y-98236889D01*
X154358099Y-98215829D01*
X154285900Y-98208718D01*
X152876300Y-98208718D01*
X152804101Y-98215829D01*
X152734676Y-98236889D01*
X152670693Y-98271088D01*
X152614613Y-98317113D01*
X152568588Y-98373193D01*
X152534389Y-98437176D01*
X152513329Y-98506601D01*
X152506218Y-98578800D01*
X151620742Y-98578800D01*
X151672640Y-98526902D01*
X151600694Y-98362820D01*
X151410306Y-98271341D01*
X151205729Y-98218763D01*
X150994826Y-98207106D01*
X150785702Y-98236818D01*
X150586391Y-98306757D01*
X150481506Y-98362820D01*
X150409560Y-98526902D01*
X149132640Y-98526902D01*
X149060694Y-98362820D01*
X148870306Y-98271341D01*
X148665729Y-98218763D01*
X148454826Y-98207106D01*
X148245702Y-98236818D01*
X148046391Y-98306757D01*
X147941506Y-98362820D01*
X147869560Y-98526902D01*
X146592640Y-98526902D01*
X146520694Y-98362820D01*
X146330306Y-98271341D01*
X146125729Y-98218763D01*
X145914826Y-98207106D01*
X145705702Y-98236818D01*
X145506391Y-98306757D01*
X145401506Y-98362820D01*
X145329560Y-98526902D01*
X144181994Y-98526902D01*
X144105161Y-98450069D01*
X143929403Y-98332631D01*
X143734112Y-98251739D01*
X143526791Y-98210500D01*
X143315409Y-98210500D01*
X143108088Y-98251739D01*
X142912797Y-98332631D01*
X142737039Y-98450069D01*
X142587569Y-98599539D01*
X142470131Y-98775297D01*
X142389239Y-98970588D01*
X142348000Y-99177909D01*
X140639400Y-99177909D01*
X140639400Y-95049779D01*
X142341600Y-95049779D01*
X142341600Y-95262421D01*
X142383085Y-95470978D01*
X142464460Y-95667435D01*
X142582598Y-95844241D01*
X142732959Y-95994602D01*
X142909765Y-96112740D01*
X143106222Y-96194115D01*
X143314779Y-96235600D01*
X143527421Y-96235600D01*
X143735978Y-96194115D01*
X143932435Y-96112740D01*
X144109241Y-95994602D01*
X144259602Y-95844241D01*
X144377740Y-95667435D01*
X144459115Y-95470978D01*
X144500600Y-95262421D01*
X144500600Y-95049779D01*
X147421600Y-95049779D01*
X147421600Y-95262421D01*
X147463085Y-95470978D01*
X147544460Y-95667435D01*
X147662598Y-95844241D01*
X147812959Y-95994602D01*
X147989765Y-96112740D01*
X148186222Y-96194115D01*
X148394779Y-96235600D01*
X148607421Y-96235600D01*
X148815978Y-96194115D01*
X149012435Y-96112740D01*
X149189241Y-95994602D01*
X149339602Y-95844241D01*
X149457740Y-95667435D01*
X149539115Y-95470978D01*
X149580600Y-95262421D01*
X149580600Y-95049779D01*
X149552352Y-94907768D01*
X152984200Y-94907768D01*
X152984200Y-95150432D01*
X153031541Y-95388432D01*
X153124404Y-95612624D01*
X153259221Y-95814391D01*
X153430809Y-95985979D01*
X153632576Y-96120796D01*
X153856768Y-96213659D01*
X154094768Y-96261000D01*
X154337432Y-96261000D01*
X154575432Y-96213659D01*
X154799624Y-96120796D01*
X155001391Y-95985979D01*
X155172979Y-95814391D01*
X155307796Y-95612624D01*
X155400659Y-95388432D01*
X155448000Y-95150432D01*
X155448000Y-94907768D01*
X155400659Y-94669768D01*
X155307796Y-94445576D01*
X155172979Y-94243809D01*
X155001391Y-94072221D01*
X154799624Y-93937404D01*
X154575432Y-93844541D01*
X154337432Y-93797200D01*
X154094768Y-93797200D01*
X153856768Y-93844541D01*
X153632576Y-93937404D01*
X153430809Y-94072221D01*
X153259221Y-94243809D01*
X153124404Y-94445576D01*
X153031541Y-94669768D01*
X152984200Y-94907768D01*
X149552352Y-94907768D01*
X149539115Y-94841222D01*
X149457740Y-94644765D01*
X149339602Y-94467959D01*
X149189241Y-94317598D01*
X149012435Y-94199460D01*
X148815978Y-94118085D01*
X148607421Y-94076600D01*
X148394779Y-94076600D01*
X148186222Y-94118085D01*
X147989765Y-94199460D01*
X147812959Y-94317598D01*
X147662598Y-94467959D01*
X147544460Y-94644765D01*
X147463085Y-94841222D01*
X147421600Y-95049779D01*
X144500600Y-95049779D01*
X144459115Y-94841222D01*
X144377740Y-94644765D01*
X144259602Y-94467959D01*
X144109241Y-94317598D01*
X143932435Y-94199460D01*
X143735978Y-94118085D01*
X143527421Y-94076600D01*
X143314779Y-94076600D01*
X143106222Y-94118085D01*
X142909765Y-94199460D01*
X142732959Y-94317598D01*
X142582598Y-94467959D01*
X142464460Y-94644765D01*
X142383085Y-94841222D01*
X142341600Y-95049779D01*
X140639400Y-95049779D01*
X140639400Y-91933875D01*
X140840581Y-91933875D01*
X140864369Y-92030456D01*
X140957401Y-92241309D01*
X141089780Y-92429961D01*
X141256420Y-92589163D01*
X141450917Y-92712796D01*
X141665796Y-92796109D01*
X141892800Y-92835900D01*
X142697600Y-92835900D01*
X142697600Y-91752100D01*
X142874600Y-91752100D01*
X142874600Y-92835900D01*
X143679400Y-92835900D01*
X143906404Y-92796109D01*
X144121283Y-92712796D01*
X144315780Y-92589163D01*
X144482420Y-92429961D01*
X144614799Y-92241309D01*
X144707831Y-92030456D01*
X144731619Y-91933875D01*
X144667694Y-91752100D01*
X142874600Y-91752100D01*
X142697600Y-91752100D01*
X140904506Y-91752100D01*
X140840581Y-91933875D01*
X140639400Y-91933875D01*
X140639400Y-91663600D01*
X148422524Y-91663600D01*
X148445174Y-91893568D01*
X148512253Y-92114698D01*
X148621184Y-92318493D01*
X148767779Y-92497121D01*
X148946407Y-92643716D01*
X149150202Y-92752647D01*
X149371332Y-92819726D01*
X149543671Y-92836700D01*
X151268529Y-92836700D01*
X151440868Y-92819726D01*
X151661998Y-92752647D01*
X151865793Y-92643716D01*
X152044421Y-92497121D01*
X152191016Y-92318493D01*
X152299947Y-92114698D01*
X152367026Y-91893568D01*
X152389676Y-91663600D01*
X152367026Y-91433632D01*
X152299947Y-91212502D01*
X152191016Y-91008707D01*
X152044421Y-90830079D01*
X151865793Y-90683484D01*
X151661998Y-90574553D01*
X151440868Y-90507474D01*
X151268529Y-90490500D01*
X149543671Y-90490500D01*
X149371332Y-90507474D01*
X149150202Y-90574553D01*
X148946407Y-90683484D01*
X148767779Y-90830079D01*
X148621184Y-91008707D01*
X148512253Y-91212502D01*
X148445174Y-91433632D01*
X148422524Y-91663600D01*
X140639400Y-91663600D01*
X140639400Y-91393325D01*
X140840581Y-91393325D01*
X140904506Y-91575100D01*
X142697600Y-91575100D01*
X142697600Y-90491300D01*
X142874600Y-90491300D01*
X142874600Y-91575100D01*
X144667694Y-91575100D01*
X144731619Y-91393325D01*
X144707831Y-91296744D01*
X144614799Y-91085891D01*
X144482420Y-90897239D01*
X144315780Y-90738037D01*
X144121283Y-90614404D01*
X143906404Y-90531091D01*
X143679400Y-90491300D01*
X142874600Y-90491300D01*
X142697600Y-90491300D01*
X141892800Y-90491300D01*
X141665796Y-90531091D01*
X141450917Y-90614404D01*
X141256420Y-90738037D01*
X141089780Y-90897239D01*
X140957401Y-91085891D01*
X140864369Y-91296744D01*
X140840581Y-91393325D01*
X140639400Y-91393325D01*
X140639400Y-88560486D01*
X148173372Y-88560486D01*
X148236882Y-88717432D01*
X148415365Y-88801933D01*
X148606904Y-88849991D01*
X148804137Y-88859757D01*
X148999487Y-88830858D01*
X149185444Y-88764402D01*
X149273318Y-88717432D01*
X149336828Y-88560486D01*
X148755100Y-87978758D01*
X148173372Y-88560486D01*
X140639400Y-88560486D01*
X140639400Y-87902637D01*
X147748943Y-87902637D01*
X147777842Y-88097987D01*
X147844298Y-88283944D01*
X147891268Y-88371818D01*
X148048214Y-88435328D01*
X148629942Y-87853600D01*
X148880258Y-87853600D01*
X149461986Y-88435328D01*
X149618932Y-88371818D01*
X149703433Y-88193335D01*
X149751491Y-88001796D01*
X149761257Y-87804563D01*
X149753893Y-87754784D01*
X149783800Y-87754784D01*
X149783800Y-87952416D01*
X149822356Y-88146252D01*
X149897987Y-88328841D01*
X150007786Y-88493167D01*
X150147533Y-88632914D01*
X150311859Y-88742713D01*
X150494448Y-88818344D01*
X150688284Y-88856900D01*
X150885916Y-88856900D01*
X151079752Y-88818344D01*
X151262341Y-88742713D01*
X151426667Y-88632914D01*
X151566414Y-88493167D01*
X151676213Y-88328841D01*
X151751844Y-88146252D01*
X151790400Y-87952416D01*
X151790400Y-87754784D01*
X151751844Y-87560948D01*
X151676213Y-87378359D01*
X151566414Y-87214033D01*
X151426667Y-87074286D01*
X151262341Y-86964487D01*
X151079752Y-86888856D01*
X150885916Y-86850300D01*
X150688284Y-86850300D01*
X150494448Y-86888856D01*
X150311859Y-86964487D01*
X150147533Y-87074286D01*
X150007786Y-87214033D01*
X149897987Y-87378359D01*
X149822356Y-87560948D01*
X149783800Y-87754784D01*
X149753893Y-87754784D01*
X149732358Y-87609213D01*
X149665902Y-87423256D01*
X149618932Y-87335382D01*
X149461986Y-87271872D01*
X148880258Y-87853600D01*
X148629942Y-87853600D01*
X148048214Y-87271872D01*
X147891268Y-87335382D01*
X147806767Y-87513865D01*
X147758709Y-87705404D01*
X147748943Y-87902637D01*
X140639400Y-87902637D01*
X140639400Y-87146714D01*
X148173372Y-87146714D01*
X148755100Y-87728442D01*
X149336828Y-87146714D01*
X149273318Y-86989768D01*
X149094835Y-86905267D01*
X148903296Y-86857209D01*
X148706063Y-86847443D01*
X148510713Y-86876342D01*
X148324756Y-86942798D01*
X148236882Y-86989768D01*
X148173372Y-87146714D01*
X140639400Y-87146714D01*
X140639400Y-86271768D01*
X152984200Y-86271768D01*
X152984200Y-86514432D01*
X153031541Y-86752432D01*
X153124404Y-86976624D01*
X153259221Y-87178391D01*
X153430809Y-87349979D01*
X153632576Y-87484796D01*
X153856768Y-87577659D01*
X154094768Y-87625000D01*
X154337432Y-87625000D01*
X154575432Y-87577659D01*
X154799624Y-87484796D01*
X155001391Y-87349979D01*
X155172979Y-87178391D01*
X155307796Y-86976624D01*
X155400659Y-86752432D01*
X155448000Y-86514432D01*
X155448000Y-86271768D01*
X155400659Y-86033768D01*
X155307796Y-85809576D01*
X155172979Y-85607809D01*
X155001391Y-85436221D01*
X154799624Y-85301404D01*
X154575432Y-85208541D01*
X154337432Y-85161200D01*
X154094768Y-85161200D01*
X153856768Y-85208541D01*
X153632576Y-85301404D01*
X153430809Y-85436221D01*
X153259221Y-85607809D01*
X153124404Y-85809576D01*
X153031541Y-86033768D01*
X152984200Y-86271768D01*
X140639400Y-86271768D01*
X140639400Y-84332817D01*
X142622041Y-84332817D01*
X142722324Y-84520949D01*
X142952759Y-84635900D01*
X143201193Y-84703686D01*
X143458077Y-84721703D01*
X143713541Y-84689258D01*
X143957766Y-84607599D01*
X144119876Y-84520949D01*
X144220159Y-84332817D01*
X145162041Y-84332817D01*
X145262324Y-84520949D01*
X145492759Y-84635900D01*
X145741193Y-84703686D01*
X145998077Y-84721703D01*
X146253541Y-84689258D01*
X146497766Y-84607599D01*
X146659876Y-84520949D01*
X146760159Y-84332817D01*
X147702041Y-84332817D01*
X147802324Y-84520949D01*
X148032759Y-84635900D01*
X148281193Y-84703686D01*
X148538077Y-84721703D01*
X148793541Y-84689258D01*
X149037766Y-84607599D01*
X149199876Y-84520949D01*
X149300159Y-84332817D01*
X150242041Y-84332817D01*
X150342324Y-84520949D01*
X150572759Y-84635900D01*
X150821193Y-84703686D01*
X151078077Y-84721703D01*
X151333541Y-84689258D01*
X151577766Y-84607599D01*
X151739876Y-84520949D01*
X151840159Y-84332817D01*
X152782041Y-84332817D01*
X152882324Y-84520949D01*
X153112759Y-84635900D01*
X153361193Y-84703686D01*
X153618077Y-84721703D01*
X153873541Y-84689258D01*
X154117766Y-84607599D01*
X154279876Y-84520949D01*
X154380159Y-84332817D01*
X153581100Y-83533758D01*
X152782041Y-84332817D01*
X151840159Y-84332817D01*
X151041100Y-83533758D01*
X150242041Y-84332817D01*
X149300159Y-84332817D01*
X148501100Y-83533758D01*
X147702041Y-84332817D01*
X146760159Y-84332817D01*
X145961100Y-83533758D01*
X145162041Y-84332817D01*
X144220159Y-84332817D01*
X143421100Y-83533758D01*
X142622041Y-84332817D01*
X140639400Y-84332817D01*
X140639400Y-83445577D01*
X142107997Y-83445577D01*
X142140442Y-83701041D01*
X142222101Y-83945266D01*
X142308751Y-84107376D01*
X142496883Y-84207659D01*
X143295942Y-83408600D01*
X143546258Y-83408600D01*
X144345317Y-84207659D01*
X144533449Y-84107376D01*
X144648400Y-83876941D01*
X144689226Y-83727313D01*
X144762101Y-83945266D01*
X144848751Y-84107376D01*
X145036883Y-84207659D01*
X145835942Y-83408600D01*
X146086258Y-83408600D01*
X146885317Y-84207659D01*
X147073449Y-84107376D01*
X147188400Y-83876941D01*
X147229226Y-83727313D01*
X147302101Y-83945266D01*
X147388751Y-84107376D01*
X147576883Y-84207659D01*
X148375942Y-83408600D01*
X148626258Y-83408600D01*
X149425317Y-84207659D01*
X149613449Y-84107376D01*
X149728400Y-83876941D01*
X149769226Y-83727313D01*
X149842101Y-83945266D01*
X149928751Y-84107376D01*
X150116883Y-84207659D01*
X150915942Y-83408600D01*
X151166258Y-83408600D01*
X151965317Y-84207659D01*
X152153449Y-84107376D01*
X152268400Y-83876941D01*
X152309226Y-83727313D01*
X152382101Y-83945266D01*
X152468751Y-84107376D01*
X152656883Y-84207659D01*
X153455942Y-83408600D01*
X153706258Y-83408600D01*
X154505317Y-84207659D01*
X154693449Y-84107376D01*
X154808400Y-83876941D01*
X154876186Y-83628507D01*
X154894203Y-83371623D01*
X154861758Y-83116159D01*
X154780099Y-82871934D01*
X154693449Y-82709824D01*
X154505317Y-82609541D01*
X153706258Y-83408600D01*
X153455942Y-83408600D01*
X152656883Y-82609541D01*
X152468751Y-82709824D01*
X152353800Y-82940259D01*
X152312974Y-83089887D01*
X152240099Y-82871934D01*
X152153449Y-82709824D01*
X151965317Y-82609541D01*
X151166258Y-83408600D01*
X150915942Y-83408600D01*
X150116883Y-82609541D01*
X149928751Y-82709824D01*
X149813800Y-82940259D01*
X149772974Y-83089887D01*
X149700099Y-82871934D01*
X149613449Y-82709824D01*
X149425317Y-82609541D01*
X148626258Y-83408600D01*
X148375942Y-83408600D01*
X147576883Y-82609541D01*
X147388751Y-82709824D01*
X147273800Y-82940259D01*
X147232974Y-83089887D01*
X147160099Y-82871934D01*
X147073449Y-82709824D01*
X146885317Y-82609541D01*
X146086258Y-83408600D01*
X145835942Y-83408600D01*
X145036883Y-82609541D01*
X144848751Y-82709824D01*
X144733800Y-82940259D01*
X144692974Y-83089887D01*
X144620099Y-82871934D01*
X144533449Y-82709824D01*
X144345317Y-82609541D01*
X143546258Y-83408600D01*
X143295942Y-83408600D01*
X142496883Y-82609541D01*
X142308751Y-82709824D01*
X142193800Y-82940259D01*
X142126014Y-83188693D01*
X142107997Y-83445577D01*
X140639400Y-83445577D01*
X140639400Y-80887836D01*
X140653918Y-80739763D01*
X142113000Y-80739763D01*
X142113000Y-80997437D01*
X142163270Y-81250159D01*
X142261877Y-81488218D01*
X142405033Y-81702465D01*
X142587235Y-81884667D01*
X142801482Y-82027823D01*
X143039541Y-82126430D01*
X143098253Y-82138109D01*
X142884434Y-82209601D01*
X142722324Y-82296251D01*
X142622041Y-82484383D01*
X143421100Y-83283442D01*
X144220159Y-82484383D01*
X144119876Y-82296251D01*
X143889441Y-82181300D01*
X143736543Y-82139581D01*
X143802659Y-82126430D01*
X144040718Y-82027823D01*
X144254965Y-81884667D01*
X144437167Y-81702465D01*
X144580323Y-81488218D01*
X144678930Y-81250159D01*
X144691100Y-81188977D01*
X144703270Y-81250159D01*
X144801877Y-81488218D01*
X144945033Y-81702465D01*
X145127235Y-81884667D01*
X145341482Y-82027823D01*
X145579541Y-82126430D01*
X145638253Y-82138109D01*
X145424434Y-82209601D01*
X145262324Y-82296251D01*
X145162041Y-82484383D01*
X145961100Y-83283442D01*
X146760159Y-82484383D01*
X146659876Y-82296251D01*
X146429441Y-82181300D01*
X146276543Y-82139581D01*
X146342659Y-82126430D01*
X146580718Y-82027823D01*
X146794965Y-81884667D01*
X146977167Y-81702465D01*
X147120323Y-81488218D01*
X147218930Y-81250159D01*
X147231100Y-81188977D01*
X147243270Y-81250159D01*
X147341877Y-81488218D01*
X147485033Y-81702465D01*
X147667235Y-81884667D01*
X147881482Y-82027823D01*
X148119541Y-82126430D01*
X148178253Y-82138109D01*
X147964434Y-82209601D01*
X147802324Y-82296251D01*
X147702041Y-82484383D01*
X148501100Y-83283442D01*
X149300159Y-82484383D01*
X149199876Y-82296251D01*
X148969441Y-82181300D01*
X148816543Y-82139581D01*
X148882659Y-82126430D01*
X149120718Y-82027823D01*
X149334965Y-81884667D01*
X149517167Y-81702465D01*
X149660323Y-81488218D01*
X149758930Y-81250159D01*
X149771100Y-81188977D01*
X149783270Y-81250159D01*
X149881877Y-81488218D01*
X150025033Y-81702465D01*
X150207235Y-81884667D01*
X150421482Y-82027823D01*
X150659541Y-82126430D01*
X150718253Y-82138109D01*
X150504434Y-82209601D01*
X150342324Y-82296251D01*
X150242041Y-82484383D01*
X151041100Y-83283442D01*
X151840159Y-82484383D01*
X151739876Y-82296251D01*
X151509441Y-82181300D01*
X151356543Y-82139581D01*
X151422659Y-82126430D01*
X151660718Y-82027823D01*
X151874965Y-81884667D01*
X152057167Y-81702465D01*
X152200323Y-81488218D01*
X152298930Y-81250159D01*
X152311100Y-81188977D01*
X152323270Y-81250159D01*
X152421877Y-81488218D01*
X152565033Y-81702465D01*
X152747235Y-81884667D01*
X152961482Y-82027823D01*
X153199541Y-82126430D01*
X153258253Y-82138109D01*
X153044434Y-82209601D01*
X152882324Y-82296251D01*
X152782041Y-82484383D01*
X153581100Y-83283442D01*
X154380159Y-82484383D01*
X154279876Y-82296251D01*
X154049441Y-82181300D01*
X153896543Y-82139581D01*
X153962659Y-82126430D01*
X154200718Y-82027823D01*
X154414965Y-81884667D01*
X154597167Y-81702465D01*
X154740323Y-81488218D01*
X154838930Y-81250159D01*
X154889200Y-80997437D01*
X154889200Y-80739763D01*
X154838930Y-80487041D01*
X154740323Y-80248982D01*
X154597167Y-80034735D01*
X154414965Y-79852533D01*
X154200718Y-79709377D01*
X153962659Y-79610770D01*
X153709937Y-79560500D01*
X153452263Y-79560500D01*
X153199541Y-79610770D01*
X152961482Y-79709377D01*
X152747235Y-79852533D01*
X152565033Y-80034735D01*
X152421877Y-80248982D01*
X152323270Y-80487041D01*
X152311100Y-80548223D01*
X152298930Y-80487041D01*
X152200323Y-80248982D01*
X152057167Y-80034735D01*
X151874965Y-79852533D01*
X151660718Y-79709377D01*
X151422659Y-79610770D01*
X151169937Y-79560500D01*
X150912263Y-79560500D01*
X150659541Y-79610770D01*
X150421482Y-79709377D01*
X150207235Y-79852533D01*
X150025033Y-80034735D01*
X149881877Y-80248982D01*
X149783270Y-80487041D01*
X149771100Y-80548223D01*
X149758930Y-80487041D01*
X149660323Y-80248982D01*
X149517167Y-80034735D01*
X149334965Y-79852533D01*
X149120718Y-79709377D01*
X148882659Y-79610770D01*
X148629937Y-79560500D01*
X148372263Y-79560500D01*
X148119541Y-79610770D01*
X147881482Y-79709377D01*
X147667235Y-79852533D01*
X147485033Y-80034735D01*
X147341877Y-80248982D01*
X147243270Y-80487041D01*
X147231100Y-80548223D01*
X147218930Y-80487041D01*
X147120323Y-80248982D01*
X146977167Y-80034735D01*
X146794965Y-79852533D01*
X146580718Y-79709377D01*
X146342659Y-79610770D01*
X146089937Y-79560500D01*
X145832263Y-79560500D01*
X145579541Y-79610770D01*
X145341482Y-79709377D01*
X145127235Y-79852533D01*
X144945033Y-80034735D01*
X144801877Y-80248982D01*
X144703270Y-80487041D01*
X144691100Y-80548223D01*
X144678930Y-80487041D01*
X144580323Y-80248982D01*
X144437167Y-80034735D01*
X144254965Y-79852533D01*
X144040718Y-79709377D01*
X143802659Y-79610770D01*
X143549937Y-79560500D01*
X143292263Y-79560500D01*
X143039541Y-79610770D01*
X142801482Y-79709377D01*
X142587235Y-79852533D01*
X142405033Y-80034735D01*
X142261877Y-80248982D01*
X142163270Y-80487041D01*
X142113000Y-80739763D01*
X140653918Y-80739763D01*
X140669850Y-80577285D01*
X140754454Y-80297064D01*
X140891874Y-80038614D01*
X141076876Y-79811780D01*
X141302414Y-79625198D01*
X141559900Y-79485976D01*
X141839523Y-79399419D01*
X142148916Y-79366900D01*
X154841864Y-79366900D01*
X155152415Y-79397350D01*
G37*
X155152415Y-79397350D02*
X155432636Y-79481954D01*
X155691086Y-79619374D01*
X155917920Y-79804376D01*
X156104502Y-80029914D01*
X156243724Y-80287400D01*
X156330281Y-80567023D01*
X156362801Y-80876426D01*
X156362800Y-129109364D01*
X156332160Y-129421856D01*
X156246991Y-129703949D01*
X156108657Y-129964117D01*
X155922420Y-130192467D01*
X155695377Y-130380292D01*
X155436177Y-130520441D01*
X155154687Y-130607577D01*
X154843354Y-130640300D01*
X142170336Y-130640300D01*
X141857844Y-130609660D01*
X141575751Y-130524491D01*
X141315583Y-130386157D01*
X141087233Y-130199920D01*
X140899408Y-129972877D01*
X140759259Y-129713677D01*
X140672123Y-129432187D01*
X140639400Y-129120854D01*
X140639400Y-128999763D01*
X142113000Y-128999763D01*
X142113000Y-129257437D01*
X142163270Y-129510159D01*
X142261877Y-129748218D01*
X142405033Y-129962465D01*
X142587235Y-130144667D01*
X142801482Y-130287823D01*
X143039541Y-130386430D01*
X143292263Y-130436700D01*
X143549937Y-130436700D01*
X143802659Y-130386430D01*
X144040718Y-130287823D01*
X144254965Y-130144667D01*
X144437167Y-129962465D01*
X144580323Y-129748218D01*
X144678930Y-129510159D01*
X144691100Y-129448977D01*
X144703270Y-129510159D01*
X144801877Y-129748218D01*
X144945033Y-129962465D01*
X145127235Y-130144667D01*
X145341482Y-130287823D01*
X145579541Y-130386430D01*
X145832263Y-130436700D01*
X146089937Y-130436700D01*
X146342659Y-130386430D01*
X146580718Y-130287823D01*
X146794965Y-130144667D01*
X146977167Y-129962465D01*
X147120323Y-129748218D01*
X147218930Y-129510159D01*
X147231100Y-129448977D01*
X147243270Y-129510159D01*
X147341877Y-129748218D01*
X147485033Y-129962465D01*
X147667235Y-130144667D01*
X147881482Y-130287823D01*
X148119541Y-130386430D01*
X148372263Y-130436700D01*
X148629937Y-130436700D01*
X148882659Y-130386430D01*
X149120718Y-130287823D01*
X149334965Y-130144667D01*
X149517167Y-129962465D01*
X149660323Y-129748218D01*
X149758930Y-129510159D01*
X149771100Y-129448977D01*
X149783270Y-129510159D01*
X149881877Y-129748218D01*
X150025033Y-129962465D01*
X150207235Y-130144667D01*
X150421482Y-130287823D01*
X150659541Y-130386430D01*
X150912263Y-130436700D01*
X151169937Y-130436700D01*
X151422659Y-130386430D01*
X151660718Y-130287823D01*
X151874965Y-130144667D01*
X152057167Y-129962465D01*
X152200323Y-129748218D01*
X152298930Y-129510159D01*
X152311100Y-129448977D01*
X152323270Y-129510159D01*
X152421877Y-129748218D01*
X152565033Y-129962465D01*
X152747235Y-130144667D01*
X152961482Y-130287823D01*
X153199541Y-130386430D01*
X153452263Y-130436700D01*
X153709937Y-130436700D01*
X153962659Y-130386430D01*
X154200718Y-130287823D01*
X154414965Y-130144667D01*
X154597167Y-129962465D01*
X154740323Y-129748218D01*
X154838930Y-129510159D01*
X154889200Y-129257437D01*
X154889200Y-128999763D01*
X154838930Y-128747041D01*
X154740323Y-128508982D01*
X154597167Y-128294735D01*
X154414965Y-128112533D01*
X154200718Y-127969377D01*
X153962659Y-127870770D01*
X153903947Y-127859091D01*
X154117766Y-127787599D01*
X154279876Y-127700949D01*
X154380159Y-127512817D01*
X153581100Y-126713758D01*
X152782041Y-127512817D01*
X152882324Y-127700949D01*
X153112759Y-127815900D01*
X153265657Y-127857619D01*
X153199541Y-127870770D01*
X152961482Y-127969377D01*
X152747235Y-128112533D01*
X152565033Y-128294735D01*
X152421877Y-128508982D01*
X152323270Y-128747041D01*
X152311100Y-128808223D01*
X152298930Y-128747041D01*
X152200323Y-128508982D01*
X152057167Y-128294735D01*
X151874965Y-128112533D01*
X151660718Y-127969377D01*
X151422659Y-127870770D01*
X151363947Y-127859091D01*
X151577766Y-127787599D01*
X151739876Y-127700949D01*
X151840159Y-127512817D01*
X151041100Y-126713758D01*
X150242041Y-127512817D01*
X150342324Y-127700949D01*
X150572759Y-127815900D01*
X150725657Y-127857619D01*
X150659541Y-127870770D01*
X150421482Y-127969377D01*
X150207235Y-128112533D01*
X150025033Y-128294735D01*
X149881877Y-128508982D01*
X149783270Y-128747041D01*
X149771100Y-128808223D01*
X149758930Y-128747041D01*
X149660323Y-128508982D01*
X149517167Y-128294735D01*
X149334965Y-128112533D01*
X149120718Y-127969377D01*
X148882659Y-127870770D01*
X148823947Y-127859091D01*
X149037766Y-127787599D01*
X149199876Y-127700949D01*
X149300159Y-127512817D01*
X148501100Y-126713758D01*
X147702041Y-127512817D01*
X147802324Y-127700949D01*
X148032759Y-127815900D01*
X148185657Y-127857619D01*
X148119541Y-127870770D01*
X147881482Y-127969377D01*
X147667235Y-128112533D01*
X147485033Y-128294735D01*
X147341877Y-128508982D01*
X147243270Y-128747041D01*
X147231100Y-128808223D01*
X147218930Y-128747041D01*
X147120323Y-128508982D01*
X146977167Y-128294735D01*
X146794965Y-128112533D01*
X146580718Y-127969377D01*
X146342659Y-127870770D01*
X146283947Y-127859091D01*
X146497766Y-127787599D01*
X146659876Y-127700949D01*
X146760159Y-127512817D01*
X145961100Y-126713758D01*
X145162041Y-127512817D01*
X145262324Y-127700949D01*
X145492759Y-127815900D01*
X145645657Y-127857619D01*
X145579541Y-127870770D01*
X145341482Y-127969377D01*
X145127235Y-128112533D01*
X144945033Y-128294735D01*
X144801877Y-128508982D01*
X144703270Y-128747041D01*
X144691100Y-128808223D01*
X144678930Y-128747041D01*
X144580323Y-128508982D01*
X144437167Y-128294735D01*
X144254965Y-128112533D01*
X144040718Y-127969377D01*
X143802659Y-127870770D01*
X143743947Y-127859091D01*
X143957766Y-127787599D01*
X144119876Y-127700949D01*
X144220159Y-127512817D01*
X143421100Y-126713758D01*
X142622041Y-127512817D01*
X142722324Y-127700949D01*
X142952759Y-127815900D01*
X143105657Y-127857619D01*
X143039541Y-127870770D01*
X142801482Y-127969377D01*
X142587235Y-128112533D01*
X142405033Y-128294735D01*
X142261877Y-128508982D01*
X142163270Y-128747041D01*
X142113000Y-128999763D01*
X140639400Y-128999763D01*
X140639400Y-126625577D01*
X142107997Y-126625577D01*
X142140442Y-126881041D01*
X142222101Y-127125266D01*
X142308751Y-127287376D01*
X142496883Y-127387659D01*
X143295942Y-126588600D01*
X143546258Y-126588600D01*
X144345317Y-127387659D01*
X144533449Y-127287376D01*
X144648400Y-127056941D01*
X144689226Y-126907313D01*
X144762101Y-127125266D01*
X144848751Y-127287376D01*
X145036883Y-127387659D01*
X145835942Y-126588600D01*
X146086258Y-126588600D01*
X146885317Y-127387659D01*
X147073449Y-127287376D01*
X147188400Y-127056941D01*
X147229226Y-126907313D01*
X147302101Y-127125266D01*
X147388751Y-127287376D01*
X147576883Y-127387659D01*
X148375942Y-126588600D01*
X148626258Y-126588600D01*
X149425317Y-127387659D01*
X149613449Y-127287376D01*
X149728400Y-127056941D01*
X149769226Y-126907313D01*
X149842101Y-127125266D01*
X149928751Y-127287376D01*
X150116883Y-127387659D01*
X150915942Y-126588600D01*
X151166258Y-126588600D01*
X151965317Y-127387659D01*
X152153449Y-127287376D01*
X152268400Y-127056941D01*
X152309226Y-126907313D01*
X152382101Y-127125266D01*
X152468751Y-127287376D01*
X152656883Y-127387659D01*
X153455942Y-126588600D01*
X153706258Y-126588600D01*
X154505317Y-127387659D01*
X154693449Y-127287376D01*
X154808400Y-127056941D01*
X154876186Y-126808507D01*
X154894203Y-126551623D01*
X154861758Y-126296159D01*
X154780099Y-126051934D01*
X154693449Y-125889824D01*
X154505317Y-125789541D01*
X153706258Y-126588600D01*
X153455942Y-126588600D01*
X152656883Y-125789541D01*
X152468751Y-125889824D01*
X152353800Y-126120259D01*
X152312974Y-126269887D01*
X152240099Y-126051934D01*
X152153449Y-125889824D01*
X151965317Y-125789541D01*
X151166258Y-126588600D01*
X150915942Y-126588600D01*
X150116883Y-125789541D01*
X149928751Y-125889824D01*
X149813800Y-126120259D01*
X149772974Y-126269887D01*
X149700099Y-126051934D01*
X149613449Y-125889824D01*
X149425317Y-125789541D01*
X148626258Y-126588600D01*
X148375942Y-126588600D01*
X147576883Y-125789541D01*
X147388751Y-125889824D01*
X147273800Y-126120259D01*
X147232974Y-126269887D01*
X147160099Y-126051934D01*
X147073449Y-125889824D01*
X146885317Y-125789541D01*
X146086258Y-126588600D01*
X145835942Y-126588600D01*
X145036883Y-125789541D01*
X144848751Y-125889824D01*
X144733800Y-126120259D01*
X144692974Y-126269887D01*
X144620099Y-126051934D01*
X144533449Y-125889824D01*
X144345317Y-125789541D01*
X143546258Y-126588600D01*
X143295942Y-126588600D01*
X142496883Y-125789541D01*
X142308751Y-125889824D01*
X142193800Y-126120259D01*
X142126014Y-126368693D01*
X142107997Y-126625577D01*
X140639400Y-126625577D01*
X140639400Y-125664383D01*
X142622041Y-125664383D01*
X143421100Y-126463442D01*
X144220159Y-125664383D01*
X145162041Y-125664383D01*
X145961100Y-126463442D01*
X146760159Y-125664383D01*
X147702041Y-125664383D01*
X148501100Y-126463442D01*
X149300159Y-125664383D01*
X150242041Y-125664383D01*
X151041100Y-126463442D01*
X151840159Y-125664383D01*
X152782041Y-125664383D01*
X153581100Y-126463442D01*
X154380159Y-125664383D01*
X154279876Y-125476251D01*
X154049441Y-125361300D01*
X153801007Y-125293514D01*
X153544123Y-125275497D01*
X153288659Y-125307942D01*
X153044434Y-125389601D01*
X152882324Y-125476251D01*
X152782041Y-125664383D01*
X151840159Y-125664383D01*
X151739876Y-125476251D01*
X151509441Y-125361300D01*
X151261007Y-125293514D01*
X151004123Y-125275497D01*
X150748659Y-125307942D01*
X150504434Y-125389601D01*
X150342324Y-125476251D01*
X150242041Y-125664383D01*
X149300159Y-125664383D01*
X149199876Y-125476251D01*
X148969441Y-125361300D01*
X148721007Y-125293514D01*
X148464123Y-125275497D01*
X148208659Y-125307942D01*
X147964434Y-125389601D01*
X147802324Y-125476251D01*
X147702041Y-125664383D01*
X146760159Y-125664383D01*
X146659876Y-125476251D01*
X146429441Y-125361300D01*
X146181007Y-125293514D01*
X145924123Y-125275497D01*
X145668659Y-125307942D01*
X145424434Y-125389601D01*
X145262324Y-125476251D01*
X145162041Y-125664383D01*
X144220159Y-125664383D01*
X144119876Y-125476251D01*
X143889441Y-125361300D01*
X143641007Y-125293514D01*
X143384123Y-125275497D01*
X143128659Y-125307942D01*
X142884434Y-125389601D01*
X142722324Y-125476251D01*
X142622041Y-125664383D01*
X140639400Y-125664383D01*
X140639400Y-122847768D01*
X141554200Y-122847768D01*
X141554200Y-123090432D01*
X141601541Y-123328432D01*
X141694404Y-123552624D01*
X141829221Y-123754391D01*
X142000809Y-123925979D01*
X142202576Y-124060796D01*
X142426768Y-124153659D01*
X142664768Y-124201000D01*
X142907432Y-124201000D01*
X143145432Y-124153659D01*
X143369624Y-124060796D01*
X143571391Y-123925979D01*
X143742979Y-123754391D01*
X143877796Y-123552624D01*
X143970659Y-123328432D01*
X144018000Y-123090432D01*
X144018000Y-122847768D01*
X143970659Y-122609768D01*
X143877796Y-122385576D01*
X143742979Y-122183809D01*
X143603954Y-122044784D01*
X145211800Y-122044784D01*
X145211800Y-122242416D01*
X145250356Y-122436252D01*
X145325987Y-122618841D01*
X145435786Y-122783167D01*
X145575533Y-122922914D01*
X145739859Y-123032713D01*
X145922448Y-123108344D01*
X146116284Y-123146900D01*
X146313916Y-123146900D01*
X146507752Y-123108344D01*
X146690341Y-123032713D01*
X146854667Y-122922914D01*
X146927095Y-122850486D01*
X147665372Y-122850486D01*
X147728882Y-123007432D01*
X147907365Y-123091933D01*
X148098904Y-123139991D01*
X148296137Y-123149757D01*
X148491487Y-123120858D01*
X148677444Y-123054402D01*
X148765318Y-123007432D01*
X148828828Y-122850486D01*
X148247100Y-122268758D01*
X147665372Y-122850486D01*
X146927095Y-122850486D01*
X146994414Y-122783167D01*
X147104213Y-122618841D01*
X147179844Y-122436252D01*
X147218400Y-122242416D01*
X147218400Y-122192637D01*
X147240943Y-122192637D01*
X147269842Y-122387987D01*
X147336298Y-122573944D01*
X147383268Y-122661818D01*
X147540214Y-122725328D01*
X148121942Y-122143600D01*
X148372258Y-122143600D01*
X148953986Y-122725328D01*
X149110932Y-122661818D01*
X149195433Y-122483335D01*
X149243491Y-122291796D01*
X149253257Y-122094563D01*
X149224358Y-121899213D01*
X149157902Y-121713256D01*
X149110932Y-121625382D01*
X148953986Y-121561872D01*
X148372258Y-122143600D01*
X148121942Y-122143600D01*
X147540214Y-121561872D01*
X147383268Y-121625382D01*
X147298767Y-121803865D01*
X147250709Y-121995404D01*
X147240943Y-122192637D01*
X147218400Y-122192637D01*
X147218400Y-122044784D01*
X147179844Y-121850948D01*
X147104213Y-121668359D01*
X146994414Y-121504033D01*
X146927095Y-121436714D01*
X147665372Y-121436714D01*
X148247100Y-122018442D01*
X148828828Y-121436714D01*
X148765318Y-121279768D01*
X148586835Y-121195267D01*
X148395296Y-121147209D01*
X148198063Y-121137443D01*
X148002713Y-121166342D01*
X147816756Y-121232798D01*
X147728882Y-121279768D01*
X147665372Y-121436714D01*
X146927095Y-121436714D01*
X146854667Y-121364286D01*
X146690341Y-121254487D01*
X146507752Y-121178856D01*
X146313916Y-121140300D01*
X146116284Y-121140300D01*
X145922448Y-121178856D01*
X145739859Y-121254487D01*
X145575533Y-121364286D01*
X145435786Y-121504033D01*
X145325987Y-121668359D01*
X145250356Y-121850948D01*
X145211800Y-122044784D01*
X143603954Y-122044784D01*
X143571391Y-122012221D01*
X143369624Y-121877404D01*
X143145432Y-121784541D01*
X142907432Y-121737200D01*
X142664768Y-121737200D01*
X142426768Y-121784541D01*
X142202576Y-121877404D01*
X142000809Y-122012221D01*
X141829221Y-122183809D01*
X141694404Y-122385576D01*
X141601541Y-122609768D01*
X141554200Y-122847768D01*
X140639400Y-122847768D01*
X140639400Y-117698600D01*
X144612524Y-117698600D01*
X144635174Y-117928568D01*
X144702253Y-118149698D01*
X144811184Y-118353493D01*
X144957779Y-118532121D01*
X145136407Y-118678716D01*
X145340202Y-118787647D01*
X145561332Y-118854726D01*
X145733671Y-118871700D01*
X147458529Y-118871700D01*
X147630868Y-118854726D01*
X147851998Y-118787647D01*
X148055793Y-118678716D01*
X148234421Y-118532121D01*
X148381016Y-118353493D01*
X148489947Y-118149698D01*
X148544799Y-117968875D01*
X152270581Y-117968875D01*
X152294369Y-118065456D01*
X152387401Y-118276309D01*
X152519780Y-118464961D01*
X152686420Y-118624163D01*
X152880917Y-118747796D01*
X153095796Y-118831109D01*
X153322800Y-118870900D01*
X154127600Y-118870900D01*
X154127600Y-117787100D01*
X154304600Y-117787100D01*
X154304600Y-118870900D01*
X155109400Y-118870900D01*
X155336404Y-118831109D01*
X155551283Y-118747796D01*
X155745780Y-118624163D01*
X155912420Y-118464961D01*
X156044799Y-118276309D01*
X156137831Y-118065456D01*
X156161619Y-117968875D01*
X156097694Y-117787100D01*
X154304600Y-117787100D01*
X154127600Y-117787100D01*
X152334506Y-117787100D01*
X152270581Y-117968875D01*
X148544799Y-117968875D01*
X148557026Y-117928568D01*
X148579676Y-117698600D01*
X148557026Y-117468632D01*
X148544800Y-117428325D01*
X152270581Y-117428325D01*
X152334506Y-117610100D01*
X154127600Y-117610100D01*
X154127600Y-116526300D01*
X154304600Y-116526300D01*
X154304600Y-117610100D01*
X156097694Y-117610100D01*
X156161619Y-117428325D01*
X156137831Y-117331744D01*
X156044799Y-117120891D01*
X155912420Y-116932239D01*
X155745780Y-116773037D01*
X155551283Y-116649404D01*
X155336404Y-116566091D01*
X155109400Y-116526300D01*
X154304600Y-116526300D01*
X154127600Y-116526300D01*
X153322800Y-116526300D01*
X153095796Y-116566091D01*
X152880917Y-116649404D01*
X152686420Y-116773037D01*
X152519780Y-116932239D01*
X152387401Y-117120891D01*
X152294369Y-117331744D01*
X152270581Y-117428325D01*
X148544800Y-117428325D01*
X148489947Y-117247502D01*
X148381016Y-117043707D01*
X148234421Y-116865079D01*
X148055793Y-116718484D01*
X147851998Y-116609553D01*
X147630868Y-116542474D01*
X147458529Y-116525500D01*
X145733671Y-116525500D01*
X145561332Y-116542474D01*
X145340202Y-116609553D01*
X145136407Y-116718484D01*
X144957779Y-116865079D01*
X144811184Y-117043707D01*
X144702253Y-117247502D01*
X144635174Y-117468632D01*
X144612524Y-117698600D01*
X140639400Y-117698600D01*
X140639400Y-114211768D01*
X141554200Y-114211768D01*
X141554200Y-114454432D01*
X141601541Y-114692432D01*
X141694404Y-114916624D01*
X141829221Y-115118391D01*
X142000809Y-115289979D01*
X142202576Y-115424796D01*
X142426768Y-115517659D01*
X142664768Y-115565000D01*
X142907432Y-115565000D01*
X143145432Y-115517659D01*
X143369624Y-115424796D01*
X143571391Y-115289979D01*
X143742979Y-115118391D01*
X143877796Y-114916624D01*
X143970659Y-114692432D01*
X144018000Y-114454432D01*
X144018000Y-114417279D01*
X147421600Y-114417279D01*
X147421600Y-114629921D01*
X147463085Y-114838478D01*
X147544460Y-115034935D01*
X147662598Y-115211741D01*
X147812959Y-115362102D01*
X147989765Y-115480240D01*
X148186222Y-115561615D01*
X148394779Y-115603100D01*
X148607421Y-115603100D01*
X148815978Y-115561615D01*
X149012435Y-115480240D01*
X149189241Y-115362102D01*
X149339602Y-115211741D01*
X149457740Y-115034935D01*
X149539115Y-114838478D01*
X149580600Y-114629921D01*
X149580600Y-114417279D01*
X152501600Y-114417279D01*
X152501600Y-114629921D01*
X152543085Y-114838478D01*
X152624460Y-115034935D01*
X152742598Y-115211741D01*
X152892959Y-115362102D01*
X153069765Y-115480240D01*
X153266222Y-115561615D01*
X153474779Y-115603100D01*
X153687421Y-115603100D01*
X153895978Y-115561615D01*
X154092435Y-115480240D01*
X154269241Y-115362102D01*
X154419602Y-115211741D01*
X154537740Y-115034935D01*
X154619115Y-114838478D01*
X154660600Y-114629921D01*
X154660600Y-114417279D01*
X154619115Y-114208722D01*
X154537740Y-114012265D01*
X154419602Y-113835459D01*
X154269241Y-113685098D01*
X154092435Y-113566960D01*
X153895978Y-113485585D01*
X153687421Y-113444100D01*
X153474779Y-113444100D01*
X153266222Y-113485585D01*
X153069765Y-113566960D01*
X152892959Y-113685098D01*
X152742598Y-113835459D01*
X152624460Y-114012265D01*
X152543085Y-114208722D01*
X152501600Y-114417279D01*
X149580600Y-114417279D01*
X149539115Y-114208722D01*
X149457740Y-114012265D01*
X149339602Y-113835459D01*
X149189241Y-113685098D01*
X149012435Y-113566960D01*
X148815978Y-113485585D01*
X148607421Y-113444100D01*
X148394779Y-113444100D01*
X148186222Y-113485585D01*
X147989765Y-113566960D01*
X147812959Y-113685098D01*
X147662598Y-113835459D01*
X147544460Y-114012265D01*
X147463085Y-114208722D01*
X147421600Y-114417279D01*
X144018000Y-114417279D01*
X144018000Y-114211768D01*
X143970659Y-113973768D01*
X143877796Y-113749576D01*
X143742979Y-113547809D01*
X143571391Y-113376221D01*
X143369624Y-113241404D01*
X143145432Y-113148541D01*
X142907432Y-113101200D01*
X142664768Y-113101200D01*
X142426768Y-113148541D01*
X142202576Y-113241404D01*
X142000809Y-113376221D01*
X141829221Y-113547809D01*
X141694404Y-113749576D01*
X141601541Y-113973768D01*
X141554200Y-114211768D01*
X140639400Y-114211768D01*
X140639400Y-110607909D01*
X142348000Y-110607909D01*
X142348000Y-110819291D01*
X142389239Y-111026612D01*
X142470131Y-111221903D01*
X142587569Y-111397661D01*
X142737039Y-111547131D01*
X142912797Y-111664569D01*
X143108088Y-111745461D01*
X143315409Y-111786700D01*
X143526791Y-111786700D01*
X143734112Y-111745461D01*
X143929403Y-111664569D01*
X144105161Y-111547131D01*
X144181994Y-111470298D01*
X145329560Y-111470298D01*
X145401506Y-111634380D01*
X145591894Y-111725859D01*
X145796471Y-111778437D01*
X146007374Y-111790094D01*
X146216498Y-111760382D01*
X146415809Y-111690443D01*
X146520694Y-111634380D01*
X146592640Y-111470298D01*
X147869560Y-111470298D01*
X147941506Y-111634380D01*
X148131894Y-111725859D01*
X148336471Y-111778437D01*
X148547374Y-111790094D01*
X148756498Y-111760382D01*
X148955809Y-111690443D01*
X149060694Y-111634380D01*
X149132640Y-111470298D01*
X150409560Y-111470298D01*
X150481506Y-111634380D01*
X150671894Y-111725859D01*
X150876471Y-111778437D01*
X151087374Y-111790094D01*
X151296498Y-111760382D01*
X151495809Y-111690443D01*
X151600694Y-111634380D01*
X151672640Y-111470298D01*
X151041100Y-110838758D01*
X150409560Y-111470298D01*
X149132640Y-111470298D01*
X148501100Y-110838758D01*
X147869560Y-111470298D01*
X146592640Y-111470298D01*
X145961100Y-110838758D01*
X145329560Y-111470298D01*
X144181994Y-111470298D01*
X144254631Y-111397661D01*
X144372069Y-111221903D01*
X144452961Y-111026612D01*
X144494200Y-110819291D01*
X144494200Y-110759874D01*
X144884606Y-110759874D01*
X144914318Y-110968998D01*
X144984257Y-111168309D01*
X145040320Y-111273194D01*
X145204402Y-111345140D01*
X145835942Y-110713600D01*
X146086258Y-110713600D01*
X146717798Y-111345140D01*
X146881880Y-111273194D01*
X146973359Y-111082806D01*
X147025937Y-110878229D01*
X147032478Y-110759874D01*
X147424606Y-110759874D01*
X147454318Y-110968998D01*
X147524257Y-111168309D01*
X147580320Y-111273194D01*
X147744402Y-111345140D01*
X148375942Y-110713600D01*
X148626258Y-110713600D01*
X149257798Y-111345140D01*
X149421880Y-111273194D01*
X149513359Y-111082806D01*
X149565937Y-110878229D01*
X149572478Y-110759874D01*
X149964606Y-110759874D01*
X149994318Y-110968998D01*
X150064257Y-111168309D01*
X150120320Y-111273194D01*
X150284402Y-111345140D01*
X150915942Y-110713600D01*
X151166258Y-110713600D01*
X151797798Y-111345140D01*
X151961880Y-111273194D01*
X152053359Y-111082806D01*
X152105937Y-110878229D01*
X152117594Y-110667326D01*
X152109153Y-110607909D01*
X152508000Y-110607909D01*
X152508000Y-110819291D01*
X152549239Y-111026612D01*
X152630131Y-111221903D01*
X152747569Y-111397661D01*
X152897039Y-111547131D01*
X153072797Y-111664569D01*
X153268088Y-111745461D01*
X153475409Y-111786700D01*
X153686791Y-111786700D01*
X153894112Y-111745461D01*
X154089403Y-111664569D01*
X154265161Y-111547131D01*
X154414631Y-111397661D01*
X154532069Y-111221903D01*
X154612961Y-111026612D01*
X154654200Y-110819291D01*
X154654200Y-110607909D01*
X154612961Y-110400588D01*
X154532069Y-110205297D01*
X154414631Y-110029539D01*
X154265161Y-109880069D01*
X154089403Y-109762631D01*
X153894112Y-109681739D01*
X153686791Y-109640500D01*
X153475409Y-109640500D01*
X153268088Y-109681739D01*
X153072797Y-109762631D01*
X152897039Y-109880069D01*
X152747569Y-110029539D01*
X152630131Y-110205297D01*
X152549239Y-110400588D01*
X152508000Y-110607909D01*
X152109153Y-110607909D01*
X152087882Y-110458202D01*
X152017943Y-110258891D01*
X151961880Y-110154006D01*
X151797798Y-110082060D01*
X151166258Y-110713600D01*
X150915942Y-110713600D01*
X150284402Y-110082060D01*
X150120320Y-110154006D01*
X150028841Y-110344394D01*
X149976263Y-110548971D01*
X149964606Y-110759874D01*
X149572478Y-110759874D01*
X149577594Y-110667326D01*
X149547882Y-110458202D01*
X149477943Y-110258891D01*
X149421880Y-110154006D01*
X149257798Y-110082060D01*
X148626258Y-110713600D01*
X148375942Y-110713600D01*
X147744402Y-110082060D01*
X147580320Y-110154006D01*
X147488841Y-110344394D01*
X147436263Y-110548971D01*
X147424606Y-110759874D01*
X147032478Y-110759874D01*
X147037594Y-110667326D01*
X147007882Y-110458202D01*
X146937943Y-110258891D01*
X146881880Y-110154006D01*
X146717798Y-110082060D01*
X146086258Y-110713600D01*
X145835942Y-110713600D01*
X145204402Y-110082060D01*
X145040320Y-110154006D01*
X144948841Y-110344394D01*
X144896263Y-110548971D01*
X144884606Y-110759874D01*
X144494200Y-110759874D01*
X144494200Y-110607909D01*
X144452961Y-110400588D01*
X144372069Y-110205297D01*
X144254631Y-110029539D01*
X144181994Y-109956902D01*
X145329560Y-109956902D01*
X145961100Y-110588442D01*
X146592640Y-109956902D01*
X147869560Y-109956902D01*
X148501100Y-110588442D01*
X149132640Y-109956902D01*
X150409560Y-109956902D01*
X151041100Y-110588442D01*
X151672640Y-109956902D01*
X151600694Y-109792820D01*
X151410306Y-109701341D01*
X151205729Y-109648763D01*
X150994826Y-109637106D01*
X150785702Y-109666818D01*
X150586391Y-109736757D01*
X150481506Y-109792820D01*
X150409560Y-109956902D01*
X149132640Y-109956902D01*
X149060694Y-109792820D01*
X148870306Y-109701341D01*
X148665729Y-109648763D01*
X148454826Y-109637106D01*
X148245702Y-109666818D01*
X148046391Y-109736757D01*
X147941506Y-109792820D01*
X147869560Y-109956902D01*
X146592640Y-109956902D01*
X146520694Y-109792820D01*
X146330306Y-109701341D01*
X146125729Y-109648763D01*
X145914826Y-109637106D01*
X145705702Y-109666818D01*
X145506391Y-109736757D01*
X145401506Y-109792820D01*
X145329560Y-109956902D01*
X144181994Y-109956902D01*
X144105161Y-109880069D01*
X143929403Y-109762631D01*
X143734112Y-109681739D01*
X143526791Y-109640500D01*
X143315409Y-109640500D01*
X143108088Y-109681739D01*
X142912797Y-109762631D01*
X142737039Y-109880069D01*
X142587569Y-110029539D01*
X142470131Y-110205297D01*
X142389239Y-110400588D01*
X142348000Y-110607909D01*
X140639400Y-110607909D01*
X140639400Y-108067909D01*
X142348000Y-108067909D01*
X142348000Y-108279291D01*
X142389239Y-108486612D01*
X142470131Y-108681903D01*
X142587569Y-108857661D01*
X142737039Y-109007131D01*
X142912797Y-109124569D01*
X143108088Y-109205461D01*
X143315409Y-109246700D01*
X143526791Y-109246700D01*
X143734112Y-109205461D01*
X143929403Y-109124569D01*
X144105161Y-109007131D01*
X144181994Y-108930298D01*
X145329560Y-108930298D01*
X145401506Y-109094380D01*
X145591894Y-109185859D01*
X145796471Y-109238437D01*
X146007374Y-109250094D01*
X146216498Y-109220382D01*
X146415809Y-109150443D01*
X146520694Y-109094380D01*
X146592640Y-108930298D01*
X147869560Y-108930298D01*
X147941506Y-109094380D01*
X148131894Y-109185859D01*
X148336471Y-109238437D01*
X148547374Y-109250094D01*
X148756498Y-109220382D01*
X148955809Y-109150443D01*
X149060694Y-109094380D01*
X149132640Y-108930298D01*
X150409560Y-108930298D01*
X150481506Y-109094380D01*
X150671894Y-109185859D01*
X150876471Y-109238437D01*
X151087374Y-109250094D01*
X151296498Y-109220382D01*
X151495809Y-109150443D01*
X151600694Y-109094380D01*
X151672640Y-108930298D01*
X151041100Y-108298758D01*
X150409560Y-108930298D01*
X149132640Y-108930298D01*
X148501100Y-108298758D01*
X147869560Y-108930298D01*
X146592640Y-108930298D01*
X145961100Y-108298758D01*
X145329560Y-108930298D01*
X144181994Y-108930298D01*
X144254631Y-108857661D01*
X144372069Y-108681903D01*
X144452961Y-108486612D01*
X144494200Y-108279291D01*
X144494200Y-108219874D01*
X144884606Y-108219874D01*
X144914318Y-108428998D01*
X144984257Y-108628309D01*
X145040320Y-108733194D01*
X145204402Y-108805140D01*
X145835942Y-108173600D01*
X146086258Y-108173600D01*
X146717798Y-108805140D01*
X146881880Y-108733194D01*
X146973359Y-108542806D01*
X147025937Y-108338229D01*
X147032478Y-108219874D01*
X147424606Y-108219874D01*
X147454318Y-108428998D01*
X147524257Y-108628309D01*
X147580320Y-108733194D01*
X147744402Y-108805140D01*
X148375942Y-108173600D01*
X148626258Y-108173600D01*
X149257798Y-108805140D01*
X149421880Y-108733194D01*
X149513359Y-108542806D01*
X149565937Y-108338229D01*
X149572478Y-108219874D01*
X149964606Y-108219874D01*
X149994318Y-108428998D01*
X150064257Y-108628309D01*
X150120320Y-108733194D01*
X150284402Y-108805140D01*
X150915942Y-108173600D01*
X151166258Y-108173600D01*
X151797798Y-108805140D01*
X151961880Y-108733194D01*
X152053359Y-108542806D01*
X152105937Y-108338229D01*
X152117594Y-108127326D01*
X152087882Y-107918202D01*
X152017943Y-107718891D01*
X151961880Y-107614006D01*
X151797798Y-107542060D01*
X151166258Y-108173600D01*
X150915942Y-108173600D01*
X150284402Y-107542060D01*
X150120320Y-107614006D01*
X150028841Y-107804394D01*
X149976263Y-108008971D01*
X149964606Y-108219874D01*
X149572478Y-108219874D01*
X149577594Y-108127326D01*
X149547882Y-107918202D01*
X149477943Y-107718891D01*
X149421880Y-107614006D01*
X149257798Y-107542060D01*
X148626258Y-108173600D01*
X148375942Y-108173600D01*
X147744402Y-107542060D01*
X147580320Y-107614006D01*
X147488841Y-107804394D01*
X147436263Y-108008971D01*
X147424606Y-108219874D01*
X147032478Y-108219874D01*
X147037594Y-108127326D01*
X147007882Y-107918202D01*
X146937943Y-107718891D01*
X146881880Y-107614006D01*
X146717798Y-107542060D01*
X146086258Y-108173600D01*
X145835942Y-108173600D01*
X145204402Y-107542060D01*
X145040320Y-107614006D01*
X144948841Y-107804394D01*
X144896263Y-108008971D01*
X144884606Y-108219874D01*
X144494200Y-108219874D01*
X144494200Y-108067909D01*
X144452961Y-107860588D01*
X144372069Y-107665297D01*
X144254631Y-107489539D01*
X144181994Y-107416902D01*
X145329560Y-107416902D01*
X145961100Y-108048442D01*
X146592640Y-107416902D01*
X147869560Y-107416902D01*
X148501100Y-108048442D01*
X149132640Y-107416902D01*
X150409560Y-107416902D01*
X151041100Y-108048442D01*
X151620742Y-107468800D01*
X152506218Y-107468800D01*
X152506218Y-108878400D01*
X152513329Y-108950599D01*
X152534389Y-109020024D01*
X152568588Y-109084007D01*
X152614613Y-109140087D01*
X152670693Y-109186112D01*
X152734676Y-109220311D01*
X152804101Y-109241371D01*
X152876300Y-109248482D01*
X154285900Y-109248482D01*
X154358099Y-109241371D01*
X154427524Y-109220311D01*
X154491507Y-109186112D01*
X154547587Y-109140087D01*
X154593612Y-109084007D01*
X154627811Y-109020024D01*
X154648871Y-108950599D01*
X154655982Y-108878400D01*
X154655982Y-107468800D01*
X154648871Y-107396601D01*
X154627811Y-107327176D01*
X154593612Y-107263193D01*
X154547587Y-107207113D01*
X154491507Y-107161088D01*
X154427524Y-107126889D01*
X154358099Y-107105829D01*
X154285900Y-107098718D01*
X152876300Y-107098718D01*
X152804101Y-107105829D01*
X152734676Y-107126889D01*
X152670693Y-107161088D01*
X152614613Y-107207113D01*
X152568588Y-107263193D01*
X152534389Y-107327176D01*
X152513329Y-107396601D01*
X152506218Y-107468800D01*
X151620742Y-107468800D01*
X151672640Y-107416902D01*
X151600694Y-107252820D01*
X151410306Y-107161341D01*
X151205729Y-107108763D01*
X150994826Y-107097106D01*
X150785702Y-107126818D01*
X150586391Y-107196757D01*
X150481506Y-107252820D01*
X150409560Y-107416902D01*
X149132640Y-107416902D01*
X149060694Y-107252820D01*
X148870306Y-107161341D01*
X148665729Y-107108763D01*
X148454826Y-107097106D01*
X148245702Y-107126818D01*
X148046391Y-107196757D01*
X147941506Y-107252820D01*
X147869560Y-107416902D01*
X146592640Y-107416902D01*
X146520694Y-107252820D01*
X146330306Y-107161341D01*
X146125729Y-107108763D01*
X145914826Y-107097106D01*
X145705702Y-107126818D01*
X145506391Y-107196757D01*
X145401506Y-107252820D01*
X145329560Y-107416902D01*
X144181994Y-107416902D01*
X144105161Y-107340069D01*
X143929403Y-107222631D01*
X143734112Y-107141739D01*
X143526791Y-107100500D01*
X143315409Y-107100500D01*
X143108088Y-107141739D01*
X142912797Y-107222631D01*
X142737039Y-107340069D01*
X142587569Y-107489539D01*
X142470131Y-107665297D01*
X142389239Y-107860588D01*
X142348000Y-108067909D01*
X140639400Y-108067909D01*
X140639400Y-101717909D01*
X142348000Y-101717909D01*
X142348000Y-101929291D01*
X142389239Y-102136612D01*
X142470131Y-102331903D01*
X142587569Y-102507661D01*
X142737039Y-102657131D01*
X142912797Y-102774569D01*
X143108088Y-102855461D01*
X143315409Y-102896700D01*
X143526791Y-102896700D01*
X143734112Y-102855461D01*
X143929403Y-102774569D01*
X144105161Y-102657131D01*
X144181994Y-102580298D01*
X145329560Y-102580298D01*
X145401506Y-102744380D01*
X145591894Y-102835859D01*
X145796471Y-102888437D01*
X146007374Y-102900094D01*
X146216498Y-102870382D01*
X146415809Y-102800443D01*
X146520694Y-102744380D01*
X146592640Y-102580298D01*
X147869560Y-102580298D01*
X147941506Y-102744380D01*
X148131894Y-102835859D01*
X148336471Y-102888437D01*
X148547374Y-102900094D01*
X148756498Y-102870382D01*
X148955809Y-102800443D01*
X149060694Y-102744380D01*
X149132640Y-102580298D01*
X150409560Y-102580298D01*
X150481506Y-102744380D01*
X150671894Y-102835859D01*
X150876471Y-102888437D01*
X151087374Y-102900094D01*
X151296498Y-102870382D01*
X151495809Y-102800443D01*
X151600694Y-102744380D01*
X151672640Y-102580298D01*
X151041100Y-101948758D01*
X150409560Y-102580298D01*
X149132640Y-102580298D01*
X148501100Y-101948758D01*
X147869560Y-102580298D01*
X146592640Y-102580298D01*
X145961100Y-101948758D01*
X145329560Y-102580298D01*
X144181994Y-102580298D01*
X144254631Y-102507661D01*
X144372069Y-102331903D01*
X144452961Y-102136612D01*
X144494200Y-101929291D01*
X144494200Y-101869874D01*
X144884606Y-101869874D01*
X144914318Y-102078998D01*
X144984257Y-102278309D01*
X145040320Y-102383194D01*
X145204402Y-102455140D01*
X145835942Y-101823600D01*
X146086258Y-101823600D01*
X146717798Y-102455140D01*
X146881880Y-102383194D01*
X146973359Y-102192806D01*
X147025937Y-101988229D01*
X147032478Y-101869874D01*
X147424606Y-101869874D01*
X147454318Y-102078998D01*
X147524257Y-102278309D01*
X147580320Y-102383194D01*
X147744402Y-102455140D01*
X148375942Y-101823600D01*
X148626258Y-101823600D01*
X149257798Y-102455140D01*
X149421880Y-102383194D01*
X149513359Y-102192806D01*
X149565937Y-101988229D01*
X149572478Y-101869874D01*
X149964606Y-101869874D01*
X149994318Y-102078998D01*
X150064257Y-102278309D01*
X150120320Y-102383194D01*
X150284402Y-102455140D01*
X150915942Y-101823600D01*
X151166258Y-101823600D01*
X151797798Y-102455140D01*
X151961880Y-102383194D01*
X152053359Y-102192806D01*
X152105937Y-101988229D01*
X152117594Y-101777326D01*
X152109153Y-101717909D01*
X152508000Y-101717909D01*
X152508000Y-101929291D01*
X152549239Y-102136612D01*
X152630131Y-102331903D01*
X152747569Y-102507661D01*
X152897039Y-102657131D01*
X153072797Y-102774569D01*
X153268088Y-102855461D01*
X153475409Y-102896700D01*
X153686791Y-102896700D01*
X153894112Y-102855461D01*
X154089403Y-102774569D01*
X154265161Y-102657131D01*
X154414631Y-102507661D01*
X154532069Y-102331903D01*
X154612961Y-102136612D01*
X154654200Y-101929291D01*
X154654200Y-101717909D01*
X154612961Y-101510588D01*
X154532069Y-101315297D01*
X154414631Y-101139539D01*
X154265161Y-100990069D01*
X154089403Y-100872631D01*
X153894112Y-100791739D01*
X153686791Y-100750500D01*
X153475409Y-100750500D01*
X153268088Y-100791739D01*
X153072797Y-100872631D01*
X152897039Y-100990069D01*
X152747569Y-101139539D01*
X152630131Y-101315297D01*
X152549239Y-101510588D01*
X152508000Y-101717909D01*
X152109153Y-101717909D01*
X152087882Y-101568202D01*
X152017943Y-101368891D01*
X151961880Y-101264006D01*
X151797798Y-101192060D01*
X151166258Y-101823600D01*
X150915942Y-101823600D01*
X150284402Y-101192060D01*
X150120320Y-101264006D01*
X150028841Y-101454394D01*
X149976263Y-101658971D01*
X149964606Y-101869874D01*
X149572478Y-101869874D01*
X149577594Y-101777326D01*
X149547882Y-101568202D01*
X149477943Y-101368891D01*
X149421880Y-101264006D01*
X149257798Y-101192060D01*
X148626258Y-101823600D01*
X148375942Y-101823600D01*
X147744402Y-101192060D01*
X147580320Y-101264006D01*
X147488841Y-101454394D01*
X147436263Y-101658971D01*
X147424606Y-101869874D01*
X147032478Y-101869874D01*
X147037594Y-101777326D01*
X147007882Y-101568202D01*
X146937943Y-101368891D01*
X146881880Y-101264006D01*
X146717798Y-101192060D01*
X146086258Y-101823600D01*
X145835942Y-101823600D01*
X145204402Y-101192060D01*
X145040320Y-101264006D01*
X144948841Y-101454394D01*
X144896263Y-101658971D01*
X144884606Y-101869874D01*
X144494200Y-101869874D01*
X144494200Y-101717909D01*
X144452961Y-101510588D01*
X144372069Y-101315297D01*
X144254631Y-101139539D01*
X144181994Y-101066902D01*
X145329560Y-101066902D01*
X145961100Y-101698442D01*
X146592640Y-101066902D01*
X147869560Y-101066902D01*
X148501100Y-101698442D01*
X149132640Y-101066902D01*
X150409560Y-101066902D01*
X151041100Y-101698442D01*
X151672640Y-101066902D01*
X151600694Y-100902820D01*
X151410306Y-100811341D01*
X151205729Y-100758763D01*
X150994826Y-100747106D01*
X150785702Y-100776818D01*
X150586391Y-100846757D01*
X150481506Y-100902820D01*
X150409560Y-101066902D01*
X149132640Y-101066902D01*
X149060694Y-100902820D01*
X148870306Y-100811341D01*
X148665729Y-100758763D01*
X148454826Y-100747106D01*
X148245702Y-100776818D01*
X148046391Y-100846757D01*
X147941506Y-100902820D01*
X147869560Y-101066902D01*
X146592640Y-101066902D01*
X146520694Y-100902820D01*
X146330306Y-100811341D01*
X146125729Y-100758763D01*
X145914826Y-100747106D01*
X145705702Y-100776818D01*
X145506391Y-100846757D01*
X145401506Y-100902820D01*
X145329560Y-101066902D01*
X144181994Y-101066902D01*
X144105161Y-100990069D01*
X143929403Y-100872631D01*
X143734112Y-100791739D01*
X143526791Y-100750500D01*
X143315409Y-100750500D01*
X143108088Y-100791739D01*
X142912797Y-100872631D01*
X142737039Y-100990069D01*
X142587569Y-101139539D01*
X142470131Y-101315297D01*
X142389239Y-101510588D01*
X142348000Y-101717909D01*
X140639400Y-101717909D01*
X140639400Y-99177909D01*
X142348000Y-99177909D01*
X142348000Y-99389291D01*
X142389239Y-99596612D01*
X142470131Y-99791903D01*
X142587569Y-99967661D01*
X142737039Y-100117131D01*
X142912797Y-100234569D01*
X143108088Y-100315461D01*
X143315409Y-100356700D01*
X143526791Y-100356700D01*
X143734112Y-100315461D01*
X143929403Y-100234569D01*
X144105161Y-100117131D01*
X144181994Y-100040298D01*
X145329560Y-100040298D01*
X145401506Y-100204380D01*
X145591894Y-100295859D01*
X145796471Y-100348437D01*
X146007374Y-100360094D01*
X146216498Y-100330382D01*
X146415809Y-100260443D01*
X146520694Y-100204380D01*
X146592640Y-100040298D01*
X147869560Y-100040298D01*
X147941506Y-100204380D01*
X148131894Y-100295859D01*
X148336471Y-100348437D01*
X148547374Y-100360094D01*
X148756498Y-100330382D01*
X148955809Y-100260443D01*
X149060694Y-100204380D01*
X149132640Y-100040298D01*
X150409560Y-100040298D01*
X150481506Y-100204380D01*
X150671894Y-100295859D01*
X150876471Y-100348437D01*
X151087374Y-100360094D01*
X151296498Y-100330382D01*
X151495809Y-100260443D01*
X151600694Y-100204380D01*
X151672640Y-100040298D01*
X151041100Y-99408758D01*
X150409560Y-100040298D01*
X149132640Y-100040298D01*
X148501100Y-99408758D01*
X147869560Y-100040298D01*
X146592640Y-100040298D01*
X145961100Y-99408758D01*
X145329560Y-100040298D01*
X144181994Y-100040298D01*
X144254631Y-99967661D01*
X144372069Y-99791903D01*
X144452961Y-99596612D01*
X144494200Y-99389291D01*
X144494200Y-99329874D01*
X144884606Y-99329874D01*
X144914318Y-99538998D01*
X144984257Y-99738309D01*
X145040320Y-99843194D01*
X145204402Y-99915140D01*
X145835942Y-99283600D01*
X146086258Y-99283600D01*
X146717798Y-99915140D01*
X146881880Y-99843194D01*
X146973359Y-99652806D01*
X147025937Y-99448229D01*
X147032478Y-99329874D01*
X147424606Y-99329874D01*
X147454318Y-99538998D01*
X147524257Y-99738309D01*
X147580320Y-99843194D01*
X147744402Y-99915140D01*
X148375942Y-99283600D01*
X148626258Y-99283600D01*
X149257798Y-99915140D01*
X149421880Y-99843194D01*
X149513359Y-99652806D01*
X149565937Y-99448229D01*
X149572478Y-99329874D01*
X149964606Y-99329874D01*
X149994318Y-99538998D01*
X150064257Y-99738309D01*
X150120320Y-99843194D01*
X150284402Y-99915140D01*
X150915942Y-99283600D01*
X151166258Y-99283600D01*
X151797798Y-99915140D01*
X151961880Y-99843194D01*
X152053359Y-99652806D01*
X152105937Y-99448229D01*
X152117594Y-99237326D01*
X152087882Y-99028202D01*
X152017943Y-98828891D01*
X151961880Y-98724006D01*
X151797798Y-98652060D01*
X151166258Y-99283600D01*
X150915942Y-99283600D01*
X150284402Y-98652060D01*
X150120320Y-98724006D01*
X150028841Y-98914394D01*
X149976263Y-99118971D01*
X149964606Y-99329874D01*
X149572478Y-99329874D01*
X149577594Y-99237326D01*
X149547882Y-99028202D01*
X149477943Y-98828891D01*
X149421880Y-98724006D01*
X149257798Y-98652060D01*
X148626258Y-99283600D01*
X148375942Y-99283600D01*
X147744402Y-98652060D01*
X147580320Y-98724006D01*
X147488841Y-98914394D01*
X147436263Y-99118971D01*
X147424606Y-99329874D01*
X147032478Y-99329874D01*
X147037594Y-99237326D01*
X147007882Y-99028202D01*
X146937943Y-98828891D01*
X146881880Y-98724006D01*
X146717798Y-98652060D01*
X146086258Y-99283600D01*
X145835942Y-99283600D01*
X145204402Y-98652060D01*
X145040320Y-98724006D01*
X144948841Y-98914394D01*
X144896263Y-99118971D01*
X144884606Y-99329874D01*
X144494200Y-99329874D01*
X144494200Y-99177909D01*
X144452961Y-98970588D01*
X144372069Y-98775297D01*
X144254631Y-98599539D01*
X144181994Y-98526902D01*
X145329560Y-98526902D01*
X145961100Y-99158442D01*
X146592640Y-98526902D01*
X147869560Y-98526902D01*
X148501100Y-99158442D01*
X149132640Y-98526902D01*
X150409560Y-98526902D01*
X151041100Y-99158442D01*
X151620742Y-98578800D01*
X152506218Y-98578800D01*
X152506218Y-99988400D01*
X152513329Y-100060599D01*
X152534389Y-100130024D01*
X152568588Y-100194007D01*
X152614613Y-100250087D01*
X152670693Y-100296112D01*
X152734676Y-100330311D01*
X152804101Y-100351371D01*
X152876300Y-100358482D01*
X154285900Y-100358482D01*
X154358099Y-100351371D01*
X154427524Y-100330311D01*
X154491507Y-100296112D01*
X154547587Y-100250087D01*
X154593612Y-100194007D01*
X154627811Y-100130024D01*
X154648871Y-100060599D01*
X154655982Y-99988400D01*
X154655982Y-98578800D01*
X154648871Y-98506601D01*
X154627811Y-98437176D01*
X154593612Y-98373193D01*
X154547587Y-98317113D01*
X154491507Y-98271088D01*
X154427524Y-98236889D01*
X154358099Y-98215829D01*
X154285900Y-98208718D01*
X152876300Y-98208718D01*
X152804101Y-98215829D01*
X152734676Y-98236889D01*
X152670693Y-98271088D01*
X152614613Y-98317113D01*
X152568588Y-98373193D01*
X152534389Y-98437176D01*
X152513329Y-98506601D01*
X152506218Y-98578800D01*
X151620742Y-98578800D01*
X151672640Y-98526902D01*
X151600694Y-98362820D01*
X151410306Y-98271341D01*
X151205729Y-98218763D01*
X150994826Y-98207106D01*
X150785702Y-98236818D01*
X150586391Y-98306757D01*
X150481506Y-98362820D01*
X150409560Y-98526902D01*
X149132640Y-98526902D01*
X149060694Y-98362820D01*
X148870306Y-98271341D01*
X148665729Y-98218763D01*
X148454826Y-98207106D01*
X148245702Y-98236818D01*
X148046391Y-98306757D01*
X147941506Y-98362820D01*
X147869560Y-98526902D01*
X146592640Y-98526902D01*
X146520694Y-98362820D01*
X146330306Y-98271341D01*
X146125729Y-98218763D01*
X145914826Y-98207106D01*
X145705702Y-98236818D01*
X145506391Y-98306757D01*
X145401506Y-98362820D01*
X145329560Y-98526902D01*
X144181994Y-98526902D01*
X144105161Y-98450069D01*
X143929403Y-98332631D01*
X143734112Y-98251739D01*
X143526791Y-98210500D01*
X143315409Y-98210500D01*
X143108088Y-98251739D01*
X142912797Y-98332631D01*
X142737039Y-98450069D01*
X142587569Y-98599539D01*
X142470131Y-98775297D01*
X142389239Y-98970588D01*
X142348000Y-99177909D01*
X140639400Y-99177909D01*
X140639400Y-95049779D01*
X142341600Y-95049779D01*
X142341600Y-95262421D01*
X142383085Y-95470978D01*
X142464460Y-95667435D01*
X142582598Y-95844241D01*
X142732959Y-95994602D01*
X142909765Y-96112740D01*
X143106222Y-96194115D01*
X143314779Y-96235600D01*
X143527421Y-96235600D01*
X143735978Y-96194115D01*
X143932435Y-96112740D01*
X144109241Y-95994602D01*
X144259602Y-95844241D01*
X144377740Y-95667435D01*
X144459115Y-95470978D01*
X144500600Y-95262421D01*
X144500600Y-95049779D01*
X147421600Y-95049779D01*
X147421600Y-95262421D01*
X147463085Y-95470978D01*
X147544460Y-95667435D01*
X147662598Y-95844241D01*
X147812959Y-95994602D01*
X147989765Y-96112740D01*
X148186222Y-96194115D01*
X148394779Y-96235600D01*
X148607421Y-96235600D01*
X148815978Y-96194115D01*
X149012435Y-96112740D01*
X149189241Y-95994602D01*
X149339602Y-95844241D01*
X149457740Y-95667435D01*
X149539115Y-95470978D01*
X149580600Y-95262421D01*
X149580600Y-95049779D01*
X149552352Y-94907768D01*
X152984200Y-94907768D01*
X152984200Y-95150432D01*
X153031541Y-95388432D01*
X153124404Y-95612624D01*
X153259221Y-95814391D01*
X153430809Y-95985979D01*
X153632576Y-96120796D01*
X153856768Y-96213659D01*
X154094768Y-96261000D01*
X154337432Y-96261000D01*
X154575432Y-96213659D01*
X154799624Y-96120796D01*
X155001391Y-95985979D01*
X155172979Y-95814391D01*
X155307796Y-95612624D01*
X155400659Y-95388432D01*
X155448000Y-95150432D01*
X155448000Y-94907768D01*
X155400659Y-94669768D01*
X155307796Y-94445576D01*
X155172979Y-94243809D01*
X155001391Y-94072221D01*
X154799624Y-93937404D01*
X154575432Y-93844541D01*
X154337432Y-93797200D01*
X154094768Y-93797200D01*
X153856768Y-93844541D01*
X153632576Y-93937404D01*
X153430809Y-94072221D01*
X153259221Y-94243809D01*
X153124404Y-94445576D01*
X153031541Y-94669768D01*
X152984200Y-94907768D01*
X149552352Y-94907768D01*
X149539115Y-94841222D01*
X149457740Y-94644765D01*
X149339602Y-94467959D01*
X149189241Y-94317598D01*
X149012435Y-94199460D01*
X148815978Y-94118085D01*
X148607421Y-94076600D01*
X148394779Y-94076600D01*
X148186222Y-94118085D01*
X147989765Y-94199460D01*
X147812959Y-94317598D01*
X147662598Y-94467959D01*
X147544460Y-94644765D01*
X147463085Y-94841222D01*
X147421600Y-95049779D01*
X144500600Y-95049779D01*
X144459115Y-94841222D01*
X144377740Y-94644765D01*
X144259602Y-94467959D01*
X144109241Y-94317598D01*
X143932435Y-94199460D01*
X143735978Y-94118085D01*
X143527421Y-94076600D01*
X143314779Y-94076600D01*
X143106222Y-94118085D01*
X142909765Y-94199460D01*
X142732959Y-94317598D01*
X142582598Y-94467959D01*
X142464460Y-94644765D01*
X142383085Y-94841222D01*
X142341600Y-95049779D01*
X140639400Y-95049779D01*
X140639400Y-91933875D01*
X140840581Y-91933875D01*
X140864369Y-92030456D01*
X140957401Y-92241309D01*
X141089780Y-92429961D01*
X141256420Y-92589163D01*
X141450917Y-92712796D01*
X141665796Y-92796109D01*
X141892800Y-92835900D01*
X142697600Y-92835900D01*
X142697600Y-91752100D01*
X142874600Y-91752100D01*
X142874600Y-92835900D01*
X143679400Y-92835900D01*
X143906404Y-92796109D01*
X144121283Y-92712796D01*
X144315780Y-92589163D01*
X144482420Y-92429961D01*
X144614799Y-92241309D01*
X144707831Y-92030456D01*
X144731619Y-91933875D01*
X144667694Y-91752100D01*
X142874600Y-91752100D01*
X142697600Y-91752100D01*
X140904506Y-91752100D01*
X140840581Y-91933875D01*
X140639400Y-91933875D01*
X140639400Y-91663600D01*
X148422524Y-91663600D01*
X148445174Y-91893568D01*
X148512253Y-92114698D01*
X148621184Y-92318493D01*
X148767779Y-92497121D01*
X148946407Y-92643716D01*
X149150202Y-92752647D01*
X149371332Y-92819726D01*
X149543671Y-92836700D01*
X151268529Y-92836700D01*
X151440868Y-92819726D01*
X151661998Y-92752647D01*
X151865793Y-92643716D01*
X152044421Y-92497121D01*
X152191016Y-92318493D01*
X152299947Y-92114698D01*
X152367026Y-91893568D01*
X152389676Y-91663600D01*
X152367026Y-91433632D01*
X152299947Y-91212502D01*
X152191016Y-91008707D01*
X152044421Y-90830079D01*
X151865793Y-90683484D01*
X151661998Y-90574553D01*
X151440868Y-90507474D01*
X151268529Y-90490500D01*
X149543671Y-90490500D01*
X149371332Y-90507474D01*
X149150202Y-90574553D01*
X148946407Y-90683484D01*
X148767779Y-90830079D01*
X148621184Y-91008707D01*
X148512253Y-91212502D01*
X148445174Y-91433632D01*
X148422524Y-91663600D01*
X140639400Y-91663600D01*
X140639400Y-91393325D01*
X140840581Y-91393325D01*
X140904506Y-91575100D01*
X142697600Y-91575100D01*
X142697600Y-90491300D01*
X142874600Y-90491300D01*
X142874600Y-91575100D01*
X144667694Y-91575100D01*
X144731619Y-91393325D01*
X144707831Y-91296744D01*
X144614799Y-91085891D01*
X144482420Y-90897239D01*
X144315780Y-90738037D01*
X144121283Y-90614404D01*
X143906404Y-90531091D01*
X143679400Y-90491300D01*
X142874600Y-90491300D01*
X142697600Y-90491300D01*
X141892800Y-90491300D01*
X141665796Y-90531091D01*
X141450917Y-90614404D01*
X141256420Y-90738037D01*
X141089780Y-90897239D01*
X140957401Y-91085891D01*
X140864369Y-91296744D01*
X140840581Y-91393325D01*
X140639400Y-91393325D01*
X140639400Y-88560486D01*
X148173372Y-88560486D01*
X148236882Y-88717432D01*
X148415365Y-88801933D01*
X148606904Y-88849991D01*
X148804137Y-88859757D01*
X148999487Y-88830858D01*
X149185444Y-88764402D01*
X149273318Y-88717432D01*
X149336828Y-88560486D01*
X148755100Y-87978758D01*
X148173372Y-88560486D01*
X140639400Y-88560486D01*
X140639400Y-87902637D01*
X147748943Y-87902637D01*
X147777842Y-88097987D01*
X147844298Y-88283944D01*
X147891268Y-88371818D01*
X148048214Y-88435328D01*
X148629942Y-87853600D01*
X148880258Y-87853600D01*
X149461986Y-88435328D01*
X149618932Y-88371818D01*
X149703433Y-88193335D01*
X149751491Y-88001796D01*
X149761257Y-87804563D01*
X149753893Y-87754784D01*
X149783800Y-87754784D01*
X149783800Y-87952416D01*
X149822356Y-88146252D01*
X149897987Y-88328841D01*
X150007786Y-88493167D01*
X150147533Y-88632914D01*
X150311859Y-88742713D01*
X150494448Y-88818344D01*
X150688284Y-88856900D01*
X150885916Y-88856900D01*
X151079752Y-88818344D01*
X151262341Y-88742713D01*
X151426667Y-88632914D01*
X151566414Y-88493167D01*
X151676213Y-88328841D01*
X151751844Y-88146252D01*
X151790400Y-87952416D01*
X151790400Y-87754784D01*
X151751844Y-87560948D01*
X151676213Y-87378359D01*
X151566414Y-87214033D01*
X151426667Y-87074286D01*
X151262341Y-86964487D01*
X151079752Y-86888856D01*
X150885916Y-86850300D01*
X150688284Y-86850300D01*
X150494448Y-86888856D01*
X150311859Y-86964487D01*
X150147533Y-87074286D01*
X150007786Y-87214033D01*
X149897987Y-87378359D01*
X149822356Y-87560948D01*
X149783800Y-87754784D01*
X149753893Y-87754784D01*
X149732358Y-87609213D01*
X149665902Y-87423256D01*
X149618932Y-87335382D01*
X149461986Y-87271872D01*
X148880258Y-87853600D01*
X148629942Y-87853600D01*
X148048214Y-87271872D01*
X147891268Y-87335382D01*
X147806767Y-87513865D01*
X147758709Y-87705404D01*
X147748943Y-87902637D01*
X140639400Y-87902637D01*
X140639400Y-87146714D01*
X148173372Y-87146714D01*
X148755100Y-87728442D01*
X149336828Y-87146714D01*
X149273318Y-86989768D01*
X149094835Y-86905267D01*
X148903296Y-86857209D01*
X148706063Y-86847443D01*
X148510713Y-86876342D01*
X148324756Y-86942798D01*
X148236882Y-86989768D01*
X148173372Y-87146714D01*
X140639400Y-87146714D01*
X140639400Y-86271768D01*
X152984200Y-86271768D01*
X152984200Y-86514432D01*
X153031541Y-86752432D01*
X153124404Y-86976624D01*
X153259221Y-87178391D01*
X153430809Y-87349979D01*
X153632576Y-87484796D01*
X153856768Y-87577659D01*
X154094768Y-87625000D01*
X154337432Y-87625000D01*
X154575432Y-87577659D01*
X154799624Y-87484796D01*
X155001391Y-87349979D01*
X155172979Y-87178391D01*
X155307796Y-86976624D01*
X155400659Y-86752432D01*
X155448000Y-86514432D01*
X155448000Y-86271768D01*
X155400659Y-86033768D01*
X155307796Y-85809576D01*
X155172979Y-85607809D01*
X155001391Y-85436221D01*
X154799624Y-85301404D01*
X154575432Y-85208541D01*
X154337432Y-85161200D01*
X154094768Y-85161200D01*
X153856768Y-85208541D01*
X153632576Y-85301404D01*
X153430809Y-85436221D01*
X153259221Y-85607809D01*
X153124404Y-85809576D01*
X153031541Y-86033768D01*
X152984200Y-86271768D01*
X140639400Y-86271768D01*
X140639400Y-84332817D01*
X142622041Y-84332817D01*
X142722324Y-84520949D01*
X142952759Y-84635900D01*
X143201193Y-84703686D01*
X143458077Y-84721703D01*
X143713541Y-84689258D01*
X143957766Y-84607599D01*
X144119876Y-84520949D01*
X144220159Y-84332817D01*
X145162041Y-84332817D01*
X145262324Y-84520949D01*
X145492759Y-84635900D01*
X145741193Y-84703686D01*
X145998077Y-84721703D01*
X146253541Y-84689258D01*
X146497766Y-84607599D01*
X146659876Y-84520949D01*
X146760159Y-84332817D01*
X147702041Y-84332817D01*
X147802324Y-84520949D01*
X148032759Y-84635900D01*
X148281193Y-84703686D01*
X148538077Y-84721703D01*
X148793541Y-84689258D01*
X149037766Y-84607599D01*
X149199876Y-84520949D01*
X149300159Y-84332817D01*
X150242041Y-84332817D01*
X150342324Y-84520949D01*
X150572759Y-84635900D01*
X150821193Y-84703686D01*
X151078077Y-84721703D01*
X151333541Y-84689258D01*
X151577766Y-84607599D01*
X151739876Y-84520949D01*
X151840159Y-84332817D01*
X152782041Y-84332817D01*
X152882324Y-84520949D01*
X153112759Y-84635900D01*
X153361193Y-84703686D01*
X153618077Y-84721703D01*
X153873541Y-84689258D01*
X154117766Y-84607599D01*
X154279876Y-84520949D01*
X154380159Y-84332817D01*
X153581100Y-83533758D01*
X152782041Y-84332817D01*
X151840159Y-84332817D01*
X151041100Y-83533758D01*
X150242041Y-84332817D01*
X149300159Y-84332817D01*
X148501100Y-83533758D01*
X147702041Y-84332817D01*
X146760159Y-84332817D01*
X145961100Y-83533758D01*
X145162041Y-84332817D01*
X144220159Y-84332817D01*
X143421100Y-83533758D01*
X142622041Y-84332817D01*
X140639400Y-84332817D01*
X140639400Y-83445577D01*
X142107997Y-83445577D01*
X142140442Y-83701041D01*
X142222101Y-83945266D01*
X142308751Y-84107376D01*
X142496883Y-84207659D01*
X143295942Y-83408600D01*
X143546258Y-83408600D01*
X144345317Y-84207659D01*
X144533449Y-84107376D01*
X144648400Y-83876941D01*
X144689226Y-83727313D01*
X144762101Y-83945266D01*
X144848751Y-84107376D01*
X145036883Y-84207659D01*
X145835942Y-83408600D01*
X146086258Y-83408600D01*
X146885317Y-84207659D01*
X147073449Y-84107376D01*
X147188400Y-83876941D01*
X147229226Y-83727313D01*
X147302101Y-83945266D01*
X147388751Y-84107376D01*
X147576883Y-84207659D01*
X148375942Y-83408600D01*
X148626258Y-83408600D01*
X149425317Y-84207659D01*
X149613449Y-84107376D01*
X149728400Y-83876941D01*
X149769226Y-83727313D01*
X149842101Y-83945266D01*
X149928751Y-84107376D01*
X150116883Y-84207659D01*
X150915942Y-83408600D01*
X151166258Y-83408600D01*
X151965317Y-84207659D01*
X152153449Y-84107376D01*
X152268400Y-83876941D01*
X152309226Y-83727313D01*
X152382101Y-83945266D01*
X152468751Y-84107376D01*
X152656883Y-84207659D01*
X153455942Y-83408600D01*
X153706258Y-83408600D01*
X154505317Y-84207659D01*
X154693449Y-84107376D01*
X154808400Y-83876941D01*
X154876186Y-83628507D01*
X154894203Y-83371623D01*
X154861758Y-83116159D01*
X154780099Y-82871934D01*
X154693449Y-82709824D01*
X154505317Y-82609541D01*
X153706258Y-83408600D01*
X153455942Y-83408600D01*
X152656883Y-82609541D01*
X152468751Y-82709824D01*
X152353800Y-82940259D01*
X152312974Y-83089887D01*
X152240099Y-82871934D01*
X152153449Y-82709824D01*
X151965317Y-82609541D01*
X151166258Y-83408600D01*
X150915942Y-83408600D01*
X150116883Y-82609541D01*
X149928751Y-82709824D01*
X149813800Y-82940259D01*
X149772974Y-83089887D01*
X149700099Y-82871934D01*
X149613449Y-82709824D01*
X149425317Y-82609541D01*
X148626258Y-83408600D01*
X148375942Y-83408600D01*
X147576883Y-82609541D01*
X147388751Y-82709824D01*
X147273800Y-82940259D01*
X147232974Y-83089887D01*
X147160099Y-82871934D01*
X147073449Y-82709824D01*
X146885317Y-82609541D01*
X146086258Y-83408600D01*
X145835942Y-83408600D01*
X145036883Y-82609541D01*
X144848751Y-82709824D01*
X144733800Y-82940259D01*
X144692974Y-83089887D01*
X144620099Y-82871934D01*
X144533449Y-82709824D01*
X144345317Y-82609541D01*
X143546258Y-83408600D01*
X143295942Y-83408600D01*
X142496883Y-82609541D01*
X142308751Y-82709824D01*
X142193800Y-82940259D01*
X142126014Y-83188693D01*
X142107997Y-83445577D01*
X140639400Y-83445577D01*
X140639400Y-80887836D01*
X140653918Y-80739763D01*
X142113000Y-80739763D01*
X142113000Y-80997437D01*
X142163270Y-81250159D01*
X142261877Y-81488218D01*
X142405033Y-81702465D01*
X142587235Y-81884667D01*
X142801482Y-82027823D01*
X143039541Y-82126430D01*
X143098253Y-82138109D01*
X142884434Y-82209601D01*
X142722324Y-82296251D01*
X142622041Y-82484383D01*
X143421100Y-83283442D01*
X144220159Y-82484383D01*
X144119876Y-82296251D01*
X143889441Y-82181300D01*
X143736543Y-82139581D01*
X143802659Y-82126430D01*
X144040718Y-82027823D01*
X144254965Y-81884667D01*
X144437167Y-81702465D01*
X144580323Y-81488218D01*
X144678930Y-81250159D01*
X144691100Y-81188977D01*
X144703270Y-81250159D01*
X144801877Y-81488218D01*
X144945033Y-81702465D01*
X145127235Y-81884667D01*
X145341482Y-82027823D01*
X145579541Y-82126430D01*
X145638253Y-82138109D01*
X145424434Y-82209601D01*
X145262324Y-82296251D01*
X145162041Y-82484383D01*
X145961100Y-83283442D01*
X146760159Y-82484383D01*
X146659876Y-82296251D01*
X146429441Y-82181300D01*
X146276543Y-82139581D01*
X146342659Y-82126430D01*
X146580718Y-82027823D01*
X146794965Y-81884667D01*
X146977167Y-81702465D01*
X147120323Y-81488218D01*
X147218930Y-81250159D01*
X147231100Y-81188977D01*
X147243270Y-81250159D01*
X147341877Y-81488218D01*
X147485033Y-81702465D01*
X147667235Y-81884667D01*
X147881482Y-82027823D01*
X148119541Y-82126430D01*
X148178253Y-82138109D01*
X147964434Y-82209601D01*
X147802324Y-82296251D01*
X147702041Y-82484383D01*
X148501100Y-83283442D01*
X149300159Y-82484383D01*
X149199876Y-82296251D01*
X148969441Y-82181300D01*
X148816543Y-82139581D01*
X148882659Y-82126430D01*
X149120718Y-82027823D01*
X149334965Y-81884667D01*
X149517167Y-81702465D01*
X149660323Y-81488218D01*
X149758930Y-81250159D01*
X149771100Y-81188977D01*
X149783270Y-81250159D01*
X149881877Y-81488218D01*
X150025033Y-81702465D01*
X150207235Y-81884667D01*
X150421482Y-82027823D01*
X150659541Y-82126430D01*
X150718253Y-82138109D01*
X150504434Y-82209601D01*
X150342324Y-82296251D01*
X150242041Y-82484383D01*
X151041100Y-83283442D01*
X151840159Y-82484383D01*
X151739876Y-82296251D01*
X151509441Y-82181300D01*
X151356543Y-82139581D01*
X151422659Y-82126430D01*
X151660718Y-82027823D01*
X151874965Y-81884667D01*
X152057167Y-81702465D01*
X152200323Y-81488218D01*
X152298930Y-81250159D01*
X152311100Y-81188977D01*
X152323270Y-81250159D01*
X152421877Y-81488218D01*
X152565033Y-81702465D01*
X152747235Y-81884667D01*
X152961482Y-82027823D01*
X153199541Y-82126430D01*
X153258253Y-82138109D01*
X153044434Y-82209601D01*
X152882324Y-82296251D01*
X152782041Y-82484383D01*
X153581100Y-83283442D01*
X154380159Y-82484383D01*
X154279876Y-82296251D01*
X154049441Y-82181300D01*
X153896543Y-82139581D01*
X153962659Y-82126430D01*
X154200718Y-82027823D01*
X154414965Y-81884667D01*
X154597167Y-81702465D01*
X154740323Y-81488218D01*
X154838930Y-81250159D01*
X154889200Y-80997437D01*
X154889200Y-80739763D01*
X154838930Y-80487041D01*
X154740323Y-80248982D01*
X154597167Y-80034735D01*
X154414965Y-79852533D01*
X154200718Y-79709377D01*
X153962659Y-79610770D01*
X153709937Y-79560500D01*
X153452263Y-79560500D01*
X153199541Y-79610770D01*
X152961482Y-79709377D01*
X152747235Y-79852533D01*
X152565033Y-80034735D01*
X152421877Y-80248982D01*
X152323270Y-80487041D01*
X152311100Y-80548223D01*
X152298930Y-80487041D01*
X152200323Y-80248982D01*
X152057167Y-80034735D01*
X151874965Y-79852533D01*
X151660718Y-79709377D01*
X151422659Y-79610770D01*
X151169937Y-79560500D01*
X150912263Y-79560500D01*
X150659541Y-79610770D01*
X150421482Y-79709377D01*
X150207235Y-79852533D01*
X150025033Y-80034735D01*
X149881877Y-80248982D01*
X149783270Y-80487041D01*
X149771100Y-80548223D01*
X149758930Y-80487041D01*
X149660323Y-80248982D01*
X149517167Y-80034735D01*
X149334965Y-79852533D01*
X149120718Y-79709377D01*
X148882659Y-79610770D01*
X148629937Y-79560500D01*
X148372263Y-79560500D01*
X148119541Y-79610770D01*
X147881482Y-79709377D01*
X147667235Y-79852533D01*
X147485033Y-80034735D01*
X147341877Y-80248982D01*
X147243270Y-80487041D01*
X147231100Y-80548223D01*
X147218930Y-80487041D01*
X147120323Y-80248982D01*
X146977167Y-80034735D01*
X146794965Y-79852533D01*
X146580718Y-79709377D01*
X146342659Y-79610770D01*
X146089937Y-79560500D01*
X145832263Y-79560500D01*
X145579541Y-79610770D01*
X145341482Y-79709377D01*
X145127235Y-79852533D01*
X144945033Y-80034735D01*
X144801877Y-80248982D01*
X144703270Y-80487041D01*
X144691100Y-80548223D01*
X144678930Y-80487041D01*
X144580323Y-80248982D01*
X144437167Y-80034735D01*
X144254965Y-79852533D01*
X144040718Y-79709377D01*
X143802659Y-79610770D01*
X143549937Y-79560500D01*
X143292263Y-79560500D01*
X143039541Y-79610770D01*
X142801482Y-79709377D01*
X142587235Y-79852533D01*
X142405033Y-80034735D01*
X142261877Y-80248982D01*
X142163270Y-80487041D01*
X142113000Y-80739763D01*
X140653918Y-80739763D01*
X140669850Y-80577285D01*
X140754454Y-80297064D01*
X140891874Y-80038614D01*
X141076876Y-79811780D01*
X141302414Y-79625198D01*
X141559900Y-79485976D01*
X141839523Y-79399419D01*
X142148916Y-79366900D01*
X154841864Y-79366900D01*
X155152415Y-79397350D01*
G04 #@! TD*
M02*
