G04 #@! TF.GenerationSoftware,KiCad,Pcbnew,(5.1.5)-3*
G04 #@! TF.CreationDate,2020-03-15T10:48:32-07:00*
G04 #@! TF.ProjectId,bbf-europower,6262662d-6575-4726-9f70-6f7765722e6b,rev?*
G04 #@! TF.SameCoordinates,Original*
G04 #@! TF.FileFunction,Legend,Bot*
G04 #@! TF.FilePolarity,Positive*
%FSLAX46Y46*%
G04 Gerber Fmt 4.6, Leading zero omitted, Abs format (unit mm)*
G04 Created by KiCad (PCBNEW (5.1.5)-3) date 2020-03-15 10:48:32*
%MOMM*%
%LPD*%
G04 APERTURE LIST*
%ADD10C,2.082800*%
%ADD11C,1.612800*%
%ADD12R,1.612800X1.612800*%
%ADD13C,1.473200*%
%ADD14O,3.422400X1.812800*%
%ADD15C,1.930400*%
%ADD16C,1.625600*%
G04 APERTURE END LIST*
%LPC*%
D10*
G04 #@! TO.C,JP1*
X153581100Y-80868600D03*
X153581100Y-83408600D03*
X151041100Y-80868600D03*
X151041100Y-83408600D03*
X148501100Y-80868600D03*
X148501100Y-83408600D03*
X145961100Y-80868600D03*
X145961100Y-83408600D03*
X143421100Y-80868600D03*
X143421100Y-83408600D03*
G04 #@! TD*
G04 #@! TO.C,JP2*
X153581100Y-126588600D03*
X153581100Y-129128600D03*
X151041100Y-126588600D03*
X151041100Y-129128600D03*
X148501100Y-126588600D03*
X148501100Y-129128600D03*
X145961100Y-126588600D03*
X145961100Y-129128600D03*
X143421100Y-126588600D03*
X143421100Y-129128600D03*
G04 #@! TD*
D11*
G04 #@! TO.C,J1*
X143421100Y-101823600D03*
X143421100Y-99283600D03*
X145961100Y-101823600D03*
X145961100Y-99283600D03*
X148501100Y-101823600D03*
X148501100Y-99283600D03*
X151041100Y-101823600D03*
X151041100Y-99283600D03*
X153581100Y-101823600D03*
D12*
X153581100Y-99283600D03*
G04 #@! TD*
D13*
G04 #@! TO.C,C1*
X150787100Y-87853600D03*
X148755100Y-87853600D03*
G04 #@! TD*
G04 #@! TO.C,C2*
X148247100Y-122143600D03*
X146215100Y-122143600D03*
G04 #@! TD*
D14*
G04 #@! TO.C,D2*
X146596100Y-117698600D03*
X154216100Y-117698600D03*
G04 #@! TD*
G04 #@! TO.C,D1*
X142786100Y-91663600D03*
X150406100Y-91663600D03*
G04 #@! TD*
D15*
G04 #@! TO.C,L1*
X154216100Y-95029100D03*
X154216100Y-86393100D03*
G04 #@! TD*
G04 #@! TO.C,L2*
X142786100Y-114333100D03*
X142786100Y-122969100D03*
G04 #@! TD*
D11*
G04 #@! TO.C,J2*
X143421100Y-110713600D03*
X143421100Y-108173600D03*
X145961100Y-110713600D03*
X145961100Y-108173600D03*
X148501100Y-110713600D03*
X148501100Y-108173600D03*
X151041100Y-110713600D03*
X151041100Y-108173600D03*
X153581100Y-110713600D03*
D12*
X153581100Y-108173600D03*
G04 #@! TD*
D16*
G04 #@! TO.C,+FUSE1*
X148501100Y-95156100D03*
X143421100Y-95156100D03*
G04 #@! TD*
G04 #@! TO.C,-FUSE1*
X148501100Y-114523600D03*
X153581100Y-114523600D03*
G04 #@! TD*
M02*
