G04 #@! TF.GenerationSoftware,KiCad,Pcbnew,(5.1.5)-3*
G04 #@! TF.CreationDate,2020-03-15T10:48:32-07:00*
G04 #@! TF.ProjectId,bbf-europower,6262662d-6575-4726-9f70-6f7765722e6b,rev?*
G04 #@! TF.SameCoordinates,Original*
G04 #@! TF.FileFunction,Other,Fab,Top*
%FSLAX46Y46*%
G04 Gerber Fmt 4.6, Leading zero omitted, Abs format (unit mm)*
G04 Created by KiCad (PCBNEW (5.1.5)-3) date 2020-03-15 10:48:32*
%MOMM*%
%LPD*%
G04 APERTURE LIST*
%ADD10C,0.100000*%
%ADD11C,0.152400*%
%ADD12C,0.508000*%
%ADD13C,0.600000*%
%ADD14C,0.120650*%
G04 APERTURE END LIST*
D10*
G04 #@! TO.C,JP1*
G36*
X151295100Y-81122600D02*
G01*
X151295100Y-80614600D01*
X150787100Y-80614600D01*
X150787100Y-81122600D01*
X151295100Y-81122600D01*
G37*
G36*
X151295100Y-83662600D02*
G01*
X151295100Y-83154600D01*
X150787100Y-83154600D01*
X150787100Y-83662600D01*
X151295100Y-83662600D01*
G37*
G36*
X153835100Y-83662600D02*
G01*
X153835100Y-83154600D01*
X153327100Y-83154600D01*
X153327100Y-83662600D01*
X153835100Y-83662600D01*
G37*
G36*
X153835100Y-81122600D02*
G01*
X153835100Y-80614600D01*
X153327100Y-80614600D01*
X153327100Y-81122600D01*
X153835100Y-81122600D01*
G37*
G36*
X148755100Y-81122600D02*
G01*
X148755100Y-80614600D01*
X148247100Y-80614600D01*
X148247100Y-81122600D01*
X148755100Y-81122600D01*
G37*
G36*
X146215100Y-83662600D02*
G01*
X146215100Y-83154600D01*
X145707100Y-83154600D01*
X145707100Y-83662600D01*
X146215100Y-83662600D01*
G37*
G36*
X146215100Y-81122600D02*
G01*
X146215100Y-80614600D01*
X145707100Y-80614600D01*
X145707100Y-81122600D01*
X146215100Y-81122600D01*
G37*
G36*
X143675100Y-81122600D02*
G01*
X143675100Y-80614600D01*
X143167100Y-80614600D01*
X143167100Y-81122600D01*
X143675100Y-81122600D01*
G37*
G36*
X143675100Y-83662600D02*
G01*
X143675100Y-83154600D01*
X143167100Y-83154600D01*
X143167100Y-83662600D01*
X143675100Y-83662600D01*
G37*
G04 #@! TO.C,JP2*
G36*
X151295100Y-126842600D02*
G01*
X151295100Y-126334600D01*
X150787100Y-126334600D01*
X150787100Y-126842600D01*
X151295100Y-126842600D01*
G37*
G36*
X151295100Y-129382600D02*
G01*
X151295100Y-128874600D01*
X150787100Y-128874600D01*
X150787100Y-129382600D01*
X151295100Y-129382600D01*
G37*
G36*
X153835100Y-129382600D02*
G01*
X153835100Y-128874600D01*
X153327100Y-128874600D01*
X153327100Y-129382600D01*
X153835100Y-129382600D01*
G37*
G36*
X153835100Y-126842600D02*
G01*
X153835100Y-126334600D01*
X153327100Y-126334600D01*
X153327100Y-126842600D01*
X153835100Y-126842600D01*
G37*
G36*
X148755100Y-126842600D02*
G01*
X148755100Y-126334600D01*
X148247100Y-126334600D01*
X148247100Y-126842600D01*
X148755100Y-126842600D01*
G37*
G36*
X146215100Y-129382600D02*
G01*
X146215100Y-128874600D01*
X145707100Y-128874600D01*
X145707100Y-129382600D01*
X146215100Y-129382600D01*
G37*
G36*
X146215100Y-126842600D02*
G01*
X146215100Y-126334600D01*
X145707100Y-126334600D01*
X145707100Y-126842600D01*
X146215100Y-126842600D01*
G37*
G36*
X143675100Y-126842600D02*
G01*
X143675100Y-126334600D01*
X143167100Y-126334600D01*
X143167100Y-126842600D01*
X143675100Y-126842600D01*
G37*
G36*
X143675100Y-129382600D02*
G01*
X143675100Y-128874600D01*
X143167100Y-128874600D01*
X143167100Y-129382600D01*
X143675100Y-129382600D01*
G37*
G04 #@! TO.C,C1*
G36*
X149517100Y-86837600D02*
G01*
X149009100Y-86837600D01*
X149009100Y-88869600D01*
X149517100Y-88869600D01*
X149517100Y-86837600D01*
G37*
D11*
X149136100Y-87853600D02*
X148247100Y-87853600D01*
X150533100Y-88869600D02*
X150533100Y-87853600D01*
X150025100Y-88869600D02*
X150533100Y-88869600D01*
X150025100Y-86837600D02*
X150025100Y-88869600D01*
X150533100Y-86837600D02*
X150025100Y-86837600D01*
X150533100Y-87853600D02*
X150533100Y-86837600D01*
X151295100Y-87853600D02*
X150533100Y-87853600D01*
D10*
G04 #@! TO.C,C2*
G36*
X146977100Y-121127600D02*
G01*
X146469100Y-121127600D01*
X146469100Y-123159600D01*
X146977100Y-123159600D01*
X146977100Y-121127600D01*
G37*
D11*
X146596100Y-122143600D02*
X145707100Y-122143600D01*
X147993100Y-123159600D02*
X147993100Y-122143600D01*
X147485100Y-123159600D02*
X147993100Y-123159600D01*
X147485100Y-121127600D02*
X147485100Y-123159600D01*
X147993100Y-121127600D02*
X147485100Y-121127600D01*
X147993100Y-122143600D02*
X147993100Y-121127600D01*
X148755100Y-122143600D02*
X147993100Y-122143600D01*
D12*
G04 #@! TO.C,D2*
X154216100Y-117698600D02*
X153327100Y-117698600D01*
X146596100Y-117698600D02*
X147485100Y-117698600D01*
G04 #@! TO.C,D1*
X150406100Y-91663600D02*
X149517100Y-91663600D01*
X142786100Y-91663600D02*
X143675100Y-91663600D01*
D13*
G04 #@! TO.C,L1*
X154216100Y-95029100D02*
X154216100Y-93759100D01*
X154216100Y-86393100D02*
X154216100Y-87663100D01*
G04 #@! TO.C,L2*
X142786100Y-114333100D02*
X142786100Y-115603100D01*
X142786100Y-122969100D02*
X142786100Y-121699100D01*
D10*
G04 #@! TO.C,+FUSE1*
G36*
X148247100Y-95029100D02*
G01*
X148755100Y-95029100D01*
X148755100Y-94648100D01*
X148247100Y-94648100D01*
X148247100Y-95029100D01*
G37*
G36*
X143167100Y-95029100D02*
G01*
X143675100Y-95029100D01*
X143675100Y-94648100D01*
X143167100Y-94648100D01*
X143167100Y-95029100D01*
G37*
D12*
X148501100Y-95156100D02*
X148501100Y-94902100D01*
X143421100Y-95156100D02*
X143421100Y-94902100D01*
D11*
X147739100Y-94648100D02*
X149263100Y-94648100D01*
X142659100Y-94648100D02*
X144183100Y-94648100D01*
D10*
G04 #@! TO.C,-FUSE1*
G36*
X148755100Y-114650600D02*
G01*
X148247100Y-114650600D01*
X148247100Y-115031600D01*
X148755100Y-115031600D01*
X148755100Y-114650600D01*
G37*
G36*
X153835100Y-114650600D02*
G01*
X153327100Y-114650600D01*
X153327100Y-115031600D01*
X153835100Y-115031600D01*
X153835100Y-114650600D01*
G37*
D12*
X148501100Y-114523600D02*
X148501100Y-114777600D01*
X153581100Y-114523600D02*
X153581100Y-114777600D01*
D11*
X149263100Y-115031600D02*
X147739100Y-115031600D01*
X154343100Y-115031600D02*
X152819100Y-115031600D01*
G04 #@! TD*
G04 #@! TO.C,L1*
D14*
X156320671Y-92375248D02*
X156320671Y-92777415D01*
X156952647Y-92777415D02*
X155746147Y-92777415D01*
X155746147Y-92202891D01*
X156320671Y-91743272D02*
X156320671Y-91341106D01*
X156952647Y-91168748D02*
X156952647Y-91743272D01*
X155746147Y-91743272D01*
X155746147Y-91168748D01*
X156952647Y-89962248D02*
X156378123Y-90364415D01*
X156952647Y-90651677D02*
X155746147Y-90651677D01*
X155746147Y-90192058D01*
X155803600Y-90077153D01*
X155861052Y-90019701D01*
X155975957Y-89962248D01*
X156148314Y-89962248D01*
X156263219Y-90019701D01*
X156320671Y-90077153D01*
X156378123Y-90192058D01*
X156378123Y-90651677D01*
X156952647Y-88755748D02*
X156378123Y-89157915D01*
X156952647Y-89445177D02*
X155746147Y-89445177D01*
X155746147Y-88985558D01*
X155803600Y-88870653D01*
X155861052Y-88813201D01*
X155975957Y-88755748D01*
X156148314Y-88755748D01*
X156263219Y-88813201D01*
X156320671Y-88870653D01*
X156378123Y-88985558D01*
X156378123Y-89445177D01*
X156952647Y-88238677D02*
X155746147Y-88238677D01*
X155746147Y-87836510D02*
X155746147Y-87147082D01*
X156952647Y-87491796D02*
X155746147Y-87491796D01*
X156320671Y-86744915D02*
X156320671Y-86342748D01*
X156952647Y-86170391D02*
X156952647Y-86744915D01*
X155746147Y-86744915D01*
X155746147Y-86170391D01*
X156493028Y-85653320D02*
X156493028Y-84734082D01*
X156895195Y-84217010D02*
X156952647Y-84044653D01*
X156952647Y-83757391D01*
X156895195Y-83642487D01*
X156837742Y-83585034D01*
X156722838Y-83527582D01*
X156607933Y-83527582D01*
X156493028Y-83585034D01*
X156435576Y-83642487D01*
X156378123Y-83757391D01*
X156320671Y-83987201D01*
X156263219Y-84102106D01*
X156205766Y-84159558D01*
X156090861Y-84217010D01*
X155975957Y-84217010D01*
X155861052Y-84159558D01*
X155803600Y-84102106D01*
X155746147Y-83987201D01*
X155746147Y-83699939D01*
X155803600Y-83527582D01*
X156952647Y-83010510D02*
X155746147Y-83010510D01*
X156320671Y-83010510D02*
X156320671Y-82321082D01*
X156952647Y-82321082D02*
X155746147Y-82321082D01*
X155746147Y-81516748D02*
X155746147Y-81286939D01*
X155803600Y-81172034D01*
X155918504Y-81057129D01*
X156148314Y-80999677D01*
X156550480Y-80999677D01*
X156780290Y-81057129D01*
X156895195Y-81172034D01*
X156952647Y-81286939D01*
X156952647Y-81516748D01*
X156895195Y-81631653D01*
X156780290Y-81746558D01*
X156550480Y-81804010D01*
X156148314Y-81804010D01*
X155918504Y-81746558D01*
X155803600Y-81631653D01*
X155746147Y-81516748D01*
X156952647Y-79793177D02*
X156378123Y-80195344D01*
X156952647Y-80482606D02*
X155746147Y-80482606D01*
X155746147Y-80022987D01*
X155803600Y-79908082D01*
X155861052Y-79850629D01*
X155975957Y-79793177D01*
X156148314Y-79793177D01*
X156263219Y-79850629D01*
X156320671Y-79908082D01*
X156378123Y-80022987D01*
X156378123Y-80482606D01*
X155746147Y-79448463D02*
X155746147Y-78759034D01*
X156952647Y-79103748D02*
X155746147Y-79103748D01*
G04 #@! TO.C,L2*
X139302671Y-115451248D02*
X139302671Y-115853415D01*
X139934647Y-115853415D02*
X138728147Y-115853415D01*
X138728147Y-115278891D01*
X139302671Y-114819272D02*
X139302671Y-114417106D01*
X139934647Y-114244748D02*
X139934647Y-114819272D01*
X138728147Y-114819272D01*
X138728147Y-114244748D01*
X139934647Y-113038248D02*
X139360123Y-113440415D01*
X139934647Y-113727677D02*
X138728147Y-113727677D01*
X138728147Y-113268058D01*
X138785600Y-113153153D01*
X138843052Y-113095701D01*
X138957957Y-113038248D01*
X139130314Y-113038248D01*
X139245219Y-113095701D01*
X139302671Y-113153153D01*
X139360123Y-113268058D01*
X139360123Y-113727677D01*
X139934647Y-111831748D02*
X139360123Y-112233915D01*
X139934647Y-112521177D02*
X138728147Y-112521177D01*
X138728147Y-112061558D01*
X138785600Y-111946653D01*
X138843052Y-111889201D01*
X138957957Y-111831748D01*
X139130314Y-111831748D01*
X139245219Y-111889201D01*
X139302671Y-111946653D01*
X139360123Y-112061558D01*
X139360123Y-112521177D01*
X139934647Y-111314677D02*
X138728147Y-111314677D01*
X138728147Y-110912510D02*
X138728147Y-110223082D01*
X139934647Y-110567796D02*
X138728147Y-110567796D01*
X139302671Y-109820915D02*
X139302671Y-109418748D01*
X139934647Y-109246391D02*
X139934647Y-109820915D01*
X138728147Y-109820915D01*
X138728147Y-109246391D01*
X139475028Y-108729320D02*
X139475028Y-107810082D01*
X139877195Y-107293010D02*
X139934647Y-107120653D01*
X139934647Y-106833391D01*
X139877195Y-106718487D01*
X139819742Y-106661034D01*
X139704838Y-106603582D01*
X139589933Y-106603582D01*
X139475028Y-106661034D01*
X139417576Y-106718487D01*
X139360123Y-106833391D01*
X139302671Y-107063201D01*
X139245219Y-107178106D01*
X139187766Y-107235558D01*
X139072861Y-107293010D01*
X138957957Y-107293010D01*
X138843052Y-107235558D01*
X138785600Y-107178106D01*
X138728147Y-107063201D01*
X138728147Y-106775939D01*
X138785600Y-106603582D01*
X139934647Y-106086510D02*
X138728147Y-106086510D01*
X139302671Y-106086510D02*
X139302671Y-105397082D01*
X139934647Y-105397082D02*
X138728147Y-105397082D01*
X138728147Y-104592748D02*
X138728147Y-104362939D01*
X138785600Y-104248034D01*
X138900504Y-104133129D01*
X139130314Y-104075677D01*
X139532480Y-104075677D01*
X139762290Y-104133129D01*
X139877195Y-104248034D01*
X139934647Y-104362939D01*
X139934647Y-104592748D01*
X139877195Y-104707653D01*
X139762290Y-104822558D01*
X139532480Y-104880010D01*
X139130314Y-104880010D01*
X138900504Y-104822558D01*
X138785600Y-104707653D01*
X138728147Y-104592748D01*
X139934647Y-102869177D02*
X139360123Y-103271344D01*
X139934647Y-103558606D02*
X138728147Y-103558606D01*
X138728147Y-103098987D01*
X138785600Y-102984082D01*
X138843052Y-102926629D01*
X138957957Y-102869177D01*
X139130314Y-102869177D01*
X139245219Y-102926629D01*
X139302671Y-102984082D01*
X139360123Y-103098987D01*
X139360123Y-103558606D01*
X138728147Y-102524463D02*
X138728147Y-101835034D01*
X139934647Y-102179748D02*
X138728147Y-102179748D01*
G04 #@! TD*
M02*
