M48
; DRILL file {KiCad (5.1.5)-3} date 3/15/2020 11:46:16 AM
; FORMAT={-:-/ absolute / inch / decimal}
; #@! TF.CreationDate,2020-03-15T11:46:16-07:00
; #@! TF.GenerationSoftware,Kicad,Pcbnew,(5.1.5)-3
; #@! TF.FileFunction,Plated,1,2,PTH
FMAT,2
INCH
T1C0.0394
T2C0.0400
T3C0.0787
%
G90
G05
T1
X5.7481Y-4.8726
X5.8465Y-4.8726
X5.9449Y-4.8726
X5.7481Y-3.8726
X5.8465Y-3.8726
X5.9449Y-3.8726
T2
X5.6465Y-4.0088
X5.7465Y-4.0088
X5.8465Y-4.0088
X5.9465Y-4.0088
X6.0465Y-4.0088
X5.6465Y-4.9838
X5.6465Y-5.0838
X5.7465Y-4.9838
X5.7465Y-5.0838
X5.8465Y-4.9838
X5.8465Y-5.0838
X5.9465Y-4.9838
X5.9465Y-5.0838
X6.0465Y-4.9838
X6.0465Y-5.0838
X5.6465Y-3.1838
X5.6465Y-3.2838
X5.7465Y-3.1838
X5.7465Y-3.2838
X5.8465Y-3.1838
X5.8465Y-3.2838
X5.9465Y-3.1838
X5.9465Y-3.2838
X6.0465Y-3.1838
X6.0465Y-3.2838
X5.6465Y-4.2838
X5.7465Y-4.2838
X5.8465Y-4.2838
X5.9465Y-4.2838
X6.0465Y-4.2838
T3
X5.6733Y-4.6088
X6.0197Y-4.6088
X5.6733Y-3.6088
X6.0197Y-3.6088
T0
M30
