G04 #@! TF.GenerationSoftware,KiCad,Pcbnew,(5.1.5)-3*
G04 #@! TF.CreationDate,2020-03-15T10:51:00-07:00*
G04 #@! TF.ProjectId,bbf-pots_v1,6262662d-706f-4747-935f-76312e6b6963,rev?*
G04 #@! TF.SameCoordinates,Original*
G04 #@! TF.FileFunction,Legend,Top*
G04 #@! TF.FilePolarity,Positive*
%FSLAX46Y46*%
G04 Gerber Fmt 4.6, Leading zero omitted, Abs format (unit mm)*
G04 Created by KiCad (PCBNEW (5.1.5)-3) date 2020-03-15 10:51:00*
%MOMM*%
%LPD*%
G04 APERTURE LIST*
%ADD10C,0.254000*%
%ADD11C,0.152400*%
%ADD12C,0.121920*%
%ADD13C,0.106680*%
%ADD14C,0.100000*%
%ADD15C,0.203200*%
%ADD16C,0.127000*%
%ADD17C,2.082800*%
%ADD18C,3.203200*%
%ADD19R,2.082800X2.082800*%
G04 APERTURE END LIST*
D10*
X142151100Y-99918600D02*
X142151100Y-103728600D01*
X142151100Y-103728600D02*
X154851100Y-103728600D01*
X154851100Y-103728600D02*
X154851100Y-99918600D01*
X154851100Y-99918600D02*
X142151100Y-99918600D01*
X142151100Y-106903600D02*
X142151100Y-110713600D01*
X142151100Y-110713600D02*
X154851100Y-110713600D01*
X154851100Y-110713600D02*
X154851100Y-106903600D01*
X154851100Y-106903600D02*
X142151100Y-106903600D01*
D11*
X143298817Y-104622438D02*
X143390740Y-104622438D01*
X143482664Y-104668400D01*
X143528626Y-104714361D01*
X143574588Y-104806285D01*
X143620550Y-104990133D01*
X143620550Y-105219942D01*
X143574588Y-105403790D01*
X143528626Y-105495714D01*
X143482664Y-105541676D01*
X143390740Y-105587638D01*
X143298817Y-105587638D01*
X143206893Y-105541676D01*
X143160931Y-105495714D01*
X143114969Y-105403790D01*
X143069007Y-105219942D01*
X143069007Y-104990133D01*
X143114969Y-104806285D01*
X143160931Y-104714361D01*
X143206893Y-104668400D01*
X143298817Y-104622438D01*
X152502083Y-104622438D02*
X152823817Y-105587638D01*
X153145550Y-104622438D01*
X153421321Y-105541676D02*
X153513245Y-105587638D01*
X153697093Y-105587638D01*
X153789017Y-105541676D01*
X153834979Y-105449752D01*
X153834979Y-105403790D01*
X153789017Y-105311866D01*
X153697093Y-105265904D01*
X153559207Y-105265904D01*
X153467283Y-105219942D01*
X153421321Y-105128019D01*
X153421321Y-105082057D01*
X153467283Y-104990133D01*
X153559207Y-104944171D01*
X153697093Y-104944171D01*
X153789017Y-104990133D01*
X148103045Y-104622438D02*
X148332855Y-105587638D01*
X148516702Y-104898209D01*
X148700550Y-105587638D01*
X148930360Y-104622438D01*
X145609007Y-105311866D02*
X146068626Y-105311866D01*
X145517083Y-105587638D02*
X145838817Y-104622438D01*
X146160550Y-105587638D01*
X151056702Y-105082057D02*
X151194588Y-105128019D01*
X151240550Y-105173980D01*
X151286512Y-105265904D01*
X151286512Y-105403790D01*
X151240550Y-105495714D01*
X151194588Y-105541676D01*
X151102664Y-105587638D01*
X150734969Y-105587638D01*
X150734969Y-104622438D01*
X151056702Y-104622438D01*
X151148626Y-104668400D01*
X151194588Y-104714361D01*
X151240550Y-104806285D01*
X151240550Y-104898209D01*
X151194588Y-104990133D01*
X151148626Y-105036095D01*
X151056702Y-105082057D01*
X150734969Y-105082057D01*
D12*
X145285121Y-87145060D02*
X145211582Y-87181830D01*
X145064504Y-87181830D01*
X144990965Y-87145060D01*
X144954195Y-87108291D01*
X144917426Y-87034752D01*
X144917426Y-86814135D01*
X144954195Y-86740596D01*
X144990965Y-86703826D01*
X145064504Y-86667057D01*
X145211582Y-86667057D01*
X145285121Y-86703826D01*
X145946972Y-87145060D02*
X145873433Y-87181830D01*
X145726355Y-87181830D01*
X145652816Y-87145060D01*
X145616047Y-87108291D01*
X145579277Y-87034752D01*
X145579277Y-86814135D01*
X145616047Y-86740596D01*
X145652816Y-86703826D01*
X145726355Y-86667057D01*
X145873433Y-86667057D01*
X145946972Y-86703826D01*
X146277898Y-86887674D02*
X146866210Y-86887674D01*
X147233906Y-87181830D02*
X147233906Y-86409670D01*
X147233906Y-86703826D02*
X147307445Y-86667057D01*
X147454523Y-86667057D01*
X147528062Y-86703826D01*
X147564831Y-86740596D01*
X147601601Y-86814135D01*
X147601601Y-87034752D01*
X147564831Y-87108291D01*
X147528062Y-87145060D01*
X147454523Y-87181830D01*
X147307445Y-87181830D01*
X147233906Y-87145060D01*
X147858988Y-86667057D02*
X148042835Y-87181830D01*
X148226683Y-86667057D02*
X148042835Y-87181830D01*
X147969296Y-87365678D01*
X147932527Y-87402447D01*
X147858988Y-87439217D01*
X148520839Y-86887674D02*
X149109151Y-86887674D01*
X149440077Y-87145060D02*
X149513616Y-87181830D01*
X149660694Y-87181830D01*
X149734233Y-87145060D01*
X149771003Y-87071521D01*
X149771003Y-87034752D01*
X149734233Y-86961213D01*
X149660694Y-86924443D01*
X149550386Y-86924443D01*
X149476847Y-86887674D01*
X149440077Y-86814135D01*
X149440077Y-86777365D01*
X149476847Y-86703826D01*
X149550386Y-86667057D01*
X149660694Y-86667057D01*
X149734233Y-86703826D01*
X150432854Y-87181830D02*
X150432854Y-86777365D01*
X150396085Y-86703826D01*
X150322546Y-86667057D01*
X150175468Y-86667057D01*
X150101928Y-86703826D01*
X150432854Y-87145060D02*
X150359315Y-87181830D01*
X150175468Y-87181830D01*
X150101928Y-87145060D01*
X150065159Y-87071521D01*
X150065159Y-86997982D01*
X150101928Y-86924443D01*
X150175468Y-86887674D01*
X150359315Y-86887674D01*
X150432854Y-86850904D01*
D13*
X144921308Y-88102520D02*
X145146522Y-88102520D01*
X145243042Y-88456426D02*
X144921308Y-88456426D01*
X144921308Y-87780786D01*
X145243042Y-87780786D01*
X145146522Y-87523400D02*
X145050002Y-87619920D01*
X145532602Y-88456426D02*
X145532602Y-88006000D01*
X145532602Y-88070346D02*
X145564775Y-88038173D01*
X145629122Y-88006000D01*
X145725642Y-88006000D01*
X145789988Y-88038173D01*
X145822162Y-88102520D01*
X145822162Y-88456426D01*
X145822162Y-88102520D02*
X145854335Y-88038173D01*
X145918682Y-88006000D01*
X146015202Y-88006000D01*
X146079548Y-88038173D01*
X146111722Y-88102520D01*
X146111722Y-88456426D01*
X146433455Y-88456426D02*
X146433455Y-88006000D01*
X146433455Y-87780786D02*
X146401282Y-87812960D01*
X146433455Y-87845133D01*
X146465628Y-87812960D01*
X146433455Y-87780786D01*
X146433455Y-87845133D01*
X146851708Y-88456426D02*
X146787362Y-88424253D01*
X146755188Y-88359906D01*
X146755188Y-87780786D01*
X147109095Y-88456426D02*
X147109095Y-88006000D01*
X147109095Y-87780786D02*
X147076922Y-87812960D01*
X147109095Y-87845133D01*
X147141268Y-87812960D01*
X147109095Y-87780786D01*
X147109095Y-87845133D01*
X147688215Y-88424253D02*
X147623868Y-88456426D01*
X147495175Y-88456426D01*
X147430828Y-88424253D01*
X147398655Y-88359906D01*
X147398655Y-88102520D01*
X147430828Y-88038173D01*
X147495175Y-88006000D01*
X147623868Y-88006000D01*
X147688215Y-88038173D01*
X147720388Y-88102520D01*
X147720388Y-88166866D01*
X147398655Y-88231213D01*
X148878628Y-87812960D02*
X148814282Y-87780786D01*
X148717762Y-87780786D01*
X148621242Y-87812960D01*
X148556895Y-87877306D01*
X148524722Y-87941653D01*
X148492548Y-88070346D01*
X148492548Y-88166866D01*
X148524722Y-88295560D01*
X148556895Y-88359906D01*
X148621242Y-88424253D01*
X148717762Y-88456426D01*
X148782108Y-88456426D01*
X148878628Y-88424253D01*
X148910802Y-88392080D01*
X148910802Y-88166866D01*
X148782108Y-88166866D01*
X149200362Y-88456426D02*
X149200362Y-88006000D01*
X149200362Y-87780786D02*
X149168188Y-87812960D01*
X149200362Y-87845133D01*
X149232535Y-87812960D01*
X149200362Y-87780786D01*
X149200362Y-87845133D01*
X149618615Y-88456426D02*
X149554268Y-88424253D01*
X149522095Y-88359906D01*
X149522095Y-87780786D01*
X149972522Y-88456426D02*
X149908175Y-88424253D01*
X149876002Y-88359906D01*
X149876002Y-87780786D01*
X150487295Y-88424253D02*
X150422948Y-88456426D01*
X150294255Y-88456426D01*
X150229908Y-88424253D01*
X150197735Y-88359906D01*
X150197735Y-88102520D01*
X150229908Y-88038173D01*
X150294255Y-88006000D01*
X150422948Y-88006000D01*
X150487295Y-88038173D01*
X150519468Y-88102520D01*
X150519468Y-88166866D01*
X150197735Y-88231213D01*
X150712508Y-88006000D02*
X150969895Y-88006000D01*
X150809028Y-87780786D02*
X150809028Y-88359906D01*
X150841202Y-88424253D01*
X150905548Y-88456426D01*
X150969895Y-88456426D01*
D14*
G04 #@! TO.C,JP1*
G36*
X148755100Y-83662600D02*
G01*
X148755100Y-83154600D01*
X148247100Y-83154600D01*
X148247100Y-83662600D01*
X148755100Y-83662600D01*
G37*
D15*
X142786100Y-85313600D02*
X144056100Y-85313600D01*
D11*
X152946100Y-84678600D02*
X154216100Y-84678600D01*
X154851100Y-80233600D02*
X154851100Y-84043600D01*
X154216100Y-79598600D02*
X154851100Y-80233600D01*
X152946100Y-79598600D02*
X154216100Y-79598600D01*
X152311100Y-80233600D02*
X152946100Y-79598600D01*
X154216100Y-84678600D02*
X154851100Y-84043600D01*
X152311100Y-84043600D02*
X152946100Y-84678600D01*
X142786100Y-84678600D02*
X144056100Y-84678600D01*
X145326100Y-84678600D02*
X146596100Y-84678600D01*
X147866100Y-84678600D02*
X149136100Y-84678600D01*
X150406100Y-84678600D02*
X151676100Y-84678600D01*
X152311100Y-80233600D02*
X152311100Y-84043600D01*
X149771100Y-80233600D02*
X149771100Y-84043600D01*
X147231100Y-80233600D02*
X147231100Y-84043600D01*
X144691100Y-80233600D02*
X144691100Y-84043600D01*
X151676100Y-79598600D02*
X152311100Y-80233600D01*
X150406100Y-79598600D02*
X151676100Y-79598600D01*
X149771100Y-80233600D02*
X150406100Y-79598600D01*
X149136100Y-79598600D02*
X149771100Y-80233600D01*
X147866100Y-79598600D02*
X149136100Y-79598600D01*
X147231100Y-80233600D02*
X147866100Y-79598600D01*
X146596100Y-79598600D02*
X147231100Y-80233600D01*
X145326100Y-79598600D02*
X146596100Y-79598600D01*
X144691100Y-80233600D02*
X145326100Y-79598600D01*
X144056100Y-79598600D02*
X144691100Y-80233600D01*
X142786100Y-79598600D02*
X144056100Y-79598600D01*
X142151100Y-80233600D02*
X142786100Y-79598600D01*
X142151100Y-84043600D02*
X142151100Y-80233600D01*
X151676100Y-84678600D02*
X152311100Y-84043600D01*
X149771100Y-84043600D02*
X150406100Y-84678600D01*
X149136100Y-84678600D02*
X149771100Y-84043600D01*
X147231100Y-84043600D02*
X147866100Y-84678600D01*
X146596100Y-84678600D02*
X147231100Y-84043600D01*
X144691100Y-84043600D02*
X145326100Y-84678600D01*
X144056100Y-84678600D02*
X144691100Y-84043600D01*
X142151100Y-84043600D02*
X142786100Y-84678600D01*
D14*
G04 #@! TO.C,JP2*
G36*
X148755100Y-129382600D02*
G01*
X148755100Y-128874600D01*
X148247100Y-128874600D01*
X148247100Y-129382600D01*
X148755100Y-129382600D01*
G37*
D15*
X142786100Y-131033600D02*
X144056100Y-131033600D01*
D11*
X152946100Y-130398600D02*
X154216100Y-130398600D01*
X154851100Y-125953600D02*
X154851100Y-129763600D01*
X154216100Y-125318600D02*
X154851100Y-125953600D01*
X152946100Y-125318600D02*
X154216100Y-125318600D01*
X152311100Y-125953600D02*
X152946100Y-125318600D01*
X154216100Y-130398600D02*
X154851100Y-129763600D01*
X152311100Y-129763600D02*
X152946100Y-130398600D01*
X142786100Y-130398600D02*
X144056100Y-130398600D01*
X145326100Y-130398600D02*
X146596100Y-130398600D01*
X147866100Y-130398600D02*
X149136100Y-130398600D01*
X150406100Y-130398600D02*
X151676100Y-130398600D01*
X152311100Y-125953600D02*
X152311100Y-129763600D01*
X149771100Y-125953600D02*
X149771100Y-129763600D01*
X147231100Y-125953600D02*
X147231100Y-129763600D01*
X144691100Y-125953600D02*
X144691100Y-129763600D01*
X151676100Y-125318600D02*
X152311100Y-125953600D01*
X150406100Y-125318600D02*
X151676100Y-125318600D01*
X149771100Y-125953600D02*
X150406100Y-125318600D01*
X149136100Y-125318600D02*
X149771100Y-125953600D01*
X147866100Y-125318600D02*
X149136100Y-125318600D01*
X147231100Y-125953600D02*
X147866100Y-125318600D01*
X146596100Y-125318600D02*
X147231100Y-125953600D01*
X145326100Y-125318600D02*
X146596100Y-125318600D01*
X144691100Y-125953600D02*
X145326100Y-125318600D01*
X144056100Y-125318600D02*
X144691100Y-125953600D01*
X142786100Y-125318600D02*
X144056100Y-125318600D01*
X142151100Y-125953600D02*
X142786100Y-125318600D01*
X142151100Y-129763600D02*
X142151100Y-125953600D01*
X151676100Y-130398600D02*
X152311100Y-129763600D01*
X149771100Y-129763600D02*
X150406100Y-130398600D01*
X149136100Y-130398600D02*
X149771100Y-129763600D01*
X147231100Y-129763600D02*
X147866100Y-130398600D01*
X146596100Y-130398600D02*
X147231100Y-129763600D01*
X144691100Y-129763600D02*
X145326100Y-130398600D01*
X144056100Y-130398600D02*
X144691100Y-129763600D01*
X142151100Y-129763600D02*
X142786100Y-130398600D01*
D15*
G04 #@! TO.C,R23*
X151041100Y-91663600D02*
G75*
G03X151041100Y-91663600I-2540000J0D01*
G01*
X150951100Y-92288600D02*
X146076100Y-92288600D01*
X149601100Y-92288600D02*
X147401100Y-92288600D01*
X147401100Y-92288600D02*
G75*
G02X149601100Y-92288600I1100000J625000D01*
G01*
D16*
X144206100Y-95993600D02*
X144206100Y-86203600D01*
X152796100Y-95993600D02*
X144206100Y-95993600D01*
X152796100Y-86203600D02*
X152796100Y-95993600D01*
X144206100Y-86203600D02*
X152796100Y-86203600D01*
D15*
G04 #@! TO.C,JP3*
X154851100Y-101188600D02*
X154851100Y-102458600D01*
X144056100Y-103093600D02*
X142786100Y-103093600D01*
X142151100Y-102458600D02*
X142786100Y-103093600D01*
X142786100Y-100553600D02*
X142151100Y-101188600D01*
X142151100Y-101188600D02*
X142151100Y-102458600D01*
X145326100Y-103093600D02*
X144691100Y-102458600D01*
X146596100Y-103093600D02*
X145326100Y-103093600D01*
X147231100Y-102458600D02*
X146596100Y-103093600D01*
X146596100Y-100553600D02*
X147231100Y-101188600D01*
X145326100Y-100553600D02*
X146596100Y-100553600D01*
X144691100Y-101188600D02*
X145326100Y-100553600D01*
X144691100Y-102458600D02*
X144056100Y-103093600D01*
X144056100Y-100553600D02*
X144691100Y-101188600D01*
X142786100Y-100553600D02*
X144056100Y-100553600D01*
X151676100Y-103093600D02*
X150406100Y-103093600D01*
X149771100Y-102458600D02*
X150406100Y-103093600D01*
X150406100Y-100553600D02*
X149771100Y-101188600D01*
X147866100Y-103093600D02*
X147231100Y-102458600D01*
X149136100Y-103093600D02*
X147866100Y-103093600D01*
X149771100Y-102458600D02*
X149136100Y-103093600D01*
X149136100Y-100553600D02*
X149771100Y-101188600D01*
X147866100Y-100553600D02*
X149136100Y-100553600D01*
X147231100Y-101188600D02*
X147866100Y-100553600D01*
X152946100Y-103093600D02*
X152311100Y-102458600D01*
X154216100Y-103093600D02*
X152946100Y-103093600D01*
X154851100Y-102458600D02*
X154216100Y-103093600D01*
X154216100Y-100553600D02*
X154851100Y-101188600D01*
X152946100Y-100553600D02*
X154216100Y-100553600D01*
X152311100Y-101188600D02*
X152946100Y-100553600D01*
X152311100Y-102458600D02*
X151676100Y-103093600D01*
X151676100Y-100553600D02*
X152311100Y-101188600D01*
X150406100Y-100553600D02*
X151676100Y-100553600D01*
G04 #@! TO.C,R1*
X151041100Y-117063600D02*
G75*
G03X151041100Y-117063600I-2540000J0D01*
G01*
X150951100Y-117688600D02*
X146076100Y-117688600D01*
X149601100Y-117688600D02*
X147401100Y-117688600D01*
X147401100Y-117688600D02*
G75*
G02X149601100Y-117688600I1100000J625000D01*
G01*
D16*
X144206100Y-121393600D02*
X144206100Y-111603600D01*
X152796100Y-121393600D02*
X144206100Y-121393600D01*
X152796100Y-111603600D02*
X152796100Y-121393600D01*
X144206100Y-111603600D02*
X152796100Y-111603600D01*
D15*
G04 #@! TO.C,JP4*
X154851100Y-108173600D02*
X154851100Y-109443600D01*
X144056100Y-110078600D02*
X142786100Y-110078600D01*
X142151100Y-109443600D02*
X142786100Y-110078600D01*
X142786100Y-107538600D02*
X142151100Y-108173600D01*
X142151100Y-108173600D02*
X142151100Y-109443600D01*
X145326100Y-110078600D02*
X144691100Y-109443600D01*
X146596100Y-110078600D02*
X145326100Y-110078600D01*
X147231100Y-109443600D02*
X146596100Y-110078600D01*
X146596100Y-107538600D02*
X147231100Y-108173600D01*
X145326100Y-107538600D02*
X146596100Y-107538600D01*
X144691100Y-108173600D02*
X145326100Y-107538600D01*
X144691100Y-109443600D02*
X144056100Y-110078600D01*
X144056100Y-107538600D02*
X144691100Y-108173600D01*
X142786100Y-107538600D02*
X144056100Y-107538600D01*
X151676100Y-110078600D02*
X150406100Y-110078600D01*
X149771100Y-109443600D02*
X150406100Y-110078600D01*
X150406100Y-107538600D02*
X149771100Y-108173600D01*
X147866100Y-110078600D02*
X147231100Y-109443600D01*
X149136100Y-110078600D02*
X147866100Y-110078600D01*
X149771100Y-109443600D02*
X149136100Y-110078600D01*
X149136100Y-107538600D02*
X149771100Y-108173600D01*
X147866100Y-107538600D02*
X149136100Y-107538600D01*
X147231100Y-108173600D02*
X147866100Y-107538600D01*
X152946100Y-110078600D02*
X152311100Y-109443600D01*
X154216100Y-110078600D02*
X152946100Y-110078600D01*
X154851100Y-109443600D02*
X154216100Y-110078600D01*
X154216100Y-107538600D02*
X154851100Y-108173600D01*
X152946100Y-107538600D02*
X154216100Y-107538600D01*
X152311100Y-108173600D02*
X152946100Y-107538600D01*
X152311100Y-109443600D02*
X151676100Y-110078600D01*
X151676100Y-107538600D02*
X152311100Y-108173600D01*
X150406100Y-107538600D02*
X151676100Y-107538600D01*
G04 #@! TD*
%LPC*%
D17*
G04 #@! TO.C,JP1*
X153581100Y-80868600D03*
X153581100Y-83408600D03*
X151041100Y-80868600D03*
X151041100Y-83408600D03*
X148501100Y-80868600D03*
X148501100Y-83408600D03*
X145961100Y-80868600D03*
X145961100Y-83408600D03*
X143421100Y-80868600D03*
X143421100Y-83408600D03*
G04 #@! TD*
G04 #@! TO.C,JP2*
X153581100Y-126588600D03*
X153581100Y-129128600D03*
X151041100Y-126588600D03*
X151041100Y-129128600D03*
X148501100Y-126588600D03*
X148501100Y-129128600D03*
X145961100Y-126588600D03*
X145961100Y-129128600D03*
X143421100Y-126588600D03*
X143421100Y-129128600D03*
G04 #@! TD*
D18*
G04 #@! TO.C,R23*
X144101100Y-91663600D03*
X152901100Y-91663600D03*
D19*
X146001100Y-98363600D03*
X148501100Y-98363600D03*
X151001100Y-98363600D03*
G04 #@! TD*
D17*
G04 #@! TO.C,JP3*
X153581100Y-101823600D03*
X151041100Y-101823600D03*
X148501100Y-101823600D03*
X145961100Y-101823600D03*
X143421100Y-101823600D03*
G04 #@! TD*
D18*
G04 #@! TO.C,R1*
X144101100Y-117063600D03*
X152901100Y-117063600D03*
D19*
X146001100Y-123763600D03*
X148501100Y-123763600D03*
X151001100Y-123763600D03*
G04 #@! TD*
D17*
G04 #@! TO.C,JP4*
X153581100Y-108808600D03*
X151041100Y-108808600D03*
X148501100Y-108808600D03*
X145961100Y-108808600D03*
X143421100Y-108808600D03*
G04 #@! TD*
M02*
