G04 #@! TF.GenerationSoftware,KiCad,Pcbnew,(5.1.5)-3*
G04 #@! TF.CreationDate,2020-03-15T11:46:10-07:00*
G04 #@! TF.ProjectId,bbf-pots_v1,6262662d-706f-4747-935f-76312e6b6963,rev?*
G04 #@! TF.SameCoordinates,Original*
G04 #@! TF.FileFunction,Copper,L1,Top*
G04 #@! TF.FilePolarity,Positive*
%FSLAX46Y46*%
G04 Gerber Fmt 4.6, Leading zero omitted, Abs format (unit mm)*
G04 Created by KiCad (PCBNEW (5.1.5)-3) date 2020-03-15 11:46:10*
%MOMM*%
%LPD*%
G04 APERTURE LIST*
G04 #@! TA.AperFunction,ComponentPad*
%ADD10C,1.879600*%
G04 #@! TD*
G04 #@! TA.AperFunction,ComponentPad*
%ADD11C,3.000000*%
G04 #@! TD*
G04 #@! TA.AperFunction,ComponentPad*
%ADD12R,1.879600X1.879600*%
G04 #@! TD*
G04 #@! TA.AperFunction,Conductor*
%ADD13C,0.812800*%
G04 #@! TD*
G04 #@! TA.AperFunction,Conductor*
%ADD14C,0.254000*%
G04 #@! TD*
G04 #@! TA.AperFunction,Conductor*
%ADD15C,0.406400*%
G04 #@! TD*
G04 APERTURE END LIST*
D10*
G04 #@! TO.P,JP1,10*
G04 #@! TO.N,VCC*
X153581100Y-80868600D03*
G04 #@! TO.P,JP1,9*
G04 #@! TO.N,GND*
X153581100Y-83408600D03*
G04 #@! TO.P,JP1,8*
G04 #@! TO.N,VCC*
X151041100Y-80868600D03*
G04 #@! TO.P,JP1,7*
G04 #@! TO.N,GND*
X151041100Y-83408600D03*
G04 #@! TO.P,JP1,6*
G04 #@! TO.N,VCC*
X148501100Y-80868600D03*
G04 #@! TO.P,JP1,5*
G04 #@! TO.N,GND*
X148501100Y-83408600D03*
G04 #@! TO.P,JP1,4*
G04 #@! TO.N,VCC*
X145961100Y-80868600D03*
G04 #@! TO.P,JP1,3*
G04 #@! TO.N,GND*
X145961100Y-83408600D03*
G04 #@! TO.P,JP1,2*
G04 #@! TO.N,VCC*
X143421100Y-80868600D03*
G04 #@! TO.P,JP1,1*
G04 #@! TO.N,GND*
X143421100Y-83408600D03*
G04 #@! TD*
G04 #@! TO.P,JP2,10*
G04 #@! TO.N,GND*
X153581100Y-126588600D03*
G04 #@! TO.P,JP2,9*
G04 #@! TO.N,VEE*
X153581100Y-129128600D03*
G04 #@! TO.P,JP2,8*
G04 #@! TO.N,GND*
X151041100Y-126588600D03*
G04 #@! TO.P,JP2,7*
G04 #@! TO.N,VEE*
X151041100Y-129128600D03*
G04 #@! TO.P,JP2,6*
G04 #@! TO.N,GND*
X148501100Y-126588600D03*
G04 #@! TO.P,JP2,5*
G04 #@! TO.N,VEE*
X148501100Y-129128600D03*
G04 #@! TO.P,JP2,4*
G04 #@! TO.N,GND*
X145961100Y-126588600D03*
G04 #@! TO.P,JP2,3*
G04 #@! TO.N,VEE*
X145961100Y-129128600D03*
G04 #@! TO.P,JP2,2*
G04 #@! TO.N,GND*
X143421100Y-126588600D03*
G04 #@! TO.P,JP2,1*
G04 #@! TO.N,VEE*
X143421100Y-129128600D03*
G04 #@! TD*
D11*
G04 #@! TO.P,R23,P$5*
G04 #@! TO.N,N/C*
X144101100Y-91663600D03*
G04 #@! TO.P,R23,P$4*
X152901100Y-91663600D03*
D12*
G04 #@! TO.P,R23,P$3*
G04 #@! TO.N,Net-(JP3-Pad2)*
X146001100Y-98363600D03*
G04 #@! TO.P,R23,P$2*
G04 #@! TO.N,Net-(JP3-Pad3)*
X148501100Y-98363600D03*
G04 #@! TO.P,R23,P$1*
G04 #@! TO.N,Net-(JP3-Pad4)*
X151001100Y-98363600D03*
G04 #@! TD*
D10*
G04 #@! TO.P,JP3,5*
G04 #@! TO.N,VCC*
X153581100Y-101823600D03*
G04 #@! TO.P,JP3,4*
G04 #@! TO.N,Net-(JP3-Pad4)*
X151041100Y-101823600D03*
G04 #@! TO.P,JP3,3*
G04 #@! TO.N,Net-(JP3-Pad3)*
X148501100Y-101823600D03*
G04 #@! TO.P,JP3,2*
G04 #@! TO.N,Net-(JP3-Pad2)*
X145961100Y-101823600D03*
G04 #@! TO.P,JP3,1*
G04 #@! TO.N,GND*
X143421100Y-101823600D03*
G04 #@! TD*
D11*
G04 #@! TO.P,R1,P$5*
G04 #@! TO.N,N/C*
X144101100Y-117063600D03*
G04 #@! TO.P,R1,P$4*
X152901100Y-117063600D03*
D12*
G04 #@! TO.P,R1,P$3*
G04 #@! TO.N,Net-(JP4-Pad2)*
X146001100Y-123763600D03*
G04 #@! TO.P,R1,P$2*
G04 #@! TO.N,Net-(JP4-Pad3)*
X148501100Y-123763600D03*
G04 #@! TO.P,R1,P$1*
G04 #@! TO.N,Net-(JP4-Pad4)*
X151001100Y-123763600D03*
G04 #@! TD*
D10*
G04 #@! TO.P,JP4,5*
G04 #@! TO.N,VCC*
X153581100Y-108808600D03*
G04 #@! TO.P,JP4,4*
G04 #@! TO.N,Net-(JP4-Pad4)*
X151041100Y-108808600D03*
G04 #@! TO.P,JP4,3*
G04 #@! TO.N,Net-(JP4-Pad3)*
X148501100Y-108808600D03*
G04 #@! TO.P,JP4,2*
G04 #@! TO.N,Net-(JP4-Pad2)*
X145961100Y-108808600D03*
G04 #@! TO.P,JP4,1*
G04 #@! TO.N,GND*
X143421100Y-108808600D03*
G04 #@! TD*
D13*
G04 #@! TO.N,VCC*
X145961100Y-80868600D02*
X143421100Y-80868600D01*
X148501100Y-80868600D02*
X145961100Y-80868600D01*
X149771100Y-80868600D02*
X148501100Y-80868600D01*
X149771100Y-80868600D02*
X151041100Y-80868600D01*
X151041100Y-80868600D02*
X153581100Y-80868600D01*
D14*
X153581100Y-101823600D02*
X153581100Y-96743600D01*
X153581100Y-108808600D02*
X153581100Y-101823600D01*
X153581100Y-96743600D02*
X149771100Y-92933600D01*
X149771100Y-92933600D02*
X149771100Y-80868600D01*
D13*
G04 #@! TO.N,VEE*
X143421100Y-129128600D02*
X145961100Y-129128600D01*
X145961100Y-129128600D02*
X148501100Y-129128600D01*
X148501100Y-129128600D02*
X151041100Y-129128600D01*
X151041100Y-129128600D02*
X153581100Y-129128600D01*
D15*
G04 #@! TO.N,Net-(JP3-Pad2)*
X145961100Y-98403600D02*
X146001100Y-98363600D01*
X145961100Y-101823600D02*
X145961100Y-98403600D01*
G04 #@! TO.N,Net-(JP3-Pad3)*
X148501100Y-101823600D02*
X148501100Y-98363600D01*
G04 #@! TO.N,Net-(JP3-Pad4)*
X151041100Y-98403600D02*
X151001100Y-98363600D01*
X151041100Y-101823600D02*
X151041100Y-98403600D01*
G04 #@! TO.N,Net-(JP4-Pad2)*
X146001100Y-123763600D02*
X145961100Y-123723600D01*
X145961100Y-123723600D02*
X145961100Y-118968600D01*
X145961100Y-118968600D02*
X146596100Y-118333600D01*
X146596100Y-118333600D02*
X146596100Y-115793600D01*
X146596100Y-115793600D02*
X145961100Y-115158600D01*
X145961100Y-115158600D02*
X145961100Y-114523600D01*
X145961100Y-114523600D02*
X145961100Y-108808600D01*
G04 #@! TO.N,Net-(JP4-Pad3)*
X148501100Y-123763600D02*
X148501100Y-108808600D01*
G04 #@! TO.N,Net-(JP4-Pad4)*
X151001100Y-123763600D02*
X151041100Y-123723600D01*
X151041100Y-123723600D02*
X151041100Y-118968600D01*
X151041100Y-118968600D02*
X150406100Y-118333600D01*
X150406100Y-118333600D02*
X150406100Y-115793600D01*
X150406100Y-115793600D02*
X151041100Y-115158600D01*
X151041100Y-115158600D02*
X151041100Y-108808600D01*
G04 #@! TD*
M02*
