G04 #@! TF.GenerationSoftware,KiCad,Pcbnew,(5.1.5)-3*
G04 #@! TF.CreationDate,2020-03-15T11:46:10-07:00*
G04 #@! TF.ProjectId,bbf-pots_v1,6262662d-706f-4747-935f-76312e6b6963,rev?*
G04 #@! TF.SameCoordinates,Original*
G04 #@! TF.FileFunction,Legend,Bot*
G04 #@! TF.FilePolarity,Positive*
%FSLAX46Y46*%
G04 Gerber Fmt 4.6, Leading zero omitted, Abs format (unit mm)*
G04 Created by KiCad (PCBNEW (5.1.5)-3) date 2020-03-15 11:46:10*
%MOMM*%
%LPD*%
G04 APERTURE LIST*
%ADD10C,2.082800*%
%ADD11C,3.203200*%
%ADD12R,2.082800X2.082800*%
G04 APERTURE END LIST*
%LPC*%
D10*
G04 #@! TO.C,JP1*
X153581100Y-80868600D03*
X153581100Y-83408600D03*
X151041100Y-80868600D03*
X151041100Y-83408600D03*
X148501100Y-80868600D03*
X148501100Y-83408600D03*
X145961100Y-80868600D03*
X145961100Y-83408600D03*
X143421100Y-80868600D03*
X143421100Y-83408600D03*
G04 #@! TD*
G04 #@! TO.C,JP2*
X153581100Y-126588600D03*
X153581100Y-129128600D03*
X151041100Y-126588600D03*
X151041100Y-129128600D03*
X148501100Y-126588600D03*
X148501100Y-129128600D03*
X145961100Y-126588600D03*
X145961100Y-129128600D03*
X143421100Y-126588600D03*
X143421100Y-129128600D03*
G04 #@! TD*
D11*
G04 #@! TO.C,R23*
X144101100Y-91663600D03*
X152901100Y-91663600D03*
D12*
X146001100Y-98363600D03*
X148501100Y-98363600D03*
X151001100Y-98363600D03*
G04 #@! TD*
D10*
G04 #@! TO.C,JP3*
X153581100Y-101823600D03*
X151041100Y-101823600D03*
X148501100Y-101823600D03*
X145961100Y-101823600D03*
X143421100Y-101823600D03*
G04 #@! TD*
D11*
G04 #@! TO.C,R1*
X144101100Y-117063600D03*
X152901100Y-117063600D03*
D12*
X146001100Y-123763600D03*
X148501100Y-123763600D03*
X151001100Y-123763600D03*
G04 #@! TD*
D10*
G04 #@! TO.C,JP4*
X153581100Y-108808600D03*
X151041100Y-108808600D03*
X148501100Y-108808600D03*
X145961100Y-108808600D03*
X143421100Y-108808600D03*
G04 #@! TD*
M02*
