G04 #@! TF.GenerationSoftware,KiCad,Pcbnew,(5.1.5)-3*
G04 #@! TF.CreationDate,2020-03-15T10:43:50-07:00*
G04 #@! TF.ProjectId,bbf-eurojacks_v1,6262662d-6575-4726-9f6a-61636b735f76,rev?*
G04 #@! TF.SameCoordinates,Original*
G04 #@! TF.FileFunction,Soldermask,Top*
G04 #@! TF.FilePolarity,Negative*
%FSLAX46Y46*%
G04 Gerber Fmt 4.6, Leading zero omitted, Abs format (unit mm)*
G04 Created by KiCad (PCBNEW (5.1.5)-3) date 2020-03-15 10:43:50*
%MOMM*%
%LPD*%
G04 APERTURE LIST*
%ADD10C,0.100000*%
G04 APERTURE END LIST*
D10*
G36*
X153884865Y-128127220D02*
G01*
X154074388Y-128205723D01*
X154244954Y-128319692D01*
X154390008Y-128464746D01*
X154503977Y-128635312D01*
X154582480Y-128824835D01*
X154622500Y-129026031D01*
X154622500Y-129231169D01*
X154582480Y-129432365D01*
X154503977Y-129621888D01*
X154390008Y-129792454D01*
X154244954Y-129937508D01*
X154074388Y-130051477D01*
X154074387Y-130051478D01*
X154074386Y-130051478D01*
X153884865Y-130129980D01*
X153683670Y-130170000D01*
X153478530Y-130170000D01*
X153277335Y-130129980D01*
X153087814Y-130051478D01*
X153087813Y-130051478D01*
X153087812Y-130051477D01*
X152917246Y-129937508D01*
X152772192Y-129792454D01*
X152658223Y-129621888D01*
X152579720Y-129432365D01*
X152539700Y-129231169D01*
X152539700Y-129026031D01*
X152579720Y-128824835D01*
X152658223Y-128635312D01*
X152772192Y-128464746D01*
X152917246Y-128319692D01*
X153087812Y-128205723D01*
X153277335Y-128127220D01*
X153478530Y-128087200D01*
X153683670Y-128087200D01*
X153884865Y-128127220D01*
G37*
G36*
X151344865Y-128127220D02*
G01*
X151534388Y-128205723D01*
X151704954Y-128319692D01*
X151850008Y-128464746D01*
X151963977Y-128635312D01*
X152042480Y-128824835D01*
X152082500Y-129026031D01*
X152082500Y-129231169D01*
X152042480Y-129432365D01*
X151963977Y-129621888D01*
X151850008Y-129792454D01*
X151704954Y-129937508D01*
X151534388Y-130051477D01*
X151534387Y-130051478D01*
X151534386Y-130051478D01*
X151344865Y-130129980D01*
X151143670Y-130170000D01*
X150938530Y-130170000D01*
X150737335Y-130129980D01*
X150547814Y-130051478D01*
X150547813Y-130051478D01*
X150547812Y-130051477D01*
X150377246Y-129937508D01*
X150232192Y-129792454D01*
X150118223Y-129621888D01*
X150039720Y-129432365D01*
X149999700Y-129231169D01*
X149999700Y-129026031D01*
X150039720Y-128824835D01*
X150118223Y-128635312D01*
X150232192Y-128464746D01*
X150377246Y-128319692D01*
X150547812Y-128205723D01*
X150737335Y-128127220D01*
X150938530Y-128087200D01*
X151143670Y-128087200D01*
X151344865Y-128127220D01*
G37*
G36*
X143724865Y-128127220D02*
G01*
X143914388Y-128205723D01*
X144084954Y-128319692D01*
X144230008Y-128464746D01*
X144343977Y-128635312D01*
X144422480Y-128824835D01*
X144462500Y-129026031D01*
X144462500Y-129231169D01*
X144422480Y-129432365D01*
X144343977Y-129621888D01*
X144230008Y-129792454D01*
X144084954Y-129937508D01*
X143914388Y-130051477D01*
X143914387Y-130051478D01*
X143914386Y-130051478D01*
X143724865Y-130129980D01*
X143523670Y-130170000D01*
X143318530Y-130170000D01*
X143117335Y-130129980D01*
X142927814Y-130051478D01*
X142927813Y-130051478D01*
X142927812Y-130051477D01*
X142757246Y-129937508D01*
X142612192Y-129792454D01*
X142498223Y-129621888D01*
X142419720Y-129432365D01*
X142379700Y-129231169D01*
X142379700Y-129026031D01*
X142419720Y-128824835D01*
X142498223Y-128635312D01*
X142612192Y-128464746D01*
X142757246Y-128319692D01*
X142927812Y-128205723D01*
X143117335Y-128127220D01*
X143318530Y-128087200D01*
X143523670Y-128087200D01*
X143724865Y-128127220D01*
G37*
G36*
X148804865Y-128127220D02*
G01*
X148994388Y-128205723D01*
X149164954Y-128319692D01*
X149310008Y-128464746D01*
X149423977Y-128635312D01*
X149502480Y-128824835D01*
X149542500Y-129026031D01*
X149542500Y-129231169D01*
X149502480Y-129432365D01*
X149423977Y-129621888D01*
X149310008Y-129792454D01*
X149164954Y-129937508D01*
X148994388Y-130051477D01*
X148994387Y-130051478D01*
X148994386Y-130051478D01*
X148804865Y-130129980D01*
X148603670Y-130170000D01*
X148398530Y-130170000D01*
X148197335Y-130129980D01*
X148007814Y-130051478D01*
X148007813Y-130051478D01*
X148007812Y-130051477D01*
X147837246Y-129937508D01*
X147692192Y-129792454D01*
X147578223Y-129621888D01*
X147499720Y-129432365D01*
X147459700Y-129231169D01*
X147459700Y-129026031D01*
X147499720Y-128824835D01*
X147578223Y-128635312D01*
X147692192Y-128464746D01*
X147837246Y-128319692D01*
X148007812Y-128205723D01*
X148197335Y-128127220D01*
X148398530Y-128087200D01*
X148603670Y-128087200D01*
X148804865Y-128127220D01*
G37*
G36*
X146264865Y-128127220D02*
G01*
X146454388Y-128205723D01*
X146624954Y-128319692D01*
X146770008Y-128464746D01*
X146883977Y-128635312D01*
X146962480Y-128824835D01*
X147002500Y-129026031D01*
X147002500Y-129231169D01*
X146962480Y-129432365D01*
X146883977Y-129621888D01*
X146770008Y-129792454D01*
X146624954Y-129937508D01*
X146454388Y-130051477D01*
X146454387Y-130051478D01*
X146454386Y-130051478D01*
X146264865Y-130129980D01*
X146063670Y-130170000D01*
X145858530Y-130170000D01*
X145657335Y-130129980D01*
X145467814Y-130051478D01*
X145467813Y-130051478D01*
X145467812Y-130051477D01*
X145297246Y-129937508D01*
X145152192Y-129792454D01*
X145038223Y-129621888D01*
X144959720Y-129432365D01*
X144919700Y-129231169D01*
X144919700Y-129026031D01*
X144959720Y-128824835D01*
X145038223Y-128635312D01*
X145152192Y-128464746D01*
X145297246Y-128319692D01*
X145467812Y-128205723D01*
X145657335Y-128127220D01*
X145858530Y-128087200D01*
X146063670Y-128087200D01*
X146264865Y-128127220D01*
G37*
G36*
X146264865Y-125587220D02*
G01*
X146454388Y-125665723D01*
X146624954Y-125779692D01*
X146770008Y-125924746D01*
X146883977Y-126095312D01*
X146962480Y-126284835D01*
X147002500Y-126486031D01*
X147002500Y-126691169D01*
X146962480Y-126892365D01*
X146883977Y-127081888D01*
X146770008Y-127252454D01*
X146624954Y-127397508D01*
X146454388Y-127511477D01*
X146454387Y-127511478D01*
X146454386Y-127511478D01*
X146264865Y-127589980D01*
X146063670Y-127630000D01*
X145858530Y-127630000D01*
X145657335Y-127589980D01*
X145467814Y-127511478D01*
X145467813Y-127511478D01*
X145467812Y-127511477D01*
X145297246Y-127397508D01*
X145152192Y-127252454D01*
X145038223Y-127081888D01*
X144959720Y-126892365D01*
X144919700Y-126691169D01*
X144919700Y-126486031D01*
X144959720Y-126284835D01*
X145038223Y-126095312D01*
X145152192Y-125924746D01*
X145297246Y-125779692D01*
X145467812Y-125665723D01*
X145657335Y-125587220D01*
X145858530Y-125547200D01*
X146063670Y-125547200D01*
X146264865Y-125587220D01*
G37*
G36*
X153884865Y-125587220D02*
G01*
X154074388Y-125665723D01*
X154244954Y-125779692D01*
X154390008Y-125924746D01*
X154503977Y-126095312D01*
X154582480Y-126284835D01*
X154622500Y-126486031D01*
X154622500Y-126691169D01*
X154582480Y-126892365D01*
X154503977Y-127081888D01*
X154390008Y-127252454D01*
X154244954Y-127397508D01*
X154074388Y-127511477D01*
X154074387Y-127511478D01*
X154074386Y-127511478D01*
X153884865Y-127589980D01*
X153683670Y-127630000D01*
X153478530Y-127630000D01*
X153277335Y-127589980D01*
X153087814Y-127511478D01*
X153087813Y-127511478D01*
X153087812Y-127511477D01*
X152917246Y-127397508D01*
X152772192Y-127252454D01*
X152658223Y-127081888D01*
X152579720Y-126892365D01*
X152539700Y-126691169D01*
X152539700Y-126486031D01*
X152579720Y-126284835D01*
X152658223Y-126095312D01*
X152772192Y-125924746D01*
X152917246Y-125779692D01*
X153087812Y-125665723D01*
X153277335Y-125587220D01*
X153478530Y-125547200D01*
X153683670Y-125547200D01*
X153884865Y-125587220D01*
G37*
G36*
X151344865Y-125587220D02*
G01*
X151534388Y-125665723D01*
X151704954Y-125779692D01*
X151850008Y-125924746D01*
X151963977Y-126095312D01*
X152042480Y-126284835D01*
X152082500Y-126486031D01*
X152082500Y-126691169D01*
X152042480Y-126892365D01*
X151963977Y-127081888D01*
X151850008Y-127252454D01*
X151704954Y-127397508D01*
X151534388Y-127511477D01*
X151534387Y-127511478D01*
X151534386Y-127511478D01*
X151344865Y-127589980D01*
X151143670Y-127630000D01*
X150938530Y-127630000D01*
X150737335Y-127589980D01*
X150547814Y-127511478D01*
X150547813Y-127511478D01*
X150547812Y-127511477D01*
X150377246Y-127397508D01*
X150232192Y-127252454D01*
X150118223Y-127081888D01*
X150039720Y-126892365D01*
X149999700Y-126691169D01*
X149999700Y-126486031D01*
X150039720Y-126284835D01*
X150118223Y-126095312D01*
X150232192Y-125924746D01*
X150377246Y-125779692D01*
X150547812Y-125665723D01*
X150737335Y-125587220D01*
X150938530Y-125547200D01*
X151143670Y-125547200D01*
X151344865Y-125587220D01*
G37*
G36*
X148804865Y-125587220D02*
G01*
X148994388Y-125665723D01*
X149164954Y-125779692D01*
X149310008Y-125924746D01*
X149423977Y-126095312D01*
X149502480Y-126284835D01*
X149542500Y-126486031D01*
X149542500Y-126691169D01*
X149502480Y-126892365D01*
X149423977Y-127081888D01*
X149310008Y-127252454D01*
X149164954Y-127397508D01*
X148994388Y-127511477D01*
X148994387Y-127511478D01*
X148994386Y-127511478D01*
X148804865Y-127589980D01*
X148603670Y-127630000D01*
X148398530Y-127630000D01*
X148197335Y-127589980D01*
X148007814Y-127511478D01*
X148007813Y-127511478D01*
X148007812Y-127511477D01*
X147837246Y-127397508D01*
X147692192Y-127252454D01*
X147578223Y-127081888D01*
X147499720Y-126892365D01*
X147459700Y-126691169D01*
X147459700Y-126486031D01*
X147499720Y-126284835D01*
X147578223Y-126095312D01*
X147692192Y-125924746D01*
X147837246Y-125779692D01*
X148007812Y-125665723D01*
X148197335Y-125587220D01*
X148398530Y-125547200D01*
X148603670Y-125547200D01*
X148804865Y-125587220D01*
G37*
G36*
X143724865Y-125587220D02*
G01*
X143914388Y-125665723D01*
X144084954Y-125779692D01*
X144230008Y-125924746D01*
X144343977Y-126095312D01*
X144422480Y-126284835D01*
X144462500Y-126486031D01*
X144462500Y-126691169D01*
X144422480Y-126892365D01*
X144343977Y-127081888D01*
X144230008Y-127252454D01*
X144084954Y-127397508D01*
X143914388Y-127511477D01*
X143914387Y-127511478D01*
X143914386Y-127511478D01*
X143724865Y-127589980D01*
X143523670Y-127630000D01*
X143318530Y-127630000D01*
X143117335Y-127589980D01*
X142927814Y-127511478D01*
X142927813Y-127511478D01*
X142927812Y-127511477D01*
X142757246Y-127397508D01*
X142612192Y-127252454D01*
X142498223Y-127081888D01*
X142419720Y-126892365D01*
X142379700Y-126691169D01*
X142379700Y-126486031D01*
X142419720Y-126284835D01*
X142498223Y-126095312D01*
X142612192Y-125924746D01*
X142757246Y-125779692D01*
X142927812Y-125665723D01*
X143117335Y-125587220D01*
X143318530Y-125547200D01*
X143523670Y-125547200D01*
X143724865Y-125587220D01*
G37*
G36*
X154042324Y-121777073D02*
G01*
X154154842Y-121811205D01*
X154267358Y-121845336D01*
X154267360Y-121845337D01*
X154474745Y-121956186D01*
X154656528Y-122105372D01*
X154805714Y-122287155D01*
X154916563Y-122494540D01*
X154984827Y-122719576D01*
X155007876Y-122953600D01*
X154984827Y-123187624D01*
X154916563Y-123412660D01*
X154805714Y-123620045D01*
X154656528Y-123801828D01*
X154474745Y-123951014D01*
X154267360Y-124061863D01*
X154267358Y-124061864D01*
X154154842Y-124095995D01*
X154042324Y-124130127D01*
X153866947Y-124147400D01*
X151565253Y-124147400D01*
X151389876Y-124130127D01*
X151277358Y-124095995D01*
X151164842Y-124061864D01*
X151164840Y-124061863D01*
X150957455Y-123951014D01*
X150775672Y-123801828D01*
X150626486Y-123620045D01*
X150515637Y-123412660D01*
X150447373Y-123187624D01*
X150424324Y-122953600D01*
X150447373Y-122719576D01*
X150515637Y-122494540D01*
X150626486Y-122287155D01*
X150775672Y-122105372D01*
X150957455Y-121956186D01*
X151164840Y-121845337D01*
X151164842Y-121845336D01*
X151277358Y-121811205D01*
X151389876Y-121777073D01*
X151565253Y-121759800D01*
X153866947Y-121759800D01*
X154042324Y-121777073D01*
G37*
G36*
X147150124Y-115984873D02*
G01*
X147262642Y-116019005D01*
X147375158Y-116053136D01*
X147375160Y-116053137D01*
X147582545Y-116163986D01*
X147764328Y-116313172D01*
X147913514Y-116494955D01*
X148024363Y-116702340D01*
X148092627Y-116927376D01*
X148109900Y-117102753D01*
X148109900Y-119404447D01*
X148092627Y-119579824D01*
X148024363Y-119804860D01*
X147913514Y-120012245D01*
X147764326Y-120194031D01*
X147582547Y-120343212D01*
X147375159Y-120454063D01*
X147375157Y-120454064D01*
X147262641Y-120488195D01*
X147150123Y-120522327D01*
X146916100Y-120545376D01*
X146682076Y-120522327D01*
X146569558Y-120488195D01*
X146457042Y-120454064D01*
X146457040Y-120454063D01*
X146249655Y-120343214D01*
X146067869Y-120194026D01*
X145918688Y-120012247D01*
X145807837Y-119804859D01*
X145739573Y-119579823D01*
X145722300Y-119404446D01*
X145722301Y-117102753D01*
X145739574Y-116927376D01*
X145807838Y-116702340D01*
X145918687Y-116494955D01*
X146067873Y-116313172D01*
X146249656Y-116163986D01*
X146457041Y-116053137D01*
X146457043Y-116053136D01*
X146569559Y-116019005D01*
X146682077Y-115984873D01*
X146916100Y-115961824D01*
X147150124Y-115984873D01*
G37*
G36*
X155250124Y-115984873D02*
G01*
X155362642Y-116019005D01*
X155475158Y-116053136D01*
X155475160Y-116053137D01*
X155682545Y-116163986D01*
X155864328Y-116313172D01*
X156013514Y-116494955D01*
X156124363Y-116702340D01*
X156192627Y-116927376D01*
X156209900Y-117102753D01*
X156209900Y-119404447D01*
X156192627Y-119579824D01*
X156124363Y-119804860D01*
X156013514Y-120012245D01*
X155864326Y-120194031D01*
X155682547Y-120343212D01*
X155475159Y-120454063D01*
X155475157Y-120454064D01*
X155362641Y-120488195D01*
X155250123Y-120522327D01*
X155016100Y-120545376D01*
X154782076Y-120522327D01*
X154669558Y-120488195D01*
X154557042Y-120454064D01*
X154557040Y-120454063D01*
X154349655Y-120343214D01*
X154167869Y-120194026D01*
X154018688Y-120012247D01*
X153907837Y-119804859D01*
X153839573Y-119579823D01*
X153822300Y-119404446D01*
X153822301Y-117102753D01*
X153839574Y-116927376D01*
X153907838Y-116702340D01*
X154018687Y-116494955D01*
X154167873Y-116313172D01*
X154349656Y-116163986D01*
X154557041Y-116053137D01*
X154557043Y-116053136D01*
X154669559Y-116019005D01*
X154782077Y-115984873D01*
X155016100Y-115961824D01*
X155250124Y-115984873D01*
G37*
G36*
X143827500Y-114930000D02*
G01*
X141744700Y-114930000D01*
X141744700Y-112847200D01*
X143827500Y-112847200D01*
X143827500Y-114930000D01*
G37*
G36*
X154042324Y-111617073D02*
G01*
X154154842Y-111651205D01*
X154267358Y-111685336D01*
X154267360Y-111685337D01*
X154474745Y-111796186D01*
X154474748Y-111796188D01*
X154474749Y-111796189D01*
X154530433Y-111841888D01*
X154656528Y-111945372D01*
X154805714Y-112127155D01*
X154916563Y-112334540D01*
X154984827Y-112559576D01*
X155007876Y-112793600D01*
X154984827Y-113027624D01*
X154916563Y-113252660D01*
X154805714Y-113460045D01*
X154656528Y-113641828D01*
X154474745Y-113791014D01*
X154267360Y-113901863D01*
X154267358Y-113901864D01*
X154154842Y-113935995D01*
X154042324Y-113970127D01*
X153866947Y-113987400D01*
X151565253Y-113987400D01*
X151389876Y-113970127D01*
X151277358Y-113935995D01*
X151164842Y-113901864D01*
X151164840Y-113901863D01*
X150957455Y-113791014D01*
X150775672Y-113641828D01*
X150626486Y-113460045D01*
X150515637Y-113252660D01*
X150447373Y-113027624D01*
X150424324Y-112793600D01*
X150447373Y-112559576D01*
X150515637Y-112334540D01*
X150626486Y-112127155D01*
X150775672Y-111945372D01*
X150901767Y-111841888D01*
X150957451Y-111796189D01*
X150957452Y-111796188D01*
X150957455Y-111796186D01*
X151164840Y-111685337D01*
X151164842Y-111685336D01*
X151277358Y-111651205D01*
X151389876Y-111617073D01*
X151565253Y-111599800D01*
X153866947Y-111599800D01*
X154042324Y-111617073D01*
G37*
G36*
X143089865Y-110347220D02*
G01*
X143279388Y-110425723D01*
X143449954Y-110539692D01*
X143595008Y-110684746D01*
X143595009Y-110684748D01*
X143708978Y-110855314D01*
X143787480Y-111044835D01*
X143827500Y-111246030D01*
X143827500Y-111451170D01*
X143787480Y-111652365D01*
X143727908Y-111796186D01*
X143708977Y-111841888D01*
X143595008Y-112012454D01*
X143449954Y-112157508D01*
X143279388Y-112271477D01*
X143279387Y-112271478D01*
X143279386Y-112271478D01*
X143089865Y-112349980D01*
X142888670Y-112390000D01*
X142683530Y-112390000D01*
X142482335Y-112349980D01*
X142292814Y-112271478D01*
X142292813Y-112271478D01*
X142292812Y-112271477D01*
X142122246Y-112157508D01*
X141977192Y-112012454D01*
X141863223Y-111841888D01*
X141844293Y-111796186D01*
X141784720Y-111652365D01*
X141744700Y-111451170D01*
X141744700Y-111246030D01*
X141784720Y-111044835D01*
X141863222Y-110855314D01*
X141977191Y-110684748D01*
X141977192Y-110684746D01*
X142122246Y-110539692D01*
X142292812Y-110425723D01*
X142482335Y-110347220D01*
X142683530Y-110307200D01*
X142888670Y-110307200D01*
X143089865Y-110347220D01*
G37*
G36*
X147150124Y-105824873D02*
G01*
X147262642Y-105859005D01*
X147375158Y-105893136D01*
X147375160Y-105893137D01*
X147582545Y-106003986D01*
X147764328Y-106153172D01*
X147913514Y-106334955D01*
X148024363Y-106542340D01*
X148092627Y-106767376D01*
X148109900Y-106942753D01*
X148109900Y-109244447D01*
X148092627Y-109419824D01*
X148024363Y-109644860D01*
X147913514Y-109852245D01*
X147764326Y-110034031D01*
X147582547Y-110183212D01*
X147375159Y-110294063D01*
X147375157Y-110294064D01*
X147262641Y-110328195D01*
X147150123Y-110362327D01*
X146916100Y-110385376D01*
X146682076Y-110362327D01*
X146569558Y-110328195D01*
X146457042Y-110294064D01*
X146457040Y-110294063D01*
X146249655Y-110183214D01*
X146067869Y-110034026D01*
X145918688Y-109852247D01*
X145807837Y-109644859D01*
X145739573Y-109419823D01*
X145722300Y-109244446D01*
X145722301Y-106942753D01*
X145739574Y-106767376D01*
X145807838Y-106542340D01*
X145918687Y-106334955D01*
X146067873Y-106153172D01*
X146249656Y-106003986D01*
X146457041Y-105893137D01*
X146457043Y-105893136D01*
X146569559Y-105859005D01*
X146682077Y-105824873D01*
X146916100Y-105801824D01*
X147150124Y-105824873D01*
G37*
G36*
X155250124Y-105824873D02*
G01*
X155362642Y-105859005D01*
X155475158Y-105893136D01*
X155475160Y-105893137D01*
X155682545Y-106003986D01*
X155864328Y-106153172D01*
X156013514Y-106334955D01*
X156124363Y-106542340D01*
X156192627Y-106767376D01*
X156209900Y-106942753D01*
X156209900Y-109244447D01*
X156192627Y-109419824D01*
X156124363Y-109644860D01*
X156013514Y-109852245D01*
X155864326Y-110034031D01*
X155682547Y-110183212D01*
X155475159Y-110294063D01*
X155475157Y-110294064D01*
X155362641Y-110328195D01*
X155250123Y-110362327D01*
X155016100Y-110385376D01*
X154782076Y-110362327D01*
X154669558Y-110328195D01*
X154557042Y-110294064D01*
X154557040Y-110294063D01*
X154349655Y-110183214D01*
X154167869Y-110034026D01*
X154018688Y-109852247D01*
X153907837Y-109644859D01*
X153839573Y-109419823D01*
X153822300Y-109244446D01*
X153822301Y-106942753D01*
X153839574Y-106767376D01*
X153907838Y-106542340D01*
X154018687Y-106334955D01*
X154167873Y-106153172D01*
X154349656Y-106003986D01*
X154557041Y-105893137D01*
X154557043Y-105893136D01*
X154669559Y-105859005D01*
X154782077Y-105824873D01*
X155016100Y-105801824D01*
X155250124Y-105824873D01*
G37*
G36*
X143089865Y-107807220D02*
G01*
X143279388Y-107885723D01*
X143449954Y-107999692D01*
X143595008Y-108144746D01*
X143595009Y-108144748D01*
X143708978Y-108315314D01*
X143787480Y-108504835D01*
X143827500Y-108706030D01*
X143827500Y-108911170D01*
X143787480Y-109112365D01*
X143732772Y-109244443D01*
X143708977Y-109301888D01*
X143595008Y-109472454D01*
X143449954Y-109617508D01*
X143279388Y-109731477D01*
X143279387Y-109731478D01*
X143279386Y-109731478D01*
X143089865Y-109809980D01*
X142888670Y-109850000D01*
X142683530Y-109850000D01*
X142482335Y-109809980D01*
X142292814Y-109731478D01*
X142292813Y-109731478D01*
X142292812Y-109731477D01*
X142122246Y-109617508D01*
X141977192Y-109472454D01*
X141863223Y-109301888D01*
X141839429Y-109244443D01*
X141784720Y-109112365D01*
X141744700Y-108911170D01*
X141744700Y-108706030D01*
X141784720Y-108504835D01*
X141863222Y-108315314D01*
X141977191Y-108144748D01*
X141977192Y-108144746D01*
X142122246Y-107999692D01*
X142292812Y-107885723D01*
X142482335Y-107807220D01*
X142683530Y-107767200D01*
X142888670Y-107767200D01*
X143089865Y-107807220D01*
G37*
G36*
X143089865Y-105267220D02*
G01*
X143279388Y-105345723D01*
X143449954Y-105459692D01*
X143595008Y-105604746D01*
X143708977Y-105775312D01*
X143787480Y-105964835D01*
X143827500Y-106166031D01*
X143827500Y-106371169D01*
X143787480Y-106572365D01*
X143708977Y-106761888D01*
X143595008Y-106932454D01*
X143449954Y-107077508D01*
X143279388Y-107191477D01*
X143279387Y-107191478D01*
X143279386Y-107191478D01*
X143089865Y-107269980D01*
X142888670Y-107310000D01*
X142683530Y-107310000D01*
X142482335Y-107269980D01*
X142292814Y-107191478D01*
X142292813Y-107191478D01*
X142292812Y-107191477D01*
X142122246Y-107077508D01*
X141977192Y-106932454D01*
X141863223Y-106761888D01*
X141784720Y-106572365D01*
X141744700Y-106371169D01*
X141744700Y-106166031D01*
X141784720Y-105964835D01*
X141863223Y-105775312D01*
X141977192Y-105604746D01*
X142122246Y-105459692D01*
X142292812Y-105345723D01*
X142482335Y-105267220D01*
X142683530Y-105227200D01*
X142888670Y-105227200D01*
X143089865Y-105267220D01*
G37*
G36*
X143089865Y-102727220D02*
G01*
X143279388Y-102805723D01*
X143449954Y-102919692D01*
X143595008Y-103064746D01*
X143708977Y-103235312D01*
X143787480Y-103424835D01*
X143827500Y-103626031D01*
X143827500Y-103831169D01*
X143787480Y-104032365D01*
X143708977Y-104221888D01*
X143595008Y-104392454D01*
X143449954Y-104537508D01*
X143279388Y-104651477D01*
X143279387Y-104651478D01*
X143279386Y-104651478D01*
X143089865Y-104729980D01*
X142888670Y-104770000D01*
X142683530Y-104770000D01*
X142482335Y-104729980D01*
X142292814Y-104651478D01*
X142292813Y-104651478D01*
X142292812Y-104651477D01*
X142122246Y-104537508D01*
X141977192Y-104392454D01*
X141863223Y-104221888D01*
X141784720Y-104032365D01*
X141744700Y-103831169D01*
X141744700Y-103626031D01*
X141784720Y-103424835D01*
X141863223Y-103235312D01*
X141977192Y-103064746D01*
X142122246Y-102919692D01*
X142292812Y-102805723D01*
X142482335Y-102727220D01*
X142683530Y-102687200D01*
X142888670Y-102687200D01*
X143089865Y-102727220D01*
G37*
G36*
X154042324Y-101457073D02*
G01*
X154154842Y-101491205D01*
X154267358Y-101525336D01*
X154267360Y-101525337D01*
X154474745Y-101636186D01*
X154474748Y-101636188D01*
X154474749Y-101636189D01*
X154530433Y-101681888D01*
X154656528Y-101785372D01*
X154805714Y-101967155D01*
X154916563Y-102174540D01*
X154984827Y-102399576D01*
X155007876Y-102633600D01*
X154984827Y-102867624D01*
X154916563Y-103092660D01*
X154805714Y-103300045D01*
X154656528Y-103481828D01*
X154474745Y-103631014D01*
X154267360Y-103741863D01*
X154267358Y-103741864D01*
X154154842Y-103775995D01*
X154042324Y-103810127D01*
X153866947Y-103827400D01*
X151565253Y-103827400D01*
X151389876Y-103810127D01*
X151277358Y-103775995D01*
X151164842Y-103741864D01*
X151164840Y-103741863D01*
X150957455Y-103631014D01*
X150775672Y-103481828D01*
X150626486Y-103300045D01*
X150515637Y-103092660D01*
X150447373Y-102867624D01*
X150424324Y-102633600D01*
X150447373Y-102399576D01*
X150515637Y-102174540D01*
X150626486Y-101967155D01*
X150775672Y-101785372D01*
X150901767Y-101681888D01*
X150957451Y-101636189D01*
X150957452Y-101636188D01*
X150957455Y-101636186D01*
X151164840Y-101525337D01*
X151164842Y-101525336D01*
X151277358Y-101491205D01*
X151389876Y-101457073D01*
X151565253Y-101439800D01*
X153866947Y-101439800D01*
X154042324Y-101457073D01*
G37*
G36*
X143089865Y-100187220D02*
G01*
X143279388Y-100265723D01*
X143449954Y-100379692D01*
X143595008Y-100524746D01*
X143595009Y-100524748D01*
X143708978Y-100695314D01*
X143787480Y-100884835D01*
X143827500Y-101086030D01*
X143827500Y-101291170D01*
X143787480Y-101492365D01*
X143727908Y-101636186D01*
X143708977Y-101681888D01*
X143595008Y-101852454D01*
X143449954Y-101997508D01*
X143279388Y-102111477D01*
X143279387Y-102111478D01*
X143279386Y-102111478D01*
X143089865Y-102189980D01*
X142888670Y-102230000D01*
X142683530Y-102230000D01*
X142482335Y-102189980D01*
X142292814Y-102111478D01*
X142292813Y-102111478D01*
X142292812Y-102111477D01*
X142122246Y-101997508D01*
X141977192Y-101852454D01*
X141863223Y-101681888D01*
X141844293Y-101636186D01*
X141784720Y-101492365D01*
X141744700Y-101291170D01*
X141744700Y-101086030D01*
X141784720Y-100884835D01*
X141863222Y-100695314D01*
X141977191Y-100524748D01*
X141977192Y-100524746D01*
X142122246Y-100379692D01*
X142292812Y-100265723D01*
X142482335Y-100187220D01*
X142683530Y-100147200D01*
X142888670Y-100147200D01*
X143089865Y-100187220D01*
G37*
G36*
X147150124Y-95664873D02*
G01*
X147262642Y-95699005D01*
X147375158Y-95733136D01*
X147375160Y-95733137D01*
X147582545Y-95843986D01*
X147764328Y-95993172D01*
X147913514Y-96174955D01*
X148024363Y-96382340D01*
X148092627Y-96607376D01*
X148109900Y-96782753D01*
X148109900Y-99084447D01*
X148092627Y-99259824D01*
X148024363Y-99484860D01*
X147913514Y-99692245D01*
X147764326Y-99874031D01*
X147582547Y-100023212D01*
X147375159Y-100134063D01*
X147375157Y-100134064D01*
X147262641Y-100168195D01*
X147150123Y-100202327D01*
X146916100Y-100225376D01*
X146682076Y-100202327D01*
X146569558Y-100168195D01*
X146457042Y-100134064D01*
X146457040Y-100134063D01*
X146249655Y-100023214D01*
X146067869Y-99874026D01*
X145918688Y-99692247D01*
X145807837Y-99484859D01*
X145739573Y-99259823D01*
X145722300Y-99084446D01*
X145722301Y-96782753D01*
X145739574Y-96607376D01*
X145807838Y-96382340D01*
X145918687Y-96174955D01*
X146067873Y-95993172D01*
X146249656Y-95843986D01*
X146457041Y-95733137D01*
X146457043Y-95733136D01*
X146569559Y-95699005D01*
X146682077Y-95664873D01*
X146916100Y-95641824D01*
X147150124Y-95664873D01*
G37*
G36*
X155250124Y-95664873D02*
G01*
X155362642Y-95699005D01*
X155475158Y-95733136D01*
X155475160Y-95733137D01*
X155682545Y-95843986D01*
X155864328Y-95993172D01*
X156013514Y-96174955D01*
X156124363Y-96382340D01*
X156192627Y-96607376D01*
X156209900Y-96782753D01*
X156209900Y-99084447D01*
X156192627Y-99259824D01*
X156124363Y-99484860D01*
X156013514Y-99692245D01*
X155864326Y-99874031D01*
X155682547Y-100023212D01*
X155475159Y-100134063D01*
X155475157Y-100134064D01*
X155362641Y-100168195D01*
X155250123Y-100202327D01*
X155016100Y-100225376D01*
X154782076Y-100202327D01*
X154669558Y-100168195D01*
X154557042Y-100134064D01*
X154557040Y-100134063D01*
X154349655Y-100023214D01*
X154167869Y-99874026D01*
X154018688Y-99692247D01*
X153907837Y-99484859D01*
X153839573Y-99259823D01*
X153822300Y-99084446D01*
X153822301Y-96782753D01*
X153839574Y-96607376D01*
X153907838Y-96382340D01*
X154018687Y-96174955D01*
X154167873Y-95993172D01*
X154349656Y-95843986D01*
X154557041Y-95733137D01*
X154557043Y-95733136D01*
X154669559Y-95699005D01*
X154782077Y-95664873D01*
X155016100Y-95641824D01*
X155250124Y-95664873D01*
G37*
G36*
X143089865Y-97647220D02*
G01*
X143279388Y-97725723D01*
X143449954Y-97839692D01*
X143595008Y-97984746D01*
X143595009Y-97984748D01*
X143708978Y-98155314D01*
X143787480Y-98344835D01*
X143827500Y-98546030D01*
X143827500Y-98751170D01*
X143787480Y-98952365D01*
X143732772Y-99084443D01*
X143708977Y-99141888D01*
X143595008Y-99312454D01*
X143449954Y-99457508D01*
X143279388Y-99571477D01*
X143279387Y-99571478D01*
X143279386Y-99571478D01*
X143089865Y-99649980D01*
X142888670Y-99690000D01*
X142683530Y-99690000D01*
X142482335Y-99649980D01*
X142292814Y-99571478D01*
X142292813Y-99571478D01*
X142292812Y-99571477D01*
X142122246Y-99457508D01*
X141977192Y-99312454D01*
X141863223Y-99141888D01*
X141839429Y-99084443D01*
X141784720Y-98952365D01*
X141744700Y-98751170D01*
X141744700Y-98546030D01*
X141784720Y-98344835D01*
X141863222Y-98155314D01*
X141977191Y-97984748D01*
X141977192Y-97984746D01*
X142122246Y-97839692D01*
X142292812Y-97725723D01*
X142482335Y-97647220D01*
X142683530Y-97607200D01*
X142888670Y-97607200D01*
X143089865Y-97647220D01*
G37*
G36*
X143089865Y-95107220D02*
G01*
X143279388Y-95185723D01*
X143449954Y-95299692D01*
X143595008Y-95444746D01*
X143708977Y-95615312D01*
X143787480Y-95804835D01*
X143827500Y-96006031D01*
X143827500Y-96211169D01*
X143787480Y-96412365D01*
X143708977Y-96601888D01*
X143595008Y-96772454D01*
X143449954Y-96917508D01*
X143279388Y-97031477D01*
X143279387Y-97031478D01*
X143279386Y-97031478D01*
X143089865Y-97109980D01*
X142888670Y-97150000D01*
X142683530Y-97150000D01*
X142482335Y-97109980D01*
X142292814Y-97031478D01*
X142292813Y-97031478D01*
X142292812Y-97031477D01*
X142122246Y-96917508D01*
X141977192Y-96772454D01*
X141863223Y-96601888D01*
X141784720Y-96412365D01*
X141744700Y-96211169D01*
X141744700Y-96006031D01*
X141784720Y-95804835D01*
X141863223Y-95615312D01*
X141977192Y-95444746D01*
X142122246Y-95299692D01*
X142292812Y-95185723D01*
X142482335Y-95107220D01*
X142683530Y-95067200D01*
X142888670Y-95067200D01*
X143089865Y-95107220D01*
G37*
G36*
X154042324Y-91297073D02*
G01*
X154154842Y-91331205D01*
X154267358Y-91365336D01*
X154267360Y-91365337D01*
X154474745Y-91476186D01*
X154656528Y-91625372D01*
X154805714Y-91807155D01*
X154916563Y-92014540D01*
X154984827Y-92239576D01*
X155007876Y-92473600D01*
X154984827Y-92707624D01*
X154916563Y-92932660D01*
X154805714Y-93140045D01*
X154656528Y-93321828D01*
X154474745Y-93471014D01*
X154267360Y-93581863D01*
X154267358Y-93581864D01*
X154154842Y-93615995D01*
X154042324Y-93650127D01*
X153866947Y-93667400D01*
X151565253Y-93667400D01*
X151389876Y-93650127D01*
X151277358Y-93615995D01*
X151164842Y-93581864D01*
X151164840Y-93581863D01*
X150957455Y-93471014D01*
X150775672Y-93321828D01*
X150626486Y-93140045D01*
X150515637Y-92932660D01*
X150447373Y-92707624D01*
X150424324Y-92473600D01*
X150447373Y-92239576D01*
X150515637Y-92014540D01*
X150626486Y-91807155D01*
X150775672Y-91625372D01*
X150957455Y-91476186D01*
X151164840Y-91365337D01*
X151164842Y-91365336D01*
X151277358Y-91331205D01*
X151389876Y-91297073D01*
X151565253Y-91279800D01*
X153866947Y-91279800D01*
X154042324Y-91297073D01*
G37*
G36*
X147150124Y-85504873D02*
G01*
X147262642Y-85539005D01*
X147375158Y-85573136D01*
X147375160Y-85573137D01*
X147582545Y-85683986D01*
X147764328Y-85833172D01*
X147913514Y-86014955D01*
X148024363Y-86222340D01*
X148092627Y-86447376D01*
X148109900Y-86622753D01*
X148109900Y-88924447D01*
X148092627Y-89099824D01*
X148024363Y-89324860D01*
X147913514Y-89532245D01*
X147764326Y-89714031D01*
X147582547Y-89863212D01*
X147375159Y-89974063D01*
X147375157Y-89974064D01*
X147262641Y-90008195D01*
X147150123Y-90042327D01*
X146916100Y-90065376D01*
X146682076Y-90042327D01*
X146569558Y-90008195D01*
X146457042Y-89974064D01*
X146457040Y-89974063D01*
X146249655Y-89863214D01*
X146067869Y-89714026D01*
X145918688Y-89532247D01*
X145807837Y-89324859D01*
X145739573Y-89099823D01*
X145722300Y-88924446D01*
X145722301Y-86622753D01*
X145739574Y-86447376D01*
X145807838Y-86222340D01*
X145918687Y-86014955D01*
X146067873Y-85833172D01*
X146249656Y-85683986D01*
X146457041Y-85573137D01*
X146457043Y-85573136D01*
X146569559Y-85539005D01*
X146682077Y-85504873D01*
X146916100Y-85481824D01*
X147150124Y-85504873D01*
G37*
G36*
X155250124Y-85504873D02*
G01*
X155362642Y-85539005D01*
X155475158Y-85573136D01*
X155475160Y-85573137D01*
X155682545Y-85683986D01*
X155864328Y-85833172D01*
X156013514Y-86014955D01*
X156124363Y-86222340D01*
X156192627Y-86447376D01*
X156209900Y-86622753D01*
X156209900Y-88924447D01*
X156192627Y-89099824D01*
X156124363Y-89324860D01*
X156013514Y-89532245D01*
X155864326Y-89714031D01*
X155682547Y-89863212D01*
X155475159Y-89974063D01*
X155475157Y-89974064D01*
X155362641Y-90008195D01*
X155250123Y-90042327D01*
X155016100Y-90065376D01*
X154782076Y-90042327D01*
X154669558Y-90008195D01*
X154557042Y-89974064D01*
X154557040Y-89974063D01*
X154349655Y-89863214D01*
X154167869Y-89714026D01*
X154018688Y-89532247D01*
X153907837Y-89324859D01*
X153839573Y-89099823D01*
X153822300Y-88924446D01*
X153822301Y-86622753D01*
X153839574Y-86447376D01*
X153907838Y-86222340D01*
X154018687Y-86014955D01*
X154167873Y-85833172D01*
X154349656Y-85683986D01*
X154557041Y-85573137D01*
X154557043Y-85573136D01*
X154669559Y-85539005D01*
X154782077Y-85504873D01*
X155016100Y-85481824D01*
X155250124Y-85504873D01*
G37*
G36*
X153884865Y-82407220D02*
G01*
X154074388Y-82485723D01*
X154244954Y-82599692D01*
X154390008Y-82744746D01*
X154503977Y-82915312D01*
X154582480Y-83104835D01*
X154622500Y-83306031D01*
X154622500Y-83511169D01*
X154582480Y-83712365D01*
X154503977Y-83901888D01*
X154390008Y-84072454D01*
X154244954Y-84217508D01*
X154074388Y-84331477D01*
X154074387Y-84331478D01*
X154074386Y-84331478D01*
X153884865Y-84409980D01*
X153683670Y-84450000D01*
X153478530Y-84450000D01*
X153277335Y-84409980D01*
X153087814Y-84331478D01*
X153087813Y-84331478D01*
X153087812Y-84331477D01*
X152917246Y-84217508D01*
X152772192Y-84072454D01*
X152658223Y-83901888D01*
X152579720Y-83712365D01*
X152539700Y-83511169D01*
X152539700Y-83306031D01*
X152579720Y-83104835D01*
X152658223Y-82915312D01*
X152772192Y-82744746D01*
X152917246Y-82599692D01*
X153087812Y-82485723D01*
X153277335Y-82407220D01*
X153478530Y-82367200D01*
X153683670Y-82367200D01*
X153884865Y-82407220D01*
G37*
G36*
X143724865Y-82407220D02*
G01*
X143914388Y-82485723D01*
X144084954Y-82599692D01*
X144230008Y-82744746D01*
X144343977Y-82915312D01*
X144422480Y-83104835D01*
X144462500Y-83306031D01*
X144462500Y-83511169D01*
X144422480Y-83712365D01*
X144343977Y-83901888D01*
X144230008Y-84072454D01*
X144084954Y-84217508D01*
X143914388Y-84331477D01*
X143914387Y-84331478D01*
X143914386Y-84331478D01*
X143724865Y-84409980D01*
X143523670Y-84450000D01*
X143318530Y-84450000D01*
X143117335Y-84409980D01*
X142927814Y-84331478D01*
X142927813Y-84331478D01*
X142927812Y-84331477D01*
X142757246Y-84217508D01*
X142612192Y-84072454D01*
X142498223Y-83901888D01*
X142419720Y-83712365D01*
X142379700Y-83511169D01*
X142379700Y-83306031D01*
X142419720Y-83104835D01*
X142498223Y-82915312D01*
X142612192Y-82744746D01*
X142757246Y-82599692D01*
X142927812Y-82485723D01*
X143117335Y-82407220D01*
X143318530Y-82367200D01*
X143523670Y-82367200D01*
X143724865Y-82407220D01*
G37*
G36*
X146264865Y-82407220D02*
G01*
X146454388Y-82485723D01*
X146624954Y-82599692D01*
X146770008Y-82744746D01*
X146883977Y-82915312D01*
X146962480Y-83104835D01*
X147002500Y-83306031D01*
X147002500Y-83511169D01*
X146962480Y-83712365D01*
X146883977Y-83901888D01*
X146770008Y-84072454D01*
X146624954Y-84217508D01*
X146454388Y-84331477D01*
X146454387Y-84331478D01*
X146454386Y-84331478D01*
X146264865Y-84409980D01*
X146063670Y-84450000D01*
X145858530Y-84450000D01*
X145657335Y-84409980D01*
X145467814Y-84331478D01*
X145467813Y-84331478D01*
X145467812Y-84331477D01*
X145297246Y-84217508D01*
X145152192Y-84072454D01*
X145038223Y-83901888D01*
X144959720Y-83712365D01*
X144919700Y-83511169D01*
X144919700Y-83306031D01*
X144959720Y-83104835D01*
X145038223Y-82915312D01*
X145152192Y-82744746D01*
X145297246Y-82599692D01*
X145467812Y-82485723D01*
X145657335Y-82407220D01*
X145858530Y-82367200D01*
X146063670Y-82367200D01*
X146264865Y-82407220D01*
G37*
G36*
X148804865Y-82407220D02*
G01*
X148994388Y-82485723D01*
X149164954Y-82599692D01*
X149310008Y-82744746D01*
X149423977Y-82915312D01*
X149502480Y-83104835D01*
X149542500Y-83306031D01*
X149542500Y-83511169D01*
X149502480Y-83712365D01*
X149423977Y-83901888D01*
X149310008Y-84072454D01*
X149164954Y-84217508D01*
X148994388Y-84331477D01*
X148994387Y-84331478D01*
X148994386Y-84331478D01*
X148804865Y-84409980D01*
X148603670Y-84450000D01*
X148398530Y-84450000D01*
X148197335Y-84409980D01*
X148007814Y-84331478D01*
X148007813Y-84331478D01*
X148007812Y-84331477D01*
X147837246Y-84217508D01*
X147692192Y-84072454D01*
X147578223Y-83901888D01*
X147499720Y-83712365D01*
X147459700Y-83511169D01*
X147459700Y-83306031D01*
X147499720Y-83104835D01*
X147578223Y-82915312D01*
X147692192Y-82744746D01*
X147837246Y-82599692D01*
X148007812Y-82485723D01*
X148197335Y-82407220D01*
X148398530Y-82367200D01*
X148603670Y-82367200D01*
X148804865Y-82407220D01*
G37*
G36*
X151344865Y-82407220D02*
G01*
X151534388Y-82485723D01*
X151704954Y-82599692D01*
X151850008Y-82744746D01*
X151963977Y-82915312D01*
X152042480Y-83104835D01*
X152082500Y-83306031D01*
X152082500Y-83511169D01*
X152042480Y-83712365D01*
X151963977Y-83901888D01*
X151850008Y-84072454D01*
X151704954Y-84217508D01*
X151534388Y-84331477D01*
X151534387Y-84331478D01*
X151534386Y-84331478D01*
X151344865Y-84409980D01*
X151143670Y-84450000D01*
X150938530Y-84450000D01*
X150737335Y-84409980D01*
X150547814Y-84331478D01*
X150547813Y-84331478D01*
X150547812Y-84331477D01*
X150377246Y-84217508D01*
X150232192Y-84072454D01*
X150118223Y-83901888D01*
X150039720Y-83712365D01*
X149999700Y-83511169D01*
X149999700Y-83306031D01*
X150039720Y-83104835D01*
X150118223Y-82915312D01*
X150232192Y-82744746D01*
X150377246Y-82599692D01*
X150547812Y-82485723D01*
X150737335Y-82407220D01*
X150938530Y-82367200D01*
X151143670Y-82367200D01*
X151344865Y-82407220D01*
G37*
G36*
X146264865Y-79867220D02*
G01*
X146454388Y-79945723D01*
X146624954Y-80059692D01*
X146770008Y-80204746D01*
X146883977Y-80375312D01*
X146962480Y-80564835D01*
X147002500Y-80766031D01*
X147002500Y-80971169D01*
X146962480Y-81172365D01*
X146883977Y-81361888D01*
X146770008Y-81532454D01*
X146624954Y-81677508D01*
X146454388Y-81791477D01*
X146454387Y-81791478D01*
X146454386Y-81791478D01*
X146264865Y-81869980D01*
X146063670Y-81910000D01*
X145858530Y-81910000D01*
X145657335Y-81869980D01*
X145467814Y-81791478D01*
X145467813Y-81791478D01*
X145467812Y-81791477D01*
X145297246Y-81677508D01*
X145152192Y-81532454D01*
X145038223Y-81361888D01*
X144959720Y-81172365D01*
X144919700Y-80971169D01*
X144919700Y-80766031D01*
X144959720Y-80564835D01*
X145038223Y-80375312D01*
X145152192Y-80204746D01*
X145297246Y-80059692D01*
X145467812Y-79945723D01*
X145657335Y-79867220D01*
X145858530Y-79827200D01*
X146063670Y-79827200D01*
X146264865Y-79867220D01*
G37*
G36*
X148804865Y-79867220D02*
G01*
X148994388Y-79945723D01*
X149164954Y-80059692D01*
X149310008Y-80204746D01*
X149423977Y-80375312D01*
X149502480Y-80564835D01*
X149542500Y-80766031D01*
X149542500Y-80971169D01*
X149502480Y-81172365D01*
X149423977Y-81361888D01*
X149310008Y-81532454D01*
X149164954Y-81677508D01*
X148994388Y-81791477D01*
X148994387Y-81791478D01*
X148994386Y-81791478D01*
X148804865Y-81869980D01*
X148603670Y-81910000D01*
X148398530Y-81910000D01*
X148197335Y-81869980D01*
X148007814Y-81791478D01*
X148007813Y-81791478D01*
X148007812Y-81791477D01*
X147837246Y-81677508D01*
X147692192Y-81532454D01*
X147578223Y-81361888D01*
X147499720Y-81172365D01*
X147459700Y-80971169D01*
X147459700Y-80766031D01*
X147499720Y-80564835D01*
X147578223Y-80375312D01*
X147692192Y-80204746D01*
X147837246Y-80059692D01*
X148007812Y-79945723D01*
X148197335Y-79867220D01*
X148398530Y-79827200D01*
X148603670Y-79827200D01*
X148804865Y-79867220D01*
G37*
G36*
X151344865Y-79867220D02*
G01*
X151534388Y-79945723D01*
X151704954Y-80059692D01*
X151850008Y-80204746D01*
X151963977Y-80375312D01*
X152042480Y-80564835D01*
X152082500Y-80766031D01*
X152082500Y-80971169D01*
X152042480Y-81172365D01*
X151963977Y-81361888D01*
X151850008Y-81532454D01*
X151704954Y-81677508D01*
X151534388Y-81791477D01*
X151534387Y-81791478D01*
X151534386Y-81791478D01*
X151344865Y-81869980D01*
X151143670Y-81910000D01*
X150938530Y-81910000D01*
X150737335Y-81869980D01*
X150547814Y-81791478D01*
X150547813Y-81791478D01*
X150547812Y-81791477D01*
X150377246Y-81677508D01*
X150232192Y-81532454D01*
X150118223Y-81361888D01*
X150039720Y-81172365D01*
X149999700Y-80971169D01*
X149999700Y-80766031D01*
X150039720Y-80564835D01*
X150118223Y-80375312D01*
X150232192Y-80204746D01*
X150377246Y-80059692D01*
X150547812Y-79945723D01*
X150737335Y-79867220D01*
X150938530Y-79827200D01*
X151143670Y-79827200D01*
X151344865Y-79867220D01*
G37*
G36*
X153884865Y-79867220D02*
G01*
X154074388Y-79945723D01*
X154244954Y-80059692D01*
X154390008Y-80204746D01*
X154503977Y-80375312D01*
X154582480Y-80564835D01*
X154622500Y-80766031D01*
X154622500Y-80971169D01*
X154582480Y-81172365D01*
X154503977Y-81361888D01*
X154390008Y-81532454D01*
X154244954Y-81677508D01*
X154074388Y-81791477D01*
X154074387Y-81791478D01*
X154074386Y-81791478D01*
X153884865Y-81869980D01*
X153683670Y-81910000D01*
X153478530Y-81910000D01*
X153277335Y-81869980D01*
X153087814Y-81791478D01*
X153087813Y-81791478D01*
X153087812Y-81791477D01*
X152917246Y-81677508D01*
X152772192Y-81532454D01*
X152658223Y-81361888D01*
X152579720Y-81172365D01*
X152539700Y-80971169D01*
X152539700Y-80766031D01*
X152579720Y-80564835D01*
X152658223Y-80375312D01*
X152772192Y-80204746D01*
X152917246Y-80059692D01*
X153087812Y-79945723D01*
X153277335Y-79867220D01*
X153478530Y-79827200D01*
X153683670Y-79827200D01*
X153884865Y-79867220D01*
G37*
G36*
X143724865Y-79867220D02*
G01*
X143914388Y-79945723D01*
X144084954Y-80059692D01*
X144230008Y-80204746D01*
X144343977Y-80375312D01*
X144422480Y-80564835D01*
X144462500Y-80766031D01*
X144462500Y-80971169D01*
X144422480Y-81172365D01*
X144343977Y-81361888D01*
X144230008Y-81532454D01*
X144084954Y-81677508D01*
X143914388Y-81791477D01*
X143914387Y-81791478D01*
X143914386Y-81791478D01*
X143724865Y-81869980D01*
X143523670Y-81910000D01*
X143318530Y-81910000D01*
X143117335Y-81869980D01*
X142927814Y-81791478D01*
X142927813Y-81791478D01*
X142927812Y-81791477D01*
X142757246Y-81677508D01*
X142612192Y-81532454D01*
X142498223Y-81361888D01*
X142419720Y-81172365D01*
X142379700Y-80971169D01*
X142379700Y-80766031D01*
X142419720Y-80564835D01*
X142498223Y-80375312D01*
X142612192Y-80204746D01*
X142757246Y-80059692D01*
X142927812Y-79945723D01*
X143117335Y-79867220D01*
X143318530Y-79827200D01*
X143523670Y-79827200D01*
X143724865Y-79867220D01*
G37*
M02*
