G04 #@! TF.GenerationSoftware,KiCad,Pcbnew,(5.1.5)-3*
G04 #@! TF.CreationDate,2020-03-15T11:33:57-07:00*
G04 #@! TF.ProjectId,bbf-eurojacks_v1,6262662d-6575-4726-9f6a-61636b735f76,rev?*
G04 #@! TF.SameCoordinates,Original*
G04 #@! TF.FileFunction,Copper,L1,Top*
G04 #@! TF.FilePolarity,Positive*
%FSLAX46Y46*%
G04 Gerber Fmt 4.6, Leading zero omitted, Abs format (unit mm)*
G04 Created by KiCad (PCBNEW (5.1.5)-3) date 2020-03-15 11:33:57*
%MOMM*%
%LPD*%
G04 APERTURE LIST*
G04 #@! TA.AperFunction,ComponentPad*
%ADD10O,2.184400X4.368800*%
G04 #@! TD*
G04 #@! TA.AperFunction,ComponentPad*
%ADD11O,4.368800X2.184400*%
G04 #@! TD*
G04 #@! TA.AperFunction,ComponentPad*
%ADD12C,1.879600*%
G04 #@! TD*
G04 #@! TA.AperFunction,ComponentPad*
%ADD13R,1.879600X1.879600*%
G04 #@! TD*
G04 #@! TA.AperFunction,Conductor*
%ADD14C,0.812800*%
G04 #@! TD*
G04 #@! TA.AperFunction,Conductor*
%ADD15C,0.254000*%
G04 #@! TD*
G04 #@! TA.AperFunction,Conductor*
%ADD16C,0.250000*%
G04 #@! TD*
G04 APERTURE END LIST*
D10*
G04 #@! TO.P,J4,2*
G04 #@! TO.N,Net-(J4-Pad2)*
X146916100Y-118253600D03*
D11*
G04 #@! TO.P,J4,3*
G04 #@! TO.N,Net-(J4-Pad3)*
X152716100Y-122953600D03*
D10*
G04 #@! TO.P,J4,1*
G04 #@! TO.N,GND*
X155016100Y-118253600D03*
G04 #@! TD*
G04 #@! TO.P,J3,2*
G04 #@! TO.N,Net-(J3-Pad2)*
X146916100Y-108093600D03*
D11*
G04 #@! TO.P,J3,3*
G04 #@! TO.N,Net-(J3-Pad3)*
X152716100Y-112793600D03*
D10*
G04 #@! TO.P,J3,1*
G04 #@! TO.N,GND*
X155016100Y-108093600D03*
G04 #@! TD*
G04 #@! TO.P,J2,2*
G04 #@! TO.N,Net-(J2-Pad2)*
X146916100Y-97933600D03*
D11*
G04 #@! TO.P,J2,3*
G04 #@! TO.N,Net-(J2-Pad3)*
X152716100Y-102633600D03*
D10*
G04 #@! TO.P,J2,1*
G04 #@! TO.N,GND*
X155016100Y-97933600D03*
G04 #@! TD*
G04 #@! TO.P,J1,2*
G04 #@! TO.N,Net-(J1-Pad2)*
X146916100Y-87773600D03*
D11*
G04 #@! TO.P,J1,3*
G04 #@! TO.N,Net-(J1-Pad3)*
X152716100Y-92473600D03*
D10*
G04 #@! TO.P,J1,1*
G04 #@! TO.N,GND*
X155016100Y-87773600D03*
G04 #@! TD*
D12*
G04 #@! TO.P,JP1,10*
G04 #@! TO.N,VCC*
X153581100Y-80868600D03*
G04 #@! TO.P,JP1,9*
G04 #@! TO.N,GND*
X153581100Y-83408600D03*
G04 #@! TO.P,JP1,8*
G04 #@! TO.N,VCC*
X151041100Y-80868600D03*
G04 #@! TO.P,JP1,7*
G04 #@! TO.N,GND*
X151041100Y-83408600D03*
G04 #@! TO.P,JP1,6*
G04 #@! TO.N,VCC*
X148501100Y-80868600D03*
G04 #@! TO.P,JP1,5*
G04 #@! TO.N,GND*
X148501100Y-83408600D03*
G04 #@! TO.P,JP1,4*
G04 #@! TO.N,VCC*
X145961100Y-80868600D03*
G04 #@! TO.P,JP1,3*
G04 #@! TO.N,GND*
X145961100Y-83408600D03*
G04 #@! TO.P,JP1,2*
G04 #@! TO.N,VCC*
X143421100Y-80868600D03*
G04 #@! TO.P,JP1,1*
G04 #@! TO.N,GND*
X143421100Y-83408600D03*
G04 #@! TD*
G04 #@! TO.P,JP3,10*
G04 #@! TO.N,GND*
X153581100Y-126588600D03*
G04 #@! TO.P,JP3,9*
G04 #@! TO.N,VEE*
X153581100Y-129128600D03*
G04 #@! TO.P,JP3,8*
G04 #@! TO.N,GND*
X151041100Y-126588600D03*
G04 #@! TO.P,JP3,7*
G04 #@! TO.N,VEE*
X151041100Y-129128600D03*
G04 #@! TO.P,JP3,6*
G04 #@! TO.N,GND*
X148501100Y-126588600D03*
G04 #@! TO.P,JP3,5*
G04 #@! TO.N,VEE*
X148501100Y-129128600D03*
G04 #@! TO.P,JP3,4*
G04 #@! TO.N,GND*
X145961100Y-126588600D03*
G04 #@! TO.P,JP3,3*
G04 #@! TO.N,VEE*
X145961100Y-129128600D03*
G04 #@! TO.P,JP3,2*
G04 #@! TO.N,GND*
X143421100Y-126588600D03*
G04 #@! TO.P,JP3,1*
G04 #@! TO.N,VEE*
X143421100Y-129128600D03*
G04 #@! TD*
G04 #@! TO.P,JP2,8*
G04 #@! TO.N,Net-(J1-Pad2)*
X142786100Y-96108600D03*
G04 #@! TO.P,JP2,7*
G04 #@! TO.N,Net-(J1-Pad3)*
X142786100Y-98648600D03*
G04 #@! TO.P,JP2,6*
G04 #@! TO.N,Net-(J2-Pad2)*
X142786100Y-101188600D03*
G04 #@! TO.P,JP2,5*
G04 #@! TO.N,Net-(J2-Pad3)*
X142786100Y-103728600D03*
G04 #@! TO.P,JP2,4*
G04 #@! TO.N,Net-(J3-Pad2)*
X142786100Y-106268600D03*
G04 #@! TO.P,JP2,3*
G04 #@! TO.N,Net-(J3-Pad3)*
X142786100Y-108808600D03*
G04 #@! TO.P,JP2,2*
G04 #@! TO.N,Net-(J4-Pad2)*
X142786100Y-111348600D03*
D13*
G04 #@! TO.P,JP2,1*
G04 #@! TO.N,Net-(J4-Pad3)*
X142786100Y-113888600D03*
G04 #@! TD*
D14*
G04 #@! TO.N,VCC*
X143421100Y-80868600D02*
X145961100Y-80868600D01*
X145961100Y-80868600D02*
X148501100Y-80868600D01*
X148501100Y-80868600D02*
X151041100Y-80868600D01*
X151041100Y-80868600D02*
X153581100Y-80868600D01*
G04 #@! TO.N,VEE*
X143421100Y-129128600D02*
X145961100Y-129128600D01*
X145961100Y-129128600D02*
X148501100Y-129128600D01*
X148501100Y-129128600D02*
X151041100Y-129128600D01*
X151041100Y-129128600D02*
X153581100Y-129128600D01*
D15*
G04 #@! TO.N,Net-(J2-Pad2)*
X142786100Y-101188600D02*
X144691100Y-101188600D01*
X146916100Y-98963600D02*
X146916100Y-97933600D01*
D16*
X146916100Y-100368000D02*
X146916100Y-97933600D01*
X146095500Y-101188600D02*
X146916100Y-100368000D01*
X144691100Y-101188600D02*
X146095500Y-101188600D01*
G04 #@! TO.N,Net-(J2-Pad3)*
X151621100Y-103728600D02*
X152716100Y-102633600D01*
X142786100Y-103728600D02*
X151621100Y-103728600D01*
G04 #@! TO.N,Net-(J3-Pad2)*
X145091100Y-106268600D02*
X146916100Y-108093600D01*
X142786100Y-106268600D02*
X145091100Y-106268600D01*
D15*
G04 #@! TO.N,Net-(J3-Pad3)*
X142786100Y-108808600D02*
X144691100Y-108808600D01*
X144691100Y-108808600D02*
X145326100Y-109443600D01*
X145326100Y-109443600D02*
X145326100Y-110713600D01*
X145326100Y-110713600D02*
X147406100Y-112793600D01*
D16*
X147406100Y-112793600D02*
X152716100Y-112793600D01*
D15*
G04 #@! TO.N,Net-(J4-Pad2)*
X145326100Y-114523600D02*
X145326100Y-111983600D01*
X145326100Y-111983600D02*
X144691100Y-111348600D01*
X144691100Y-111348600D02*
X142786100Y-111348600D01*
D16*
X145573900Y-118253600D02*
X146916100Y-118253600D01*
X145326100Y-118005800D02*
X145573900Y-118253600D01*
X145326100Y-114523600D02*
X145326100Y-118005800D01*
D15*
G04 #@! TO.N,Net-(J4-Pad3)*
X142786100Y-121508600D02*
X142786100Y-113888600D01*
X142786100Y-121508600D02*
X144056100Y-122778600D01*
D16*
X144231100Y-122953600D02*
X152716100Y-122953600D01*
X144056100Y-122778600D02*
X144231100Y-122953600D01*
G04 #@! TO.N,Net-(J1-Pad2)*
X142786100Y-96108600D02*
X142786100Y-91713900D01*
X142786100Y-90561400D02*
X142786100Y-91713900D01*
X145573900Y-87773600D02*
X142786100Y-90561400D01*
X146916100Y-87773600D02*
X145573900Y-87773600D01*
D15*
G04 #@! TO.N,Net-(J1-Pad3)*
X142786100Y-98648600D02*
X144691100Y-98648600D01*
X144691100Y-98648600D02*
X145326100Y-98013600D01*
X145326100Y-98013600D02*
X145326100Y-94838600D01*
X145326100Y-94838600D02*
X147691100Y-92473600D01*
D16*
X152716100Y-92473600D02*
X147691100Y-92473600D01*
G04 #@! TD*
M02*
