M48
; DRILL file {KiCad (5.1.5)-3} date 3/15/2020 10:43:54 AM
; FORMAT={-:-/ absolute / inch / decimal}
; #@! TF.CreationDate,2020-03-15T10:43:54-07:00
; #@! TF.GenerationSoftware,Kicad,Pcbnew,(5.1.5)-3
; #@! TF.FileFunction,Plated,1,2,PTH
FMAT,2
INCH
T1C0.0315
T2C0.0400
%
G90
G05
T2
X5.6465Y-4.9838
X5.6465Y-5.0838
X5.7465Y-4.9838
X5.7465Y-5.0838
X5.8465Y-4.9838
X5.8465Y-5.0838
X5.9465Y-4.9838
X5.9465Y-5.0838
X6.0465Y-4.9838
X6.0465Y-5.0838
X5.6215Y-3.7838
X5.6215Y-3.8838
X5.6215Y-3.9838
X5.6215Y-4.0838
X5.6215Y-4.1838
X5.6215Y-4.2838
X5.6215Y-4.3838
X5.6215Y-4.4838
X5.6465Y-3.1838
X5.6465Y-3.2838
X5.7465Y-3.1838
X5.7465Y-3.2838
X5.8465Y-3.1838
X5.8465Y-3.2838
X5.9465Y-3.1838
X5.9465Y-3.2838
X6.0465Y-3.1838
X6.0465Y-3.2838
T1
G00X5.7841Y-3.432
M15
G01X5.7841Y-3.4793
M16
G05
G00X6.0361Y-3.6407
M15
G01X5.9888Y-3.6407
M16
G05
G00X6.103Y-3.432
M15
G01X6.103Y-3.4793
M16
G05
G00X5.7841Y-4.632
M15
G01X5.7841Y-4.6793
M16
G05
G00X6.0361Y-4.8407
M15
G01X5.9888Y-4.8407
M16
G05
G00X6.103Y-4.632
M15
G01X6.103Y-4.6793
M16
G05
G00X5.7841Y-3.832
M15
G01X5.7841Y-3.8793
M16
G05
G00X6.0361Y-4.0407
M15
G01X5.9888Y-4.0407
M16
G05
G00X6.103Y-3.832
M15
G01X6.103Y-3.8793
M16
G05
G00X5.7841Y-4.232
M15
G01X5.7841Y-4.2793
M16
G05
G00X6.0361Y-4.4407
M15
G01X5.9888Y-4.4407
M16
G05
G00X6.103Y-4.232
M15
G01X6.103Y-4.2793
M16
G05
T0
M30
