G04 #@! TF.GenerationSoftware,KiCad,Pcbnew,(5.1.5)-3*
G04 #@! TF.CreationDate,2020-03-15T11:33:57-07:00*
G04 #@! TF.ProjectId,bbf-eurojacks_v1,6262662d-6575-4726-9f6a-61636b735f76,rev?*
G04 #@! TF.SameCoordinates,Original*
G04 #@! TF.FileFunction,Other,Fab,Top*
%FSLAX46Y46*%
G04 Gerber Fmt 4.6, Leading zero omitted, Abs format (unit mm)*
G04 Created by KiCad (PCBNEW (5.1.5)-3) date 2020-03-15 11:33:57*
%MOMM*%
%LPD*%
G04 APERTURE LIST*
%ADD10C,0.203200*%
%ADD11C,0.100000*%
%ADD12C,0.096520*%
G04 APERTURE END LIST*
D10*
G04 #@! TO.C,J4*
X155030100Y-119603600D02*
G75*
G03X155030100Y-119603600I-3600000J0D01*
G01*
X153476100Y-124503600D02*
X150876100Y-124503600D01*
G04 #@! TO.C,J3*
X155030100Y-109443600D02*
G75*
G03X155030100Y-109443600I-3600000J0D01*
G01*
X153476100Y-114343600D02*
X150876100Y-114343600D01*
G04 #@! TO.C,J2*
X155030100Y-99283600D02*
G75*
G03X155030100Y-99283600I-3600000J0D01*
G01*
X153476100Y-104183600D02*
X150876100Y-104183600D01*
G04 #@! TO.C,J1*
X155030100Y-89123600D02*
G75*
G03X155030100Y-89123600I-3600000J0D01*
G01*
X153476100Y-94023600D02*
X150876100Y-94023600D01*
D11*
G04 #@! TO.C,JP1*
G36*
X151295100Y-81122600D02*
G01*
X151295100Y-80614600D01*
X150787100Y-80614600D01*
X150787100Y-81122600D01*
X151295100Y-81122600D01*
G37*
G36*
X151295100Y-83662600D02*
G01*
X151295100Y-83154600D01*
X150787100Y-83154600D01*
X150787100Y-83662600D01*
X151295100Y-83662600D01*
G37*
G36*
X153835100Y-83662600D02*
G01*
X153835100Y-83154600D01*
X153327100Y-83154600D01*
X153327100Y-83662600D01*
X153835100Y-83662600D01*
G37*
G36*
X153835100Y-81122600D02*
G01*
X153835100Y-80614600D01*
X153327100Y-80614600D01*
X153327100Y-81122600D01*
X153835100Y-81122600D01*
G37*
G36*
X148755100Y-81122600D02*
G01*
X148755100Y-80614600D01*
X148247100Y-80614600D01*
X148247100Y-81122600D01*
X148755100Y-81122600D01*
G37*
G36*
X146215100Y-83662600D02*
G01*
X146215100Y-83154600D01*
X145707100Y-83154600D01*
X145707100Y-83662600D01*
X146215100Y-83662600D01*
G37*
G36*
X146215100Y-81122600D02*
G01*
X146215100Y-80614600D01*
X145707100Y-80614600D01*
X145707100Y-81122600D01*
X146215100Y-81122600D01*
G37*
G36*
X143675100Y-81122600D02*
G01*
X143675100Y-80614600D01*
X143167100Y-80614600D01*
X143167100Y-81122600D01*
X143675100Y-81122600D01*
G37*
G36*
X143675100Y-83662600D02*
G01*
X143675100Y-83154600D01*
X143167100Y-83154600D01*
X143167100Y-83662600D01*
X143675100Y-83662600D01*
G37*
G04 #@! TO.C,JP3*
G36*
X151295100Y-126842600D02*
G01*
X151295100Y-126334600D01*
X150787100Y-126334600D01*
X150787100Y-126842600D01*
X151295100Y-126842600D01*
G37*
G36*
X151295100Y-129382600D02*
G01*
X151295100Y-128874600D01*
X150787100Y-128874600D01*
X150787100Y-129382600D01*
X151295100Y-129382600D01*
G37*
G36*
X153835100Y-129382600D02*
G01*
X153835100Y-128874600D01*
X153327100Y-128874600D01*
X153327100Y-129382600D01*
X153835100Y-129382600D01*
G37*
G36*
X153835100Y-126842600D02*
G01*
X153835100Y-126334600D01*
X153327100Y-126334600D01*
X153327100Y-126842600D01*
X153835100Y-126842600D01*
G37*
G36*
X148755100Y-126842600D02*
G01*
X148755100Y-126334600D01*
X148247100Y-126334600D01*
X148247100Y-126842600D01*
X148755100Y-126842600D01*
G37*
G36*
X146215100Y-129382600D02*
G01*
X146215100Y-128874600D01*
X145707100Y-128874600D01*
X145707100Y-129382600D01*
X146215100Y-129382600D01*
G37*
G36*
X146215100Y-126842600D02*
G01*
X146215100Y-126334600D01*
X145707100Y-126334600D01*
X145707100Y-126842600D01*
X146215100Y-126842600D01*
G37*
G36*
X143675100Y-126842600D02*
G01*
X143675100Y-126334600D01*
X143167100Y-126334600D01*
X143167100Y-126842600D01*
X143675100Y-126842600D01*
G37*
G36*
X143675100Y-129382600D02*
G01*
X143675100Y-128874600D01*
X143167100Y-128874600D01*
X143167100Y-129382600D01*
X143675100Y-129382600D01*
G37*
G04 #@! TO.C,JP2*
G36*
X143040100Y-96362600D02*
G01*
X143040100Y-95854600D01*
X142532100Y-95854600D01*
X142532100Y-96362600D01*
X143040100Y-96362600D01*
G37*
G36*
X143040100Y-114142600D02*
G01*
X143040100Y-113634600D01*
X142532100Y-113634600D01*
X142532100Y-114142600D01*
X143040100Y-114142600D01*
G37*
G36*
X143040100Y-111602600D02*
G01*
X143040100Y-111094600D01*
X142532100Y-111094600D01*
X142532100Y-111602600D01*
X143040100Y-111602600D01*
G37*
G36*
X143040100Y-109062600D02*
G01*
X143040100Y-108554600D01*
X142532100Y-108554600D01*
X142532100Y-109062600D01*
X143040100Y-109062600D01*
G37*
G36*
X143040100Y-106522600D02*
G01*
X143040100Y-106014600D01*
X142532100Y-106014600D01*
X142532100Y-106522600D01*
X143040100Y-106522600D01*
G37*
G36*
X143040100Y-103982600D02*
G01*
X143040100Y-103474600D01*
X142532100Y-103474600D01*
X142532100Y-103982600D01*
X143040100Y-103982600D01*
G37*
G36*
X143040100Y-101442600D02*
G01*
X143040100Y-100934600D01*
X142532100Y-100934600D01*
X142532100Y-101442600D01*
X143040100Y-101442600D01*
G37*
G36*
X143040100Y-98902600D02*
G01*
X143040100Y-98394600D01*
X142532100Y-98394600D01*
X142532100Y-98902600D01*
X143040100Y-98902600D01*
G37*
G04 #@! TD*
G04 #@! TO.C,JP2*
D12*
X145903647Y-114808600D02*
X144697147Y-114808600D01*
X145558933Y-114406433D01*
X144697147Y-114004266D01*
X145903647Y-114004266D01*
X144697147Y-113199933D02*
X144697147Y-113085028D01*
X144754600Y-112970123D01*
X144812052Y-112912671D01*
X144926957Y-112855219D01*
X145156766Y-112797766D01*
X145444028Y-112797766D01*
X145673838Y-112855219D01*
X145788742Y-112912671D01*
X145846195Y-112970123D01*
X145903647Y-113085028D01*
X145903647Y-113199933D01*
X145846195Y-113314838D01*
X145788742Y-113372290D01*
X145673838Y-113429742D01*
X145444028Y-113487195D01*
X145156766Y-113487195D01*
X144926957Y-113429742D01*
X144812052Y-113372290D01*
X144754600Y-113314838D01*
X144697147Y-113199933D01*
X145214219Y-112108338D02*
X145156766Y-112223242D01*
X145099314Y-112280695D01*
X144984409Y-112338147D01*
X144926957Y-112338147D01*
X144812052Y-112280695D01*
X144754600Y-112223242D01*
X144697147Y-112108338D01*
X144697147Y-111878528D01*
X144754600Y-111763623D01*
X144812052Y-111706171D01*
X144926957Y-111648719D01*
X144984409Y-111648719D01*
X145099314Y-111706171D01*
X145156766Y-111763623D01*
X145214219Y-111878528D01*
X145214219Y-112108338D01*
X145271671Y-112223242D01*
X145329123Y-112280695D01*
X145444028Y-112338147D01*
X145673838Y-112338147D01*
X145788742Y-112280695D01*
X145846195Y-112223242D01*
X145903647Y-112108338D01*
X145903647Y-111878528D01*
X145846195Y-111763623D01*
X145788742Y-111706171D01*
X145673838Y-111648719D01*
X145444028Y-111648719D01*
X145329123Y-111706171D01*
X145271671Y-111763623D01*
X145214219Y-111878528D01*
G04 #@! TD*
M02*
