%TF.GenerationSoftware,KiCad,Pcbnew,(5.1.5)-3*%
%TF.CreationDate,2020-03-15T11:37:31-07:00*%
%TF.ProjectId,bbf-audio_out_v1,6262662d-6175-4646-996f-5f6f75745f76,rev?*%
%TF.SameCoordinates,Original*%
%TF.FileFunction,Other,Fab,Top*%
%FSLAX46Y46*%
G04 Gerber Fmt 4.6, Leading zero omitted, Abs format (unit mm)*
G04 Created by KiCad (PCBNEW (5.1.5)-3) date 2020-03-15 11:37:31*
%MOMM*%
%LPD*%
G04 APERTURE LIST*
%ADD10C,0.100000*%
%ADD11C,0.254000*%
%ADD12C,0.508000*%
%ADD13C,0.152400*%
%ADD14C,0.120650*%
%ADD15C,0.094107*%
%ADD16C,0.067564*%
%ADD17C,0.096520*%
G04 APERTURE END LIST*
D10*
%TO.C,JP1*%
G36*
X153835100Y-81122600D02*
G01*
X153835100Y-80614600D01*
X153327100Y-80614600D01*
X153327100Y-81122600D01*
X153835100Y-81122600D01*
G37*
G36*
X153835100Y-83662600D02*
G01*
X153835100Y-83154600D01*
X153327100Y-83154600D01*
X153327100Y-83662600D01*
X153835100Y-83662600D01*
G37*
G36*
X156375100Y-83662600D02*
G01*
X156375100Y-83154600D01*
X155867100Y-83154600D01*
X155867100Y-83662600D01*
X156375100Y-83662600D01*
G37*
G36*
X156375100Y-81122600D02*
G01*
X156375100Y-80614600D01*
X155867100Y-80614600D01*
X155867100Y-81122600D01*
X156375100Y-81122600D01*
G37*
G36*
X151295100Y-81122600D02*
G01*
X151295100Y-80614600D01*
X150787100Y-80614600D01*
X150787100Y-81122600D01*
X151295100Y-81122600D01*
G37*
G36*
X148755100Y-83662600D02*
G01*
X148755100Y-83154600D01*
X148247100Y-83154600D01*
X148247100Y-83662600D01*
X148755100Y-83662600D01*
G37*
G36*
X148755100Y-81122600D02*
G01*
X148755100Y-80614600D01*
X148247100Y-80614600D01*
X148247100Y-81122600D01*
X148755100Y-81122600D01*
G37*
G36*
X146215100Y-81122600D02*
G01*
X146215100Y-80614600D01*
X145707100Y-80614600D01*
X145707100Y-81122600D01*
X146215100Y-81122600D01*
G37*
G36*
X146215100Y-83662600D02*
G01*
X146215100Y-83154600D01*
X145707100Y-83154600D01*
X145707100Y-83662600D01*
X146215100Y-83662600D01*
G37*
%TO.C,JP3*%
G36*
X153835100Y-126842600D02*
G01*
X153835100Y-126334600D01*
X153327100Y-126334600D01*
X153327100Y-126842600D01*
X153835100Y-126842600D01*
G37*
G36*
X153835100Y-129382600D02*
G01*
X153835100Y-128874600D01*
X153327100Y-128874600D01*
X153327100Y-129382600D01*
X153835100Y-129382600D01*
G37*
G36*
X156375100Y-129382600D02*
G01*
X156375100Y-128874600D01*
X155867100Y-128874600D01*
X155867100Y-129382600D01*
X156375100Y-129382600D01*
G37*
G36*
X156375100Y-126842600D02*
G01*
X156375100Y-126334600D01*
X155867100Y-126334600D01*
X155867100Y-126842600D01*
X156375100Y-126842600D01*
G37*
G36*
X151295100Y-126842600D02*
G01*
X151295100Y-126334600D01*
X150787100Y-126334600D01*
X150787100Y-126842600D01*
X151295100Y-126842600D01*
G37*
G36*
X148755100Y-129382600D02*
G01*
X148755100Y-128874600D01*
X148247100Y-128874600D01*
X148247100Y-129382600D01*
X148755100Y-129382600D01*
G37*
G36*
X148755100Y-126842600D02*
G01*
X148755100Y-126334600D01*
X148247100Y-126334600D01*
X148247100Y-126842600D01*
X148755100Y-126842600D01*
G37*
G36*
X146215100Y-126842600D02*
G01*
X146215100Y-126334600D01*
X145707100Y-126334600D01*
X145707100Y-126842600D01*
X146215100Y-126842600D01*
G37*
G36*
X146215100Y-129382600D02*
G01*
X146215100Y-128874600D01*
X145707100Y-128874600D01*
X145707100Y-129382600D01*
X146215100Y-129382600D01*
G37*
%TO.C,J5*%
G36*
X150791100Y-87968600D02*
G01*
X149521100Y-87968600D01*
X149521100Y-95588600D01*
X150791100Y-95588600D01*
X150791100Y-87968600D01*
G37*
D11*
X151426100Y-87968600D02*
X138294100Y-87968600D01*
X152696100Y-89238600D02*
X151426100Y-87968600D01*
X153966100Y-87968600D02*
X152696100Y-89238600D01*
X157776100Y-91778600D02*
X153966100Y-87968600D01*
X153966100Y-95588600D02*
X157776100Y-91778600D01*
X152696100Y-94318600D02*
X153966100Y-95588600D01*
X151426100Y-95588600D02*
X152696100Y-94318600D01*
X138294100Y-95588600D02*
X151426100Y-95588600D01*
D12*
%TO.C,R1*%
X142786100Y-116428600D02*
X142786100Y-117317600D01*
X142786100Y-124048600D02*
X142786100Y-123159600D01*
D13*
%TO.C,C1*%
X140246100Y-117317600D02*
X140246100Y-116936600D01*
X140246100Y-118460600D02*
X140246100Y-118079600D01*
D12*
%TO.C,R2*%
X145326100Y-116428600D02*
X145326100Y-117317600D01*
X145326100Y-124048600D02*
X145326100Y-123159600D01*
D10*
%TO.C,JP2*%
G36*
X151422100Y-119984600D02*
G01*
X151422100Y-120492600D01*
X151930100Y-120492600D01*
X151930100Y-119984600D01*
X151422100Y-119984600D01*
G37*
G36*
X151422100Y-122524600D02*
G01*
X151422100Y-123032600D01*
X151930100Y-123032600D01*
X151930100Y-122524600D01*
X151422100Y-122524600D01*
G37*
%TO.C,JP4*%
G36*
X151930100Y-114142600D02*
G01*
X151930100Y-113634600D01*
X151422100Y-113634600D01*
X151422100Y-114142600D01*
X151930100Y-114142600D01*
G37*
G36*
X151930100Y-111602600D02*
G01*
X151930100Y-111094600D01*
X151422100Y-111094600D01*
X151422100Y-111602600D01*
X151930100Y-111602600D01*
G37*
G36*
X151930100Y-109062600D02*
G01*
X151930100Y-108554600D01*
X151422100Y-108554600D01*
X151422100Y-109062600D01*
X151930100Y-109062600D01*
G37*
D13*
%TO.C,C2*%
X147866100Y-118079600D02*
X147866100Y-118460600D01*
X147866100Y-116936600D02*
X147866100Y-117317600D01*
%TO.C,C3*%
X141135100Y-103728600D02*
X140754100Y-103728600D01*
X142278100Y-103728600D02*
X141897100Y-103728600D01*
%TD*%
%TO.C,IC1*%
D14*
X140693427Y-109449647D02*
X141382855Y-109449647D01*
X141038141Y-110656147D02*
X141038141Y-109449647D01*
X142359546Y-110656147D02*
X141785022Y-110656147D01*
X141785022Y-109449647D01*
X142991522Y-109449647D02*
X143106427Y-109449647D01*
X143221332Y-109507100D01*
X143278784Y-109564552D01*
X143336236Y-109679457D01*
X143393689Y-109909266D01*
X143393689Y-110196528D01*
X143336236Y-110426338D01*
X143278784Y-110541242D01*
X143221332Y-110598695D01*
X143106427Y-110656147D01*
X142991522Y-110656147D01*
X142876617Y-110598695D01*
X142819165Y-110541242D01*
X142761712Y-110426338D01*
X142704260Y-110196528D01*
X142704260Y-109909266D01*
X142761712Y-109679457D01*
X142819165Y-109564552D01*
X142876617Y-109507100D01*
X142991522Y-109449647D01*
X143795855Y-109449647D02*
X144600189Y-109449647D01*
X144083117Y-110656147D01*
X145002355Y-109564552D02*
X145059808Y-109507100D01*
X145174712Y-109449647D01*
X145461974Y-109449647D01*
X145576879Y-109507100D01*
X145634332Y-109564552D01*
X145691784Y-109679457D01*
X145691784Y-109794361D01*
X145634332Y-109966719D01*
X144944903Y-110656147D01*
X145691784Y-110656147D01*
X146208855Y-110656147D02*
X146208855Y-109449647D01*
X146668474Y-109449647D01*
X146783379Y-109507100D01*
X146840832Y-109564552D01*
X146898284Y-109679457D01*
X146898284Y-109851814D01*
X146840832Y-109966719D01*
X146783379Y-110024171D01*
X146668474Y-110081623D01*
X146208855Y-110081623D01*
%TO.C,R1*%
D15*
X143223887Y-121086024D02*
X143223887Y-121623779D01*
X143223887Y-121354901D02*
X142282817Y-121354901D01*
X142417255Y-121444527D01*
X142506881Y-121534153D01*
X142551694Y-121623779D01*
X142282817Y-120503457D02*
X142282817Y-120413831D01*
X142327630Y-120324206D01*
X142372442Y-120279393D01*
X142462068Y-120234580D01*
X142641320Y-120189767D01*
X142865384Y-120189767D01*
X143044635Y-120234580D01*
X143134261Y-120279393D01*
X143179074Y-120324206D01*
X143223887Y-120413831D01*
X143223887Y-120503457D01*
X143179074Y-120593083D01*
X143134261Y-120637896D01*
X143044635Y-120682709D01*
X142865384Y-120727521D01*
X142641320Y-120727521D01*
X142462068Y-120682709D01*
X142372442Y-120637896D01*
X142327630Y-120593083D01*
X142282817Y-120503457D01*
X142282817Y-119607200D02*
X142282817Y-119517574D01*
X142327630Y-119427949D01*
X142372442Y-119383136D01*
X142462068Y-119338323D01*
X142641320Y-119293510D01*
X142865384Y-119293510D01*
X143044635Y-119338323D01*
X143134261Y-119383136D01*
X143179074Y-119427949D01*
X143223887Y-119517574D01*
X143223887Y-119607200D01*
X143179074Y-119696826D01*
X143134261Y-119741639D01*
X143044635Y-119786451D01*
X142865384Y-119831264D01*
X142641320Y-119831264D01*
X142462068Y-119786451D01*
X142372442Y-119741639D01*
X142327630Y-119696826D01*
X142282817Y-119607200D01*
X143223887Y-118890194D02*
X142282817Y-118890194D01*
X142865384Y-118800569D02*
X143223887Y-118531691D01*
X142596507Y-118531691D02*
X142955010Y-118890194D01*
%TO.C,C1*%
D16*
X141434709Y-120928633D02*
X141466883Y-120896460D01*
X141531229Y-120864286D01*
X141692096Y-120864286D01*
X141756443Y-120896460D01*
X141788616Y-120928633D01*
X141820789Y-120992980D01*
X141820789Y-121057326D01*
X141788616Y-121153846D01*
X141402536Y-121539926D01*
X141820789Y-121539926D01*
X142078176Y-120928633D02*
X142110349Y-120896460D01*
X142174696Y-120864286D01*
X142335563Y-120864286D01*
X142399909Y-120896460D01*
X142432083Y-120928633D01*
X142464256Y-120992980D01*
X142464256Y-121057326D01*
X142432083Y-121153846D01*
X142046003Y-121539926D01*
X142464256Y-121539926D01*
X142753816Y-121089500D02*
X142753816Y-121765140D01*
X142753816Y-121121673D02*
X142818163Y-121089500D01*
X142946856Y-121089500D01*
X143011203Y-121121673D01*
X143043376Y-121153846D01*
X143075549Y-121218193D01*
X143075549Y-121411233D01*
X143043376Y-121475580D01*
X143011203Y-121507753D01*
X142946856Y-121539926D01*
X142818163Y-121539926D01*
X142753816Y-121507753D01*
%TO.C,R2*%
D15*
X145763887Y-121086024D02*
X145763887Y-121623779D01*
X145763887Y-121354901D02*
X144822817Y-121354901D01*
X144957255Y-121444527D01*
X145046881Y-121534153D01*
X145091694Y-121623779D01*
X144822817Y-120503457D02*
X144822817Y-120413831D01*
X144867630Y-120324206D01*
X144912442Y-120279393D01*
X145002068Y-120234580D01*
X145181320Y-120189767D01*
X145405384Y-120189767D01*
X145584635Y-120234580D01*
X145674261Y-120279393D01*
X145719074Y-120324206D01*
X145763887Y-120413831D01*
X145763887Y-120503457D01*
X145719074Y-120593083D01*
X145674261Y-120637896D01*
X145584635Y-120682709D01*
X145405384Y-120727521D01*
X145181320Y-120727521D01*
X145002068Y-120682709D01*
X144912442Y-120637896D01*
X144867630Y-120593083D01*
X144822817Y-120503457D01*
X144822817Y-119607200D02*
X144822817Y-119517574D01*
X144867630Y-119427949D01*
X144912442Y-119383136D01*
X145002068Y-119338323D01*
X145181320Y-119293510D01*
X145405384Y-119293510D01*
X145584635Y-119338323D01*
X145674261Y-119383136D01*
X145719074Y-119427949D01*
X145763887Y-119517574D01*
X145763887Y-119607200D01*
X145719074Y-119696826D01*
X145674261Y-119741639D01*
X145584635Y-119786451D01*
X145405384Y-119831264D01*
X145181320Y-119831264D01*
X145002068Y-119786451D01*
X144912442Y-119741639D01*
X144867630Y-119696826D01*
X144822817Y-119607200D01*
X145763887Y-118890194D02*
X144822817Y-118890194D01*
X145405384Y-118800569D02*
X145763887Y-118531691D01*
X145136507Y-118531691D02*
X145495010Y-118890194D01*
%TO.C,JP2*%
D17*
X148443647Y-118618600D02*
X147237147Y-118618600D01*
X148098933Y-118216433D01*
X147237147Y-117814266D01*
X148443647Y-117814266D01*
X147237147Y-117009933D02*
X147237147Y-116895028D01*
X147294600Y-116780123D01*
X147352052Y-116722671D01*
X147466957Y-116665219D01*
X147696766Y-116607766D01*
X147984028Y-116607766D01*
X148213838Y-116665219D01*
X148328742Y-116722671D01*
X148386195Y-116780123D01*
X148443647Y-116895028D01*
X148443647Y-117009933D01*
X148386195Y-117124838D01*
X148328742Y-117182290D01*
X148213838Y-117239742D01*
X147984028Y-117297195D01*
X147696766Y-117297195D01*
X147466957Y-117239742D01*
X147352052Y-117182290D01*
X147294600Y-117124838D01*
X147237147Y-117009933D01*
X147352052Y-116148147D02*
X147294600Y-116090695D01*
X147237147Y-115975790D01*
X147237147Y-115688528D01*
X147294600Y-115573623D01*
X147352052Y-115516171D01*
X147466957Y-115458719D01*
X147581861Y-115458719D01*
X147754219Y-115516171D01*
X148443647Y-116205600D01*
X148443647Y-115458719D01*
X148443647Y-114941647D02*
X147237147Y-114941647D01*
X147237147Y-114482028D01*
X147294600Y-114367123D01*
X147352052Y-114309671D01*
X147466957Y-114252219D01*
X147639314Y-114252219D01*
X147754219Y-114309671D01*
X147811671Y-114367123D01*
X147869123Y-114482028D01*
X147869123Y-114941647D01*
X147237147Y-113907504D02*
X147237147Y-113218076D01*
X148443647Y-113562790D02*
X147237147Y-113562790D01*
X148443647Y-112815909D02*
X147237147Y-112815909D01*
X147811671Y-112815909D02*
X147811671Y-112126481D01*
X148443647Y-112126481D02*
X147237147Y-112126481D01*
%TO.C,JP4*%
X154793647Y-114808600D02*
X153587147Y-114808600D01*
X154448933Y-114406433D01*
X153587147Y-114004266D01*
X154793647Y-114004266D01*
X153587147Y-113199933D02*
X153587147Y-113085028D01*
X153644600Y-112970123D01*
X153702052Y-112912671D01*
X153816957Y-112855219D01*
X154046766Y-112797766D01*
X154334028Y-112797766D01*
X154563838Y-112855219D01*
X154678742Y-112912671D01*
X154736195Y-112970123D01*
X154793647Y-113085028D01*
X154793647Y-113199933D01*
X154736195Y-113314838D01*
X154678742Y-113372290D01*
X154563838Y-113429742D01*
X154334028Y-113487195D01*
X154046766Y-113487195D01*
X153816957Y-113429742D01*
X153702052Y-113372290D01*
X153644600Y-113314838D01*
X153587147Y-113199933D01*
X153587147Y-112395600D02*
X153587147Y-111648719D01*
X154046766Y-112050885D01*
X154046766Y-111878528D01*
X154104219Y-111763623D01*
X154161671Y-111706171D01*
X154276576Y-111648719D01*
X154563838Y-111648719D01*
X154678742Y-111706171D01*
X154736195Y-111763623D01*
X154793647Y-111878528D01*
X154793647Y-112223242D01*
X154736195Y-112338147D01*
X154678742Y-112395600D01*
X154793647Y-111131647D02*
X153587147Y-111131647D01*
X153587147Y-110672028D01*
X153644600Y-110557123D01*
X153702052Y-110499671D01*
X153816957Y-110442219D01*
X153989314Y-110442219D01*
X154104219Y-110499671D01*
X154161671Y-110557123D01*
X154219123Y-110672028D01*
X154219123Y-111131647D01*
X153587147Y-110097504D02*
X153587147Y-109408076D01*
X154793647Y-109752790D02*
X153587147Y-109752790D01*
X154793647Y-109005909D02*
X153587147Y-109005909D01*
X154161671Y-109005909D02*
X154161671Y-108316481D01*
X154793647Y-108316481D02*
X153587147Y-108316481D01*
%TO.C,C2*%
D16*
X149758289Y-121539926D02*
X149372209Y-121539926D01*
X149565249Y-121539926D02*
X149565249Y-120864286D01*
X149500903Y-120960806D01*
X149436556Y-121025153D01*
X149372209Y-121057326D01*
X150176543Y-120864286D02*
X150240889Y-120864286D01*
X150305236Y-120896460D01*
X150337409Y-120928633D01*
X150369583Y-120992980D01*
X150401756Y-121121673D01*
X150401756Y-121282540D01*
X150369583Y-121411233D01*
X150337409Y-121475580D01*
X150305236Y-121507753D01*
X150240889Y-121539926D01*
X150176543Y-121539926D01*
X150112196Y-121507753D01*
X150080023Y-121475580D01*
X150047849Y-121411233D01*
X150015676Y-121282540D01*
X150015676Y-121121673D01*
X150047849Y-120992980D01*
X150080023Y-120928633D01*
X150112196Y-120896460D01*
X150176543Y-120864286D01*
X150820009Y-120864286D02*
X150884356Y-120864286D01*
X150948703Y-120896460D01*
X150980876Y-120928633D01*
X151013049Y-120992980D01*
X151045223Y-121121673D01*
X151045223Y-121282540D01*
X151013049Y-121411233D01*
X150980876Y-121475580D01*
X150948703Y-121507753D01*
X150884356Y-121539926D01*
X150820009Y-121539926D01*
X150755663Y-121507753D01*
X150723489Y-121475580D01*
X150691316Y-121411233D01*
X150659143Y-121282540D01*
X150659143Y-121121673D01*
X150691316Y-120992980D01*
X150723489Y-120928633D01*
X150755663Y-120896460D01*
X150820009Y-120864286D01*
X151334783Y-121089500D02*
X151334783Y-121539926D01*
X151334783Y-121153846D02*
X151366956Y-121121673D01*
X151431303Y-121089500D01*
X151527823Y-121089500D01*
X151592169Y-121121673D01*
X151624343Y-121186020D01*
X151624343Y-121539926D01*
%TO.C,C3*%
X144087426Y-101899910D02*
X144087426Y-102285990D01*
X144087426Y-102092950D02*
X143411786Y-102092950D01*
X143508306Y-102157296D01*
X143572653Y-102221643D01*
X143604826Y-102285990D01*
X143411786Y-101481656D02*
X143411786Y-101417310D01*
X143443960Y-101352963D01*
X143476133Y-101320790D01*
X143540480Y-101288616D01*
X143669173Y-101256443D01*
X143830040Y-101256443D01*
X143958733Y-101288616D01*
X144023080Y-101320790D01*
X144055253Y-101352963D01*
X144087426Y-101417310D01*
X144087426Y-101481656D01*
X144055253Y-101546003D01*
X144023080Y-101578176D01*
X143958733Y-101610350D01*
X143830040Y-101642523D01*
X143669173Y-101642523D01*
X143540480Y-101610350D01*
X143476133Y-101578176D01*
X143443960Y-101546003D01*
X143411786Y-101481656D01*
X143411786Y-100838190D02*
X143411786Y-100773843D01*
X143443960Y-100709496D01*
X143476133Y-100677323D01*
X143540480Y-100645150D01*
X143669173Y-100612976D01*
X143830040Y-100612976D01*
X143958733Y-100645150D01*
X144023080Y-100677323D01*
X144055253Y-100709496D01*
X144087426Y-100773843D01*
X144087426Y-100838190D01*
X144055253Y-100902536D01*
X144023080Y-100934710D01*
X143958733Y-100966883D01*
X143830040Y-100999056D01*
X143669173Y-100999056D01*
X143540480Y-100966883D01*
X143476133Y-100934710D01*
X143443960Y-100902536D01*
X143411786Y-100838190D01*
X143637000Y-100323416D02*
X144087426Y-100323416D01*
X143701346Y-100323416D02*
X143669173Y-100291243D01*
X143637000Y-100226896D01*
X143637000Y-100130376D01*
X143669173Y-100066030D01*
X143733520Y-100033856D01*
X144087426Y-100033856D01*
%TD*%
M02*
