M48
; DRILL file {KiCad (5.1.5)-3} date 3/15/2020 4:25:51 PM
; FORMAT={-:-/ absolute / inch / decimal}
; #@! TF.CreationDate,2020-03-15T16:25:51-07:00
; #@! TF.GenerationSoftware,Kicad,Pcbnew,(5.1.5)-3
; #@! TF.FileFunction,Plated,1,2,PTH
FMAT,2
INCH
T1C0.0320
T2C0.0400
T3C0.0551
T4C0.0630
%
G90
G05
T1
X5.5215Y-4.1838
X5.7215Y-4.4838
X5.8215Y-4.4838
X5.5215Y-4.0838
X5.7215Y-4.5838
X5.7215Y-4.8838
X5.8215Y-4.5838
X5.8215Y-4.6838
X5.5215Y-4.5838
X5.5215Y-4.6838
X5.6215Y-4.5838
X5.6215Y-4.8838
X5.5215Y-4.4838
X5.6215Y-4.1838
X5.6215Y-4.4838
X5.7215Y-4.1838
X5.8215Y-4.1838
X5.6215Y-4.0838
T2
X5.9715Y-4.2838
X5.9715Y-4.3838
X5.9715Y-4.4838
X5.9715Y-4.7338
X5.9715Y-4.8338
X5.7465Y-3.1838
X5.7465Y-3.2838
X5.8465Y-3.1838
X5.8465Y-3.2838
X5.9465Y-3.1838
X5.9465Y-3.2838
X6.0465Y-3.1838
X6.0465Y-3.2838
X6.1465Y-3.1838
X6.1465Y-3.2838
X5.7465Y-4.9838
X5.7465Y-5.0838
X5.8465Y-4.9838
X5.8465Y-5.0838
X5.9465Y-4.9838
X5.9465Y-5.0838
X6.0465Y-4.9838
X6.0465Y-5.0838
X6.1465Y-4.9838
X6.1465Y-5.0838
T3
X5.5965Y-3.4484
T4
X5.5965Y-3.8984
X6.0965Y-3.4484
X6.0965Y-3.8984
T0
M30
