G04 #@! TF.GenerationSoftware,KiCad,Pcbnew,(5.1.5)-3*
G04 #@! TF.CreationDate,2020-03-15T16:25:45-07:00*
G04 #@! TF.ProjectId,bbf-audio_out_v1,6262662d-6175-4646-996f-5f6f75745f76,rev?*
G04 #@! TF.SameCoordinates,Original*
G04 #@! TF.FileFunction,Copper,L1,Top*
G04 #@! TF.FilePolarity,Positive*
%FSLAX46Y46*%
G04 Gerber Fmt 4.6, Leading zero omitted, Abs format (unit mm)*
G04 Created by KiCad (PCBNEW (5.1.5)-3) date 2020-03-15 16:25:45*
%MOMM*%
%LPD*%
G04 APERTURE LIST*
G04 #@! TA.AperFunction,ComponentPad*
%ADD10C,1.879600*%
G04 #@! TD*
G04 #@! TA.AperFunction,ComponentPad*
%ADD11C,2.400000*%
G04 #@! TD*
G04 #@! TA.AperFunction,ComponentPad*
%ADD12C,2.100000*%
G04 #@! TD*
G04 #@! TA.AperFunction,ComponentPad*
%ADD13C,1.270000*%
G04 #@! TD*
G04 #@! TA.AperFunction,ComponentPad*
%ADD14C,1.422400*%
G04 #@! TD*
G04 #@! TA.AperFunction,Conductor*
%ADD15C,0.406400*%
G04 #@! TD*
G04 #@! TA.AperFunction,Conductor*
%ADD16C,0.254000*%
G04 #@! TD*
G04 #@! TA.AperFunction,Conductor*
%ADD17C,0.304800*%
G04 #@! TD*
G04 APERTURE END LIST*
D10*
G04 #@! TO.P,JP1,10*
G04 #@! TO.N,VCC*
X156121100Y-80868600D03*
G04 #@! TO.P,JP1,9*
G04 #@! TO.N,GND*
X156121100Y-83408600D03*
G04 #@! TO.P,JP1,8*
G04 #@! TO.N,VCC*
X153581100Y-80868600D03*
G04 #@! TO.P,JP1,7*
G04 #@! TO.N,GND*
X153581100Y-83408600D03*
G04 #@! TO.P,JP1,6*
G04 #@! TO.N,VCC*
X151041100Y-80868600D03*
G04 #@! TO.P,JP1,5*
G04 #@! TO.N,GND*
X151041100Y-83408600D03*
G04 #@! TO.P,JP1,4*
G04 #@! TO.N,VCC*
X148501100Y-80868600D03*
G04 #@! TO.P,JP1,3*
G04 #@! TO.N,GND*
X148501100Y-83408600D03*
G04 #@! TO.P,JP1,2*
G04 #@! TO.N,VCC*
X145961100Y-80868600D03*
G04 #@! TO.P,JP1,1*
G04 #@! TO.N,GND*
X145961100Y-83408600D03*
G04 #@! TD*
G04 #@! TO.P,JP3,10*
G04 #@! TO.N,GND*
X156121100Y-126588600D03*
G04 #@! TO.P,JP3,9*
G04 #@! TO.N,VEE*
X156121100Y-129128600D03*
G04 #@! TO.P,JP3,8*
G04 #@! TO.N,GND*
X153581100Y-126588600D03*
G04 #@! TO.P,JP3,7*
G04 #@! TO.N,VEE*
X153581100Y-129128600D03*
G04 #@! TO.P,JP3,6*
G04 #@! TO.N,GND*
X151041100Y-126588600D03*
G04 #@! TO.P,JP3,5*
G04 #@! TO.N,VEE*
X151041100Y-129128600D03*
G04 #@! TO.P,JP3,4*
G04 #@! TO.N,GND*
X148501100Y-126588600D03*
G04 #@! TO.P,JP3,3*
G04 #@! TO.N,VEE*
X148501100Y-129128600D03*
G04 #@! TO.P,JP3,2*
G04 #@! TO.N,GND*
X145961100Y-126588600D03*
G04 #@! TO.P,JP3,1*
G04 #@! TO.N,VEE*
X145961100Y-129128600D03*
G04 #@! TD*
D11*
G04 #@! TO.P,J5,S*
G04 #@! TO.N,GND*
X142151100Y-99020600D03*
G04 #@! TO.P,J5,T*
G04 #@! TO.N,Net-(J5-PadT)*
X154851100Y-99020600D03*
G04 #@! TO.P,J5,TN*
G04 #@! TO.N,Net-(J5-PadTN)*
X154851100Y-87590600D03*
D12*
G04 #@! TO.P,J5,SN*
G04 #@! TO.N,GND*
X142151100Y-87590600D03*
G04 #@! TD*
D13*
G04 #@! TO.P,IC1,5*
G04 #@! TO.N,Net-(IC1-Pad5)*
X147866100Y-106268600D03*
G04 #@! TO.P,IC1,6*
G04 #@! TO.N,Net-(IC1-Pad6)*
X145326100Y-106268600D03*
G04 #@! TO.P,IC1,4*
G04 #@! TO.N,VEE*
X147866100Y-113888600D03*
G04 #@! TO.P,IC1,3*
G04 #@! TO.N,GND*
X145326100Y-113888600D03*
G04 #@! TO.P,IC1,8*
G04 #@! TO.N,VCC*
X140246100Y-106268600D03*
G04 #@! TO.P,IC1,7*
G04 #@! TO.N,Net-(IC1-Pad6)*
X142786100Y-106268600D03*
G04 #@! TO.P,IC1,2*
G04 #@! TO.N,Net-(C1-Pad1)*
X142786100Y-113888600D03*
G04 #@! TO.P,IC1,1*
G04 #@! TO.N,Net-(C1-Pad2)*
X140246100Y-113888600D03*
G04 #@! TD*
D14*
G04 #@! TO.P,R1,2*
G04 #@! TO.N,Net-(C1-Pad2)*
X142786100Y-124048600D03*
G04 #@! TO.P,R1,1*
G04 #@! TO.N,Net-(C1-Pad1)*
X142786100Y-116428600D03*
G04 #@! TD*
G04 #@! TO.P,C1,2*
G04 #@! TO.N,Net-(C1-Pad2)*
X140246100Y-118968600D03*
G04 #@! TO.P,C1,1*
G04 #@! TO.N,Net-(C1-Pad1)*
X140246100Y-116428600D03*
G04 #@! TD*
G04 #@! TO.P,R2,2*
G04 #@! TO.N,Net-(C1-Pad1)*
X145326100Y-124048600D03*
G04 #@! TO.P,R2,1*
G04 #@! TO.N,Net-(IC1-Pad5)*
X145326100Y-116428600D03*
G04 #@! TD*
D10*
G04 #@! TO.P,JP2,2*
G04 #@! TO.N,Net-(C1-Pad1)*
X151676100Y-122778600D03*
G04 #@! TO.P,JP2,1*
G04 #@! TO.N,Net-(IC1-Pad5)*
X151676100Y-120238600D03*
G04 #@! TD*
G04 #@! TO.P,JP4,3*
G04 #@! TO.N,Net-(IC1-Pad6)*
X151676100Y-108808600D03*
G04 #@! TO.P,JP4,2*
G04 #@! TO.N,Net-(J5-PadT)*
X151676100Y-111348600D03*
G04 #@! TO.P,JP4,1*
G04 #@! TO.N,Net-(C1-Pad2)*
X151676100Y-113888600D03*
G04 #@! TD*
D14*
G04 #@! TO.P,C2,2*
G04 #@! TO.N,VEE*
X147866100Y-116428600D03*
G04 #@! TO.P,C2,1*
G04 #@! TO.N,GND*
X147866100Y-118968600D03*
G04 #@! TD*
G04 #@! TO.P,C3,2*
G04 #@! TO.N,GND*
X142786100Y-103728600D03*
G04 #@! TO.P,C3,1*
G04 #@! TO.N,VCC*
X140246100Y-103728600D03*
G04 #@! TD*
D15*
G04 #@! TO.N,VCC*
X145961100Y-80868600D02*
X148501100Y-80868600D01*
X148501100Y-80868600D02*
X151041100Y-80868600D01*
X151041100Y-80868600D02*
X153581100Y-80868600D01*
X153581100Y-80868600D02*
X156121100Y-80868600D01*
X140246100Y-106268600D02*
X140246100Y-103728600D01*
X140246100Y-103728600D02*
X140246100Y-103093600D01*
X140246100Y-103093600D02*
X141516100Y-101823600D01*
X141516100Y-101823600D02*
X146596100Y-101823600D01*
X146596100Y-101823600D02*
X148501100Y-99918600D01*
X148501100Y-99918600D02*
X148501100Y-87218600D01*
X148501100Y-87218600D02*
X146596100Y-85313600D01*
X146596100Y-85313600D02*
X144691100Y-85313600D01*
X144691100Y-85313600D02*
X144056100Y-84678600D01*
X144056100Y-84678600D02*
X144056100Y-81503600D01*
X144056100Y-81503600D02*
X144691100Y-80868600D01*
X144691100Y-80868600D02*
X145961100Y-80868600D01*
G04 #@! TO.N,VEE*
X145961100Y-129128600D02*
X148501100Y-129128600D01*
X148501100Y-129128600D02*
X151041100Y-129128600D01*
X151041100Y-129128600D02*
X153581100Y-129128600D01*
X153581100Y-129128600D02*
X156121100Y-129128600D01*
X147866100Y-116428600D02*
X147866100Y-113888600D01*
X151676100Y-116428600D02*
X147866100Y-116428600D01*
X152311100Y-116428600D02*
X151676100Y-116428600D01*
X157391100Y-129128600D02*
X158026100Y-128493600D01*
X156121100Y-129128600D02*
X157391100Y-129128600D01*
X158026100Y-128493600D02*
X158026100Y-121508600D01*
X158026100Y-121508600D02*
X152946100Y-116428600D01*
X152946100Y-116428600D02*
X152311100Y-116428600D01*
D16*
G04 #@! TO.N,Net-(J5-PadT)*
X151676100Y-111348600D02*
X152946100Y-111348600D01*
X152946100Y-111348600D02*
X154851100Y-109443600D01*
X154851100Y-109443600D02*
X154851100Y-99020600D01*
D17*
G04 #@! TO.N,Net-(IC1-Pad5)*
X145326100Y-118968600D02*
X145326100Y-116428600D01*
X145326100Y-118968600D02*
X146596100Y-120238600D01*
X146596100Y-120238600D02*
X151676100Y-120238600D01*
D16*
X145326100Y-116428600D02*
X145326100Y-115793600D01*
X145326100Y-115793600D02*
X146596100Y-114523600D01*
X146596100Y-114523600D02*
X146596100Y-109443600D01*
X146596100Y-109443600D02*
X147866100Y-108173600D01*
X147866100Y-108173600D02*
X147866100Y-106268600D01*
D17*
G04 #@! TO.N,Net-(IC1-Pad6)*
X142786100Y-106268600D02*
X145326100Y-106268600D01*
X145326100Y-106268600D02*
X145326100Y-104998600D01*
X145326100Y-104998600D02*
X146596100Y-103728600D01*
X146596100Y-103728600D02*
X149136100Y-103728600D01*
X149136100Y-103728600D02*
X151676100Y-106268600D01*
X151676100Y-106268600D02*
X151676100Y-108808600D01*
G04 #@! TO.N,Net-(C1-Pad1)*
X142786100Y-116428600D02*
X140246100Y-116428600D01*
X142786100Y-116428600D02*
X142786100Y-113888600D01*
X142786100Y-120238600D02*
X142786100Y-116428600D01*
X145326100Y-122778600D02*
X142786100Y-120238600D01*
X145326100Y-124048600D02*
X145326100Y-122778600D01*
X145326100Y-122778600D02*
X151676100Y-122778600D01*
G04 #@! TO.N,Net-(C1-Pad2)*
X140246100Y-118968600D02*
X138976100Y-117698600D01*
X138976100Y-117698600D02*
X138976100Y-115158600D01*
X138976100Y-115158600D02*
X140246100Y-113888600D01*
X142786100Y-122778600D02*
X140246100Y-120238600D01*
X140246100Y-120238600D02*
X140246100Y-118968600D01*
X142786100Y-124048600D02*
X142786100Y-122778600D01*
X140246100Y-113888600D02*
X146596100Y-107538600D01*
X146596100Y-107538600D02*
X146596100Y-105633600D01*
X146596100Y-105633600D02*
X147231100Y-104998600D01*
X147231100Y-104998600D02*
X149136100Y-104998600D01*
X149136100Y-104998600D02*
X149771100Y-105633600D01*
X149771100Y-105633600D02*
X149771100Y-113253600D01*
X149771100Y-113253600D02*
X150406100Y-113888600D01*
X150406100Y-113888600D02*
X151676100Y-113888600D01*
G04 #@! TD*
M02*
