%TF.GenerationSoftware,KiCad,Pcbnew,(5.1.5)-3*%
%TF.CreationDate,2020-03-15T10:13:34-07:00*%
%TF.ProjectId,bbf-audio_out_v1,6262662d-6175-4646-996f-5f6f75745f76,rev?*%
%TF.SameCoordinates,Original*%
%TF.FileFunction,Copper,L2,Bot*%
%TF.FilePolarity,Positive*%
%FSLAX46Y46*%
G04 Gerber Fmt 4.6, Leading zero omitted, Abs format (unit mm)*
G04 Created by KiCad (PCBNEW (5.1.5)-3) date 2020-03-15 10:13:34*
%MOMM*%
%LPD*%
G04 APERTURE LIST*
%TA.AperFunction,ComponentPad*%
%ADD10C,1.879600*%
%TD*%
%TA.AperFunction,ComponentPad*%
%ADD11C,2.400000*%
%TD*%
%TA.AperFunction,ComponentPad*%
%ADD12C,2.100000*%
%TD*%
%TA.AperFunction,ComponentPad*%
%ADD13C,1.270000*%
%TD*%
%TA.AperFunction,ComponentPad*%
%ADD14C,1.422400*%
%TD*%
%TA.AperFunction,Conductor*%
%ADD15C,0.127000*%
%TD*%
G04 APERTURE END LIST*
D10*
%TO.P,JP1,10*%
%TO.N,VCC*%
X156121100Y-80868600D03*
%TO.P,JP1,9*%
%TO.N,GND*%
X156121100Y-83408600D03*
%TO.P,JP1,8*%
%TO.N,VCC*%
X153581100Y-80868600D03*
%TO.P,JP1,7*%
%TO.N,GND*%
X153581100Y-83408600D03*
%TO.P,JP1,6*%
%TO.N,VCC*%
X151041100Y-80868600D03*
%TO.P,JP1,5*%
%TO.N,GND*%
X151041100Y-83408600D03*
%TO.P,JP1,4*%
%TO.N,VCC*%
X148501100Y-80868600D03*
%TO.P,JP1,3*%
%TO.N,GND*%
X148501100Y-83408600D03*
%TO.P,JP1,2*%
%TO.N,VCC*%
X145961100Y-80868600D03*
%TO.P,JP1,1*%
%TO.N,GND*%
X145961100Y-83408600D03*
%TD*%
%TO.P,JP3,10*%
%TO.N,GND*%
X156121100Y-126588600D03*
%TO.P,JP3,9*%
%TO.N,VEE*%
X156121100Y-129128600D03*
%TO.P,JP3,8*%
%TO.N,GND*%
X153581100Y-126588600D03*
%TO.P,JP3,7*%
%TO.N,VEE*%
X153581100Y-129128600D03*
%TO.P,JP3,6*%
%TO.N,GND*%
X151041100Y-126588600D03*
%TO.P,JP3,5*%
%TO.N,VEE*%
X151041100Y-129128600D03*
%TO.P,JP3,4*%
%TO.N,GND*%
X148501100Y-126588600D03*
%TO.P,JP3,3*%
%TO.N,VEE*%
X148501100Y-129128600D03*
%TO.P,JP3,2*%
%TO.N,GND*%
X145961100Y-126588600D03*
%TO.P,JP3,1*%
%TO.N,VEE*%
X145961100Y-129128600D03*
%TD*%
D11*
%TO.P,J5,S*%
%TO.N,GND*%
X142151100Y-99020600D03*
%TO.P,J5,T*%
%TO.N,Net-(J5-PadT)*%
X154851100Y-99020600D03*
%TO.P,J5,TN*%
%TO.N,Net-(J5-PadTN)*%
X154851100Y-87590600D03*
D12*
%TO.P,J5,SN*%
%TO.N,GND*%
X142151100Y-87590600D03*
%TD*%
D13*
%TO.P,IC1,5*%
%TO.N,Net-(IC1-Pad5)*%
X147866100Y-106268600D03*
%TO.P,IC1,6*%
%TO.N,Net-(IC1-Pad6)*%
X145326100Y-106268600D03*
%TO.P,IC1,4*%
%TO.N,VEE*%
X147866100Y-113888600D03*
%TO.P,IC1,3*%
%TO.N,GND*%
X145326100Y-113888600D03*
%TO.P,IC1,8*%
%TO.N,VCC*%
X140246100Y-106268600D03*
%TO.P,IC1,7*%
%TO.N,Net-(IC1-Pad6)*%
X142786100Y-106268600D03*
%TO.P,IC1,2*%
%TO.N,Net-(C1-Pad1)*%
X142786100Y-113888600D03*
%TO.P,IC1,1*%
%TO.N,Net-(C1-Pad2)*%
X140246100Y-113888600D03*
%TD*%
D14*
%TO.P,R1,2*%
%TO.N,Net-(C1-Pad2)*%
X142786100Y-124048600D03*
%TO.P,R1,1*%
%TO.N,Net-(C1-Pad1)*%
X142786100Y-116428600D03*
%TD*%
%TO.P,C1,2*%
%TO.N,Net-(C1-Pad2)*%
X140246100Y-118968600D03*
%TO.P,C1,1*%
%TO.N,Net-(C1-Pad1)*%
X140246100Y-116428600D03*
%TD*%
%TO.P,R2,2*%
%TO.N,Net-(C1-Pad1)*%
X145326100Y-124048600D03*
%TO.P,R2,1*%
%TO.N,Net-(IC1-Pad5)*%
X145326100Y-116428600D03*
%TD*%
D10*
%TO.P,JP2,2*%
%TO.N,Net-(C1-Pad1)*%
X151676100Y-122778600D03*
%TO.P,JP2,1*%
%TO.N,Net-(IC1-Pad5)*%
X151676100Y-120238600D03*
%TD*%
%TO.P,JP4,3*%
%TO.N,Net-(IC1-Pad6)*%
X151676100Y-108808600D03*
%TO.P,JP4,2*%
%TO.N,Net-(J5-PadT)*%
X151676100Y-111348600D03*
%TO.P,JP4,1*%
%TO.N,Net-(C1-Pad2)*%
X151676100Y-113888600D03*
%TD*%
D14*
%TO.P,C2,2*%
%TO.N,VEE*%
X147866100Y-116428600D03*
%TO.P,C2,1*%
%TO.N,GND*%
X147866100Y-118968600D03*
%TD*%
%TO.P,C3,2*%
%TO.N,GND*%
X142786100Y-103728600D03*
%TO.P,C3,1*%
%TO.N,VCC*%
X140246100Y-103728600D03*
%TD*%
D15*
%TO.N,GND*%
G36*
X157751902Y-79096922D02*
G01*
X158089340Y-79198800D01*
X158400568Y-79364283D01*
X158673720Y-79587060D01*
X158898403Y-79858655D01*
X159066055Y-80168719D01*
X159170286Y-80505439D01*
X159207570Y-80860165D01*
X159207600Y-80868908D01*
X159207599Y-129124268D01*
X159172588Y-129481345D01*
X159070144Y-129820652D01*
X158903745Y-130133604D01*
X158679735Y-130408266D01*
X158406636Y-130634194D01*
X158094857Y-130802772D01*
X157756271Y-130907582D01*
X157399605Y-130945070D01*
X157391083Y-130945099D01*
X139718432Y-130945099D01*
X139341348Y-130908126D01*
X138982798Y-130799872D01*
X138652097Y-130624036D01*
X138361857Y-130387321D01*
X138123116Y-130098733D01*
X137944976Y-129769271D01*
X137834222Y-129411483D01*
X137794633Y-129034823D01*
X137794601Y-129025577D01*
X137794601Y-129010085D01*
X144757800Y-129010085D01*
X144757800Y-129247115D01*
X144804042Y-129479590D01*
X144894750Y-129698576D01*
X145026436Y-129895659D01*
X145194041Y-130063264D01*
X145391124Y-130194950D01*
X145610110Y-130285658D01*
X145842585Y-130331900D01*
X146079615Y-130331900D01*
X146312090Y-130285658D01*
X146531076Y-130194950D01*
X146728159Y-130063264D01*
X146895764Y-129895659D01*
X147027450Y-129698576D01*
X147118158Y-129479590D01*
X147164400Y-129247115D01*
X147164400Y-129010085D01*
X147297800Y-129010085D01*
X147297800Y-129247115D01*
X147344042Y-129479590D01*
X147434750Y-129698576D01*
X147566436Y-129895659D01*
X147734041Y-130063264D01*
X147931124Y-130194950D01*
X148150110Y-130285658D01*
X148382585Y-130331900D01*
X148619615Y-130331900D01*
X148852090Y-130285658D01*
X149071076Y-130194950D01*
X149268159Y-130063264D01*
X149435764Y-129895659D01*
X149567450Y-129698576D01*
X149658158Y-129479590D01*
X149704400Y-129247115D01*
X149704400Y-129010085D01*
X149837800Y-129010085D01*
X149837800Y-129247115D01*
X149884042Y-129479590D01*
X149974750Y-129698576D01*
X150106436Y-129895659D01*
X150274041Y-130063264D01*
X150471124Y-130194950D01*
X150690110Y-130285658D01*
X150922585Y-130331900D01*
X151159615Y-130331900D01*
X151392090Y-130285658D01*
X151611076Y-130194950D01*
X151808159Y-130063264D01*
X151975764Y-129895659D01*
X152107450Y-129698576D01*
X152198158Y-129479590D01*
X152244400Y-129247115D01*
X152244400Y-129010085D01*
X152377800Y-129010085D01*
X152377800Y-129247115D01*
X152424042Y-129479590D01*
X152514750Y-129698576D01*
X152646436Y-129895659D01*
X152814041Y-130063264D01*
X153011124Y-130194950D01*
X153230110Y-130285658D01*
X153462585Y-130331900D01*
X153699615Y-130331900D01*
X153932090Y-130285658D01*
X154151076Y-130194950D01*
X154348159Y-130063264D01*
X154515764Y-129895659D01*
X154647450Y-129698576D01*
X154738158Y-129479590D01*
X154784400Y-129247115D01*
X154784400Y-129010085D01*
X154917800Y-129010085D01*
X154917800Y-129247115D01*
X154964042Y-129479590D01*
X155054750Y-129698576D01*
X155186436Y-129895659D01*
X155354041Y-130063264D01*
X155551124Y-130194950D01*
X155770110Y-130285658D01*
X156002585Y-130331900D01*
X156239615Y-130331900D01*
X156472090Y-130285658D01*
X156691076Y-130194950D01*
X156888159Y-130063264D01*
X157055764Y-129895659D01*
X157187450Y-129698576D01*
X157278158Y-129479590D01*
X157324400Y-129247115D01*
X157324400Y-129010085D01*
X157278158Y-128777610D01*
X157187450Y-128558624D01*
X157055764Y-128361541D01*
X156888159Y-128193936D01*
X156691076Y-128062250D01*
X156472090Y-127971542D01*
X156239615Y-127925300D01*
X156002585Y-127925300D01*
X155770110Y-127971542D01*
X155551124Y-128062250D01*
X155354041Y-128193936D01*
X155186436Y-128361541D01*
X155054750Y-128558624D01*
X154964042Y-128777610D01*
X154917800Y-129010085D01*
X154784400Y-129010085D01*
X154738158Y-128777610D01*
X154647450Y-128558624D01*
X154515764Y-128361541D01*
X154348159Y-128193936D01*
X154151076Y-128062250D01*
X153932090Y-127971542D01*
X153699615Y-127925300D01*
X153462585Y-127925300D01*
X153230110Y-127971542D01*
X153011124Y-128062250D01*
X152814041Y-128193936D01*
X152646436Y-128361541D01*
X152514750Y-128558624D01*
X152424042Y-128777610D01*
X152377800Y-129010085D01*
X152244400Y-129010085D01*
X152198158Y-128777610D01*
X152107450Y-128558624D01*
X151975764Y-128361541D01*
X151808159Y-128193936D01*
X151611076Y-128062250D01*
X151392090Y-127971542D01*
X151159615Y-127925300D01*
X150922585Y-127925300D01*
X150690110Y-127971542D01*
X150471124Y-128062250D01*
X150274041Y-128193936D01*
X150106436Y-128361541D01*
X149974750Y-128558624D01*
X149884042Y-128777610D01*
X149837800Y-129010085D01*
X149704400Y-129010085D01*
X149658158Y-128777610D01*
X149567450Y-128558624D01*
X149435764Y-128361541D01*
X149268159Y-128193936D01*
X149071076Y-128062250D01*
X148852090Y-127971542D01*
X148619615Y-127925300D01*
X148382585Y-127925300D01*
X148150110Y-127971542D01*
X147931124Y-128062250D01*
X147734041Y-128193936D01*
X147566436Y-128361541D01*
X147434750Y-128558624D01*
X147344042Y-128777610D01*
X147297800Y-129010085D01*
X147164400Y-129010085D01*
X147118158Y-128777610D01*
X147027450Y-128558624D01*
X146895764Y-128361541D01*
X146728159Y-128193936D01*
X146531076Y-128062250D01*
X146312090Y-127971542D01*
X146079615Y-127925300D01*
X145842585Y-127925300D01*
X145610110Y-127971542D01*
X145391124Y-128062250D01*
X145194041Y-128193936D01*
X145026436Y-128361541D01*
X144894750Y-128558624D01*
X144804042Y-128777610D01*
X144757800Y-129010085D01*
X137794601Y-129010085D01*
X137794601Y-127512817D01*
X145162041Y-127512817D01*
X145262324Y-127700949D01*
X145492759Y-127815900D01*
X145741193Y-127883686D01*
X145998077Y-127901703D01*
X146253541Y-127869258D01*
X146497766Y-127787599D01*
X146659876Y-127700949D01*
X146760159Y-127512817D01*
X147702041Y-127512817D01*
X147802324Y-127700949D01*
X148032759Y-127815900D01*
X148281193Y-127883686D01*
X148538077Y-127901703D01*
X148793541Y-127869258D01*
X149037766Y-127787599D01*
X149199876Y-127700949D01*
X149300159Y-127512817D01*
X150242041Y-127512817D01*
X150342324Y-127700949D01*
X150572759Y-127815900D01*
X150821193Y-127883686D01*
X151078077Y-127901703D01*
X151333541Y-127869258D01*
X151577766Y-127787599D01*
X151739876Y-127700949D01*
X151840159Y-127512817D01*
X152782041Y-127512817D01*
X152882324Y-127700949D01*
X153112759Y-127815900D01*
X153361193Y-127883686D01*
X153618077Y-127901703D01*
X153873541Y-127869258D01*
X154117766Y-127787599D01*
X154279876Y-127700949D01*
X154380159Y-127512817D01*
X155322041Y-127512817D01*
X155422324Y-127700949D01*
X155652759Y-127815900D01*
X155901193Y-127883686D01*
X156158077Y-127901703D01*
X156413541Y-127869258D01*
X156657766Y-127787599D01*
X156819876Y-127700949D01*
X156920159Y-127512817D01*
X156121100Y-126713758D01*
X155322041Y-127512817D01*
X154380159Y-127512817D01*
X153581100Y-126713758D01*
X152782041Y-127512817D01*
X151840159Y-127512817D01*
X151041100Y-126713758D01*
X150242041Y-127512817D01*
X149300159Y-127512817D01*
X148501100Y-126713758D01*
X147702041Y-127512817D01*
X146760159Y-127512817D01*
X145961100Y-126713758D01*
X145162041Y-127512817D01*
X137794601Y-127512817D01*
X137794601Y-126625577D01*
X144647997Y-126625577D01*
X144680442Y-126881041D01*
X144762101Y-127125266D01*
X144848751Y-127287376D01*
X145036883Y-127387659D01*
X145835942Y-126588600D01*
X146086258Y-126588600D01*
X146885317Y-127387659D01*
X147073449Y-127287376D01*
X147188400Y-127056941D01*
X147229226Y-126907313D01*
X147302101Y-127125266D01*
X147388751Y-127287376D01*
X147576883Y-127387659D01*
X148375942Y-126588600D01*
X148626258Y-126588600D01*
X149425317Y-127387659D01*
X149613449Y-127287376D01*
X149728400Y-127056941D01*
X149769226Y-126907313D01*
X149842101Y-127125266D01*
X149928751Y-127287376D01*
X150116883Y-127387659D01*
X150915942Y-126588600D01*
X151166258Y-126588600D01*
X151965317Y-127387659D01*
X152153449Y-127287376D01*
X152268400Y-127056941D01*
X152309226Y-126907313D01*
X152382101Y-127125266D01*
X152468751Y-127287376D01*
X152656883Y-127387659D01*
X153455942Y-126588600D01*
X153706258Y-126588600D01*
X154505317Y-127387659D01*
X154693449Y-127287376D01*
X154808400Y-127056941D01*
X154849226Y-126907313D01*
X154922101Y-127125266D01*
X155008751Y-127287376D01*
X155196883Y-127387659D01*
X155995942Y-126588600D01*
X156246258Y-126588600D01*
X157045317Y-127387659D01*
X157233449Y-127287376D01*
X157348400Y-127056941D01*
X157416186Y-126808507D01*
X157434203Y-126551623D01*
X157401758Y-126296159D01*
X157320099Y-126051934D01*
X157233449Y-125889824D01*
X157045317Y-125789541D01*
X156246258Y-126588600D01*
X155995942Y-126588600D01*
X155196883Y-125789541D01*
X155008751Y-125889824D01*
X154893800Y-126120259D01*
X154852974Y-126269887D01*
X154780099Y-126051934D01*
X154693449Y-125889824D01*
X154505317Y-125789541D01*
X153706258Y-126588600D01*
X153455942Y-126588600D01*
X152656883Y-125789541D01*
X152468751Y-125889824D01*
X152353800Y-126120259D01*
X152312974Y-126269887D01*
X152240099Y-126051934D01*
X152153449Y-125889824D01*
X151965317Y-125789541D01*
X151166258Y-126588600D01*
X150915942Y-126588600D01*
X150116883Y-125789541D01*
X149928751Y-125889824D01*
X149813800Y-126120259D01*
X149772974Y-126269887D01*
X149700099Y-126051934D01*
X149613449Y-125889824D01*
X149425317Y-125789541D01*
X148626258Y-126588600D01*
X148375942Y-126588600D01*
X147576883Y-125789541D01*
X147388751Y-125889824D01*
X147273800Y-126120259D01*
X147232974Y-126269887D01*
X147160099Y-126051934D01*
X147073449Y-125889824D01*
X146885317Y-125789541D01*
X146086258Y-126588600D01*
X145835942Y-126588600D01*
X145036883Y-125789541D01*
X144848751Y-125889824D01*
X144733800Y-126120259D01*
X144666014Y-126368693D01*
X144647997Y-126625577D01*
X137794601Y-126625577D01*
X137794601Y-125664383D01*
X145162041Y-125664383D01*
X145961100Y-126463442D01*
X146760159Y-125664383D01*
X147702041Y-125664383D01*
X148501100Y-126463442D01*
X149300159Y-125664383D01*
X150242041Y-125664383D01*
X151041100Y-126463442D01*
X151840159Y-125664383D01*
X152782041Y-125664383D01*
X153581100Y-126463442D01*
X154380159Y-125664383D01*
X155322041Y-125664383D01*
X156121100Y-126463442D01*
X156920159Y-125664383D01*
X156819876Y-125476251D01*
X156589441Y-125361300D01*
X156341007Y-125293514D01*
X156084123Y-125275497D01*
X155828659Y-125307942D01*
X155584434Y-125389601D01*
X155422324Y-125476251D01*
X155322041Y-125664383D01*
X154380159Y-125664383D01*
X154279876Y-125476251D01*
X154049441Y-125361300D01*
X153801007Y-125293514D01*
X153544123Y-125275497D01*
X153288659Y-125307942D01*
X153044434Y-125389601D01*
X152882324Y-125476251D01*
X152782041Y-125664383D01*
X151840159Y-125664383D01*
X151739876Y-125476251D01*
X151509441Y-125361300D01*
X151261007Y-125293514D01*
X151004123Y-125275497D01*
X150748659Y-125307942D01*
X150504434Y-125389601D01*
X150342324Y-125476251D01*
X150242041Y-125664383D01*
X149300159Y-125664383D01*
X149199876Y-125476251D01*
X148969441Y-125361300D01*
X148721007Y-125293514D01*
X148464123Y-125275497D01*
X148208659Y-125307942D01*
X147964434Y-125389601D01*
X147802324Y-125476251D01*
X147702041Y-125664383D01*
X146760159Y-125664383D01*
X146659876Y-125476251D01*
X146429441Y-125361300D01*
X146181007Y-125293514D01*
X145924123Y-125275497D01*
X145668659Y-125307942D01*
X145424434Y-125389601D01*
X145262324Y-125476251D01*
X145162041Y-125664383D01*
X137794601Y-125664383D01*
X137794601Y-123952600D01*
X141811400Y-123952600D01*
X141811400Y-124144600D01*
X141848857Y-124332909D01*
X141922332Y-124510294D01*
X142029001Y-124669935D01*
X142164765Y-124805699D01*
X142324406Y-124912368D01*
X142501791Y-124985843D01*
X142690100Y-125023300D01*
X142882100Y-125023300D01*
X143070409Y-124985843D01*
X143247794Y-124912368D01*
X143407435Y-124805699D01*
X143543199Y-124669935D01*
X143649868Y-124510294D01*
X143723343Y-124332909D01*
X143760800Y-124144600D01*
X143760800Y-123952600D01*
X144351400Y-123952600D01*
X144351400Y-124144600D01*
X144388857Y-124332909D01*
X144462332Y-124510294D01*
X144569001Y-124669935D01*
X144704765Y-124805699D01*
X144864406Y-124912368D01*
X145041791Y-124985843D01*
X145230100Y-125023300D01*
X145422100Y-125023300D01*
X145610409Y-124985843D01*
X145787794Y-124912368D01*
X145947435Y-124805699D01*
X146083199Y-124669935D01*
X146189868Y-124510294D01*
X146263343Y-124332909D01*
X146300800Y-124144600D01*
X146300800Y-123952600D01*
X146263343Y-123764291D01*
X146189868Y-123586906D01*
X146083199Y-123427265D01*
X145947435Y-123291501D01*
X145787794Y-123184832D01*
X145610409Y-123111357D01*
X145422100Y-123073900D01*
X145230100Y-123073900D01*
X145041791Y-123111357D01*
X144864406Y-123184832D01*
X144704765Y-123291501D01*
X144569001Y-123427265D01*
X144462332Y-123586906D01*
X144388857Y-123764291D01*
X144351400Y-123952600D01*
X143760800Y-123952600D01*
X143723343Y-123764291D01*
X143649868Y-123586906D01*
X143543199Y-123427265D01*
X143407435Y-123291501D01*
X143247794Y-123184832D01*
X143070409Y-123111357D01*
X142882100Y-123073900D01*
X142690100Y-123073900D01*
X142501791Y-123111357D01*
X142324406Y-123184832D01*
X142164765Y-123291501D01*
X142029001Y-123427265D01*
X141922332Y-123586906D01*
X141848857Y-123764291D01*
X141811400Y-123952600D01*
X137794601Y-123952600D01*
X137794601Y-122660085D01*
X150472800Y-122660085D01*
X150472800Y-122897115D01*
X150519042Y-123129590D01*
X150609750Y-123348576D01*
X150741436Y-123545659D01*
X150909041Y-123713264D01*
X151106124Y-123844950D01*
X151325110Y-123935658D01*
X151557585Y-123981900D01*
X151794615Y-123981900D01*
X152027090Y-123935658D01*
X152246076Y-123844950D01*
X152443159Y-123713264D01*
X152610764Y-123545659D01*
X152742450Y-123348576D01*
X152833158Y-123129590D01*
X152879400Y-122897115D01*
X152879400Y-122660085D01*
X152833158Y-122427610D01*
X152742450Y-122208624D01*
X152610764Y-122011541D01*
X152443159Y-121843936D01*
X152246076Y-121712250D01*
X152027090Y-121621542D01*
X151794615Y-121575300D01*
X151557585Y-121575300D01*
X151325110Y-121621542D01*
X151106124Y-121712250D01*
X150909041Y-121843936D01*
X150741436Y-122011541D01*
X150609750Y-122208624D01*
X150519042Y-122427610D01*
X150472800Y-122660085D01*
X137794601Y-122660085D01*
X137794601Y-120120085D01*
X150472800Y-120120085D01*
X150472800Y-120357115D01*
X150519042Y-120589590D01*
X150609750Y-120808576D01*
X150741436Y-121005659D01*
X150909041Y-121173264D01*
X151106124Y-121304950D01*
X151325110Y-121395658D01*
X151557585Y-121441900D01*
X151794615Y-121441900D01*
X152027090Y-121395658D01*
X152246076Y-121304950D01*
X152443159Y-121173264D01*
X152610764Y-121005659D01*
X152742450Y-120808576D01*
X152833158Y-120589590D01*
X152879400Y-120357115D01*
X152879400Y-120120085D01*
X152833158Y-119887610D01*
X152742450Y-119668624D01*
X152610764Y-119471541D01*
X152443159Y-119303936D01*
X152246076Y-119172250D01*
X152027090Y-119081542D01*
X151794615Y-119035300D01*
X151557585Y-119035300D01*
X151325110Y-119081542D01*
X151106124Y-119172250D01*
X150909041Y-119303936D01*
X150741436Y-119471541D01*
X150609750Y-119668624D01*
X150519042Y-119887610D01*
X150472800Y-120120085D01*
X137794601Y-120120085D01*
X137794601Y-118872600D01*
X139271400Y-118872600D01*
X139271400Y-119064600D01*
X139308857Y-119252909D01*
X139382332Y-119430294D01*
X139489001Y-119589935D01*
X139624765Y-119725699D01*
X139784406Y-119832368D01*
X139961791Y-119905843D01*
X140150100Y-119943300D01*
X140342100Y-119943300D01*
X140530409Y-119905843D01*
X140707794Y-119832368D01*
X140861203Y-119729863D01*
X147229995Y-119729863D01*
X147302714Y-119894600D01*
X147494194Y-119986719D01*
X147699965Y-120039711D01*
X147912121Y-120051541D01*
X148122509Y-120021754D01*
X148323042Y-119951495D01*
X148429486Y-119894600D01*
X148502205Y-119729863D01*
X147866100Y-119093758D01*
X147229995Y-119729863D01*
X140861203Y-119729863D01*
X140867435Y-119725699D01*
X141003199Y-119589935D01*
X141109868Y-119430294D01*
X141183343Y-119252909D01*
X141220800Y-119064600D01*
X141220800Y-119014621D01*
X146783159Y-119014621D01*
X146812946Y-119225009D01*
X146883205Y-119425542D01*
X146940100Y-119531986D01*
X147104837Y-119604705D01*
X147740942Y-118968600D01*
X147991258Y-118968600D01*
X148627363Y-119604705D01*
X148792100Y-119531986D01*
X148884219Y-119340506D01*
X148937211Y-119134735D01*
X148949041Y-118922579D01*
X148919254Y-118712191D01*
X148848995Y-118511658D01*
X148792100Y-118405214D01*
X148627363Y-118332495D01*
X147991258Y-118968600D01*
X147740942Y-118968600D01*
X147104837Y-118332495D01*
X146940100Y-118405214D01*
X146847981Y-118596694D01*
X146794989Y-118802465D01*
X146783159Y-119014621D01*
X141220800Y-119014621D01*
X141220800Y-118872600D01*
X141183343Y-118684291D01*
X141109868Y-118506906D01*
X141003199Y-118347265D01*
X140867435Y-118211501D01*
X140861204Y-118207337D01*
X147229995Y-118207337D01*
X147866100Y-118843442D01*
X148502205Y-118207337D01*
X148429486Y-118042600D01*
X148238006Y-117950481D01*
X148032235Y-117897489D01*
X147820079Y-117885659D01*
X147609691Y-117915446D01*
X147409158Y-117985705D01*
X147302714Y-118042600D01*
X147229995Y-118207337D01*
X140861204Y-118207337D01*
X140707794Y-118104832D01*
X140530409Y-118031357D01*
X140342100Y-117993900D01*
X140150100Y-117993900D01*
X139961791Y-118031357D01*
X139784406Y-118104832D01*
X139624765Y-118211501D01*
X139489001Y-118347265D01*
X139382332Y-118506906D01*
X139308857Y-118684291D01*
X139271400Y-118872600D01*
X137794601Y-118872600D01*
X137794601Y-116332600D01*
X139271400Y-116332600D01*
X139271400Y-116524600D01*
X139308857Y-116712909D01*
X139382332Y-116890294D01*
X139489001Y-117049935D01*
X139624765Y-117185699D01*
X139784406Y-117292368D01*
X139961791Y-117365843D01*
X140150100Y-117403300D01*
X140342100Y-117403300D01*
X140530409Y-117365843D01*
X140707794Y-117292368D01*
X140867435Y-117185699D01*
X141003199Y-117049935D01*
X141109868Y-116890294D01*
X141183343Y-116712909D01*
X141220800Y-116524600D01*
X141220800Y-116332600D01*
X141811400Y-116332600D01*
X141811400Y-116524600D01*
X141848857Y-116712909D01*
X141922332Y-116890294D01*
X142029001Y-117049935D01*
X142164765Y-117185699D01*
X142324406Y-117292368D01*
X142501791Y-117365843D01*
X142690100Y-117403300D01*
X142882100Y-117403300D01*
X143070409Y-117365843D01*
X143247794Y-117292368D01*
X143407435Y-117185699D01*
X143543199Y-117049935D01*
X143649868Y-116890294D01*
X143723343Y-116712909D01*
X143760800Y-116524600D01*
X143760800Y-116332600D01*
X144351400Y-116332600D01*
X144351400Y-116524600D01*
X144388857Y-116712909D01*
X144462332Y-116890294D01*
X144569001Y-117049935D01*
X144704765Y-117185699D01*
X144864406Y-117292368D01*
X145041791Y-117365843D01*
X145230100Y-117403300D01*
X145422100Y-117403300D01*
X145610409Y-117365843D01*
X145787794Y-117292368D01*
X145947435Y-117185699D01*
X146083199Y-117049935D01*
X146189868Y-116890294D01*
X146263343Y-116712909D01*
X146300800Y-116524600D01*
X146300800Y-116332600D01*
X146891400Y-116332600D01*
X146891400Y-116524600D01*
X146928857Y-116712909D01*
X147002332Y-116890294D01*
X147109001Y-117049935D01*
X147244765Y-117185699D01*
X147404406Y-117292368D01*
X147581791Y-117365843D01*
X147770100Y-117403300D01*
X147962100Y-117403300D01*
X148150409Y-117365843D01*
X148327794Y-117292368D01*
X148487435Y-117185699D01*
X148623199Y-117049935D01*
X148729868Y-116890294D01*
X148803343Y-116712909D01*
X148840800Y-116524600D01*
X148840800Y-116332600D01*
X148803343Y-116144291D01*
X148729868Y-115966906D01*
X148623199Y-115807265D01*
X148487435Y-115671501D01*
X148327794Y-115564832D01*
X148150409Y-115491357D01*
X147962100Y-115453900D01*
X147770100Y-115453900D01*
X147581791Y-115491357D01*
X147404406Y-115564832D01*
X147244765Y-115671501D01*
X147109001Y-115807265D01*
X147002332Y-115966906D01*
X146928857Y-116144291D01*
X146891400Y-116332600D01*
X146300800Y-116332600D01*
X146263343Y-116144291D01*
X146189868Y-115966906D01*
X146083199Y-115807265D01*
X145947435Y-115671501D01*
X145787794Y-115564832D01*
X145610409Y-115491357D01*
X145422100Y-115453900D01*
X145230100Y-115453900D01*
X145041791Y-115491357D01*
X144864406Y-115564832D01*
X144704765Y-115671501D01*
X144569001Y-115807265D01*
X144462332Y-115966906D01*
X144388857Y-116144291D01*
X144351400Y-116332600D01*
X143760800Y-116332600D01*
X143723343Y-116144291D01*
X143649868Y-115966906D01*
X143543199Y-115807265D01*
X143407435Y-115671501D01*
X143247794Y-115564832D01*
X143070409Y-115491357D01*
X142882100Y-115453900D01*
X142690100Y-115453900D01*
X142501791Y-115491357D01*
X142324406Y-115564832D01*
X142164765Y-115671501D01*
X142029001Y-115807265D01*
X141922332Y-115966906D01*
X141848857Y-116144291D01*
X141811400Y-116332600D01*
X141220800Y-116332600D01*
X141183343Y-116144291D01*
X141109868Y-115966906D01*
X141003199Y-115807265D01*
X140867435Y-115671501D01*
X140707794Y-115564832D01*
X140530409Y-115491357D01*
X140342100Y-115453900D01*
X140150100Y-115453900D01*
X139961791Y-115491357D01*
X139784406Y-115564832D01*
X139624765Y-115671501D01*
X139489001Y-115807265D01*
X139382332Y-115966906D01*
X139308857Y-116144291D01*
X139271400Y-116332600D01*
X137794601Y-116332600D01*
X137794601Y-113800106D01*
X139347600Y-113800106D01*
X139347600Y-113977094D01*
X139382129Y-114150683D01*
X139449860Y-114314199D01*
X139548190Y-114461360D01*
X139673340Y-114586510D01*
X139820501Y-114684840D01*
X139984017Y-114752571D01*
X140157606Y-114787100D01*
X140334594Y-114787100D01*
X140508183Y-114752571D01*
X140671699Y-114684840D01*
X140818860Y-114586510D01*
X140944010Y-114461360D01*
X141042340Y-114314199D01*
X141110071Y-114150683D01*
X141144600Y-113977094D01*
X141144600Y-113800106D01*
X141887600Y-113800106D01*
X141887600Y-113977094D01*
X141922129Y-114150683D01*
X141989860Y-114314199D01*
X142088190Y-114461360D01*
X142213340Y-114586510D01*
X142360501Y-114684840D01*
X142524017Y-114752571D01*
X142697606Y-114787100D01*
X142874594Y-114787100D01*
X143048183Y-114752571D01*
X143211699Y-114684840D01*
X143345426Y-114595486D01*
X144744372Y-114595486D01*
X144807882Y-114752432D01*
X144986365Y-114836933D01*
X145177904Y-114884991D01*
X145375137Y-114894757D01*
X145570487Y-114865858D01*
X145756444Y-114799402D01*
X145844318Y-114752432D01*
X145907828Y-114595486D01*
X145326100Y-114013758D01*
X144744372Y-114595486D01*
X143345426Y-114595486D01*
X143358860Y-114586510D01*
X143484010Y-114461360D01*
X143582340Y-114314199D01*
X143650071Y-114150683D01*
X143684600Y-113977094D01*
X143684600Y-113937637D01*
X144319943Y-113937637D01*
X144348842Y-114132987D01*
X144415298Y-114318944D01*
X144462268Y-114406818D01*
X144619214Y-114470328D01*
X145200942Y-113888600D01*
X145451258Y-113888600D01*
X146032986Y-114470328D01*
X146189932Y-114406818D01*
X146274433Y-114228335D01*
X146322491Y-114036796D01*
X146332257Y-113839563D01*
X146326420Y-113800106D01*
X146967600Y-113800106D01*
X146967600Y-113977094D01*
X147002129Y-114150683D01*
X147069860Y-114314199D01*
X147168190Y-114461360D01*
X147293340Y-114586510D01*
X147440501Y-114684840D01*
X147604017Y-114752571D01*
X147777606Y-114787100D01*
X147954594Y-114787100D01*
X148128183Y-114752571D01*
X148291699Y-114684840D01*
X148438860Y-114586510D01*
X148564010Y-114461360D01*
X148662340Y-114314199D01*
X148730071Y-114150683D01*
X148764600Y-113977094D01*
X148764600Y-113800106D01*
X148758629Y-113770085D01*
X150472800Y-113770085D01*
X150472800Y-114007115D01*
X150519042Y-114239590D01*
X150609750Y-114458576D01*
X150741436Y-114655659D01*
X150909041Y-114823264D01*
X151106124Y-114954950D01*
X151325110Y-115045658D01*
X151557585Y-115091900D01*
X151794615Y-115091900D01*
X152027090Y-115045658D01*
X152246076Y-114954950D01*
X152443159Y-114823264D01*
X152610764Y-114655659D01*
X152742450Y-114458576D01*
X152833158Y-114239590D01*
X152879400Y-114007115D01*
X152879400Y-113770085D01*
X152833158Y-113537610D01*
X152742450Y-113318624D01*
X152610764Y-113121541D01*
X152443159Y-112953936D01*
X152246076Y-112822250D01*
X152027090Y-112731542D01*
X151794615Y-112685300D01*
X151557585Y-112685300D01*
X151325110Y-112731542D01*
X151106124Y-112822250D01*
X150909041Y-112953936D01*
X150741436Y-113121541D01*
X150609750Y-113318624D01*
X150519042Y-113537610D01*
X150472800Y-113770085D01*
X148758629Y-113770085D01*
X148730071Y-113626517D01*
X148662340Y-113463001D01*
X148564010Y-113315840D01*
X148438860Y-113190690D01*
X148291699Y-113092360D01*
X148128183Y-113024629D01*
X147954594Y-112990100D01*
X147777606Y-112990100D01*
X147604017Y-113024629D01*
X147440501Y-113092360D01*
X147293340Y-113190690D01*
X147168190Y-113315840D01*
X147069860Y-113463001D01*
X147002129Y-113626517D01*
X146967600Y-113800106D01*
X146326420Y-113800106D01*
X146303358Y-113644213D01*
X146236902Y-113458256D01*
X146189932Y-113370382D01*
X146032986Y-113306872D01*
X145451258Y-113888600D01*
X145200942Y-113888600D01*
X144619214Y-113306872D01*
X144462268Y-113370382D01*
X144377767Y-113548865D01*
X144329709Y-113740404D01*
X144319943Y-113937637D01*
X143684600Y-113937637D01*
X143684600Y-113800106D01*
X143650071Y-113626517D01*
X143582340Y-113463001D01*
X143484010Y-113315840D01*
X143358860Y-113190690D01*
X143345427Y-113181714D01*
X144744372Y-113181714D01*
X145326100Y-113763442D01*
X145907828Y-113181714D01*
X145844318Y-113024768D01*
X145665835Y-112940267D01*
X145474296Y-112892209D01*
X145277063Y-112882443D01*
X145081713Y-112911342D01*
X144895756Y-112977798D01*
X144807882Y-113024768D01*
X144744372Y-113181714D01*
X143345427Y-113181714D01*
X143211699Y-113092360D01*
X143048183Y-113024629D01*
X142874594Y-112990100D01*
X142697606Y-112990100D01*
X142524017Y-113024629D01*
X142360501Y-113092360D01*
X142213340Y-113190690D01*
X142088190Y-113315840D01*
X141989860Y-113463001D01*
X141922129Y-113626517D01*
X141887600Y-113800106D01*
X141144600Y-113800106D01*
X141110071Y-113626517D01*
X141042340Y-113463001D01*
X140944010Y-113315840D01*
X140818860Y-113190690D01*
X140671699Y-113092360D01*
X140508183Y-113024629D01*
X140334594Y-112990100D01*
X140157606Y-112990100D01*
X139984017Y-113024629D01*
X139820501Y-113092360D01*
X139673340Y-113190690D01*
X139548190Y-113315840D01*
X139449860Y-113463001D01*
X139382129Y-113626517D01*
X139347600Y-113800106D01*
X137794601Y-113800106D01*
X137794601Y-111230085D01*
X150472800Y-111230085D01*
X150472800Y-111467115D01*
X150519042Y-111699590D01*
X150609750Y-111918576D01*
X150741436Y-112115659D01*
X150909041Y-112283264D01*
X151106124Y-112414950D01*
X151325110Y-112505658D01*
X151557585Y-112551900D01*
X151794615Y-112551900D01*
X152027090Y-112505658D01*
X152246076Y-112414950D01*
X152443159Y-112283264D01*
X152610764Y-112115659D01*
X152742450Y-111918576D01*
X152833158Y-111699590D01*
X152879400Y-111467115D01*
X152879400Y-111230085D01*
X152833158Y-110997610D01*
X152742450Y-110778624D01*
X152610764Y-110581541D01*
X152443159Y-110413936D01*
X152246076Y-110282250D01*
X152027090Y-110191542D01*
X151794615Y-110145300D01*
X151557585Y-110145300D01*
X151325110Y-110191542D01*
X151106124Y-110282250D01*
X150909041Y-110413936D01*
X150741436Y-110581541D01*
X150609750Y-110778624D01*
X150519042Y-110997610D01*
X150472800Y-111230085D01*
X137794601Y-111230085D01*
X137794601Y-108690085D01*
X150472800Y-108690085D01*
X150472800Y-108927115D01*
X150519042Y-109159590D01*
X150609750Y-109378576D01*
X150741436Y-109575659D01*
X150909041Y-109743264D01*
X151106124Y-109874950D01*
X151325110Y-109965658D01*
X151557585Y-110011900D01*
X151794615Y-110011900D01*
X152027090Y-109965658D01*
X152246076Y-109874950D01*
X152443159Y-109743264D01*
X152610764Y-109575659D01*
X152742450Y-109378576D01*
X152833158Y-109159590D01*
X152879400Y-108927115D01*
X152879400Y-108690085D01*
X152833158Y-108457610D01*
X152742450Y-108238624D01*
X152610764Y-108041541D01*
X152443159Y-107873936D01*
X152246076Y-107742250D01*
X152027090Y-107651542D01*
X151794615Y-107605300D01*
X151557585Y-107605300D01*
X151325110Y-107651542D01*
X151106124Y-107742250D01*
X150909041Y-107873936D01*
X150741436Y-108041541D01*
X150609750Y-108238624D01*
X150519042Y-108457610D01*
X150472800Y-108690085D01*
X137794601Y-108690085D01*
X137794601Y-106180106D01*
X139347600Y-106180106D01*
X139347600Y-106357094D01*
X139382129Y-106530683D01*
X139449860Y-106694199D01*
X139548190Y-106841360D01*
X139673340Y-106966510D01*
X139820501Y-107064840D01*
X139984017Y-107132571D01*
X140157606Y-107167100D01*
X140334594Y-107167100D01*
X140508183Y-107132571D01*
X140671699Y-107064840D01*
X140818860Y-106966510D01*
X140944010Y-106841360D01*
X141042340Y-106694199D01*
X141110071Y-106530683D01*
X141144600Y-106357094D01*
X141144600Y-106180106D01*
X141887600Y-106180106D01*
X141887600Y-106357094D01*
X141922129Y-106530683D01*
X141989860Y-106694199D01*
X142088190Y-106841360D01*
X142213340Y-106966510D01*
X142360501Y-107064840D01*
X142524017Y-107132571D01*
X142697606Y-107167100D01*
X142874594Y-107167100D01*
X143048183Y-107132571D01*
X143211699Y-107064840D01*
X143358860Y-106966510D01*
X143484010Y-106841360D01*
X143582340Y-106694199D01*
X143650071Y-106530683D01*
X143684600Y-106357094D01*
X143684600Y-106180106D01*
X144427600Y-106180106D01*
X144427600Y-106357094D01*
X144462129Y-106530683D01*
X144529860Y-106694199D01*
X144628190Y-106841360D01*
X144753340Y-106966510D01*
X144900501Y-107064840D01*
X145064017Y-107132571D01*
X145237606Y-107167100D01*
X145414594Y-107167100D01*
X145588183Y-107132571D01*
X145751699Y-107064840D01*
X145898860Y-106966510D01*
X146024010Y-106841360D01*
X146122340Y-106694199D01*
X146190071Y-106530683D01*
X146224600Y-106357094D01*
X146224600Y-106180106D01*
X146967600Y-106180106D01*
X146967600Y-106357094D01*
X147002129Y-106530683D01*
X147069860Y-106694199D01*
X147168190Y-106841360D01*
X147293340Y-106966510D01*
X147440501Y-107064840D01*
X147604017Y-107132571D01*
X147777606Y-107167100D01*
X147954594Y-107167100D01*
X148128183Y-107132571D01*
X148291699Y-107064840D01*
X148438860Y-106966510D01*
X148564010Y-106841360D01*
X148662340Y-106694199D01*
X148730071Y-106530683D01*
X148764600Y-106357094D01*
X148764600Y-106180106D01*
X148730071Y-106006517D01*
X148662340Y-105843001D01*
X148564010Y-105695840D01*
X148438860Y-105570690D01*
X148291699Y-105472360D01*
X148128183Y-105404629D01*
X147954594Y-105370100D01*
X147777606Y-105370100D01*
X147604017Y-105404629D01*
X147440501Y-105472360D01*
X147293340Y-105570690D01*
X147168190Y-105695840D01*
X147069860Y-105843001D01*
X147002129Y-106006517D01*
X146967600Y-106180106D01*
X146224600Y-106180106D01*
X146190071Y-106006517D01*
X146122340Y-105843001D01*
X146024010Y-105695840D01*
X145898860Y-105570690D01*
X145751699Y-105472360D01*
X145588183Y-105404629D01*
X145414594Y-105370100D01*
X145237606Y-105370100D01*
X145064017Y-105404629D01*
X144900501Y-105472360D01*
X144753340Y-105570690D01*
X144628190Y-105695840D01*
X144529860Y-105843001D01*
X144462129Y-106006517D01*
X144427600Y-106180106D01*
X143684600Y-106180106D01*
X143650071Y-106006517D01*
X143582340Y-105843001D01*
X143484010Y-105695840D01*
X143358860Y-105570690D01*
X143211699Y-105472360D01*
X143048183Y-105404629D01*
X142874594Y-105370100D01*
X142697606Y-105370100D01*
X142524017Y-105404629D01*
X142360501Y-105472360D01*
X142213340Y-105570690D01*
X142088190Y-105695840D01*
X141989860Y-105843001D01*
X141922129Y-106006517D01*
X141887600Y-106180106D01*
X141144600Y-106180106D01*
X141110071Y-106006517D01*
X141042340Y-105843001D01*
X140944010Y-105695840D01*
X140818860Y-105570690D01*
X140671699Y-105472360D01*
X140508183Y-105404629D01*
X140334594Y-105370100D01*
X140157606Y-105370100D01*
X139984017Y-105404629D01*
X139820501Y-105472360D01*
X139673340Y-105570690D01*
X139548190Y-105695840D01*
X139449860Y-105843001D01*
X139382129Y-106006517D01*
X139347600Y-106180106D01*
X137794601Y-106180106D01*
X137794601Y-103632600D01*
X139271400Y-103632600D01*
X139271400Y-103824600D01*
X139308857Y-104012909D01*
X139382332Y-104190294D01*
X139489001Y-104349935D01*
X139624765Y-104485699D01*
X139784406Y-104592368D01*
X139961791Y-104665843D01*
X140150100Y-104703300D01*
X140342100Y-104703300D01*
X140530409Y-104665843D01*
X140707794Y-104592368D01*
X140861203Y-104489863D01*
X142149995Y-104489863D01*
X142222714Y-104654600D01*
X142414194Y-104746719D01*
X142619965Y-104799711D01*
X142832121Y-104811541D01*
X143042509Y-104781754D01*
X143243042Y-104711495D01*
X143349486Y-104654600D01*
X143422205Y-104489863D01*
X142786100Y-103853758D01*
X142149995Y-104489863D01*
X140861203Y-104489863D01*
X140867435Y-104485699D01*
X141003199Y-104349935D01*
X141109868Y-104190294D01*
X141183343Y-104012909D01*
X141220800Y-103824600D01*
X141220800Y-103774621D01*
X141703159Y-103774621D01*
X141732946Y-103985009D01*
X141803205Y-104185542D01*
X141860100Y-104291986D01*
X142024837Y-104364705D01*
X142660942Y-103728600D01*
X142911258Y-103728600D01*
X143547363Y-104364705D01*
X143712100Y-104291986D01*
X143804219Y-104100506D01*
X143857211Y-103894735D01*
X143869041Y-103682579D01*
X143839254Y-103472191D01*
X143768995Y-103271658D01*
X143712100Y-103165214D01*
X143547363Y-103092495D01*
X142911258Y-103728600D01*
X142660942Y-103728600D01*
X142024837Y-103092495D01*
X141860100Y-103165214D01*
X141767981Y-103356694D01*
X141714989Y-103562465D01*
X141703159Y-103774621D01*
X141220800Y-103774621D01*
X141220800Y-103632600D01*
X141183343Y-103444291D01*
X141109868Y-103266906D01*
X141003199Y-103107265D01*
X140867435Y-102971501D01*
X140861204Y-102967337D01*
X142149995Y-102967337D01*
X142786100Y-103603442D01*
X143422205Y-102967337D01*
X143349486Y-102802600D01*
X143158006Y-102710481D01*
X142952235Y-102657489D01*
X142740079Y-102645659D01*
X142529691Y-102675446D01*
X142329158Y-102745705D01*
X142222714Y-102802600D01*
X142149995Y-102967337D01*
X140861204Y-102967337D01*
X140707794Y-102864832D01*
X140530409Y-102791357D01*
X140342100Y-102753900D01*
X140150100Y-102753900D01*
X139961791Y-102791357D01*
X139784406Y-102864832D01*
X139624765Y-102971501D01*
X139489001Y-103107265D01*
X139382332Y-103266906D01*
X139308857Y-103444291D01*
X139271400Y-103632600D01*
X137794601Y-103632600D01*
X137794601Y-100130097D01*
X141166761Y-100130097D01*
X141298350Y-100344876D01*
X141573089Y-100485794D01*
X141870040Y-100570405D01*
X142177793Y-100595458D01*
X142484519Y-100559990D01*
X142778433Y-100465364D01*
X143003850Y-100344876D01*
X143135439Y-100130097D01*
X142151100Y-99145758D01*
X141166761Y-100130097D01*
X137794601Y-100130097D01*
X137794601Y-99047293D01*
X140576242Y-99047293D01*
X140611710Y-99354019D01*
X140706336Y-99647933D01*
X140826824Y-99873350D01*
X141041603Y-100004939D01*
X142025942Y-99020600D01*
X142276258Y-99020600D01*
X143260597Y-100004939D01*
X143475376Y-99873350D01*
X143616294Y-99598611D01*
X143700905Y-99301660D01*
X143725958Y-98993907D01*
X143714655Y-98896156D01*
X144019600Y-98896156D01*
X144019600Y-99145044D01*
X144068155Y-99389149D01*
X144163400Y-99619092D01*
X144301675Y-99826035D01*
X144477665Y-100002025D01*
X144684608Y-100140300D01*
X144914551Y-100235545D01*
X145158656Y-100284100D01*
X145407544Y-100284100D01*
X145651649Y-100235545D01*
X145881592Y-100140300D01*
X146088535Y-100002025D01*
X146264525Y-99826035D01*
X146402800Y-99619092D01*
X146498045Y-99389149D01*
X146546600Y-99145044D01*
X146546600Y-98896156D01*
X146542682Y-98876458D01*
X153387600Y-98876458D01*
X153387600Y-99164742D01*
X153443842Y-99447487D01*
X153554163Y-99713827D01*
X153714326Y-99953527D01*
X153918173Y-100157374D01*
X154157873Y-100317537D01*
X154424213Y-100427858D01*
X154706958Y-100484100D01*
X154995242Y-100484100D01*
X155277987Y-100427858D01*
X155544327Y-100317537D01*
X155784027Y-100157374D01*
X155987874Y-99953527D01*
X156148037Y-99713827D01*
X156258358Y-99447487D01*
X156314600Y-99164742D01*
X156314600Y-98876458D01*
X156258358Y-98593713D01*
X156148037Y-98327373D01*
X155987874Y-98087673D01*
X155784027Y-97883826D01*
X155544327Y-97723663D01*
X155277987Y-97613342D01*
X154995242Y-97557100D01*
X154706958Y-97557100D01*
X154424213Y-97613342D01*
X154157873Y-97723663D01*
X153918173Y-97883826D01*
X153714326Y-98087673D01*
X153554163Y-98327373D01*
X153443842Y-98593713D01*
X153387600Y-98876458D01*
X146542682Y-98876458D01*
X146498045Y-98652051D01*
X146402800Y-98422108D01*
X146264525Y-98215165D01*
X146088535Y-98039175D01*
X145881592Y-97900900D01*
X145651649Y-97805655D01*
X145407544Y-97757100D01*
X145158656Y-97757100D01*
X144914551Y-97805655D01*
X144684608Y-97900900D01*
X144477665Y-98039175D01*
X144301675Y-98215165D01*
X144163400Y-98422108D01*
X144068155Y-98652051D01*
X144019600Y-98896156D01*
X143714655Y-98896156D01*
X143690490Y-98687181D01*
X143595864Y-98393267D01*
X143475376Y-98167850D01*
X143260597Y-98036261D01*
X142276258Y-99020600D01*
X142025942Y-99020600D01*
X141041603Y-98036261D01*
X140826824Y-98167850D01*
X140685906Y-98442589D01*
X140601295Y-98739540D01*
X140576242Y-99047293D01*
X137794601Y-99047293D01*
X137794601Y-97911103D01*
X141166761Y-97911103D01*
X142151100Y-98895442D01*
X143135439Y-97911103D01*
X143003850Y-97696324D01*
X142729111Y-97555406D01*
X142432160Y-97470795D01*
X142124407Y-97445742D01*
X141817681Y-97481210D01*
X141523767Y-97575836D01*
X141298350Y-97696324D01*
X141166761Y-97911103D01*
X137794601Y-97911103D01*
X137794601Y-88593307D01*
X141273551Y-88593307D01*
X141387099Y-88792723D01*
X141636302Y-88918675D01*
X141905288Y-88993588D01*
X142183720Y-89014586D01*
X142460900Y-88980860D01*
X142726174Y-88893708D01*
X142915101Y-88792723D01*
X143028649Y-88593307D01*
X142151100Y-87715758D01*
X141273551Y-88593307D01*
X137794601Y-88593307D01*
X137794601Y-87623220D01*
X140727114Y-87623220D01*
X140760840Y-87900400D01*
X140847992Y-88165674D01*
X140948977Y-88354601D01*
X141148393Y-88468149D01*
X142025942Y-87590600D01*
X142276258Y-87590600D01*
X143153807Y-88468149D01*
X143353223Y-88354601D01*
X143479175Y-88105398D01*
X143554088Y-87836412D01*
X143575086Y-87557980D01*
X143563914Y-87466156D01*
X144019600Y-87466156D01*
X144019600Y-87715044D01*
X144068155Y-87959149D01*
X144163400Y-88189092D01*
X144301675Y-88396035D01*
X144477665Y-88572025D01*
X144684608Y-88710300D01*
X144914551Y-88805545D01*
X145158656Y-88854100D01*
X145407544Y-88854100D01*
X145651649Y-88805545D01*
X145881592Y-88710300D01*
X146088535Y-88572025D01*
X146264525Y-88396035D01*
X146402800Y-88189092D01*
X146498045Y-87959149D01*
X146546600Y-87715044D01*
X146546600Y-87466156D01*
X146542682Y-87446458D01*
X153387600Y-87446458D01*
X153387600Y-87734742D01*
X153443842Y-88017487D01*
X153554163Y-88283827D01*
X153714326Y-88523527D01*
X153918173Y-88727374D01*
X154157873Y-88887537D01*
X154424213Y-88997858D01*
X154706958Y-89054100D01*
X154995242Y-89054100D01*
X155277987Y-88997858D01*
X155544327Y-88887537D01*
X155784027Y-88727374D01*
X155987874Y-88523527D01*
X156148037Y-88283827D01*
X156258358Y-88017487D01*
X156314600Y-87734742D01*
X156314600Y-87446458D01*
X156258358Y-87163713D01*
X156148037Y-86897373D01*
X155987874Y-86657673D01*
X155784027Y-86453826D01*
X155544327Y-86293663D01*
X155277987Y-86183342D01*
X154995242Y-86127100D01*
X154706958Y-86127100D01*
X154424213Y-86183342D01*
X154157873Y-86293663D01*
X153918173Y-86453826D01*
X153714326Y-86657673D01*
X153554163Y-86897373D01*
X153443842Y-87163713D01*
X153387600Y-87446458D01*
X146542682Y-87446458D01*
X146498045Y-87222051D01*
X146402800Y-86992108D01*
X146264525Y-86785165D01*
X146088535Y-86609175D01*
X145881592Y-86470900D01*
X145651649Y-86375655D01*
X145407544Y-86327100D01*
X145158656Y-86327100D01*
X144914551Y-86375655D01*
X144684608Y-86470900D01*
X144477665Y-86609175D01*
X144301675Y-86785165D01*
X144163400Y-86992108D01*
X144068155Y-87222051D01*
X144019600Y-87466156D01*
X143563914Y-87466156D01*
X143541360Y-87280800D01*
X143454208Y-87015526D01*
X143353223Y-86826599D01*
X143153807Y-86713051D01*
X142276258Y-87590600D01*
X142025942Y-87590600D01*
X141148393Y-86713051D01*
X140948977Y-86826599D01*
X140823025Y-87075802D01*
X140748112Y-87344788D01*
X140727114Y-87623220D01*
X137794601Y-87623220D01*
X137794601Y-86587893D01*
X141273551Y-86587893D01*
X142151100Y-87465442D01*
X143028649Y-86587893D01*
X142915101Y-86388477D01*
X142665898Y-86262525D01*
X142396912Y-86187612D01*
X142118480Y-86166614D01*
X141841300Y-86200340D01*
X141576026Y-86287492D01*
X141387099Y-86388477D01*
X141273551Y-86587893D01*
X137794601Y-86587893D01*
X137794601Y-84332817D01*
X145162041Y-84332817D01*
X145262324Y-84520949D01*
X145492759Y-84635900D01*
X145741193Y-84703686D01*
X145998077Y-84721703D01*
X146253541Y-84689258D01*
X146497766Y-84607599D01*
X146659876Y-84520949D01*
X146760159Y-84332817D01*
X147702041Y-84332817D01*
X147802324Y-84520949D01*
X148032759Y-84635900D01*
X148281193Y-84703686D01*
X148538077Y-84721703D01*
X148793541Y-84689258D01*
X149037766Y-84607599D01*
X149199876Y-84520949D01*
X149300159Y-84332817D01*
X150242041Y-84332817D01*
X150342324Y-84520949D01*
X150572759Y-84635900D01*
X150821193Y-84703686D01*
X151078077Y-84721703D01*
X151333541Y-84689258D01*
X151577766Y-84607599D01*
X151739876Y-84520949D01*
X151840159Y-84332817D01*
X152782041Y-84332817D01*
X152882324Y-84520949D01*
X153112759Y-84635900D01*
X153361193Y-84703686D01*
X153618077Y-84721703D01*
X153873541Y-84689258D01*
X154117766Y-84607599D01*
X154279876Y-84520949D01*
X154380159Y-84332817D01*
X155322041Y-84332817D01*
X155422324Y-84520949D01*
X155652759Y-84635900D01*
X155901193Y-84703686D01*
X156158077Y-84721703D01*
X156413541Y-84689258D01*
X156657766Y-84607599D01*
X156819876Y-84520949D01*
X156920159Y-84332817D01*
X156121100Y-83533758D01*
X155322041Y-84332817D01*
X154380159Y-84332817D01*
X153581100Y-83533758D01*
X152782041Y-84332817D01*
X151840159Y-84332817D01*
X151041100Y-83533758D01*
X150242041Y-84332817D01*
X149300159Y-84332817D01*
X148501100Y-83533758D01*
X147702041Y-84332817D01*
X146760159Y-84332817D01*
X145961100Y-83533758D01*
X145162041Y-84332817D01*
X137794601Y-84332817D01*
X137794601Y-83445577D01*
X144647997Y-83445577D01*
X144680442Y-83701041D01*
X144762101Y-83945266D01*
X144848751Y-84107376D01*
X145036883Y-84207659D01*
X145835942Y-83408600D01*
X146086258Y-83408600D01*
X146885317Y-84207659D01*
X147073449Y-84107376D01*
X147188400Y-83876941D01*
X147229226Y-83727313D01*
X147302101Y-83945266D01*
X147388751Y-84107376D01*
X147576883Y-84207659D01*
X148375942Y-83408600D01*
X148626258Y-83408600D01*
X149425317Y-84207659D01*
X149613449Y-84107376D01*
X149728400Y-83876941D01*
X149769226Y-83727313D01*
X149842101Y-83945266D01*
X149928751Y-84107376D01*
X150116883Y-84207659D01*
X150915942Y-83408600D01*
X151166258Y-83408600D01*
X151965317Y-84207659D01*
X152153449Y-84107376D01*
X152268400Y-83876941D01*
X152309226Y-83727313D01*
X152382101Y-83945266D01*
X152468751Y-84107376D01*
X152656883Y-84207659D01*
X153455942Y-83408600D01*
X153706258Y-83408600D01*
X154505317Y-84207659D01*
X154693449Y-84107376D01*
X154808400Y-83876941D01*
X154849226Y-83727313D01*
X154922101Y-83945266D01*
X155008751Y-84107376D01*
X155196883Y-84207659D01*
X155995942Y-83408600D01*
X156246258Y-83408600D01*
X157045317Y-84207659D01*
X157233449Y-84107376D01*
X157348400Y-83876941D01*
X157416186Y-83628507D01*
X157434203Y-83371623D01*
X157401758Y-83116159D01*
X157320099Y-82871934D01*
X157233449Y-82709824D01*
X157045317Y-82609541D01*
X156246258Y-83408600D01*
X155995942Y-83408600D01*
X155196883Y-82609541D01*
X155008751Y-82709824D01*
X154893800Y-82940259D01*
X154852974Y-83089887D01*
X154780099Y-82871934D01*
X154693449Y-82709824D01*
X154505317Y-82609541D01*
X153706258Y-83408600D01*
X153455942Y-83408600D01*
X152656883Y-82609541D01*
X152468751Y-82709824D01*
X152353800Y-82940259D01*
X152312974Y-83089887D01*
X152240099Y-82871934D01*
X152153449Y-82709824D01*
X151965317Y-82609541D01*
X151166258Y-83408600D01*
X150915942Y-83408600D01*
X150116883Y-82609541D01*
X149928751Y-82709824D01*
X149813800Y-82940259D01*
X149772974Y-83089887D01*
X149700099Y-82871934D01*
X149613449Y-82709824D01*
X149425317Y-82609541D01*
X148626258Y-83408600D01*
X148375942Y-83408600D01*
X147576883Y-82609541D01*
X147388751Y-82709824D01*
X147273800Y-82940259D01*
X147232974Y-83089887D01*
X147160099Y-82871934D01*
X147073449Y-82709824D01*
X146885317Y-82609541D01*
X146086258Y-83408600D01*
X145835942Y-83408600D01*
X145036883Y-82609541D01*
X144848751Y-82709824D01*
X144733800Y-82940259D01*
X144666014Y-83188693D01*
X144647997Y-83445577D01*
X137794601Y-83445577D01*
X137794601Y-82484383D01*
X145162041Y-82484383D01*
X145961100Y-83283442D01*
X146760159Y-82484383D01*
X147702041Y-82484383D01*
X148501100Y-83283442D01*
X149300159Y-82484383D01*
X150242041Y-82484383D01*
X151041100Y-83283442D01*
X151840159Y-82484383D01*
X152782041Y-82484383D01*
X153581100Y-83283442D01*
X154380159Y-82484383D01*
X155322041Y-82484383D01*
X156121100Y-83283442D01*
X156920159Y-82484383D01*
X156819876Y-82296251D01*
X156589441Y-82181300D01*
X156341007Y-82113514D01*
X156084123Y-82095497D01*
X155828659Y-82127942D01*
X155584434Y-82209601D01*
X155422324Y-82296251D01*
X155322041Y-82484383D01*
X154380159Y-82484383D01*
X154279876Y-82296251D01*
X154049441Y-82181300D01*
X153801007Y-82113514D01*
X153544123Y-82095497D01*
X153288659Y-82127942D01*
X153044434Y-82209601D01*
X152882324Y-82296251D01*
X152782041Y-82484383D01*
X151840159Y-82484383D01*
X151739876Y-82296251D01*
X151509441Y-82181300D01*
X151261007Y-82113514D01*
X151004123Y-82095497D01*
X150748659Y-82127942D01*
X150504434Y-82209601D01*
X150342324Y-82296251D01*
X150242041Y-82484383D01*
X149300159Y-82484383D01*
X149199876Y-82296251D01*
X148969441Y-82181300D01*
X148721007Y-82113514D01*
X148464123Y-82095497D01*
X148208659Y-82127942D01*
X147964434Y-82209601D01*
X147802324Y-82296251D01*
X147702041Y-82484383D01*
X146760159Y-82484383D01*
X146659876Y-82296251D01*
X146429441Y-82181300D01*
X146181007Y-82113514D01*
X145924123Y-82095497D01*
X145668659Y-82127942D01*
X145424434Y-82209601D01*
X145262324Y-82296251D01*
X145162041Y-82484383D01*
X137794601Y-82484383D01*
X137794601Y-80872932D01*
X137806646Y-80750085D01*
X144757800Y-80750085D01*
X144757800Y-80987115D01*
X144804042Y-81219590D01*
X144894750Y-81438576D01*
X145026436Y-81635659D01*
X145194041Y-81803264D01*
X145391124Y-81934950D01*
X145610110Y-82025658D01*
X145842585Y-82071900D01*
X146079615Y-82071900D01*
X146312090Y-82025658D01*
X146531076Y-81934950D01*
X146728159Y-81803264D01*
X146895764Y-81635659D01*
X147027450Y-81438576D01*
X147118158Y-81219590D01*
X147164400Y-80987115D01*
X147164400Y-80750085D01*
X147297800Y-80750085D01*
X147297800Y-80987115D01*
X147344042Y-81219590D01*
X147434750Y-81438576D01*
X147566436Y-81635659D01*
X147734041Y-81803264D01*
X147931124Y-81934950D01*
X148150110Y-82025658D01*
X148382585Y-82071900D01*
X148619615Y-82071900D01*
X148852090Y-82025658D01*
X149071076Y-81934950D01*
X149268159Y-81803264D01*
X149435764Y-81635659D01*
X149567450Y-81438576D01*
X149658158Y-81219590D01*
X149704400Y-80987115D01*
X149704400Y-80750085D01*
X149837800Y-80750085D01*
X149837800Y-80987115D01*
X149884042Y-81219590D01*
X149974750Y-81438576D01*
X150106436Y-81635659D01*
X150274041Y-81803264D01*
X150471124Y-81934950D01*
X150690110Y-82025658D01*
X150922585Y-82071900D01*
X151159615Y-82071900D01*
X151392090Y-82025658D01*
X151611076Y-81934950D01*
X151808159Y-81803264D01*
X151975764Y-81635659D01*
X152107450Y-81438576D01*
X152198158Y-81219590D01*
X152244400Y-80987115D01*
X152244400Y-80750085D01*
X152377800Y-80750085D01*
X152377800Y-80987115D01*
X152424042Y-81219590D01*
X152514750Y-81438576D01*
X152646436Y-81635659D01*
X152814041Y-81803264D01*
X153011124Y-81934950D01*
X153230110Y-82025658D01*
X153462585Y-82071900D01*
X153699615Y-82071900D01*
X153932090Y-82025658D01*
X154151076Y-81934950D01*
X154348159Y-81803264D01*
X154515764Y-81635659D01*
X154647450Y-81438576D01*
X154738158Y-81219590D01*
X154784400Y-80987115D01*
X154784400Y-80750085D01*
X154917800Y-80750085D01*
X154917800Y-80987115D01*
X154964042Y-81219590D01*
X155054750Y-81438576D01*
X155186436Y-81635659D01*
X155354041Y-81803264D01*
X155551124Y-81934950D01*
X155770110Y-82025658D01*
X156002585Y-82071900D01*
X156239615Y-82071900D01*
X156472090Y-82025658D01*
X156691076Y-81934950D01*
X156888159Y-81803264D01*
X157055764Y-81635659D01*
X157187450Y-81438576D01*
X157278158Y-81219590D01*
X157324400Y-80987115D01*
X157324400Y-80750085D01*
X157278158Y-80517610D01*
X157187450Y-80298624D01*
X157055764Y-80101541D01*
X156888159Y-79933936D01*
X156691076Y-79802250D01*
X156472090Y-79711542D01*
X156239615Y-79665300D01*
X156002585Y-79665300D01*
X155770110Y-79711542D01*
X155551124Y-79802250D01*
X155354041Y-79933936D01*
X155186436Y-80101541D01*
X155054750Y-80298624D01*
X154964042Y-80517610D01*
X154917800Y-80750085D01*
X154784400Y-80750085D01*
X154738158Y-80517610D01*
X154647450Y-80298624D01*
X154515764Y-80101541D01*
X154348159Y-79933936D01*
X154151076Y-79802250D01*
X153932090Y-79711542D01*
X153699615Y-79665300D01*
X153462585Y-79665300D01*
X153230110Y-79711542D01*
X153011124Y-79802250D01*
X152814041Y-79933936D01*
X152646436Y-80101541D01*
X152514750Y-80298624D01*
X152424042Y-80517610D01*
X152377800Y-80750085D01*
X152244400Y-80750085D01*
X152198158Y-80517610D01*
X152107450Y-80298624D01*
X151975764Y-80101541D01*
X151808159Y-79933936D01*
X151611076Y-79802250D01*
X151392090Y-79711542D01*
X151159615Y-79665300D01*
X150922585Y-79665300D01*
X150690110Y-79711542D01*
X150471124Y-79802250D01*
X150274041Y-79933936D01*
X150106436Y-80101541D01*
X149974750Y-80298624D01*
X149884042Y-80517610D01*
X149837800Y-80750085D01*
X149704400Y-80750085D01*
X149658158Y-80517610D01*
X149567450Y-80298624D01*
X149435764Y-80101541D01*
X149268159Y-79933936D01*
X149071076Y-79802250D01*
X148852090Y-79711542D01*
X148619615Y-79665300D01*
X148382585Y-79665300D01*
X148150110Y-79711542D01*
X147931124Y-79802250D01*
X147734041Y-79933936D01*
X147566436Y-80101541D01*
X147434750Y-80298624D01*
X147344042Y-80517610D01*
X147297800Y-80750085D01*
X147164400Y-80750085D01*
X147118158Y-80517610D01*
X147027450Y-80298624D01*
X146895764Y-80101541D01*
X146728159Y-79933936D01*
X146531076Y-79802250D01*
X146312090Y-79711542D01*
X146079615Y-79665300D01*
X145842585Y-79665300D01*
X145610110Y-79711542D01*
X145391124Y-79802250D01*
X145194041Y-79933936D01*
X145026436Y-80101541D01*
X144894750Y-80298624D01*
X144804042Y-80517610D01*
X144757800Y-80750085D01*
X137806646Y-80750085D01*
X137829422Y-80517798D01*
X137931300Y-80180360D01*
X138096783Y-79869132D01*
X138319560Y-79595980D01*
X138591155Y-79371297D01*
X138901219Y-79203645D01*
X139237939Y-79099414D01*
X139592665Y-79062130D01*
X139601120Y-79062101D01*
X157396768Y-79062101D01*
X157751902Y-79096922D01*
G37*
X157751902Y-79096922D02*
X158089340Y-79198800D01*
X158400568Y-79364283D01*
X158673720Y-79587060D01*
X158898403Y-79858655D01*
X159066055Y-80168719D01*
X159170286Y-80505439D01*
X159207570Y-80860165D01*
X159207600Y-80868908D01*
X159207599Y-129124268D01*
X159172588Y-129481345D01*
X159070144Y-129820652D01*
X158903745Y-130133604D01*
X158679735Y-130408266D01*
X158406636Y-130634194D01*
X158094857Y-130802772D01*
X157756271Y-130907582D01*
X157399605Y-130945070D01*
X157391083Y-130945099D01*
X139718432Y-130945099D01*
X139341348Y-130908126D01*
X138982798Y-130799872D01*
X138652097Y-130624036D01*
X138361857Y-130387321D01*
X138123116Y-130098733D01*
X137944976Y-129769271D01*
X137834222Y-129411483D01*
X137794633Y-129034823D01*
X137794601Y-129025577D01*
X137794601Y-129010085D01*
X144757800Y-129010085D01*
X144757800Y-129247115D01*
X144804042Y-129479590D01*
X144894750Y-129698576D01*
X145026436Y-129895659D01*
X145194041Y-130063264D01*
X145391124Y-130194950D01*
X145610110Y-130285658D01*
X145842585Y-130331900D01*
X146079615Y-130331900D01*
X146312090Y-130285658D01*
X146531076Y-130194950D01*
X146728159Y-130063264D01*
X146895764Y-129895659D01*
X147027450Y-129698576D01*
X147118158Y-129479590D01*
X147164400Y-129247115D01*
X147164400Y-129010085D01*
X147297800Y-129010085D01*
X147297800Y-129247115D01*
X147344042Y-129479590D01*
X147434750Y-129698576D01*
X147566436Y-129895659D01*
X147734041Y-130063264D01*
X147931124Y-130194950D01*
X148150110Y-130285658D01*
X148382585Y-130331900D01*
X148619615Y-130331900D01*
X148852090Y-130285658D01*
X149071076Y-130194950D01*
X149268159Y-130063264D01*
X149435764Y-129895659D01*
X149567450Y-129698576D01*
X149658158Y-129479590D01*
X149704400Y-129247115D01*
X149704400Y-129010085D01*
X149837800Y-129010085D01*
X149837800Y-129247115D01*
X149884042Y-129479590D01*
X149974750Y-129698576D01*
X150106436Y-129895659D01*
X150274041Y-130063264D01*
X150471124Y-130194950D01*
X150690110Y-130285658D01*
X150922585Y-130331900D01*
X151159615Y-130331900D01*
X151392090Y-130285658D01*
X151611076Y-130194950D01*
X151808159Y-130063264D01*
X151975764Y-129895659D01*
X152107450Y-129698576D01*
X152198158Y-129479590D01*
X152244400Y-129247115D01*
X152244400Y-129010085D01*
X152377800Y-129010085D01*
X152377800Y-129247115D01*
X152424042Y-129479590D01*
X152514750Y-129698576D01*
X152646436Y-129895659D01*
X152814041Y-130063264D01*
X153011124Y-130194950D01*
X153230110Y-130285658D01*
X153462585Y-130331900D01*
X153699615Y-130331900D01*
X153932090Y-130285658D01*
X154151076Y-130194950D01*
X154348159Y-130063264D01*
X154515764Y-129895659D01*
X154647450Y-129698576D01*
X154738158Y-129479590D01*
X154784400Y-129247115D01*
X154784400Y-129010085D01*
X154917800Y-129010085D01*
X154917800Y-129247115D01*
X154964042Y-129479590D01*
X155054750Y-129698576D01*
X155186436Y-129895659D01*
X155354041Y-130063264D01*
X155551124Y-130194950D01*
X155770110Y-130285658D01*
X156002585Y-130331900D01*
X156239615Y-130331900D01*
X156472090Y-130285658D01*
X156691076Y-130194950D01*
X156888159Y-130063264D01*
X157055764Y-129895659D01*
X157187450Y-129698576D01*
X157278158Y-129479590D01*
X157324400Y-129247115D01*
X157324400Y-129010085D01*
X157278158Y-128777610D01*
X157187450Y-128558624D01*
X157055764Y-128361541D01*
X156888159Y-128193936D01*
X156691076Y-128062250D01*
X156472090Y-127971542D01*
X156239615Y-127925300D01*
X156002585Y-127925300D01*
X155770110Y-127971542D01*
X155551124Y-128062250D01*
X155354041Y-128193936D01*
X155186436Y-128361541D01*
X155054750Y-128558624D01*
X154964042Y-128777610D01*
X154917800Y-129010085D01*
X154784400Y-129010085D01*
X154738158Y-128777610D01*
X154647450Y-128558624D01*
X154515764Y-128361541D01*
X154348159Y-128193936D01*
X154151076Y-128062250D01*
X153932090Y-127971542D01*
X153699615Y-127925300D01*
X153462585Y-127925300D01*
X153230110Y-127971542D01*
X153011124Y-128062250D01*
X152814041Y-128193936D01*
X152646436Y-128361541D01*
X152514750Y-128558624D01*
X152424042Y-128777610D01*
X152377800Y-129010085D01*
X152244400Y-129010085D01*
X152198158Y-128777610D01*
X152107450Y-128558624D01*
X151975764Y-128361541D01*
X151808159Y-128193936D01*
X151611076Y-128062250D01*
X151392090Y-127971542D01*
X151159615Y-127925300D01*
X150922585Y-127925300D01*
X150690110Y-127971542D01*
X150471124Y-128062250D01*
X150274041Y-128193936D01*
X150106436Y-128361541D01*
X149974750Y-128558624D01*
X149884042Y-128777610D01*
X149837800Y-129010085D01*
X149704400Y-129010085D01*
X149658158Y-128777610D01*
X149567450Y-128558624D01*
X149435764Y-128361541D01*
X149268159Y-128193936D01*
X149071076Y-128062250D01*
X148852090Y-127971542D01*
X148619615Y-127925300D01*
X148382585Y-127925300D01*
X148150110Y-127971542D01*
X147931124Y-128062250D01*
X147734041Y-128193936D01*
X147566436Y-128361541D01*
X147434750Y-128558624D01*
X147344042Y-128777610D01*
X147297800Y-129010085D01*
X147164400Y-129010085D01*
X147118158Y-128777610D01*
X147027450Y-128558624D01*
X146895764Y-128361541D01*
X146728159Y-128193936D01*
X146531076Y-128062250D01*
X146312090Y-127971542D01*
X146079615Y-127925300D01*
X145842585Y-127925300D01*
X145610110Y-127971542D01*
X145391124Y-128062250D01*
X145194041Y-128193936D01*
X145026436Y-128361541D01*
X144894750Y-128558624D01*
X144804042Y-128777610D01*
X144757800Y-129010085D01*
X137794601Y-129010085D01*
X137794601Y-127512817D01*
X145162041Y-127512817D01*
X145262324Y-127700949D01*
X145492759Y-127815900D01*
X145741193Y-127883686D01*
X145998077Y-127901703D01*
X146253541Y-127869258D01*
X146497766Y-127787599D01*
X146659876Y-127700949D01*
X146760159Y-127512817D01*
X147702041Y-127512817D01*
X147802324Y-127700949D01*
X148032759Y-127815900D01*
X148281193Y-127883686D01*
X148538077Y-127901703D01*
X148793541Y-127869258D01*
X149037766Y-127787599D01*
X149199876Y-127700949D01*
X149300159Y-127512817D01*
X150242041Y-127512817D01*
X150342324Y-127700949D01*
X150572759Y-127815900D01*
X150821193Y-127883686D01*
X151078077Y-127901703D01*
X151333541Y-127869258D01*
X151577766Y-127787599D01*
X151739876Y-127700949D01*
X151840159Y-127512817D01*
X152782041Y-127512817D01*
X152882324Y-127700949D01*
X153112759Y-127815900D01*
X153361193Y-127883686D01*
X153618077Y-127901703D01*
X153873541Y-127869258D01*
X154117766Y-127787599D01*
X154279876Y-127700949D01*
X154380159Y-127512817D01*
X155322041Y-127512817D01*
X155422324Y-127700949D01*
X155652759Y-127815900D01*
X155901193Y-127883686D01*
X156158077Y-127901703D01*
X156413541Y-127869258D01*
X156657766Y-127787599D01*
X156819876Y-127700949D01*
X156920159Y-127512817D01*
X156121100Y-126713758D01*
X155322041Y-127512817D01*
X154380159Y-127512817D01*
X153581100Y-126713758D01*
X152782041Y-127512817D01*
X151840159Y-127512817D01*
X151041100Y-126713758D01*
X150242041Y-127512817D01*
X149300159Y-127512817D01*
X148501100Y-126713758D01*
X147702041Y-127512817D01*
X146760159Y-127512817D01*
X145961100Y-126713758D01*
X145162041Y-127512817D01*
X137794601Y-127512817D01*
X137794601Y-126625577D01*
X144647997Y-126625577D01*
X144680442Y-126881041D01*
X144762101Y-127125266D01*
X144848751Y-127287376D01*
X145036883Y-127387659D01*
X145835942Y-126588600D01*
X146086258Y-126588600D01*
X146885317Y-127387659D01*
X147073449Y-127287376D01*
X147188400Y-127056941D01*
X147229226Y-126907313D01*
X147302101Y-127125266D01*
X147388751Y-127287376D01*
X147576883Y-127387659D01*
X148375942Y-126588600D01*
X148626258Y-126588600D01*
X149425317Y-127387659D01*
X149613449Y-127287376D01*
X149728400Y-127056941D01*
X149769226Y-126907313D01*
X149842101Y-127125266D01*
X149928751Y-127287376D01*
X150116883Y-127387659D01*
X150915942Y-126588600D01*
X151166258Y-126588600D01*
X151965317Y-127387659D01*
X152153449Y-127287376D01*
X152268400Y-127056941D01*
X152309226Y-126907313D01*
X152382101Y-127125266D01*
X152468751Y-127287376D01*
X152656883Y-127387659D01*
X153455942Y-126588600D01*
X153706258Y-126588600D01*
X154505317Y-127387659D01*
X154693449Y-127287376D01*
X154808400Y-127056941D01*
X154849226Y-126907313D01*
X154922101Y-127125266D01*
X155008751Y-127287376D01*
X155196883Y-127387659D01*
X155995942Y-126588600D01*
X156246258Y-126588600D01*
X157045317Y-127387659D01*
X157233449Y-127287376D01*
X157348400Y-127056941D01*
X157416186Y-126808507D01*
X157434203Y-126551623D01*
X157401758Y-126296159D01*
X157320099Y-126051934D01*
X157233449Y-125889824D01*
X157045317Y-125789541D01*
X156246258Y-126588600D01*
X155995942Y-126588600D01*
X155196883Y-125789541D01*
X155008751Y-125889824D01*
X154893800Y-126120259D01*
X154852974Y-126269887D01*
X154780099Y-126051934D01*
X154693449Y-125889824D01*
X154505317Y-125789541D01*
X153706258Y-126588600D01*
X153455942Y-126588600D01*
X152656883Y-125789541D01*
X152468751Y-125889824D01*
X152353800Y-126120259D01*
X152312974Y-126269887D01*
X152240099Y-126051934D01*
X152153449Y-125889824D01*
X151965317Y-125789541D01*
X151166258Y-126588600D01*
X150915942Y-126588600D01*
X150116883Y-125789541D01*
X149928751Y-125889824D01*
X149813800Y-126120259D01*
X149772974Y-126269887D01*
X149700099Y-126051934D01*
X149613449Y-125889824D01*
X149425317Y-125789541D01*
X148626258Y-126588600D01*
X148375942Y-126588600D01*
X147576883Y-125789541D01*
X147388751Y-125889824D01*
X147273800Y-126120259D01*
X147232974Y-126269887D01*
X147160099Y-126051934D01*
X147073449Y-125889824D01*
X146885317Y-125789541D01*
X146086258Y-126588600D01*
X145835942Y-126588600D01*
X145036883Y-125789541D01*
X144848751Y-125889824D01*
X144733800Y-126120259D01*
X144666014Y-126368693D01*
X144647997Y-126625577D01*
X137794601Y-126625577D01*
X137794601Y-125664383D01*
X145162041Y-125664383D01*
X145961100Y-126463442D01*
X146760159Y-125664383D01*
X147702041Y-125664383D01*
X148501100Y-126463442D01*
X149300159Y-125664383D01*
X150242041Y-125664383D01*
X151041100Y-126463442D01*
X151840159Y-125664383D01*
X152782041Y-125664383D01*
X153581100Y-126463442D01*
X154380159Y-125664383D01*
X155322041Y-125664383D01*
X156121100Y-126463442D01*
X156920159Y-125664383D01*
X156819876Y-125476251D01*
X156589441Y-125361300D01*
X156341007Y-125293514D01*
X156084123Y-125275497D01*
X155828659Y-125307942D01*
X155584434Y-125389601D01*
X155422324Y-125476251D01*
X155322041Y-125664383D01*
X154380159Y-125664383D01*
X154279876Y-125476251D01*
X154049441Y-125361300D01*
X153801007Y-125293514D01*
X153544123Y-125275497D01*
X153288659Y-125307942D01*
X153044434Y-125389601D01*
X152882324Y-125476251D01*
X152782041Y-125664383D01*
X151840159Y-125664383D01*
X151739876Y-125476251D01*
X151509441Y-125361300D01*
X151261007Y-125293514D01*
X151004123Y-125275497D01*
X150748659Y-125307942D01*
X150504434Y-125389601D01*
X150342324Y-125476251D01*
X150242041Y-125664383D01*
X149300159Y-125664383D01*
X149199876Y-125476251D01*
X148969441Y-125361300D01*
X148721007Y-125293514D01*
X148464123Y-125275497D01*
X148208659Y-125307942D01*
X147964434Y-125389601D01*
X147802324Y-125476251D01*
X147702041Y-125664383D01*
X146760159Y-125664383D01*
X146659876Y-125476251D01*
X146429441Y-125361300D01*
X146181007Y-125293514D01*
X145924123Y-125275497D01*
X145668659Y-125307942D01*
X145424434Y-125389601D01*
X145262324Y-125476251D01*
X145162041Y-125664383D01*
X137794601Y-125664383D01*
X137794601Y-123952600D01*
X141811400Y-123952600D01*
X141811400Y-124144600D01*
X141848857Y-124332909D01*
X141922332Y-124510294D01*
X142029001Y-124669935D01*
X142164765Y-124805699D01*
X142324406Y-124912368D01*
X142501791Y-124985843D01*
X142690100Y-125023300D01*
X142882100Y-125023300D01*
X143070409Y-124985843D01*
X143247794Y-124912368D01*
X143407435Y-124805699D01*
X143543199Y-124669935D01*
X143649868Y-124510294D01*
X143723343Y-124332909D01*
X143760800Y-124144600D01*
X143760800Y-123952600D01*
X144351400Y-123952600D01*
X144351400Y-124144600D01*
X144388857Y-124332909D01*
X144462332Y-124510294D01*
X144569001Y-124669935D01*
X144704765Y-124805699D01*
X144864406Y-124912368D01*
X145041791Y-124985843D01*
X145230100Y-125023300D01*
X145422100Y-125023300D01*
X145610409Y-124985843D01*
X145787794Y-124912368D01*
X145947435Y-124805699D01*
X146083199Y-124669935D01*
X146189868Y-124510294D01*
X146263343Y-124332909D01*
X146300800Y-124144600D01*
X146300800Y-123952600D01*
X146263343Y-123764291D01*
X146189868Y-123586906D01*
X146083199Y-123427265D01*
X145947435Y-123291501D01*
X145787794Y-123184832D01*
X145610409Y-123111357D01*
X145422100Y-123073900D01*
X145230100Y-123073900D01*
X145041791Y-123111357D01*
X144864406Y-123184832D01*
X144704765Y-123291501D01*
X144569001Y-123427265D01*
X144462332Y-123586906D01*
X144388857Y-123764291D01*
X144351400Y-123952600D01*
X143760800Y-123952600D01*
X143723343Y-123764291D01*
X143649868Y-123586906D01*
X143543199Y-123427265D01*
X143407435Y-123291501D01*
X143247794Y-123184832D01*
X143070409Y-123111357D01*
X142882100Y-123073900D01*
X142690100Y-123073900D01*
X142501791Y-123111357D01*
X142324406Y-123184832D01*
X142164765Y-123291501D01*
X142029001Y-123427265D01*
X141922332Y-123586906D01*
X141848857Y-123764291D01*
X141811400Y-123952600D01*
X137794601Y-123952600D01*
X137794601Y-122660085D01*
X150472800Y-122660085D01*
X150472800Y-122897115D01*
X150519042Y-123129590D01*
X150609750Y-123348576D01*
X150741436Y-123545659D01*
X150909041Y-123713264D01*
X151106124Y-123844950D01*
X151325110Y-123935658D01*
X151557585Y-123981900D01*
X151794615Y-123981900D01*
X152027090Y-123935658D01*
X152246076Y-123844950D01*
X152443159Y-123713264D01*
X152610764Y-123545659D01*
X152742450Y-123348576D01*
X152833158Y-123129590D01*
X152879400Y-122897115D01*
X152879400Y-122660085D01*
X152833158Y-122427610D01*
X152742450Y-122208624D01*
X152610764Y-122011541D01*
X152443159Y-121843936D01*
X152246076Y-121712250D01*
X152027090Y-121621542D01*
X151794615Y-121575300D01*
X151557585Y-121575300D01*
X151325110Y-121621542D01*
X151106124Y-121712250D01*
X150909041Y-121843936D01*
X150741436Y-122011541D01*
X150609750Y-122208624D01*
X150519042Y-122427610D01*
X150472800Y-122660085D01*
X137794601Y-122660085D01*
X137794601Y-120120085D01*
X150472800Y-120120085D01*
X150472800Y-120357115D01*
X150519042Y-120589590D01*
X150609750Y-120808576D01*
X150741436Y-121005659D01*
X150909041Y-121173264D01*
X151106124Y-121304950D01*
X151325110Y-121395658D01*
X151557585Y-121441900D01*
X151794615Y-121441900D01*
X152027090Y-121395658D01*
X152246076Y-121304950D01*
X152443159Y-121173264D01*
X152610764Y-121005659D01*
X152742450Y-120808576D01*
X152833158Y-120589590D01*
X152879400Y-120357115D01*
X152879400Y-120120085D01*
X152833158Y-119887610D01*
X152742450Y-119668624D01*
X152610764Y-119471541D01*
X152443159Y-119303936D01*
X152246076Y-119172250D01*
X152027090Y-119081542D01*
X151794615Y-119035300D01*
X151557585Y-119035300D01*
X151325110Y-119081542D01*
X151106124Y-119172250D01*
X150909041Y-119303936D01*
X150741436Y-119471541D01*
X150609750Y-119668624D01*
X150519042Y-119887610D01*
X150472800Y-120120085D01*
X137794601Y-120120085D01*
X137794601Y-118872600D01*
X139271400Y-118872600D01*
X139271400Y-119064600D01*
X139308857Y-119252909D01*
X139382332Y-119430294D01*
X139489001Y-119589935D01*
X139624765Y-119725699D01*
X139784406Y-119832368D01*
X139961791Y-119905843D01*
X140150100Y-119943300D01*
X140342100Y-119943300D01*
X140530409Y-119905843D01*
X140707794Y-119832368D01*
X140861203Y-119729863D01*
X147229995Y-119729863D01*
X147302714Y-119894600D01*
X147494194Y-119986719D01*
X147699965Y-120039711D01*
X147912121Y-120051541D01*
X148122509Y-120021754D01*
X148323042Y-119951495D01*
X148429486Y-119894600D01*
X148502205Y-119729863D01*
X147866100Y-119093758D01*
X147229995Y-119729863D01*
X140861203Y-119729863D01*
X140867435Y-119725699D01*
X141003199Y-119589935D01*
X141109868Y-119430294D01*
X141183343Y-119252909D01*
X141220800Y-119064600D01*
X141220800Y-119014621D01*
X146783159Y-119014621D01*
X146812946Y-119225009D01*
X146883205Y-119425542D01*
X146940100Y-119531986D01*
X147104837Y-119604705D01*
X147740942Y-118968600D01*
X147991258Y-118968600D01*
X148627363Y-119604705D01*
X148792100Y-119531986D01*
X148884219Y-119340506D01*
X148937211Y-119134735D01*
X148949041Y-118922579D01*
X148919254Y-118712191D01*
X148848995Y-118511658D01*
X148792100Y-118405214D01*
X148627363Y-118332495D01*
X147991258Y-118968600D01*
X147740942Y-118968600D01*
X147104837Y-118332495D01*
X146940100Y-118405214D01*
X146847981Y-118596694D01*
X146794989Y-118802465D01*
X146783159Y-119014621D01*
X141220800Y-119014621D01*
X141220800Y-118872600D01*
X141183343Y-118684291D01*
X141109868Y-118506906D01*
X141003199Y-118347265D01*
X140867435Y-118211501D01*
X140861204Y-118207337D01*
X147229995Y-118207337D01*
X147866100Y-118843442D01*
X148502205Y-118207337D01*
X148429486Y-118042600D01*
X148238006Y-117950481D01*
X148032235Y-117897489D01*
X147820079Y-117885659D01*
X147609691Y-117915446D01*
X147409158Y-117985705D01*
X147302714Y-118042600D01*
X147229995Y-118207337D01*
X140861204Y-118207337D01*
X140707794Y-118104832D01*
X140530409Y-118031357D01*
X140342100Y-117993900D01*
X140150100Y-117993900D01*
X139961791Y-118031357D01*
X139784406Y-118104832D01*
X139624765Y-118211501D01*
X139489001Y-118347265D01*
X139382332Y-118506906D01*
X139308857Y-118684291D01*
X139271400Y-118872600D01*
X137794601Y-118872600D01*
X137794601Y-116332600D01*
X139271400Y-116332600D01*
X139271400Y-116524600D01*
X139308857Y-116712909D01*
X139382332Y-116890294D01*
X139489001Y-117049935D01*
X139624765Y-117185699D01*
X139784406Y-117292368D01*
X139961791Y-117365843D01*
X140150100Y-117403300D01*
X140342100Y-117403300D01*
X140530409Y-117365843D01*
X140707794Y-117292368D01*
X140867435Y-117185699D01*
X141003199Y-117049935D01*
X141109868Y-116890294D01*
X141183343Y-116712909D01*
X141220800Y-116524600D01*
X141220800Y-116332600D01*
X141811400Y-116332600D01*
X141811400Y-116524600D01*
X141848857Y-116712909D01*
X141922332Y-116890294D01*
X142029001Y-117049935D01*
X142164765Y-117185699D01*
X142324406Y-117292368D01*
X142501791Y-117365843D01*
X142690100Y-117403300D01*
X142882100Y-117403300D01*
X143070409Y-117365843D01*
X143247794Y-117292368D01*
X143407435Y-117185699D01*
X143543199Y-117049935D01*
X143649868Y-116890294D01*
X143723343Y-116712909D01*
X143760800Y-116524600D01*
X143760800Y-116332600D01*
X144351400Y-116332600D01*
X144351400Y-116524600D01*
X144388857Y-116712909D01*
X144462332Y-116890294D01*
X144569001Y-117049935D01*
X144704765Y-117185699D01*
X144864406Y-117292368D01*
X145041791Y-117365843D01*
X145230100Y-117403300D01*
X145422100Y-117403300D01*
X145610409Y-117365843D01*
X145787794Y-117292368D01*
X145947435Y-117185699D01*
X146083199Y-117049935D01*
X146189868Y-116890294D01*
X146263343Y-116712909D01*
X146300800Y-116524600D01*
X146300800Y-116332600D01*
X146891400Y-116332600D01*
X146891400Y-116524600D01*
X146928857Y-116712909D01*
X147002332Y-116890294D01*
X147109001Y-117049935D01*
X147244765Y-117185699D01*
X147404406Y-117292368D01*
X147581791Y-117365843D01*
X147770100Y-117403300D01*
X147962100Y-117403300D01*
X148150409Y-117365843D01*
X148327794Y-117292368D01*
X148487435Y-117185699D01*
X148623199Y-117049935D01*
X148729868Y-116890294D01*
X148803343Y-116712909D01*
X148840800Y-116524600D01*
X148840800Y-116332600D01*
X148803343Y-116144291D01*
X148729868Y-115966906D01*
X148623199Y-115807265D01*
X148487435Y-115671501D01*
X148327794Y-115564832D01*
X148150409Y-115491357D01*
X147962100Y-115453900D01*
X147770100Y-115453900D01*
X147581791Y-115491357D01*
X147404406Y-115564832D01*
X147244765Y-115671501D01*
X147109001Y-115807265D01*
X147002332Y-115966906D01*
X146928857Y-116144291D01*
X146891400Y-116332600D01*
X146300800Y-116332600D01*
X146263343Y-116144291D01*
X146189868Y-115966906D01*
X146083199Y-115807265D01*
X145947435Y-115671501D01*
X145787794Y-115564832D01*
X145610409Y-115491357D01*
X145422100Y-115453900D01*
X145230100Y-115453900D01*
X145041791Y-115491357D01*
X144864406Y-115564832D01*
X144704765Y-115671501D01*
X144569001Y-115807265D01*
X144462332Y-115966906D01*
X144388857Y-116144291D01*
X144351400Y-116332600D01*
X143760800Y-116332600D01*
X143723343Y-116144291D01*
X143649868Y-115966906D01*
X143543199Y-115807265D01*
X143407435Y-115671501D01*
X143247794Y-115564832D01*
X143070409Y-115491357D01*
X142882100Y-115453900D01*
X142690100Y-115453900D01*
X142501791Y-115491357D01*
X142324406Y-115564832D01*
X142164765Y-115671501D01*
X142029001Y-115807265D01*
X141922332Y-115966906D01*
X141848857Y-116144291D01*
X141811400Y-116332600D01*
X141220800Y-116332600D01*
X141183343Y-116144291D01*
X141109868Y-115966906D01*
X141003199Y-115807265D01*
X140867435Y-115671501D01*
X140707794Y-115564832D01*
X140530409Y-115491357D01*
X140342100Y-115453900D01*
X140150100Y-115453900D01*
X139961791Y-115491357D01*
X139784406Y-115564832D01*
X139624765Y-115671501D01*
X139489001Y-115807265D01*
X139382332Y-115966906D01*
X139308857Y-116144291D01*
X139271400Y-116332600D01*
X137794601Y-116332600D01*
X137794601Y-113800106D01*
X139347600Y-113800106D01*
X139347600Y-113977094D01*
X139382129Y-114150683D01*
X139449860Y-114314199D01*
X139548190Y-114461360D01*
X139673340Y-114586510D01*
X139820501Y-114684840D01*
X139984017Y-114752571D01*
X140157606Y-114787100D01*
X140334594Y-114787100D01*
X140508183Y-114752571D01*
X140671699Y-114684840D01*
X140818860Y-114586510D01*
X140944010Y-114461360D01*
X141042340Y-114314199D01*
X141110071Y-114150683D01*
X141144600Y-113977094D01*
X141144600Y-113800106D01*
X141887600Y-113800106D01*
X141887600Y-113977094D01*
X141922129Y-114150683D01*
X141989860Y-114314199D01*
X142088190Y-114461360D01*
X142213340Y-114586510D01*
X142360501Y-114684840D01*
X142524017Y-114752571D01*
X142697606Y-114787100D01*
X142874594Y-114787100D01*
X143048183Y-114752571D01*
X143211699Y-114684840D01*
X143345426Y-114595486D01*
X144744372Y-114595486D01*
X144807882Y-114752432D01*
X144986365Y-114836933D01*
X145177904Y-114884991D01*
X145375137Y-114894757D01*
X145570487Y-114865858D01*
X145756444Y-114799402D01*
X145844318Y-114752432D01*
X145907828Y-114595486D01*
X145326100Y-114013758D01*
X144744372Y-114595486D01*
X143345426Y-114595486D01*
X143358860Y-114586510D01*
X143484010Y-114461360D01*
X143582340Y-114314199D01*
X143650071Y-114150683D01*
X143684600Y-113977094D01*
X143684600Y-113937637D01*
X144319943Y-113937637D01*
X144348842Y-114132987D01*
X144415298Y-114318944D01*
X144462268Y-114406818D01*
X144619214Y-114470328D01*
X145200942Y-113888600D01*
X145451258Y-113888600D01*
X146032986Y-114470328D01*
X146189932Y-114406818D01*
X146274433Y-114228335D01*
X146322491Y-114036796D01*
X146332257Y-113839563D01*
X146326420Y-113800106D01*
X146967600Y-113800106D01*
X146967600Y-113977094D01*
X147002129Y-114150683D01*
X147069860Y-114314199D01*
X147168190Y-114461360D01*
X147293340Y-114586510D01*
X147440501Y-114684840D01*
X147604017Y-114752571D01*
X147777606Y-114787100D01*
X147954594Y-114787100D01*
X148128183Y-114752571D01*
X148291699Y-114684840D01*
X148438860Y-114586510D01*
X148564010Y-114461360D01*
X148662340Y-114314199D01*
X148730071Y-114150683D01*
X148764600Y-113977094D01*
X148764600Y-113800106D01*
X148758629Y-113770085D01*
X150472800Y-113770085D01*
X150472800Y-114007115D01*
X150519042Y-114239590D01*
X150609750Y-114458576D01*
X150741436Y-114655659D01*
X150909041Y-114823264D01*
X151106124Y-114954950D01*
X151325110Y-115045658D01*
X151557585Y-115091900D01*
X151794615Y-115091900D01*
X152027090Y-115045658D01*
X152246076Y-114954950D01*
X152443159Y-114823264D01*
X152610764Y-114655659D01*
X152742450Y-114458576D01*
X152833158Y-114239590D01*
X152879400Y-114007115D01*
X152879400Y-113770085D01*
X152833158Y-113537610D01*
X152742450Y-113318624D01*
X152610764Y-113121541D01*
X152443159Y-112953936D01*
X152246076Y-112822250D01*
X152027090Y-112731542D01*
X151794615Y-112685300D01*
X151557585Y-112685300D01*
X151325110Y-112731542D01*
X151106124Y-112822250D01*
X150909041Y-112953936D01*
X150741436Y-113121541D01*
X150609750Y-113318624D01*
X150519042Y-113537610D01*
X150472800Y-113770085D01*
X148758629Y-113770085D01*
X148730071Y-113626517D01*
X148662340Y-113463001D01*
X148564010Y-113315840D01*
X148438860Y-113190690D01*
X148291699Y-113092360D01*
X148128183Y-113024629D01*
X147954594Y-112990100D01*
X147777606Y-112990100D01*
X147604017Y-113024629D01*
X147440501Y-113092360D01*
X147293340Y-113190690D01*
X147168190Y-113315840D01*
X147069860Y-113463001D01*
X147002129Y-113626517D01*
X146967600Y-113800106D01*
X146326420Y-113800106D01*
X146303358Y-113644213D01*
X146236902Y-113458256D01*
X146189932Y-113370382D01*
X146032986Y-113306872D01*
X145451258Y-113888600D01*
X145200942Y-113888600D01*
X144619214Y-113306872D01*
X144462268Y-113370382D01*
X144377767Y-113548865D01*
X144329709Y-113740404D01*
X144319943Y-113937637D01*
X143684600Y-113937637D01*
X143684600Y-113800106D01*
X143650071Y-113626517D01*
X143582340Y-113463001D01*
X143484010Y-113315840D01*
X143358860Y-113190690D01*
X143345427Y-113181714D01*
X144744372Y-113181714D01*
X145326100Y-113763442D01*
X145907828Y-113181714D01*
X145844318Y-113024768D01*
X145665835Y-112940267D01*
X145474296Y-112892209D01*
X145277063Y-112882443D01*
X145081713Y-112911342D01*
X144895756Y-112977798D01*
X144807882Y-113024768D01*
X144744372Y-113181714D01*
X143345427Y-113181714D01*
X143211699Y-113092360D01*
X143048183Y-113024629D01*
X142874594Y-112990100D01*
X142697606Y-112990100D01*
X142524017Y-113024629D01*
X142360501Y-113092360D01*
X142213340Y-113190690D01*
X142088190Y-113315840D01*
X141989860Y-113463001D01*
X141922129Y-113626517D01*
X141887600Y-113800106D01*
X141144600Y-113800106D01*
X141110071Y-113626517D01*
X141042340Y-113463001D01*
X140944010Y-113315840D01*
X140818860Y-113190690D01*
X140671699Y-113092360D01*
X140508183Y-113024629D01*
X140334594Y-112990100D01*
X140157606Y-112990100D01*
X139984017Y-113024629D01*
X139820501Y-113092360D01*
X139673340Y-113190690D01*
X139548190Y-113315840D01*
X139449860Y-113463001D01*
X139382129Y-113626517D01*
X139347600Y-113800106D01*
X137794601Y-113800106D01*
X137794601Y-111230085D01*
X150472800Y-111230085D01*
X150472800Y-111467115D01*
X150519042Y-111699590D01*
X150609750Y-111918576D01*
X150741436Y-112115659D01*
X150909041Y-112283264D01*
X151106124Y-112414950D01*
X151325110Y-112505658D01*
X151557585Y-112551900D01*
X151794615Y-112551900D01*
X152027090Y-112505658D01*
X152246076Y-112414950D01*
X152443159Y-112283264D01*
X152610764Y-112115659D01*
X152742450Y-111918576D01*
X152833158Y-111699590D01*
X152879400Y-111467115D01*
X152879400Y-111230085D01*
X152833158Y-110997610D01*
X152742450Y-110778624D01*
X152610764Y-110581541D01*
X152443159Y-110413936D01*
X152246076Y-110282250D01*
X152027090Y-110191542D01*
X151794615Y-110145300D01*
X151557585Y-110145300D01*
X151325110Y-110191542D01*
X151106124Y-110282250D01*
X150909041Y-110413936D01*
X150741436Y-110581541D01*
X150609750Y-110778624D01*
X150519042Y-110997610D01*
X150472800Y-111230085D01*
X137794601Y-111230085D01*
X137794601Y-108690085D01*
X150472800Y-108690085D01*
X150472800Y-108927115D01*
X150519042Y-109159590D01*
X150609750Y-109378576D01*
X150741436Y-109575659D01*
X150909041Y-109743264D01*
X151106124Y-109874950D01*
X151325110Y-109965658D01*
X151557585Y-110011900D01*
X151794615Y-110011900D01*
X152027090Y-109965658D01*
X152246076Y-109874950D01*
X152443159Y-109743264D01*
X152610764Y-109575659D01*
X152742450Y-109378576D01*
X152833158Y-109159590D01*
X152879400Y-108927115D01*
X152879400Y-108690085D01*
X152833158Y-108457610D01*
X152742450Y-108238624D01*
X152610764Y-108041541D01*
X152443159Y-107873936D01*
X152246076Y-107742250D01*
X152027090Y-107651542D01*
X151794615Y-107605300D01*
X151557585Y-107605300D01*
X151325110Y-107651542D01*
X151106124Y-107742250D01*
X150909041Y-107873936D01*
X150741436Y-108041541D01*
X150609750Y-108238624D01*
X150519042Y-108457610D01*
X150472800Y-108690085D01*
X137794601Y-108690085D01*
X137794601Y-106180106D01*
X139347600Y-106180106D01*
X139347600Y-106357094D01*
X139382129Y-106530683D01*
X139449860Y-106694199D01*
X139548190Y-106841360D01*
X139673340Y-106966510D01*
X139820501Y-107064840D01*
X139984017Y-107132571D01*
X140157606Y-107167100D01*
X140334594Y-107167100D01*
X140508183Y-107132571D01*
X140671699Y-107064840D01*
X140818860Y-106966510D01*
X140944010Y-106841360D01*
X141042340Y-106694199D01*
X141110071Y-106530683D01*
X141144600Y-106357094D01*
X141144600Y-106180106D01*
X141887600Y-106180106D01*
X141887600Y-106357094D01*
X141922129Y-106530683D01*
X141989860Y-106694199D01*
X142088190Y-106841360D01*
X142213340Y-106966510D01*
X142360501Y-107064840D01*
X142524017Y-107132571D01*
X142697606Y-107167100D01*
X142874594Y-107167100D01*
X143048183Y-107132571D01*
X143211699Y-107064840D01*
X143358860Y-106966510D01*
X143484010Y-106841360D01*
X143582340Y-106694199D01*
X143650071Y-106530683D01*
X143684600Y-106357094D01*
X143684600Y-106180106D01*
X144427600Y-106180106D01*
X144427600Y-106357094D01*
X144462129Y-106530683D01*
X144529860Y-106694199D01*
X144628190Y-106841360D01*
X144753340Y-106966510D01*
X144900501Y-107064840D01*
X145064017Y-107132571D01*
X145237606Y-107167100D01*
X145414594Y-107167100D01*
X145588183Y-107132571D01*
X145751699Y-107064840D01*
X145898860Y-106966510D01*
X146024010Y-106841360D01*
X146122340Y-106694199D01*
X146190071Y-106530683D01*
X146224600Y-106357094D01*
X146224600Y-106180106D01*
X146967600Y-106180106D01*
X146967600Y-106357094D01*
X147002129Y-106530683D01*
X147069860Y-106694199D01*
X147168190Y-106841360D01*
X147293340Y-106966510D01*
X147440501Y-107064840D01*
X147604017Y-107132571D01*
X147777606Y-107167100D01*
X147954594Y-107167100D01*
X148128183Y-107132571D01*
X148291699Y-107064840D01*
X148438860Y-106966510D01*
X148564010Y-106841360D01*
X148662340Y-106694199D01*
X148730071Y-106530683D01*
X148764600Y-106357094D01*
X148764600Y-106180106D01*
X148730071Y-106006517D01*
X148662340Y-105843001D01*
X148564010Y-105695840D01*
X148438860Y-105570690D01*
X148291699Y-105472360D01*
X148128183Y-105404629D01*
X147954594Y-105370100D01*
X147777606Y-105370100D01*
X147604017Y-105404629D01*
X147440501Y-105472360D01*
X147293340Y-105570690D01*
X147168190Y-105695840D01*
X147069860Y-105843001D01*
X147002129Y-106006517D01*
X146967600Y-106180106D01*
X146224600Y-106180106D01*
X146190071Y-106006517D01*
X146122340Y-105843001D01*
X146024010Y-105695840D01*
X145898860Y-105570690D01*
X145751699Y-105472360D01*
X145588183Y-105404629D01*
X145414594Y-105370100D01*
X145237606Y-105370100D01*
X145064017Y-105404629D01*
X144900501Y-105472360D01*
X144753340Y-105570690D01*
X144628190Y-105695840D01*
X144529860Y-105843001D01*
X144462129Y-106006517D01*
X144427600Y-106180106D01*
X143684600Y-106180106D01*
X143650071Y-106006517D01*
X143582340Y-105843001D01*
X143484010Y-105695840D01*
X143358860Y-105570690D01*
X143211699Y-105472360D01*
X143048183Y-105404629D01*
X142874594Y-105370100D01*
X142697606Y-105370100D01*
X142524017Y-105404629D01*
X142360501Y-105472360D01*
X142213340Y-105570690D01*
X142088190Y-105695840D01*
X141989860Y-105843001D01*
X141922129Y-106006517D01*
X141887600Y-106180106D01*
X141144600Y-106180106D01*
X141110071Y-106006517D01*
X141042340Y-105843001D01*
X140944010Y-105695840D01*
X140818860Y-105570690D01*
X140671699Y-105472360D01*
X140508183Y-105404629D01*
X140334594Y-105370100D01*
X140157606Y-105370100D01*
X139984017Y-105404629D01*
X139820501Y-105472360D01*
X139673340Y-105570690D01*
X139548190Y-105695840D01*
X139449860Y-105843001D01*
X139382129Y-106006517D01*
X139347600Y-106180106D01*
X137794601Y-106180106D01*
X137794601Y-103632600D01*
X139271400Y-103632600D01*
X139271400Y-103824600D01*
X139308857Y-104012909D01*
X139382332Y-104190294D01*
X139489001Y-104349935D01*
X139624765Y-104485699D01*
X139784406Y-104592368D01*
X139961791Y-104665843D01*
X140150100Y-104703300D01*
X140342100Y-104703300D01*
X140530409Y-104665843D01*
X140707794Y-104592368D01*
X140861203Y-104489863D01*
X142149995Y-104489863D01*
X142222714Y-104654600D01*
X142414194Y-104746719D01*
X142619965Y-104799711D01*
X142832121Y-104811541D01*
X143042509Y-104781754D01*
X143243042Y-104711495D01*
X143349486Y-104654600D01*
X143422205Y-104489863D01*
X142786100Y-103853758D01*
X142149995Y-104489863D01*
X140861203Y-104489863D01*
X140867435Y-104485699D01*
X141003199Y-104349935D01*
X141109868Y-104190294D01*
X141183343Y-104012909D01*
X141220800Y-103824600D01*
X141220800Y-103774621D01*
X141703159Y-103774621D01*
X141732946Y-103985009D01*
X141803205Y-104185542D01*
X141860100Y-104291986D01*
X142024837Y-104364705D01*
X142660942Y-103728600D01*
X142911258Y-103728600D01*
X143547363Y-104364705D01*
X143712100Y-104291986D01*
X143804219Y-104100506D01*
X143857211Y-103894735D01*
X143869041Y-103682579D01*
X143839254Y-103472191D01*
X143768995Y-103271658D01*
X143712100Y-103165214D01*
X143547363Y-103092495D01*
X142911258Y-103728600D01*
X142660942Y-103728600D01*
X142024837Y-103092495D01*
X141860100Y-103165214D01*
X141767981Y-103356694D01*
X141714989Y-103562465D01*
X141703159Y-103774621D01*
X141220800Y-103774621D01*
X141220800Y-103632600D01*
X141183343Y-103444291D01*
X141109868Y-103266906D01*
X141003199Y-103107265D01*
X140867435Y-102971501D01*
X140861204Y-102967337D01*
X142149995Y-102967337D01*
X142786100Y-103603442D01*
X143422205Y-102967337D01*
X143349486Y-102802600D01*
X143158006Y-102710481D01*
X142952235Y-102657489D01*
X142740079Y-102645659D01*
X142529691Y-102675446D01*
X142329158Y-102745705D01*
X142222714Y-102802600D01*
X142149995Y-102967337D01*
X140861204Y-102967337D01*
X140707794Y-102864832D01*
X140530409Y-102791357D01*
X140342100Y-102753900D01*
X140150100Y-102753900D01*
X139961791Y-102791357D01*
X139784406Y-102864832D01*
X139624765Y-102971501D01*
X139489001Y-103107265D01*
X139382332Y-103266906D01*
X139308857Y-103444291D01*
X139271400Y-103632600D01*
X137794601Y-103632600D01*
X137794601Y-100130097D01*
X141166761Y-100130097D01*
X141298350Y-100344876D01*
X141573089Y-100485794D01*
X141870040Y-100570405D01*
X142177793Y-100595458D01*
X142484519Y-100559990D01*
X142778433Y-100465364D01*
X143003850Y-100344876D01*
X143135439Y-100130097D01*
X142151100Y-99145758D01*
X141166761Y-100130097D01*
X137794601Y-100130097D01*
X137794601Y-99047293D01*
X140576242Y-99047293D01*
X140611710Y-99354019D01*
X140706336Y-99647933D01*
X140826824Y-99873350D01*
X141041603Y-100004939D01*
X142025942Y-99020600D01*
X142276258Y-99020600D01*
X143260597Y-100004939D01*
X143475376Y-99873350D01*
X143616294Y-99598611D01*
X143700905Y-99301660D01*
X143725958Y-98993907D01*
X143714655Y-98896156D01*
X144019600Y-98896156D01*
X144019600Y-99145044D01*
X144068155Y-99389149D01*
X144163400Y-99619092D01*
X144301675Y-99826035D01*
X144477665Y-100002025D01*
X144684608Y-100140300D01*
X144914551Y-100235545D01*
X145158656Y-100284100D01*
X145407544Y-100284100D01*
X145651649Y-100235545D01*
X145881592Y-100140300D01*
X146088535Y-100002025D01*
X146264525Y-99826035D01*
X146402800Y-99619092D01*
X146498045Y-99389149D01*
X146546600Y-99145044D01*
X146546600Y-98896156D01*
X146542682Y-98876458D01*
X153387600Y-98876458D01*
X153387600Y-99164742D01*
X153443842Y-99447487D01*
X153554163Y-99713827D01*
X153714326Y-99953527D01*
X153918173Y-100157374D01*
X154157873Y-100317537D01*
X154424213Y-100427858D01*
X154706958Y-100484100D01*
X154995242Y-100484100D01*
X155277987Y-100427858D01*
X155544327Y-100317537D01*
X155784027Y-100157374D01*
X155987874Y-99953527D01*
X156148037Y-99713827D01*
X156258358Y-99447487D01*
X156314600Y-99164742D01*
X156314600Y-98876458D01*
X156258358Y-98593713D01*
X156148037Y-98327373D01*
X155987874Y-98087673D01*
X155784027Y-97883826D01*
X155544327Y-97723663D01*
X155277987Y-97613342D01*
X154995242Y-97557100D01*
X154706958Y-97557100D01*
X154424213Y-97613342D01*
X154157873Y-97723663D01*
X153918173Y-97883826D01*
X153714326Y-98087673D01*
X153554163Y-98327373D01*
X153443842Y-98593713D01*
X153387600Y-98876458D01*
X146542682Y-98876458D01*
X146498045Y-98652051D01*
X146402800Y-98422108D01*
X146264525Y-98215165D01*
X146088535Y-98039175D01*
X145881592Y-97900900D01*
X145651649Y-97805655D01*
X145407544Y-97757100D01*
X145158656Y-97757100D01*
X144914551Y-97805655D01*
X144684608Y-97900900D01*
X144477665Y-98039175D01*
X144301675Y-98215165D01*
X144163400Y-98422108D01*
X144068155Y-98652051D01*
X144019600Y-98896156D01*
X143714655Y-98896156D01*
X143690490Y-98687181D01*
X143595864Y-98393267D01*
X143475376Y-98167850D01*
X143260597Y-98036261D01*
X142276258Y-99020600D01*
X142025942Y-99020600D01*
X141041603Y-98036261D01*
X140826824Y-98167850D01*
X140685906Y-98442589D01*
X140601295Y-98739540D01*
X140576242Y-99047293D01*
X137794601Y-99047293D01*
X137794601Y-97911103D01*
X141166761Y-97911103D01*
X142151100Y-98895442D01*
X143135439Y-97911103D01*
X143003850Y-97696324D01*
X142729111Y-97555406D01*
X142432160Y-97470795D01*
X142124407Y-97445742D01*
X141817681Y-97481210D01*
X141523767Y-97575836D01*
X141298350Y-97696324D01*
X141166761Y-97911103D01*
X137794601Y-97911103D01*
X137794601Y-88593307D01*
X141273551Y-88593307D01*
X141387099Y-88792723D01*
X141636302Y-88918675D01*
X141905288Y-88993588D01*
X142183720Y-89014586D01*
X142460900Y-88980860D01*
X142726174Y-88893708D01*
X142915101Y-88792723D01*
X143028649Y-88593307D01*
X142151100Y-87715758D01*
X141273551Y-88593307D01*
X137794601Y-88593307D01*
X137794601Y-87623220D01*
X140727114Y-87623220D01*
X140760840Y-87900400D01*
X140847992Y-88165674D01*
X140948977Y-88354601D01*
X141148393Y-88468149D01*
X142025942Y-87590600D01*
X142276258Y-87590600D01*
X143153807Y-88468149D01*
X143353223Y-88354601D01*
X143479175Y-88105398D01*
X143554088Y-87836412D01*
X143575086Y-87557980D01*
X143563914Y-87466156D01*
X144019600Y-87466156D01*
X144019600Y-87715044D01*
X144068155Y-87959149D01*
X144163400Y-88189092D01*
X144301675Y-88396035D01*
X144477665Y-88572025D01*
X144684608Y-88710300D01*
X144914551Y-88805545D01*
X145158656Y-88854100D01*
X145407544Y-88854100D01*
X145651649Y-88805545D01*
X145881592Y-88710300D01*
X146088535Y-88572025D01*
X146264525Y-88396035D01*
X146402800Y-88189092D01*
X146498045Y-87959149D01*
X146546600Y-87715044D01*
X146546600Y-87466156D01*
X146542682Y-87446458D01*
X153387600Y-87446458D01*
X153387600Y-87734742D01*
X153443842Y-88017487D01*
X153554163Y-88283827D01*
X153714326Y-88523527D01*
X153918173Y-88727374D01*
X154157873Y-88887537D01*
X154424213Y-88997858D01*
X154706958Y-89054100D01*
X154995242Y-89054100D01*
X155277987Y-88997858D01*
X155544327Y-88887537D01*
X155784027Y-88727374D01*
X155987874Y-88523527D01*
X156148037Y-88283827D01*
X156258358Y-88017487D01*
X156314600Y-87734742D01*
X156314600Y-87446458D01*
X156258358Y-87163713D01*
X156148037Y-86897373D01*
X155987874Y-86657673D01*
X155784027Y-86453826D01*
X155544327Y-86293663D01*
X155277987Y-86183342D01*
X154995242Y-86127100D01*
X154706958Y-86127100D01*
X154424213Y-86183342D01*
X154157873Y-86293663D01*
X153918173Y-86453826D01*
X153714326Y-86657673D01*
X153554163Y-86897373D01*
X153443842Y-87163713D01*
X153387600Y-87446458D01*
X146542682Y-87446458D01*
X146498045Y-87222051D01*
X146402800Y-86992108D01*
X146264525Y-86785165D01*
X146088535Y-86609175D01*
X145881592Y-86470900D01*
X145651649Y-86375655D01*
X145407544Y-86327100D01*
X145158656Y-86327100D01*
X144914551Y-86375655D01*
X144684608Y-86470900D01*
X144477665Y-86609175D01*
X144301675Y-86785165D01*
X144163400Y-86992108D01*
X144068155Y-87222051D01*
X144019600Y-87466156D01*
X143563914Y-87466156D01*
X143541360Y-87280800D01*
X143454208Y-87015526D01*
X143353223Y-86826599D01*
X143153807Y-86713051D01*
X142276258Y-87590600D01*
X142025942Y-87590600D01*
X141148393Y-86713051D01*
X140948977Y-86826599D01*
X140823025Y-87075802D01*
X140748112Y-87344788D01*
X140727114Y-87623220D01*
X137794601Y-87623220D01*
X137794601Y-86587893D01*
X141273551Y-86587893D01*
X142151100Y-87465442D01*
X143028649Y-86587893D01*
X142915101Y-86388477D01*
X142665898Y-86262525D01*
X142396912Y-86187612D01*
X142118480Y-86166614D01*
X141841300Y-86200340D01*
X141576026Y-86287492D01*
X141387099Y-86388477D01*
X141273551Y-86587893D01*
X137794601Y-86587893D01*
X137794601Y-84332817D01*
X145162041Y-84332817D01*
X145262324Y-84520949D01*
X145492759Y-84635900D01*
X145741193Y-84703686D01*
X145998077Y-84721703D01*
X146253541Y-84689258D01*
X146497766Y-84607599D01*
X146659876Y-84520949D01*
X146760159Y-84332817D01*
X147702041Y-84332817D01*
X147802324Y-84520949D01*
X148032759Y-84635900D01*
X148281193Y-84703686D01*
X148538077Y-84721703D01*
X148793541Y-84689258D01*
X149037766Y-84607599D01*
X149199876Y-84520949D01*
X149300159Y-84332817D01*
X150242041Y-84332817D01*
X150342324Y-84520949D01*
X150572759Y-84635900D01*
X150821193Y-84703686D01*
X151078077Y-84721703D01*
X151333541Y-84689258D01*
X151577766Y-84607599D01*
X151739876Y-84520949D01*
X151840159Y-84332817D01*
X152782041Y-84332817D01*
X152882324Y-84520949D01*
X153112759Y-84635900D01*
X153361193Y-84703686D01*
X153618077Y-84721703D01*
X153873541Y-84689258D01*
X154117766Y-84607599D01*
X154279876Y-84520949D01*
X154380159Y-84332817D01*
X155322041Y-84332817D01*
X155422324Y-84520949D01*
X155652759Y-84635900D01*
X155901193Y-84703686D01*
X156158077Y-84721703D01*
X156413541Y-84689258D01*
X156657766Y-84607599D01*
X156819876Y-84520949D01*
X156920159Y-84332817D01*
X156121100Y-83533758D01*
X155322041Y-84332817D01*
X154380159Y-84332817D01*
X153581100Y-83533758D01*
X152782041Y-84332817D01*
X151840159Y-84332817D01*
X151041100Y-83533758D01*
X150242041Y-84332817D01*
X149300159Y-84332817D01*
X148501100Y-83533758D01*
X147702041Y-84332817D01*
X146760159Y-84332817D01*
X145961100Y-83533758D01*
X145162041Y-84332817D01*
X137794601Y-84332817D01*
X137794601Y-83445577D01*
X144647997Y-83445577D01*
X144680442Y-83701041D01*
X144762101Y-83945266D01*
X144848751Y-84107376D01*
X145036883Y-84207659D01*
X145835942Y-83408600D01*
X146086258Y-83408600D01*
X146885317Y-84207659D01*
X147073449Y-84107376D01*
X147188400Y-83876941D01*
X147229226Y-83727313D01*
X147302101Y-83945266D01*
X147388751Y-84107376D01*
X147576883Y-84207659D01*
X148375942Y-83408600D01*
X148626258Y-83408600D01*
X149425317Y-84207659D01*
X149613449Y-84107376D01*
X149728400Y-83876941D01*
X149769226Y-83727313D01*
X149842101Y-83945266D01*
X149928751Y-84107376D01*
X150116883Y-84207659D01*
X150915942Y-83408600D01*
X151166258Y-83408600D01*
X151965317Y-84207659D01*
X152153449Y-84107376D01*
X152268400Y-83876941D01*
X152309226Y-83727313D01*
X152382101Y-83945266D01*
X152468751Y-84107376D01*
X152656883Y-84207659D01*
X153455942Y-83408600D01*
X153706258Y-83408600D01*
X154505317Y-84207659D01*
X154693449Y-84107376D01*
X154808400Y-83876941D01*
X154849226Y-83727313D01*
X154922101Y-83945266D01*
X155008751Y-84107376D01*
X155196883Y-84207659D01*
X155995942Y-83408600D01*
X156246258Y-83408600D01*
X157045317Y-84207659D01*
X157233449Y-84107376D01*
X157348400Y-83876941D01*
X157416186Y-83628507D01*
X157434203Y-83371623D01*
X157401758Y-83116159D01*
X157320099Y-82871934D01*
X157233449Y-82709824D01*
X157045317Y-82609541D01*
X156246258Y-83408600D01*
X155995942Y-83408600D01*
X155196883Y-82609541D01*
X155008751Y-82709824D01*
X154893800Y-82940259D01*
X154852974Y-83089887D01*
X154780099Y-82871934D01*
X154693449Y-82709824D01*
X154505317Y-82609541D01*
X153706258Y-83408600D01*
X153455942Y-83408600D01*
X152656883Y-82609541D01*
X152468751Y-82709824D01*
X152353800Y-82940259D01*
X152312974Y-83089887D01*
X152240099Y-82871934D01*
X152153449Y-82709824D01*
X151965317Y-82609541D01*
X151166258Y-83408600D01*
X150915942Y-83408600D01*
X150116883Y-82609541D01*
X149928751Y-82709824D01*
X149813800Y-82940259D01*
X149772974Y-83089887D01*
X149700099Y-82871934D01*
X149613449Y-82709824D01*
X149425317Y-82609541D01*
X148626258Y-83408600D01*
X148375942Y-83408600D01*
X147576883Y-82609541D01*
X147388751Y-82709824D01*
X147273800Y-82940259D01*
X147232974Y-83089887D01*
X147160099Y-82871934D01*
X147073449Y-82709824D01*
X146885317Y-82609541D01*
X146086258Y-83408600D01*
X145835942Y-83408600D01*
X145036883Y-82609541D01*
X144848751Y-82709824D01*
X144733800Y-82940259D01*
X144666014Y-83188693D01*
X144647997Y-83445577D01*
X137794601Y-83445577D01*
X137794601Y-82484383D01*
X145162041Y-82484383D01*
X145961100Y-83283442D01*
X146760159Y-82484383D01*
X147702041Y-82484383D01*
X148501100Y-83283442D01*
X149300159Y-82484383D01*
X150242041Y-82484383D01*
X151041100Y-83283442D01*
X151840159Y-82484383D01*
X152782041Y-82484383D01*
X153581100Y-83283442D01*
X154380159Y-82484383D01*
X155322041Y-82484383D01*
X156121100Y-83283442D01*
X156920159Y-82484383D01*
X156819876Y-82296251D01*
X156589441Y-82181300D01*
X156341007Y-82113514D01*
X156084123Y-82095497D01*
X155828659Y-82127942D01*
X155584434Y-82209601D01*
X155422324Y-82296251D01*
X155322041Y-82484383D01*
X154380159Y-82484383D01*
X154279876Y-82296251D01*
X154049441Y-82181300D01*
X153801007Y-82113514D01*
X153544123Y-82095497D01*
X153288659Y-82127942D01*
X153044434Y-82209601D01*
X152882324Y-82296251D01*
X152782041Y-82484383D01*
X151840159Y-82484383D01*
X151739876Y-82296251D01*
X151509441Y-82181300D01*
X151261007Y-82113514D01*
X151004123Y-82095497D01*
X150748659Y-82127942D01*
X150504434Y-82209601D01*
X150342324Y-82296251D01*
X150242041Y-82484383D01*
X149300159Y-82484383D01*
X149199876Y-82296251D01*
X148969441Y-82181300D01*
X148721007Y-82113514D01*
X148464123Y-82095497D01*
X148208659Y-82127942D01*
X147964434Y-82209601D01*
X147802324Y-82296251D01*
X147702041Y-82484383D01*
X146760159Y-82484383D01*
X146659876Y-82296251D01*
X146429441Y-82181300D01*
X146181007Y-82113514D01*
X145924123Y-82095497D01*
X145668659Y-82127942D01*
X145424434Y-82209601D01*
X145262324Y-82296251D01*
X145162041Y-82484383D01*
X137794601Y-82484383D01*
X137794601Y-80872932D01*
X137806646Y-80750085D01*
X144757800Y-80750085D01*
X144757800Y-80987115D01*
X144804042Y-81219590D01*
X144894750Y-81438576D01*
X145026436Y-81635659D01*
X145194041Y-81803264D01*
X145391124Y-81934950D01*
X145610110Y-82025658D01*
X145842585Y-82071900D01*
X146079615Y-82071900D01*
X146312090Y-82025658D01*
X146531076Y-81934950D01*
X146728159Y-81803264D01*
X146895764Y-81635659D01*
X147027450Y-81438576D01*
X147118158Y-81219590D01*
X147164400Y-80987115D01*
X147164400Y-80750085D01*
X147297800Y-80750085D01*
X147297800Y-80987115D01*
X147344042Y-81219590D01*
X147434750Y-81438576D01*
X147566436Y-81635659D01*
X147734041Y-81803264D01*
X147931124Y-81934950D01*
X148150110Y-82025658D01*
X148382585Y-82071900D01*
X148619615Y-82071900D01*
X148852090Y-82025658D01*
X149071076Y-81934950D01*
X149268159Y-81803264D01*
X149435764Y-81635659D01*
X149567450Y-81438576D01*
X149658158Y-81219590D01*
X149704400Y-80987115D01*
X149704400Y-80750085D01*
X149837800Y-80750085D01*
X149837800Y-80987115D01*
X149884042Y-81219590D01*
X149974750Y-81438576D01*
X150106436Y-81635659D01*
X150274041Y-81803264D01*
X150471124Y-81934950D01*
X150690110Y-82025658D01*
X150922585Y-82071900D01*
X151159615Y-82071900D01*
X151392090Y-82025658D01*
X151611076Y-81934950D01*
X151808159Y-81803264D01*
X151975764Y-81635659D01*
X152107450Y-81438576D01*
X152198158Y-81219590D01*
X152244400Y-80987115D01*
X152244400Y-80750085D01*
X152377800Y-80750085D01*
X152377800Y-80987115D01*
X152424042Y-81219590D01*
X152514750Y-81438576D01*
X152646436Y-81635659D01*
X152814041Y-81803264D01*
X153011124Y-81934950D01*
X153230110Y-82025658D01*
X153462585Y-82071900D01*
X153699615Y-82071900D01*
X153932090Y-82025658D01*
X154151076Y-81934950D01*
X154348159Y-81803264D01*
X154515764Y-81635659D01*
X154647450Y-81438576D01*
X154738158Y-81219590D01*
X154784400Y-80987115D01*
X154784400Y-80750085D01*
X154917800Y-80750085D01*
X154917800Y-80987115D01*
X154964042Y-81219590D01*
X155054750Y-81438576D01*
X155186436Y-81635659D01*
X155354041Y-81803264D01*
X155551124Y-81934950D01*
X155770110Y-82025658D01*
X156002585Y-82071900D01*
X156239615Y-82071900D01*
X156472090Y-82025658D01*
X156691076Y-81934950D01*
X156888159Y-81803264D01*
X157055764Y-81635659D01*
X157187450Y-81438576D01*
X157278158Y-81219590D01*
X157324400Y-80987115D01*
X157324400Y-80750085D01*
X157278158Y-80517610D01*
X157187450Y-80298624D01*
X157055764Y-80101541D01*
X156888159Y-79933936D01*
X156691076Y-79802250D01*
X156472090Y-79711542D01*
X156239615Y-79665300D01*
X156002585Y-79665300D01*
X155770110Y-79711542D01*
X155551124Y-79802250D01*
X155354041Y-79933936D01*
X155186436Y-80101541D01*
X155054750Y-80298624D01*
X154964042Y-80517610D01*
X154917800Y-80750085D01*
X154784400Y-80750085D01*
X154738158Y-80517610D01*
X154647450Y-80298624D01*
X154515764Y-80101541D01*
X154348159Y-79933936D01*
X154151076Y-79802250D01*
X153932090Y-79711542D01*
X153699615Y-79665300D01*
X153462585Y-79665300D01*
X153230110Y-79711542D01*
X153011124Y-79802250D01*
X152814041Y-79933936D01*
X152646436Y-80101541D01*
X152514750Y-80298624D01*
X152424042Y-80517610D01*
X152377800Y-80750085D01*
X152244400Y-80750085D01*
X152198158Y-80517610D01*
X152107450Y-80298624D01*
X151975764Y-80101541D01*
X151808159Y-79933936D01*
X151611076Y-79802250D01*
X151392090Y-79711542D01*
X151159615Y-79665300D01*
X150922585Y-79665300D01*
X150690110Y-79711542D01*
X150471124Y-79802250D01*
X150274041Y-79933936D01*
X150106436Y-80101541D01*
X149974750Y-80298624D01*
X149884042Y-80517610D01*
X149837800Y-80750085D01*
X149704400Y-80750085D01*
X149658158Y-80517610D01*
X149567450Y-80298624D01*
X149435764Y-80101541D01*
X149268159Y-79933936D01*
X149071076Y-79802250D01*
X148852090Y-79711542D01*
X148619615Y-79665300D01*
X148382585Y-79665300D01*
X148150110Y-79711542D01*
X147931124Y-79802250D01*
X147734041Y-79933936D01*
X147566436Y-80101541D01*
X147434750Y-80298624D01*
X147344042Y-80517610D01*
X147297800Y-80750085D01*
X147164400Y-80750085D01*
X147118158Y-80517610D01*
X147027450Y-80298624D01*
X146895764Y-80101541D01*
X146728159Y-79933936D01*
X146531076Y-79802250D01*
X146312090Y-79711542D01*
X146079615Y-79665300D01*
X145842585Y-79665300D01*
X145610110Y-79711542D01*
X145391124Y-79802250D01*
X145194041Y-79933936D01*
X145026436Y-80101541D01*
X144894750Y-80298624D01*
X144804042Y-80517610D01*
X144757800Y-80750085D01*
X137806646Y-80750085D01*
X137829422Y-80517798D01*
X137931300Y-80180360D01*
X138096783Y-79869132D01*
X138319560Y-79595980D01*
X138591155Y-79371297D01*
X138901219Y-79203645D01*
X139237939Y-79099414D01*
X139592665Y-79062130D01*
X139601120Y-79062101D01*
X157396768Y-79062101D01*
X157751902Y-79096922D01*
%TD*%
M02*
